<?xml version="1.0" encoding="UTF-8" standalone="no"?>
<!DOCTYPE svg PUBLIC "-//W3C//DTD SVG 20010904//EN"
              "http://www.w3.org/TR/2001/REC-SVG-20010904/DTD/svg10.dtd">

<svg xmlns="http://www.w3.org/2000/svg"
     width="43.3494mm" height="43.3494mm"
     viewBox="0 0 512 512">
  <path id="Sélection"
        fill="none" stroke="black" stroke-width="1"
        d="M 144.00,64.00
           C 144.00,64.00 480.00,64.00 480.00,64.00
             480.00,64.00 480.00,80.00 480.00,80.00
             480.00,80.00 496.00,80.00 496.00,80.00
             496.00,80.00 496.00,128.00 496.00,128.00
             496.00,128.00 480.00,128.00 480.00,128.00
             480.00,128.00 480.00,144.00 480.00,144.00
             480.00,144.00 224.00,144.00 224.00,144.00
             224.00,144.00 224.00,160.00 224.00,160.00
             224.00,160.00 240.00,160.00 240.00,160.00
             240.00,160.00 240.00,208.00 240.00,208.00
             240.00,208.00 256.00,208.00 256.00,208.00
             256.00,208.00 256.00,256.00 256.00,256.00
             256.00,256.00 272.00,256.00 272.00,256.00
             272.00,256.00 272.00,304.00 272.00,304.00
             272.00,304.00 288.00,304.00 288.00,304.00
             288.00,304.00 288.00,352.00 288.00,352.00
             288.00,352.00 304.00,352.00 304.00,352.00
             304.00,352.00 304.00,384.00 304.00,384.00
             304.00,384.00 480.00,384.00 480.00,384.00
             480.00,384.00 480.00,400.00 480.00,400.00
             480.00,400.00 496.00,400.00 496.00,400.00
             496.00,400.00 496.00,448.00 496.00,448.00
             496.00,448.00 480.00,448.00 480.00,448.00
             480.00,448.00 480.00,464.00 480.00,464.00
             480.00,464.00 256.00,464.00 256.00,464.00
             256.00,464.00 256.00,432.00 256.00,432.00
             256.00,432.00 240.00,432.00 240.00,432.00
             240.00,432.00 240.00,400.00 240.00,400.00
             240.00,400.00 224.00,400.00 224.00,400.00
             224.00,400.00 224.00,352.00 224.00,352.00
             224.00,352.00 208.00,352.00 208.00,352.00
             208.00,352.00 208.00,304.00 208.00,304.00
             208.00,304.00 192.00,304.00 192.00,304.00
             192.00,304.00 192.00,256.00 192.00,256.00
             192.00,256.00 176.00,256.00 176.00,256.00
             176.00,256.00 176.00,224.00 176.00,224.00
             176.00,224.00 160.00,224.00 160.00,224.00
             160.00,224.00 160.00,256.00 160.00,256.00
             160.00,256.00 144.00,256.00 144.00,256.00
             144.00,256.00 144.00,304.00 144.00,304.00
             144.00,304.00 128.00,304.00 128.00,304.00
             128.00,304.00 128.00,352.00 128.00,352.00
             128.00,352.00 112.00,352.00 112.00,352.00
             112.00,352.00 112.00,400.00 112.00,400.00
             112.00,400.00 96.00,400.00 96.00,400.00
             96.00,400.00 96.00,432.00 96.00,432.00
             96.00,432.00 80.00,432.00 80.00,432.00
             80.00,432.00 80.00,464.00 80.00,464.00
             80.00,464.00 16.00,464.00 16.00,464.00
             16.00,464.00 16.00,400.00 16.00,400.00
             16.00,400.00 32.00,400.00 32.00,400.00
             32.00,400.00 32.00,352.00 32.00,352.00
             32.00,352.00 48.00,352.00 48.00,352.00
             48.00,352.00 48.00,304.00 48.00,304.00
             48.00,304.00 64.00,304.00 64.00,304.00
             64.00,304.00 64.00,256.00 64.00,256.00
             64.00,256.00 80.00,256.00 80.00,256.00
             80.00,256.00 80.00,208.00 80.00,208.00
             80.00,208.00 96.00,208.00 96.00,208.00
             96.00,208.00 96.00,176.00 96.00,176.00
             96.00,176.00 112.00,176.00 112.00,176.00
             112.00,176.00 112.00,128.00 112.00,128.00
             112.00,128.00 128.00,128.00 128.00,128.00
             128.00,128.00 128.00,80.00 128.00,80.00
             128.00,80.00 144.00,80.00 144.00,80.00
             144.00,80.00 144.00,64.00 144.00,64.00 Z" />
</svg>
