<?xml version="1.0" encoding="UTF-8" standalone="no"?>
<!DOCTYPE svg PUBLIC "-//W3C//DTD SVG 20010904//EN"
              "http://www.w3.org/TR/2001/REC-SVG-20010904/DTD/svg10.dtd">

<svg xmlns="http://www.w3.org/2000/svg"
     width="2.5in" height="2.065in"
     viewBox="0 0 1500 1239">
  <path id="Sélection"
        fill="none" stroke="black" stroke-width="1"
        d="M 164.00,0.08
           C 164.00,0.08 206.00,0.08 206.00,0.08
             206.00,0.08 283.00,0.08 283.00,0.08
             283.00,0.08 521.00,0.08 521.00,0.08
             521.00,0.08 1241.00,0.08 1241.00,0.08
             1248.74,0.01 1258.35,1.50 1266.00,3.00
             1303.05,10.29 1338.12,29.30 1363.91,57.00
             1375.98,69.96 1383.57,82.64 1393.34,97.00
             1393.34,97.00 1425.02,143.00 1425.02,143.00
             1425.02,143.00 1458.02,191.00 1458.02,191.00
             1468.75,206.57 1472.43,209.95 1480.69,228.00
             1488.58,245.21 1490.76,259.65 1493.43,278.00
             1495.08,289.38 1496.86,296.10 1497.00,308.00
             1497.00,308.00 1498.00,323.00 1498.00,323.00
             1498.00,323.00 1498.00,1075.00 1498.00,1075.00
             1498.00,1075.00 1496.96,1087.00 1496.96,1087.00
             1496.96,1087.00 1496.96,1097.00 1496.96,1097.00
             1495.38,1112.24 1490.98,1130.04 1484.69,1144.00
             1476.93,1161.21 1466.09,1177.43 1452.91,1190.96
             1427.95,1216.59 1386.09,1235.94 1350.00,1236.00
             1350.00,1236.00 819.00,1236.00 819.00,1236.00
             819.00,1236.00 289.00,1236.00 289.00,1236.00
             261.32,1235.96 229.63,1224.59 207.00,1208.98
             207.00,1208.98 153.00,1163.15 153.00,1163.15
             153.00,1163.15 79.00,1099.17 79.00,1099.17
             66.76,1088.69 56.31,1081.57 45.29,1069.00
             19.52,1039.62 0.06,995.52 0.00,956.00
             0.00,956.00 0.00,174.00 0.00,174.00
             0.02,163.50 2.55,148.26 5.13,138.00
             18.21,85.90 52.85,42.45 101.00,18.37
             122.60,7.57 140.48,3.84 164.00,0.08 Z
           M 174.00,28.06
           C 174.00,28.06 163.00,29.43 163.00,29.43
             147.87,31.61 131.80,35.58 118.00,42.26
             104.45,48.82 91.07,56.79 80.00,67.09
             59.76,85.91 45.14,106.65 36.35,133.00
             28.12,157.70 28.00,182.31 28.00,208.00
             28.00,208.00 28.00,278.00 28.00,278.00
             28.00,278.00 28.00,530.00 28.00,530.00
             28.00,530.00 28.00,943.00 28.00,943.00
             28.00,943.00 29.04,955.00 29.04,955.00
             29.04,955.00 29.04,964.00 29.04,964.00
             31.06,983.74 37.88,1004.61 47.31,1022.00
             72.67,1068.79 125.37,1101.92 179.00,1102.00
             179.00,1102.00 684.00,1102.00 684.00,1102.00
             684.00,1102.00 1233.00,1102.00 1233.00,1102.00
             1297.50,1101.90 1355.96,1057.58 1376.33,997.00
             1380.42,984.84 1383.98,968.82 1384.00,956.00
             1384.00,956.00 1384.00,174.00 1384.00,174.00
             1383.98,161.18 1380.42,145.16 1376.33,133.00
             1355.77,71.84 1296.88,28.10 1232.00,28.06
             1232.00,28.06 528.00,28.06 528.00,28.06
             528.00,28.06 293.00,28.06 293.00,28.06
             293.00,28.06 215.00,28.06 215.00,28.06
             215.00,28.06 174.00,28.06 174.00,28.06 Z
           M 960.00,151.00
           C 960.00,151.00 1254.00,151.00 1254.00,151.00
             1254.00,151.00 1254.00,165.00 1254.00,165.00
             1254.00,165.00 1268.00,165.00 1268.00,165.00
             1268.00,165.00 1268.00,208.00 1268.00,208.00
             1268.00,208.00 1254.00,208.00 1254.00,208.00
             1254.00,208.00 1254.00,222.00 1254.00,222.00
             1254.00,222.00 1031.00,222.00 1031.00,222.00
             1031.00,222.00 1031.00,234.00 1031.00,234.00
             1031.00,234.00 1045.00,234.00 1045.00,234.00
             1045.00,234.00 1045.00,276.00 1045.00,276.00
             1045.00,276.00 1059.00,276.00 1059.00,276.00
             1059.00,276.00 1059.00,318.00 1059.00,318.00
             1059.00,318.00 1073.00,318.00 1073.00,318.00
             1073.00,318.00 1073.00,360.00 1073.00,360.00
             1073.00,360.00 1086.00,360.00 1086.00,360.00
             1086.00,360.00 1086.00,402.00 1086.00,402.00
             1086.00,402.00 1100.00,402.00 1100.00,402.00
             1100.00,402.00 1100.00,430.00 1100.00,430.00
             1100.00,430.00 1254.00,430.00 1254.00,430.00
             1254.00,430.00 1254.00,444.00 1254.00,444.00
             1254.00,444.00 1268.00,444.00 1268.00,444.00
             1268.00,444.00 1268.00,486.00 1268.00,486.00
             1268.00,486.00 1254.00,486.00 1254.00,486.00
             1254.00,486.00 1254.00,500.00 1254.00,500.00
             1254.00,500.00 1057.00,500.00 1057.00,500.00
             1057.00,500.00 1057.00,473.00 1057.00,473.00
             1057.00,473.00 1043.00,473.00 1043.00,473.00
             1043.00,473.00 1043.00,445.00 1043.00,445.00
             1043.00,445.00 1030.00,445.00 1030.00,445.00
             1030.00,445.00 1030.00,403.00 1030.00,403.00
             1030.00,403.00 1016.00,403.00 1016.00,403.00
             1016.00,403.00 1016.00,361.00 1016.00,361.00
             1016.00,361.00 1002.00,361.00 1002.00,361.00
             1002.00,361.00 1002.00,319.00 1002.00,319.00
             1002.00,319.00 988.00,319.00 988.00,319.00
             988.00,319.00 988.00,291.00 988.00,291.00
             988.00,291.00 975.00,291.00 975.00,291.00
             975.00,291.00 975.00,319.00 975.00,319.00
             975.00,319.00 961.00,319.00 961.00,319.00
             961.00,319.00 961.00,361.00 961.00,361.00
             961.00,361.00 947.00,361.00 947.00,361.00
             947.00,361.00 947.00,403.00 947.00,403.00
             947.00,403.00 933.00,403.00 933.00,403.00
             933.00,403.00 933.00,445.00 933.00,445.00
             933.00,445.00 919.00,445.00 919.00,445.00
             919.00,445.00 919.00,473.00 919.00,473.00
             919.00,473.00 905.00,473.00 905.00,473.00
             905.00,473.00 905.00,500.00 905.00,500.00
             905.00,500.00 848.00,500.00 848.00,500.00
             848.00,500.00 848.00,444.00 848.00,444.00
             848.00,444.00 862.00,444.00 862.00,444.00
             862.00,444.00 862.00,402.00 862.00,402.00
             862.00,402.00 876.00,402.00 876.00,402.00
             876.00,402.00 876.00,360.00 876.00,360.00
             876.00,360.00 890.00,360.00 890.00,360.00
             890.00,360.00 890.00,318.00 890.00,318.00
             890.00,318.00 904.00,318.00 904.00,318.00
             904.00,318.00 904.00,276.00 904.00,276.00
             904.00,276.00 918.00,276.00 918.00,276.00
             918.00,276.00 918.00,248.00 918.00,248.00
             918.00,248.00 932.00,248.00 932.00,248.00
             932.00,248.00 932.00,207.00 932.00,207.00
             932.00,207.00 946.00,207.00 946.00,207.00
             946.00,207.00 946.00,165.00 946.00,165.00
             946.00,165.00 960.00,165.00 960.00,165.00
             960.00,165.00 960.00,151.00 960.00,151.00 Z
           M 773.00,796.61
           C 779.71,796.68 785.25,798.32 789.35,804.02
             797.37,815.14 791.10,831.52 777.00,832.90
             770.73,833.51 764.82,832.41 760.21,827.79
             752.22,819.76 753.63,806.08 763.01,799.70
             766.08,797.61 769.41,797.06 773.00,796.61 Z
           M 307.00,917.00
           C 306.94,924.13 306.00,928.28 303.66,935.00
             295.28,958.99 275.61,974.52 251.00,979.55
             244.12,980.96 242.46,980.64 236.00,981.09
             236.00,981.09 229.00,981.82 229.00,981.82
             217.34,981.82 200.44,978.38 190.00,973.19
             162.20,959.38 147.05,928.32 147.00,898.00
             147.00,898.00 147.00,881.00 147.00,881.00
             147.35,851.06 164.45,818.12 193.00,806.45
             233.42,789.94 287.07,801.40 303.31,846.00
             306.06,853.57 306.98,857.96 307.00,866.00
             307.00,866.00 271.00,866.00 271.00,866.00
             268.36,836.69 233.57,820.88 209.00,835.76
             191.02,846.65 184.01,870.01 184.01,890.00
             184.01,890.00 184.84,899.00 184.84,899.00
             186.85,917.88 192.22,935.80 210.00,945.83
             233.41,959.03 268.43,945.48 271.00,917.00
             271.00,917.00 307.00,917.00 307.00,917.00 Z
           M 390.00,845.43
           C 412.47,842.65 434.58,848.61 449.82,866.00
             471.42,890.66 469.38,943.53 444.99,965.83
             430.02,979.50 413.19,981.22 394.00,981.00
             371.82,980.74 351.36,968.22 341.89,948.00
             336.19,935.83 334.85,922.25 335.00,909.00
             335.15,896.70 339.36,881.31 346.10,871.00
             356.85,854.55 371.42,848.47 390.00,845.43 Z
           M 634.00,871.00
           C 638.04,861.96 643.18,855.34 652.00,850.52
             671.35,839.93 702.51,844.69 713.69,865.00
             721.83,879.80 720.00,892.87 720.00,909.00
             720.00,909.00 720.00,979.00 720.00,979.00
             720.00,979.00 685.00,979.00 685.00,979.00
             685.00,979.00 685.00,935.00 685.00,935.00
             685.00,935.00 685.00,903.00 685.00,903.00
             684.91,895.86 683.32,887.70 678.47,882.18
             668.78,871.15 650.38,873.31 641.33,884.02
             636.29,889.97 635.04,896.43 635.00,904.00
             635.00,904.00 635.00,955.00 635.00,955.00
             635.00,955.00 635.00,972.00 635.00,972.00
             634.96,973.95 635.10,976.63 633.40,977.98
             631.81,979.23 627.99,979.00 626.00,979.00
             626.00,979.00 606.00,979.00 606.00,979.00
             604.05,978.96 601.37,979.10 600.02,977.40
             598.96,976.06 599.03,973.62 599.00,972.00
             599.00,972.00 599.00,948.00 599.00,948.00
             599.00,948.00 599.00,848.00 599.00,848.00
             599.00,848.00 633.00,848.00 633.00,848.00
             633.00,848.00 634.00,871.00 634.00,871.00 Z
           M 829.00,888.00
           C 830.53,854.78 860.80,844.96 889.00,845.00
             903.49,845.02 921.75,849.93 931.70,861.04
             943.47,874.18 942.00,887.81 942.00,904.00
             942.00,904.00 942.00,979.00 942.00,979.00
             942.00,979.00 908.00,979.00 908.00,979.00
             908.00,979.00 908.00,959.00 908.00,959.00
             908.00,959.00 898.00,969.68 898.00,969.68
             889.67,976.70 878.81,980.23 868.00,980.79
             865.40,980.93 863.53,980.46 861.00,980.15
             853.48,979.26 847.55,977.82 841.00,973.73
             825.52,964.07 818.86,943.98 825.47,927.00
             834.45,903.92 862.98,901.88 884.00,900.96
             884.00,900.96 895.00,900.00 895.00,900.00
             897.55,899.97 902.62,900.36 904.69,898.98
             907.35,897.20 907.13,892.83 906.91,890.00
             906.16,880.61 899.39,873.35 890.00,872.18
             882.42,871.24 874.02,872.22 868.04,877.34
             860.38,883.90 864.66,887.82 855.00,888.00
             855.00,888.00 829.00,888.00 829.00,888.00 Z
           M 531.00,871.00
           C 533.74,859.32 541.00,849.85 553.00,846.76
             556.35,845.90 568.74,844.94 571.01,847.74
             572.17,849.18 571.99,852.22 572.00,854.00
             572.00,854.00 572.00,878.00 572.00,878.00
             561.46,876.60 552.86,874.25 543.00,880.85
             534.17,886.77 531.12,896.85 531.00,907.00
             531.00,907.00 531.00,979.00 531.00,979.00
             531.00,979.00 496.00,979.00 496.00,979.00
             496.00,979.00 496.00,848.00 496.00,848.00
             496.00,848.00 530.00,848.00 530.00,848.00
             530.00,848.00 531.00,871.00 531.00,871.00 Z
           M 756.00,848.00
           C 756.00,848.00 792.00,848.00 792.00,848.00
             792.00,848.00 792.00,948.00 792.00,948.00
             792.00,948.00 792.00,971.00 792.00,971.00
             792.00,971.00 790.98,977.40 790.98,977.40
             790.98,977.40 783.00,979.00 783.00,979.00
             783.00,979.00 763.00,979.00 763.00,979.00
             763.00,979.00 757.02,977.40 757.02,977.40
             757.02,977.40 756.00,970.00 756.00,970.00
             756.00,970.00 756.00,848.00 756.00,848.00 Z
           M 396.00,872.30
           C 390.89,873.30 387.01,874.67 383.04,878.21
             369.92,889.90 368.47,918.33 374.09,934.00
             379.12,948.03 389.69,956.36 405.00,953.67
             416.90,951.59 423.21,941.86 426.25,931.00
             428.51,922.97 428.09,915.26 428.00,907.00
             427.77,887.86 417.26,870.24 396.00,872.30 Z
           M 907.00,921.00
           C 907.00,921.00 885.00,922.28 885.00,922.28
             880.05,922.87 874.72,922.86 870.00,924.55
             857.21,929.12 855.91,943.06 863.11,949.78
             872.88,958.91 897.44,955.97 904.81,940.00
             907.65,933.85 907.00,927.58 907.00,921.00 Z" />
</svg>
