<svg width="426" height="352" viewBox="0 0 426 352" fill="none" xmlns="http://www.w3.org/2000/svg">
<path d="M380.337 39H82.8986C58.6541 39 39 58.6541 39 82.8986V300.175C39 324.42 58.6541 344.074 82.8986 344.074H380.337C404.581 344.074 424.235 324.42 424.235 300.175V82.8986C424.235 58.6541 404.581 39 380.337 39Z" fill="white"/>
<path d="M349.337 4H51.8986C25.4449 4 4 25.4449 4 51.8986V269.175C4 295.629 25.4449 317.074 51.8986 317.074H349.337C375.79 317.074 397.235 295.629 397.235 269.175V51.8986C397.235 25.4449 375.79 4 349.337 4Z" fill="#7136FF" stroke="white" stroke-width="8"/>
<path d="M381.337 46H83.8986C59.6541 46 40 65.6541 40 89.8986V307.175C40 331.42 59.6541 351.074 83.8986 351.074H381.337C405.581 351.074 425.235 331.42 425.235 307.175V89.8986C425.235 65.6541 405.581 46 381.337 46Z" fill="white"/>
<path d="M349.337 4H51.8986C25.4449 4 4 25.4449 4 51.8986V269.175C4 295.629 25.4449 317.074 51.8986 317.074H349.337C375.79 317.074 397.235 295.629 397.235 269.175V51.8986C397.235 25.4449 375.79 4 349.337 4Z" fill="#7136FF" stroke="white" stroke-width="8"/>
<path d="M65.2783 278.867C50.7178 278.867 41.6001 269.125 41.6001 252.97C41.6001 236.849 50.7871 227.107 65.2783 227.107C77.3081 227.107 86.4604 234.734 87.2578 245.932H77.0654C76.0947 239.796 71.3799 235.774 65.2783 235.774C57.374 235.774 52.2778 242.396 52.2778 252.935C52.2778 263.613 57.3047 270.2 65.313 270.2C71.5186 270.2 75.9907 266.56 77.1001 260.631H87.2925C86.1138 271.794 77.5508 278.867 65.2783 278.867ZM113.515 278.797C102.283 278.797 95.1066 271.586 95.1066 259.383C95.1066 247.354 102.387 240.039 113.515 240.039C124.644 240.039 131.924 247.319 131.924 259.383C131.924 271.621 124.748 278.797 113.515 278.797ZM113.515 271.066C118.473 271.066 121.628 266.872 121.628 259.418C121.628 252.034 118.438 247.77 113.515 247.77C108.592 247.77 105.368 252.034 105.368 259.418C105.368 266.872 108.523 271.066 113.515 271.066ZM140.709 278V240.836H150.485V247.527H150.693C152.011 242.812 155.165 240.247 159.534 240.247C160.712 240.247 161.718 240.42 162.411 240.628V249.538C161.579 249.191 160.192 248.948 158.736 248.948C153.744 248.948 150.832 251.999 150.832 257.234V278H140.709ZM170.121 278V240.836H179.898V247.458H180.106C182.082 242.847 185.999 240.143 191.719 240.143C199.97 240.143 204.616 245.343 204.616 254.044V278H194.493V256.159C194.493 251.306 192.205 248.532 187.663 248.532C183.122 248.532 180.244 251.86 180.244 256.679V278H170.121ZM214.753 278V240.836H224.876V278H214.753ZM219.814 236.745C216.763 236.745 214.406 234.422 214.406 231.51C214.406 228.563 216.763 226.275 219.814 226.275C222.865 226.275 225.222 228.563 225.222 231.51C225.222 234.422 222.865 236.745 219.814 236.745ZM249.539 271.274C253.941 271.274 257.582 268.397 257.582 264.375V261.671L249.747 262.157C245.968 262.434 243.818 264.133 243.818 266.768C243.818 269.541 246.106 271.274 249.539 271.274ZM246.21 278.589C239.138 278.589 233.765 274.013 233.765 267.322C233.765 260.562 238.965 256.645 248.221 256.09L257.582 255.535V253.074C257.582 249.607 255.155 247.596 251.341 247.596C247.562 247.596 245.17 249.468 244.685 252.207H235.429C235.81 244.996 241.946 240.039 251.792 240.039C261.326 240.039 267.531 244.961 267.531 252.45V278H257.755V272.314H257.547C255.467 276.267 250.856 278.589 246.21 278.589Z" fill="white"/>
<path d="M272.733 43H356.033V46.96H360V58.84H356.033V62.8H292.567V66.76H296.533V78.64H300.5V90.52H304.467V102.4H308.433V114.28H312.4V122.2H356.033V126.16H360V138.04H356.033V142H300.5V134.08H296.533V126.16H292.567V114.28H288.6V102.4H284.633V90.52H280.667V82.6H276.7V90.52H272.733V102.4H268.767V114.28H264.8V126.16H260.833V134.08H256.867V142H241V126.16H244.967V114.28H248.933V102.4H252.9V90.52H256.867V78.64H260.833V70.72H264.8V58.84H268.767V46.96H272.733V43Z" fill="white" stroke="white" stroke-width="0.32"/>
<line x1="21.4531" y1="306.164" x2="58.4531" y2="338.164" stroke="white" stroke-width="7.5"/>
<line x1="387.817" y1="23.0578" x2="415.128" y2="62.7333" stroke="white" stroke-width="7.5"/>
</svg>
