  0
SECTION
  2
HEADER
  9
$ANGBASE
  50
0.0
  9
$ANGDIR
  70
1
  9
$MEASUREMENT
  70
1
  0
ENDSEC
  0
SECTION
  2
TABLES
  0
TABLE
  2
LTYPE
  70
4
  0
LTYPE
  5
40F
  2
CONTINUOUS
  70
0
  3
Solid line
  72
65
  73
0
  40
0.0
  0
LTYPE
  5
410
  2
DASHDOT
 70
0
  3
Dash Dot ____ _ ____ _
 72
65
 73
4
 40
2.0
 49
1.25
 49
-0.25
 49
0.25
 49
-0.25
  0
LTYPE
  5
411
  2
DASHED
 70
0
  3
Dashed __ __ __ __ __
 72
65
 73
2
 40
0.75
 49
0.5
 49
-0.25
  0
LTYPE
  5
43B
  2
DOTTED
 70
0
  3
Dotted .  .  .  .
 72
65
 73
2
 40
0.2
 49
0.0
 49
-0.2
  0
ENDTAB
  0
TABLE
  2
STYLE
  70
4
  0
STYLE
  2
KICAD
  70
0
  40
0
  41
1
  42
1
  50
0
  71
0
  3
isocp.shx
  0
STYLE
  2
KICADB
  70
0
  40
0
  41
1
  42
1
  50
0
  71
0
  3
isocp.shx
  0
STYLE
  2
KICADI
  70
0
  40
0
  41
1
  42
1
  50
15
  71
0
  3
isocp.shx
  0
STYLE
  2
KICADBI
  70
0
  40
0
  41
1
  42
1
  50
15
  71
0
  3
isocp.shx
  0
ENDTAB
  0
TABLE
  2
LAYER
  70
1
  0
LAYER
  2
BLACK
  70
0
  62
7
  6
CONTINUOUS
  0
ENDTAB
  0
ENDSEC
  0
SECTION
  2
ENTITIES
0
LINE
8
BLACK
6
CONTINUOUS
10
27.6685999999999979
20
-36.1887499999999989
11
54.9185999999999979
21
-36.1887499999999989
0
LINE
8
BLACK
6
CONTINUOUS
10
157.3092000000000041
20
-95.8528510000000011
11
176.9185999999999979
21
-106.6887499999999989
0
ARC
8
BLACK
10
167.1685999999999979
20
-124.1888000000000005
40
2.0155396305952409
50
-119.74558649
51
-29.74364722
0
ARC
8
BLACK
10
175.9185999999999979
20
-108.4386999999999972
40
2.0155210250701923
50
-29.74611534
51
60.25441351
0
ARC
8
BLACK
10
20.6685999999999979
20
-102.1888000000000005
40
1.9999499999999999
50
-180.00143239
51
-90.00000000
0
LINE
8
BLACK
6
CONTINUOUS
10
64.4185999999999979
20
-17.9387499999999989
11
117.6685999999999979
21
-17.9387499999999989
0
ARC
8
BLACK
10
51.4185999999999979
20
-94.6887499999999989
40
9.5
50
-90.00000000
51
-0.00000000
0
ARC
8
BLACK
10
117.6685999999999979
20
-24.1888000000000005
40
6.2500499999999999
50
0.00045837
51
90.00000000
0
ARC
8
BLACK
10
125.9185999999999979
20
-24.1888000000000005
40
1.9999499999999999
50
-180.00143239
51
-90.00000000
0
LINE
8
BLACK
6
CONTINUOUS
10
156.4185999999999979
20
-28.1887499999999989
11
156.4185999999999979
21
-94.1887499999999989
0
LINE
8
BLACK
6
CONTINUOUS
10
125.9185999999999979
20
-26.1887499999999989
11
154.4185999999999979
21
-26.1887499999999989
0
LINE
8
BLACK
6
CONTINUOUS
10
112.9185999999999979
20
-105.9387499999999989
11
112.9185999999999979
21
-88.4387499999999989
0
LINE
8
BLACK
6
CONTINUOUS
10
150.1685999999999979
20
-117.1887499999999989
11
166.1685999999999979
21
-125.9387499999999989
0
ARC
8
BLACK
10
27.6685999999999979
20
-45.1887499999999989
40
9.
50
90.00000000
51
180.00000000
0
LINE
8
BLACK
6
CONTINUOUS
10
60.9185999999999979
20
-94.6887499999999989
11
60.9185999999999979
21
-88.4387499999999989
0
LINE
8
BLACK
6
CONTINUOUS
10
114.6357569999999981
20
-107.918649000000002
11
132.9185999999999979
21
-111.1887499999999989
0
LINE
8
BLACK
6
CONTINUOUS
10
62.9185999999999979
20
-86.4387499999999989
11
110.9185999999999979
21
-86.4387499999999989
0
ARC
8
BLACK
10
110.9185999999999979
20
-88.4386999999999972
40
1.9999499999999999
50
-0.00143239
51
90.00000000
0
LINE
8
BLACK
6
CONTINUOUS
10
20.6685999999999979
20
-104.1887499999999989
11
39.6685999999999979
21
-104.1887499999999989
0
LINE
8
BLACK
6
CONTINUOUS
10
18.6685999999999979
20
-45.1887499999999989
11
18.6685999999999979
21
-102.1887499999999989
0
ARC
8
BLACK
10
158.4185999999999979
20
-94.1886999999999972
40
2.0000417272649589
50
-179.99856761
51
-123.68925710
0
LINE
8
BLACK
6
CONTINUOUS
10
42.6685999999999979
20
-104.1887499999999989
11
51.4185999999999979
21
-104.1887499999999989
0
ARC
8
BLACK
10
154.4185999999999979
20
-28.1886999999999972
40
1.9999499999999999
50
-0.00143239
51
90.00000000
0
LINE
8
BLACK
6
CONTINUOUS
10
132.9185999999999979
20
-111.1887499999999989
11
150.1685999999999979
21
-117.1887499999999989
0
LINE
8
BLACK
6
CONTINUOUS
10
177.6685999999999979
20
-109.4387499999999989
11
168.9185999999999979
21
-125.1887499999999989
0
ARC
8
BLACK
10
114.9185999999999979
20
-105.9386999999999972
40
2.000049550698682
50
-179.99856761
51
-98.12990789
0
ARC
8
BLACK
10
64.4185999999999979
20
-25.4387499999999989
40
7.5
50
90.00000000
51
180.00000000
0
LINE
8
BLACK
6
CONTINUOUS
10
39.6685999999999979
20
-104.1887499999999989
11
42.6685999999999979
21
-104.1887499999999989
0
ARC
8
BLACK
10
62.9185999999999979
20
-88.4387499999999989
40
2.
50
90.00000000
51
180.00000000
0
LINE
8
BLACK
6
CONTINUOUS
10
56.9185999999999979
20
-34.1887499999999989
11
56.9185999999999979
21
-25.4387499999999989
0
ARC
8
BLACK
10
54.9185999999999979
20
-34.1887499999999989
40
2.
50
-90.00000000
51
-0.00000000
0
CIRCLE
8
BLACK
10
87.6685999999999979
20
-80.9387499999999989
40
1.2
0
CIRCLE
8
BLACK
10
72.9185999999999979
20
-22.4387499999999989
40
1.2
0
CIRCLE
8
BLACK
10
138.1685999999999979
20
-87.4387499999999989
40
1.2
0
CIRCLE
8
BLACK
10
36.1685999999999979
20
-41.6887499999999989
40
1.2
0
CIRCLE
8
BLACK
10
43.4185999999999979
20
-98.4387499999999989
40
1.2
0
CIRCLE
8
BLACK
10
118.9185999999999979
20
-24.9387499999999989
40
1.2
  0
ENDSEC
  0
EOF
