  0
SECTION
  2
HEADER
  9
$ANGBASE
  50
0.0
  9
$ANGDIR
  70
1
  9
$MEASUREMENT
  70
1
  0
ENDSEC
  0
SECTION
  2
TABLES
  0
TABLE
  2
LTYPE
  70
4
  0
LTYPE
  5
40F
  2
CONTINUOUS
  70
0
  3
Solid line
  72
65
  73
0
  40
0.0
  0
LTYPE
  5
410
  2
DASHDOT
 70
0
  3
Dash Dot ____ _ ____ _
 72
65
 73
4
 40
2.0
 49
1.25
 49
-0.25
 49
0.25
 49
-0.25
  0
LTYPE
  5
411
  2
DASHED
 70
0
  3
Dashed __ __ __ __ __
 72
65
 73
2
 40
0.75
 49
0.5
 49
-0.25
  0
LTYPE
  5
43B
  2
DOTTED
 70
0
  3
Dotted .  .  .  .
 72
65
 73
2
 40
0.2
 49
0.0
 49
-0.2
  0
ENDTAB
  0
TABLE
  2
STYLE
  70
4
  0
STYLE
  2
KICAD
  70
0
  40
0
  41
1
  42
1
  50
0
  71
0
  3
isocp.shx
  0
STYLE
  2
KICADB
  70
0
  40
0
  41
1
  42
1
  50
0
  71
0
  3
isocp.shx
  0
STYLE
  2
KICADI
  70
0
  40
0
  41
1
  42
1
  50
15
  71
0
  3
isocp.shx
  0
STYLE
  2
KICADBI
  70
0
  40
0
  41
1
  42
1
  50
15
  71
0
  3
isocp.shx
  0
ENDTAB
  0
TABLE
  2
LAYER
  70
1
  0
LAYER
  2
BLACK
  70
0
  62
7
  6
CONTINUOUS
  0
ENDTAB
  0
ENDSEC
  0
SECTION
  2
ENTITIES
0
LINE
8
BLACK
6
CONTINUOUS
10
248.156345999999985
20
-71.9464550000000003
11
256.5558509999999615
21
-62.8627380000000002
0
LINE
8
BLACK
6
CONTINUOUS
10
339.9908580000000029
20
-142.2684859999999958
11
339.9908590000000004
21
-140.2684879999999907
0
ARC
8
BLACK
10
325.710899999999981
20
-61.7683999999999997
40
1.9999120003802666
50
-0.00249242
51
90.00111732
0
ARC
8
BLACK
10
270.7393999999999892
20
-61.6686999999999941
40
2.0002304297777793
50
90.00317958
51
134.99803529
0
LINE
8
BLACK
6
CONTINUOUS
10
257.9700639999999794
20
-62.2769519999999943
11
266.4824319999999602
21
-62.2684879999999978
0
ARC
8
BLACK
10
142.0991999999999962
20
-60.2685999999999993
40
1.999889001892355
50
-135.00050646
51
-89.99750750
0
ARC
8
BLACK
10
303.9132999999999925
20
-56.768899999999995
40
2.0004110099979453
50
45.00435434
51
89.99427160
0
LINE
8
BLACK
6
CONTINUOUS
10
137.8424300000000073
20
-59.6684889999999939
11
125.9103549999999956
21
-59.6684889999999939
0
ARC
8
BLACK
10
246.7420999999999935
20
-70.5322000000000031
40
2.0000522377030556
50
-89.99905464
51
-45.00018231
0
ARC
8
BLACK
10
198.4231000000000051
20
-147.776299999999992
40
5.0000247465256606
50
-28.73328070
51
58.08609303
0
LINE
8
BLACK
6
CONTINUOUS
10
119.3534989999999993
20
-54.7684889999999953
11
104.6682189999999935
21
-54.7684889999999953
0
LINE
8
BLACK
6
CONTINUOUS
10
139.6511390000000006
20
-131.7960050000000081
11
137.3526029999999878
21
-145.0600399999999865
0
ARC
8
BLACK
10
78.8708999999999918
20
-70.2685000000000031
40
1.9999600000422508
50
-90.00123187
51
0.00037243
0
LINE
8
BLACK
6
CONTINUOUS
10
78.8708570000000009
20
-72.2684890000000024
11
64.2308579999999978
21
-72.2684890000000024
0
ARC
8
BLACK
10
362.9909000000000106
20
-142.2684999999999889
40
1.9999590000202503
50
-90.00114592
51
0.00025784
0
ARC
8
BLACK
10
216.8292999999999893
20
-162.0240000000000009
40
3.9999356650728766
50
-151.26742885
51
-57.12357173
0
LINE
8
BLACK
6
CONTINUOUS
10
223.0190559999999778
20
-135.347204000000005
11
207.5153839999999832
21
-143.5320609999999988
0
ARC
8
BLACK
10
45.5908999999999978
20
-142.2684999999999889
40
1.999990000420252
50
-180.00022918
51
-90.00117457
0
LINE
8
BLACK
6
CONTINUOUS
10
268.9305799999999635
20
-131.7960039999999822
11
271.2291159999999763
21
-145.0600389999999891
0
ARC
8
BLACK
10
119.3533999999999935
20
-56.7686999999999955
40
2.0002110024499915
50
45.00216727
51
89.99716416
0
LINE
8
BLACK
6
CONTINUOUS
10
348.3508620000000064
20
-79.2684879999999907
11
362.9908609999999953
21
-79.2684879999999907
0
ARC
8
BLACK
10
60.2308999999999983
20
-77.2685000000000031
40
1.9999600000422508
50
-90.00123187
51
0.00037243
0
ARC
8
BLACK
10
341.9909000000000106
20
-142.2683999999999855
40
2.0000890003802332
50
-179.99753633
51
-90.00111722
0
LINE
8
BLACK
6
CONTINUOUS
10
246.7421329999999955
20
-72.5322409999999991
11
229.995586000000003
21
-72.5252169999999978
0
LINE
8
BLACK
6
CONTINUOUS
10
60.2308570000000003
20
-79.2684890000000024
11
45.5908579999999972
21
-79.2684890000000024
0
ARC
8
BLACK
10
64.2308999999999912
20
-74.2685000000000031
40
2.0000400000359995
50
90.00120320
51
179.99965623
0
ARC
8
BLACK
10
271.2502999999999815
20
-131.3691000000000031
40
2.3586740478872872
50
-259.14114216
51
-169.57238287
0
LINE
8
BLACK
6
CONTINUOUS
10
195.259886999999992
20
-163.9468760000000032
11
202.807501000000002
21
-150.1800010000000043
0
LINE
8
BLACK
6
CONTINUOUS
10
327.7108589999999708
20
-61.7684870000000004
11
327.7108589999999708
21
-70.2684859999999958
0
LINE
8
BLACK
6
CONTINUOUS
10
267.8966459999999756
20
-61.6827009999999945
11
269.3250719999999774
21
-60.2542749999999998
0
ARC
8
BLACK
10
344.3508999999999673
20
-74.2683999999999997
40
1.9999120003802666
50
-0.00249242
51
90.00111732
0
LINE
8
BLACK
6
CONTINUOUS
10
80.8708599999999933
20
-61.7684879999999978
11
80.8708599999999933
21
-70.2684869999999933
0
LINE
8
BLACK
6
CONTINUOUS
10
178.632868000000002
20
-72.5136009999999942
11
161.8728669999999852
21
-72.5322409999999991
0
ARC
8
BLACK
10
45.5908999999999978
20
-81.2685000000000031
40
2.0000400000359995
50
90.00120320
51
179.99965623
0
ARC
8
BLACK
10
137.3314000000000021
20
-131.3691000000000031
40
2.3586805120426968
50
-10.42755749
51
79.14068431
0
ARC
8
BLACK
10
82.8708999999999918
20
-61.768499999999996
40
2.0000400000359995
50
90.00120320
51
179.99965623
0
ARC
8
BLACK
10
277.2100399999999922
20
-255.444359999999989
40
107.2349393764754382
50
94.65013655
51
122.87593596
0
ARC
8
BLACK
10
150.6585000000000036
20
-64.265199999999993
40
1.9998640030252057
50
44.99949353
51
90.00315148
0
LINE
8
BLACK
6
CONTINUOUS
10
68.5908610000000039
20
-142.2684869999999933
11
68.5908599999999922
21
-140.2684889999999882
0
ARC
8
BLACK
10
70.5908999999999907
20
-140.2684999999999889
40
2.0000390000359993
50
90.00114591
51
179.99965623
0
LINE
8
BLACK
6
CONTINUOUS
10
152.0726029999999867
20
-62.8511219999999966
11
160.4586539999999957
21
-71.9464550000000003
0
ARC
8
BLACK
10
98.0113999999999947
20
-57.768499999999996
40
1.9999666778704088
50
-90.00094539
51
-45.00056721
0
LINE
8
BLACK
6
CONTINUOUS
10
140.6850729999999885
20
-61.682701999999999
11
139.2566469999999867
21
-60.2542759999999973
0
LINE
8
BLACK
6
CONTINUOUS
10
185.5626629999999864
20
-135.3472050000000024
11
201.0663349999999809
21
-143.5320619999999963
0
LINE
8
BLACK
6
CONTINUOUS
10
150.6583899999999971
20
-62.2653359999999978
11
142.0992870000000039
21
-62.2684889999999953
0
ARC
8
BLACK
10
220.4908999999999821
20
-128.2684999999999889
40
7.5166064817725422
50
-70.34583548
51
-3.81400436
0
ARC
8
BLACK
10
80.5880999999999972
20
-135.768100000000004
40
2.5003895316122242
50
-89.99727315
51
-63.37596257
0
LINE
8
BLACK
6
CONTINUOUS
10
310.570352000000014
20
-59.7684879999999978
11
325.7108609999999658
21
-59.7684879999999978
0
ARC
8
BLACK
10
140.3085999999999842
20
-145.5722999999999843
40
2.999983217371724
50
-189.83144108
51
-94.65113282
0
ARC
8
BLACK
10
329.710899999999981
20
-70.2683999999999997
40
2.000088000360984
50
-179.99753633
51
-90.00108857
0
ARC
8
BLACK
10
66.5908999999999907
20
-142.2684999999999889
40
1.9999600000422508
50
-90.00120322
51
0.00037243
0
LINE
8
BLACK
6
CONTINUOUS
10
289.2282199999999648
20
-54.7684879999999978
11
303.9134999999999991
21
-54.7684879999999978
0
LINE
8
BLACK
6
CONTINUOUS
10
329.7108619999999632
20
-72.2684879999999907
11
344.350861000000009
21
-72.2684879999999907
0
LINE
8
BLACK
6
CONTINUOUS
10
124.4961409999999944
20
-59.0827019999999976
11
120.767715999999993
21
-55.3542769999999962
0
ARC
8
BLACK
10
348.3508999999999673
20
-77.2683999999999997
40
2.000088000360984
50
-179.99753633
51
-90.00108857
0
LINE
8
BLACK
6
CONTINUOUS
10
362.9908599999999979
20
-144.2684889999999882
11
341.9908609999999953
21
-144.2684889999999882
0
LINE
8
BLACK
6
CONTINUOUS
10
227.9908590000000004
20
-128.7684879999999907
11
227.9955870000000004
21
-74.5252160000000003
0
ARC
8
BLACK
10
161.8728999999999871
20
-70.5322000000000031
40
2.0000410002722444
50
-134.99981769
51
-90.00094536
0
ARC
8
BLACK
10
104.6680999999999955
20
-56.7682999999999964
40
1.9997821234637037
50
89.99659058
51
135.00135737
0
LINE
8
BLACK
6
CONTINUOUS
10
137.7757709999999918
20
-129.0526569999999822
11
135.6229879999999923
21
-128.7617559999999912
0
LINE
8
BLACK
6
CONTINUOUS
10
135.6229879999999923
20
-128.7617559999999912
11
133.5108280000000036
21
-128.5050119999999936
0
LINE
8
BLACK
6
CONTINUOUS
10
133.5108280000000036
20
-128.5050119999999936
11
131.4378130000000056
21
-128.2826919999999973
0
LINE
8
BLACK
6
CONTINUOUS
10
131.4378130000000056
20
-128.2826919999999973
11
129.4024650000000065
21
-128.0950599999999895
0
LINE
8
BLACK
6
CONTINUOUS
10
129.4024650000000065
20
-128.0950599999999895
11
127.4033079999999956
21
-127.9423819999999949
0
LINE
8
BLACK
6
CONTINUOUS
10
127.4033079999999956
20
-127.9423819999999949
11
125.4388649999999927
21
-127.8249239999999958
0
LINE
8
BLACK
6
CONTINUOUS
10
125.4388649999999927
20
-127.8249239999999958
11
123.5076569999999947
21
-127.7429509999999908
0
LINE
8
BLACK
6
CONTINUOUS
10
123.5076569999999947
20
-127.7429509999999908
11
121.608208999999988
21
-127.6967289999999906
0
LINE
8
BLACK
6
CONTINUOUS
10
121.608208999999988
20
-127.6967289999999906
11
119.7390419999999978
21
-127.6865239999999915
0
LINE
8
BLACK
6
CONTINUOUS
10
119.7390419999999978
20
-127.6865239999999915
11
117.8986809999999963
21
-127.7126019999999897
0
LINE
8
BLACK
6
CONTINUOUS
10
117.8986809999999963
20
-127.7126019999999897
11
116.0856469999999945
21
-127.775227000000001
0
LINE
8
BLACK
6
CONTINUOUS
10
116.0856469999999945
20
-127.775227000000001
11
114.2984629999999981
21
-127.8746659999999906
0
LINE
8
BLACK
6
CONTINUOUS
10
114.2984629999999981
20
-127.8746659999999906
11
112.5356529999999964
21
-128.0111829999999884
0
LINE
8
BLACK
6
CONTINUOUS
10
112.5356529999999964
20
-128.0111829999999884
11
110.7957389999999975
21
-128.1850459999999998
0
LINE
8
BLACK
6
CONTINUOUS
10
110.7957389999999975
20
-128.1850459999999998
11
109.0772449999999907
21
-128.3965199999999811
0
LINE
8
BLACK
6
CONTINUOUS
10
109.0772449999999907
20
-128.3965199999999811
11
107.3786920000000009
21
-128.6458690000000047
0
LINE
8
BLACK
6
CONTINUOUS
10
107.3786920000000009
20
-128.6458690000000047
11
105.6986039999999889
21
-128.9333599999999933
0
LINE
8
BLACK
6
CONTINUOUS
10
105.6986039999999889
20
-128.9333599999999933
11
104.0355039999999889
21
-129.2592579999999884
0
LINE
8
BLACK
6
CONTINUOUS
10
104.0355039999999889
20
-129.2592579999999884
11
102.387913999999995
21
-129.6238299999999981
0
LINE
8
BLACK
6
CONTINUOUS
10
102.387913999999995
20
-129.6238299999999981
11
100.7543579999999963
21
-130.027339999999981
0
LINE
8
BLACK
6
CONTINUOUS
10
100.7543579999999963
20
-130.027339999999981
11
99.1333580000000012
21
-130.4700540000000046
0
LINE
8
BLACK
6
CONTINUOUS
10
99.1333580000000012
20
-130.4700540000000046
11
97.5234370000000013
21
-130.9522379999999941
0
LINE
8
BLACK
6
CONTINUOUS
10
97.5234370000000013
20
-130.9522379999999941
11
95.9231189999999998
21
-131.4741579999999885
0
LINE
8
BLACK
6
CONTINUOUS
10
95.9231189999999998
20
-131.4741579999999885
11
94.3309249999999935
21
-132.0360790000000009
0
LINE
8
BLACK
6
CONTINUOUS
10
94.3309249999999935
20
-132.0360790000000009
11
92.7453780000000023
21
-132.6382669999999848
0
LINE
8
BLACK
6
CONTINUOUS
10
92.7453780000000023
20
-132.6382669999999848
11
91.1650020000000012
21
-133.2809869999999819
0
LINE
8
BLACK
6
CONTINUOUS
10
91.1650020000000012
20
-133.2809869999999819
11
89.588319999999996
21
-133.9645050000000026
0
LINE
8
BLACK
6
CONTINUOUS
10
89.588319999999996
20
-133.9645050000000026
11
88.0138539999999949
21
-134.6890870000000007
0
LINE
8
BLACK
6
CONTINUOUS
10
88.0138539999999949
20
-134.6890870000000007
11
86.4401269999999897
21
-135.4549979999999891
0
LINE
8
BLACK
6
CONTINUOUS
10
86.4401269999999897
20
-135.4549979999999891
11
84.8656620000000004
21
-136.262504000000007
0
LINE
8
BLACK
6
CONTINUOUS
10
84.8656620000000004
20
-136.262504000000007
11
83.2889819999999901
21
-137.1118710000000078
0
LINE
8
BLACK
6
CONTINUOUS
10
83.2889819999999901
20
-137.1118710000000078
11
81.7086099999999931
21
-138.0033640000000048
0
LINE
8
BLACK
6
CONTINUOUS
10
45.5908589999999947
20
-144.2684899999999857
11
66.5908579999999972
21
-144.2684899999999857
0
ARC
8
BLACK
10
257.9699999999999704
20
-64.2767999999999944
40
1.9998471776725839
50
89.99816640
51
135.00176250
0
LINE
8
BLACK
6
CONTINUOUS
10
43.5908599999999993
20
-81.2684879999999907
11
43.5908599999999993
21
-142.2684919999999806
0
LINE
8
BLACK
6
CONTINUOUS
10
98.0113669999999928
20
-59.7684889999999953
11
82.8708579999999984
21
-59.7684889999999953
0
ARC
8
BLACK
10
125.9103999999999957
20
-57.6684999999999945
40
1.9999890005062526
50
-135.00115464
51
-90.00128916
0
LINE
8
BLACK
6
CONTINUOUS
10
70.5908599999999922
20
-138.2684889999999882
11
80.5882189999999952
21
-138.2684889999999882
0
ARC
8
BLACK
10
337.9909000000000106
20
-140.2683999999999855
40
1.9999120004202684
50
-0.00249242
51
90.00117462
0
LINE
8
BLACK
6
CONTINUOUS
10
213.3218320000000006
20
-163.9468750000000057
11
205.7742179999999905
21
-150.1800000000000068
0
LINE
8
BLACK
6
CONTINUOUS
10
364.9908590000000004
20
-81.2684869999999933
11
364.9908590000000004
21
-142.2684909999999832
0
LINE
8
BLACK
6
CONTINUOUS
10
62.2308599999999998
20
-74.2684879999999907
11
62.2308599999999998
21
-77.2684869999999933
0
LINE
8
BLACK
6
CONTINUOUS
10
103.2540070000000014
20
-55.3542739999999966
11
99.4255759999999924
21
-59.182703999999994
0
ARC
8
BLACK
10
229.995599999999996
20
-74.5251999999999981
40
2.0000130000639995
50
-269.99959893
51
-179.99954164
0
ARC
8
BLACK
10
188.0909000000000049
20
-128.2684999999999889
40
7.5166513026210007
50
-176.18602911
51
-109.65474341
0
ARC
8
BLACK
10
191.7523999999999944
20
-162.0237999999999943
40
4.0000857936980552
50
-122.87463687
51
-28.73496488
0
ARC
8
BLACK
10
131.3718000000000075
20
-255.4439999999999884
40
107.2345705996462186
50
57.12401364
51
85.34991225
0
LINE
8
BLACK
6
CONTINUOUS
10
180.5908599999999922
20
-128.7684889999999882
11
180.6328670000000045
21
-74.5135999999999967
0
ARC
8
BLACK
10
310.5702999999999747
20
-57.7685999999999993
40
1.9998880006760376
50
-135.00109395
51
-89.99851023
0
LINE
8
BLACK
6
CONTINUOUS
10
270.7392889999999852
20
-59.6684879999999964
11
282.6713639999999828
21
-59.6684879999999964
0
ARC
8
BLACK
10
178.632899999999978
20
-74.5135999999999967
40
1.999999000256
50
0.00000000
51
90.00091673
0
ARC
8
BLACK
10
282.6714000000000055
20
-57.6684999999999945
40
1.9999659707317521
50
-90.00103133
51
-45.00046592
0
LINE
8
BLACK
6
CONTINUOUS
10
284.0855779999999982
20
-59.0827010000000001
11
287.8140030000000138
21
-55.3542759999999987
0
LINE
8
BLACK
6
CONTINUOUS
10
305.3277119999999627
20
-55.3542729999999992
11
309.1561429999999859
21
-59.1827029999999965
0
ARC
8
BLACK
10
289.2282000000000153
20
-56.768499999999996
40
1.999995669241561
50
89.99942705
51
134.99945306
0
ARC
8
BLACK
10
137.8425000000000011
20
-61.6683999999999983
40
1.9999110012250545
50
44.99953406
51
90.00200544
0
LINE
8
BLACK
6
CONTINUOUS
10
346.3508589999999572
20
-74.2684869999999933
11
346.3508589999999572
21
-77.2684859999999958
0
ARC
8
BLACK
10
210.1585000000000036
20
-147.776299999999992
40
4.9999688768593353
50
-238.08725662
51
-151.26607380
0
LINE
8
BLACK
6
CONTINUOUS
10
270.8059480000000008
20
-129.0526559999999847
11
272.9587300000000027
21
-128.7617549999999937
0
LINE
8
BLACK
6
CONTINUOUS
10
272.9587300000000027
20
-128.7617549999999937
11
275.070889999999963
21
-128.5050109999999961
0
LINE
8
BLACK
6
CONTINUOUS
10
275.070889999999963
20
-128.5050109999999961
11
277.1439049999999611
21
-128.2826909999999998
0
LINE
8
BLACK
6
CONTINUOUS
10
277.1439049999999611
20
-128.2826909999999998
11
279.1792529999999601
21
-128.095058999999992
0
LINE
8
BLACK
6
CONTINUOUS
10
279.1792529999999601
20
-128.095058999999992
11
281.1784099999999853
21
-127.9423809999999975
0
LINE
8
BLACK
6
CONTINUOUS
10
281.1784099999999853
20
-127.9423809999999975
11
283.1428530000000023
21
-127.8249229999999983
0
LINE
8
BLACK
6
CONTINUOUS
10
283.1428530000000023
20
-127.8249229999999983
11
285.074060999999972
21
-127.7429499999999933
0
LINE
8
BLACK
6
CONTINUOUS
10
285.074060999999972
20
-127.7429499999999933
11
286.9735089999999786
21
-127.6967279999999931
0
LINE
8
BLACK
6
CONTINUOUS
10
286.9735089999999786
20
-127.6967279999999931
11
288.8426759999999831
21
-127.6865239999999915
0
LINE
8
BLACK
6
CONTINUOUS
10
288.8426759999999831
20
-127.6865239999999915
11
290.683037000000013
21
-127.7126009999999923
0
LINE
8
BLACK
6
CONTINUOUS
10
290.683037000000013
20
-127.7126009999999923
11
292.4960709999999722
21
-127.7752259999999893
0
LINE
8
BLACK
6
CONTINUOUS
10
292.4960709999999722
20
-127.7752259999999893
11
294.2832539999999995
21
-127.8746649999999931
0
LINE
8
BLACK
6
CONTINUOUS
10
294.2832539999999995
20
-127.8746649999999931
11
296.0460640000000012
21
-128.0111829999999884
0
LINE
8
BLACK
6
CONTINUOUS
10
296.0460640000000012
20
-128.0111829999999884
11
297.7859780000000001
21
-128.1850459999999998
0
LINE
8
BLACK
6
CONTINUOUS
10
297.7859780000000001
20
-128.1850459999999998
11
299.5044729999999618
21
-128.3965199999999811
0
LINE
8
BLACK
6
CONTINUOUS
10
299.5044729999999618
20
-128.3965199999999811
11
301.2030249999999683
21
-128.6458690000000047
0
LINE
8
BLACK
6
CONTINUOUS
10
301.2030249999999683
20
-128.6458690000000047
11
302.8831129999999803
21
-128.9333609999999908
0
LINE
8
BLACK
6
CONTINUOUS
10
302.8831129999999803
20
-128.9333609999999908
11
304.5462129999999661
21
-129.2592589999999859
0
LINE
8
BLACK
6
CONTINUOUS
10
304.5462129999999661
20
-129.2592589999999859
11
306.1938020000000051
21
-129.6238309999999956
0
LINE
8
BLACK
6
CONTINUOUS
10
306.1938020000000051
20
-129.6238309999999956
11
307.8273590000000013
21
-130.0273420000000044
0
LINE
8
BLACK
6
CONTINUOUS
10
307.8273590000000013
20
-130.0273420000000044
11
309.4483579999999847
21
-130.4700559999999996
0
LINE
8
BLACK
6
CONTINUOUS
10
309.4483579999999847
20
-130.4700559999999996
11
311.0582789999999704
21
-130.9522409999999866
0
LINE
8
BLACK
6
CONTINUOUS
10
311.0582789999999704
20
-130.9522409999999866
11
312.6585979999999836
21
-131.474160999999981
0
LINE
8
BLACK
6
CONTINUOUS
10
312.6585979999999836
20
-131.474160999999981
11
314.2507909999999924
21
-132.0360829999999908
0
LINE
8
BLACK
6
CONTINUOUS
10
314.2507909999999924
20
-132.0360829999999908
11
315.8363369999999577
21
-132.6382710000000031
0
LINE
8
BLACK
6
CONTINUOUS
10
315.8363369999999577
20
-132.6382710000000031
11
317.4167129999999588
21
-133.2809919999999977
0
LINE
8
BLACK
6
CONTINUOUS
10
317.4167129999999588
20
-133.2809919999999977
11
318.9933949999999641
21
-133.9645109999999875
0
LINE
8
BLACK
6
CONTINUOUS
10
318.9933949999999641
20
-133.9645109999999875
11
320.5678609999999935
21
-134.6890929999999855
0
LINE
8
BLACK
6
CONTINUOUS
10
320.5678609999999935
20
-134.6890929999999855
11
322.1415869999999586
21
-135.4550049999999999
0
LINE
8
BLACK
6
CONTINUOUS
10
322.1415869999999586
20
-135.4550049999999999
11
323.7160519999999906
21
-136.2625119999999868
0
LINE
8
BLACK
6
CONTINUOUS
10
323.7160519999999906
20
-136.2625119999999868
11
325.2927320000000009
21
-137.1118799999999851
0
LINE
8
BLACK
6
CONTINUOUS
10
325.2927320000000009
20
-137.1118799999999851
11
326.8731040000000121
21
-138.0033739999999796
0
ARC
8
BLACK
10
268.2731999999999744
20
-145.5722999999999843
40
2.9999751217596784
50
-85.35040754
51
9.83172405
0
ARC
8
BLACK
10
266.4823999999999842
20
-60.2683999999999997
40
2.0000847649829745
50
-89.99908331
51
-45.00111409
0
LINE
8
BLACK
6
CONTINUOUS
10
337.9908590000000004
20
-138.2684879999999907
11
327.9934999999999832
21
-138.2684879999999907
0
ARC
8
BLACK
10
327.9932999999999765
20
-135.7693999999999903
40
2.4990890080029162
50
-116.63085552
51
-89.99541467
0
ARC
8
BLACK
10
362.9909999999999854
20
-81.2682999999999964
40
1.999812004830704
50
-0.00535753
51
90.00398243
0
LINE
8
BLACK
6
CONTINUOUS
10
67.6995000000000005
20
-94.0544999999999902
11
67.6995000000000005
21
-80.0544999999999902
0
LINE
8
BLACK
6
CONTINUOUS
10
81.6995000000000005
20
-80.0544999999999902
11
67.6995000000000005
21
-80.0544999999999902
0
LINE
8
BLACK
6
CONTINUOUS
10
81.6995000000000005
20
-80.0544999999999902
11
81.6995000000000005
21
-94.0544999999999902
0
LINE
8
BLACK
6
CONTINUOUS
10
81.6995000000000005
20
-94.0544999999999902
11
67.6995000000000005
21
-94.0544999999999902
0
LINE
8
BLACK
6
CONTINUOUS
10
86.339500000000001
20
-81.5544999999999902
11
86.339500000000001
21
-67.5544999999999902
0
LINE
8
BLACK
6
CONTINUOUS
10
100.339500000000001
20
-67.5544999999999902
11
86.339500000000001
21
-67.5544999999999902
0
LINE
8
BLACK
6
CONTINUOUS
10
100.339500000000001
20
-67.5544999999999902
11
100.339500000000001
21
-81.5544999999999902
0
LINE
8
BLACK
6
CONTINUOUS
10
100.339500000000001
20
-81.5544999999999902
11
86.339500000000001
21
-81.5544999999999902
0
LINE
8
BLACK
6
CONTINUOUS
10
104.9795000000000016
20
-76.5544999999999902
11
104.9795000000000016
21
-62.5544999999999973
0
LINE
8
BLACK
6
CONTINUOUS
10
118.9795000000000016
20
-62.5544999999999973
11
104.9795000000000016
21
-62.5544999999999973
0
LINE
8
BLACK
6
CONTINUOUS
10
118.9795000000000016
20
-62.5544999999999973
11
118.9795000000000016
21
-76.5544999999999902
0
LINE
8
BLACK
6
CONTINUOUS
10
118.9795000000000016
20
-76.5544999999999902
11
104.9795000000000016
21
-76.5544999999999902
0
LINE
8
BLACK
6
CONTINUOUS
10
123.6194999999999879
20
-81.4544999999999959
11
123.6194999999999879
21
-67.4544999999999959
0
LINE
8
BLACK
6
CONTINUOUS
10
137.6194999999999879
20
-67.4544999999999959
11
123.6194999999999879
21
-67.4544999999999959
0
LINE
8
BLACK
6
CONTINUOUS
10
137.6194999999999879
20
-67.4544999999999959
11
137.6194999999999879
21
-81.4544999999999959
0
LINE
8
BLACK
6
CONTINUOUS
10
137.6194999999999879
20
-81.4544999999999959
11
123.6194999999999879
21
-81.4544999999999959
0
LINE
8
BLACK
6
CONTINUOUS
10
49.0594999999999999
20
-119.6544999999999987
11
49.0594999999999999
21
-105.6544999999999987
0
LINE
8
BLACK
6
CONTINUOUS
10
63.0594999999999999
20
-105.6544999999999987
11
49.0594999999999999
21
-105.6544999999999987
0
LINE
8
BLACK
6
CONTINUOUS
10
63.0594999999999999
20
-105.6544999999999987
11
63.0594999999999999
21
-119.6544999999999987
0
LINE
8
BLACK
6
CONTINUOUS
10
63.0594999999999999
20
-119.6544999999999987
11
49.0594999999999999
21
-119.6544999999999987
0
LINE
8
BLACK
6
CONTINUOUS
10
67.6995000000000005
20
-112.6544999999999987
11
67.6995000000000005
21
-98.6544999999999987
0
LINE
8
BLACK
6
CONTINUOUS
10
81.6995000000000005
20
-98.6544999999999987
11
67.6995000000000005
21
-98.6544999999999987
0
LINE
8
BLACK
6
CONTINUOUS
10
81.6995000000000005
20
-98.6544999999999987
11
81.6995000000000005
21
-112.6544999999999987
0
LINE
8
BLACK
6
CONTINUOUS
10
81.6995000000000005
20
-112.6544999999999987
11
67.6995000000000005
21
-112.6544999999999987
0
LINE
8
BLACK
6
CONTINUOUS
10
86.339500000000001
20
-100.1544999999999987
11
86.339500000000001
21
-86.1544999999999987
0
LINE
8
BLACK
6
CONTINUOUS
10
100.339500000000001
20
-86.1544999999999987
11
86.339500000000001
21
-86.1544999999999987
0
LINE
8
BLACK
6
CONTINUOUS
10
100.339500000000001
20
-86.1544999999999987
11
100.339500000000001
21
-100.1544999999999987
0
LINE
8
BLACK
6
CONTINUOUS
10
100.339500000000001
20
-100.1544999999999987
11
86.339500000000001
21
-100.1544999999999987
0
LINE
8
BLACK
6
CONTINUOUS
10
104.9795000000000016
20
-95.1544999999999987
11
104.9795000000000016
21
-81.1544999999999987
0
LINE
8
BLACK
6
CONTINUOUS
10
118.9795000000000016
20
-81.1544999999999987
11
104.9795000000000016
21
-81.1544999999999987
0
LINE
8
BLACK
6
CONTINUOUS
10
118.9795000000000016
20
-81.1544999999999987
11
118.9795000000000016
21
-95.1544999999999987
0
LINE
8
BLACK
6
CONTINUOUS
10
118.9795000000000016
20
-95.1544999999999987
11
104.9795000000000016
21
-95.1544999999999987
0
LINE
8
BLACK
6
CONTINUOUS
10
123.6194999999999879
20
-100.0544999999999902
11
123.6194999999999879
21
-86.0544999999999902
0
LINE
8
BLACK
6
CONTINUOUS
10
137.6194999999999879
20
-86.0544999999999902
11
123.6194999999999879
21
-86.0544999999999902
0
LINE
8
BLACK
6
CONTINUOUS
10
137.6194999999999879
20
-86.0544999999999902
11
137.6194999999999879
21
-100.0544999999999902
0
LINE
8
BLACK
6
CONTINUOUS
10
137.6194999999999879
20
-100.0544999999999902
11
123.6194999999999879
21
-100.0544999999999902
0
LINE
8
BLACK
6
CONTINUOUS
10
142.2595000000000027
20
-102.6544999999999987
11
142.2595000000000027
21
-88.6544999999999987
0
LINE
8
BLACK
6
CONTINUOUS
10
156.2595000000000027
20
-88.6544999999999987
11
142.2595000000000027
21
-88.6544999999999987
0
LINE
8
BLACK
6
CONTINUOUS
10
156.2595000000000027
20
-88.6544999999999987
11
156.2595000000000027
21
-102.6544999999999987
0
LINE
8
BLACK
6
CONTINUOUS
10
156.2595000000000027
20
-102.6544999999999987
11
142.2595000000000027
21
-102.6544999999999987
0
LINE
8
BLACK
6
CONTINUOUS
10
49.0594999999999999
20
-138.2545000000000073
11
49.0594999999999999
21
-124.2544999999999931
0
LINE
8
BLACK
6
CONTINUOUS
10
63.0594999999999999
20
-124.2544999999999931
11
49.0594999999999999
21
-124.2544999999999931
0
LINE
8
BLACK
6
CONTINUOUS
10
63.0594999999999999
20
-124.2544999999999931
11
63.0594999999999999
21
-138.2545000000000073
0
LINE
8
BLACK
6
CONTINUOUS
10
63.0594999999999999
20
-138.2545000000000073
11
49.0594999999999999
21
-138.2545000000000073
0
LINE
8
BLACK
6
CONTINUOUS
10
67.6995000000000005
20
-131.2545000000000073
11
67.6995000000000005
21
-117.2544999999999931
0
LINE
8
BLACK
6
CONTINUOUS
10
81.6995000000000005
20
-117.2544999999999931
11
67.6995000000000005
21
-117.2544999999999931
0
LINE
8
BLACK
6
CONTINUOUS
10
81.6995000000000005
20
-117.2544999999999931
11
81.6995000000000005
21
-131.2545000000000073
0
LINE
8
BLACK
6
CONTINUOUS
10
81.6995000000000005
20
-131.2545000000000073
11
67.6995000000000005
21
-131.2545000000000073
0
LINE
8
BLACK
6
CONTINUOUS
10
86.339500000000001
20
-118.7544999999999931
11
86.339500000000001
21
-104.7544999999999931
0
LINE
8
BLACK
6
CONTINUOUS
10
100.339500000000001
20
-104.7544999999999931
11
86.339500000000001
21
-104.7544999999999931
0
LINE
8
BLACK
6
CONTINUOUS
10
100.339500000000001
20
-104.7544999999999931
11
100.339500000000001
21
-118.7544999999999931
0
LINE
8
BLACK
6
CONTINUOUS
10
100.339500000000001
20
-118.7544999999999931
11
86.339500000000001
21
-118.7544999999999931
0
LINE
8
BLACK
6
CONTINUOUS
10
104.9795000000000016
20
-113.7544999999999931
11
104.9795000000000016
21
-99.7544999999999931
0
LINE
8
BLACK
6
CONTINUOUS
10
118.9795000000000016
20
-99.7544999999999931
11
104.9795000000000016
21
-99.7544999999999931
0
LINE
8
BLACK
6
CONTINUOUS
10
118.9795000000000016
20
-99.7544999999999931
11
118.9795000000000016
21
-113.7544999999999931
0
LINE
8
BLACK
6
CONTINUOUS
10
118.9795000000000016
20
-113.7544999999999931
11
104.9795000000000016
21
-113.7544999999999931
0
LINE
8
BLACK
6
CONTINUOUS
10
123.6194999999999879
20
-118.6544999999999987
11
123.6194999999999879
21
-104.6544999999999987
0
LINE
8
BLACK
6
CONTINUOUS
10
137.6194999999999879
20
-104.6544999999999987
11
123.6194999999999879
21
-104.6544999999999987
0
LINE
8
BLACK
6
CONTINUOUS
10
137.6194999999999879
20
-104.6544999999999987
11
137.6194999999999879
21
-118.6544999999999987
0
LINE
8
BLACK
6
CONTINUOUS
10
137.6194999999999879
20
-118.6544999999999987
11
123.6194999999999879
21
-118.6544999999999987
0
LINE
8
BLACK
6
CONTINUOUS
10
142.2595000000000027
20
-121.2544999999999931
11
142.2595000000000027
21
-107.2544999999999931
0
LINE
8
BLACK
6
CONTINUOUS
10
156.2595000000000027
20
-107.2544999999999931
11
142.2595000000000027
21
-107.2544999999999931
0
LINE
8
BLACK
6
CONTINUOUS
10
156.2595000000000027
20
-107.2544999999999931
11
156.2595000000000027
21
-121.2544999999999931
0
LINE
8
BLACK
6
CONTINUOUS
10
156.2595000000000027
20
-121.2544999999999931
11
142.2595000000000027
21
-121.2544999999999931
0
LINE
8
BLACK
6
CONTINUOUS
10
143.1375679999999875
20
-143.6161519999999996
11
145.5277269999999987
21
-129.8216889999999921
0
LINE
8
BLACK
6
CONTINUOUS
10
156.9320309999999949
20
-146.0063109999999824
11
143.1375679999999875
21
-143.6161519999999996
0
LINE
8
BLACK
6
CONTINUOUS
10
159.3221900000000062
20
-132.2118480000000034
11
145.5277269999999987
21
-129.8216889999999921
0
LINE
8
BLACK
6
CONTINUOUS
10
159.3221900000000062
20
-132.2118480000000034
11
156.9320309999999949
21
-146.0063109999999824
0
LINE
8
BLACK
6
CONTINUOUS
10
161.4274249999999995
20
-147.0123350000000073
11
166.0615439999999978
21
-133.8015460000000019
0
LINE
8
BLACK
6
CONTINUOUS
10
174.6382140000000049
20
-151.6464540000000056
11
161.4274249999999995
21
-147.0123350000000073
0
LINE
8
BLACK
6
CONTINUOUS
10
179.2723330000000033
20
-138.4356650000000002
11
166.0615439999999978
21
-133.8015460000000019
0
LINE
8
BLACK
6
CONTINUOUS
10
179.2723330000000033
20
-138.4356650000000002
11
174.6382140000000049
21
-151.6464540000000056
0
LINE
8
BLACK
6
CONTINUOUS
10
178.8516329999999925
20
-153.5308929999999918
11
185.6026069999999777
21
-141.2661329999999964
0
LINE
8
BLACK
6
CONTINUOUS
10
191.116392999999988
20
-160.2818670000000054
11
178.8516329999999925
21
-153.5308929999999918
0
LINE
8
BLACK
6
CONTINUOUS
10
197.8673670000000016
20
-148.0171069999999816
11
185.6026069999999777
21
-141.2661329999999964
0
LINE
8
BLACK
6
CONTINUOUS
10
197.8673670000000016
20
-148.0171069999999816
11
191.116392999999988
21
-160.2818670000000054
0
LINE
8
BLACK
6
CONTINUOUS
10
217.3701069999999902
20
-160.2831170000000043
11
210.6191329999999766
21
-148.0183569999999804
0
LINE
8
BLACK
6
CONTINUOUS
10
222.8838930000000005
20
-141.2673829999999953
11
210.6191329999999766
21
-148.0183569999999804
0
LINE
8
BLACK
6
CONTINUOUS
10
222.8838930000000005
20
-141.2673829999999953
11
229.6348669999999856
21
-153.5321429999999907
0
LINE
8
BLACK
6
CONTINUOUS
10
229.6348669999999856
20
-153.5321429999999907
11
217.3701069999999902
21
-160.2831170000000043
0
LINE
8
BLACK
6
CONTINUOUS
10
289.5074999999999932
20
-113.7549999999999955
11
289.5074999999999932
21
-99.7549999999999955
0
LINE
8
BLACK
6
CONTINUOUS
10
303.5074999999999932
20
-99.7549999999999955
11
289.5074999999999932
21
-99.7549999999999955
0
LINE
8
BLACK
6
CONTINUOUS
10
303.5074999999999932
20
-99.7549999999999955
11
303.5074999999999932
21
-113.7549999999999955
0
LINE
8
BLACK
6
CONTINUOUS
10
303.5074999999999932
20
-113.7549999999999955
11
289.5074999999999932
21
-113.7549999999999955
0
LINE
8
BLACK
6
CONTINUOUS
10
270.8675000000000068
20
-118.6550000000000011
11
270.8675000000000068
21
-104.6550000000000011
0
LINE
8
BLACK
6
CONTINUOUS
10
284.8675000000000068
20
-104.6550000000000011
11
270.8675000000000068
21
-104.6550000000000011
0
LINE
8
BLACK
6
CONTINUOUS
10
284.8675000000000068
20
-104.6550000000000011
11
284.8675000000000068
21
-118.6550000000000011
0
LINE
8
BLACK
6
CONTINUOUS
10
284.8675000000000068
20
-118.6550000000000011
11
270.8675000000000068
21
-118.6550000000000011
0
LINE
8
BLACK
6
CONTINUOUS
10
252.227499999999992
20
-121.2549999999999955
11
252.227499999999992
21
-107.2549999999999955
0
LINE
8
BLACK
6
CONTINUOUS
10
266.2274999999999636
20
-107.2549999999999955
11
252.227499999999992
21
-107.2549999999999955
0
LINE
8
BLACK
6
CONTINUOUS
10
266.2274999999999636
20
-107.2549999999999955
11
266.2274999999999636
21
-121.2549999999999955
0
LINE
8
BLACK
6
CONTINUOUS
10
266.2274999999999636
20
-121.2549999999999955
11
252.227499999999992
21
-121.2549999999999955
0
LINE
8
BLACK
6
CONTINUOUS
10
251.5547449999999969
20
-146.0063659999999857
11
249.1645859999999857
21
-132.2119030000000066
0
LINE
8
BLACK
6
CONTINUOUS
10
262.9590489999999932
20
-129.8217439999999954
11
249.1645859999999857
21
-132.2119030000000066
0
LINE
8
BLACK
6
CONTINUOUS
10
262.9590489999999932
20
-129.8217439999999954
11
265.349207999999976
21
-143.6162070000000028
0
LINE
8
BLACK
6
CONTINUOUS
10
265.349207999999976
20
-143.6162070000000028
11
251.5547449999999969
21
-146.0063659999999857
0
LINE
8
BLACK
6
CONTINUOUS
10
233.8485549999999762
20
-151.6473660000000052
11
229.2144359999999779
21
-138.4365769999999998
0
LINE
8
BLACK
6
CONTINUOUS
10
242.4252249999999833
20
-133.8024580000000014
11
229.2144359999999779
21
-138.4365769999999998
0
LINE
8
BLACK
6
CONTINUOUS
10
242.4252249999999833
20
-133.8024580000000014
11
247.0593439999999816
21
-147.0132470000000069
0
LINE
8
BLACK
6
CONTINUOUS
10
247.0593439999999816
20
-147.0132470000000069
11
233.8485549999999762
21
-151.6473660000000052
0
LINE
8
BLACK
6
CONTINUOUS
10
289.5074999999999932
20
-76.5549999999999926
11
289.5074999999999932
21
-62.5549999999999997
0
LINE
8
BLACK
6
CONTINUOUS
10
303.5074999999999932
20
-62.5549999999999997
11
289.5074999999999932
21
-62.5549999999999997
0
LINE
8
BLACK
6
CONTINUOUS
10
303.5074999999999932
20
-62.5549999999999997
11
303.5074999999999932
21
-76.5549999999999926
0
LINE
8
BLACK
6
CONTINUOUS
10
303.5074999999999932
20
-76.5549999999999926
11
289.5074999999999932
21
-76.5549999999999926
0
LINE
8
BLACK
6
CONTINUOUS
10
270.8675000000000068
20
-81.4549999999999983
11
270.8675000000000068
21
-67.4549999999999983
0
LINE
8
BLACK
6
CONTINUOUS
10
284.8675000000000068
20
-67.4549999999999983
11
270.8675000000000068
21
-67.4549999999999983
0
LINE
8
BLACK
6
CONTINUOUS
10
284.8675000000000068
20
-67.4549999999999983
11
284.8675000000000068
21
-81.4549999999999983
0
LINE
8
BLACK
6
CONTINUOUS
10
284.8675000000000068
20
-81.4549999999999983
11
270.8675000000000068
21
-81.4549999999999983
0
LINE
8
BLACK
6
CONTINUOUS
10
345.4275000000000091
20
-119.6550000000000011
11
345.4275000000000091
21
-105.6550000000000011
0
LINE
8
BLACK
6
CONTINUOUS
10
359.4275000000000091
20
-105.6550000000000011
11
345.4275000000000091
21
-105.6550000000000011
0
LINE
8
BLACK
6
CONTINUOUS
10
359.4275000000000091
20
-105.6550000000000011
11
359.4275000000000091
21
-119.6550000000000011
0
LINE
8
BLACK
6
CONTINUOUS
10
359.4275000000000091
20
-119.6550000000000011
11
345.4275000000000091
21
-119.6550000000000011
0
LINE
8
BLACK
6
CONTINUOUS
10
308.1474999999999795
20
-81.5549999999999926
11
308.1474999999999795
21
-67.5549999999999926
0
LINE
8
BLACK
6
CONTINUOUS
10
322.1474999999999795
20
-67.5549999999999926
11
308.1474999999999795
21
-67.5549999999999926
0
LINE
8
BLACK
6
CONTINUOUS
10
322.1474999999999795
20
-67.5549999999999926
11
322.1474999999999795
21
-81.5549999999999926
0
LINE
8
BLACK
6
CONTINUOUS
10
322.1474999999999795
20
-81.5549999999999926
11
308.1474999999999795
21
-81.5549999999999926
0
LINE
8
BLACK
6
CONTINUOUS
10
326.7874999999999659
20
-112.6550000000000011
11
326.7874999999999659
21
-98.6550000000000011
0
LINE
8
BLACK
6
CONTINUOUS
10
340.7874999999999659
20
-98.6550000000000011
11
326.7874999999999659
21
-98.6550000000000011
0
LINE
8
BLACK
6
CONTINUOUS
10
340.7874999999999659
20
-98.6550000000000011
11
340.7874999999999659
21
-112.6550000000000011
0
LINE
8
BLACK
6
CONTINUOUS
10
340.7874999999999659
20
-112.6550000000000011
11
326.7874999999999659
21
-112.6550000000000011
0
LINE
8
BLACK
6
CONTINUOUS
10
326.7874999999999659
20
-131.2549999999999955
11
326.7874999999999659
21
-117.2549999999999955
0
LINE
8
BLACK
6
CONTINUOUS
10
340.7874999999999659
20
-117.2549999999999955
11
326.7874999999999659
21
-117.2549999999999955
0
LINE
8
BLACK
6
CONTINUOUS
10
340.7874999999999659
20
-117.2549999999999955
11
340.7874999999999659
21
-131.2549999999999955
0
LINE
8
BLACK
6
CONTINUOUS
10
340.7874999999999659
20
-131.2549999999999955
11
326.7874999999999659
21
-131.2549999999999955
0
LINE
8
BLACK
6
CONTINUOUS
10
308.1474999999999795
20
-118.7549999999999955
11
308.1474999999999795
21
-104.7549999999999955
0
LINE
8
BLACK
6
CONTINUOUS
10
322.1474999999999795
20
-104.7549999999999955
11
308.1474999999999795
21
-104.7549999999999955
0
LINE
8
BLACK
6
CONTINUOUS
10
322.1474999999999795
20
-104.7549999999999955
11
322.1474999999999795
21
-118.7549999999999955
0
LINE
8
BLACK
6
CONTINUOUS
10
322.1474999999999795
20
-118.7549999999999955
11
308.1474999999999795
21
-118.7549999999999955
0
LINE
8
BLACK
6
CONTINUOUS
10
345.4275000000000091
20
-101.0549999999999926
11
345.4275000000000091
21
-87.0549999999999926
0
LINE
8
BLACK
6
CONTINUOUS
10
359.4275000000000091
20
-87.0549999999999926
11
345.4275000000000091
21
-87.0549999999999926
0
LINE
8
BLACK
6
CONTINUOUS
10
359.4275000000000091
20
-87.0549999999999926
11
359.4275000000000091
21
-101.0549999999999926
0
LINE
8
BLACK
6
CONTINUOUS
10
359.4275000000000091
20
-101.0549999999999926
11
345.4275000000000091
21
-101.0549999999999926
0
LINE
8
BLACK
6
CONTINUOUS
10
326.7874999999999659
20
-94.0549999999999926
11
326.7874999999999659
21
-80.0549999999999926
0
LINE
8
BLACK
6
CONTINUOUS
10
340.7874999999999659
20
-80.0549999999999926
11
326.7874999999999659
21
-80.0549999999999926
0
LINE
8
BLACK
6
CONTINUOUS
10
340.7874999999999659
20
-80.0549999999999926
11
340.7874999999999659
21
-94.0549999999999926
0
LINE
8
BLACK
6
CONTINUOUS
10
340.7874999999999659
20
-94.0549999999999926
11
326.7874999999999659
21
-94.0549999999999926
0
LINE
8
BLACK
6
CONTINUOUS
10
308.1474999999999795
20
-100.1550000000000011
11
308.1474999999999795
21
-86.1550000000000011
0
LINE
8
BLACK
6
CONTINUOUS
10
322.1474999999999795
20
-86.1550000000000011
11
308.1474999999999795
21
-86.1550000000000011
0
LINE
8
BLACK
6
CONTINUOUS
10
322.1474999999999795
20
-86.1550000000000011
11
322.1474999999999795
21
-100.1550000000000011
0
LINE
8
BLACK
6
CONTINUOUS
10
322.1474999999999795
20
-100.1550000000000011
11
308.1474999999999795
21
-100.1550000000000011
0
LINE
8
BLACK
6
CONTINUOUS
10
289.5074999999999932
20
-95.1550000000000011
11
289.5074999999999932
21
-81.1550000000000011
0
LINE
8
BLACK
6
CONTINUOUS
10
303.5074999999999932
20
-81.1550000000000011
11
289.5074999999999932
21
-81.1550000000000011
0
LINE
8
BLACK
6
CONTINUOUS
10
303.5074999999999932
20
-81.1550000000000011
11
303.5074999999999932
21
-95.1550000000000011
0
LINE
8
BLACK
6
CONTINUOUS
10
303.5074999999999932
20
-95.1550000000000011
11
289.5074999999999932
21
-95.1550000000000011
0
LINE
8
BLACK
6
CONTINUOUS
10
270.8675000000000068
20
-100.0549999999999926
11
270.8675000000000068
21
-86.0549999999999926
0
LINE
8
BLACK
6
CONTINUOUS
10
284.8675000000000068
20
-86.0549999999999926
11
270.8675000000000068
21
-86.0549999999999926
0
LINE
8
BLACK
6
CONTINUOUS
10
284.8675000000000068
20
-86.0549999999999926
11
284.8675000000000068
21
-100.0549999999999926
0
LINE
8
BLACK
6
CONTINUOUS
10
284.8675000000000068
20
-100.0549999999999926
11
270.8675000000000068
21
-100.0549999999999926
0
LINE
8
BLACK
6
CONTINUOUS
10
252.227499999999992
20
-102.6550000000000011
11
252.227499999999992
21
-88.6550000000000011
0
LINE
8
BLACK
6
CONTINUOUS
10
266.2274999999999636
20
-88.6550000000000011
11
252.227499999999992
21
-88.6550000000000011
0
LINE
8
BLACK
6
CONTINUOUS
10
266.2274999999999636
20
-88.6550000000000011
11
266.2274999999999636
21
-102.6550000000000011
0
LINE
8
BLACK
6
CONTINUOUS
10
266.2274999999999636
20
-102.6550000000000011
11
252.227499999999992
21
-102.6550000000000011
0
LINE
8
BLACK
6
CONTINUOUS
10
345.4275000000000091
20
-138.2549999999999955
11
345.4275000000000091
21
-124.2549999999999955
0
LINE
8
BLACK
6
CONTINUOUS
10
359.4275000000000091
20
-124.2549999999999955
11
345.4275000000000091
21
-124.2549999999999955
0
LINE
8
BLACK
6
CONTINUOUS
10
359.4275000000000091
20
-124.2549999999999955
11
359.4275000000000091
21
-138.2549999999999955
0
LINE
8
BLACK
6
CONTINUOUS
10
359.4275000000000091
20
-138.2549999999999955
11
345.4275000000000091
21
-138.2549999999999955
0
LINE
8
BLACK
6
CONTINUOUS
10
49.0594999999999999
20
-101.0544999999999902
11
49.0594999999999999
21
-87.0544999999999902
0
LINE
8
BLACK
6
CONTINUOUS
10
63.0594999999999999
20
-87.0544999999999902
11
49.0594999999999999
21
-87.0544999999999902
0
LINE
8
BLACK
6
CONTINUOUS
10
63.0594999999999999
20
-87.0544999999999902
11
63.0594999999999999
21
-101.0544999999999902
0
LINE
8
BLACK
6
CONTINUOUS
10
63.0594999999999999
20
-101.0544999999999902
11
49.0594999999999999
21
-101.0544999999999902
0
LINE
8
BLACK
6
CONTINUOUS
10
142.2595000000000027
20
-84.0544999999999902
11
142.2595000000000027
21
-70.0544999999999902
0
LINE
8
BLACK
6
CONTINUOUS
10
156.2595000000000027
20
-70.0544999999999902
11
142.2595000000000027
21
-70.0544999999999902
0
LINE
8
BLACK
6
CONTINUOUS
10
156.2595000000000027
20
-70.0544999999999902
11
156.2595000000000027
21
-84.0544999999999902
0
LINE
8
BLACK
6
CONTINUOUS
10
156.2595000000000027
20
-84.0544999999999902
11
142.2595000000000027
21
-84.0544999999999902
0
LINE
8
BLACK
6
CONTINUOUS
10
252.220499999999987
20
-84.0600000000000023
11
252.220499999999987
21
-70.0600000000000023
0
LINE
8
BLACK
6
CONTINUOUS
10
266.2205000000000155
20
-70.0600000000000023
11
252.220499999999987
21
-70.0600000000000023
0
LINE
8
BLACK
6
CONTINUOUS
10
266.2205000000000155
20
-70.0600000000000023
11
266.2205000000000155
21
-84.0600000000000023
0
LINE
8
BLACK
6
CONTINUOUS
10
266.2205000000000155
20
-84.0600000000000023
11
252.220499999999987
21
-84.0600000000000023
  0
ENDSEC
  0
EOF
