  0
SECTION
  2
HEADER
  9
$ANGBASE
  50
0.0
  9
$ANGDIR
  70
1
  9
$MEASUREMENT
  70
1
  0
ENDSEC
  0
SECTION
  2
TABLES
  0
TABLE
  2
LTYPE
  70
4
  0
LTYPE
  5
40F
  2
CONTINUOUS
  70
0
  3
Solid line
  72
65
  73
0
  40
0.0
  0
LTYPE
  5
410
  2
DASHDOT
 70
0
  3
Dash Dot ____ _ ____ _
 72
65
 73
4
 40
2.0
 49
1.25
 49
-0.25
 49
0.25
 49
-0.25
  0
LTYPE
  5
411
  2
DASHED
 70
0
  3
Dashed __ __ __ __ __
 72
65
 73
2
 40
0.75
 49
0.5
 49
-0.25
  0
LTYPE
  5
43B
  2
DOTTED
 70
0
  3
Dotted .  .  .  .
 72
65
 73
2
 40
0.2
 49
0.0
 49
-0.2
  0
ENDTAB
  0
TABLE
  2
STYLE
  70
4
  0
STYLE
  2
KICAD
  70
0
  40
0
  41
1
  42
1
  50
0
  71
0
  3
isocp.shx
  0
STYLE
  2
KICADB
  70
0
  40
0
  41
1
  42
1
  50
0
  71
0
  3
isocp.shx
  0
STYLE
  2
KICADI
  70
0
  40
0
  41
1
  42
1
  50
15
  71
0
  3
isocp.shx
  0
STYLE
  2
KICADBI
  70
0
  40
0
  41
1
  42
1
  50
15
  71
0
  3
isocp.shx
  0
ENDTAB
  0
TABLE
  2
LAYER
  70
1
  0
LAYER
  2
BLACK
  70
0
  62
7
  6
CONTINUOUS
  0
ENDTAB
  0
ENDSEC
  0
SECTION
  2
ENTITIES
0
LINE
8
BLACK
6
CONTINUOUS
10
77.5999999999999943
20
-23.5999999999999979
11
77.5999999999999943
21
-24.1887499999999989
0
ARC
8
BLACK
10
38.6000000000000014
20
-99.5999999999999943
40
2.
50
-90.00000000
51
-0.00000000
0
ARC
8
BLACK
10
110.9185999999999979
20
-88.4386999999999972
40
1.9999499999999999
50
-0.00143239
51
90.00000000
0
ARC
8
BLACK
10
79.5999999999999943
20
-23.5999999999999979
40
2.
50
90.00000000
51
180.00000000
0
LINE
8
BLACK
6
CONTINUOUS
10
99.1999999999999886
20
-26.1887499999999989
11
156.4185999999999979
21
-26.1887499999999989
0
ARC
8
BLACK
10
20.6685999999999979
20
-47.5999999999999943
40
2.
50
90.00000000
51
180.00000000
0
ARC
8
BLACK
10
20.6685999999999979
20
-99.5999999999999943
40
2.
50
-180.00000000
51
-90.00000000
0
LINE
8
BLACK
6
CONTINUOUS
10
58.
20
-36.6000000000000014
11
58.
21
-28.1887499999999989
0
ARC
8
BLACK
10
58.9185999999999979
20
-94.
40
2.
50
-90.00000000
51
-0.00000000
0
ARC
8
BLACK
10
95.1999999999999886
20
-23.5999999999999979
40
2.
50
0.00000000
51
90.00000000
0
ARC
8
BLACK
10
56.
20
-36.6000000000000014
40
2.
50
-90.00000000
51
-0.00000000
0
LINE
8
BLACK
6
CONTINUOUS
10
75.5999999999999943
20
-26.1887499999999989
11
60.
21
-26.1887499999999989
0
LINE
8
BLACK
6
CONTINUOUS
10
38.6000000000000014
20
-40.6000000000000014
11
38.6000000000000014
21
-43.6000000000000014
0
ARC
8
BLACK
10
156.4185999999999979
20
-28.1886999999999972
40
1.9999499999999999
50
-0.00143239
51
90.00000000
0
ARC
8
BLACK
10
60.
20
-28.1887499999999989
40
2.
50
90.00000000
51
180.00000000
0
LINE
8
BLACK
6
CONTINUOUS
10
95.1999999999999886
20
-21.5999999999999979
11
79.5999999999999943
21
-21.5999999999999979
0
LINE
8
BLACK
6
CONTINUOUS
10
159.3092000000000041
20
-96.9578509999999909
11
176.9185999999999979
21
-106.6887499999999989
0
LINE
8
BLACK
6
CONTINUOUS
10
158.4185999999999979
20
-28.1887499999999989
11
158.4185999999999979
21
-95.2937499999999886
0
LINE
8
BLACK
6
CONTINUOUS
10
18.6685999999999979
20
-47.5999999999999943
11
18.6685999999999979
21
-99.5999999999999943
0
ARC
8
BLACK
10
167.1685999999999979
20
-124.1888000000000005
40
2.0155396305952409
50
-119.74558649
51
-29.74364722
0
LINE
8
BLACK
6
CONTINUOUS
10
42.6000000000000014
20
-96.
11
58.9185999999999979
21
-96.
0
LINE
8
BLACK
6
CONTINUOUS
10
60.9185999999999979
20
-94.
11
60.9185999999999979
21
-88.4387499999999989
0
LINE
8
BLACK
6
CONTINUOUS
10
112.9185999999999979
20
-100.913297
11
112.9185999999999979
21
-88.4387499999999989
0
LINE
8
BLACK
6
CONTINUOUS
10
150.1685999999999979
20
-117.1887499999999989
11
166.1685999999999979
21
-125.9387499999999989
0
LINE
8
BLACK
6
CONTINUOUS
10
62.9185999999999979
20
-86.4387499999999989
11
110.9185999999999979
21
-86.4387499999999989
0
ARC
8
BLACK
10
75.6000999999999976
20
-24.1888000000000005
40
1.9999000006250311
50
-90.00286486
51
0.00143247
0
LINE
8
BLACK
6
CONTINUOUS
10
132.9185999999999979
20
-111.1887499999999989
11
150.1685999999999979
21
-117.1887499999999989
0
ARC
8
BLACK
10
120.9194999999999993
20
-100.9146999999999963
40
8.0009177265973683
50
-180.01004712
51
-100.14103637
0
ARC
8
BLACK
10
99.1999999999999886
20
-24.1888000000000005
40
1.9999499999999999
50
-180.00143239
51
-90.00000000
0
LINE
8
BLACK
6
CONTINUOUS
10
119.5109209999999962
20
-108.7897459999999938
11
132.9185999999999979
21
-111.1887499999999989
0
ARC
8
BLACK
10
42.6000000000000014
20
-98.
40
2.
50
90.00000000
51
180.00000000
0
LINE
8
BLACK
6
CONTINUOUS
10
38.6000000000000014
20
-101.5999999999999943
11
20.6685999999999979
21
-101.5999999999999943
0
ARC
8
BLACK
10
62.9185999999999979
20
-88.4387499999999989
40
2.
50
90.00000000
51
180.00000000
0
ARC
8
BLACK
10
160.4184999999999945
20
-95.2937999999999903
40
1.9999030528005601
50
-180.00143247
51
-123.68846246
0
ARC
8
BLACK
10
40.6000000000000014
20
-40.6000000000000014
40
2.
50
90.00000000
51
180.00000000
0
LINE
8
BLACK
6
CONTINUOUS
10
56.
20
-38.6000000000000014
11
40.6000000000000014
21
-38.6000000000000014
0
ARC
8
BLACK
10
36.6000000000000014
20
-43.6000000000000014
40
2.
50
-90.00000000
51
-0.00000000
0
LINE
8
BLACK
6
CONTINUOUS
10
177.6685999999999979
20
-109.4387499999999989
11
168.9185999999999979
21
-125.1887499999999989
0
LINE
8
BLACK
6
CONTINUOUS
10
36.6000000000000014
20
-45.6000000000000014
11
20.6685999999999979
21
-45.6000000000000014
0
LINE
8
BLACK
6
CONTINUOUS
10
40.6000000000000014
20
-99.5999999999999943
11
40.6000000000000014
21
-98.
0
LINE
8
BLACK
6
CONTINUOUS
10
97.1999999999999886
20
-23.5999999999999979
11
97.1999999999999886
21
-24.1887499999999989
0
ARC
8
BLACK
10
175.9184999999999945
20
-108.4388000000000005
40
2.0156574640796485
50
-29.74223696
51
60.25335584
  0
ENDSEC
  0
EOF
