M48
; DRILL file {KiCad 8.0.1} date 2024-06-10T23:21:17+0200
; FORMAT={-:-/ absolute / metric / decimal}
; #@! TF.CreationDate,2024-06-10T23:21:17+02:00
; #@! TF.GenerationSoftware,Kicad,Pcbnew,8.0.1
; #@! TF.FileFunction,Plated,1,2,PTH
FMAT,2
METRIC
; #@! TA.AperFunction,Plated,PTH,ViaDrill
T1C0.300
; #@! TA.AperFunction,Plated,PTH,ComponentDrill
T2C0.300
; #@! TA.AperFunction,Plated,PTH,ViaDrill
T3C0.600
; #@! TA.AperFunction,Plated,PTH,ComponentDrill
T4C1.000
; #@! TA.AperFunction,Plated,PTH,ComponentDrill
T5C1.092
; #@! TA.AperFunction,Plated,PTH,ComponentDrill
T6C1.100
%
G90
G05
T1
X21.184Y-40.774
X21.184Y-43.314
X21.184Y-45.854
X21.184Y-48.394
X21.184Y-50.934
X21.184Y-53.474
X21.184Y-56.014
X21.184Y-58.554
X21.184Y-63.634
X21.184Y-76.334
X21.184Y-78.874
X21.184Y-81.414
X21.184Y-96.654
X21.184Y-99.194
X21.184Y-101.734
X23.724Y-38.234
X23.724Y-40.774
X23.724Y-43.314
X23.724Y-45.854
X23.724Y-56.014
X23.724Y-63.634
X23.724Y-78.874
X23.724Y-81.414
X23.724Y-94.114
X23.724Y-99.194
X26.264Y-38.234
X26.264Y-40.774
X26.264Y-43.314
X26.264Y-45.854
X26.264Y-56.014
X26.264Y-63.634
X26.264Y-81.414
X26.264Y-94.114
X26.264Y-99.194
X28.804Y-38.234
X28.804Y-40.774
X28.804Y-43.314
X28.804Y-45.854
X28.804Y-63.634
X28.804Y-71.254
X28.804Y-81.414
X31.344Y-38.234
X31.344Y-40.774
X31.344Y-43.314
X31.344Y-45.854
X31.344Y-63.634
X31.344Y-66.174
X31.344Y-81.414
X33.884Y-38.234
X33.884Y-45.854
X33.884Y-56.014
X33.884Y-66.174
X33.884Y-76.334
X33.884Y-81.414
X33.884Y-94.114
X33.884Y-99.194
X35.2Y-84.2
X36.424Y-38.234
X36.424Y-45.854
X36.424Y-56.014
X36.424Y-76.334
X38.4Y-96.2
X38.6Y-78.4
X38.964Y-38.234
X38.964Y-45.854
X38.964Y-48.394
X38.964Y-58.554
X38.964Y-66.174
X38.964Y-68.714
X38.964Y-73.794
X38.964Y-86.494
X38.964Y-101.734
X39.0Y-93.0
X39.969Y-94.289
X40.969Y-57.689
X41.504Y-38.234
X41.504Y-40.774
X41.504Y-48.394
X41.504Y-50.934
X41.504Y-56.014
X41.504Y-66.174
X41.504Y-68.714
X41.504Y-71.254
X41.504Y-76.334
X41.504Y-86.494
X41.504Y-101.734
X44.044Y-38.234
X44.044Y-40.774
X44.044Y-50.934
X44.044Y-56.014
X44.044Y-68.714
X44.044Y-73.794
X44.044Y-76.334
X44.044Y-89.034
X44.044Y-101.734
X46.584Y-38.234
X46.584Y-56.014
X46.584Y-68.714
X46.584Y-73.794
X46.584Y-76.334
X46.584Y-96.654
X46.584Y-99.194
X46.584Y-101.734
X49.124Y-38.234
X49.124Y-40.774
X49.124Y-43.314
X49.124Y-56.014
X49.124Y-61.094
X49.124Y-63.634
X49.124Y-76.334
X49.124Y-78.874
X49.124Y-81.414
X49.124Y-96.654
X49.124Y-99.194
X49.124Y-101.734
X51.664Y-38.234
X51.664Y-56.014
X51.664Y-68.714
X51.664Y-73.794
X51.664Y-96.654
X51.664Y-99.194
X51.664Y-101.734
X51.969Y-94.289
X53.6Y-92.6
X54.204Y-38.234
X54.204Y-40.774
X54.204Y-50.934
X54.204Y-56.014
X54.204Y-68.714
X54.204Y-89.034
X54.204Y-96.654
X54.204Y-99.194
X54.204Y-101.734
X56.744Y-38.234
X56.744Y-40.774
X56.744Y-96.654
X56.744Y-99.194
X56.8Y-72.0
X57.0Y-47.6
X57.6Y-60.0
X57.6Y-75.6
X59.284Y-22.994
X59.284Y-25.534
X59.284Y-28.074
X59.284Y-30.614
X59.284Y-35.694
X59.284Y-38.234
X59.284Y-96.654
X60.0Y-82.4
X61.142Y-44.569
X61.824Y-20.454
X61.824Y-22.994
X61.824Y-25.534
X61.824Y-28.074
X61.824Y-38.234
X61.824Y-43.314
X61.824Y-56.014
X61.824Y-61.094
X61.824Y-63.634
X61.824Y-76.334
X63.569Y-83.785
X64.364Y-20.454
X64.364Y-22.994
X64.364Y-25.534
X64.364Y-28.074
X64.364Y-38.234
X64.364Y-43.314
X64.364Y-56.014
X64.364Y-61.094
X64.364Y-63.634
X64.364Y-81.414
X66.904Y-20.454
X66.904Y-22.994
X66.904Y-25.534
X66.904Y-28.074
X66.904Y-43.314
X66.904Y-63.634
X66.904Y-81.414
X69.444Y-20.454
X69.444Y-22.994
X69.444Y-25.534
X69.444Y-28.074
X69.444Y-43.314
X69.444Y-63.634
X69.444Y-81.414
X70.969Y-83.689
X71.984Y-25.534
X71.984Y-28.074
X71.984Y-38.234
X71.984Y-56.014
X71.984Y-61.094
X72.2Y-66.4
X74.524Y-25.534
X74.524Y-28.074
X74.524Y-38.234
X74.524Y-56.014
X74.524Y-76.334
X74.6Y-81.4
X76.6Y-39.4
X77.064Y-20.454
X77.064Y-22.994
X77.064Y-25.534
X77.064Y-28.074
X77.064Y-30.614
X77.064Y-48.394
X77.064Y-53.474
X77.064Y-58.554
X77.064Y-66.174
X77.064Y-68.714
X77.064Y-73.794
X78.017Y-82.337
X79.569Y-37.889
X79.604Y-20.454
X79.604Y-22.994
X79.604Y-30.614
X79.604Y-33.154
X79.604Y-50.934
X79.604Y-56.014
X79.604Y-68.714
X79.604Y-71.254
X79.604Y-76.334
X80.2Y-84.0
X82.144Y-20.454
X82.144Y-22.994
X82.144Y-33.154
X82.144Y-50.934
X82.144Y-56.014
X82.144Y-71.254
X84.684Y-20.454
X84.684Y-22.994
X84.684Y-50.934
X84.684Y-83.954
X87.224Y-20.454
X87.224Y-22.994
X87.224Y-25.534
X87.224Y-43.314
X87.224Y-45.854
X87.224Y-63.634
X89.764Y-20.454
X89.764Y-22.994
X89.764Y-50.934
X89.764Y-56.014
X89.764Y-83.954
X89.969Y-77.474
X91.2Y-61.4
X92.304Y-20.454
X92.304Y-22.994
X92.304Y-33.154
X92.304Y-50.934
X92.304Y-71.254
X92.4Y-37.6
X94.2Y-84.0
X94.844Y-20.454
X94.844Y-22.994
X94.844Y-50.934
X94.844Y-53.474
X94.844Y-68.714
X94.844Y-71.254
X94.844Y-76.334
X95.6Y-58.6
X96.8Y-37.6
X97.03Y-82.227
X97.384Y-22.994
X97.384Y-25.534
X97.384Y-28.074
X98.969Y-40.489
X99.924Y-22.994
X99.924Y-25.534
X99.924Y-28.074
X99.924Y-61.094
X102.464Y-22.994
X102.464Y-25.534
X102.464Y-28.074
X102.464Y-38.234
X102.464Y-56.014
X102.464Y-61.094
X105.004Y-22.994
X105.004Y-25.534
X105.004Y-28.074
X105.004Y-50.934
X107.544Y-22.994
X107.544Y-25.534
X107.544Y-28.074
X107.544Y-81.414
X108.969Y-83.689
X110.084Y-22.994
X110.084Y-25.534
X110.084Y-28.074
X110.084Y-38.234
X110.084Y-56.014
X110.084Y-81.414
X111.6Y-61.0
X112.4Y-41.6
X112.624Y-22.994
X112.624Y-25.534
X112.624Y-28.074
X112.624Y-56.014
X112.624Y-58.554
X112.624Y-76.334
X112.624Y-81.414
X113.0Y-39.8
X113.8Y-85.8
X114.2Y-67.2
X114.2Y-93.8
X114.6Y-48.4
X114.6Y-62.2
X115.164Y-22.994
X115.164Y-25.534
X115.164Y-28.074
X115.164Y-30.614
X115.164Y-33.154
X115.164Y-35.694
X115.164Y-38.234
X115.164Y-106.814
X115.569Y-83.689
X116.072Y-41.764
X116.4Y-64.2
X116.773Y-46.28
X117.6Y-41.6
X117.704Y-20.454
X117.704Y-28.074
X117.704Y-30.614
X117.704Y-38.234
X117.704Y-56.014
X117.704Y-58.554
X117.704Y-76.334
X117.704Y-78.874
X117.704Y-81.414
X117.704Y-106.814
X119.8Y-64.8
X120.244Y-20.454
X120.244Y-28.074
X120.244Y-30.614
X120.244Y-58.554
X120.244Y-78.874
X120.244Y-104.274
X122.784Y-22.994
X122.784Y-25.534
X122.784Y-28.074
X122.784Y-58.554
X122.784Y-99.194
X125.324Y-28.074
X125.324Y-30.614
X125.324Y-33.154
X125.324Y-50.934
X125.324Y-53.474
X125.324Y-71.254
X125.6Y-64.8
X126.8Y-106.6
X127.8Y-85.6
X127.864Y-28.074
X127.864Y-38.234
X127.864Y-58.554
X127.864Y-76.334
X127.864Y-89.034
X127.864Y-91.574
X127.864Y-101.734
X127.864Y-109.354
X129.0Y-82.4
X129.2Y-50.0
X129.6Y-106.6
X130.4Y-66.2
X130.404Y-28.074
X130.404Y-30.614
X130.404Y-40.774
X130.404Y-58.554
X130.404Y-78.874
X130.404Y-89.034
X130.404Y-91.574
X130.404Y-101.734
X130.404Y-109.354
X130.8Y-60.6
X131.0Y-82.4
X131.0Y-85.6
X131.8Y-43.8
X132.944Y-28.074
X132.944Y-30.614
X132.944Y-56.014
X132.944Y-68.714
X132.944Y-71.254
X132.944Y-101.734
X132.944Y-104.274
X133.0Y-66.2
X133.0Y-92.6
X135.25Y-73.8
X135.484Y-28.074
X135.484Y-30.614
X135.484Y-33.154
X135.484Y-35.694
X135.484Y-38.234
X135.484Y-63.634
X135.484Y-66.174
X135.484Y-68.714
X135.484Y-78.874
X135.484Y-96.654
X135.484Y-99.194
X135.484Y-101.734
X135.484Y-104.274
X136.0Y-41.6
X136.4Y-55.6
X136.6Y-73.0
X138.0Y-73.65
X138.024Y-78.874
X138.024Y-91.574
X138.024Y-96.654
X138.024Y-101.734
X138.024Y-104.274
X139.0Y-70.4
X139.4Y-73.0
X139.6Y-75.2
X139.8Y-51.0
X139.8Y-53.4
X139.8Y-66.2
X140.564Y-35.694
X140.564Y-38.234
X140.564Y-40.774
X140.564Y-43.314
X140.564Y-45.854
X140.564Y-48.394
X140.564Y-91.574
X140.564Y-104.274
X140.75Y-73.65
X141.2Y-33.2
X141.2Y-60.8
X141.2Y-76.8
X141.4Y-51.0
X141.757Y-31.333
X141.8Y-56.0
X142.6Y-63.0
X142.669Y-31.269
X142.8Y-53.4
X143.0Y-30.4
X143.0Y-40.8
X143.104Y-28.074
X143.104Y-43.314
X143.104Y-45.854
X143.104Y-48.394
X143.104Y-73.794
X143.104Y-81.414
X143.104Y-83.954
X143.104Y-86.494
X143.104Y-89.034
X143.104Y-91.574
X144.0Y-34.2
X144.2Y-36.4
X144.2Y-59.8
X144.4Y-56.8
X144.8Y-111.2
X145.0Y-55.0
X145.169Y-33.289
X145.169Y-35.289
X145.4Y-62.0
X145.4Y-63.0
X145.644Y-30.614
X145.644Y-81.414
X145.644Y-83.954
X145.644Y-86.494
X145.644Y-91.574
X145.896Y-77.491
X146.0Y-38.6
X146.125Y-61.125
X146.569Y-89.089
X146.6Y-56.0
X146.735Y-60.335
X146.8Y-85.2
X146.875Y-51.0
X147.0Y-111.4
X147.169Y-33.289
X147.169Y-35.289
X147.2Y-75.0
X148.184Y-30.614
X148.184Y-38.234
X148.184Y-40.774
X148.184Y-43.314
X148.184Y-45.854
X148.184Y-48.394
X148.184Y-50.934
X148.184Y-63.634
X148.184Y-81.414
X148.184Y-83.954
X148.184Y-86.494
X148.184Y-91.574
X148.184Y-96.654
X148.184Y-106.814
X148.2Y-53.4
X148.2Y-72.0
X148.287Y-60.323
X148.6Y-77.4
X148.8Y-56.0
X149.6Y-60.2
X149.6Y-109.6
X150.6Y-61.079
X150.724Y-35.694
X150.724Y-38.234
X150.724Y-56.014
X150.724Y-66.174
X150.724Y-73.794
X150.724Y-78.874
X150.724Y-81.414
X150.724Y-83.954
X150.724Y-86.494
X150.724Y-91.574
X150.8Y-40.8
X150.8Y-43.4
X150.8Y-45.8
X150.8Y-48.4
X150.8Y-51.0
X150.8Y-53.4
X151.4Y-98.4
X151.8Y-62.0
X152.215Y-95.985
X152.369Y-89.089
X152.6Y-85.2
X152.769Y-97.489
X153.264Y-78.874
X153.264Y-81.414
X153.264Y-83.954
X153.264Y-86.494
X153.264Y-91.574
X153.264Y-106.814
X153.264Y-109.354
X153.264Y-116.974
X153.4Y-99.2
X154.6Y-87.6
X154.6Y-115.0
X154.8Y-27.8
X154.8Y-61.175
X154.8Y-68.4
X155.6Y-89.2
X156.6Y-116.2
X158.344Y-101.734
X158.344Y-111.894
X160.884Y-99.194
X160.884Y-111.894
X161.8Y-119.0
X163.424Y-104.274
X163.424Y-109.354
X163.424Y-122.054
X165.964Y-106.814
X165.964Y-109.354
X165.964Y-114.434
X165.964Y-122.054
X165.964Y-124.594
X168.504Y-116.974
X168.504Y-119.514
X168.504Y-122.054
X171.044Y-116.974
X173.584Y-106.814
X173.584Y-109.354
X173.584Y-111.894
X173.584Y-114.434
X176.124Y-109.354
T2
X23.719Y-50.889
X23.719Y-69.889
X23.719Y-88.889
X25.019Y-59.439
X25.019Y-78.439
X25.019Y-97.439
X25.894Y-59.439
X25.894Y-78.439
X25.894Y-97.439
X34.444Y-59.439
X34.444Y-78.439
X34.444Y-97.439
X35.319Y-59.439
X35.319Y-78.439
X35.319Y-97.439
X36.644Y-50.889
X36.644Y-69.889
X36.644Y-88.889
X42.719Y-43.889
X42.719Y-62.889
X42.719Y-81.889
X44.019Y-52.439
X44.019Y-71.439
X44.019Y-90.439
X44.894Y-52.439
X44.894Y-71.439
X44.894Y-90.439
X53.444Y-52.439
X53.444Y-71.439
X53.444Y-90.439
X54.319Y-52.439
X54.319Y-71.439
X54.319Y-90.439
X55.644Y-43.889
X55.644Y-62.889
X55.644Y-81.889
X61.719Y-31.389
X61.719Y-50.389
X61.719Y-69.389
X63.019Y-39.939
X63.019Y-58.939
X63.019Y-77.939
X63.894Y-39.939
X63.894Y-58.939
X63.894Y-77.939
X72.444Y-39.939
X72.444Y-58.939
X72.444Y-77.939
X73.319Y-39.939
X73.319Y-58.939
X73.319Y-77.939
X74.644Y-31.389
X74.644Y-50.389
X74.644Y-69.389
X80.719Y-26.389
X80.719Y-45.389
X80.719Y-64.389
X82.019Y-34.939
X82.019Y-53.939
X82.019Y-72.939
X82.894Y-34.939
X82.894Y-53.939
X82.894Y-72.939
X91.444Y-34.939
X91.444Y-53.939
X91.444Y-72.939
X92.319Y-34.939
X92.319Y-53.939
X92.319Y-72.939
X93.644Y-26.389
X93.644Y-45.389
X93.644Y-64.389
X99.719Y-31.389
X99.719Y-50.389
X99.719Y-69.389
X101.019Y-39.939
X101.019Y-58.939
X101.019Y-77.939
X101.894Y-39.939
X101.894Y-58.939
X101.894Y-77.939
X110.444Y-39.939
X110.444Y-58.939
X110.444Y-77.939
X111.319Y-39.939
X111.319Y-58.939
X111.319Y-77.939
X112.644Y-31.389
X112.644Y-50.389
X112.644Y-69.389
X118.719Y-33.889
X118.719Y-52.889
X118.719Y-71.889
X119.693Y-102.38
X119.872Y-93.733
X120.019Y-42.439
X120.019Y-61.439
X120.019Y-80.439
X120.555Y-102.529
X120.894Y-42.439
X120.894Y-61.439
X120.894Y-80.439
X128.98Y-103.989
X129.444Y-42.439
X129.444Y-61.439
X129.444Y-80.439
X129.842Y-104.138
X130.319Y-42.439
X130.319Y-61.439
X130.319Y-80.439
X131.644Y-33.889
X131.644Y-52.889
X131.644Y-71.889
X132.607Y-95.94
X138.732Y-106.455
X139.557Y-106.746
X140.35Y-97.96
X147.62Y-109.59
X148.445Y-109.881
X152.539Y-102.259
X156.831Y-113.653
X157.596Y-114.077
X159.843Y-105.546
X165.071Y-118.227
X165.837Y-118.651
X171.144Y-111.818
T3
X128.0Y-83.689
T4
X141.589Y-65.709
X144.129Y-65.709
X146.669Y-65.709
X149.209Y-65.709
T5
X137.798Y-58.679
X137.799Y-28.199
X137.799Y-30.739
X137.799Y-33.279
X137.799Y-35.819
X137.799Y-38.359
X137.799Y-40.899
X137.799Y-43.439
X137.799Y-45.979
X137.799Y-48.519
X137.799Y-51.059
X137.799Y-53.599
X137.799Y-56.139
X140.339Y-56.139
X140.339Y-58.679
X142.879Y-58.679
X145.419Y-58.679
X147.959Y-58.679
X150.499Y-58.679
X153.039Y-28.199
X153.039Y-30.739
X153.039Y-33.279
X153.039Y-35.819
X153.039Y-38.359
X153.039Y-40.899
X153.039Y-43.439
X153.039Y-45.979
X153.039Y-48.519
X153.039Y-51.059
X153.039Y-53.599
X153.039Y-56.139
X153.039Y-58.679
T6
X22.4Y-61.2
T4
X144.119Y-71.189G85X143.619Y-71.189
G05
X144.119Y-79.589G85X143.619Y-79.589
G05
X145.619Y-75.389G85X145.119Y-75.389
G05
X149.619Y-75.389G85X149.119Y-75.389
G05
X152.619Y-75.389G85X152.119Y-75.389
G05
M30
