%TF.GenerationSoftware,KiCad,Pcbnew,8.0.1*%
%TF.CreationDate,2024-07-06T22:27:56+02:00*%
%TF.ProjectId,cornia,636f726e-6961-42e6-9b69-6361645f7063,rev?*%
%TF.SameCoordinates,Original*%
%TF.FileFunction,Drillmap*%
%TF.FilePolarity,Positive*%
%FSLAX45Y45*%
G04 Gerber Fmt 4.5, Leading zero omitted, Abs format (unit mm)*
G04 Created by KiCad (PCBNEW 8.0.1) date 2024-07-06 22:27:56*
%MOMM*%
%LPD*%
G01*
G04 APERTURE LIST*
%ADD10C,0.050000*%
%ADD11C,0.100000*%
%ADD12C,0.200000*%
%ADD13C,0.120000*%
%ADD14C,0.190000*%
%ADD15C,0.220000*%
%ADD16C,0.300000*%
%ADD17C,0.410000*%
G04 APERTURE END LIST*
D10*
X5800000Y-3660000D02*
X5800000Y-2818875D01*
X6091860Y-9400000D02*
G75*
G02*
X5891860Y-9600000I-200000J0D01*
G01*
X4060000Y-9800000D02*
G75*
G02*
X4260000Y-9600000I200000J0D01*
G01*
X17691860Y-10668875D02*
G75*
G02*
X17766854Y-10943872I-100000J-174995D01*
G01*
X7760000Y-2418875D02*
G75*
G02*
X7560000Y-2618880I-200000J-5D01*
G01*
X9520000Y-2160000D02*
G75*
G02*
X9720000Y-2360000I0J-200000D01*
G01*
X13291860Y-11118875D02*
X15016860Y-11718875D01*
X3860000Y-4360000D02*
G75*
G02*
X3660000Y-4560000I-200000J0D01*
G01*
X4060000Y-9960000D02*
G75*
G02*
X3860000Y-10160000I-200000J0D01*
G01*
X7760000Y-2360000D02*
X7760000Y-2418875D01*
X4060000Y-9960000D02*
X4060000Y-9800000D01*
X15841860Y-2818875D02*
X15841860Y-9529375D01*
X3860000Y-4060000D02*
X3860000Y-4360000D01*
X1866860Y-4760000D02*
G75*
G02*
X2066860Y-4560000I200000J0D01*
G01*
X4260000Y-9600000D02*
X5891860Y-9600000D01*
X7560000Y-2618875D02*
X6000000Y-2618875D01*
X15641860Y-2618875D02*
G75*
G02*
X15841855Y-2818875I0J-199995D01*
G01*
X3860000Y-4060000D02*
G75*
G02*
X4060000Y-3860000I200000J0D01*
G01*
X5600000Y-3860000D02*
X4060000Y-3860000D01*
X6091860Y-8843875D02*
G75*
G02*
X6291860Y-8643875I200000J0D01*
G01*
X17766860Y-10943875D02*
X16891860Y-12518875D01*
X6091860Y-9400000D02*
X6091860Y-8843875D01*
X5800000Y-3660000D02*
G75*
G02*
X5600000Y-3860000I-200000J0D01*
G01*
X2066860Y-10160000D02*
G75*
G02*
X1866860Y-9960000I0J200000D01*
G01*
X11951092Y-10878975D02*
X13291860Y-11118875D01*
X11091860Y-8643875D02*
G75*
G02*
X11291855Y-8843875I0J-199995D01*
G01*
X9920000Y-2618875D02*
G75*
G02*
X9720005Y-2418875I0J199995D01*
G01*
X1866860Y-4760000D02*
X1866860Y-9960000D01*
X15930920Y-9695785D02*
X17691860Y-10668875D01*
X11291860Y-10091330D02*
X11291860Y-8843875D01*
X3660000Y-4560000D02*
X2066860Y-4560000D01*
X15930920Y-9695785D02*
G75*
G02*
X15841860Y-9529375I110930J166405D01*
G01*
X5800000Y-2818875D02*
G75*
G02*
X6000000Y-2618875I200000J0D01*
G01*
X3860000Y-10160000D02*
X2066860Y-10160000D01*
X16891860Y-12518875D02*
G75*
G02*
X16616859Y-12593877I-175000J99995D01*
G01*
X9520000Y-2160000D02*
X7960000Y-2160000D01*
X9920000Y-2618875D02*
X15641860Y-2618875D01*
X9720000Y-2360000D02*
X9720000Y-2418875D01*
X15016860Y-11718875D02*
X16616860Y-12593875D01*
X6291860Y-8643875D02*
X11091860Y-8643875D01*
X7760000Y-2360000D02*
G75*
G02*
X7960000Y-2160000I200000J0D01*
G01*
X11951076Y-10879062D02*
G75*
G02*
X11291858Y-10091330I140874J787592D01*
G01*
D11*
X2836860Y-7688875D02*
X2836860Y-7998875D01*
X2836860Y-7998875D02*
X3196860Y-7998875D01*
X3196860Y-7688875D02*
X2836860Y-7688875D01*
X3196860Y-7998875D02*
X3196860Y-7688875D01*
X15900756Y-11663377D02*
X16215527Y-11838073D01*
X16051188Y-11392324D02*
X15900756Y-11663377D01*
X16215527Y-11838073D02*
X16365960Y-11567020D01*
X16365960Y-11567020D02*
X16051188Y-11392324D01*
X4736860Y-5088875D02*
X4736860Y-5398875D01*
X4736860Y-5398875D02*
X5096860Y-5398875D01*
X5096860Y-5088875D02*
X4736860Y-5088875D01*
X5096860Y-5398875D02*
X5096860Y-5088875D01*
X10436860Y-7638875D02*
X10436860Y-7948875D01*
X10436860Y-7948875D02*
X10796860Y-7948875D01*
X10796860Y-7638875D02*
X10436860Y-7638875D01*
X10796860Y-7948875D02*
X10796860Y-7638875D01*
X8536860Y-7138875D02*
X8536860Y-7448875D01*
X8536860Y-7448875D02*
X8896860Y-7448875D01*
X8896860Y-7138875D02*
X8536860Y-7138875D01*
X8896860Y-7448875D02*
X8896860Y-7138875D01*
X12336860Y-4088875D02*
X12336860Y-4398875D01*
X12336860Y-4398875D02*
X12696860Y-4398875D01*
X12696860Y-4088875D02*
X12336860Y-4088875D01*
X12696860Y-4398875D02*
X12696860Y-4088875D01*
X12272946Y-10447895D02*
X12627660Y-10509356D01*
X12325870Y-10142446D02*
X12272946Y-10447895D01*
X12627660Y-10509356D02*
X12680585Y-10203908D01*
X12680585Y-10203908D02*
X12325870Y-10142446D01*
X6636860Y-5738875D02*
X6636860Y-6048875D01*
X6636860Y-6048875D02*
X6996860Y-6048875D01*
X6996860Y-5738875D02*
X6636860Y-5738875D01*
X6996860Y-6048875D02*
X6996860Y-5738875D01*
X8536860Y-5238875D02*
X8536860Y-5548875D01*
X8536860Y-5548875D02*
X8896860Y-5548875D01*
X8896860Y-5238875D02*
X8536860Y-5238875D01*
X8896860Y-5548875D02*
X8896860Y-5238875D01*
X12336860Y-7888875D02*
X12336860Y-8198875D01*
X12336860Y-8198875D02*
X12696860Y-8198875D01*
X12696860Y-7888875D02*
X12336860Y-7888875D01*
X12696860Y-8198875D02*
X12696860Y-7888875D01*
X14137539Y-10903118D02*
X14477036Y-11022874D01*
X14240662Y-10610773D02*
X14137539Y-10903118D01*
X14477036Y-11022874D02*
X14580159Y-10730529D01*
X14580159Y-10730529D02*
X14240662Y-10610773D01*
X6636860Y-7638875D02*
X6636860Y-7948875D01*
X6636860Y-7948875D02*
X6996860Y-7948875D01*
X6996860Y-7638875D02*
X6636860Y-7638875D01*
X6996860Y-7948875D02*
X6996860Y-7638875D01*
X6636860Y-3838875D02*
X6636860Y-4148875D01*
X6636860Y-4148875D02*
X6996860Y-4148875D01*
X6996860Y-3838875D02*
X6636860Y-3838875D01*
X6996860Y-4148875D02*
X6996860Y-3838875D01*
X10436860Y-5738875D02*
X10436860Y-6048875D01*
X10436860Y-6048875D02*
X10796860Y-6048875D01*
X10796860Y-5738875D02*
X10436860Y-5738875D01*
X10796860Y-6048875D02*
X10796860Y-5738875D01*
X10436860Y-3838875D02*
X10436860Y-4148875D01*
X10436860Y-4148875D02*
X10796860Y-4148875D01*
X10796860Y-3838875D02*
X10436860Y-3838875D01*
X10796860Y-4148875D02*
X10796860Y-3838875D01*
X12336860Y-5988875D02*
X12336860Y-6298875D01*
X12336860Y-6298875D02*
X12696860Y-6298875D01*
X12696860Y-5988875D02*
X12336860Y-5988875D01*
X12696860Y-6298875D02*
X12696860Y-5988875D01*
X2836860Y-9588875D02*
X2836860Y-9898875D01*
X2836860Y-9898875D02*
X3196860Y-9898875D01*
X3196860Y-9588875D02*
X2836860Y-9588875D01*
X3196860Y-9898875D02*
X3196860Y-9588875D01*
X4736860Y-8888875D02*
X4736860Y-9198875D01*
X4736860Y-9198875D02*
X5096860Y-9198875D01*
X5096860Y-8888875D02*
X4736860Y-8888875D01*
X5096860Y-9198875D02*
X5096860Y-8888875D01*
X4736860Y-6988875D02*
X4736860Y-7298875D01*
X4736860Y-7298875D02*
X5096860Y-7298875D01*
X5096860Y-6988875D02*
X4736860Y-6988875D01*
X5096860Y-7298875D02*
X5096860Y-6988875D01*
X2836860Y-5788875D02*
X2836860Y-6098875D01*
X2836860Y-6098875D02*
X3196860Y-6098875D01*
X3196860Y-5788875D02*
X2836860Y-5788875D01*
X3196860Y-6098875D02*
X3196860Y-5788875D01*
X8536860Y-3338875D02*
X8536860Y-3648875D01*
X8536860Y-3648875D02*
X8896860Y-3648875D01*
X8896860Y-3338875D02*
X8536860Y-3338875D01*
X8896860Y-3648875D02*
X8896860Y-3338875D01*
D12*
D13*
X14856860Y-7268875D02*
X14976860Y-7388875D01*
X14976860Y-7268875D02*
X14856860Y-7388875D01*
X14856860Y-7688875D02*
X14976860Y-7808875D01*
X14976860Y-7688875D02*
X14856860Y-7808875D01*
X15556860Y-7268875D02*
X15676860Y-7388875D01*
X15676860Y-7268875D02*
X15556860Y-7388875D01*
X15556860Y-7688875D02*
X15676860Y-7808875D01*
X15676860Y-7688875D02*
X15556860Y-7808875D01*
D14*
X2603860Y-5468875D02*
G75*
G02*
X2413860Y-5468875I-95000J0D01*
G01*
X2413860Y-5468875D02*
G75*
G02*
X2603860Y-5468875I95000J0D01*
G01*
X2603860Y-7368875D02*
G75*
G02*
X2413860Y-7368875I-95000J0D01*
G01*
X2413860Y-7368875D02*
G75*
G02*
X2603860Y-7368875I95000J0D01*
G01*
X2603860Y-9268875D02*
G75*
G02*
X2413860Y-9268875I-95000J0D01*
G01*
X2413860Y-9268875D02*
G75*
G02*
X2603860Y-9268875I95000J0D01*
G01*
X3619860Y-5468875D02*
G75*
G02*
X3429860Y-5468875I-95000J0D01*
G01*
X3429860Y-5468875D02*
G75*
G02*
X3619860Y-5468875I95000J0D01*
G01*
X3619860Y-7368875D02*
G75*
G02*
X3429860Y-7368875I-95000J0D01*
G01*
X3429860Y-7368875D02*
G75*
G02*
X3619860Y-7368875I95000J0D01*
G01*
X3619860Y-9268875D02*
G75*
G02*
X3429860Y-9268875I-95000J0D01*
G01*
X3429860Y-9268875D02*
G75*
G02*
X3619860Y-9268875I95000J0D01*
G01*
X4503860Y-4768875D02*
G75*
G02*
X4313860Y-4768875I-95000J0D01*
G01*
X4313860Y-4768875D02*
G75*
G02*
X4503860Y-4768875I95000J0D01*
G01*
X4503860Y-6668875D02*
G75*
G02*
X4313860Y-6668875I-95000J0D01*
G01*
X4313860Y-6668875D02*
G75*
G02*
X4503860Y-6668875I95000J0D01*
G01*
X4503860Y-8568875D02*
G75*
G02*
X4313860Y-8568875I-95000J0D01*
G01*
X4313860Y-8568875D02*
G75*
G02*
X4503860Y-8568875I95000J0D01*
G01*
X5519860Y-4768875D02*
G75*
G02*
X5329860Y-4768875I-95000J0D01*
G01*
X5329860Y-4768875D02*
G75*
G02*
X5519860Y-4768875I95000J0D01*
G01*
X5519860Y-6668875D02*
G75*
G02*
X5329860Y-6668875I-95000J0D01*
G01*
X5329860Y-6668875D02*
G75*
G02*
X5519860Y-6668875I95000J0D01*
G01*
X5519860Y-8568875D02*
G75*
G02*
X5329860Y-8568875I-95000J0D01*
G01*
X5329860Y-8568875D02*
G75*
G02*
X5519860Y-8568875I95000J0D01*
G01*
X6403860Y-3518875D02*
G75*
G02*
X6213860Y-3518875I-95000J0D01*
G01*
X6213860Y-3518875D02*
G75*
G02*
X6403860Y-3518875I95000J0D01*
G01*
X6403860Y-5418875D02*
G75*
G02*
X6213860Y-5418875I-95000J0D01*
G01*
X6213860Y-5418875D02*
G75*
G02*
X6403860Y-5418875I95000J0D01*
G01*
X6403860Y-7318875D02*
G75*
G02*
X6213860Y-7318875I-95000J0D01*
G01*
X6213860Y-7318875D02*
G75*
G02*
X6403860Y-7318875I95000J0D01*
G01*
X7419860Y-3518875D02*
G75*
G02*
X7229860Y-3518875I-95000J0D01*
G01*
X7229860Y-3518875D02*
G75*
G02*
X7419860Y-3518875I95000J0D01*
G01*
X7419860Y-5418875D02*
G75*
G02*
X7229860Y-5418875I-95000J0D01*
G01*
X7229860Y-5418875D02*
G75*
G02*
X7419860Y-5418875I95000J0D01*
G01*
X7419860Y-7318875D02*
G75*
G02*
X7229860Y-7318875I-95000J0D01*
G01*
X7229860Y-7318875D02*
G75*
G02*
X7419860Y-7318875I95000J0D01*
G01*
X8303860Y-3018875D02*
G75*
G02*
X8113860Y-3018875I-95000J0D01*
G01*
X8113860Y-3018875D02*
G75*
G02*
X8303860Y-3018875I95000J0D01*
G01*
X8303860Y-4918875D02*
G75*
G02*
X8113860Y-4918875I-95000J0D01*
G01*
X8113860Y-4918875D02*
G75*
G02*
X8303860Y-4918875I95000J0D01*
G01*
X8303860Y-6818875D02*
G75*
G02*
X8113860Y-6818875I-95000J0D01*
G01*
X8113860Y-6818875D02*
G75*
G02*
X8303860Y-6818875I95000J0D01*
G01*
X9319860Y-3018875D02*
G75*
G02*
X9129860Y-3018875I-95000J0D01*
G01*
X9129860Y-3018875D02*
G75*
G02*
X9319860Y-3018875I95000J0D01*
G01*
X9319860Y-4918875D02*
G75*
G02*
X9129860Y-4918875I-95000J0D01*
G01*
X9129860Y-4918875D02*
G75*
G02*
X9319860Y-4918875I95000J0D01*
G01*
X9319860Y-6818875D02*
G75*
G02*
X9129860Y-6818875I-95000J0D01*
G01*
X9129860Y-6818875D02*
G75*
G02*
X9319860Y-6818875I95000J0D01*
G01*
X10203860Y-3518875D02*
G75*
G02*
X10013860Y-3518875I-95000J0D01*
G01*
X10013860Y-3518875D02*
G75*
G02*
X10203860Y-3518875I95000J0D01*
G01*
X10203860Y-5418875D02*
G75*
G02*
X10013860Y-5418875I-95000J0D01*
G01*
X10013860Y-5418875D02*
G75*
G02*
X10203860Y-5418875I95000J0D01*
G01*
X10203860Y-7318875D02*
G75*
G02*
X10013860Y-7318875I-95000J0D01*
G01*
X10013860Y-7318875D02*
G75*
G02*
X10203860Y-7318875I95000J0D01*
G01*
X11219860Y-3518875D02*
G75*
G02*
X11029860Y-3518875I-95000J0D01*
G01*
X11029860Y-3518875D02*
G75*
G02*
X11219860Y-3518875I95000J0D01*
G01*
X11219860Y-5418875D02*
G75*
G02*
X11029860Y-5418875I-95000J0D01*
G01*
X11029860Y-5418875D02*
G75*
G02*
X11219860Y-5418875I95000J0D01*
G01*
X11219860Y-7318875D02*
G75*
G02*
X11029860Y-7318875I-95000J0D01*
G01*
X11029860Y-7318875D02*
G75*
G02*
X11219860Y-7318875I95000J0D01*
G01*
X12103860Y-3768875D02*
G75*
G02*
X11913860Y-3768875I-95000J0D01*
G01*
X11913860Y-3768875D02*
G75*
G02*
X12103860Y-3768875I95000J0D01*
G01*
X12103860Y-5668875D02*
G75*
G02*
X11913860Y-5668875I-95000J0D01*
G01*
X11913860Y-5668875D02*
G75*
G02*
X12103860Y-5668875I95000J0D01*
G01*
X12103860Y-7568875D02*
G75*
G02*
X11913860Y-7568875I-95000J0D01*
G01*
X11913860Y-7568875D02*
G75*
G02*
X12103860Y-7568875I95000J0D01*
G01*
X12152317Y-9771155D02*
G75*
G02*
X11962317Y-9771155I-95000J0D01*
G01*
X11962317Y-9771155D02*
G75*
G02*
X12152317Y-9771155I95000J0D01*
G01*
X13119860Y-3768875D02*
G75*
G02*
X12929860Y-3768875I-95000J0D01*
G01*
X12929860Y-3768875D02*
G75*
G02*
X13119860Y-3768875I95000J0D01*
G01*
X13119860Y-5668875D02*
G75*
G02*
X12929860Y-5668875I-95000J0D01*
G01*
X12929860Y-5668875D02*
G75*
G02*
X13119860Y-5668875I95000J0D01*
G01*
X13119860Y-7568875D02*
G75*
G02*
X12929860Y-7568875I-95000J0D01*
G01*
X12929860Y-7568875D02*
G75*
G02*
X13119860Y-7568875I95000J0D01*
G01*
X13153403Y-9944595D02*
G75*
G02*
X12963403Y-9944595I-95000J0D01*
G01*
X12963403Y-9944595D02*
G75*
G02*
X13153403Y-9944595I95000J0D01*
G01*
X14132791Y-10199886D02*
G75*
G02*
X13942791Y-10199886I-95000J0D01*
G01*
X13942791Y-10199886D02*
G75*
G02*
X14132791Y-10199886I95000J0D01*
G01*
X15090929Y-10537864D02*
G75*
G02*
X14900929Y-10537864I-95000J0D01*
G01*
X14900929Y-10537864D02*
G75*
G02*
X15090929Y-10537864I95000J0D01*
G01*
X16014682Y-10953359D02*
G75*
G02*
X15824682Y-10953359I-95000J0D01*
G01*
X15824682Y-10953359D02*
G75*
G02*
X16014682Y-10953359I95000J0D01*
G01*
X16903038Y-11446391D02*
G75*
G02*
X16713038Y-11446391I-95000J0D01*
G01*
X16713038Y-11446391D02*
G75*
G02*
X16903038Y-11446391I95000J0D01*
G01*
D15*
X2180000Y-6310000D02*
X2180000Y-6530000D01*
X2070000Y-6420000D02*
X2290000Y-6420000D01*
X2180000Y-8230000D02*
X2180000Y-8450000D01*
X2070000Y-8340000D02*
X2290000Y-8340000D01*
X5860000Y-5610000D02*
X5860000Y-5830000D01*
X5750000Y-5720000D02*
X5970000Y-5720000D01*
X5860000Y-7530000D02*
X5860000Y-7750000D01*
X5750000Y-7640000D02*
X5970000Y-7640000D01*
X9660000Y-3890000D02*
X9660000Y-4110000D01*
X9550000Y-4000000D02*
X9770000Y-4000000D01*
X9660000Y-5770000D02*
X9660000Y-5990000D01*
X9550000Y-5880000D02*
X9770000Y-5880000D01*
X12080000Y-8590000D02*
X12080000Y-8810000D01*
X11970000Y-8700000D02*
X12190000Y-8700000D01*
X13460000Y-4590000D02*
X13460000Y-4810000D01*
X13350000Y-4700000D02*
X13570000Y-4700000D01*
X13460000Y-6510000D02*
X13460000Y-6730000D01*
X13350000Y-6620000D02*
X13570000Y-6620000D01*
X15800000Y-9890000D02*
X15800000Y-10110000D01*
X15690000Y-10000000D02*
X15910000Y-10000000D01*
D16*
X2742927Y-5319942D02*
X2742927Y-5107808D01*
X2530793Y-5107808D01*
X2530793Y-5319942D01*
X2742927Y-5319942D01*
X2742927Y-7219942D02*
X2742927Y-7007808D01*
X2530793Y-7007808D01*
X2530793Y-7219942D01*
X2742927Y-7219942D01*
X2742927Y-9119942D02*
X2742927Y-8907808D01*
X2530793Y-8907808D01*
X2530793Y-9119942D01*
X2742927Y-9119942D01*
X2868927Y-5066942D02*
X2868927Y-4854808D01*
X2656793Y-4854808D01*
X2656793Y-5066942D01*
X2868927Y-5066942D01*
X2868927Y-6966942D02*
X2868927Y-6754808D01*
X2656793Y-6754808D01*
X2656793Y-6966942D01*
X2868927Y-6966942D01*
X2868927Y-8866942D02*
X2868927Y-8654808D01*
X2656793Y-8654808D01*
X2656793Y-8866942D01*
X2868927Y-8866942D01*
X3377158Y-5064942D02*
X3377158Y-4852808D01*
X3165024Y-4852808D01*
X3165024Y-5064942D01*
X3377158Y-5064942D01*
X3377158Y-6964942D02*
X3377158Y-6752808D01*
X3165024Y-6752808D01*
X3165024Y-6964942D01*
X3377158Y-6964942D01*
X3377158Y-8864942D02*
X3377158Y-8652808D01*
X3165024Y-8652808D01*
X3165024Y-8864942D01*
X3377158Y-8864942D01*
X3503927Y-5320942D02*
X3503927Y-5108808D01*
X3291793Y-5108808D01*
X3291793Y-5320942D01*
X3503927Y-5320942D01*
X3503927Y-7220942D02*
X3503927Y-7008808D01*
X3291793Y-7008808D01*
X3291793Y-7220942D01*
X3503927Y-7220942D01*
X3503927Y-9120942D02*
X3503927Y-8908808D01*
X3291793Y-8908808D01*
X3291793Y-9120942D01*
X3503927Y-9120942D01*
X4642927Y-4619942D02*
X4642927Y-4407808D01*
X4430793Y-4407808D01*
X4430793Y-4619942D01*
X4642927Y-4619942D01*
X4642927Y-6519942D02*
X4642927Y-6307808D01*
X4430793Y-6307808D01*
X4430793Y-6519942D01*
X4642927Y-6519942D01*
X4642927Y-8419942D02*
X4642927Y-8207808D01*
X4430793Y-8207808D01*
X4430793Y-8419942D01*
X4642927Y-8419942D01*
X4768927Y-4366942D02*
X4768927Y-4154808D01*
X4556793Y-4154808D01*
X4556793Y-4366942D01*
X4768927Y-4366942D01*
X4768927Y-6266942D02*
X4768927Y-6054808D01*
X4556793Y-6054808D01*
X4556793Y-6266942D01*
X4768927Y-6266942D01*
X4768927Y-8166942D02*
X4768927Y-7954808D01*
X4556793Y-7954808D01*
X4556793Y-8166942D01*
X4768927Y-8166942D01*
X5277158Y-4364942D02*
X5277158Y-4152808D01*
X5065024Y-4152808D01*
X5065024Y-4364942D01*
X5277158Y-4364942D01*
X5277158Y-6264942D02*
X5277158Y-6052808D01*
X5065024Y-6052808D01*
X5065024Y-6264942D01*
X5277158Y-6264942D01*
X5277158Y-8164942D02*
X5277158Y-7952808D01*
X5065024Y-7952808D01*
X5065024Y-8164942D01*
X5277158Y-8164942D01*
X5403927Y-4620942D02*
X5403927Y-4408808D01*
X5191793Y-4408808D01*
X5191793Y-4620942D01*
X5403927Y-4620942D01*
X5403927Y-6520942D02*
X5403927Y-6308808D01*
X5191793Y-6308808D01*
X5191793Y-6520942D01*
X5403927Y-6520942D01*
X5403927Y-8420942D02*
X5403927Y-8208808D01*
X5191793Y-8208808D01*
X5191793Y-8420942D01*
X5403927Y-8420942D01*
X6542927Y-3369942D02*
X6542927Y-3157808D01*
X6330793Y-3157808D01*
X6330793Y-3369942D01*
X6542927Y-3369942D01*
X6542927Y-5269942D02*
X6542927Y-5057808D01*
X6330793Y-5057808D01*
X6330793Y-5269942D01*
X6542927Y-5269942D01*
X6542927Y-7169942D02*
X6542927Y-6957808D01*
X6330793Y-6957808D01*
X6330793Y-7169942D01*
X6542927Y-7169942D01*
X6668927Y-3116942D02*
X6668927Y-2904808D01*
X6456793Y-2904808D01*
X6456793Y-3116942D01*
X6668927Y-3116942D01*
X6668927Y-5016942D02*
X6668927Y-4804808D01*
X6456793Y-4804808D01*
X6456793Y-5016942D01*
X6668927Y-5016942D01*
X6668927Y-6916942D02*
X6668927Y-6704808D01*
X6456793Y-6704808D01*
X6456793Y-6916942D01*
X6668927Y-6916942D01*
X7177158Y-3114942D02*
X7177158Y-2902808D01*
X6965024Y-2902808D01*
X6965024Y-3114942D01*
X7177158Y-3114942D01*
X7177158Y-5014942D02*
X7177158Y-4802808D01*
X6965024Y-4802808D01*
X6965024Y-5014942D01*
X7177158Y-5014942D01*
X7177158Y-6914942D02*
X7177158Y-6702808D01*
X6965024Y-6702808D01*
X6965024Y-6914942D01*
X7177158Y-6914942D01*
X7303927Y-3370942D02*
X7303927Y-3158808D01*
X7091793Y-3158808D01*
X7091793Y-3370942D01*
X7303927Y-3370942D01*
X7303927Y-5270942D02*
X7303927Y-5058808D01*
X7091793Y-5058808D01*
X7091793Y-5270942D01*
X7303927Y-5270942D01*
X7303927Y-7170942D02*
X7303927Y-6958808D01*
X7091793Y-6958808D01*
X7091793Y-7170942D01*
X7303927Y-7170942D01*
X8442927Y-2869942D02*
X8442927Y-2657808D01*
X8230793Y-2657808D01*
X8230793Y-2869942D01*
X8442927Y-2869942D01*
X8442927Y-4769942D02*
X8442927Y-4557808D01*
X8230793Y-4557808D01*
X8230793Y-4769942D01*
X8442927Y-4769942D01*
X8442927Y-6669942D02*
X8442927Y-6457808D01*
X8230793Y-6457808D01*
X8230793Y-6669942D01*
X8442927Y-6669942D01*
X8568927Y-2616942D02*
X8568927Y-2404808D01*
X8356793Y-2404808D01*
X8356793Y-2616942D01*
X8568927Y-2616942D01*
X8568927Y-4516942D02*
X8568927Y-4304808D01*
X8356793Y-4304808D01*
X8356793Y-4516942D01*
X8568927Y-4516942D01*
X8568927Y-6416942D02*
X8568927Y-6204808D01*
X8356793Y-6204808D01*
X8356793Y-6416942D01*
X8568927Y-6416942D01*
X9077158Y-2614942D02*
X9077158Y-2402808D01*
X8865024Y-2402808D01*
X8865024Y-2614942D01*
X9077158Y-2614942D01*
X9077158Y-4514942D02*
X9077158Y-4302808D01*
X8865024Y-4302808D01*
X8865024Y-4514942D01*
X9077158Y-4514942D01*
X9077158Y-6414942D02*
X9077158Y-6202808D01*
X8865024Y-6202808D01*
X8865024Y-6414942D01*
X9077158Y-6414942D01*
X9203927Y-2870942D02*
X9203927Y-2658808D01*
X8991793Y-2658808D01*
X8991793Y-2870942D01*
X9203927Y-2870942D01*
X9203927Y-4770942D02*
X9203927Y-4558808D01*
X8991793Y-4558808D01*
X8991793Y-4770942D01*
X9203927Y-4770942D01*
X9203927Y-6670942D02*
X9203927Y-6458808D01*
X8991793Y-6458808D01*
X8991793Y-6670942D01*
X9203927Y-6670942D01*
X10342927Y-3369942D02*
X10342927Y-3157808D01*
X10130793Y-3157808D01*
X10130793Y-3369942D01*
X10342927Y-3369942D01*
X10342927Y-5269942D02*
X10342927Y-5057808D01*
X10130793Y-5057808D01*
X10130793Y-5269942D01*
X10342927Y-5269942D01*
X10342927Y-7169942D02*
X10342927Y-6957808D01*
X10130793Y-6957808D01*
X10130793Y-7169942D01*
X10342927Y-7169942D01*
X10468927Y-3116942D02*
X10468927Y-2904808D01*
X10256793Y-2904808D01*
X10256793Y-3116942D01*
X10468927Y-3116942D01*
X10468927Y-5016942D02*
X10468927Y-4804808D01*
X10256793Y-4804808D01*
X10256793Y-5016942D01*
X10468927Y-5016942D01*
X10468927Y-6916942D02*
X10468927Y-6704808D01*
X10256793Y-6704808D01*
X10256793Y-6916942D01*
X10468927Y-6916942D01*
X10977158Y-3114942D02*
X10977158Y-2902808D01*
X10765024Y-2902808D01*
X10765024Y-3114942D01*
X10977158Y-3114942D01*
X10977158Y-5014942D02*
X10977158Y-4802808D01*
X10765024Y-4802808D01*
X10765024Y-5014942D01*
X10977158Y-5014942D01*
X10977158Y-6914942D02*
X10977158Y-6702808D01*
X10765024Y-6702808D01*
X10765024Y-6914942D01*
X10977158Y-6914942D01*
X11103927Y-3370942D02*
X11103927Y-3158808D01*
X10891793Y-3158808D01*
X10891793Y-3370942D01*
X11103927Y-3370942D01*
X11103927Y-5270942D02*
X11103927Y-5058808D01*
X10891793Y-5058808D01*
X10891793Y-5270942D01*
X11103927Y-5270942D01*
X11103927Y-7170942D02*
X11103927Y-6958808D01*
X10891793Y-6958808D01*
X10891793Y-7170942D01*
X11103927Y-7170942D01*
X12242927Y-3619942D02*
X12242927Y-3407808D01*
X12030793Y-3407808D01*
X12030793Y-3619942D01*
X12242927Y-3619942D01*
X12242927Y-5519942D02*
X12242927Y-5307808D01*
X12030793Y-5307808D01*
X12030793Y-5519942D01*
X12242927Y-5519942D01*
X12242927Y-7419942D02*
X12242927Y-7207808D01*
X12030793Y-7207808D01*
X12030793Y-7419942D01*
X12242927Y-7419942D01*
X12333035Y-9647816D02*
X12333035Y-9435682D01*
X12120901Y-9435682D01*
X12120901Y-9647816D01*
X12333035Y-9647816D01*
X12368927Y-3366942D02*
X12368927Y-3154808D01*
X12156793Y-3154808D01*
X12156793Y-3366942D01*
X12368927Y-3366942D01*
X12368927Y-5266942D02*
X12368927Y-5054808D01*
X12156793Y-5054808D01*
X12156793Y-5266942D01*
X12368927Y-5266942D01*
X12368927Y-7166942D02*
X12368927Y-6954808D01*
X12156793Y-6954808D01*
X12156793Y-7166942D01*
X12368927Y-7166942D01*
X12500375Y-9420039D02*
X12500375Y-9207905D01*
X12288241Y-9207905D01*
X12288241Y-9420039D01*
X12500375Y-9420039D01*
X12877158Y-3364942D02*
X12877158Y-3152808D01*
X12665024Y-3152808D01*
X12665024Y-3364942D01*
X12877158Y-3364942D01*
X12877158Y-5264942D02*
X12877158Y-5052808D01*
X12665024Y-5052808D01*
X12665024Y-5264942D01*
X12877158Y-5264942D01*
X12877158Y-7164942D02*
X12877158Y-6952808D01*
X12665024Y-6952808D01*
X12665024Y-7164942D01*
X12877158Y-7164942D01*
X13001488Y-9504827D02*
X13001488Y-9292693D01*
X12789354Y-9292693D01*
X12789354Y-9504827D01*
X13001488Y-9504827D01*
X13003927Y-3620942D02*
X13003927Y-3408808D01*
X12791793Y-3408808D01*
X12791793Y-3620942D01*
X13003927Y-3620942D01*
X13003927Y-5520942D02*
X13003927Y-5308808D01*
X12791793Y-5308808D01*
X12791793Y-5520942D01*
X13003927Y-5520942D01*
X13003927Y-7420942D02*
X13003927Y-7208808D01*
X12791793Y-7208808D01*
X12791793Y-7420942D01*
X13003927Y-7420942D01*
X13082694Y-9778710D02*
X13082694Y-9566576D01*
X12870560Y-9566576D01*
X12870560Y-9778710D01*
X13082694Y-9778710D01*
X14349395Y-10108056D02*
X14349395Y-9895922D01*
X14137261Y-9895922D01*
X14137261Y-10108056D01*
X14349395Y-10108056D01*
X14552381Y-9911379D02*
X14552381Y-9699245D01*
X14340247Y-9699245D01*
X14340247Y-9911379D01*
X14552381Y-9911379D01*
X15032333Y-10078559D02*
X15032333Y-9866425D01*
X14820199Y-9866425D01*
X14820199Y-10078559D01*
X15032333Y-10078559D01*
X15066723Y-10362149D02*
X15066723Y-10150015D01*
X14854589Y-10150015D01*
X14854589Y-10362149D01*
X15066723Y-10362149D01*
X16261411Y-10898577D02*
X16261411Y-10686443D01*
X16049277Y-10686443D01*
X16049277Y-10898577D01*
X16261411Y-10898577D01*
X16494354Y-10738506D02*
X16494354Y-10526372D01*
X16282220Y-10526372D01*
X16282220Y-10738506D01*
X16494354Y-10738506D01*
X16926318Y-11268740D02*
X16926318Y-11056606D01*
X16714184Y-11056606D01*
X16714184Y-11268740D01*
X16926318Y-11268740D01*
X16939705Y-10983386D02*
X16939705Y-10771252D01*
X16727570Y-10771252D01*
X16727570Y-10983386D01*
X16939705Y-10983386D01*
D17*
X3016860Y-5673875D02*
X3221860Y-5468875D01*
X3016860Y-5263875D01*
X2811860Y-5468875D01*
X3016860Y-5673875D01*
X3016860Y-7573875D02*
X3221860Y-7368875D01*
X3016860Y-7163875D01*
X2811860Y-7368875D01*
X3016860Y-7573875D01*
X3016860Y-9473875D02*
X3221860Y-9268875D01*
X3016860Y-9063875D01*
X2811860Y-9268875D01*
X3016860Y-9473875D01*
X4916860Y-4973875D02*
X5121860Y-4768875D01*
X4916860Y-4563875D01*
X4711860Y-4768875D01*
X4916860Y-4973875D01*
X4916860Y-6873875D02*
X5121860Y-6668875D01*
X4916860Y-6463875D01*
X4711860Y-6668875D01*
X4916860Y-6873875D01*
X4916860Y-8773875D02*
X5121860Y-8568875D01*
X4916860Y-8363875D01*
X4711860Y-8568875D01*
X4916860Y-8773875D01*
X6816860Y-3723875D02*
X7021860Y-3518875D01*
X6816860Y-3313875D01*
X6611860Y-3518875D01*
X6816860Y-3723875D01*
X6816860Y-5623875D02*
X7021860Y-5418875D01*
X6816860Y-5213875D01*
X6611860Y-5418875D01*
X6816860Y-5623875D01*
X6816860Y-7523875D02*
X7021860Y-7318875D01*
X6816860Y-7113875D01*
X6611860Y-7318875D01*
X6816860Y-7523875D01*
X8716860Y-3223875D02*
X8921860Y-3018875D01*
X8716860Y-2813875D01*
X8511860Y-3018875D01*
X8716860Y-3223875D01*
X8716860Y-5123875D02*
X8921860Y-4918875D01*
X8716860Y-4713875D01*
X8511860Y-4918875D01*
X8716860Y-5123875D01*
X8716860Y-7023875D02*
X8921860Y-6818875D01*
X8716860Y-6613875D01*
X8511860Y-6818875D01*
X8716860Y-7023875D01*
X10616860Y-3723875D02*
X10821860Y-3518875D01*
X10616860Y-3313875D01*
X10411860Y-3518875D01*
X10616860Y-3723875D01*
X10616860Y-5623875D02*
X10821860Y-5418875D01*
X10616860Y-5213875D01*
X10411860Y-5418875D01*
X10616860Y-5623875D01*
X10616860Y-7523875D02*
X10821860Y-7318875D01*
X10616860Y-7113875D01*
X10411860Y-7318875D01*
X10616860Y-7523875D01*
X12516860Y-3973875D02*
X12721860Y-3768875D01*
X12516860Y-3563875D01*
X12311860Y-3768875D01*
X12516860Y-3973875D01*
X12516860Y-5873875D02*
X12721860Y-5668875D01*
X12516860Y-5463875D01*
X12311860Y-5668875D01*
X12516860Y-5873875D01*
X12516860Y-7773875D02*
X12721860Y-7568875D01*
X12516860Y-7363875D01*
X12311860Y-7568875D01*
X12516860Y-7773875D01*
X12557860Y-10062875D02*
X12762860Y-9857875D01*
X12557860Y-9652875D01*
X12352860Y-9857875D01*
X12557860Y-10062875D01*
X14516860Y-10573875D02*
X14721860Y-10368875D01*
X14516860Y-10163875D01*
X14311860Y-10368875D01*
X14516860Y-10573875D01*
X16363860Y-11404875D02*
X16568860Y-11199875D01*
X16363860Y-10994875D01*
X16158860Y-11199875D01*
X16363860Y-11404875D01*
D12*
X2125137Y-12934418D02*
X2125137Y-12734418D01*
X2125137Y-12734418D02*
X2172756Y-12734418D01*
X2172756Y-12734418D02*
X2201327Y-12743942D01*
X2201327Y-12743942D02*
X2220375Y-12762989D01*
X2220375Y-12762989D02*
X2229899Y-12782037D01*
X2229899Y-12782037D02*
X2239423Y-12820132D01*
X2239423Y-12820132D02*
X2239423Y-12848703D01*
X2239423Y-12848703D02*
X2229899Y-12886799D01*
X2229899Y-12886799D02*
X2220375Y-12905846D01*
X2220375Y-12905846D02*
X2201327Y-12924894D01*
X2201327Y-12924894D02*
X2172756Y-12934418D01*
X2172756Y-12934418D02*
X2125137Y-12934418D01*
X2325137Y-12934418D02*
X2325137Y-12801084D01*
X2325137Y-12839180D02*
X2334661Y-12820132D01*
X2334661Y-12820132D02*
X2344184Y-12810608D01*
X2344184Y-12810608D02*
X2363232Y-12801084D01*
X2363232Y-12801084D02*
X2382280Y-12801084D01*
X2448946Y-12934418D02*
X2448946Y-12801084D01*
X2448946Y-12734418D02*
X2439423Y-12743942D01*
X2439423Y-12743942D02*
X2448946Y-12753465D01*
X2448946Y-12753465D02*
X2458470Y-12743942D01*
X2458470Y-12743942D02*
X2448946Y-12734418D01*
X2448946Y-12734418D02*
X2448946Y-12753465D01*
X2572756Y-12934418D02*
X2553708Y-12924894D01*
X2553708Y-12924894D02*
X2544184Y-12905846D01*
X2544184Y-12905846D02*
X2544184Y-12734418D01*
X2677518Y-12934418D02*
X2658470Y-12924894D01*
X2658470Y-12924894D02*
X2648946Y-12905846D01*
X2648946Y-12905846D02*
X2648946Y-12734418D01*
X2906089Y-12934418D02*
X2906089Y-12734418D01*
X2906089Y-12734418D02*
X2972756Y-12877275D01*
X2972756Y-12877275D02*
X3039422Y-12734418D01*
X3039422Y-12734418D02*
X3039422Y-12934418D01*
X3220375Y-12934418D02*
X3220375Y-12829656D01*
X3220375Y-12829656D02*
X3210851Y-12810608D01*
X3210851Y-12810608D02*
X3191803Y-12801084D01*
X3191803Y-12801084D02*
X3153708Y-12801084D01*
X3153708Y-12801084D02*
X3134661Y-12810608D01*
X3220375Y-12924894D02*
X3201327Y-12934418D01*
X3201327Y-12934418D02*
X3153708Y-12934418D01*
X3153708Y-12934418D02*
X3134661Y-12924894D01*
X3134661Y-12924894D02*
X3125137Y-12905846D01*
X3125137Y-12905846D02*
X3125137Y-12886799D01*
X3125137Y-12886799D02*
X3134661Y-12867751D01*
X3134661Y-12867751D02*
X3153708Y-12858227D01*
X3153708Y-12858227D02*
X3201327Y-12858227D01*
X3201327Y-12858227D02*
X3220375Y-12848703D01*
X3315613Y-12801084D02*
X3315613Y-13001084D01*
X3315613Y-12810608D02*
X3334661Y-12801084D01*
X3334661Y-12801084D02*
X3372756Y-12801084D01*
X3372756Y-12801084D02*
X3391803Y-12810608D01*
X3391803Y-12810608D02*
X3401327Y-12820132D01*
X3401327Y-12820132D02*
X3410851Y-12839180D01*
X3410851Y-12839180D02*
X3410851Y-12896322D01*
X3410851Y-12896322D02*
X3401327Y-12915370D01*
X3401327Y-12915370D02*
X3391803Y-12924894D01*
X3391803Y-12924894D02*
X3372756Y-12934418D01*
X3372756Y-12934418D02*
X3334661Y-12934418D01*
X3334661Y-12934418D02*
X3315613Y-12924894D01*
X3496565Y-12915370D02*
X3506089Y-12924894D01*
X3506089Y-12924894D02*
X3496565Y-12934418D01*
X3496565Y-12934418D02*
X3487042Y-12924894D01*
X3487042Y-12924894D02*
X3496565Y-12915370D01*
X3496565Y-12915370D02*
X3496565Y-12934418D01*
X3496565Y-12810608D02*
X3506089Y-12820132D01*
X3506089Y-12820132D02*
X3496565Y-12829656D01*
X3496565Y-12829656D02*
X3487042Y-12820132D01*
X3487042Y-12820132D02*
X3496565Y-12810608D01*
X3496565Y-12810608D02*
X3496565Y-12829656D01*
D13*
X1744360Y-13202934D02*
X1864360Y-13322934D01*
X1864360Y-13202934D02*
X1744360Y-13322934D01*
D12*
X2229899Y-13354418D02*
X2115613Y-13354418D01*
X2172756Y-13354418D02*
X2172756Y-13154418D01*
X2172756Y-13154418D02*
X2153708Y-13182989D01*
X2153708Y-13182989D02*
X2134661Y-13202037D01*
X2134661Y-13202037D02*
X2115613Y-13211561D01*
X2315613Y-13335370D02*
X2325137Y-13344894D01*
X2325137Y-13344894D02*
X2315613Y-13354418D01*
X2315613Y-13354418D02*
X2306089Y-13344894D01*
X2306089Y-13344894D02*
X2315613Y-13335370D01*
X2315613Y-13335370D02*
X2315613Y-13354418D01*
X2401327Y-13173465D02*
X2410851Y-13163942D01*
X2410851Y-13163942D02*
X2429899Y-13154418D01*
X2429899Y-13154418D02*
X2477518Y-13154418D01*
X2477518Y-13154418D02*
X2496565Y-13163942D01*
X2496565Y-13163942D02*
X2506089Y-13173465D01*
X2506089Y-13173465D02*
X2515613Y-13192513D01*
X2515613Y-13192513D02*
X2515613Y-13211561D01*
X2515613Y-13211561D02*
X2506089Y-13240132D01*
X2506089Y-13240132D02*
X2391804Y-13354418D01*
X2391804Y-13354418D02*
X2515613Y-13354418D01*
X2639423Y-13154418D02*
X2658470Y-13154418D01*
X2658470Y-13154418D02*
X2677518Y-13163942D01*
X2677518Y-13163942D02*
X2687042Y-13173465D01*
X2687042Y-13173465D02*
X2696565Y-13192513D01*
X2696565Y-13192513D02*
X2706089Y-13230608D01*
X2706089Y-13230608D02*
X2706089Y-13278227D01*
X2706089Y-13278227D02*
X2696565Y-13316322D01*
X2696565Y-13316322D02*
X2687042Y-13335370D01*
X2687042Y-13335370D02*
X2677518Y-13344894D01*
X2677518Y-13344894D02*
X2658470Y-13354418D01*
X2658470Y-13354418D02*
X2639423Y-13354418D01*
X2639423Y-13354418D02*
X2620375Y-13344894D01*
X2620375Y-13344894D02*
X2610851Y-13335370D01*
X2610851Y-13335370D02*
X2601327Y-13316322D01*
X2601327Y-13316322D02*
X2591804Y-13278227D01*
X2591804Y-13278227D02*
X2591804Y-13230608D01*
X2591804Y-13230608D02*
X2601327Y-13192513D01*
X2601327Y-13192513D02*
X2610851Y-13173465D01*
X2610851Y-13173465D02*
X2620375Y-13163942D01*
X2620375Y-13163942D02*
X2639423Y-13154418D01*
X2829899Y-13154418D02*
X2848946Y-13154418D01*
X2848946Y-13154418D02*
X2867994Y-13163942D01*
X2867994Y-13163942D02*
X2877518Y-13173465D01*
X2877518Y-13173465D02*
X2887042Y-13192513D01*
X2887042Y-13192513D02*
X2896565Y-13230608D01*
X2896565Y-13230608D02*
X2896565Y-13278227D01*
X2896565Y-13278227D02*
X2887042Y-13316322D01*
X2887042Y-13316322D02*
X2877518Y-13335370D01*
X2877518Y-13335370D02*
X2867994Y-13344894D01*
X2867994Y-13344894D02*
X2848946Y-13354418D01*
X2848946Y-13354418D02*
X2829899Y-13354418D01*
X2829899Y-13354418D02*
X2810851Y-13344894D01*
X2810851Y-13344894D02*
X2801327Y-13335370D01*
X2801327Y-13335370D02*
X2791804Y-13316322D01*
X2791804Y-13316322D02*
X2782280Y-13278227D01*
X2782280Y-13278227D02*
X2782280Y-13230608D01*
X2782280Y-13230608D02*
X2791804Y-13192513D01*
X2791804Y-13192513D02*
X2801327Y-13173465D01*
X2801327Y-13173465D02*
X2810851Y-13163942D01*
X2810851Y-13163942D02*
X2829899Y-13154418D01*
X2982280Y-13354418D02*
X2982280Y-13221084D01*
X2982280Y-13240132D02*
X2991803Y-13230608D01*
X2991803Y-13230608D02*
X3010851Y-13221084D01*
X3010851Y-13221084D02*
X3039423Y-13221084D01*
X3039423Y-13221084D02*
X3058470Y-13230608D01*
X3058470Y-13230608D02*
X3067994Y-13249656D01*
X3067994Y-13249656D02*
X3067994Y-13354418D01*
X3067994Y-13249656D02*
X3077518Y-13230608D01*
X3077518Y-13230608D02*
X3096565Y-13221084D01*
X3096565Y-13221084D02*
X3125137Y-13221084D01*
X3125137Y-13221084D02*
X3144184Y-13230608D01*
X3144184Y-13230608D02*
X3153708Y-13249656D01*
X3153708Y-13249656D02*
X3153708Y-13354418D01*
X3248946Y-13354418D02*
X3248946Y-13221084D01*
X3248946Y-13240132D02*
X3258470Y-13230608D01*
X3258470Y-13230608D02*
X3277518Y-13221084D01*
X3277518Y-13221084D02*
X3306089Y-13221084D01*
X3306089Y-13221084D02*
X3325137Y-13230608D01*
X3325137Y-13230608D02*
X3334661Y-13249656D01*
X3334661Y-13249656D02*
X3334661Y-13354418D01*
X3334661Y-13249656D02*
X3344184Y-13230608D01*
X3344184Y-13230608D02*
X3363232Y-13221084D01*
X3363232Y-13221084D02*
X3391803Y-13221084D01*
X3391803Y-13221084D02*
X3410851Y-13230608D01*
X3410851Y-13230608D02*
X3420375Y-13249656D01*
X3420375Y-13249656D02*
X3420375Y-13354418D01*
X3810851Y-13144894D02*
X3639423Y-13402037D01*
X4067994Y-13154418D02*
X4087042Y-13154418D01*
X4087042Y-13154418D02*
X4106089Y-13163942D01*
X4106089Y-13163942D02*
X4115613Y-13173465D01*
X4115613Y-13173465D02*
X4125137Y-13192513D01*
X4125137Y-13192513D02*
X4134661Y-13230608D01*
X4134661Y-13230608D02*
X4134661Y-13278227D01*
X4134661Y-13278227D02*
X4125137Y-13316322D01*
X4125137Y-13316322D02*
X4115613Y-13335370D01*
X4115613Y-13335370D02*
X4106089Y-13344894D01*
X4106089Y-13344894D02*
X4087042Y-13354418D01*
X4087042Y-13354418D02*
X4067994Y-13354418D01*
X4067994Y-13354418D02*
X4048946Y-13344894D01*
X4048946Y-13344894D02*
X4039423Y-13335370D01*
X4039423Y-13335370D02*
X4029899Y-13316322D01*
X4029899Y-13316322D02*
X4020375Y-13278227D01*
X4020375Y-13278227D02*
X4020375Y-13230608D01*
X4020375Y-13230608D02*
X4029899Y-13192513D01*
X4029899Y-13192513D02*
X4039423Y-13173465D01*
X4039423Y-13173465D02*
X4048946Y-13163942D01*
X4048946Y-13163942D02*
X4067994Y-13154418D01*
X4220375Y-13335370D02*
X4229899Y-13344894D01*
X4229899Y-13344894D02*
X4220375Y-13354418D01*
X4220375Y-13354418D02*
X4210851Y-13344894D01*
X4210851Y-13344894D02*
X4220375Y-13335370D01*
X4220375Y-13335370D02*
X4220375Y-13354418D01*
X4353708Y-13154418D02*
X4372756Y-13154418D01*
X4372756Y-13154418D02*
X4391804Y-13163942D01*
X4391804Y-13163942D02*
X4401328Y-13173465D01*
X4401328Y-13173465D02*
X4410851Y-13192513D01*
X4410851Y-13192513D02*
X4420375Y-13230608D01*
X4420375Y-13230608D02*
X4420375Y-13278227D01*
X4420375Y-13278227D02*
X4410851Y-13316322D01*
X4410851Y-13316322D02*
X4401328Y-13335370D01*
X4401328Y-13335370D02*
X4391804Y-13344894D01*
X4391804Y-13344894D02*
X4372756Y-13354418D01*
X4372756Y-13354418D02*
X4353708Y-13354418D01*
X4353708Y-13354418D02*
X4334661Y-13344894D01*
X4334661Y-13344894D02*
X4325137Y-13335370D01*
X4325137Y-13335370D02*
X4315613Y-13316322D01*
X4315613Y-13316322D02*
X4306089Y-13278227D01*
X4306089Y-13278227D02*
X4306089Y-13230608D01*
X4306089Y-13230608D02*
X4315613Y-13192513D01*
X4315613Y-13192513D02*
X4325137Y-13173465D01*
X4325137Y-13173465D02*
X4334661Y-13163942D01*
X4334661Y-13163942D02*
X4353708Y-13154418D01*
X4591804Y-13221084D02*
X4591804Y-13354418D01*
X4544185Y-13144894D02*
X4496566Y-13287751D01*
X4496566Y-13287751D02*
X4620375Y-13287751D01*
X4677518Y-13154418D02*
X4810851Y-13154418D01*
X4810851Y-13154418D02*
X4725137Y-13354418D01*
X4877518Y-13173465D02*
X4887042Y-13163942D01*
X4887042Y-13163942D02*
X4906089Y-13154418D01*
X4906089Y-13154418D02*
X4953709Y-13154418D01*
X4953709Y-13154418D02*
X4972756Y-13163942D01*
X4972756Y-13163942D02*
X4982280Y-13173465D01*
X4982280Y-13173465D02*
X4991804Y-13192513D01*
X4991804Y-13192513D02*
X4991804Y-13211561D01*
X4991804Y-13211561D02*
X4982280Y-13240132D01*
X4982280Y-13240132D02*
X4867994Y-13354418D01*
X4867994Y-13354418D02*
X4991804Y-13354418D01*
X5067994Y-13154418D02*
X5067994Y-13192513D01*
X5144185Y-13154418D02*
X5144185Y-13192513D01*
X5439423Y-13430608D02*
X5429899Y-13421084D01*
X5429899Y-13421084D02*
X5410851Y-13392513D01*
X5410851Y-13392513D02*
X5401328Y-13373465D01*
X5401328Y-13373465D02*
X5391804Y-13344894D01*
X5391804Y-13344894D02*
X5382280Y-13297275D01*
X5382280Y-13297275D02*
X5382280Y-13259180D01*
X5382280Y-13259180D02*
X5391804Y-13211561D01*
X5391804Y-13211561D02*
X5401328Y-13182989D01*
X5401328Y-13182989D02*
X5410851Y-13163942D01*
X5410851Y-13163942D02*
X5429899Y-13135370D01*
X5429899Y-13135370D02*
X5439423Y-13125846D01*
X5601328Y-13221084D02*
X5601328Y-13354418D01*
X5553709Y-13144894D02*
X5506090Y-13287751D01*
X5506090Y-13287751D02*
X5629899Y-13287751D01*
X5858470Y-13354418D02*
X5858470Y-13154418D01*
X5944185Y-13354418D02*
X5944185Y-13249656D01*
X5944185Y-13249656D02*
X5934661Y-13230608D01*
X5934661Y-13230608D02*
X5915613Y-13221084D01*
X5915613Y-13221084D02*
X5887042Y-13221084D01*
X5887042Y-13221084D02*
X5867994Y-13230608D01*
X5867994Y-13230608D02*
X5858470Y-13240132D01*
X6067994Y-13354418D02*
X6048947Y-13344894D01*
X6048947Y-13344894D02*
X6039423Y-13335370D01*
X6039423Y-13335370D02*
X6029899Y-13316322D01*
X6029899Y-13316322D02*
X6029899Y-13259180D01*
X6029899Y-13259180D02*
X6039423Y-13240132D01*
X6039423Y-13240132D02*
X6048947Y-13230608D01*
X6048947Y-13230608D02*
X6067994Y-13221084D01*
X6067994Y-13221084D02*
X6096566Y-13221084D01*
X6096566Y-13221084D02*
X6115613Y-13230608D01*
X6115613Y-13230608D02*
X6125137Y-13240132D01*
X6125137Y-13240132D02*
X6134661Y-13259180D01*
X6134661Y-13259180D02*
X6134661Y-13316322D01*
X6134661Y-13316322D02*
X6125137Y-13335370D01*
X6125137Y-13335370D02*
X6115613Y-13344894D01*
X6115613Y-13344894D02*
X6096566Y-13354418D01*
X6096566Y-13354418D02*
X6067994Y-13354418D01*
X6248947Y-13354418D02*
X6229899Y-13344894D01*
X6229899Y-13344894D02*
X6220375Y-13325846D01*
X6220375Y-13325846D02*
X6220375Y-13154418D01*
X6401328Y-13344894D02*
X6382280Y-13354418D01*
X6382280Y-13354418D02*
X6344185Y-13354418D01*
X6344185Y-13354418D02*
X6325137Y-13344894D01*
X6325137Y-13344894D02*
X6315613Y-13325846D01*
X6315613Y-13325846D02*
X6315613Y-13249656D01*
X6315613Y-13249656D02*
X6325137Y-13230608D01*
X6325137Y-13230608D02*
X6344185Y-13221084D01*
X6344185Y-13221084D02*
X6382280Y-13221084D01*
X6382280Y-13221084D02*
X6401328Y-13230608D01*
X6401328Y-13230608D02*
X6410851Y-13249656D01*
X6410851Y-13249656D02*
X6410851Y-13268703D01*
X6410851Y-13268703D02*
X6315613Y-13287751D01*
X6487042Y-13344894D02*
X6506090Y-13354418D01*
X6506090Y-13354418D02*
X6544185Y-13354418D01*
X6544185Y-13354418D02*
X6563232Y-13344894D01*
X6563232Y-13344894D02*
X6572756Y-13325846D01*
X6572756Y-13325846D02*
X6572756Y-13316322D01*
X6572756Y-13316322D02*
X6563232Y-13297275D01*
X6563232Y-13297275D02*
X6544185Y-13287751D01*
X6544185Y-13287751D02*
X6515613Y-13287751D01*
X6515613Y-13287751D02*
X6496566Y-13278227D01*
X6496566Y-13278227D02*
X6487042Y-13259180D01*
X6487042Y-13259180D02*
X6487042Y-13249656D01*
X6487042Y-13249656D02*
X6496566Y-13230608D01*
X6496566Y-13230608D02*
X6515613Y-13221084D01*
X6515613Y-13221084D02*
X6544185Y-13221084D01*
X6544185Y-13221084D02*
X6563232Y-13230608D01*
X6639423Y-13430608D02*
X6648947Y-13421084D01*
X6648947Y-13421084D02*
X6667994Y-13392513D01*
X6667994Y-13392513D02*
X6677518Y-13373465D01*
X6677518Y-13373465D02*
X6687042Y-13344894D01*
X6687042Y-13344894D02*
X6696566Y-13297275D01*
X6696566Y-13297275D02*
X6696566Y-13259180D01*
X6696566Y-13259180D02*
X6687042Y-13211561D01*
X6687042Y-13211561D02*
X6677518Y-13182989D01*
X6677518Y-13182989D02*
X6667994Y-13163942D01*
X6667994Y-13163942D02*
X6648947Y-13135370D01*
X6648947Y-13135370D02*
X6639423Y-13125846D01*
X7001328Y-13430608D02*
X6991804Y-13421084D01*
X6991804Y-13421084D02*
X6972756Y-13392513D01*
X6972756Y-13392513D02*
X6963232Y-13373465D01*
X6963232Y-13373465D02*
X6953709Y-13344894D01*
X6953709Y-13344894D02*
X6944185Y-13297275D01*
X6944185Y-13297275D02*
X6944185Y-13259180D01*
X6944185Y-13259180D02*
X6953709Y-13211561D01*
X6953709Y-13211561D02*
X6963232Y-13182989D01*
X6963232Y-13182989D02*
X6972756Y-13163942D01*
X6972756Y-13163942D02*
X6991804Y-13135370D01*
X6991804Y-13135370D02*
X7001328Y-13125846D01*
X7077518Y-13221084D02*
X7077518Y-13354418D01*
X7077518Y-13240132D02*
X7087042Y-13230608D01*
X7087042Y-13230608D02*
X7106090Y-13221084D01*
X7106090Y-13221084D02*
X7134661Y-13221084D01*
X7134661Y-13221084D02*
X7153709Y-13230608D01*
X7153709Y-13230608D02*
X7163232Y-13249656D01*
X7163232Y-13249656D02*
X7163232Y-13354418D01*
X7287042Y-13354418D02*
X7267994Y-13344894D01*
X7267994Y-13344894D02*
X7258471Y-13335370D01*
X7258471Y-13335370D02*
X7248947Y-13316322D01*
X7248947Y-13316322D02*
X7248947Y-13259180D01*
X7248947Y-13259180D02*
X7258471Y-13240132D01*
X7258471Y-13240132D02*
X7267994Y-13230608D01*
X7267994Y-13230608D02*
X7287042Y-13221084D01*
X7287042Y-13221084D02*
X7315613Y-13221084D01*
X7315613Y-13221084D02*
X7334661Y-13230608D01*
X7334661Y-13230608D02*
X7344185Y-13240132D01*
X7344185Y-13240132D02*
X7353709Y-13259180D01*
X7353709Y-13259180D02*
X7353709Y-13316322D01*
X7353709Y-13316322D02*
X7344185Y-13335370D01*
X7344185Y-13335370D02*
X7334661Y-13344894D01*
X7334661Y-13344894D02*
X7315613Y-13354418D01*
X7315613Y-13354418D02*
X7287042Y-13354418D01*
X7410852Y-13221084D02*
X7487042Y-13221084D01*
X7439423Y-13154418D02*
X7439423Y-13325846D01*
X7439423Y-13325846D02*
X7448947Y-13344894D01*
X7448947Y-13344894D02*
X7467994Y-13354418D01*
X7467994Y-13354418D02*
X7487042Y-13354418D01*
X7706090Y-13221084D02*
X7706090Y-13421084D01*
X7706090Y-13230608D02*
X7725137Y-13221084D01*
X7725137Y-13221084D02*
X7763233Y-13221084D01*
X7763233Y-13221084D02*
X7782280Y-13230608D01*
X7782280Y-13230608D02*
X7791804Y-13240132D01*
X7791804Y-13240132D02*
X7801328Y-13259180D01*
X7801328Y-13259180D02*
X7801328Y-13316322D01*
X7801328Y-13316322D02*
X7791804Y-13335370D01*
X7791804Y-13335370D02*
X7782280Y-13344894D01*
X7782280Y-13344894D02*
X7763233Y-13354418D01*
X7763233Y-13354418D02*
X7725137Y-13354418D01*
X7725137Y-13354418D02*
X7706090Y-13344894D01*
X7915613Y-13354418D02*
X7896566Y-13344894D01*
X7896566Y-13344894D02*
X7887042Y-13325846D01*
X7887042Y-13325846D02*
X7887042Y-13154418D01*
X8077518Y-13354418D02*
X8077518Y-13249656D01*
X8077518Y-13249656D02*
X8067994Y-13230608D01*
X8067994Y-13230608D02*
X8048947Y-13221084D01*
X8048947Y-13221084D02*
X8010852Y-13221084D01*
X8010852Y-13221084D02*
X7991804Y-13230608D01*
X8077518Y-13344894D02*
X8058471Y-13354418D01*
X8058471Y-13354418D02*
X8010852Y-13354418D01*
X8010852Y-13354418D02*
X7991804Y-13344894D01*
X7991804Y-13344894D02*
X7982280Y-13325846D01*
X7982280Y-13325846D02*
X7982280Y-13306799D01*
X7982280Y-13306799D02*
X7991804Y-13287751D01*
X7991804Y-13287751D02*
X8010852Y-13278227D01*
X8010852Y-13278227D02*
X8058471Y-13278227D01*
X8058471Y-13278227D02*
X8077518Y-13268703D01*
X8144185Y-13221084D02*
X8220375Y-13221084D01*
X8172756Y-13154418D02*
X8172756Y-13325846D01*
X8172756Y-13325846D02*
X8182280Y-13344894D01*
X8182280Y-13344894D02*
X8201328Y-13354418D01*
X8201328Y-13354418D02*
X8220375Y-13354418D01*
X8363233Y-13344894D02*
X8344185Y-13354418D01*
X8344185Y-13354418D02*
X8306090Y-13354418D01*
X8306090Y-13354418D02*
X8287042Y-13344894D01*
X8287042Y-13344894D02*
X8277518Y-13325846D01*
X8277518Y-13325846D02*
X8277518Y-13249656D01*
X8277518Y-13249656D02*
X8287042Y-13230608D01*
X8287042Y-13230608D02*
X8306090Y-13221084D01*
X8306090Y-13221084D02*
X8344185Y-13221084D01*
X8344185Y-13221084D02*
X8363233Y-13230608D01*
X8363233Y-13230608D02*
X8372756Y-13249656D01*
X8372756Y-13249656D02*
X8372756Y-13268703D01*
X8372756Y-13268703D02*
X8277518Y-13287751D01*
X8544185Y-13354418D02*
X8544185Y-13154418D01*
X8544185Y-13344894D02*
X8525137Y-13354418D01*
X8525137Y-13354418D02*
X8487042Y-13354418D01*
X8487042Y-13354418D02*
X8467995Y-13344894D01*
X8467995Y-13344894D02*
X8458471Y-13335370D01*
X8458471Y-13335370D02*
X8448947Y-13316322D01*
X8448947Y-13316322D02*
X8448947Y-13259180D01*
X8448947Y-13259180D02*
X8458471Y-13240132D01*
X8458471Y-13240132D02*
X8467995Y-13230608D01*
X8467995Y-13230608D02*
X8487042Y-13221084D01*
X8487042Y-13221084D02*
X8525137Y-13221084D01*
X8525137Y-13221084D02*
X8544185Y-13230608D01*
X8620376Y-13430608D02*
X8629899Y-13421084D01*
X8629899Y-13421084D02*
X8648947Y-13392513D01*
X8648947Y-13392513D02*
X8658471Y-13373465D01*
X8658471Y-13373465D02*
X8667995Y-13344894D01*
X8667995Y-13344894D02*
X8677518Y-13297275D01*
X8677518Y-13297275D02*
X8677518Y-13259180D01*
X8677518Y-13259180D02*
X8667995Y-13211561D01*
X8667995Y-13211561D02*
X8658471Y-13182989D01*
X8658471Y-13182989D02*
X8648947Y-13163942D01*
X8648947Y-13163942D02*
X8629899Y-13135370D01*
X8629899Y-13135370D02*
X8620376Y-13125846D01*
D14*
X1864360Y-13526934D02*
G75*
G02*
X1674360Y-13526934I-95000J0D01*
G01*
X1674360Y-13526934D02*
G75*
G02*
X1864360Y-13526934I95000J0D01*
G01*
D12*
X2229899Y-13618418D02*
X2115613Y-13618418D01*
X2172756Y-13618418D02*
X2172756Y-13418418D01*
X2172756Y-13418418D02*
X2153708Y-13446989D01*
X2153708Y-13446989D02*
X2134661Y-13466037D01*
X2134661Y-13466037D02*
X2115613Y-13475561D01*
X2315613Y-13599370D02*
X2325137Y-13608894D01*
X2325137Y-13608894D02*
X2315613Y-13618418D01*
X2315613Y-13618418D02*
X2306089Y-13608894D01*
X2306089Y-13608894D02*
X2315613Y-13599370D01*
X2315613Y-13599370D02*
X2315613Y-13618418D01*
X2420375Y-13618418D02*
X2458470Y-13618418D01*
X2458470Y-13618418D02*
X2477518Y-13608894D01*
X2477518Y-13608894D02*
X2487042Y-13599370D01*
X2487042Y-13599370D02*
X2506089Y-13570799D01*
X2506089Y-13570799D02*
X2515613Y-13532703D01*
X2515613Y-13532703D02*
X2515613Y-13456513D01*
X2515613Y-13456513D02*
X2506089Y-13437465D01*
X2506089Y-13437465D02*
X2496565Y-13427942D01*
X2496565Y-13427942D02*
X2477518Y-13418418D01*
X2477518Y-13418418D02*
X2439423Y-13418418D01*
X2439423Y-13418418D02*
X2420375Y-13427942D01*
X2420375Y-13427942D02*
X2410851Y-13437465D01*
X2410851Y-13437465D02*
X2401327Y-13456513D01*
X2401327Y-13456513D02*
X2401327Y-13504132D01*
X2401327Y-13504132D02*
X2410851Y-13523180D01*
X2410851Y-13523180D02*
X2420375Y-13532703D01*
X2420375Y-13532703D02*
X2439423Y-13542227D01*
X2439423Y-13542227D02*
X2477518Y-13542227D01*
X2477518Y-13542227D02*
X2496565Y-13532703D01*
X2496565Y-13532703D02*
X2506089Y-13523180D01*
X2506089Y-13523180D02*
X2515613Y-13504132D01*
X2639423Y-13418418D02*
X2658470Y-13418418D01*
X2658470Y-13418418D02*
X2677518Y-13427942D01*
X2677518Y-13427942D02*
X2687042Y-13437465D01*
X2687042Y-13437465D02*
X2696565Y-13456513D01*
X2696565Y-13456513D02*
X2706089Y-13494608D01*
X2706089Y-13494608D02*
X2706089Y-13542227D01*
X2706089Y-13542227D02*
X2696565Y-13580322D01*
X2696565Y-13580322D02*
X2687042Y-13599370D01*
X2687042Y-13599370D02*
X2677518Y-13608894D01*
X2677518Y-13608894D02*
X2658470Y-13618418D01*
X2658470Y-13618418D02*
X2639423Y-13618418D01*
X2639423Y-13618418D02*
X2620375Y-13608894D01*
X2620375Y-13608894D02*
X2610851Y-13599370D01*
X2610851Y-13599370D02*
X2601327Y-13580322D01*
X2601327Y-13580322D02*
X2591804Y-13542227D01*
X2591804Y-13542227D02*
X2591804Y-13494608D01*
X2591804Y-13494608D02*
X2601327Y-13456513D01*
X2601327Y-13456513D02*
X2610851Y-13437465D01*
X2610851Y-13437465D02*
X2620375Y-13427942D01*
X2620375Y-13427942D02*
X2639423Y-13418418D01*
X2829899Y-13418418D02*
X2848946Y-13418418D01*
X2848946Y-13418418D02*
X2867994Y-13427942D01*
X2867994Y-13427942D02*
X2877518Y-13437465D01*
X2877518Y-13437465D02*
X2887042Y-13456513D01*
X2887042Y-13456513D02*
X2896565Y-13494608D01*
X2896565Y-13494608D02*
X2896565Y-13542227D01*
X2896565Y-13542227D02*
X2887042Y-13580322D01*
X2887042Y-13580322D02*
X2877518Y-13599370D01*
X2877518Y-13599370D02*
X2867994Y-13608894D01*
X2867994Y-13608894D02*
X2848946Y-13618418D01*
X2848946Y-13618418D02*
X2829899Y-13618418D01*
X2829899Y-13618418D02*
X2810851Y-13608894D01*
X2810851Y-13608894D02*
X2801327Y-13599370D01*
X2801327Y-13599370D02*
X2791804Y-13580322D01*
X2791804Y-13580322D02*
X2782280Y-13542227D01*
X2782280Y-13542227D02*
X2782280Y-13494608D01*
X2782280Y-13494608D02*
X2791804Y-13456513D01*
X2791804Y-13456513D02*
X2801327Y-13437465D01*
X2801327Y-13437465D02*
X2810851Y-13427942D01*
X2810851Y-13427942D02*
X2829899Y-13418418D01*
X2982280Y-13618418D02*
X2982280Y-13485084D01*
X2982280Y-13504132D02*
X2991803Y-13494608D01*
X2991803Y-13494608D02*
X3010851Y-13485084D01*
X3010851Y-13485084D02*
X3039423Y-13485084D01*
X3039423Y-13485084D02*
X3058470Y-13494608D01*
X3058470Y-13494608D02*
X3067994Y-13513656D01*
X3067994Y-13513656D02*
X3067994Y-13618418D01*
X3067994Y-13513656D02*
X3077518Y-13494608D01*
X3077518Y-13494608D02*
X3096565Y-13485084D01*
X3096565Y-13485084D02*
X3125137Y-13485084D01*
X3125137Y-13485084D02*
X3144184Y-13494608D01*
X3144184Y-13494608D02*
X3153708Y-13513656D01*
X3153708Y-13513656D02*
X3153708Y-13618418D01*
X3248946Y-13618418D02*
X3248946Y-13485084D01*
X3248946Y-13504132D02*
X3258470Y-13494608D01*
X3258470Y-13494608D02*
X3277518Y-13485084D01*
X3277518Y-13485084D02*
X3306089Y-13485084D01*
X3306089Y-13485084D02*
X3325137Y-13494608D01*
X3325137Y-13494608D02*
X3334661Y-13513656D01*
X3334661Y-13513656D02*
X3334661Y-13618418D01*
X3334661Y-13513656D02*
X3344184Y-13494608D01*
X3344184Y-13494608D02*
X3363232Y-13485084D01*
X3363232Y-13485084D02*
X3391803Y-13485084D01*
X3391803Y-13485084D02*
X3410851Y-13494608D01*
X3410851Y-13494608D02*
X3420375Y-13513656D01*
X3420375Y-13513656D02*
X3420375Y-13618418D01*
X3810851Y-13408894D02*
X3639423Y-13666037D01*
X4067994Y-13418418D02*
X4087042Y-13418418D01*
X4087042Y-13418418D02*
X4106089Y-13427942D01*
X4106089Y-13427942D02*
X4115613Y-13437465D01*
X4115613Y-13437465D02*
X4125137Y-13456513D01*
X4125137Y-13456513D02*
X4134661Y-13494608D01*
X4134661Y-13494608D02*
X4134661Y-13542227D01*
X4134661Y-13542227D02*
X4125137Y-13580322D01*
X4125137Y-13580322D02*
X4115613Y-13599370D01*
X4115613Y-13599370D02*
X4106089Y-13608894D01*
X4106089Y-13608894D02*
X4087042Y-13618418D01*
X4087042Y-13618418D02*
X4067994Y-13618418D01*
X4067994Y-13618418D02*
X4048946Y-13608894D01*
X4048946Y-13608894D02*
X4039423Y-13599370D01*
X4039423Y-13599370D02*
X4029899Y-13580322D01*
X4029899Y-13580322D02*
X4020375Y-13542227D01*
X4020375Y-13542227D02*
X4020375Y-13494608D01*
X4020375Y-13494608D02*
X4029899Y-13456513D01*
X4029899Y-13456513D02*
X4039423Y-13437465D01*
X4039423Y-13437465D02*
X4048946Y-13427942D01*
X4048946Y-13427942D02*
X4067994Y-13418418D01*
X4220375Y-13599370D02*
X4229899Y-13608894D01*
X4229899Y-13608894D02*
X4220375Y-13618418D01*
X4220375Y-13618418D02*
X4210851Y-13608894D01*
X4210851Y-13608894D02*
X4220375Y-13599370D01*
X4220375Y-13599370D02*
X4220375Y-13618418D01*
X4353708Y-13418418D02*
X4372756Y-13418418D01*
X4372756Y-13418418D02*
X4391804Y-13427942D01*
X4391804Y-13427942D02*
X4401328Y-13437465D01*
X4401328Y-13437465D02*
X4410851Y-13456513D01*
X4410851Y-13456513D02*
X4420375Y-13494608D01*
X4420375Y-13494608D02*
X4420375Y-13542227D01*
X4420375Y-13542227D02*
X4410851Y-13580322D01*
X4410851Y-13580322D02*
X4401328Y-13599370D01*
X4401328Y-13599370D02*
X4391804Y-13608894D01*
X4391804Y-13608894D02*
X4372756Y-13618418D01*
X4372756Y-13618418D02*
X4353708Y-13618418D01*
X4353708Y-13618418D02*
X4334661Y-13608894D01*
X4334661Y-13608894D02*
X4325137Y-13599370D01*
X4325137Y-13599370D02*
X4315613Y-13580322D01*
X4315613Y-13580322D02*
X4306089Y-13542227D01*
X4306089Y-13542227D02*
X4306089Y-13494608D01*
X4306089Y-13494608D02*
X4315613Y-13456513D01*
X4315613Y-13456513D02*
X4325137Y-13437465D01*
X4325137Y-13437465D02*
X4334661Y-13427942D01*
X4334661Y-13427942D02*
X4353708Y-13418418D01*
X4487042Y-13418418D02*
X4620375Y-13418418D01*
X4620375Y-13418418D02*
X4534661Y-13618418D01*
X4782280Y-13485084D02*
X4782280Y-13618418D01*
X4734661Y-13408894D02*
X4687042Y-13551751D01*
X4687042Y-13551751D02*
X4810851Y-13551751D01*
X4915613Y-13504132D02*
X4896566Y-13494608D01*
X4896566Y-13494608D02*
X4887042Y-13485084D01*
X4887042Y-13485084D02*
X4877518Y-13466037D01*
X4877518Y-13466037D02*
X4877518Y-13456513D01*
X4877518Y-13456513D02*
X4887042Y-13437465D01*
X4887042Y-13437465D02*
X4896566Y-13427942D01*
X4896566Y-13427942D02*
X4915613Y-13418418D01*
X4915613Y-13418418D02*
X4953709Y-13418418D01*
X4953709Y-13418418D02*
X4972756Y-13427942D01*
X4972756Y-13427942D02*
X4982280Y-13437465D01*
X4982280Y-13437465D02*
X4991804Y-13456513D01*
X4991804Y-13456513D02*
X4991804Y-13466037D01*
X4991804Y-13466037D02*
X4982280Y-13485084D01*
X4982280Y-13485084D02*
X4972756Y-13494608D01*
X4972756Y-13494608D02*
X4953709Y-13504132D01*
X4953709Y-13504132D02*
X4915613Y-13504132D01*
X4915613Y-13504132D02*
X4896566Y-13513656D01*
X4896566Y-13513656D02*
X4887042Y-13523180D01*
X4887042Y-13523180D02*
X4877518Y-13542227D01*
X4877518Y-13542227D02*
X4877518Y-13580322D01*
X4877518Y-13580322D02*
X4887042Y-13599370D01*
X4887042Y-13599370D02*
X4896566Y-13608894D01*
X4896566Y-13608894D02*
X4915613Y-13618418D01*
X4915613Y-13618418D02*
X4953709Y-13618418D01*
X4953709Y-13618418D02*
X4972756Y-13608894D01*
X4972756Y-13608894D02*
X4982280Y-13599370D01*
X4982280Y-13599370D02*
X4991804Y-13580322D01*
X4991804Y-13580322D02*
X4991804Y-13542227D01*
X4991804Y-13542227D02*
X4982280Y-13523180D01*
X4982280Y-13523180D02*
X4972756Y-13513656D01*
X4972756Y-13513656D02*
X4953709Y-13504132D01*
X5067994Y-13418418D02*
X5067994Y-13456513D01*
X5144185Y-13418418D02*
X5144185Y-13456513D01*
X5439423Y-13694608D02*
X5429899Y-13685084D01*
X5429899Y-13685084D02*
X5410851Y-13656513D01*
X5410851Y-13656513D02*
X5401328Y-13637465D01*
X5401328Y-13637465D02*
X5391804Y-13608894D01*
X5391804Y-13608894D02*
X5382280Y-13561275D01*
X5382280Y-13561275D02*
X5382280Y-13523180D01*
X5382280Y-13523180D02*
X5391804Y-13475561D01*
X5391804Y-13475561D02*
X5401328Y-13446989D01*
X5401328Y-13446989D02*
X5410851Y-13427942D01*
X5410851Y-13427942D02*
X5429899Y-13399370D01*
X5429899Y-13399370D02*
X5439423Y-13389846D01*
X5601328Y-13485084D02*
X5601328Y-13618418D01*
X5553709Y-13408894D02*
X5506090Y-13551751D01*
X5506090Y-13551751D02*
X5629899Y-13551751D01*
X5696566Y-13437465D02*
X5706089Y-13427942D01*
X5706089Y-13427942D02*
X5725137Y-13418418D01*
X5725137Y-13418418D02*
X5772756Y-13418418D01*
X5772756Y-13418418D02*
X5791804Y-13427942D01*
X5791804Y-13427942D02*
X5801328Y-13437465D01*
X5801328Y-13437465D02*
X5810851Y-13456513D01*
X5810851Y-13456513D02*
X5810851Y-13475561D01*
X5810851Y-13475561D02*
X5801328Y-13504132D01*
X5801328Y-13504132D02*
X5687042Y-13618418D01*
X5687042Y-13618418D02*
X5810851Y-13618418D01*
X6048947Y-13618418D02*
X6048947Y-13418418D01*
X6134661Y-13618418D02*
X6134661Y-13513656D01*
X6134661Y-13513656D02*
X6125137Y-13494608D01*
X6125137Y-13494608D02*
X6106090Y-13485084D01*
X6106090Y-13485084D02*
X6077518Y-13485084D01*
X6077518Y-13485084D02*
X6058470Y-13494608D01*
X6058470Y-13494608D02*
X6048947Y-13504132D01*
X6258470Y-13618418D02*
X6239423Y-13608894D01*
X6239423Y-13608894D02*
X6229899Y-13599370D01*
X6229899Y-13599370D02*
X6220375Y-13580322D01*
X6220375Y-13580322D02*
X6220375Y-13523180D01*
X6220375Y-13523180D02*
X6229899Y-13504132D01*
X6229899Y-13504132D02*
X6239423Y-13494608D01*
X6239423Y-13494608D02*
X6258470Y-13485084D01*
X6258470Y-13485084D02*
X6287042Y-13485084D01*
X6287042Y-13485084D02*
X6306090Y-13494608D01*
X6306090Y-13494608D02*
X6315613Y-13504132D01*
X6315613Y-13504132D02*
X6325137Y-13523180D01*
X6325137Y-13523180D02*
X6325137Y-13580322D01*
X6325137Y-13580322D02*
X6315613Y-13599370D01*
X6315613Y-13599370D02*
X6306090Y-13608894D01*
X6306090Y-13608894D02*
X6287042Y-13618418D01*
X6287042Y-13618418D02*
X6258470Y-13618418D01*
X6439423Y-13618418D02*
X6420375Y-13608894D01*
X6420375Y-13608894D02*
X6410851Y-13589846D01*
X6410851Y-13589846D02*
X6410851Y-13418418D01*
X6591804Y-13608894D02*
X6572756Y-13618418D01*
X6572756Y-13618418D02*
X6534661Y-13618418D01*
X6534661Y-13618418D02*
X6515613Y-13608894D01*
X6515613Y-13608894D02*
X6506090Y-13589846D01*
X6506090Y-13589846D02*
X6506090Y-13513656D01*
X6506090Y-13513656D02*
X6515613Y-13494608D01*
X6515613Y-13494608D02*
X6534661Y-13485084D01*
X6534661Y-13485084D02*
X6572756Y-13485084D01*
X6572756Y-13485084D02*
X6591804Y-13494608D01*
X6591804Y-13494608D02*
X6601328Y-13513656D01*
X6601328Y-13513656D02*
X6601328Y-13532703D01*
X6601328Y-13532703D02*
X6506090Y-13551751D01*
X6677518Y-13608894D02*
X6696566Y-13618418D01*
X6696566Y-13618418D02*
X6734661Y-13618418D01*
X6734661Y-13618418D02*
X6753709Y-13608894D01*
X6753709Y-13608894D02*
X6763232Y-13589846D01*
X6763232Y-13589846D02*
X6763232Y-13580322D01*
X6763232Y-13580322D02*
X6753709Y-13561275D01*
X6753709Y-13561275D02*
X6734661Y-13551751D01*
X6734661Y-13551751D02*
X6706090Y-13551751D01*
X6706090Y-13551751D02*
X6687042Y-13542227D01*
X6687042Y-13542227D02*
X6677518Y-13523180D01*
X6677518Y-13523180D02*
X6677518Y-13513656D01*
X6677518Y-13513656D02*
X6687042Y-13494608D01*
X6687042Y-13494608D02*
X6706090Y-13485084D01*
X6706090Y-13485084D02*
X6734661Y-13485084D01*
X6734661Y-13485084D02*
X6753709Y-13494608D01*
X6829899Y-13694608D02*
X6839423Y-13685084D01*
X6839423Y-13685084D02*
X6858471Y-13656513D01*
X6858471Y-13656513D02*
X6867994Y-13637465D01*
X6867994Y-13637465D02*
X6877518Y-13608894D01*
X6877518Y-13608894D02*
X6887042Y-13561275D01*
X6887042Y-13561275D02*
X6887042Y-13523180D01*
X6887042Y-13523180D02*
X6877518Y-13475561D01*
X6877518Y-13475561D02*
X6867994Y-13446989D01*
X6867994Y-13446989D02*
X6858471Y-13427942D01*
X6858471Y-13427942D02*
X6839423Y-13399370D01*
X6839423Y-13399370D02*
X6829899Y-13389846D01*
X7191804Y-13694608D02*
X7182280Y-13685084D01*
X7182280Y-13685084D02*
X7163232Y-13656513D01*
X7163232Y-13656513D02*
X7153709Y-13637465D01*
X7153709Y-13637465D02*
X7144185Y-13608894D01*
X7144185Y-13608894D02*
X7134661Y-13561275D01*
X7134661Y-13561275D02*
X7134661Y-13523180D01*
X7134661Y-13523180D02*
X7144185Y-13475561D01*
X7144185Y-13475561D02*
X7153709Y-13446989D01*
X7153709Y-13446989D02*
X7163232Y-13427942D01*
X7163232Y-13427942D02*
X7182280Y-13399370D01*
X7182280Y-13399370D02*
X7191804Y-13389846D01*
X7267994Y-13485084D02*
X7267994Y-13618418D01*
X7267994Y-13504132D02*
X7277518Y-13494608D01*
X7277518Y-13494608D02*
X7296566Y-13485084D01*
X7296566Y-13485084D02*
X7325137Y-13485084D01*
X7325137Y-13485084D02*
X7344185Y-13494608D01*
X7344185Y-13494608D02*
X7353709Y-13513656D01*
X7353709Y-13513656D02*
X7353709Y-13618418D01*
X7477518Y-13618418D02*
X7458471Y-13608894D01*
X7458471Y-13608894D02*
X7448947Y-13599370D01*
X7448947Y-13599370D02*
X7439423Y-13580322D01*
X7439423Y-13580322D02*
X7439423Y-13523180D01*
X7439423Y-13523180D02*
X7448947Y-13504132D01*
X7448947Y-13504132D02*
X7458471Y-13494608D01*
X7458471Y-13494608D02*
X7477518Y-13485084D01*
X7477518Y-13485084D02*
X7506090Y-13485084D01*
X7506090Y-13485084D02*
X7525137Y-13494608D01*
X7525137Y-13494608D02*
X7534661Y-13504132D01*
X7534661Y-13504132D02*
X7544185Y-13523180D01*
X7544185Y-13523180D02*
X7544185Y-13580322D01*
X7544185Y-13580322D02*
X7534661Y-13599370D01*
X7534661Y-13599370D02*
X7525137Y-13608894D01*
X7525137Y-13608894D02*
X7506090Y-13618418D01*
X7506090Y-13618418D02*
X7477518Y-13618418D01*
X7601328Y-13485084D02*
X7677518Y-13485084D01*
X7629899Y-13418418D02*
X7629899Y-13589846D01*
X7629899Y-13589846D02*
X7639423Y-13608894D01*
X7639423Y-13608894D02*
X7658471Y-13618418D01*
X7658471Y-13618418D02*
X7677518Y-13618418D01*
X7896566Y-13485084D02*
X7896566Y-13685084D01*
X7896566Y-13494608D02*
X7915613Y-13485084D01*
X7915613Y-13485084D02*
X7953709Y-13485084D01*
X7953709Y-13485084D02*
X7972756Y-13494608D01*
X7972756Y-13494608D02*
X7982280Y-13504132D01*
X7982280Y-13504132D02*
X7991804Y-13523180D01*
X7991804Y-13523180D02*
X7991804Y-13580322D01*
X7991804Y-13580322D02*
X7982280Y-13599370D01*
X7982280Y-13599370D02*
X7972756Y-13608894D01*
X7972756Y-13608894D02*
X7953709Y-13618418D01*
X7953709Y-13618418D02*
X7915613Y-13618418D01*
X7915613Y-13618418D02*
X7896566Y-13608894D01*
X8106090Y-13618418D02*
X8087042Y-13608894D01*
X8087042Y-13608894D02*
X8077518Y-13589846D01*
X8077518Y-13589846D02*
X8077518Y-13418418D01*
X8267994Y-13618418D02*
X8267994Y-13513656D01*
X8267994Y-13513656D02*
X8258471Y-13494608D01*
X8258471Y-13494608D02*
X8239423Y-13485084D01*
X8239423Y-13485084D02*
X8201328Y-13485084D01*
X8201328Y-13485084D02*
X8182280Y-13494608D01*
X8267994Y-13608894D02*
X8248947Y-13618418D01*
X8248947Y-13618418D02*
X8201328Y-13618418D01*
X8201328Y-13618418D02*
X8182280Y-13608894D01*
X8182280Y-13608894D02*
X8172756Y-13589846D01*
X8172756Y-13589846D02*
X8172756Y-13570799D01*
X8172756Y-13570799D02*
X8182280Y-13551751D01*
X8182280Y-13551751D02*
X8201328Y-13542227D01*
X8201328Y-13542227D02*
X8248947Y-13542227D01*
X8248947Y-13542227D02*
X8267994Y-13532703D01*
X8334661Y-13485084D02*
X8410852Y-13485084D01*
X8363233Y-13418418D02*
X8363233Y-13589846D01*
X8363233Y-13589846D02*
X8372756Y-13608894D01*
X8372756Y-13608894D02*
X8391804Y-13618418D01*
X8391804Y-13618418D02*
X8410852Y-13618418D01*
X8553709Y-13608894D02*
X8534661Y-13618418D01*
X8534661Y-13618418D02*
X8496566Y-13618418D01*
X8496566Y-13618418D02*
X8477518Y-13608894D01*
X8477518Y-13608894D02*
X8467995Y-13589846D01*
X8467995Y-13589846D02*
X8467995Y-13513656D01*
X8467995Y-13513656D02*
X8477518Y-13494608D01*
X8477518Y-13494608D02*
X8496566Y-13485084D01*
X8496566Y-13485084D02*
X8534661Y-13485084D01*
X8534661Y-13485084D02*
X8553709Y-13494608D01*
X8553709Y-13494608D02*
X8563233Y-13513656D01*
X8563233Y-13513656D02*
X8563233Y-13532703D01*
X8563233Y-13532703D02*
X8467995Y-13551751D01*
X8734661Y-13618418D02*
X8734661Y-13418418D01*
X8734661Y-13608894D02*
X8715614Y-13618418D01*
X8715614Y-13618418D02*
X8677518Y-13618418D01*
X8677518Y-13618418D02*
X8658471Y-13608894D01*
X8658471Y-13608894D02*
X8648947Y-13599370D01*
X8648947Y-13599370D02*
X8639423Y-13580322D01*
X8639423Y-13580322D02*
X8639423Y-13523180D01*
X8639423Y-13523180D02*
X8648947Y-13504132D01*
X8648947Y-13504132D02*
X8658471Y-13494608D01*
X8658471Y-13494608D02*
X8677518Y-13485084D01*
X8677518Y-13485084D02*
X8715614Y-13485084D01*
X8715614Y-13485084D02*
X8734661Y-13494608D01*
X8810852Y-13694608D02*
X8820376Y-13685084D01*
X8820376Y-13685084D02*
X8839423Y-13656513D01*
X8839423Y-13656513D02*
X8848947Y-13637465D01*
X8848947Y-13637465D02*
X8858471Y-13608894D01*
X8858471Y-13608894D02*
X8867995Y-13561275D01*
X8867995Y-13561275D02*
X8867995Y-13523180D01*
X8867995Y-13523180D02*
X8858471Y-13475561D01*
X8858471Y-13475561D02*
X8848947Y-13446989D01*
X8848947Y-13446989D02*
X8839423Y-13427942D01*
X8839423Y-13427942D02*
X8820376Y-13399370D01*
X8820376Y-13399370D02*
X8810852Y-13389846D01*
X1764360Y-13736934D02*
X1764360Y-13936934D01*
X1664360Y-13836934D02*
X1864360Y-13836934D01*
X2115613Y-13747465D02*
X2125137Y-13737942D01*
X2125137Y-13737942D02*
X2144184Y-13728418D01*
X2144184Y-13728418D02*
X2191804Y-13728418D01*
X2191804Y-13728418D02*
X2210851Y-13737942D01*
X2210851Y-13737942D02*
X2220375Y-13747465D01*
X2220375Y-13747465D02*
X2229899Y-13766513D01*
X2229899Y-13766513D02*
X2229899Y-13785561D01*
X2229899Y-13785561D02*
X2220375Y-13814132D01*
X2220375Y-13814132D02*
X2106089Y-13928418D01*
X2106089Y-13928418D02*
X2229899Y-13928418D01*
X2315613Y-13909370D02*
X2325137Y-13918894D01*
X2325137Y-13918894D02*
X2315613Y-13928418D01*
X2315613Y-13928418D02*
X2306089Y-13918894D01*
X2306089Y-13918894D02*
X2315613Y-13909370D01*
X2315613Y-13909370D02*
X2315613Y-13928418D01*
X2401327Y-13747465D02*
X2410851Y-13737942D01*
X2410851Y-13737942D02*
X2429899Y-13728418D01*
X2429899Y-13728418D02*
X2477518Y-13728418D01*
X2477518Y-13728418D02*
X2496565Y-13737942D01*
X2496565Y-13737942D02*
X2506089Y-13747465D01*
X2506089Y-13747465D02*
X2515613Y-13766513D01*
X2515613Y-13766513D02*
X2515613Y-13785561D01*
X2515613Y-13785561D02*
X2506089Y-13814132D01*
X2506089Y-13814132D02*
X2391804Y-13928418D01*
X2391804Y-13928418D02*
X2515613Y-13928418D01*
X2639423Y-13728418D02*
X2658470Y-13728418D01*
X2658470Y-13728418D02*
X2677518Y-13737942D01*
X2677518Y-13737942D02*
X2687042Y-13747465D01*
X2687042Y-13747465D02*
X2696565Y-13766513D01*
X2696565Y-13766513D02*
X2706089Y-13804608D01*
X2706089Y-13804608D02*
X2706089Y-13852227D01*
X2706089Y-13852227D02*
X2696565Y-13890322D01*
X2696565Y-13890322D02*
X2687042Y-13909370D01*
X2687042Y-13909370D02*
X2677518Y-13918894D01*
X2677518Y-13918894D02*
X2658470Y-13928418D01*
X2658470Y-13928418D02*
X2639423Y-13928418D01*
X2639423Y-13928418D02*
X2620375Y-13918894D01*
X2620375Y-13918894D02*
X2610851Y-13909370D01*
X2610851Y-13909370D02*
X2601327Y-13890322D01*
X2601327Y-13890322D02*
X2591804Y-13852227D01*
X2591804Y-13852227D02*
X2591804Y-13804608D01*
X2591804Y-13804608D02*
X2601327Y-13766513D01*
X2601327Y-13766513D02*
X2610851Y-13747465D01*
X2610851Y-13747465D02*
X2620375Y-13737942D01*
X2620375Y-13737942D02*
X2639423Y-13728418D01*
X2829899Y-13728418D02*
X2848946Y-13728418D01*
X2848946Y-13728418D02*
X2867994Y-13737942D01*
X2867994Y-13737942D02*
X2877518Y-13747465D01*
X2877518Y-13747465D02*
X2887042Y-13766513D01*
X2887042Y-13766513D02*
X2896565Y-13804608D01*
X2896565Y-13804608D02*
X2896565Y-13852227D01*
X2896565Y-13852227D02*
X2887042Y-13890322D01*
X2887042Y-13890322D02*
X2877518Y-13909370D01*
X2877518Y-13909370D02*
X2867994Y-13918894D01*
X2867994Y-13918894D02*
X2848946Y-13928418D01*
X2848946Y-13928418D02*
X2829899Y-13928418D01*
X2829899Y-13928418D02*
X2810851Y-13918894D01*
X2810851Y-13918894D02*
X2801327Y-13909370D01*
X2801327Y-13909370D02*
X2791804Y-13890322D01*
X2791804Y-13890322D02*
X2782280Y-13852227D01*
X2782280Y-13852227D02*
X2782280Y-13804608D01*
X2782280Y-13804608D02*
X2791804Y-13766513D01*
X2791804Y-13766513D02*
X2801327Y-13747465D01*
X2801327Y-13747465D02*
X2810851Y-13737942D01*
X2810851Y-13737942D02*
X2829899Y-13728418D01*
X2982280Y-13928418D02*
X2982280Y-13795084D01*
X2982280Y-13814132D02*
X2991803Y-13804608D01*
X2991803Y-13804608D02*
X3010851Y-13795084D01*
X3010851Y-13795084D02*
X3039423Y-13795084D01*
X3039423Y-13795084D02*
X3058470Y-13804608D01*
X3058470Y-13804608D02*
X3067994Y-13823656D01*
X3067994Y-13823656D02*
X3067994Y-13928418D01*
X3067994Y-13823656D02*
X3077518Y-13804608D01*
X3077518Y-13804608D02*
X3096565Y-13795084D01*
X3096565Y-13795084D02*
X3125137Y-13795084D01*
X3125137Y-13795084D02*
X3144184Y-13804608D01*
X3144184Y-13804608D02*
X3153708Y-13823656D01*
X3153708Y-13823656D02*
X3153708Y-13928418D01*
X3248946Y-13928418D02*
X3248946Y-13795084D01*
X3248946Y-13814132D02*
X3258470Y-13804608D01*
X3258470Y-13804608D02*
X3277518Y-13795084D01*
X3277518Y-13795084D02*
X3306089Y-13795084D01*
X3306089Y-13795084D02*
X3325137Y-13804608D01*
X3325137Y-13804608D02*
X3334661Y-13823656D01*
X3334661Y-13823656D02*
X3334661Y-13928418D01*
X3334661Y-13823656D02*
X3344184Y-13804608D01*
X3344184Y-13804608D02*
X3363232Y-13795084D01*
X3363232Y-13795084D02*
X3391803Y-13795084D01*
X3391803Y-13795084D02*
X3410851Y-13804608D01*
X3410851Y-13804608D02*
X3420375Y-13823656D01*
X3420375Y-13823656D02*
X3420375Y-13928418D01*
X3810851Y-13718894D02*
X3639423Y-13976037D01*
X4067994Y-13728418D02*
X4087042Y-13728418D01*
X4087042Y-13728418D02*
X4106089Y-13737942D01*
X4106089Y-13737942D02*
X4115613Y-13747465D01*
X4115613Y-13747465D02*
X4125137Y-13766513D01*
X4125137Y-13766513D02*
X4134661Y-13804608D01*
X4134661Y-13804608D02*
X4134661Y-13852227D01*
X4134661Y-13852227D02*
X4125137Y-13890322D01*
X4125137Y-13890322D02*
X4115613Y-13909370D01*
X4115613Y-13909370D02*
X4106089Y-13918894D01*
X4106089Y-13918894D02*
X4087042Y-13928418D01*
X4087042Y-13928418D02*
X4067994Y-13928418D01*
X4067994Y-13928418D02*
X4048946Y-13918894D01*
X4048946Y-13918894D02*
X4039423Y-13909370D01*
X4039423Y-13909370D02*
X4029899Y-13890322D01*
X4029899Y-13890322D02*
X4020375Y-13852227D01*
X4020375Y-13852227D02*
X4020375Y-13804608D01*
X4020375Y-13804608D02*
X4029899Y-13766513D01*
X4029899Y-13766513D02*
X4039423Y-13747465D01*
X4039423Y-13747465D02*
X4048946Y-13737942D01*
X4048946Y-13737942D02*
X4067994Y-13728418D01*
X4220375Y-13909370D02*
X4229899Y-13918894D01*
X4229899Y-13918894D02*
X4220375Y-13928418D01*
X4220375Y-13928418D02*
X4210851Y-13918894D01*
X4210851Y-13918894D02*
X4220375Y-13909370D01*
X4220375Y-13909370D02*
X4220375Y-13928418D01*
X4353708Y-13728418D02*
X4372756Y-13728418D01*
X4372756Y-13728418D02*
X4391804Y-13737942D01*
X4391804Y-13737942D02*
X4401328Y-13747465D01*
X4401328Y-13747465D02*
X4410851Y-13766513D01*
X4410851Y-13766513D02*
X4420375Y-13804608D01*
X4420375Y-13804608D02*
X4420375Y-13852227D01*
X4420375Y-13852227D02*
X4410851Y-13890322D01*
X4410851Y-13890322D02*
X4401328Y-13909370D01*
X4401328Y-13909370D02*
X4391804Y-13918894D01*
X4391804Y-13918894D02*
X4372756Y-13928418D01*
X4372756Y-13928418D02*
X4353708Y-13928418D01*
X4353708Y-13928418D02*
X4334661Y-13918894D01*
X4334661Y-13918894D02*
X4325137Y-13909370D01*
X4325137Y-13909370D02*
X4315613Y-13890322D01*
X4315613Y-13890322D02*
X4306089Y-13852227D01*
X4306089Y-13852227D02*
X4306089Y-13804608D01*
X4306089Y-13804608D02*
X4315613Y-13766513D01*
X4315613Y-13766513D02*
X4325137Y-13747465D01*
X4325137Y-13747465D02*
X4334661Y-13737942D01*
X4334661Y-13737942D02*
X4353708Y-13728418D01*
X4534661Y-13814132D02*
X4515613Y-13804608D01*
X4515613Y-13804608D02*
X4506089Y-13795084D01*
X4506089Y-13795084D02*
X4496566Y-13776037D01*
X4496566Y-13776037D02*
X4496566Y-13766513D01*
X4496566Y-13766513D02*
X4506089Y-13747465D01*
X4506089Y-13747465D02*
X4515613Y-13737942D01*
X4515613Y-13737942D02*
X4534661Y-13728418D01*
X4534661Y-13728418D02*
X4572756Y-13728418D01*
X4572756Y-13728418D02*
X4591804Y-13737942D01*
X4591804Y-13737942D02*
X4601328Y-13747465D01*
X4601328Y-13747465D02*
X4610851Y-13766513D01*
X4610851Y-13766513D02*
X4610851Y-13776037D01*
X4610851Y-13776037D02*
X4601328Y-13795084D01*
X4601328Y-13795084D02*
X4591804Y-13804608D01*
X4591804Y-13804608D02*
X4572756Y-13814132D01*
X4572756Y-13814132D02*
X4534661Y-13814132D01*
X4534661Y-13814132D02*
X4515613Y-13823656D01*
X4515613Y-13823656D02*
X4506089Y-13833180D01*
X4506089Y-13833180D02*
X4496566Y-13852227D01*
X4496566Y-13852227D02*
X4496566Y-13890322D01*
X4496566Y-13890322D02*
X4506089Y-13909370D01*
X4506089Y-13909370D02*
X4515613Y-13918894D01*
X4515613Y-13918894D02*
X4534661Y-13928418D01*
X4534661Y-13928418D02*
X4572756Y-13928418D01*
X4572756Y-13928418D02*
X4591804Y-13918894D01*
X4591804Y-13918894D02*
X4601328Y-13909370D01*
X4601328Y-13909370D02*
X4610851Y-13890322D01*
X4610851Y-13890322D02*
X4610851Y-13852227D01*
X4610851Y-13852227D02*
X4601328Y-13833180D01*
X4601328Y-13833180D02*
X4591804Y-13823656D01*
X4591804Y-13823656D02*
X4572756Y-13814132D01*
X4782280Y-13728418D02*
X4744185Y-13728418D01*
X4744185Y-13728418D02*
X4725137Y-13737942D01*
X4725137Y-13737942D02*
X4715613Y-13747465D01*
X4715613Y-13747465D02*
X4696566Y-13776037D01*
X4696566Y-13776037D02*
X4687042Y-13814132D01*
X4687042Y-13814132D02*
X4687042Y-13890322D01*
X4687042Y-13890322D02*
X4696566Y-13909370D01*
X4696566Y-13909370D02*
X4706089Y-13918894D01*
X4706089Y-13918894D02*
X4725137Y-13928418D01*
X4725137Y-13928418D02*
X4763232Y-13928418D01*
X4763232Y-13928418D02*
X4782280Y-13918894D01*
X4782280Y-13918894D02*
X4791804Y-13909370D01*
X4791804Y-13909370D02*
X4801328Y-13890322D01*
X4801328Y-13890322D02*
X4801328Y-13842703D01*
X4801328Y-13842703D02*
X4791804Y-13823656D01*
X4791804Y-13823656D02*
X4782280Y-13814132D01*
X4782280Y-13814132D02*
X4763232Y-13804608D01*
X4763232Y-13804608D02*
X4725137Y-13804608D01*
X4725137Y-13804608D02*
X4706089Y-13814132D01*
X4706089Y-13814132D02*
X4696566Y-13823656D01*
X4696566Y-13823656D02*
X4687042Y-13842703D01*
X4972756Y-13728418D02*
X4934661Y-13728418D01*
X4934661Y-13728418D02*
X4915613Y-13737942D01*
X4915613Y-13737942D02*
X4906089Y-13747465D01*
X4906089Y-13747465D02*
X4887042Y-13776037D01*
X4887042Y-13776037D02*
X4877518Y-13814132D01*
X4877518Y-13814132D02*
X4877518Y-13890322D01*
X4877518Y-13890322D02*
X4887042Y-13909370D01*
X4887042Y-13909370D02*
X4896566Y-13918894D01*
X4896566Y-13918894D02*
X4915613Y-13928418D01*
X4915613Y-13928418D02*
X4953709Y-13928418D01*
X4953709Y-13928418D02*
X4972756Y-13918894D01*
X4972756Y-13918894D02*
X4982280Y-13909370D01*
X4982280Y-13909370D02*
X4991804Y-13890322D01*
X4991804Y-13890322D02*
X4991804Y-13842703D01*
X4991804Y-13842703D02*
X4982280Y-13823656D01*
X4982280Y-13823656D02*
X4972756Y-13814132D01*
X4972756Y-13814132D02*
X4953709Y-13804608D01*
X4953709Y-13804608D02*
X4915613Y-13804608D01*
X4915613Y-13804608D02*
X4896566Y-13814132D01*
X4896566Y-13814132D02*
X4887042Y-13823656D01*
X4887042Y-13823656D02*
X4877518Y-13842703D01*
X5067994Y-13728418D02*
X5067994Y-13766513D01*
X5144185Y-13728418D02*
X5144185Y-13766513D01*
X5439423Y-14004608D02*
X5429899Y-13995084D01*
X5429899Y-13995084D02*
X5410851Y-13966513D01*
X5410851Y-13966513D02*
X5401328Y-13947465D01*
X5401328Y-13947465D02*
X5391804Y-13918894D01*
X5391804Y-13918894D02*
X5382280Y-13871275D01*
X5382280Y-13871275D02*
X5382280Y-13833180D01*
X5382280Y-13833180D02*
X5391804Y-13785561D01*
X5391804Y-13785561D02*
X5401328Y-13756989D01*
X5401328Y-13756989D02*
X5410851Y-13737942D01*
X5410851Y-13737942D02*
X5429899Y-13709370D01*
X5429899Y-13709370D02*
X5439423Y-13699846D01*
X5620375Y-13928418D02*
X5506090Y-13928418D01*
X5563232Y-13928418D02*
X5563232Y-13728418D01*
X5563232Y-13728418D02*
X5544185Y-13756989D01*
X5544185Y-13756989D02*
X5525137Y-13776037D01*
X5525137Y-13776037D02*
X5506090Y-13785561D01*
X5744185Y-13728418D02*
X5763232Y-13728418D01*
X5763232Y-13728418D02*
X5782280Y-13737942D01*
X5782280Y-13737942D02*
X5791804Y-13747465D01*
X5791804Y-13747465D02*
X5801328Y-13766513D01*
X5801328Y-13766513D02*
X5810851Y-13804608D01*
X5810851Y-13804608D02*
X5810851Y-13852227D01*
X5810851Y-13852227D02*
X5801328Y-13890322D01*
X5801328Y-13890322D02*
X5791804Y-13909370D01*
X5791804Y-13909370D02*
X5782280Y-13918894D01*
X5782280Y-13918894D02*
X5763232Y-13928418D01*
X5763232Y-13928418D02*
X5744185Y-13928418D01*
X5744185Y-13928418D02*
X5725137Y-13918894D01*
X5725137Y-13918894D02*
X5715613Y-13909370D01*
X5715613Y-13909370D02*
X5706089Y-13890322D01*
X5706089Y-13890322D02*
X5696566Y-13852227D01*
X5696566Y-13852227D02*
X5696566Y-13804608D01*
X5696566Y-13804608D02*
X5706089Y-13766513D01*
X5706089Y-13766513D02*
X5715613Y-13747465D01*
X5715613Y-13747465D02*
X5725137Y-13737942D01*
X5725137Y-13737942D02*
X5744185Y-13728418D01*
X6048947Y-13928418D02*
X6048947Y-13728418D01*
X6134661Y-13928418D02*
X6134661Y-13823656D01*
X6134661Y-13823656D02*
X6125137Y-13804608D01*
X6125137Y-13804608D02*
X6106090Y-13795084D01*
X6106090Y-13795084D02*
X6077518Y-13795084D01*
X6077518Y-13795084D02*
X6058470Y-13804608D01*
X6058470Y-13804608D02*
X6048947Y-13814132D01*
X6258470Y-13928418D02*
X6239423Y-13918894D01*
X6239423Y-13918894D02*
X6229899Y-13909370D01*
X6229899Y-13909370D02*
X6220375Y-13890322D01*
X6220375Y-13890322D02*
X6220375Y-13833180D01*
X6220375Y-13833180D02*
X6229899Y-13814132D01*
X6229899Y-13814132D02*
X6239423Y-13804608D01*
X6239423Y-13804608D02*
X6258470Y-13795084D01*
X6258470Y-13795084D02*
X6287042Y-13795084D01*
X6287042Y-13795084D02*
X6306090Y-13804608D01*
X6306090Y-13804608D02*
X6315613Y-13814132D01*
X6315613Y-13814132D02*
X6325137Y-13833180D01*
X6325137Y-13833180D02*
X6325137Y-13890322D01*
X6325137Y-13890322D02*
X6315613Y-13909370D01*
X6315613Y-13909370D02*
X6306090Y-13918894D01*
X6306090Y-13918894D02*
X6287042Y-13928418D01*
X6287042Y-13928418D02*
X6258470Y-13928418D01*
X6439423Y-13928418D02*
X6420375Y-13918894D01*
X6420375Y-13918894D02*
X6410851Y-13899846D01*
X6410851Y-13899846D02*
X6410851Y-13728418D01*
X6591804Y-13918894D02*
X6572756Y-13928418D01*
X6572756Y-13928418D02*
X6534661Y-13928418D01*
X6534661Y-13928418D02*
X6515613Y-13918894D01*
X6515613Y-13918894D02*
X6506090Y-13899846D01*
X6506090Y-13899846D02*
X6506090Y-13823656D01*
X6506090Y-13823656D02*
X6515613Y-13804608D01*
X6515613Y-13804608D02*
X6534661Y-13795084D01*
X6534661Y-13795084D02*
X6572756Y-13795084D01*
X6572756Y-13795084D02*
X6591804Y-13804608D01*
X6591804Y-13804608D02*
X6601328Y-13823656D01*
X6601328Y-13823656D02*
X6601328Y-13842703D01*
X6601328Y-13842703D02*
X6506090Y-13861751D01*
X6677518Y-13918894D02*
X6696566Y-13928418D01*
X6696566Y-13928418D02*
X6734661Y-13928418D01*
X6734661Y-13928418D02*
X6753709Y-13918894D01*
X6753709Y-13918894D02*
X6763232Y-13899846D01*
X6763232Y-13899846D02*
X6763232Y-13890322D01*
X6763232Y-13890322D02*
X6753709Y-13871275D01*
X6753709Y-13871275D02*
X6734661Y-13861751D01*
X6734661Y-13861751D02*
X6706090Y-13861751D01*
X6706090Y-13861751D02*
X6687042Y-13852227D01*
X6687042Y-13852227D02*
X6677518Y-13833180D01*
X6677518Y-13833180D02*
X6677518Y-13823656D01*
X6677518Y-13823656D02*
X6687042Y-13804608D01*
X6687042Y-13804608D02*
X6706090Y-13795084D01*
X6706090Y-13795084D02*
X6734661Y-13795084D01*
X6734661Y-13795084D02*
X6753709Y-13804608D01*
X6829899Y-14004608D02*
X6839423Y-13995084D01*
X6839423Y-13995084D02*
X6858471Y-13966513D01*
X6858471Y-13966513D02*
X6867994Y-13947465D01*
X6867994Y-13947465D02*
X6877518Y-13918894D01*
X6877518Y-13918894D02*
X6887042Y-13871275D01*
X6887042Y-13871275D02*
X6887042Y-13833180D01*
X6887042Y-13833180D02*
X6877518Y-13785561D01*
X6877518Y-13785561D02*
X6867994Y-13756989D01*
X6867994Y-13756989D02*
X6858471Y-13737942D01*
X6858471Y-13737942D02*
X6839423Y-13709370D01*
X6839423Y-13709370D02*
X6829899Y-13699846D01*
X7191804Y-14004608D02*
X7182280Y-13995084D01*
X7182280Y-13995084D02*
X7163232Y-13966513D01*
X7163232Y-13966513D02*
X7153709Y-13947465D01*
X7153709Y-13947465D02*
X7144185Y-13918894D01*
X7144185Y-13918894D02*
X7134661Y-13871275D01*
X7134661Y-13871275D02*
X7134661Y-13833180D01*
X7134661Y-13833180D02*
X7144185Y-13785561D01*
X7144185Y-13785561D02*
X7153709Y-13756989D01*
X7153709Y-13756989D02*
X7163232Y-13737942D01*
X7163232Y-13737942D02*
X7182280Y-13709370D01*
X7182280Y-13709370D02*
X7191804Y-13699846D01*
X7267994Y-13795084D02*
X7267994Y-13928418D01*
X7267994Y-13814132D02*
X7277518Y-13804608D01*
X7277518Y-13804608D02*
X7296566Y-13795084D01*
X7296566Y-13795084D02*
X7325137Y-13795084D01*
X7325137Y-13795084D02*
X7344185Y-13804608D01*
X7344185Y-13804608D02*
X7353709Y-13823656D01*
X7353709Y-13823656D02*
X7353709Y-13928418D01*
X7477518Y-13928418D02*
X7458471Y-13918894D01*
X7458471Y-13918894D02*
X7448947Y-13909370D01*
X7448947Y-13909370D02*
X7439423Y-13890322D01*
X7439423Y-13890322D02*
X7439423Y-13833180D01*
X7439423Y-13833180D02*
X7448947Y-13814132D01*
X7448947Y-13814132D02*
X7458471Y-13804608D01*
X7458471Y-13804608D02*
X7477518Y-13795084D01*
X7477518Y-13795084D02*
X7506090Y-13795084D01*
X7506090Y-13795084D02*
X7525137Y-13804608D01*
X7525137Y-13804608D02*
X7534661Y-13814132D01*
X7534661Y-13814132D02*
X7544185Y-13833180D01*
X7544185Y-13833180D02*
X7544185Y-13890322D01*
X7544185Y-13890322D02*
X7534661Y-13909370D01*
X7534661Y-13909370D02*
X7525137Y-13918894D01*
X7525137Y-13918894D02*
X7506090Y-13928418D01*
X7506090Y-13928418D02*
X7477518Y-13928418D01*
X7601328Y-13795084D02*
X7677518Y-13795084D01*
X7629899Y-13728418D02*
X7629899Y-13899846D01*
X7629899Y-13899846D02*
X7639423Y-13918894D01*
X7639423Y-13918894D02*
X7658471Y-13928418D01*
X7658471Y-13928418D02*
X7677518Y-13928418D01*
X7896566Y-13795084D02*
X7896566Y-13995084D01*
X7896566Y-13804608D02*
X7915613Y-13795084D01*
X7915613Y-13795084D02*
X7953709Y-13795084D01*
X7953709Y-13795084D02*
X7972756Y-13804608D01*
X7972756Y-13804608D02*
X7982280Y-13814132D01*
X7982280Y-13814132D02*
X7991804Y-13833180D01*
X7991804Y-13833180D02*
X7991804Y-13890322D01*
X7991804Y-13890322D02*
X7982280Y-13909370D01*
X7982280Y-13909370D02*
X7972756Y-13918894D01*
X7972756Y-13918894D02*
X7953709Y-13928418D01*
X7953709Y-13928418D02*
X7915613Y-13928418D01*
X7915613Y-13928418D02*
X7896566Y-13918894D01*
X8106090Y-13928418D02*
X8087042Y-13918894D01*
X8087042Y-13918894D02*
X8077518Y-13899846D01*
X8077518Y-13899846D02*
X8077518Y-13728418D01*
X8267994Y-13928418D02*
X8267994Y-13823656D01*
X8267994Y-13823656D02*
X8258471Y-13804608D01*
X8258471Y-13804608D02*
X8239423Y-13795084D01*
X8239423Y-13795084D02*
X8201328Y-13795084D01*
X8201328Y-13795084D02*
X8182280Y-13804608D01*
X8267994Y-13918894D02*
X8248947Y-13928418D01*
X8248947Y-13928418D02*
X8201328Y-13928418D01*
X8201328Y-13928418D02*
X8182280Y-13918894D01*
X8182280Y-13918894D02*
X8172756Y-13899846D01*
X8172756Y-13899846D02*
X8172756Y-13880799D01*
X8172756Y-13880799D02*
X8182280Y-13861751D01*
X8182280Y-13861751D02*
X8201328Y-13852227D01*
X8201328Y-13852227D02*
X8248947Y-13852227D01*
X8248947Y-13852227D02*
X8267994Y-13842703D01*
X8334661Y-13795084D02*
X8410852Y-13795084D01*
X8363233Y-13728418D02*
X8363233Y-13899846D01*
X8363233Y-13899846D02*
X8372756Y-13918894D01*
X8372756Y-13918894D02*
X8391804Y-13928418D01*
X8391804Y-13928418D02*
X8410852Y-13928418D01*
X8553709Y-13918894D02*
X8534661Y-13928418D01*
X8534661Y-13928418D02*
X8496566Y-13928418D01*
X8496566Y-13928418D02*
X8477518Y-13918894D01*
X8477518Y-13918894D02*
X8467995Y-13899846D01*
X8467995Y-13899846D02*
X8467995Y-13823656D01*
X8467995Y-13823656D02*
X8477518Y-13804608D01*
X8477518Y-13804608D02*
X8496566Y-13795084D01*
X8496566Y-13795084D02*
X8534661Y-13795084D01*
X8534661Y-13795084D02*
X8553709Y-13804608D01*
X8553709Y-13804608D02*
X8563233Y-13823656D01*
X8563233Y-13823656D02*
X8563233Y-13842703D01*
X8563233Y-13842703D02*
X8467995Y-13861751D01*
X8734661Y-13928418D02*
X8734661Y-13728418D01*
X8734661Y-13918894D02*
X8715614Y-13928418D01*
X8715614Y-13928418D02*
X8677518Y-13928418D01*
X8677518Y-13928418D02*
X8658471Y-13918894D01*
X8658471Y-13918894D02*
X8648947Y-13909370D01*
X8648947Y-13909370D02*
X8639423Y-13890322D01*
X8639423Y-13890322D02*
X8639423Y-13833180D01*
X8639423Y-13833180D02*
X8648947Y-13814132D01*
X8648947Y-13814132D02*
X8658471Y-13804608D01*
X8658471Y-13804608D02*
X8677518Y-13795084D01*
X8677518Y-13795084D02*
X8715614Y-13795084D01*
X8715614Y-13795084D02*
X8734661Y-13804608D01*
X8810852Y-14004608D02*
X8820376Y-13995084D01*
X8820376Y-13995084D02*
X8839423Y-13966513D01*
X8839423Y-13966513D02*
X8848947Y-13947465D01*
X8848947Y-13947465D02*
X8858471Y-13918894D01*
X8858471Y-13918894D02*
X8867995Y-13871275D01*
X8867995Y-13871275D02*
X8867995Y-13833180D01*
X8867995Y-13833180D02*
X8858471Y-13785561D01*
X8858471Y-13785561D02*
X8848947Y-13756989D01*
X8848947Y-13756989D02*
X8839423Y-13737942D01*
X8839423Y-13737942D02*
X8820376Y-13709370D01*
X8820376Y-13709370D02*
X8810852Y-13699846D01*
X1835071Y-14227645D02*
X1835071Y-14086223D01*
X1693649Y-14086223D01*
X1693649Y-14227645D01*
X1835071Y-14227645D01*
X2106089Y-14048418D02*
X2229899Y-14048418D01*
X2229899Y-14048418D02*
X2163232Y-14124608D01*
X2163232Y-14124608D02*
X2191804Y-14124608D01*
X2191804Y-14124608D02*
X2210851Y-14134132D01*
X2210851Y-14134132D02*
X2220375Y-14143656D01*
X2220375Y-14143656D02*
X2229899Y-14162703D01*
X2229899Y-14162703D02*
X2229899Y-14210322D01*
X2229899Y-14210322D02*
X2220375Y-14229370D01*
X2220375Y-14229370D02*
X2210851Y-14238894D01*
X2210851Y-14238894D02*
X2191804Y-14248418D01*
X2191804Y-14248418D02*
X2134661Y-14248418D01*
X2134661Y-14248418D02*
X2115613Y-14238894D01*
X2115613Y-14238894D02*
X2106089Y-14229370D01*
X2315613Y-14229370D02*
X2325137Y-14238894D01*
X2325137Y-14238894D02*
X2315613Y-14248418D01*
X2315613Y-14248418D02*
X2306089Y-14238894D01*
X2306089Y-14238894D02*
X2315613Y-14229370D01*
X2315613Y-14229370D02*
X2315613Y-14248418D01*
X2448946Y-14048418D02*
X2467994Y-14048418D01*
X2467994Y-14048418D02*
X2487042Y-14057942D01*
X2487042Y-14057942D02*
X2496565Y-14067465D01*
X2496565Y-14067465D02*
X2506089Y-14086513D01*
X2506089Y-14086513D02*
X2515613Y-14124608D01*
X2515613Y-14124608D02*
X2515613Y-14172227D01*
X2515613Y-14172227D02*
X2506089Y-14210322D01*
X2506089Y-14210322D02*
X2496565Y-14229370D01*
X2496565Y-14229370D02*
X2487042Y-14238894D01*
X2487042Y-14238894D02*
X2467994Y-14248418D01*
X2467994Y-14248418D02*
X2448946Y-14248418D01*
X2448946Y-14248418D02*
X2429899Y-14238894D01*
X2429899Y-14238894D02*
X2420375Y-14229370D01*
X2420375Y-14229370D02*
X2410851Y-14210322D01*
X2410851Y-14210322D02*
X2401327Y-14172227D01*
X2401327Y-14172227D02*
X2401327Y-14124608D01*
X2401327Y-14124608D02*
X2410851Y-14086513D01*
X2410851Y-14086513D02*
X2420375Y-14067465D01*
X2420375Y-14067465D02*
X2429899Y-14057942D01*
X2429899Y-14057942D02*
X2448946Y-14048418D01*
X2639423Y-14048418D02*
X2658470Y-14048418D01*
X2658470Y-14048418D02*
X2677518Y-14057942D01*
X2677518Y-14057942D02*
X2687042Y-14067465D01*
X2687042Y-14067465D02*
X2696565Y-14086513D01*
X2696565Y-14086513D02*
X2706089Y-14124608D01*
X2706089Y-14124608D02*
X2706089Y-14172227D01*
X2706089Y-14172227D02*
X2696565Y-14210322D01*
X2696565Y-14210322D02*
X2687042Y-14229370D01*
X2687042Y-14229370D02*
X2677518Y-14238894D01*
X2677518Y-14238894D02*
X2658470Y-14248418D01*
X2658470Y-14248418D02*
X2639423Y-14248418D01*
X2639423Y-14248418D02*
X2620375Y-14238894D01*
X2620375Y-14238894D02*
X2610851Y-14229370D01*
X2610851Y-14229370D02*
X2601327Y-14210322D01*
X2601327Y-14210322D02*
X2591804Y-14172227D01*
X2591804Y-14172227D02*
X2591804Y-14124608D01*
X2591804Y-14124608D02*
X2601327Y-14086513D01*
X2601327Y-14086513D02*
X2610851Y-14067465D01*
X2610851Y-14067465D02*
X2620375Y-14057942D01*
X2620375Y-14057942D02*
X2639423Y-14048418D01*
X2829899Y-14048418D02*
X2848946Y-14048418D01*
X2848946Y-14048418D02*
X2867994Y-14057942D01*
X2867994Y-14057942D02*
X2877518Y-14067465D01*
X2877518Y-14067465D02*
X2887042Y-14086513D01*
X2887042Y-14086513D02*
X2896565Y-14124608D01*
X2896565Y-14124608D02*
X2896565Y-14172227D01*
X2896565Y-14172227D02*
X2887042Y-14210322D01*
X2887042Y-14210322D02*
X2877518Y-14229370D01*
X2877518Y-14229370D02*
X2867994Y-14238894D01*
X2867994Y-14238894D02*
X2848946Y-14248418D01*
X2848946Y-14248418D02*
X2829899Y-14248418D01*
X2829899Y-14248418D02*
X2810851Y-14238894D01*
X2810851Y-14238894D02*
X2801327Y-14229370D01*
X2801327Y-14229370D02*
X2791804Y-14210322D01*
X2791804Y-14210322D02*
X2782280Y-14172227D01*
X2782280Y-14172227D02*
X2782280Y-14124608D01*
X2782280Y-14124608D02*
X2791804Y-14086513D01*
X2791804Y-14086513D02*
X2801327Y-14067465D01*
X2801327Y-14067465D02*
X2810851Y-14057942D01*
X2810851Y-14057942D02*
X2829899Y-14048418D01*
X2982280Y-14248418D02*
X2982280Y-14115084D01*
X2982280Y-14134132D02*
X2991803Y-14124608D01*
X2991803Y-14124608D02*
X3010851Y-14115084D01*
X3010851Y-14115084D02*
X3039423Y-14115084D01*
X3039423Y-14115084D02*
X3058470Y-14124608D01*
X3058470Y-14124608D02*
X3067994Y-14143656D01*
X3067994Y-14143656D02*
X3067994Y-14248418D01*
X3067994Y-14143656D02*
X3077518Y-14124608D01*
X3077518Y-14124608D02*
X3096565Y-14115084D01*
X3096565Y-14115084D02*
X3125137Y-14115084D01*
X3125137Y-14115084D02*
X3144184Y-14124608D01*
X3144184Y-14124608D02*
X3153708Y-14143656D01*
X3153708Y-14143656D02*
X3153708Y-14248418D01*
X3248946Y-14248418D02*
X3248946Y-14115084D01*
X3248946Y-14134132D02*
X3258470Y-14124608D01*
X3258470Y-14124608D02*
X3277518Y-14115084D01*
X3277518Y-14115084D02*
X3306089Y-14115084D01*
X3306089Y-14115084D02*
X3325137Y-14124608D01*
X3325137Y-14124608D02*
X3334661Y-14143656D01*
X3334661Y-14143656D02*
X3334661Y-14248418D01*
X3334661Y-14143656D02*
X3344184Y-14124608D01*
X3344184Y-14124608D02*
X3363232Y-14115084D01*
X3363232Y-14115084D02*
X3391803Y-14115084D01*
X3391803Y-14115084D02*
X3410851Y-14124608D01*
X3410851Y-14124608D02*
X3420375Y-14143656D01*
X3420375Y-14143656D02*
X3420375Y-14248418D01*
X3810851Y-14038894D02*
X3639423Y-14296037D01*
X4067994Y-14048418D02*
X4087042Y-14048418D01*
X4087042Y-14048418D02*
X4106089Y-14057942D01*
X4106089Y-14057942D02*
X4115613Y-14067465D01*
X4115613Y-14067465D02*
X4125137Y-14086513D01*
X4125137Y-14086513D02*
X4134661Y-14124608D01*
X4134661Y-14124608D02*
X4134661Y-14172227D01*
X4134661Y-14172227D02*
X4125137Y-14210322D01*
X4125137Y-14210322D02*
X4115613Y-14229370D01*
X4115613Y-14229370D02*
X4106089Y-14238894D01*
X4106089Y-14238894D02*
X4087042Y-14248418D01*
X4087042Y-14248418D02*
X4067994Y-14248418D01*
X4067994Y-14248418D02*
X4048946Y-14238894D01*
X4048946Y-14238894D02*
X4039423Y-14229370D01*
X4039423Y-14229370D02*
X4029899Y-14210322D01*
X4029899Y-14210322D02*
X4020375Y-14172227D01*
X4020375Y-14172227D02*
X4020375Y-14124608D01*
X4020375Y-14124608D02*
X4029899Y-14086513D01*
X4029899Y-14086513D02*
X4039423Y-14067465D01*
X4039423Y-14067465D02*
X4048946Y-14057942D01*
X4048946Y-14057942D02*
X4067994Y-14048418D01*
X4220375Y-14229370D02*
X4229899Y-14238894D01*
X4229899Y-14238894D02*
X4220375Y-14248418D01*
X4220375Y-14248418D02*
X4210851Y-14238894D01*
X4210851Y-14238894D02*
X4220375Y-14229370D01*
X4220375Y-14229370D02*
X4220375Y-14248418D01*
X4420375Y-14248418D02*
X4306089Y-14248418D01*
X4363232Y-14248418D02*
X4363232Y-14048418D01*
X4363232Y-14048418D02*
X4344185Y-14076989D01*
X4344185Y-14076989D02*
X4325137Y-14096037D01*
X4325137Y-14096037D02*
X4306089Y-14105561D01*
X4610851Y-14248418D02*
X4496566Y-14248418D01*
X4553708Y-14248418D02*
X4553708Y-14048418D01*
X4553708Y-14048418D02*
X4534661Y-14076989D01*
X4534661Y-14076989D02*
X4515613Y-14096037D01*
X4515613Y-14096037D02*
X4496566Y-14105561D01*
X4725137Y-14134132D02*
X4706089Y-14124608D01*
X4706089Y-14124608D02*
X4696566Y-14115084D01*
X4696566Y-14115084D02*
X4687042Y-14096037D01*
X4687042Y-14096037D02*
X4687042Y-14086513D01*
X4687042Y-14086513D02*
X4696566Y-14067465D01*
X4696566Y-14067465D02*
X4706089Y-14057942D01*
X4706089Y-14057942D02*
X4725137Y-14048418D01*
X4725137Y-14048418D02*
X4763232Y-14048418D01*
X4763232Y-14048418D02*
X4782280Y-14057942D01*
X4782280Y-14057942D02*
X4791804Y-14067465D01*
X4791804Y-14067465D02*
X4801328Y-14086513D01*
X4801328Y-14086513D02*
X4801328Y-14096037D01*
X4801328Y-14096037D02*
X4791804Y-14115084D01*
X4791804Y-14115084D02*
X4782280Y-14124608D01*
X4782280Y-14124608D02*
X4763232Y-14134132D01*
X4763232Y-14134132D02*
X4725137Y-14134132D01*
X4725137Y-14134132D02*
X4706089Y-14143656D01*
X4706089Y-14143656D02*
X4696566Y-14153180D01*
X4696566Y-14153180D02*
X4687042Y-14172227D01*
X4687042Y-14172227D02*
X4687042Y-14210322D01*
X4687042Y-14210322D02*
X4696566Y-14229370D01*
X4696566Y-14229370D02*
X4706089Y-14238894D01*
X4706089Y-14238894D02*
X4725137Y-14248418D01*
X4725137Y-14248418D02*
X4763232Y-14248418D01*
X4763232Y-14248418D02*
X4782280Y-14238894D01*
X4782280Y-14238894D02*
X4791804Y-14229370D01*
X4791804Y-14229370D02*
X4801328Y-14210322D01*
X4801328Y-14210322D02*
X4801328Y-14172227D01*
X4801328Y-14172227D02*
X4791804Y-14153180D01*
X4791804Y-14153180D02*
X4782280Y-14143656D01*
X4782280Y-14143656D02*
X4763232Y-14134132D01*
X4991804Y-14248418D02*
X4877518Y-14248418D01*
X4934661Y-14248418D02*
X4934661Y-14048418D01*
X4934661Y-14048418D02*
X4915613Y-14076989D01*
X4915613Y-14076989D02*
X4896566Y-14096037D01*
X4896566Y-14096037D02*
X4877518Y-14105561D01*
X5067994Y-14048418D02*
X5067994Y-14086513D01*
X5144185Y-14048418D02*
X5144185Y-14086513D01*
X5439423Y-14324608D02*
X5429899Y-14315084D01*
X5429899Y-14315084D02*
X5410851Y-14286513D01*
X5410851Y-14286513D02*
X5401328Y-14267465D01*
X5401328Y-14267465D02*
X5391804Y-14238894D01*
X5391804Y-14238894D02*
X5382280Y-14191275D01*
X5382280Y-14191275D02*
X5382280Y-14153180D01*
X5382280Y-14153180D02*
X5391804Y-14105561D01*
X5391804Y-14105561D02*
X5401328Y-14076989D01*
X5401328Y-14076989D02*
X5410851Y-14057942D01*
X5410851Y-14057942D02*
X5429899Y-14029370D01*
X5429899Y-14029370D02*
X5439423Y-14019846D01*
X5544185Y-14134132D02*
X5525137Y-14124608D01*
X5525137Y-14124608D02*
X5515613Y-14115084D01*
X5515613Y-14115084D02*
X5506090Y-14096037D01*
X5506090Y-14096037D02*
X5506090Y-14086513D01*
X5506090Y-14086513D02*
X5515613Y-14067465D01*
X5515613Y-14067465D02*
X5525137Y-14057942D01*
X5525137Y-14057942D02*
X5544185Y-14048418D01*
X5544185Y-14048418D02*
X5582280Y-14048418D01*
X5582280Y-14048418D02*
X5601328Y-14057942D01*
X5601328Y-14057942D02*
X5610851Y-14067465D01*
X5610851Y-14067465D02*
X5620375Y-14086513D01*
X5620375Y-14086513D02*
X5620375Y-14096037D01*
X5620375Y-14096037D02*
X5610851Y-14115084D01*
X5610851Y-14115084D02*
X5601328Y-14124608D01*
X5601328Y-14124608D02*
X5582280Y-14134132D01*
X5582280Y-14134132D02*
X5544185Y-14134132D01*
X5544185Y-14134132D02*
X5525137Y-14143656D01*
X5525137Y-14143656D02*
X5515613Y-14153180D01*
X5515613Y-14153180D02*
X5506090Y-14172227D01*
X5506090Y-14172227D02*
X5506090Y-14210322D01*
X5506090Y-14210322D02*
X5515613Y-14229370D01*
X5515613Y-14229370D02*
X5525137Y-14238894D01*
X5525137Y-14238894D02*
X5544185Y-14248418D01*
X5544185Y-14248418D02*
X5582280Y-14248418D01*
X5582280Y-14248418D02*
X5601328Y-14238894D01*
X5601328Y-14238894D02*
X5610851Y-14229370D01*
X5610851Y-14229370D02*
X5620375Y-14210322D01*
X5620375Y-14210322D02*
X5620375Y-14172227D01*
X5620375Y-14172227D02*
X5610851Y-14153180D01*
X5610851Y-14153180D02*
X5601328Y-14143656D01*
X5601328Y-14143656D02*
X5582280Y-14134132D01*
X5791804Y-14115084D02*
X5791804Y-14248418D01*
X5744185Y-14038894D02*
X5696566Y-14181751D01*
X5696566Y-14181751D02*
X5820375Y-14181751D01*
X6048947Y-14248418D02*
X6048947Y-14048418D01*
X6134661Y-14248418D02*
X6134661Y-14143656D01*
X6134661Y-14143656D02*
X6125137Y-14124608D01*
X6125137Y-14124608D02*
X6106090Y-14115084D01*
X6106090Y-14115084D02*
X6077518Y-14115084D01*
X6077518Y-14115084D02*
X6058470Y-14124608D01*
X6058470Y-14124608D02*
X6048947Y-14134132D01*
X6258470Y-14248418D02*
X6239423Y-14238894D01*
X6239423Y-14238894D02*
X6229899Y-14229370D01*
X6229899Y-14229370D02*
X6220375Y-14210322D01*
X6220375Y-14210322D02*
X6220375Y-14153180D01*
X6220375Y-14153180D02*
X6229899Y-14134132D01*
X6229899Y-14134132D02*
X6239423Y-14124608D01*
X6239423Y-14124608D02*
X6258470Y-14115084D01*
X6258470Y-14115084D02*
X6287042Y-14115084D01*
X6287042Y-14115084D02*
X6306090Y-14124608D01*
X6306090Y-14124608D02*
X6315613Y-14134132D01*
X6315613Y-14134132D02*
X6325137Y-14153180D01*
X6325137Y-14153180D02*
X6325137Y-14210322D01*
X6325137Y-14210322D02*
X6315613Y-14229370D01*
X6315613Y-14229370D02*
X6306090Y-14238894D01*
X6306090Y-14238894D02*
X6287042Y-14248418D01*
X6287042Y-14248418D02*
X6258470Y-14248418D01*
X6439423Y-14248418D02*
X6420375Y-14238894D01*
X6420375Y-14238894D02*
X6410851Y-14219846D01*
X6410851Y-14219846D02*
X6410851Y-14048418D01*
X6591804Y-14238894D02*
X6572756Y-14248418D01*
X6572756Y-14248418D02*
X6534661Y-14248418D01*
X6534661Y-14248418D02*
X6515613Y-14238894D01*
X6515613Y-14238894D02*
X6506090Y-14219846D01*
X6506090Y-14219846D02*
X6506090Y-14143656D01*
X6506090Y-14143656D02*
X6515613Y-14124608D01*
X6515613Y-14124608D02*
X6534661Y-14115084D01*
X6534661Y-14115084D02*
X6572756Y-14115084D01*
X6572756Y-14115084D02*
X6591804Y-14124608D01*
X6591804Y-14124608D02*
X6601328Y-14143656D01*
X6601328Y-14143656D02*
X6601328Y-14162703D01*
X6601328Y-14162703D02*
X6506090Y-14181751D01*
X6677518Y-14238894D02*
X6696566Y-14248418D01*
X6696566Y-14248418D02*
X6734661Y-14248418D01*
X6734661Y-14248418D02*
X6753709Y-14238894D01*
X6753709Y-14238894D02*
X6763232Y-14219846D01*
X6763232Y-14219846D02*
X6763232Y-14210322D01*
X6763232Y-14210322D02*
X6753709Y-14191275D01*
X6753709Y-14191275D02*
X6734661Y-14181751D01*
X6734661Y-14181751D02*
X6706090Y-14181751D01*
X6706090Y-14181751D02*
X6687042Y-14172227D01*
X6687042Y-14172227D02*
X6677518Y-14153180D01*
X6677518Y-14153180D02*
X6677518Y-14143656D01*
X6677518Y-14143656D02*
X6687042Y-14124608D01*
X6687042Y-14124608D02*
X6706090Y-14115084D01*
X6706090Y-14115084D02*
X6734661Y-14115084D01*
X6734661Y-14115084D02*
X6753709Y-14124608D01*
X6829899Y-14324608D02*
X6839423Y-14315084D01*
X6839423Y-14315084D02*
X6858471Y-14286513D01*
X6858471Y-14286513D02*
X6867994Y-14267465D01*
X6867994Y-14267465D02*
X6877518Y-14238894D01*
X6877518Y-14238894D02*
X6887042Y-14191275D01*
X6887042Y-14191275D02*
X6887042Y-14153180D01*
X6887042Y-14153180D02*
X6877518Y-14105561D01*
X6877518Y-14105561D02*
X6867994Y-14076989D01*
X6867994Y-14076989D02*
X6858471Y-14057942D01*
X6858471Y-14057942D02*
X6839423Y-14029370D01*
X6839423Y-14029370D02*
X6829899Y-14019846D01*
X7191804Y-14324608D02*
X7182280Y-14315084D01*
X7182280Y-14315084D02*
X7163232Y-14286513D01*
X7163232Y-14286513D02*
X7153709Y-14267465D01*
X7153709Y-14267465D02*
X7144185Y-14238894D01*
X7144185Y-14238894D02*
X7134661Y-14191275D01*
X7134661Y-14191275D02*
X7134661Y-14153180D01*
X7134661Y-14153180D02*
X7144185Y-14105561D01*
X7144185Y-14105561D02*
X7153709Y-14076989D01*
X7153709Y-14076989D02*
X7163232Y-14057942D01*
X7163232Y-14057942D02*
X7182280Y-14029370D01*
X7182280Y-14029370D02*
X7191804Y-14019846D01*
X7267994Y-14115084D02*
X7267994Y-14248418D01*
X7267994Y-14134132D02*
X7277518Y-14124608D01*
X7277518Y-14124608D02*
X7296566Y-14115084D01*
X7296566Y-14115084D02*
X7325137Y-14115084D01*
X7325137Y-14115084D02*
X7344185Y-14124608D01*
X7344185Y-14124608D02*
X7353709Y-14143656D01*
X7353709Y-14143656D02*
X7353709Y-14248418D01*
X7477518Y-14248418D02*
X7458471Y-14238894D01*
X7458471Y-14238894D02*
X7448947Y-14229370D01*
X7448947Y-14229370D02*
X7439423Y-14210322D01*
X7439423Y-14210322D02*
X7439423Y-14153180D01*
X7439423Y-14153180D02*
X7448947Y-14134132D01*
X7448947Y-14134132D02*
X7458471Y-14124608D01*
X7458471Y-14124608D02*
X7477518Y-14115084D01*
X7477518Y-14115084D02*
X7506090Y-14115084D01*
X7506090Y-14115084D02*
X7525137Y-14124608D01*
X7525137Y-14124608D02*
X7534661Y-14134132D01*
X7534661Y-14134132D02*
X7544185Y-14153180D01*
X7544185Y-14153180D02*
X7544185Y-14210322D01*
X7544185Y-14210322D02*
X7534661Y-14229370D01*
X7534661Y-14229370D02*
X7525137Y-14238894D01*
X7525137Y-14238894D02*
X7506090Y-14248418D01*
X7506090Y-14248418D02*
X7477518Y-14248418D01*
X7601328Y-14115084D02*
X7677518Y-14115084D01*
X7629899Y-14048418D02*
X7629899Y-14219846D01*
X7629899Y-14219846D02*
X7639423Y-14238894D01*
X7639423Y-14238894D02*
X7658471Y-14248418D01*
X7658471Y-14248418D02*
X7677518Y-14248418D01*
X7896566Y-14115084D02*
X7896566Y-14315084D01*
X7896566Y-14124608D02*
X7915613Y-14115084D01*
X7915613Y-14115084D02*
X7953709Y-14115084D01*
X7953709Y-14115084D02*
X7972756Y-14124608D01*
X7972756Y-14124608D02*
X7982280Y-14134132D01*
X7982280Y-14134132D02*
X7991804Y-14153180D01*
X7991804Y-14153180D02*
X7991804Y-14210322D01*
X7991804Y-14210322D02*
X7982280Y-14229370D01*
X7982280Y-14229370D02*
X7972756Y-14238894D01*
X7972756Y-14238894D02*
X7953709Y-14248418D01*
X7953709Y-14248418D02*
X7915613Y-14248418D01*
X7915613Y-14248418D02*
X7896566Y-14238894D01*
X8106090Y-14248418D02*
X8087042Y-14238894D01*
X8087042Y-14238894D02*
X8077518Y-14219846D01*
X8077518Y-14219846D02*
X8077518Y-14048418D01*
X8267994Y-14248418D02*
X8267994Y-14143656D01*
X8267994Y-14143656D02*
X8258471Y-14124608D01*
X8258471Y-14124608D02*
X8239423Y-14115084D01*
X8239423Y-14115084D02*
X8201328Y-14115084D01*
X8201328Y-14115084D02*
X8182280Y-14124608D01*
X8267994Y-14238894D02*
X8248947Y-14248418D01*
X8248947Y-14248418D02*
X8201328Y-14248418D01*
X8201328Y-14248418D02*
X8182280Y-14238894D01*
X8182280Y-14238894D02*
X8172756Y-14219846D01*
X8172756Y-14219846D02*
X8172756Y-14200799D01*
X8172756Y-14200799D02*
X8182280Y-14181751D01*
X8182280Y-14181751D02*
X8201328Y-14172227D01*
X8201328Y-14172227D02*
X8248947Y-14172227D01*
X8248947Y-14172227D02*
X8267994Y-14162703D01*
X8334661Y-14115084D02*
X8410852Y-14115084D01*
X8363233Y-14048418D02*
X8363233Y-14219846D01*
X8363233Y-14219846D02*
X8372756Y-14238894D01*
X8372756Y-14238894D02*
X8391804Y-14248418D01*
X8391804Y-14248418D02*
X8410852Y-14248418D01*
X8553709Y-14238894D02*
X8534661Y-14248418D01*
X8534661Y-14248418D02*
X8496566Y-14248418D01*
X8496566Y-14248418D02*
X8477518Y-14238894D01*
X8477518Y-14238894D02*
X8467995Y-14219846D01*
X8467995Y-14219846D02*
X8467995Y-14143656D01*
X8467995Y-14143656D02*
X8477518Y-14124608D01*
X8477518Y-14124608D02*
X8496566Y-14115084D01*
X8496566Y-14115084D02*
X8534661Y-14115084D01*
X8534661Y-14115084D02*
X8553709Y-14124608D01*
X8553709Y-14124608D02*
X8563233Y-14143656D01*
X8563233Y-14143656D02*
X8563233Y-14162703D01*
X8563233Y-14162703D02*
X8467995Y-14181751D01*
X8734661Y-14248418D02*
X8734661Y-14048418D01*
X8734661Y-14238894D02*
X8715614Y-14248418D01*
X8715614Y-14248418D02*
X8677518Y-14248418D01*
X8677518Y-14248418D02*
X8658471Y-14238894D01*
X8658471Y-14238894D02*
X8648947Y-14229370D01*
X8648947Y-14229370D02*
X8639423Y-14210322D01*
X8639423Y-14210322D02*
X8639423Y-14153180D01*
X8639423Y-14153180D02*
X8648947Y-14134132D01*
X8648947Y-14134132D02*
X8658471Y-14124608D01*
X8658471Y-14124608D02*
X8677518Y-14115084D01*
X8677518Y-14115084D02*
X8715614Y-14115084D01*
X8715614Y-14115084D02*
X8734661Y-14124608D01*
X8810852Y-14324608D02*
X8820376Y-14315084D01*
X8820376Y-14315084D02*
X8839423Y-14286513D01*
X8839423Y-14286513D02*
X8848947Y-14267465D01*
X8848947Y-14267465D02*
X8858471Y-14238894D01*
X8858471Y-14238894D02*
X8867995Y-14191275D01*
X8867995Y-14191275D02*
X8867995Y-14153180D01*
X8867995Y-14153180D02*
X8858471Y-14105561D01*
X8858471Y-14105561D02*
X8848947Y-14076989D01*
X8848947Y-14076989D02*
X8839423Y-14057942D01*
X8839423Y-14057942D02*
X8820376Y-14029370D01*
X8820376Y-14029370D02*
X8810852Y-14019846D01*
X1764360Y-14576934D02*
X1864360Y-14476934D01*
X1764360Y-14376934D01*
X1664360Y-14476934D01*
X1764360Y-14576934D01*
X2210851Y-14435084D02*
X2210851Y-14568418D01*
X2163232Y-14358894D02*
X2115613Y-14501751D01*
X2115613Y-14501751D02*
X2239423Y-14501751D01*
X2315613Y-14549370D02*
X2325137Y-14558894D01*
X2325137Y-14558894D02*
X2315613Y-14568418D01*
X2315613Y-14568418D02*
X2306089Y-14558894D01*
X2306089Y-14558894D02*
X2315613Y-14549370D01*
X2315613Y-14549370D02*
X2315613Y-14568418D01*
X2515613Y-14568418D02*
X2401327Y-14568418D01*
X2458470Y-14568418D02*
X2458470Y-14368418D01*
X2458470Y-14368418D02*
X2439423Y-14396989D01*
X2439423Y-14396989D02*
X2420375Y-14416037D01*
X2420375Y-14416037D02*
X2401327Y-14425561D01*
X2639423Y-14368418D02*
X2658470Y-14368418D01*
X2658470Y-14368418D02*
X2677518Y-14377942D01*
X2677518Y-14377942D02*
X2687042Y-14387465D01*
X2687042Y-14387465D02*
X2696565Y-14406513D01*
X2696565Y-14406513D02*
X2706089Y-14444608D01*
X2706089Y-14444608D02*
X2706089Y-14492227D01*
X2706089Y-14492227D02*
X2696565Y-14530322D01*
X2696565Y-14530322D02*
X2687042Y-14549370D01*
X2687042Y-14549370D02*
X2677518Y-14558894D01*
X2677518Y-14558894D02*
X2658470Y-14568418D01*
X2658470Y-14568418D02*
X2639423Y-14568418D01*
X2639423Y-14568418D02*
X2620375Y-14558894D01*
X2620375Y-14558894D02*
X2610851Y-14549370D01*
X2610851Y-14549370D02*
X2601327Y-14530322D01*
X2601327Y-14530322D02*
X2591804Y-14492227D01*
X2591804Y-14492227D02*
X2591804Y-14444608D01*
X2591804Y-14444608D02*
X2601327Y-14406513D01*
X2601327Y-14406513D02*
X2610851Y-14387465D01*
X2610851Y-14387465D02*
X2620375Y-14377942D01*
X2620375Y-14377942D02*
X2639423Y-14368418D01*
X2829899Y-14368418D02*
X2848946Y-14368418D01*
X2848946Y-14368418D02*
X2867994Y-14377942D01*
X2867994Y-14377942D02*
X2877518Y-14387465D01*
X2877518Y-14387465D02*
X2887042Y-14406513D01*
X2887042Y-14406513D02*
X2896565Y-14444608D01*
X2896565Y-14444608D02*
X2896565Y-14492227D01*
X2896565Y-14492227D02*
X2887042Y-14530322D01*
X2887042Y-14530322D02*
X2877518Y-14549370D01*
X2877518Y-14549370D02*
X2867994Y-14558894D01*
X2867994Y-14558894D02*
X2848946Y-14568418D01*
X2848946Y-14568418D02*
X2829899Y-14568418D01*
X2829899Y-14568418D02*
X2810851Y-14558894D01*
X2810851Y-14558894D02*
X2801327Y-14549370D01*
X2801327Y-14549370D02*
X2791804Y-14530322D01*
X2791804Y-14530322D02*
X2782280Y-14492227D01*
X2782280Y-14492227D02*
X2782280Y-14444608D01*
X2782280Y-14444608D02*
X2791804Y-14406513D01*
X2791804Y-14406513D02*
X2801327Y-14387465D01*
X2801327Y-14387465D02*
X2810851Y-14377942D01*
X2810851Y-14377942D02*
X2829899Y-14368418D01*
X2982280Y-14568418D02*
X2982280Y-14435084D01*
X2982280Y-14454132D02*
X2991803Y-14444608D01*
X2991803Y-14444608D02*
X3010851Y-14435084D01*
X3010851Y-14435084D02*
X3039423Y-14435084D01*
X3039423Y-14435084D02*
X3058470Y-14444608D01*
X3058470Y-14444608D02*
X3067994Y-14463656D01*
X3067994Y-14463656D02*
X3067994Y-14568418D01*
X3067994Y-14463656D02*
X3077518Y-14444608D01*
X3077518Y-14444608D02*
X3096565Y-14435084D01*
X3096565Y-14435084D02*
X3125137Y-14435084D01*
X3125137Y-14435084D02*
X3144184Y-14444608D01*
X3144184Y-14444608D02*
X3153708Y-14463656D01*
X3153708Y-14463656D02*
X3153708Y-14568418D01*
X3248946Y-14568418D02*
X3248946Y-14435084D01*
X3248946Y-14454132D02*
X3258470Y-14444608D01*
X3258470Y-14444608D02*
X3277518Y-14435084D01*
X3277518Y-14435084D02*
X3306089Y-14435084D01*
X3306089Y-14435084D02*
X3325137Y-14444608D01*
X3325137Y-14444608D02*
X3334661Y-14463656D01*
X3334661Y-14463656D02*
X3334661Y-14568418D01*
X3334661Y-14463656D02*
X3344184Y-14444608D01*
X3344184Y-14444608D02*
X3363232Y-14435084D01*
X3363232Y-14435084D02*
X3391803Y-14435084D01*
X3391803Y-14435084D02*
X3410851Y-14444608D01*
X3410851Y-14444608D02*
X3420375Y-14463656D01*
X3420375Y-14463656D02*
X3420375Y-14568418D01*
X3810851Y-14358894D02*
X3639423Y-14616037D01*
X4067994Y-14368418D02*
X4087042Y-14368418D01*
X4087042Y-14368418D02*
X4106089Y-14377942D01*
X4106089Y-14377942D02*
X4115613Y-14387465D01*
X4115613Y-14387465D02*
X4125137Y-14406513D01*
X4125137Y-14406513D02*
X4134661Y-14444608D01*
X4134661Y-14444608D02*
X4134661Y-14492227D01*
X4134661Y-14492227D02*
X4125137Y-14530322D01*
X4125137Y-14530322D02*
X4115613Y-14549370D01*
X4115613Y-14549370D02*
X4106089Y-14558894D01*
X4106089Y-14558894D02*
X4087042Y-14568418D01*
X4087042Y-14568418D02*
X4067994Y-14568418D01*
X4067994Y-14568418D02*
X4048946Y-14558894D01*
X4048946Y-14558894D02*
X4039423Y-14549370D01*
X4039423Y-14549370D02*
X4029899Y-14530322D01*
X4029899Y-14530322D02*
X4020375Y-14492227D01*
X4020375Y-14492227D02*
X4020375Y-14444608D01*
X4020375Y-14444608D02*
X4029899Y-14406513D01*
X4029899Y-14406513D02*
X4039423Y-14387465D01*
X4039423Y-14387465D02*
X4048946Y-14377942D01*
X4048946Y-14377942D02*
X4067994Y-14368418D01*
X4220375Y-14549370D02*
X4229899Y-14558894D01*
X4229899Y-14558894D02*
X4220375Y-14568418D01*
X4220375Y-14568418D02*
X4210851Y-14558894D01*
X4210851Y-14558894D02*
X4220375Y-14549370D01*
X4220375Y-14549370D02*
X4220375Y-14568418D01*
X4420375Y-14568418D02*
X4306089Y-14568418D01*
X4363232Y-14568418D02*
X4363232Y-14368418D01*
X4363232Y-14368418D02*
X4344185Y-14396989D01*
X4344185Y-14396989D02*
X4325137Y-14416037D01*
X4325137Y-14416037D02*
X4306089Y-14425561D01*
X4591804Y-14368418D02*
X4553708Y-14368418D01*
X4553708Y-14368418D02*
X4534661Y-14377942D01*
X4534661Y-14377942D02*
X4525137Y-14387465D01*
X4525137Y-14387465D02*
X4506089Y-14416037D01*
X4506089Y-14416037D02*
X4496566Y-14454132D01*
X4496566Y-14454132D02*
X4496566Y-14530322D01*
X4496566Y-14530322D02*
X4506089Y-14549370D01*
X4506089Y-14549370D02*
X4515613Y-14558894D01*
X4515613Y-14558894D02*
X4534661Y-14568418D01*
X4534661Y-14568418D02*
X4572756Y-14568418D01*
X4572756Y-14568418D02*
X4591804Y-14558894D01*
X4591804Y-14558894D02*
X4601328Y-14549370D01*
X4601328Y-14549370D02*
X4610851Y-14530322D01*
X4610851Y-14530322D02*
X4610851Y-14482703D01*
X4610851Y-14482703D02*
X4601328Y-14463656D01*
X4601328Y-14463656D02*
X4591804Y-14454132D01*
X4591804Y-14454132D02*
X4572756Y-14444608D01*
X4572756Y-14444608D02*
X4534661Y-14444608D01*
X4534661Y-14444608D02*
X4515613Y-14454132D01*
X4515613Y-14454132D02*
X4506089Y-14463656D01*
X4506089Y-14463656D02*
X4496566Y-14482703D01*
X4801328Y-14568418D02*
X4687042Y-14568418D01*
X4744185Y-14568418D02*
X4744185Y-14368418D01*
X4744185Y-14368418D02*
X4725137Y-14396989D01*
X4725137Y-14396989D02*
X4706089Y-14416037D01*
X4706089Y-14416037D02*
X4687042Y-14425561D01*
X4972756Y-14435084D02*
X4972756Y-14568418D01*
X4925137Y-14358894D02*
X4877518Y-14501751D01*
X4877518Y-14501751D02*
X5001328Y-14501751D01*
X5067994Y-14368418D02*
X5067994Y-14406513D01*
X5144185Y-14368418D02*
X5144185Y-14406513D01*
X5439423Y-14644608D02*
X5429899Y-14635084D01*
X5429899Y-14635084D02*
X5410851Y-14606513D01*
X5410851Y-14606513D02*
X5401328Y-14587465D01*
X5401328Y-14587465D02*
X5391804Y-14558894D01*
X5391804Y-14558894D02*
X5382280Y-14511275D01*
X5382280Y-14511275D02*
X5382280Y-14473180D01*
X5382280Y-14473180D02*
X5391804Y-14425561D01*
X5391804Y-14425561D02*
X5401328Y-14396989D01*
X5401328Y-14396989D02*
X5410851Y-14377942D01*
X5410851Y-14377942D02*
X5429899Y-14349370D01*
X5429899Y-14349370D02*
X5439423Y-14339846D01*
X5506090Y-14387465D02*
X5515613Y-14377942D01*
X5515613Y-14377942D02*
X5534661Y-14368418D01*
X5534661Y-14368418D02*
X5582280Y-14368418D01*
X5582280Y-14368418D02*
X5601328Y-14377942D01*
X5601328Y-14377942D02*
X5610851Y-14387465D01*
X5610851Y-14387465D02*
X5620375Y-14406513D01*
X5620375Y-14406513D02*
X5620375Y-14425561D01*
X5620375Y-14425561D02*
X5610851Y-14454132D01*
X5610851Y-14454132D02*
X5496566Y-14568418D01*
X5496566Y-14568418D02*
X5620375Y-14568418D01*
X5810851Y-14568418D02*
X5696566Y-14568418D01*
X5753708Y-14568418D02*
X5753708Y-14368418D01*
X5753708Y-14368418D02*
X5734661Y-14396989D01*
X5734661Y-14396989D02*
X5715613Y-14416037D01*
X5715613Y-14416037D02*
X5696566Y-14425561D01*
X6048947Y-14568418D02*
X6048947Y-14368418D01*
X6134661Y-14568418D02*
X6134661Y-14463656D01*
X6134661Y-14463656D02*
X6125137Y-14444608D01*
X6125137Y-14444608D02*
X6106090Y-14435084D01*
X6106090Y-14435084D02*
X6077518Y-14435084D01*
X6077518Y-14435084D02*
X6058470Y-14444608D01*
X6058470Y-14444608D02*
X6048947Y-14454132D01*
X6258470Y-14568418D02*
X6239423Y-14558894D01*
X6239423Y-14558894D02*
X6229899Y-14549370D01*
X6229899Y-14549370D02*
X6220375Y-14530322D01*
X6220375Y-14530322D02*
X6220375Y-14473180D01*
X6220375Y-14473180D02*
X6229899Y-14454132D01*
X6229899Y-14454132D02*
X6239423Y-14444608D01*
X6239423Y-14444608D02*
X6258470Y-14435084D01*
X6258470Y-14435084D02*
X6287042Y-14435084D01*
X6287042Y-14435084D02*
X6306090Y-14444608D01*
X6306090Y-14444608D02*
X6315613Y-14454132D01*
X6315613Y-14454132D02*
X6325137Y-14473180D01*
X6325137Y-14473180D02*
X6325137Y-14530322D01*
X6325137Y-14530322D02*
X6315613Y-14549370D01*
X6315613Y-14549370D02*
X6306090Y-14558894D01*
X6306090Y-14558894D02*
X6287042Y-14568418D01*
X6287042Y-14568418D02*
X6258470Y-14568418D01*
X6439423Y-14568418D02*
X6420375Y-14558894D01*
X6420375Y-14558894D02*
X6410851Y-14539846D01*
X6410851Y-14539846D02*
X6410851Y-14368418D01*
X6591804Y-14558894D02*
X6572756Y-14568418D01*
X6572756Y-14568418D02*
X6534661Y-14568418D01*
X6534661Y-14568418D02*
X6515613Y-14558894D01*
X6515613Y-14558894D02*
X6506090Y-14539846D01*
X6506090Y-14539846D02*
X6506090Y-14463656D01*
X6506090Y-14463656D02*
X6515613Y-14444608D01*
X6515613Y-14444608D02*
X6534661Y-14435084D01*
X6534661Y-14435084D02*
X6572756Y-14435084D01*
X6572756Y-14435084D02*
X6591804Y-14444608D01*
X6591804Y-14444608D02*
X6601328Y-14463656D01*
X6601328Y-14463656D02*
X6601328Y-14482703D01*
X6601328Y-14482703D02*
X6506090Y-14501751D01*
X6677518Y-14558894D02*
X6696566Y-14568418D01*
X6696566Y-14568418D02*
X6734661Y-14568418D01*
X6734661Y-14568418D02*
X6753709Y-14558894D01*
X6753709Y-14558894D02*
X6763232Y-14539846D01*
X6763232Y-14539846D02*
X6763232Y-14530322D01*
X6763232Y-14530322D02*
X6753709Y-14511275D01*
X6753709Y-14511275D02*
X6734661Y-14501751D01*
X6734661Y-14501751D02*
X6706090Y-14501751D01*
X6706090Y-14501751D02*
X6687042Y-14492227D01*
X6687042Y-14492227D02*
X6677518Y-14473180D01*
X6677518Y-14473180D02*
X6677518Y-14463656D01*
X6677518Y-14463656D02*
X6687042Y-14444608D01*
X6687042Y-14444608D02*
X6706090Y-14435084D01*
X6706090Y-14435084D02*
X6734661Y-14435084D01*
X6734661Y-14435084D02*
X6753709Y-14444608D01*
X6829899Y-14644608D02*
X6839423Y-14635084D01*
X6839423Y-14635084D02*
X6858471Y-14606513D01*
X6858471Y-14606513D02*
X6867994Y-14587465D01*
X6867994Y-14587465D02*
X6877518Y-14558894D01*
X6877518Y-14558894D02*
X6887042Y-14511275D01*
X6887042Y-14511275D02*
X6887042Y-14473180D01*
X6887042Y-14473180D02*
X6877518Y-14425561D01*
X6877518Y-14425561D02*
X6867994Y-14396989D01*
X6867994Y-14396989D02*
X6858471Y-14377942D01*
X6858471Y-14377942D02*
X6839423Y-14349370D01*
X6839423Y-14349370D02*
X6829899Y-14339846D01*
X7191804Y-14644608D02*
X7182280Y-14635084D01*
X7182280Y-14635084D02*
X7163232Y-14606513D01*
X7163232Y-14606513D02*
X7153709Y-14587465D01*
X7153709Y-14587465D02*
X7144185Y-14558894D01*
X7144185Y-14558894D02*
X7134661Y-14511275D01*
X7134661Y-14511275D02*
X7134661Y-14473180D01*
X7134661Y-14473180D02*
X7144185Y-14425561D01*
X7144185Y-14425561D02*
X7153709Y-14396989D01*
X7153709Y-14396989D02*
X7163232Y-14377942D01*
X7163232Y-14377942D02*
X7182280Y-14349370D01*
X7182280Y-14349370D02*
X7191804Y-14339846D01*
X7267994Y-14435084D02*
X7267994Y-14568418D01*
X7267994Y-14454132D02*
X7277518Y-14444608D01*
X7277518Y-14444608D02*
X7296566Y-14435084D01*
X7296566Y-14435084D02*
X7325137Y-14435084D01*
X7325137Y-14435084D02*
X7344185Y-14444608D01*
X7344185Y-14444608D02*
X7353709Y-14463656D01*
X7353709Y-14463656D02*
X7353709Y-14568418D01*
X7477518Y-14568418D02*
X7458471Y-14558894D01*
X7458471Y-14558894D02*
X7448947Y-14549370D01*
X7448947Y-14549370D02*
X7439423Y-14530322D01*
X7439423Y-14530322D02*
X7439423Y-14473180D01*
X7439423Y-14473180D02*
X7448947Y-14454132D01*
X7448947Y-14454132D02*
X7458471Y-14444608D01*
X7458471Y-14444608D02*
X7477518Y-14435084D01*
X7477518Y-14435084D02*
X7506090Y-14435084D01*
X7506090Y-14435084D02*
X7525137Y-14444608D01*
X7525137Y-14444608D02*
X7534661Y-14454132D01*
X7534661Y-14454132D02*
X7544185Y-14473180D01*
X7544185Y-14473180D02*
X7544185Y-14530322D01*
X7544185Y-14530322D02*
X7534661Y-14549370D01*
X7534661Y-14549370D02*
X7525137Y-14558894D01*
X7525137Y-14558894D02*
X7506090Y-14568418D01*
X7506090Y-14568418D02*
X7477518Y-14568418D01*
X7601328Y-14435084D02*
X7677518Y-14435084D01*
X7629899Y-14368418D02*
X7629899Y-14539846D01*
X7629899Y-14539846D02*
X7639423Y-14558894D01*
X7639423Y-14558894D02*
X7658471Y-14568418D01*
X7658471Y-14568418D02*
X7677518Y-14568418D01*
X7896566Y-14435084D02*
X7896566Y-14635084D01*
X7896566Y-14444608D02*
X7915613Y-14435084D01*
X7915613Y-14435084D02*
X7953709Y-14435084D01*
X7953709Y-14435084D02*
X7972756Y-14444608D01*
X7972756Y-14444608D02*
X7982280Y-14454132D01*
X7982280Y-14454132D02*
X7991804Y-14473180D01*
X7991804Y-14473180D02*
X7991804Y-14530322D01*
X7991804Y-14530322D02*
X7982280Y-14549370D01*
X7982280Y-14549370D02*
X7972756Y-14558894D01*
X7972756Y-14558894D02*
X7953709Y-14568418D01*
X7953709Y-14568418D02*
X7915613Y-14568418D01*
X7915613Y-14568418D02*
X7896566Y-14558894D01*
X8106090Y-14568418D02*
X8087042Y-14558894D01*
X8087042Y-14558894D02*
X8077518Y-14539846D01*
X8077518Y-14539846D02*
X8077518Y-14368418D01*
X8267994Y-14568418D02*
X8267994Y-14463656D01*
X8267994Y-14463656D02*
X8258471Y-14444608D01*
X8258471Y-14444608D02*
X8239423Y-14435084D01*
X8239423Y-14435084D02*
X8201328Y-14435084D01*
X8201328Y-14435084D02*
X8182280Y-14444608D01*
X8267994Y-14558894D02*
X8248947Y-14568418D01*
X8248947Y-14568418D02*
X8201328Y-14568418D01*
X8201328Y-14568418D02*
X8182280Y-14558894D01*
X8182280Y-14558894D02*
X8172756Y-14539846D01*
X8172756Y-14539846D02*
X8172756Y-14520799D01*
X8172756Y-14520799D02*
X8182280Y-14501751D01*
X8182280Y-14501751D02*
X8201328Y-14492227D01*
X8201328Y-14492227D02*
X8248947Y-14492227D01*
X8248947Y-14492227D02*
X8267994Y-14482703D01*
X8334661Y-14435084D02*
X8410852Y-14435084D01*
X8363233Y-14368418D02*
X8363233Y-14539846D01*
X8363233Y-14539846D02*
X8372756Y-14558894D01*
X8372756Y-14558894D02*
X8391804Y-14568418D01*
X8391804Y-14568418D02*
X8410852Y-14568418D01*
X8553709Y-14558894D02*
X8534661Y-14568418D01*
X8534661Y-14568418D02*
X8496566Y-14568418D01*
X8496566Y-14568418D02*
X8477518Y-14558894D01*
X8477518Y-14558894D02*
X8467995Y-14539846D01*
X8467995Y-14539846D02*
X8467995Y-14463656D01*
X8467995Y-14463656D02*
X8477518Y-14444608D01*
X8477518Y-14444608D02*
X8496566Y-14435084D01*
X8496566Y-14435084D02*
X8534661Y-14435084D01*
X8534661Y-14435084D02*
X8553709Y-14444608D01*
X8553709Y-14444608D02*
X8563233Y-14463656D01*
X8563233Y-14463656D02*
X8563233Y-14482703D01*
X8563233Y-14482703D02*
X8467995Y-14501751D01*
X8734661Y-14568418D02*
X8734661Y-14368418D01*
X8734661Y-14558894D02*
X8715614Y-14568418D01*
X8715614Y-14568418D02*
X8677518Y-14568418D01*
X8677518Y-14568418D02*
X8658471Y-14558894D01*
X8658471Y-14558894D02*
X8648947Y-14549370D01*
X8648947Y-14549370D02*
X8639423Y-14530322D01*
X8639423Y-14530322D02*
X8639423Y-14473180D01*
X8639423Y-14473180D02*
X8648947Y-14454132D01*
X8648947Y-14454132D02*
X8658471Y-14444608D01*
X8658471Y-14444608D02*
X8677518Y-14435084D01*
X8677518Y-14435084D02*
X8715614Y-14435084D01*
X8715614Y-14435084D02*
X8734661Y-14444608D01*
X8810852Y-14644608D02*
X8820376Y-14635084D01*
X8820376Y-14635084D02*
X8839423Y-14606513D01*
X8839423Y-14606513D02*
X8848947Y-14587465D01*
X8848947Y-14587465D02*
X8858471Y-14558894D01*
X8858471Y-14558894D02*
X8867995Y-14511275D01*
X8867995Y-14511275D02*
X8867995Y-14473180D01*
X8867995Y-14473180D02*
X8858471Y-14425561D01*
X8858471Y-14425561D02*
X8848947Y-14396989D01*
X8848947Y-14396989D02*
X8839423Y-14377942D01*
X8839423Y-14377942D02*
X8820376Y-14349370D01*
X8820376Y-14349370D02*
X8810852Y-14339846D01*
M02*
