M48
; DRILL file {KiCad 8.0.1} date 2024-06-19T22:03:27+0200
; FORMAT={-:-/ absolute / metric / decimal}
; #@! TF.CreationDate,2024-06-19T22:03:27+02:00
; #@! TF.GenerationSoftware,Kicad,Pcbnew,8.0.1
; #@! TF.FileFunction,NonPlated,1,2,NPTH
FMAT,2
METRIC
; #@! TA.AperFunction,NonPlated,NPTH,ComponentDrill
T1C1.200
; #@! TA.AperFunction,NonPlated,NPTH,ComponentDrill
T2C1.900
; #@! TA.AperFunction,NonPlated,NPTH,ComponentDrill
T3C3.000
; #@! TA.AperFunction,NonPlated,NPTH,ComponentDrill
T4C4.100
%
G90
G05
T1
X149.169Y-73.289
X149.169Y-77.489
X156.169Y-73.289
X156.169Y-77.489
T2
X25.089Y-54.689
X25.089Y-73.689
X25.089Y-92.689
X35.249Y-54.689
X35.249Y-73.689
X35.249Y-92.689
X44.089Y-47.689
X44.089Y-66.689
X44.089Y-85.689
X54.249Y-47.689
X54.249Y-66.689
X54.249Y-85.689
X63.089Y-35.189
X63.089Y-54.189
X63.089Y-73.189
X73.249Y-35.189
X73.249Y-54.189
X73.249Y-73.189
X82.089Y-30.189
X82.089Y-49.189
X82.089Y-68.189
X92.249Y-30.189
X92.249Y-49.189
X92.249Y-68.189
X101.089Y-35.189
X101.089Y-54.189
X101.089Y-73.189
X111.249Y-35.189
X111.249Y-54.189
X111.249Y-73.189
X120.089Y-37.689
X120.089Y-56.689
X120.089Y-75.689
X120.573Y-97.712
X130.249Y-37.689
X130.249Y-56.689
X130.249Y-75.689
X130.584Y-99.446
X140.378Y-101.999
X149.959Y-105.379
X159.197Y-109.534
X168.08Y-114.464
T3
X26.369Y-52.139
X26.369Y-71.139
X26.369Y-90.139
X27.629Y-49.609
X27.629Y-68.609
X27.629Y-87.609
X32.711Y-49.589
X32.711Y-68.589
X32.711Y-87.589
X33.979Y-52.149
X33.979Y-71.149
X33.979Y-90.149
X45.369Y-45.139
X45.369Y-64.139
X45.369Y-83.139
X46.629Y-42.609
X46.629Y-61.609
X46.629Y-80.609
X51.711Y-42.589
X51.711Y-61.589
X51.711Y-80.589
X52.979Y-45.149
X52.979Y-64.149
X52.979Y-83.149
X64.369Y-32.639
X64.369Y-51.639
X64.369Y-70.639
X65.629Y-30.109
X65.629Y-49.109
X65.629Y-68.109
X70.711Y-30.089
X70.711Y-49.089
X70.711Y-68.089
X71.979Y-32.649
X71.979Y-51.649
X71.979Y-70.649
X83.369Y-27.639
X83.369Y-46.639
X83.369Y-65.639
X84.629Y-25.109
X84.629Y-44.109
X84.629Y-63.109
X89.711Y-25.089
X89.711Y-44.089
X89.711Y-63.089
X90.979Y-27.649
X90.979Y-46.649
X90.979Y-65.649
X102.369Y-32.639
X102.369Y-51.639
X102.369Y-70.639
X103.629Y-30.109
X103.629Y-49.109
X103.629Y-68.109
X108.711Y-30.089
X108.711Y-49.089
X108.711Y-68.089
X109.979Y-32.649
X109.979Y-51.649
X109.979Y-70.649
X121.369Y-35.139
X121.369Y-54.139
X121.369Y-73.139
X122.27Y-95.417
X122.629Y-32.609
X122.629Y-51.609
X122.629Y-70.609
X123.943Y-93.14
X127.711Y-32.589
X127.711Y-51.589
X127.711Y-70.589
X128.954Y-93.988
X128.979Y-35.149
X128.979Y-54.149
X128.979Y-73.149
X129.766Y-96.726
X142.433Y-100.02
X144.463Y-98.053
X149.263Y-99.725
X149.607Y-102.561
X161.553Y-107.925
X163.883Y-106.324
X168.203Y-111.627
X168.336Y-108.773
T4
X30.169Y-54.689
X30.169Y-73.689
X30.169Y-92.689
X49.169Y-47.689
X49.169Y-66.689
X49.169Y-85.689
X68.169Y-35.189
X68.169Y-54.189
X68.169Y-73.189
X87.169Y-30.189
X87.169Y-49.189
X87.169Y-68.189
X106.169Y-35.189
X106.169Y-54.189
X106.169Y-73.189
X125.169Y-37.689
X125.169Y-56.689
X125.169Y-75.689
X125.579Y-98.579
X145.169Y-103.689
X163.639Y-111.999
M30
