G04 #@! TF.GenerationSoftware,KiCad,Pcbnew,8.0.1*
G04 #@! TF.CreationDate,2024-06-08T21:10:00+02:00*
G04 #@! TF.ProjectId,cornia,636f726e-6961-42e6-9b69-6361645f7063,rev?*
G04 #@! TF.SameCoordinates,Original*
G04 #@! TF.FileFunction,Soldermask,Top*
G04 #@! TF.FilePolarity,Negative*
%FSLAX46Y46*%
G04 Gerber Fmt 4.6, Leading zero omitted, Abs format (unit mm)*
G04 Created by KiCad (PCBNEW 8.0.1) date 2024-06-08 21:10:00*
%MOMM*%
%LPD*%
G01*
G04 APERTURE LIST*
G04 Aperture macros list*
%AMRoundRect*
0 Rectangle with rounded corners*
0 $1 Rounding radius*
0 $2 $3 $4 $5 $6 $7 $8 $9 X,Y pos of 4 corners*
0 Add a 4 corners polygon primitive as box body*
4,1,4,$2,$3,$4,$5,$6,$7,$8,$9,$2,$3,0*
0 Add four circle primitives for the rounded corners*
1,1,$1+$1,$2,$3*
1,1,$1+$1,$4,$5*
1,1,$1+$1,$6,$7*
1,1,$1+$1,$8,$9*
0 Add four rect primitives between the rounded corners*
20,1,$1+$1,$2,$3,$4,$5,0*
20,1,$1+$1,$4,$5,$6,$7,0*
20,1,$1+$1,$6,$7,$8,$9,0*
20,1,$1+$1,$8,$9,$2,$3,0*%
%AMRotRect*
0 Rectangle, with rotation*
0 The origin of the aperture is its center*
0 $1 length*
0 $2 width*
0 $3 Rotation angle, in degrees counterclockwise*
0 Add horizontal line*
21,1,$1,$2,0,0,$3*%
%AMOutline5P*
0 Free polygon, 5 corners , with rotation*
0 The origin of the aperture is its center*
0 number of corners: always 5*
0 $1 to $10 corner X, Y*
0 $11 Rotation angle, in degrees counterclockwise*
0 create outline with 5 corners*
4,1,5,$1,$2,$3,$4,$5,$6,$7,$8,$9,$10,$1,$2,$11*%
%AMOutline6P*
0 Free polygon, 6 corners , with rotation*
0 The origin of the aperture is its center*
0 number of corners: always 6*
0 $1 to $12 corner X, Y*
0 $13 Rotation angle, in degrees counterclockwise*
0 create outline with 6 corners*
4,1,6,$1,$2,$3,$4,$5,$6,$7,$8,$9,$10,$11,$12,$1,$2,$13*%
%AMOutline7P*
0 Free polygon, 7 corners , with rotation*
0 The origin of the aperture is its center*
0 number of corners: always 7*
0 $1 to $14 corner X, Y*
0 $15 Rotation angle, in degrees counterclockwise*
0 create outline with 7 corners*
4,1,7,$1,$2,$3,$4,$5,$6,$7,$8,$9,$10,$11,$12,$13,$14,$1,$2,$15*%
%AMOutline8P*
0 Free polygon, 8 corners , with rotation*
0 The origin of the aperture is its center*
0 number of corners: always 8*
0 $1 to $16 corner X, Y*
0 $17 Rotation angle, in degrees counterclockwise*
0 create outline with 8 corners*
4,1,8,$1,$2,$3,$4,$5,$6,$7,$8,$9,$10,$11,$12,$13,$14,$15,$16,$1,$2,$17*%
%AMFreePoly0*
4,1,19,0.500000,-0.750000,0.000000,-0.750000,0.000000,-0.744911,-0.071157,-0.744911,-0.207708,-0.704816,-0.327430,-0.627875,-0.420627,-0.520320,-0.479746,-0.390866,-0.500000,-0.250000,-0.500000,0.250000,-0.479746,0.390866,-0.420627,0.520320,-0.327430,0.627875,-0.207708,0.704816,-0.071157,0.744911,0.000000,0.744911,0.000000,0.750000,0.500000,0.750000,0.500000,-0.750000,0.500000,-0.750000,
$1*%
%AMFreePoly1*
4,1,19,0.000000,0.744911,0.071157,0.744911,0.207708,0.704816,0.327430,0.627875,0.420627,0.520320,0.479746,0.390866,0.500000,0.250000,0.500000,-0.250000,0.479746,-0.390866,0.420627,-0.520320,0.327430,-0.627875,0.207708,-0.704816,0.071157,-0.744911,0.000000,-0.744911,0.000000,-0.750000,-0.500000,-0.750000,-0.500000,0.750000,0.000000,0.750000,0.000000,0.744911,0.000000,0.744911,
$1*%
G04 Aperture macros list end*
%ADD10FreePoly0,270.000000*%
%ADD11FreePoly1,270.000000*%
%ADD12C,1.900000*%
%ADD13C,3.000000*%
%ADD14C,4.100000*%
%ADD15R,2.550000X2.500000*%
%ADD16Outline5P,-1.275000X0.800000X-0.825000X1.250000X1.275000X1.250000X1.275000X-1.250000X-1.275000X-1.250000X180.000000*%
%ADD17RoundRect,0.250000X-0.475000X0.337500X-0.475000X-0.337500X0.475000X-0.337500X0.475000X0.337500X0*%
%ADD18R,1.540000X0.825000*%
%ADD19R,1.540000X0.822500*%
%ADD20R,2.800000X1.000000*%
%ADD21RotRect,1.540000X0.825000X150.970000*%
%ADD22RotRect,1.540000X0.822500X150.970000*%
%ADD23RotRect,2.550000X2.500000X150.970000*%
%ADD24Outline5P,-1.275000X0.800000X-0.825000X1.250000X1.275000X1.250000X1.275000X-1.250000X-1.275000X-1.250000X150.970000*%
%ADD25C,5.000000*%
%ADD26RoundRect,0.400000X-0.650000X-0.650000X0.650000X-0.650000X0.650000X0.650000X-0.650000X0.650000X0*%
%ADD27RotRect,1.540000X0.825000X170.170000*%
%ADD28RotRect,1.540000X0.822500X170.170000*%
%ADD29RotRect,2.550000X2.500000X160.570000*%
%ADD30Outline5P,-1.275000X0.800000X-0.825000X1.250000X1.275000X1.250000X1.275000X-1.250000X-1.275000X-1.250000X160.570000*%
%ADD31C,1.400000*%
%ADD32C,1.200000*%
%ADD33O,2.500000X1.700000*%
%ADD34RotRect,1.540000X0.825000X160.570000*%
%ADD35RotRect,1.540000X0.822500X160.570000*%
%ADD36RoundRect,0.250000X0.350000X0.450000X-0.350000X0.450000X-0.350000X-0.450000X0.350000X-0.450000X0*%
%ADD37RotRect,2.550000X2.500000X170.171000*%
%ADD38Outline5P,-1.275000X0.800000X-0.825000X1.250000X1.275000X1.250000X1.275000X-1.250000X-1.275000X-1.250000X170.171000*%
%ADD39R,1.752600X1.752600*%
%ADD40C,1.752600*%
%ADD41RoundRect,0.250000X-0.350000X-0.450000X0.350000X-0.450000X0.350000X0.450000X-0.350000X0.450000X0*%
G04 APERTURE END LIST*
D10*
X144000000Y-62550000D03*
D11*
X144000000Y-63850000D03*
D12*
X25088600Y-92688750D03*
D13*
X26368600Y-90138750D03*
X27628600Y-87608750D03*
D14*
X30168600Y-92688750D03*
D13*
X32710912Y-87588750D03*
X33978600Y-90148750D03*
D12*
X35248600Y-92688750D03*
D15*
X37253600Y-90148750D03*
D16*
X24326600Y-87608750D03*
D12*
X120088600Y-75688750D03*
D13*
X121368600Y-73138750D03*
X122628600Y-70608750D03*
D14*
X125168600Y-75688750D03*
D13*
X127710912Y-70588750D03*
X128978600Y-73148750D03*
D12*
X130248600Y-75688750D03*
D15*
X132253600Y-73148750D03*
D16*
X119326600Y-70608750D03*
D17*
X132973660Y-85067028D03*
X132973660Y-87142028D03*
D18*
X27288600Y-79138750D03*
X27288600Y-77738750D03*
X33048600Y-77738750D03*
D19*
X33048600Y-79140000D03*
D12*
X25088600Y-73688750D03*
D13*
X26368600Y-71138750D03*
X27628600Y-68608750D03*
D14*
X30168600Y-73688750D03*
D13*
X32710912Y-68588750D03*
X33978600Y-71148750D03*
D12*
X35248600Y-73688750D03*
D15*
X37253600Y-71148750D03*
D16*
X24326600Y-68608750D03*
D20*
X152468600Y-89088750D03*
X146668600Y-89088750D03*
X152468600Y-85088750D03*
X146668600Y-85088750D03*
D21*
X158475718Y-115366473D03*
X159155093Y-114142361D03*
X164191440Y-116937501D03*
D22*
X163511458Y-118162706D03*
D10*
X146800000Y-62550000D03*
D11*
X146800000Y-63850000D03*
D18*
X46288600Y-53138750D03*
X46288600Y-51738750D03*
X52048600Y-51738750D03*
D19*
X52048600Y-53140000D03*
D12*
X159196822Y-109533591D03*
D13*
X161553442Y-107925101D03*
X163882870Y-106324393D03*
D14*
X163638600Y-111998750D03*
D13*
X168336375Y-108773186D03*
X168202513Y-111626730D03*
D12*
X168080378Y-114463909D03*
D23*
X171066061Y-113215981D03*
D24*
X160995714Y-104722039D03*
D25*
X87668600Y-80938750D03*
D18*
X103288600Y-78638750D03*
X103288600Y-77238750D03*
X109048600Y-77238750D03*
D19*
X109048600Y-78640000D03*
D10*
X135250000Y-72350000D03*
D11*
X135250000Y-73650000D03*
D26*
X22400000Y-61200000D03*
D25*
X72918600Y-22438750D03*
D18*
X84288600Y-73638750D03*
X84288600Y-72238750D03*
X90048600Y-72238750D03*
D19*
X90048600Y-73640000D03*
D18*
X122288600Y-43138750D03*
X122288600Y-41738750D03*
X128048600Y-41738750D03*
D19*
X128048600Y-43140000D03*
D25*
X138168600Y-87438750D03*
D27*
X121810429Y-103457048D03*
X122049444Y-102077602D03*
X127724879Y-103060980D03*
D28*
X127485650Y-104441658D03*
D12*
X82088600Y-30188750D03*
D13*
X83368600Y-27638750D03*
X84628600Y-25108750D03*
D14*
X87168600Y-30188750D03*
D13*
X89710912Y-25088750D03*
X90978600Y-27648750D03*
D12*
X92248600Y-30188750D03*
D15*
X94253600Y-27648750D03*
D16*
X81326600Y-25108750D03*
D18*
X65288600Y-59638750D03*
X65288600Y-58238750D03*
X71048600Y-58238750D03*
D19*
X71048600Y-59640000D03*
D12*
X140377913Y-101998863D03*
D13*
X142433285Y-100019887D03*
X144463144Y-98053119D03*
D14*
X145168600Y-103688750D03*
D13*
X149262664Y-99724915D03*
X149606559Y-102560822D03*
D12*
X149959287Y-105378637D03*
D29*
X152695043Y-103650267D03*
D30*
X141349197Y-96954693D03*
D12*
X63088600Y-35188750D03*
D13*
X64368600Y-32638750D03*
X65628600Y-30108750D03*
D14*
X68168600Y-35188750D03*
D13*
X70710912Y-30088750D03*
X71978600Y-32648750D03*
D12*
X73248600Y-35188750D03*
D15*
X75253600Y-32648750D03*
D16*
X62326600Y-30108750D03*
D12*
X82088600Y-68188750D03*
D13*
X83368600Y-65638750D03*
X84628600Y-63108750D03*
D14*
X87168600Y-68188750D03*
D13*
X89710912Y-63088750D03*
X90978600Y-65648750D03*
D12*
X92248600Y-68188750D03*
D15*
X94253600Y-65648750D03*
D16*
X81326600Y-63108750D03*
D31*
X141588600Y-65708750D03*
X144128600Y-65708750D03*
X146668600Y-65708750D03*
X149208600Y-65708750D03*
D25*
X36168600Y-41688750D03*
D12*
X44088600Y-85688750D03*
D13*
X45368600Y-83138750D03*
X46628600Y-80608750D03*
D14*
X49168600Y-85688750D03*
D13*
X51710912Y-80588750D03*
X52978600Y-83148750D03*
D12*
X54248600Y-85688750D03*
D15*
X56253600Y-83148750D03*
D16*
X43326600Y-80608750D03*
D32*
X154168600Y-73288750D03*
X147168600Y-73288750D03*
X154168600Y-77488750D03*
X147168600Y-77488750D03*
D33*
X145368600Y-75388750D03*
X149368600Y-75388750D03*
X152368600Y-75388750D03*
X143868600Y-71188750D03*
X143868600Y-79588750D03*
D10*
X138000000Y-72350000D03*
D11*
X138000000Y-73650000D03*
D18*
X84288600Y-54638750D03*
X84288600Y-53238750D03*
X90048600Y-53238750D03*
D19*
X90048600Y-54640000D03*
D12*
X120088600Y-37688750D03*
D13*
X121368600Y-35138750D03*
X122628600Y-32608750D03*
D14*
X125168600Y-37688750D03*
D13*
X127710912Y-32588750D03*
X128978600Y-35148750D03*
D12*
X130248600Y-37688750D03*
D15*
X132253600Y-35148750D03*
D16*
X119326600Y-32608750D03*
D18*
X122288600Y-81138750D03*
X122288600Y-79738750D03*
X128048600Y-79738750D03*
D19*
X128048600Y-81140000D03*
D34*
X140639651Y-107870319D03*
X141105367Y-106550051D03*
X146537327Y-108466143D03*
D35*
X146071195Y-109787590D03*
D18*
X65288600Y-78638750D03*
X65288600Y-77238750D03*
X71048600Y-77238750D03*
D19*
X71048600Y-78640000D03*
D36*
X147168600Y-33288750D03*
X145168600Y-33288750D03*
D12*
X63088600Y-54188750D03*
D13*
X64368600Y-51638750D03*
X65628600Y-49108750D03*
D14*
X68168600Y-54188750D03*
D13*
X70710912Y-49088750D03*
X71978600Y-51648750D03*
D12*
X73248600Y-54188750D03*
D15*
X75253600Y-51648750D03*
D16*
X62326600Y-49108750D03*
D12*
X101088600Y-73188750D03*
D13*
X102368600Y-70638750D03*
X103628600Y-68108750D03*
D14*
X106168600Y-73188750D03*
D13*
X108710912Y-68088750D03*
X109978600Y-70648750D03*
D12*
X111248600Y-73188750D03*
D15*
X113253600Y-70648750D03*
D16*
X100326600Y-68108750D03*
D18*
X65288600Y-40638750D03*
X65288600Y-39238750D03*
X71048600Y-39238750D03*
D19*
X71048600Y-40640000D03*
D12*
X101088600Y-35188750D03*
D13*
X102368600Y-32638750D03*
X103628600Y-30108750D03*
D14*
X106168600Y-35188750D03*
D13*
X108710912Y-30088750D03*
X109978600Y-32648750D03*
D12*
X111248600Y-35188750D03*
D15*
X113253600Y-32648750D03*
D16*
X100326600Y-30108750D03*
D12*
X120573166Y-97711552D03*
D13*
X122269684Y-95417489D03*
X123943081Y-93139717D03*
D14*
X125578600Y-98578750D03*
D13*
X128954207Y-93987603D03*
X129766274Y-96726431D03*
D12*
X130584034Y-99445948D03*
D37*
X132993203Y-97285501D03*
D38*
X120689549Y-92576039D03*
D12*
X120088600Y-56688750D03*
D13*
X121368600Y-54138750D03*
X122628600Y-51608750D03*
D14*
X125168600Y-56688750D03*
D13*
X127710912Y-51588750D03*
X128978600Y-54148750D03*
D12*
X130248600Y-56688750D03*
D15*
X132253600Y-54148750D03*
D16*
X119326600Y-51608750D03*
D12*
X25088600Y-54688750D03*
D13*
X26368600Y-52138750D03*
X27628600Y-49608750D03*
D14*
X30168600Y-54688750D03*
D13*
X32710912Y-49588750D03*
X33978600Y-52148750D03*
D12*
X35248600Y-54688750D03*
D15*
X37253600Y-52148750D03*
D16*
X24326600Y-49608750D03*
D10*
X140750000Y-72350000D03*
D11*
X140750000Y-73650000D03*
D18*
X103288600Y-59638750D03*
X103288600Y-58238750D03*
X109048600Y-58238750D03*
D19*
X109048600Y-59640000D03*
D25*
X43418600Y-98438750D03*
D12*
X44088600Y-66688750D03*
D13*
X45368600Y-64138750D03*
X46628600Y-61608750D03*
D14*
X49168600Y-66688750D03*
D13*
X51710912Y-61588750D03*
X52978600Y-64148750D03*
D12*
X54248600Y-66688750D03*
D15*
X56253600Y-64148750D03*
D16*
X43326600Y-61608750D03*
D18*
X103288600Y-40638750D03*
X103288600Y-39238750D03*
X109048600Y-39238750D03*
D19*
X109048600Y-40640000D03*
D18*
X122288600Y-62138750D03*
X122288600Y-60738750D03*
X128048600Y-60738750D03*
D19*
X128048600Y-62140000D03*
D12*
X44088600Y-47688750D03*
D13*
X45368600Y-45138750D03*
X46628600Y-42608750D03*
D14*
X49168600Y-47688750D03*
D13*
X51710912Y-42588750D03*
X52978600Y-45148750D03*
D12*
X54248600Y-47688750D03*
D15*
X56253600Y-45148750D03*
D16*
X43326600Y-42608750D03*
D18*
X27288600Y-98138750D03*
X27288600Y-96738750D03*
X33048600Y-96738750D03*
D19*
X33048600Y-98140000D03*
D18*
X46288600Y-91138750D03*
X46288600Y-89738750D03*
X52048600Y-89738750D03*
D19*
X52048600Y-91140000D03*
D18*
X46288600Y-72138750D03*
X46288600Y-70738750D03*
X52048600Y-70738750D03*
D19*
X52048600Y-72140000D03*
D25*
X118918600Y-24938750D03*
D12*
X63088600Y-73188750D03*
D13*
X64368600Y-70638750D03*
X65628600Y-68108750D03*
D14*
X68168600Y-73188750D03*
D13*
X70710912Y-68088750D03*
X71978600Y-70648750D03*
D12*
X73248600Y-73188750D03*
D15*
X75253600Y-70648750D03*
D16*
X62326600Y-68108750D03*
D36*
X147168600Y-35288750D03*
X145168600Y-35288750D03*
D18*
X27288600Y-60138750D03*
X27288600Y-58738750D03*
X33048600Y-58738750D03*
D19*
X33048600Y-60140000D03*
D39*
X137798600Y-28198650D03*
D40*
X137798600Y-30738750D03*
X137798600Y-33278750D03*
X137798600Y-35818750D03*
X137798600Y-38358750D03*
X137798600Y-40898750D03*
X137798600Y-43438750D03*
X137798600Y-45978750D03*
X137798600Y-48518750D03*
X137798600Y-51058750D03*
X137798600Y-53598750D03*
X137798600Y-56138750D03*
X137798200Y-58678750D03*
X140338600Y-58678750D03*
X142878600Y-58678750D03*
X145418600Y-58678750D03*
X147958600Y-58678750D03*
X150498600Y-58678750D03*
X153038600Y-58678750D03*
X153038600Y-56138750D03*
X153038600Y-53598750D03*
X153038600Y-51058750D03*
X153038600Y-48518750D03*
X153038600Y-45978750D03*
X153038600Y-43438750D03*
X153038600Y-40898750D03*
X153038600Y-38358750D03*
X153038600Y-35818750D03*
X153038600Y-33278750D03*
X153038600Y-30738750D03*
X153038600Y-28198650D03*
X140338600Y-56138750D03*
D12*
X101088600Y-54188750D03*
D13*
X102368600Y-51638750D03*
X103628600Y-49108750D03*
D14*
X106168600Y-54188750D03*
D13*
X108710912Y-49088750D03*
X109978600Y-51648750D03*
D12*
X111248600Y-54188750D03*
D15*
X113253600Y-51648750D03*
D16*
X100326600Y-49108750D03*
D18*
X84288600Y-35638750D03*
X84288600Y-34238750D03*
X90048600Y-34238750D03*
D19*
X90048600Y-35640000D03*
D41*
X141400000Y-51000000D03*
X143400000Y-51000000D03*
D12*
X82088600Y-49188750D03*
D13*
X83368600Y-46638750D03*
X84628600Y-44108750D03*
D14*
X87168600Y-49188750D03*
D13*
X89710912Y-44088750D03*
X90978600Y-46648750D03*
D12*
X92248600Y-49188750D03*
D15*
X94253600Y-46648750D03*
D16*
X81326600Y-44108750D03*
D10*
X141200000Y-62550000D03*
D11*
X141200000Y-63850000D03*
D10*
X149600000Y-62550000D03*
D11*
X149600000Y-63850000D03*
M02*
