%TF.GenerationSoftware,KiCad,Pcbnew,8.0.1*%
%TF.CreationDate,2024-06-10T23:21:17+02:00*%
%TF.ProjectId,cornia,636f726e-6961-42e6-9b69-6361645f7063,rev?*%
%TF.SameCoordinates,Original*%
%TF.FileFunction,Drillmap*%
%TF.FilePolarity,Positive*%
%FSLAX45Y45*%
G04 Gerber Fmt 4.5, Leading zero omitted, Abs format (unit mm)*
G04 Created by KiCad (PCBNEW 8.0.1) date 2024-06-10 23:21:17*
%MOMM*%
%LPD*%
G01*
G04 APERTURE LIST*
%ADD10C,0.050000*%
%ADD11C,0.100000*%
%ADD12C,0.200000*%
%ADD13C,0.109220*%
%ADD14C,0.110000*%
G04 APERTURE END LIST*
D10*
X5691860Y-3418875D02*
X5691860Y-2543875D01*
X17691860Y-10668875D02*
G75*
G02*
X17766854Y-10943872I-100000J-174995D01*
G01*
X13291860Y-11118875D02*
X15016860Y-11718875D01*
X2066860Y-10418875D02*
G75*
G02*
X1866865Y-10218875I0J199995D01*
G01*
X2766860Y-3618875D02*
X5491860Y-3618875D01*
X5691860Y-3418875D02*
G75*
G02*
X5491860Y-3618875I-200000J0D01*
G01*
X15641860Y-2818875D02*
X15641860Y-9418875D01*
X11463576Y-10791865D02*
G75*
G02*
X11291855Y-10593875I28284J197995D01*
G01*
X6441860Y-1793875D02*
X11766860Y-1793875D01*
X6091860Y-8843875D02*
G75*
G02*
X6291860Y-8643875I200000J0D01*
G01*
X17766860Y-10943875D02*
X16891860Y-12518875D01*
X4266860Y-10418875D02*
X5141860Y-10418875D01*
X3966860Y-10418875D02*
X4266860Y-10418875D01*
X12591860Y-2618875D02*
G75*
G02*
X12391865Y-2418875I0J199995D01*
G01*
X6091860Y-9468875D02*
X6091860Y-8843875D01*
X6091860Y-9468875D02*
G75*
G02*
X5141860Y-10418875I-950000J0D01*
G01*
X5691860Y-2543875D02*
G75*
G02*
X6441860Y-1793875I750000J0D01*
G01*
X11463576Y-10791865D02*
X13291860Y-11118875D01*
X11091860Y-8643875D02*
G75*
G02*
X11291855Y-8843875I0J-199995D01*
G01*
X15441860Y-2618875D02*
G75*
G02*
X15641855Y-2818875I0J-199995D01*
G01*
X1866860Y-4518875D02*
G75*
G02*
X2766860Y-3618875I900000J0D01*
G01*
X1866860Y-4518875D02*
X1866860Y-10218875D01*
X15730920Y-9585285D02*
X17691860Y-10668875D01*
X11291860Y-10593875D02*
X11291860Y-8843875D01*
X15730920Y-9585285D02*
G75*
G02*
X15641856Y-9418875I110940J166415D01*
G01*
X11766860Y-1793875D02*
G75*
G02*
X12391865Y-2418875I0J-625005D01*
G01*
X16891860Y-12518875D02*
G75*
G02*
X16616859Y-12593877I-175000J99995D01*
G01*
X12591860Y-2618875D02*
X15441860Y-2618875D01*
X15016860Y-11718875D02*
X16616860Y-12593875D01*
X6291860Y-8643875D02*
X11091860Y-8643875D01*
X2066860Y-10418875D02*
X3966860Y-10418875D01*
D11*
X2836860Y-7688875D02*
X2836860Y-7998875D01*
X2836860Y-7998875D02*
X3196860Y-7998875D01*
X3196860Y-7688875D02*
X2836860Y-7688875D01*
X3196860Y-7998875D02*
X3196860Y-7688875D01*
X15900756Y-11663377D02*
X16215527Y-11838073D01*
X16051188Y-11392324D02*
X15900756Y-11663377D01*
X16215527Y-11838073D02*
X16365960Y-11567020D01*
X16365960Y-11567020D02*
X16051188Y-11392324D01*
X4736860Y-5088875D02*
X4736860Y-5398875D01*
X4736860Y-5398875D02*
X5096860Y-5398875D01*
X5096860Y-5088875D02*
X4736860Y-5088875D01*
X5096860Y-5398875D02*
X5096860Y-5088875D01*
X10436860Y-7638875D02*
X10436860Y-7948875D01*
X10436860Y-7948875D02*
X10796860Y-7948875D01*
X10796860Y-7638875D02*
X10436860Y-7638875D01*
X10796860Y-7948875D02*
X10796860Y-7638875D01*
X8536860Y-7138875D02*
X8536860Y-7448875D01*
X8536860Y-7448875D02*
X8896860Y-7448875D01*
X8896860Y-7138875D02*
X8536860Y-7138875D01*
X8896860Y-7448875D02*
X8896860Y-7138875D01*
X12336860Y-4088875D02*
X12336860Y-4398875D01*
X12336860Y-4398875D02*
X12696860Y-4398875D01*
X12696860Y-4088875D02*
X12336860Y-4088875D01*
X12696860Y-4398875D02*
X12696860Y-4088875D01*
X12272946Y-10447895D02*
X12627660Y-10509356D01*
X12325870Y-10142446D02*
X12272946Y-10447895D01*
X12627660Y-10509356D02*
X12680585Y-10203908D01*
X12680585Y-10203908D02*
X12325870Y-10142446D01*
X6636860Y-5738875D02*
X6636860Y-6048875D01*
X6636860Y-6048875D02*
X6996860Y-6048875D01*
X6996860Y-5738875D02*
X6636860Y-5738875D01*
X6996860Y-6048875D02*
X6996860Y-5738875D01*
X8536860Y-5238875D02*
X8536860Y-5548875D01*
X8536860Y-5548875D02*
X8896860Y-5548875D01*
X8896860Y-5238875D02*
X8536860Y-5238875D01*
X8896860Y-5548875D02*
X8896860Y-5238875D01*
X12336860Y-7888875D02*
X12336860Y-8198875D01*
X12336860Y-8198875D02*
X12696860Y-8198875D01*
X12696860Y-7888875D02*
X12336860Y-7888875D01*
X12696860Y-8198875D02*
X12696860Y-7888875D01*
X14137539Y-10903118D02*
X14477036Y-11022874D01*
X14240662Y-10610773D02*
X14137539Y-10903118D01*
X14477036Y-11022874D02*
X14580159Y-10730529D01*
X14580159Y-10730529D02*
X14240662Y-10610773D01*
X6636860Y-7638875D02*
X6636860Y-7948875D01*
X6636860Y-7948875D02*
X6996860Y-7948875D01*
X6996860Y-7638875D02*
X6636860Y-7638875D01*
X6996860Y-7948875D02*
X6996860Y-7638875D01*
X6636860Y-3838875D02*
X6636860Y-4148875D01*
X6636860Y-4148875D02*
X6996860Y-4148875D01*
X6996860Y-3838875D02*
X6636860Y-3838875D01*
X6996860Y-4148875D02*
X6996860Y-3838875D01*
X10436860Y-5738875D02*
X10436860Y-6048875D01*
X10436860Y-6048875D02*
X10796860Y-6048875D01*
X10796860Y-5738875D02*
X10436860Y-5738875D01*
X10796860Y-6048875D02*
X10796860Y-5738875D01*
X10436860Y-3838875D02*
X10436860Y-4148875D01*
X10436860Y-4148875D02*
X10796860Y-4148875D01*
X10796860Y-3838875D02*
X10436860Y-3838875D01*
X10796860Y-4148875D02*
X10796860Y-3838875D01*
X12336860Y-5988875D02*
X12336860Y-6298875D01*
X12336860Y-6298875D02*
X12696860Y-6298875D01*
X12696860Y-5988875D02*
X12336860Y-5988875D01*
X12696860Y-6298875D02*
X12696860Y-5988875D01*
X2836860Y-9588875D02*
X2836860Y-9898875D01*
X2836860Y-9898875D02*
X3196860Y-9898875D01*
X3196860Y-9588875D02*
X2836860Y-9588875D01*
X3196860Y-9898875D02*
X3196860Y-9588875D01*
X4736860Y-8888875D02*
X4736860Y-9198875D01*
X4736860Y-9198875D02*
X5096860Y-9198875D01*
X5096860Y-8888875D02*
X4736860Y-8888875D01*
X5096860Y-9198875D02*
X5096860Y-8888875D01*
X4736860Y-6988875D02*
X4736860Y-7298875D01*
X4736860Y-7298875D02*
X5096860Y-7298875D01*
X5096860Y-6988875D02*
X4736860Y-6988875D01*
X5096860Y-7298875D02*
X5096860Y-6988875D01*
X2836860Y-5788875D02*
X2836860Y-6098875D01*
X2836860Y-6098875D02*
X3196860Y-6098875D01*
X3196860Y-5788875D02*
X2836860Y-5788875D01*
X3196860Y-6098875D02*
X3196860Y-5788875D01*
X8536860Y-3338875D02*
X8536860Y-3648875D01*
X8536860Y-3648875D02*
X8896860Y-3648875D01*
X8896860Y-3338875D02*
X8536860Y-3338875D01*
X8896860Y-3648875D02*
X8896860Y-3338875D01*
D12*
D11*
X2103360Y-4062375D02*
X2133360Y-4092375D01*
X2133360Y-4062375D02*
X2103360Y-4092375D01*
X2103360Y-4316375D02*
X2133360Y-4346375D01*
X2133360Y-4316375D02*
X2103360Y-4346375D01*
X2103360Y-4570375D02*
X2133360Y-4600375D01*
X2133360Y-4570375D02*
X2103360Y-4600375D01*
X2103360Y-4824375D02*
X2133360Y-4854375D01*
X2133360Y-4824375D02*
X2103360Y-4854375D01*
X2103360Y-5078375D02*
X2133360Y-5108375D01*
X2133360Y-5078375D02*
X2103360Y-5108375D01*
X2103360Y-5332375D02*
X2133360Y-5362375D01*
X2133360Y-5332375D02*
X2103360Y-5362375D01*
X2103360Y-5586375D02*
X2133360Y-5616375D01*
X2133360Y-5586375D02*
X2103360Y-5616375D01*
X2103360Y-5840375D02*
X2133360Y-5870375D01*
X2133360Y-5840375D02*
X2103360Y-5870375D01*
X2103360Y-6348375D02*
X2133360Y-6378375D01*
X2133360Y-6348375D02*
X2103360Y-6378375D01*
X2103360Y-7618375D02*
X2133360Y-7648375D01*
X2133360Y-7618375D02*
X2103360Y-7648375D01*
X2103360Y-7872375D02*
X2133360Y-7902375D01*
X2133360Y-7872375D02*
X2103360Y-7902375D01*
X2103360Y-8126375D02*
X2133360Y-8156375D01*
X2133360Y-8126375D02*
X2103360Y-8156375D01*
X2103360Y-9650375D02*
X2133360Y-9680375D01*
X2133360Y-9650375D02*
X2103360Y-9680375D01*
X2103360Y-9904375D02*
X2133360Y-9934375D01*
X2133360Y-9904375D02*
X2103360Y-9934375D01*
X2103360Y-10158375D02*
X2133360Y-10188375D01*
X2133360Y-10158375D02*
X2103360Y-10188375D01*
X2357360Y-3808375D02*
X2387360Y-3838375D01*
X2387360Y-3808375D02*
X2357360Y-3838375D01*
X2357360Y-4062375D02*
X2387360Y-4092375D01*
X2387360Y-4062375D02*
X2357360Y-4092375D01*
X2357360Y-4316375D02*
X2387360Y-4346375D01*
X2387360Y-4316375D02*
X2357360Y-4346375D01*
X2357360Y-4570375D02*
X2387360Y-4600375D01*
X2387360Y-4570375D02*
X2357360Y-4600375D01*
X2357360Y-5586375D02*
X2387360Y-5616375D01*
X2387360Y-5586375D02*
X2357360Y-5616375D01*
X2357360Y-6348375D02*
X2387360Y-6378375D01*
X2387360Y-6348375D02*
X2357360Y-6378375D01*
X2357360Y-7872375D02*
X2387360Y-7902375D01*
X2387360Y-7872375D02*
X2357360Y-7902375D01*
X2357360Y-8126375D02*
X2387360Y-8156375D01*
X2387360Y-8126375D02*
X2357360Y-8156375D01*
X2357360Y-9396375D02*
X2387360Y-9426375D01*
X2387360Y-9396375D02*
X2357360Y-9426375D01*
X2357360Y-9904375D02*
X2387360Y-9934375D01*
X2387360Y-9904375D02*
X2357360Y-9934375D01*
X2611360Y-3808375D02*
X2641360Y-3838375D01*
X2641360Y-3808375D02*
X2611360Y-3838375D01*
X2611360Y-4062375D02*
X2641360Y-4092375D01*
X2641360Y-4062375D02*
X2611360Y-4092375D01*
X2611360Y-4316375D02*
X2641360Y-4346375D01*
X2641360Y-4316375D02*
X2611360Y-4346375D01*
X2611360Y-4570375D02*
X2641360Y-4600375D01*
X2641360Y-4570375D02*
X2611360Y-4600375D01*
X2611360Y-5586375D02*
X2641360Y-5616375D01*
X2641360Y-5586375D02*
X2611360Y-5616375D01*
X2611360Y-6348375D02*
X2641360Y-6378375D01*
X2641360Y-6348375D02*
X2611360Y-6378375D01*
X2611360Y-8126375D02*
X2641360Y-8156375D01*
X2641360Y-8126375D02*
X2611360Y-8156375D01*
X2611360Y-9396375D02*
X2641360Y-9426375D01*
X2641360Y-9396375D02*
X2611360Y-9426375D01*
X2611360Y-9904375D02*
X2641360Y-9934375D01*
X2641360Y-9904375D02*
X2611360Y-9934375D01*
X2865360Y-3808375D02*
X2895360Y-3838375D01*
X2895360Y-3808375D02*
X2865360Y-3838375D01*
X2865360Y-4062375D02*
X2895360Y-4092375D01*
X2895360Y-4062375D02*
X2865360Y-4092375D01*
X2865360Y-4316375D02*
X2895360Y-4346375D01*
X2895360Y-4316375D02*
X2865360Y-4346375D01*
X2865360Y-4570375D02*
X2895360Y-4600375D01*
X2895360Y-4570375D02*
X2865360Y-4600375D01*
X2865360Y-6348375D02*
X2895360Y-6378375D01*
X2895360Y-6348375D02*
X2865360Y-6378375D01*
X2865360Y-7110375D02*
X2895360Y-7140375D01*
X2895360Y-7110375D02*
X2865360Y-7140375D01*
X2865360Y-8126375D02*
X2895360Y-8156375D01*
X2895360Y-8126375D02*
X2865360Y-8156375D01*
X3119360Y-3808375D02*
X3149360Y-3838375D01*
X3149360Y-3808375D02*
X3119360Y-3838375D01*
X3119360Y-4062375D02*
X3149360Y-4092375D01*
X3149360Y-4062375D02*
X3119360Y-4092375D01*
X3119360Y-4316375D02*
X3149360Y-4346375D01*
X3149360Y-4316375D02*
X3119360Y-4346375D01*
X3119360Y-4570375D02*
X3149360Y-4600375D01*
X3149360Y-4570375D02*
X3119360Y-4600375D01*
X3119360Y-6348375D02*
X3149360Y-6378375D01*
X3149360Y-6348375D02*
X3119360Y-6378375D01*
X3119360Y-6602375D02*
X3149360Y-6632375D01*
X3149360Y-6602375D02*
X3119360Y-6632375D01*
X3119360Y-8126375D02*
X3149360Y-8156375D01*
X3149360Y-8126375D02*
X3119360Y-8156375D01*
X3373360Y-3808375D02*
X3403360Y-3838375D01*
X3403360Y-3808375D02*
X3373360Y-3838375D01*
X3373360Y-4570375D02*
X3403360Y-4600375D01*
X3403360Y-4570375D02*
X3373360Y-4600375D01*
X3373360Y-5586375D02*
X3403360Y-5616375D01*
X3403360Y-5586375D02*
X3373360Y-5616375D01*
X3373360Y-6602375D02*
X3403360Y-6632375D01*
X3403360Y-6602375D02*
X3373360Y-6632375D01*
X3373360Y-7618375D02*
X3403360Y-7648375D01*
X3403360Y-7618375D02*
X3373360Y-7648375D01*
X3373360Y-8126375D02*
X3403360Y-8156375D01*
X3403360Y-8126375D02*
X3373360Y-8156375D01*
X3373360Y-9396375D02*
X3403360Y-9426375D01*
X3403360Y-9396375D02*
X3373360Y-9426375D01*
X3373360Y-9904375D02*
X3403360Y-9934375D01*
X3403360Y-9904375D02*
X3373360Y-9934375D01*
X3505000Y-8405000D02*
X3535000Y-8435000D01*
X3535000Y-8405000D02*
X3505000Y-8435000D01*
X3627360Y-3808375D02*
X3657360Y-3838375D01*
X3657360Y-3808375D02*
X3627360Y-3838375D01*
X3627360Y-4570375D02*
X3657360Y-4600375D01*
X3657360Y-4570375D02*
X3627360Y-4600375D01*
X3627360Y-5586375D02*
X3657360Y-5616375D01*
X3657360Y-5586375D02*
X3627360Y-5616375D01*
X3627360Y-7618375D02*
X3657360Y-7648375D01*
X3657360Y-7618375D02*
X3627360Y-7648375D01*
X3825000Y-9605000D02*
X3855000Y-9635000D01*
X3855000Y-9605000D02*
X3825000Y-9635000D01*
X3845000Y-7825000D02*
X3875000Y-7855000D01*
X3875000Y-7825000D02*
X3845000Y-7855000D01*
X3881360Y-3808375D02*
X3911360Y-3838375D01*
X3911360Y-3808375D02*
X3881360Y-3838375D01*
X3881360Y-4570375D02*
X3911360Y-4600375D01*
X3911360Y-4570375D02*
X3881360Y-4600375D01*
X3881360Y-4824375D02*
X3911360Y-4854375D01*
X3911360Y-4824375D02*
X3881360Y-4854375D01*
X3881360Y-5840375D02*
X3911360Y-5870375D01*
X3911360Y-5840375D02*
X3881360Y-5870375D01*
X3881360Y-6602375D02*
X3911360Y-6632375D01*
X3911360Y-6602375D02*
X3881360Y-6632375D01*
X3881360Y-6856375D02*
X3911360Y-6886375D01*
X3911360Y-6856375D02*
X3881360Y-6886375D01*
X3881360Y-7364375D02*
X3911360Y-7394375D01*
X3911360Y-7364375D02*
X3881360Y-7394375D01*
X3881360Y-8634375D02*
X3911360Y-8664375D01*
X3911360Y-8634375D02*
X3881360Y-8664375D01*
X3881360Y-10158375D02*
X3911360Y-10188375D01*
X3911360Y-10158375D02*
X3881360Y-10188375D01*
X3885000Y-9285000D02*
X3915000Y-9315000D01*
X3915000Y-9285000D02*
X3885000Y-9315000D01*
X3981860Y-9413875D02*
X4011860Y-9443875D01*
X4011860Y-9413875D02*
X3981860Y-9443875D01*
X4081860Y-5753875D02*
X4111860Y-5783875D01*
X4111860Y-5753875D02*
X4081860Y-5783875D01*
X4135360Y-3808375D02*
X4165360Y-3838375D01*
X4165360Y-3808375D02*
X4135360Y-3838375D01*
X4135360Y-4062375D02*
X4165360Y-4092375D01*
X4165360Y-4062375D02*
X4135360Y-4092375D01*
X4135360Y-4824375D02*
X4165360Y-4854375D01*
X4165360Y-4824375D02*
X4135360Y-4854375D01*
X4135360Y-5078375D02*
X4165360Y-5108375D01*
X4165360Y-5078375D02*
X4135360Y-5108375D01*
X4135360Y-5586375D02*
X4165360Y-5616375D01*
X4165360Y-5586375D02*
X4135360Y-5616375D01*
X4135360Y-6602375D02*
X4165360Y-6632375D01*
X4165360Y-6602375D02*
X4135360Y-6632375D01*
X4135360Y-6856375D02*
X4165360Y-6886375D01*
X4165360Y-6856375D02*
X4135360Y-6886375D01*
X4135360Y-7110375D02*
X4165360Y-7140375D01*
X4165360Y-7110375D02*
X4135360Y-7140375D01*
X4135360Y-7618375D02*
X4165360Y-7648375D01*
X4165360Y-7618375D02*
X4135360Y-7648375D01*
X4135360Y-8634375D02*
X4165360Y-8664375D01*
X4165360Y-8634375D02*
X4135360Y-8664375D01*
X4135360Y-10158375D02*
X4165360Y-10188375D01*
X4165360Y-10158375D02*
X4135360Y-10188375D01*
X4389360Y-3808375D02*
X4419360Y-3838375D01*
X4419360Y-3808375D02*
X4389360Y-3838375D01*
X4389360Y-4062375D02*
X4419360Y-4092375D01*
X4419360Y-4062375D02*
X4389360Y-4092375D01*
X4389360Y-5078375D02*
X4419360Y-5108375D01*
X4419360Y-5078375D02*
X4389360Y-5108375D01*
X4389360Y-5586375D02*
X4419360Y-5616375D01*
X4419360Y-5586375D02*
X4389360Y-5616375D01*
X4389360Y-6856375D02*
X4419360Y-6886375D01*
X4419360Y-6856375D02*
X4389360Y-6886375D01*
X4389360Y-7364375D02*
X4419360Y-7394375D01*
X4419360Y-7364375D02*
X4389360Y-7394375D01*
X4389360Y-7618375D02*
X4419360Y-7648375D01*
X4419360Y-7618375D02*
X4389360Y-7648375D01*
X4389360Y-8888375D02*
X4419360Y-8918375D01*
X4419360Y-8888375D02*
X4389360Y-8918375D01*
X4389360Y-10158375D02*
X4419360Y-10188375D01*
X4419360Y-10158375D02*
X4389360Y-10188375D01*
X4643360Y-3808375D02*
X4673360Y-3838375D01*
X4673360Y-3808375D02*
X4643360Y-3838375D01*
X4643360Y-5586375D02*
X4673360Y-5616375D01*
X4673360Y-5586375D02*
X4643360Y-5616375D01*
X4643360Y-6856375D02*
X4673360Y-6886375D01*
X4673360Y-6856375D02*
X4643360Y-6886375D01*
X4643360Y-7364375D02*
X4673360Y-7394375D01*
X4673360Y-7364375D02*
X4643360Y-7394375D01*
X4643360Y-7618375D02*
X4673360Y-7648375D01*
X4673360Y-7618375D02*
X4643360Y-7648375D01*
X4643360Y-9650375D02*
X4673360Y-9680375D01*
X4673360Y-9650375D02*
X4643360Y-9680375D01*
X4643360Y-9904375D02*
X4673360Y-9934375D01*
X4673360Y-9904375D02*
X4643360Y-9934375D01*
X4643360Y-10158375D02*
X4673360Y-10188375D01*
X4673360Y-10158375D02*
X4643360Y-10188375D01*
X4897360Y-3808375D02*
X4927360Y-3838375D01*
X4927360Y-3808375D02*
X4897360Y-3838375D01*
X4897360Y-4062375D02*
X4927360Y-4092375D01*
X4927360Y-4062375D02*
X4897360Y-4092375D01*
X4897360Y-4316375D02*
X4927360Y-4346375D01*
X4927360Y-4316375D02*
X4897360Y-4346375D01*
X4897360Y-5586375D02*
X4927360Y-5616375D01*
X4927360Y-5586375D02*
X4897360Y-5616375D01*
X4897360Y-6094375D02*
X4927360Y-6124375D01*
X4927360Y-6094375D02*
X4897360Y-6124375D01*
X4897360Y-6348375D02*
X4927360Y-6378375D01*
X4927360Y-6348375D02*
X4897360Y-6378375D01*
X4897360Y-7618375D02*
X4927360Y-7648375D01*
X4927360Y-7618375D02*
X4897360Y-7648375D01*
X4897360Y-7872375D02*
X4927360Y-7902375D01*
X4927360Y-7872375D02*
X4897360Y-7902375D01*
X4897360Y-8126375D02*
X4927360Y-8156375D01*
X4927360Y-8126375D02*
X4897360Y-8156375D01*
X4897360Y-9650375D02*
X4927360Y-9680375D01*
X4927360Y-9650375D02*
X4897360Y-9680375D01*
X4897360Y-9904375D02*
X4927360Y-9934375D01*
X4927360Y-9904375D02*
X4897360Y-9934375D01*
X4897360Y-10158375D02*
X4927360Y-10188375D01*
X4927360Y-10158375D02*
X4897360Y-10188375D01*
X5151360Y-3808375D02*
X5181360Y-3838375D01*
X5181360Y-3808375D02*
X5151360Y-3838375D01*
X5151360Y-5586375D02*
X5181360Y-5616375D01*
X5181360Y-5586375D02*
X5151360Y-5616375D01*
X5151360Y-6856375D02*
X5181360Y-6886375D01*
X5181360Y-6856375D02*
X5151360Y-6886375D01*
X5151360Y-7364375D02*
X5181360Y-7394375D01*
X5181360Y-7364375D02*
X5151360Y-7394375D01*
X5151360Y-9650375D02*
X5181360Y-9680375D01*
X5181360Y-9650375D02*
X5151360Y-9680375D01*
X5151360Y-9904375D02*
X5181360Y-9934375D01*
X5181360Y-9904375D02*
X5151360Y-9934375D01*
X5151360Y-10158375D02*
X5181360Y-10188375D01*
X5181360Y-10158375D02*
X5151360Y-10188375D01*
X5181860Y-9413875D02*
X5211860Y-9443875D01*
X5211860Y-9413875D02*
X5181860Y-9443875D01*
X5345000Y-9245000D02*
X5375000Y-9275000D01*
X5375000Y-9245000D02*
X5345000Y-9275000D01*
X5405360Y-3808375D02*
X5435360Y-3838375D01*
X5435360Y-3808375D02*
X5405360Y-3838375D01*
X5405360Y-4062375D02*
X5435360Y-4092375D01*
X5435360Y-4062375D02*
X5405360Y-4092375D01*
X5405360Y-5078375D02*
X5435360Y-5108375D01*
X5435360Y-5078375D02*
X5405360Y-5108375D01*
X5405360Y-5586375D02*
X5435360Y-5616375D01*
X5435360Y-5586375D02*
X5405360Y-5616375D01*
X5405360Y-6856375D02*
X5435360Y-6886375D01*
X5435360Y-6856375D02*
X5405360Y-6886375D01*
X5405360Y-8888375D02*
X5435360Y-8918375D01*
X5435360Y-8888375D02*
X5405360Y-8918375D01*
X5405360Y-9650375D02*
X5435360Y-9680375D01*
X5435360Y-9650375D02*
X5405360Y-9680375D01*
X5405360Y-9904375D02*
X5435360Y-9934375D01*
X5435360Y-9904375D02*
X5405360Y-9934375D01*
X5405360Y-10158375D02*
X5435360Y-10188375D01*
X5435360Y-10158375D02*
X5405360Y-10188375D01*
X5659360Y-3808375D02*
X5689360Y-3838375D01*
X5689360Y-3808375D02*
X5659360Y-3838375D01*
X5659360Y-4062375D02*
X5689360Y-4092375D01*
X5689360Y-4062375D02*
X5659360Y-4092375D01*
X5659360Y-9650375D02*
X5689360Y-9680375D01*
X5689360Y-9650375D02*
X5659360Y-9680375D01*
X5659360Y-9904375D02*
X5689360Y-9934375D01*
X5689360Y-9904375D02*
X5659360Y-9934375D01*
X5665000Y-7185000D02*
X5695000Y-7215000D01*
X5695000Y-7185000D02*
X5665000Y-7215000D01*
X5685000Y-4745000D02*
X5715000Y-4775000D01*
X5715000Y-4745000D02*
X5685000Y-4775000D01*
X5745000Y-5985000D02*
X5775000Y-6015000D01*
X5775000Y-5985000D02*
X5745000Y-6015000D01*
X5745000Y-7545000D02*
X5775000Y-7575000D01*
X5775000Y-7545000D02*
X5745000Y-7575000D01*
X5913360Y-2284375D02*
X5943360Y-2314375D01*
X5943360Y-2284375D02*
X5913360Y-2314375D01*
X5913360Y-2538375D02*
X5943360Y-2568375D01*
X5943360Y-2538375D02*
X5913360Y-2568375D01*
X5913360Y-2792375D02*
X5943360Y-2822375D01*
X5943360Y-2792375D02*
X5913360Y-2822375D01*
X5913360Y-3046375D02*
X5943360Y-3076375D01*
X5943360Y-3046375D02*
X5913360Y-3076375D01*
X5913360Y-3554375D02*
X5943360Y-3584375D01*
X5943360Y-3554375D02*
X5913360Y-3584375D01*
X5913360Y-3808375D02*
X5943360Y-3838375D01*
X5943360Y-3808375D02*
X5913360Y-3838375D01*
X5913360Y-9650375D02*
X5943360Y-9680375D01*
X5943360Y-9650375D02*
X5913360Y-9680375D01*
X5985000Y-8225000D02*
X6015000Y-8255000D01*
X6015000Y-8225000D02*
X5985000Y-8255000D01*
X6099240Y-4441928D02*
X6129240Y-4471928D01*
X6129240Y-4441928D02*
X6099240Y-4471928D01*
X6167360Y-2030375D02*
X6197360Y-2060375D01*
X6197360Y-2030375D02*
X6167360Y-2060375D01*
X6167360Y-2284375D02*
X6197360Y-2314375D01*
X6197360Y-2284375D02*
X6167360Y-2314375D01*
X6167360Y-2538375D02*
X6197360Y-2568375D01*
X6197360Y-2538375D02*
X6167360Y-2568375D01*
X6167360Y-2792375D02*
X6197360Y-2822375D01*
X6197360Y-2792375D02*
X6167360Y-2822375D01*
X6167360Y-3808375D02*
X6197360Y-3838375D01*
X6197360Y-3808375D02*
X6167360Y-3838375D01*
X6167360Y-4316375D02*
X6197360Y-4346375D01*
X6197360Y-4316375D02*
X6167360Y-4346375D01*
X6167360Y-5586375D02*
X6197360Y-5616375D01*
X6197360Y-5586375D02*
X6167360Y-5616375D01*
X6167360Y-6094375D02*
X6197360Y-6124375D01*
X6197360Y-6094375D02*
X6167360Y-6124375D01*
X6167360Y-6348375D02*
X6197360Y-6378375D01*
X6197360Y-6348375D02*
X6167360Y-6378375D01*
X6167360Y-7618375D02*
X6197360Y-7648375D01*
X6197360Y-7618375D02*
X6167360Y-7648375D01*
X6341860Y-8363489D02*
X6371860Y-8393489D01*
X6371860Y-8363489D02*
X6341860Y-8393489D01*
X6421360Y-2030375D02*
X6451360Y-2060375D01*
X6451360Y-2030375D02*
X6421360Y-2060375D01*
X6421360Y-2284375D02*
X6451360Y-2314375D01*
X6451360Y-2284375D02*
X6421360Y-2314375D01*
X6421360Y-2538375D02*
X6451360Y-2568375D01*
X6451360Y-2538375D02*
X6421360Y-2568375D01*
X6421360Y-2792375D02*
X6451360Y-2822375D01*
X6451360Y-2792375D02*
X6421360Y-2822375D01*
X6421360Y-3808375D02*
X6451360Y-3838375D01*
X6451360Y-3808375D02*
X6421360Y-3838375D01*
X6421360Y-4316375D02*
X6451360Y-4346375D01*
X6451360Y-4316375D02*
X6421360Y-4346375D01*
X6421360Y-5586375D02*
X6451360Y-5616375D01*
X6451360Y-5586375D02*
X6421360Y-5616375D01*
X6421360Y-6094375D02*
X6451360Y-6124375D01*
X6451360Y-6094375D02*
X6421360Y-6124375D01*
X6421360Y-6348375D02*
X6451360Y-6378375D01*
X6451360Y-6348375D02*
X6421360Y-6378375D01*
X6421360Y-8126375D02*
X6451360Y-8156375D01*
X6451360Y-8126375D02*
X6421360Y-8156375D01*
X6675360Y-2030375D02*
X6705360Y-2060375D01*
X6705360Y-2030375D02*
X6675360Y-2060375D01*
X6675360Y-2284375D02*
X6705360Y-2314375D01*
X6705360Y-2284375D02*
X6675360Y-2314375D01*
X6675360Y-2538375D02*
X6705360Y-2568375D01*
X6705360Y-2538375D02*
X6675360Y-2568375D01*
X6675360Y-2792375D02*
X6705360Y-2822375D01*
X6705360Y-2792375D02*
X6675360Y-2822375D01*
X6675360Y-4316375D02*
X6705360Y-4346375D01*
X6705360Y-4316375D02*
X6675360Y-4346375D01*
X6675360Y-6348375D02*
X6705360Y-6378375D01*
X6705360Y-6348375D02*
X6675360Y-6378375D01*
X6675360Y-8126375D02*
X6705360Y-8156375D01*
X6705360Y-8126375D02*
X6675360Y-8156375D01*
X6929360Y-2030375D02*
X6959360Y-2060375D01*
X6959360Y-2030375D02*
X6929360Y-2060375D01*
X6929360Y-2284375D02*
X6959360Y-2314375D01*
X6959360Y-2284375D02*
X6929360Y-2314375D01*
X6929360Y-2538375D02*
X6959360Y-2568375D01*
X6959360Y-2538375D02*
X6929360Y-2568375D01*
X6929360Y-2792375D02*
X6959360Y-2822375D01*
X6959360Y-2792375D02*
X6929360Y-2822375D01*
X6929360Y-4316375D02*
X6959360Y-4346375D01*
X6959360Y-4316375D02*
X6929360Y-4346375D01*
X6929360Y-6348375D02*
X6959360Y-6378375D01*
X6959360Y-6348375D02*
X6929360Y-6378375D01*
X6929360Y-8126375D02*
X6959360Y-8156375D01*
X6959360Y-8126375D02*
X6929360Y-8156375D01*
X7081860Y-8353875D02*
X7111860Y-8383875D01*
X7111860Y-8353875D02*
X7081860Y-8383875D01*
X7183360Y-2538375D02*
X7213360Y-2568375D01*
X7213360Y-2538375D02*
X7183360Y-2568375D01*
X7183360Y-2792375D02*
X7213360Y-2822375D01*
X7213360Y-2792375D02*
X7183360Y-2822375D01*
X7183360Y-3808375D02*
X7213360Y-3838375D01*
X7213360Y-3808375D02*
X7183360Y-3838375D01*
X7183360Y-5586375D02*
X7213360Y-5616375D01*
X7213360Y-5586375D02*
X7183360Y-5616375D01*
X7183360Y-6094375D02*
X7213360Y-6124375D01*
X7213360Y-6094375D02*
X7183360Y-6124375D01*
X7205000Y-6625000D02*
X7235000Y-6655000D01*
X7235000Y-6625000D02*
X7205000Y-6655000D01*
X7437360Y-2538375D02*
X7467360Y-2568375D01*
X7467360Y-2538375D02*
X7437360Y-2568375D01*
X7437360Y-2792375D02*
X7467360Y-2822375D01*
X7467360Y-2792375D02*
X7437360Y-2822375D01*
X7437360Y-3808375D02*
X7467360Y-3838375D01*
X7467360Y-3808375D02*
X7437360Y-3838375D01*
X7437360Y-5586375D02*
X7467360Y-5616375D01*
X7467360Y-5586375D02*
X7437360Y-5616375D01*
X7437360Y-7618375D02*
X7467360Y-7648375D01*
X7467360Y-7618375D02*
X7437360Y-7648375D01*
X7445000Y-8125000D02*
X7475000Y-8155000D01*
X7475000Y-8125000D02*
X7445000Y-8155000D01*
X7645000Y-3925000D02*
X7675000Y-3955000D01*
X7675000Y-3925000D02*
X7645000Y-3955000D01*
X7691360Y-2030375D02*
X7721360Y-2060375D01*
X7721360Y-2030375D02*
X7691360Y-2060375D01*
X7691360Y-2284375D02*
X7721360Y-2314375D01*
X7721360Y-2284375D02*
X7691360Y-2314375D01*
X7691360Y-2538375D02*
X7721360Y-2568375D01*
X7721360Y-2538375D02*
X7691360Y-2568375D01*
X7691360Y-2792375D02*
X7721360Y-2822375D01*
X7721360Y-2792375D02*
X7691360Y-2822375D01*
X7691360Y-3046375D02*
X7721360Y-3076375D01*
X7721360Y-3046375D02*
X7691360Y-3076375D01*
X7691360Y-4824375D02*
X7721360Y-4854375D01*
X7721360Y-4824375D02*
X7691360Y-4854375D01*
X7691360Y-5332375D02*
X7721360Y-5362375D01*
X7721360Y-5332375D02*
X7691360Y-5362375D01*
X7691360Y-5840375D02*
X7721360Y-5870375D01*
X7721360Y-5840375D02*
X7691360Y-5870375D01*
X7691360Y-6602375D02*
X7721360Y-6632375D01*
X7721360Y-6602375D02*
X7691360Y-6632375D01*
X7691360Y-6856375D02*
X7721360Y-6886375D01*
X7721360Y-6856375D02*
X7691360Y-6886375D01*
X7691360Y-7364375D02*
X7721360Y-7394375D01*
X7721360Y-7364375D02*
X7691360Y-7394375D01*
X7786680Y-8218695D02*
X7816680Y-8248695D01*
X7816680Y-8218695D02*
X7786680Y-8248695D01*
X7941860Y-3773875D02*
X7971860Y-3803875D01*
X7971860Y-3773875D02*
X7941860Y-3803875D01*
X7945360Y-2030375D02*
X7975360Y-2060375D01*
X7975360Y-2030375D02*
X7945360Y-2060375D01*
X7945360Y-2284375D02*
X7975360Y-2314375D01*
X7975360Y-2284375D02*
X7945360Y-2314375D01*
X7945360Y-3046375D02*
X7975360Y-3076375D01*
X7975360Y-3046375D02*
X7945360Y-3076375D01*
X7945360Y-3300375D02*
X7975360Y-3330375D01*
X7975360Y-3300375D02*
X7945360Y-3330375D01*
X7945360Y-5078375D02*
X7975360Y-5108375D01*
X7975360Y-5078375D02*
X7945360Y-5108375D01*
X7945360Y-5586375D02*
X7975360Y-5616375D01*
X7975360Y-5586375D02*
X7945360Y-5616375D01*
X7945360Y-6856375D02*
X7975360Y-6886375D01*
X7975360Y-6856375D02*
X7945360Y-6886375D01*
X7945360Y-7110375D02*
X7975360Y-7140375D01*
X7975360Y-7110375D02*
X7945360Y-7140375D01*
X7945360Y-7618375D02*
X7975360Y-7648375D01*
X7975360Y-7618375D02*
X7945360Y-7648375D01*
X8005000Y-8385000D02*
X8035000Y-8415000D01*
X8035000Y-8385000D02*
X8005000Y-8415000D01*
X8199360Y-2030375D02*
X8229360Y-2060375D01*
X8229360Y-2030375D02*
X8199360Y-2060375D01*
X8199360Y-2284375D02*
X8229360Y-2314375D01*
X8229360Y-2284375D02*
X8199360Y-2314375D01*
X8199360Y-3300375D02*
X8229360Y-3330375D01*
X8229360Y-3300375D02*
X8199360Y-3330375D01*
X8199360Y-5078375D02*
X8229360Y-5108375D01*
X8229360Y-5078375D02*
X8199360Y-5108375D01*
X8199360Y-5586375D02*
X8229360Y-5616375D01*
X8229360Y-5586375D02*
X8199360Y-5616375D01*
X8199360Y-7110375D02*
X8229360Y-7140375D01*
X8229360Y-7110375D02*
X8199360Y-7140375D01*
X8453360Y-2030375D02*
X8483360Y-2060375D01*
X8483360Y-2030375D02*
X8453360Y-2060375D01*
X8453360Y-2284375D02*
X8483360Y-2314375D01*
X8483360Y-2284375D02*
X8453360Y-2314375D01*
X8453360Y-5078375D02*
X8483360Y-5108375D01*
X8483360Y-5078375D02*
X8453360Y-5108375D01*
X8453360Y-8380375D02*
X8483360Y-8410375D01*
X8483360Y-8380375D02*
X8453360Y-8410375D01*
X8707360Y-2030375D02*
X8737360Y-2060375D01*
X8737360Y-2030375D02*
X8707360Y-2060375D01*
X8707360Y-2284375D02*
X8737360Y-2314375D01*
X8737360Y-2284375D02*
X8707360Y-2314375D01*
X8707360Y-2538375D02*
X8737360Y-2568375D01*
X8737360Y-2538375D02*
X8707360Y-2568375D01*
X8707360Y-4316375D02*
X8737360Y-4346375D01*
X8737360Y-4316375D02*
X8707360Y-4346375D01*
X8707360Y-4570375D02*
X8737360Y-4600375D01*
X8737360Y-4570375D02*
X8707360Y-4600375D01*
X8707360Y-6348375D02*
X8737360Y-6378375D01*
X8737360Y-6348375D02*
X8707360Y-6378375D01*
X8961360Y-2030375D02*
X8991360Y-2060375D01*
X8991360Y-2030375D02*
X8961360Y-2060375D01*
X8961360Y-2284375D02*
X8991360Y-2314375D01*
X8991360Y-2284375D02*
X8961360Y-2314375D01*
X8961360Y-5078375D02*
X8991360Y-5108375D01*
X8991360Y-5078375D02*
X8961360Y-5108375D01*
X8961360Y-5586375D02*
X8991360Y-5616375D01*
X8991360Y-5586375D02*
X8961360Y-5616375D01*
X8961360Y-8380375D02*
X8991360Y-8410375D01*
X8991360Y-8380375D02*
X8961360Y-8410375D01*
X8981860Y-7732442D02*
X9011860Y-7762442D01*
X9011860Y-7732442D02*
X8981860Y-7762442D01*
X9105000Y-6125000D02*
X9135000Y-6155000D01*
X9135000Y-6125000D02*
X9105000Y-6155000D01*
X9215360Y-2030375D02*
X9245360Y-2060375D01*
X9245360Y-2030375D02*
X9215360Y-2060375D01*
X9215360Y-2284375D02*
X9245360Y-2314375D01*
X9245360Y-2284375D02*
X9215360Y-2314375D01*
X9215360Y-3300375D02*
X9245360Y-3330375D01*
X9245360Y-3300375D02*
X9215360Y-3330375D01*
X9215360Y-5078375D02*
X9245360Y-5108375D01*
X9245360Y-5078375D02*
X9215360Y-5108375D01*
X9215360Y-7110375D02*
X9245360Y-7140375D01*
X9245360Y-7110375D02*
X9215360Y-7140375D01*
X9225000Y-3745000D02*
X9255000Y-3775000D01*
X9255000Y-3745000D02*
X9225000Y-3775000D01*
X9405000Y-8385000D02*
X9435000Y-8415000D01*
X9435000Y-8385000D02*
X9405000Y-8415000D01*
X9469360Y-2030375D02*
X9499360Y-2060375D01*
X9499360Y-2030375D02*
X9469360Y-2060375D01*
X9469360Y-2284375D02*
X9499360Y-2314375D01*
X9499360Y-2284375D02*
X9469360Y-2314375D01*
X9469360Y-5078375D02*
X9499360Y-5108375D01*
X9499360Y-5078375D02*
X9469360Y-5108375D01*
X9469360Y-5332375D02*
X9499360Y-5362375D01*
X9499360Y-5332375D02*
X9469360Y-5362375D01*
X9469360Y-6856375D02*
X9499360Y-6886375D01*
X9499360Y-6856375D02*
X9469360Y-6886375D01*
X9469360Y-7110375D02*
X9499360Y-7140375D01*
X9499360Y-7110375D02*
X9469360Y-7140375D01*
X9469360Y-7618375D02*
X9499360Y-7648375D01*
X9499360Y-7618375D02*
X9469360Y-7648375D01*
X9545000Y-5845000D02*
X9575000Y-5875000D01*
X9575000Y-5845000D02*
X9545000Y-5875000D01*
X9665000Y-3745000D02*
X9695000Y-3775000D01*
X9695000Y-3745000D02*
X9665000Y-3775000D01*
X9688047Y-8207688D02*
X9718047Y-8237688D01*
X9718047Y-8207688D02*
X9688047Y-8237688D01*
X9723360Y-2284375D02*
X9753360Y-2314375D01*
X9753360Y-2284375D02*
X9723360Y-2314375D01*
X9723360Y-2538375D02*
X9753360Y-2568375D01*
X9753360Y-2538375D02*
X9723360Y-2568375D01*
X9723360Y-2792375D02*
X9753360Y-2822375D01*
X9753360Y-2792375D02*
X9723360Y-2822375D01*
X9881860Y-4033875D02*
X9911860Y-4063875D01*
X9911860Y-4033875D02*
X9881860Y-4063875D01*
X9977360Y-2284375D02*
X10007360Y-2314375D01*
X10007360Y-2284375D02*
X9977360Y-2314375D01*
X9977360Y-2538375D02*
X10007360Y-2568375D01*
X10007360Y-2538375D02*
X9977360Y-2568375D01*
X9977360Y-2792375D02*
X10007360Y-2822375D01*
X10007360Y-2792375D02*
X9977360Y-2822375D01*
X9977360Y-6094375D02*
X10007360Y-6124375D01*
X10007360Y-6094375D02*
X9977360Y-6124375D01*
X10231360Y-2284375D02*
X10261360Y-2314375D01*
X10261360Y-2284375D02*
X10231360Y-2314375D01*
X10231360Y-2538375D02*
X10261360Y-2568375D01*
X10261360Y-2538375D02*
X10231360Y-2568375D01*
X10231360Y-2792375D02*
X10261360Y-2822375D01*
X10261360Y-2792375D02*
X10231360Y-2822375D01*
X10231360Y-3808375D02*
X10261360Y-3838375D01*
X10261360Y-3808375D02*
X10231360Y-3838375D01*
X10231360Y-5586375D02*
X10261360Y-5616375D01*
X10261360Y-5586375D02*
X10231360Y-5616375D01*
X10231360Y-6094375D02*
X10261360Y-6124375D01*
X10261360Y-6094375D02*
X10231360Y-6124375D01*
X10485360Y-2284375D02*
X10515360Y-2314375D01*
X10515360Y-2284375D02*
X10485360Y-2314375D01*
X10485360Y-2538375D02*
X10515360Y-2568375D01*
X10515360Y-2538375D02*
X10485360Y-2568375D01*
X10485360Y-2792375D02*
X10515360Y-2822375D01*
X10515360Y-2792375D02*
X10485360Y-2822375D01*
X10485360Y-5078375D02*
X10515360Y-5108375D01*
X10515360Y-5078375D02*
X10485360Y-5108375D01*
X10739360Y-2284375D02*
X10769360Y-2314375D01*
X10769360Y-2284375D02*
X10739360Y-2314375D01*
X10739360Y-2538375D02*
X10769360Y-2568375D01*
X10769360Y-2538375D02*
X10739360Y-2568375D01*
X10739360Y-2792375D02*
X10769360Y-2822375D01*
X10769360Y-2792375D02*
X10739360Y-2822375D01*
X10739360Y-8126375D02*
X10769360Y-8156375D01*
X10769360Y-8126375D02*
X10739360Y-8156375D01*
X10881860Y-8353875D02*
X10911860Y-8383875D01*
X10911860Y-8353875D02*
X10881860Y-8383875D01*
X10993360Y-2284375D02*
X11023360Y-2314375D01*
X11023360Y-2284375D02*
X10993360Y-2314375D01*
X10993360Y-2538375D02*
X11023360Y-2568375D01*
X11023360Y-2538375D02*
X10993360Y-2568375D01*
X10993360Y-2792375D02*
X11023360Y-2822375D01*
X11023360Y-2792375D02*
X10993360Y-2822375D01*
X10993360Y-3808375D02*
X11023360Y-3838375D01*
X11023360Y-3808375D02*
X10993360Y-3838375D01*
X10993360Y-5586375D02*
X11023360Y-5616375D01*
X11023360Y-5586375D02*
X10993360Y-5616375D01*
X10993360Y-8126375D02*
X11023360Y-8156375D01*
X11023360Y-8126375D02*
X10993360Y-8156375D01*
X11145000Y-6085000D02*
X11175000Y-6115000D01*
X11175000Y-6085000D02*
X11145000Y-6115000D01*
X11225000Y-4145000D02*
X11255000Y-4175000D01*
X11255000Y-4145000D02*
X11225000Y-4175000D01*
X11247360Y-2284375D02*
X11277360Y-2314375D01*
X11277360Y-2284375D02*
X11247360Y-2314375D01*
X11247360Y-2538375D02*
X11277360Y-2568375D01*
X11277360Y-2538375D02*
X11247360Y-2568375D01*
X11247360Y-2792375D02*
X11277360Y-2822375D01*
X11277360Y-2792375D02*
X11247360Y-2822375D01*
X11247360Y-5586375D02*
X11277360Y-5616375D01*
X11277360Y-5586375D02*
X11247360Y-5616375D01*
X11247360Y-5840375D02*
X11277360Y-5870375D01*
X11277360Y-5840375D02*
X11247360Y-5870375D01*
X11247360Y-7618375D02*
X11277360Y-7648375D01*
X11277360Y-7618375D02*
X11247360Y-7648375D01*
X11247360Y-8126375D02*
X11277360Y-8156375D01*
X11277360Y-8126375D02*
X11247360Y-8156375D01*
X11285000Y-3965000D02*
X11315000Y-3995000D01*
X11315000Y-3965000D02*
X11285000Y-3995000D01*
X11365000Y-8565000D02*
X11395000Y-8595000D01*
X11395000Y-8565000D02*
X11365000Y-8595000D01*
X11405000Y-6705000D02*
X11435000Y-6735000D01*
X11435000Y-6705000D02*
X11405000Y-6735000D01*
X11405000Y-9365000D02*
X11435000Y-9395000D01*
X11435000Y-9365000D02*
X11405000Y-9395000D01*
X11445000Y-4825000D02*
X11475000Y-4855000D01*
X11475000Y-4825000D02*
X11445000Y-4855000D01*
X11445000Y-6205000D02*
X11475000Y-6235000D01*
X11475000Y-6205000D02*
X11445000Y-6235000D01*
X11501360Y-2284375D02*
X11531360Y-2314375D01*
X11531360Y-2284375D02*
X11501360Y-2314375D01*
X11501360Y-2538375D02*
X11531360Y-2568375D01*
X11531360Y-2538375D02*
X11501360Y-2568375D01*
X11501360Y-2792375D02*
X11531360Y-2822375D01*
X11531360Y-2792375D02*
X11501360Y-2822375D01*
X11501360Y-3046375D02*
X11531360Y-3076375D01*
X11531360Y-3046375D02*
X11501360Y-3076375D01*
X11501360Y-3300375D02*
X11531360Y-3330375D01*
X11531360Y-3300375D02*
X11501360Y-3330375D01*
X11501360Y-3554375D02*
X11531360Y-3584375D01*
X11531360Y-3554375D02*
X11501360Y-3584375D01*
X11501360Y-3808375D02*
X11531360Y-3838375D01*
X11531360Y-3808375D02*
X11501360Y-3838375D01*
X11501360Y-10666375D02*
X11531360Y-10696375D01*
X11531360Y-10666375D02*
X11501360Y-10696375D01*
X11541860Y-8353875D02*
X11571860Y-8383875D01*
X11571860Y-8353875D02*
X11541860Y-8383875D01*
X11592202Y-4161375D02*
X11622202Y-4191375D01*
X11622202Y-4161375D02*
X11592202Y-4191375D01*
X11625000Y-6405000D02*
X11655000Y-6435000D01*
X11655000Y-6405000D02*
X11625000Y-6435000D01*
X11662260Y-4613044D02*
X11692260Y-4643044D01*
X11692260Y-4613044D02*
X11662260Y-4643044D01*
X11745000Y-4145000D02*
X11775000Y-4175000D01*
X11775000Y-4145000D02*
X11745000Y-4175000D01*
X11755360Y-2030375D02*
X11785360Y-2060375D01*
X11785360Y-2030375D02*
X11755360Y-2060375D01*
X11755360Y-2792375D02*
X11785360Y-2822375D01*
X11785360Y-2792375D02*
X11755360Y-2822375D01*
X11755360Y-3046375D02*
X11785360Y-3076375D01*
X11785360Y-3046375D02*
X11755360Y-3076375D01*
X11755360Y-3808375D02*
X11785360Y-3838375D01*
X11785360Y-3808375D02*
X11755360Y-3838375D01*
X11755360Y-5586375D02*
X11785360Y-5616375D01*
X11785360Y-5586375D02*
X11755360Y-5616375D01*
X11755360Y-5840375D02*
X11785360Y-5870375D01*
X11785360Y-5840375D02*
X11755360Y-5870375D01*
X11755360Y-7618375D02*
X11785360Y-7648375D01*
X11785360Y-7618375D02*
X11755360Y-7648375D01*
X11755360Y-7872375D02*
X11785360Y-7902375D01*
X11785360Y-7872375D02*
X11755360Y-7902375D01*
X11755360Y-8126375D02*
X11785360Y-8156375D01*
X11785360Y-8126375D02*
X11755360Y-8156375D01*
X11755360Y-10666375D02*
X11785360Y-10696375D01*
X11785360Y-10666375D02*
X11755360Y-10696375D01*
X11965000Y-6465000D02*
X11995000Y-6495000D01*
X11995000Y-6465000D02*
X11965000Y-6495000D01*
X12009360Y-2030375D02*
X12039360Y-2060375D01*
X12039360Y-2030375D02*
X12009360Y-2060375D01*
X12009360Y-2792375D02*
X12039360Y-2822375D01*
X12039360Y-2792375D02*
X12009360Y-2822375D01*
X12009360Y-3046375D02*
X12039360Y-3076375D01*
X12039360Y-3046375D02*
X12009360Y-3076375D01*
X12009360Y-5840375D02*
X12039360Y-5870375D01*
X12039360Y-5840375D02*
X12009360Y-5870375D01*
X12009360Y-7872375D02*
X12039360Y-7902375D01*
X12039360Y-7872375D02*
X12009360Y-7902375D01*
X12009360Y-10412375D02*
X12039360Y-10442375D01*
X12039360Y-10412375D02*
X12009360Y-10442375D01*
X12263360Y-2284375D02*
X12293360Y-2314375D01*
X12293360Y-2284375D02*
X12263360Y-2314375D01*
X12263360Y-2538375D02*
X12293360Y-2568375D01*
X12293360Y-2538375D02*
X12263360Y-2568375D01*
X12263360Y-2792375D02*
X12293360Y-2822375D01*
X12293360Y-2792375D02*
X12263360Y-2822375D01*
X12263360Y-5840375D02*
X12293360Y-5870375D01*
X12293360Y-5840375D02*
X12263360Y-5870375D01*
X12263360Y-9904375D02*
X12293360Y-9934375D01*
X12293360Y-9904375D02*
X12263360Y-9934375D01*
X12517360Y-2792375D02*
X12547360Y-2822375D01*
X12547360Y-2792375D02*
X12517360Y-2822375D01*
X12517360Y-3046375D02*
X12547360Y-3076375D01*
X12547360Y-3046375D02*
X12517360Y-3076375D01*
X12517360Y-3300375D02*
X12547360Y-3330375D01*
X12547360Y-3300375D02*
X12517360Y-3330375D01*
X12517360Y-5078375D02*
X12547360Y-5108375D01*
X12547360Y-5078375D02*
X12517360Y-5108375D01*
X12517360Y-5332375D02*
X12547360Y-5362375D01*
X12547360Y-5332375D02*
X12517360Y-5362375D01*
X12517360Y-7110375D02*
X12547360Y-7140375D01*
X12547360Y-7110375D02*
X12517360Y-7140375D01*
X12545000Y-6465000D02*
X12575000Y-6495000D01*
X12575000Y-6465000D02*
X12545000Y-6495000D01*
X12665000Y-10645000D02*
X12695000Y-10675000D01*
X12695000Y-10645000D02*
X12665000Y-10675000D01*
X12765000Y-8545000D02*
X12795000Y-8575000D01*
X12795000Y-8545000D02*
X12765000Y-8575000D01*
X12771360Y-2792375D02*
X12801360Y-2822375D01*
X12801360Y-2792375D02*
X12771360Y-2822375D01*
X12771360Y-3808375D02*
X12801360Y-3838375D01*
X12801360Y-3808375D02*
X12771360Y-3838375D01*
X12771360Y-5840375D02*
X12801360Y-5870375D01*
X12801360Y-5840375D02*
X12771360Y-5870375D01*
X12771360Y-7618375D02*
X12801360Y-7648375D01*
X12801360Y-7618375D02*
X12771360Y-7648375D01*
X12771360Y-8888375D02*
X12801360Y-8918375D01*
X12801360Y-8888375D02*
X12771360Y-8918375D01*
X12771360Y-9142375D02*
X12801360Y-9172375D01*
X12801360Y-9142375D02*
X12771360Y-9172375D01*
X12771360Y-10158375D02*
X12801360Y-10188375D01*
X12801360Y-10158375D02*
X12771360Y-10188375D01*
X12771360Y-10920375D02*
X12801360Y-10950375D01*
X12801360Y-10920375D02*
X12771360Y-10950375D01*
X12885000Y-8225000D02*
X12915000Y-8255000D01*
X12915000Y-8225000D02*
X12885000Y-8255000D01*
X12905000Y-4985000D02*
X12935000Y-5015000D01*
X12935000Y-4985000D02*
X12905000Y-5015000D01*
X12945000Y-10645000D02*
X12975000Y-10675000D01*
X12975000Y-10645000D02*
X12945000Y-10675000D01*
X13025000Y-6605000D02*
X13055000Y-6635000D01*
X13055000Y-6605000D02*
X13025000Y-6635000D01*
X13025360Y-2792375D02*
X13055360Y-2822375D01*
X13055360Y-2792375D02*
X13025360Y-2822375D01*
X13025360Y-3046375D02*
X13055360Y-3076375D01*
X13055360Y-3046375D02*
X13025360Y-3076375D01*
X13025360Y-4062375D02*
X13055360Y-4092375D01*
X13055360Y-4062375D02*
X13025360Y-4092375D01*
X13025360Y-5840375D02*
X13055360Y-5870375D01*
X13055360Y-5840375D02*
X13025360Y-5870375D01*
X13025360Y-7872375D02*
X13055360Y-7902375D01*
X13055360Y-7872375D02*
X13025360Y-7902375D01*
X13025360Y-8888375D02*
X13055360Y-8918375D01*
X13055360Y-8888375D02*
X13025360Y-8918375D01*
X13025360Y-9142375D02*
X13055360Y-9172375D01*
X13055360Y-9142375D02*
X13025360Y-9172375D01*
X13025360Y-10158375D02*
X13055360Y-10188375D01*
X13055360Y-10158375D02*
X13025360Y-10188375D01*
X13025360Y-10920375D02*
X13055360Y-10950375D01*
X13055360Y-10920375D02*
X13025360Y-10950375D01*
X13065000Y-6045000D02*
X13095000Y-6075000D01*
X13095000Y-6045000D02*
X13065000Y-6075000D01*
X13085000Y-8225000D02*
X13115000Y-8255000D01*
X13115000Y-8225000D02*
X13085000Y-8255000D01*
X13085000Y-8545000D02*
X13115000Y-8575000D01*
X13115000Y-8545000D02*
X13085000Y-8575000D01*
X13165000Y-4365000D02*
X13195000Y-4395000D01*
X13195000Y-4365000D02*
X13165000Y-4395000D01*
X13279360Y-2792375D02*
X13309360Y-2822375D01*
X13309360Y-2792375D02*
X13279360Y-2822375D01*
X13279360Y-3046375D02*
X13309360Y-3076375D01*
X13309360Y-3046375D02*
X13279360Y-3076375D01*
X13279360Y-5586375D02*
X13309360Y-5616375D01*
X13309360Y-5586375D02*
X13279360Y-5616375D01*
X13279360Y-6856375D02*
X13309360Y-6886375D01*
X13309360Y-6856375D02*
X13279360Y-6886375D01*
X13279360Y-7110375D02*
X13309360Y-7140375D01*
X13309360Y-7110375D02*
X13279360Y-7140375D01*
X13279360Y-10158375D02*
X13309360Y-10188375D01*
X13309360Y-10158375D02*
X13279360Y-10188375D01*
X13279360Y-10412375D02*
X13309360Y-10442375D01*
X13309360Y-10412375D02*
X13279360Y-10442375D01*
X13285000Y-6605000D02*
X13315000Y-6635000D01*
X13315000Y-6605000D02*
X13285000Y-6635000D01*
X13285000Y-9245000D02*
X13315000Y-9275000D01*
X13315000Y-9245000D02*
X13285000Y-9275000D01*
X13510000Y-7365000D02*
X13540000Y-7395000D01*
X13540000Y-7365000D02*
X13510000Y-7395000D01*
X13533360Y-2792375D02*
X13563360Y-2822375D01*
X13563360Y-2792375D02*
X13533360Y-2822375D01*
X13533360Y-3046375D02*
X13563360Y-3076375D01*
X13563360Y-3046375D02*
X13533360Y-3076375D01*
X13533360Y-3300375D02*
X13563360Y-3330375D01*
X13563360Y-3300375D02*
X13533360Y-3330375D01*
X13533360Y-3554375D02*
X13563360Y-3584375D01*
X13563360Y-3554375D02*
X13533360Y-3584375D01*
X13533360Y-3808375D02*
X13563360Y-3838375D01*
X13563360Y-3808375D02*
X13533360Y-3838375D01*
X13533360Y-6348375D02*
X13563360Y-6378375D01*
X13563360Y-6348375D02*
X13533360Y-6378375D01*
X13533360Y-6602375D02*
X13563360Y-6632375D01*
X13563360Y-6602375D02*
X13533360Y-6632375D01*
X13533360Y-6856375D02*
X13563360Y-6886375D01*
X13563360Y-6856375D02*
X13533360Y-6886375D01*
X13533360Y-7872375D02*
X13563360Y-7902375D01*
X13563360Y-7872375D02*
X13533360Y-7902375D01*
X13533360Y-9650375D02*
X13563360Y-9680375D01*
X13563360Y-9650375D02*
X13533360Y-9680375D01*
X13533360Y-9904375D02*
X13563360Y-9934375D01*
X13563360Y-9904375D02*
X13533360Y-9934375D01*
X13533360Y-10158375D02*
X13563360Y-10188375D01*
X13563360Y-10158375D02*
X13533360Y-10188375D01*
X13533360Y-10412375D02*
X13563360Y-10442375D01*
X13563360Y-10412375D02*
X13533360Y-10442375D01*
X13585000Y-4145000D02*
X13615000Y-4175000D01*
X13615000Y-4145000D02*
X13585000Y-4175000D01*
X13625000Y-5545000D02*
X13655000Y-5575000D01*
X13655000Y-5545000D02*
X13625000Y-5575000D01*
X13645000Y-7285000D02*
X13675000Y-7315000D01*
X13675000Y-7285000D02*
X13645000Y-7315000D01*
X13785000Y-7350000D02*
X13815000Y-7380000D01*
X13815000Y-7350000D02*
X13785000Y-7380000D01*
X13787360Y-7872375D02*
X13817360Y-7902375D01*
X13817360Y-7872375D02*
X13787360Y-7902375D01*
X13787360Y-9142375D02*
X13817360Y-9172375D01*
X13817360Y-9142375D02*
X13787360Y-9172375D01*
X13787360Y-9650375D02*
X13817360Y-9680375D01*
X13817360Y-9650375D02*
X13787360Y-9680375D01*
X13787360Y-10158375D02*
X13817360Y-10188375D01*
X13817360Y-10158375D02*
X13787360Y-10188375D01*
X13787360Y-10412375D02*
X13817360Y-10442375D01*
X13817360Y-10412375D02*
X13787360Y-10442375D01*
X13885000Y-7025000D02*
X13915000Y-7055000D01*
X13915000Y-7025000D02*
X13885000Y-7055000D01*
X13925000Y-7285000D02*
X13955000Y-7315000D01*
X13955000Y-7285000D02*
X13925000Y-7315000D01*
X13945000Y-7505000D02*
X13975000Y-7535000D01*
X13975000Y-7505000D02*
X13945000Y-7535000D01*
X13965000Y-5085000D02*
X13995000Y-5115000D01*
X13995000Y-5085000D02*
X13965000Y-5115000D01*
X13965000Y-5325000D02*
X13995000Y-5355000D01*
X13995000Y-5325000D02*
X13965000Y-5355000D01*
X13965000Y-6605000D02*
X13995000Y-6635000D01*
X13995000Y-6605000D02*
X13965000Y-6635000D01*
X14041360Y-3554375D02*
X14071360Y-3584375D01*
X14071360Y-3554375D02*
X14041360Y-3584375D01*
X14041360Y-3808375D02*
X14071360Y-3838375D01*
X14071360Y-3808375D02*
X14041360Y-3838375D01*
X14041360Y-4062375D02*
X14071360Y-4092375D01*
X14071360Y-4062375D02*
X14041360Y-4092375D01*
X14041360Y-4316375D02*
X14071360Y-4346375D01*
X14071360Y-4316375D02*
X14041360Y-4346375D01*
X14041360Y-4570375D02*
X14071360Y-4600375D01*
X14071360Y-4570375D02*
X14041360Y-4600375D01*
X14041360Y-4824375D02*
X14071360Y-4854375D01*
X14071360Y-4824375D02*
X14041360Y-4854375D01*
X14041360Y-9142375D02*
X14071360Y-9172375D01*
X14071360Y-9142375D02*
X14041360Y-9172375D01*
X14041360Y-10412375D02*
X14071360Y-10442375D01*
X14071360Y-10412375D02*
X14041360Y-10442375D01*
X14060000Y-7350000D02*
X14090000Y-7380000D01*
X14090000Y-7350000D02*
X14060000Y-7380000D01*
X14105000Y-3305000D02*
X14135000Y-3335000D01*
X14135000Y-3305000D02*
X14105000Y-3335000D01*
X14105000Y-6065000D02*
X14135000Y-6095000D01*
X14135000Y-6065000D02*
X14105000Y-6095000D01*
X14105000Y-7665000D02*
X14135000Y-7695000D01*
X14135000Y-7665000D02*
X14105000Y-7695000D01*
X14125000Y-5085000D02*
X14155000Y-5115000D01*
X14155000Y-5085000D02*
X14125000Y-5115000D01*
X14160720Y-3118276D02*
X14190720Y-3148276D01*
X14190720Y-3118276D02*
X14160720Y-3148276D01*
X14165000Y-5585000D02*
X14195000Y-5615000D01*
X14195000Y-5585000D02*
X14165000Y-5615000D01*
X14245000Y-6285000D02*
X14275000Y-6315000D01*
X14275000Y-6285000D02*
X14245000Y-6315000D01*
X14251861Y-3111861D02*
X14281861Y-3141861D01*
X14281861Y-3111861D02*
X14251861Y-3141861D01*
X14265000Y-5325000D02*
X14295000Y-5355000D01*
X14295000Y-5325000D02*
X14265000Y-5355000D01*
X14285000Y-3025000D02*
X14315000Y-3055000D01*
X14315000Y-3025000D02*
X14285000Y-3055000D01*
X14285000Y-4065000D02*
X14315000Y-4095000D01*
X14315000Y-4065000D02*
X14285000Y-4095000D01*
X14295360Y-2792375D02*
X14325360Y-2822375D01*
X14325360Y-2792375D02*
X14295360Y-2822375D01*
X14295360Y-4316375D02*
X14325360Y-4346375D01*
X14325360Y-4316375D02*
X14295360Y-4346375D01*
X14295360Y-4570375D02*
X14325360Y-4600375D01*
X14325360Y-4570375D02*
X14295360Y-4600375D01*
X14295360Y-4824375D02*
X14325360Y-4854375D01*
X14325360Y-4824375D02*
X14295360Y-4854375D01*
X14295360Y-7364375D02*
X14325360Y-7394375D01*
X14325360Y-7364375D02*
X14295360Y-7394375D01*
X14295360Y-8126375D02*
X14325360Y-8156375D01*
X14325360Y-8126375D02*
X14295360Y-8156375D01*
X14295360Y-8380375D02*
X14325360Y-8410375D01*
X14325360Y-8380375D02*
X14295360Y-8410375D01*
X14295360Y-8634375D02*
X14325360Y-8664375D01*
X14325360Y-8634375D02*
X14295360Y-8664375D01*
X14295360Y-8888375D02*
X14325360Y-8918375D01*
X14325360Y-8888375D02*
X14295360Y-8918375D01*
X14295360Y-9142375D02*
X14325360Y-9172375D01*
X14325360Y-9142375D02*
X14295360Y-9172375D01*
X14385000Y-3405000D02*
X14415000Y-3435000D01*
X14415000Y-3405000D02*
X14385000Y-3435000D01*
X14405000Y-3625000D02*
X14435000Y-3655000D01*
X14435000Y-3625000D02*
X14405000Y-3655000D01*
X14405000Y-5965000D02*
X14435000Y-5995000D01*
X14435000Y-5965000D02*
X14405000Y-5995000D01*
X14425000Y-5665000D02*
X14455000Y-5695000D01*
X14455000Y-5665000D02*
X14425000Y-5695000D01*
X14465000Y-11105000D02*
X14495000Y-11135000D01*
X14495000Y-11105000D02*
X14465000Y-11135000D01*
X14485000Y-5485000D02*
X14515000Y-5515000D01*
X14515000Y-5485000D02*
X14485000Y-5515000D01*
X14501860Y-3313875D02*
X14531860Y-3343875D01*
X14531860Y-3313875D02*
X14501860Y-3343875D01*
X14501860Y-3513875D02*
X14531860Y-3543875D01*
X14531860Y-3513875D02*
X14501860Y-3543875D01*
X14525000Y-6185000D02*
X14555000Y-6215000D01*
X14555000Y-6185000D02*
X14525000Y-6215000D01*
X14525000Y-6285000D02*
X14555000Y-6315000D01*
X14555000Y-6285000D02*
X14525000Y-6315000D01*
X14549360Y-3046375D02*
X14579360Y-3076375D01*
X14579360Y-3046375D02*
X14549360Y-3076375D01*
X14549360Y-8126375D02*
X14579360Y-8156375D01*
X14579360Y-8126375D02*
X14549360Y-8156375D01*
X14549360Y-8380375D02*
X14579360Y-8410375D01*
X14579360Y-8380375D02*
X14549360Y-8410375D01*
X14549360Y-8634375D02*
X14579360Y-8664375D01*
X14579360Y-8634375D02*
X14549360Y-8664375D01*
X14549360Y-9142375D02*
X14579360Y-9172375D01*
X14579360Y-9142375D02*
X14549360Y-9172375D01*
X14574583Y-7734141D02*
X14604583Y-7764141D01*
X14604583Y-7734141D02*
X14574583Y-7764141D01*
X14585000Y-3845000D02*
X14615000Y-3875000D01*
X14615000Y-3845000D02*
X14585000Y-3875000D01*
X14597500Y-6097500D02*
X14627500Y-6127500D01*
X14627500Y-6097500D02*
X14597500Y-6127500D01*
X14641860Y-8893875D02*
X14671860Y-8923875D01*
X14671860Y-8893875D02*
X14641860Y-8923875D01*
X14645000Y-5585000D02*
X14675000Y-5615000D01*
X14675000Y-5585000D02*
X14645000Y-5615000D01*
X14658495Y-6018495D02*
X14688495Y-6048495D01*
X14688495Y-6018495D02*
X14658495Y-6048495D01*
X14665000Y-8505000D02*
X14695000Y-8535000D01*
X14695000Y-8505000D02*
X14665000Y-8535000D01*
X14672500Y-5085000D02*
X14702500Y-5115000D01*
X14702500Y-5085000D02*
X14672500Y-5115000D01*
X14685000Y-11125000D02*
X14715000Y-11155000D01*
X14715000Y-11125000D02*
X14685000Y-11155000D01*
X14701860Y-3313875D02*
X14731860Y-3343875D01*
X14731860Y-3313875D02*
X14701860Y-3343875D01*
X14701860Y-3513875D02*
X14731860Y-3543875D01*
X14731860Y-3513875D02*
X14701860Y-3543875D01*
X14705000Y-7485000D02*
X14735000Y-7515000D01*
X14735000Y-7485000D02*
X14705000Y-7515000D01*
X14803360Y-3046375D02*
X14833360Y-3076375D01*
X14833360Y-3046375D02*
X14803360Y-3076375D01*
X14803360Y-3808375D02*
X14833360Y-3838375D01*
X14833360Y-3808375D02*
X14803360Y-3838375D01*
X14803360Y-4062375D02*
X14833360Y-4092375D01*
X14833360Y-4062375D02*
X14803360Y-4092375D01*
X14803360Y-4316375D02*
X14833360Y-4346375D01*
X14833360Y-4316375D02*
X14803360Y-4346375D01*
X14803360Y-4570375D02*
X14833360Y-4600375D01*
X14833360Y-4570375D02*
X14803360Y-4600375D01*
X14803360Y-4824375D02*
X14833360Y-4854375D01*
X14833360Y-4824375D02*
X14803360Y-4854375D01*
X14803360Y-5078375D02*
X14833360Y-5108375D01*
X14833360Y-5078375D02*
X14803360Y-5108375D01*
X14803360Y-6348375D02*
X14833360Y-6378375D01*
X14833360Y-6348375D02*
X14803360Y-6378375D01*
X14803360Y-8126375D02*
X14833360Y-8156375D01*
X14833360Y-8126375D02*
X14803360Y-8156375D01*
X14803360Y-8380375D02*
X14833360Y-8410375D01*
X14833360Y-8380375D02*
X14803360Y-8410375D01*
X14803360Y-8634375D02*
X14833360Y-8664375D01*
X14833360Y-8634375D02*
X14803360Y-8664375D01*
X14803360Y-9142375D02*
X14833360Y-9172375D01*
X14833360Y-9142375D02*
X14803360Y-9172375D01*
X14803360Y-9650375D02*
X14833360Y-9680375D01*
X14833360Y-9650375D02*
X14803360Y-9680375D01*
X14803360Y-10666375D02*
X14833360Y-10696375D01*
X14833360Y-10666375D02*
X14803360Y-10696375D01*
X14805000Y-5325000D02*
X14835000Y-5355000D01*
X14835000Y-5325000D02*
X14805000Y-5355000D01*
X14805000Y-7185000D02*
X14835000Y-7215000D01*
X14835000Y-7185000D02*
X14805000Y-7215000D01*
X14813741Y-6017316D02*
X14843741Y-6047316D01*
X14843741Y-6017316D02*
X14813741Y-6047316D01*
X14845000Y-7725000D02*
X14875000Y-7755000D01*
X14875000Y-7725000D02*
X14845000Y-7755000D01*
X14865000Y-5585000D02*
X14895000Y-5615000D01*
X14895000Y-5585000D02*
X14865000Y-5615000D01*
X14945000Y-6005000D02*
X14975000Y-6035000D01*
X14975000Y-6005000D02*
X14945000Y-6035000D01*
X14945000Y-10945000D02*
X14975000Y-10975000D01*
X14975000Y-10945000D02*
X14945000Y-10975000D01*
X15045000Y-6092948D02*
X15075000Y-6122948D01*
X15075000Y-6092948D02*
X15045000Y-6122948D01*
X15057360Y-3554375D02*
X15087360Y-3584375D01*
X15087360Y-3554375D02*
X15057360Y-3584375D01*
X15057360Y-3808375D02*
X15087360Y-3838375D01*
X15087360Y-3808375D02*
X15057360Y-3838375D01*
X15057360Y-5586375D02*
X15087360Y-5616375D01*
X15087360Y-5586375D02*
X15057360Y-5616375D01*
X15057360Y-6602375D02*
X15087360Y-6632375D01*
X15087360Y-6602375D02*
X15057360Y-6632375D01*
X15057360Y-7364375D02*
X15087360Y-7394375D01*
X15087360Y-7364375D02*
X15057360Y-7394375D01*
X15057360Y-7872375D02*
X15087360Y-7902375D01*
X15087360Y-7872375D02*
X15057360Y-7902375D01*
X15057360Y-8126375D02*
X15087360Y-8156375D01*
X15087360Y-8126375D02*
X15057360Y-8156375D01*
X15057360Y-8380375D02*
X15087360Y-8410375D01*
X15087360Y-8380375D02*
X15057360Y-8410375D01*
X15057360Y-8634375D02*
X15087360Y-8664375D01*
X15087360Y-8634375D02*
X15057360Y-8664375D01*
X15057360Y-9142375D02*
X15087360Y-9172375D01*
X15087360Y-9142375D02*
X15057360Y-9172375D01*
X15065000Y-4065000D02*
X15095000Y-4095000D01*
X15095000Y-4065000D02*
X15065000Y-4095000D01*
X15065000Y-4325000D02*
X15095000Y-4355000D01*
X15095000Y-4325000D02*
X15065000Y-4355000D01*
X15065000Y-4565000D02*
X15095000Y-4595000D01*
X15095000Y-4565000D02*
X15065000Y-4595000D01*
X15065000Y-4825000D02*
X15095000Y-4855000D01*
X15095000Y-4825000D02*
X15065000Y-4855000D01*
X15065000Y-5085000D02*
X15095000Y-5115000D01*
X15095000Y-5085000D02*
X15065000Y-5115000D01*
X15065000Y-5325000D02*
X15095000Y-5355000D01*
X15095000Y-5325000D02*
X15065000Y-5355000D01*
X15125000Y-9825000D02*
X15155000Y-9855000D01*
X15155000Y-9825000D02*
X15125000Y-9855000D01*
X15165000Y-6185000D02*
X15195000Y-6215000D01*
X15195000Y-6185000D02*
X15165000Y-6215000D01*
X15206536Y-9583464D02*
X15236536Y-9613464D01*
X15236536Y-9583464D02*
X15206536Y-9613464D01*
X15221860Y-8893875D02*
X15251860Y-8923875D01*
X15251860Y-8893875D02*
X15221860Y-8923875D01*
X15245000Y-8505000D02*
X15275000Y-8535000D01*
X15275000Y-8505000D02*
X15245000Y-8535000D01*
X15261860Y-9733875D02*
X15291860Y-9763875D01*
X15291860Y-9733875D02*
X15261860Y-9763875D01*
X15311360Y-7872375D02*
X15341360Y-7902375D01*
X15341360Y-7872375D02*
X15311360Y-7902375D01*
X15311360Y-8126375D02*
X15341360Y-8156375D01*
X15341360Y-8126375D02*
X15311360Y-8156375D01*
X15311360Y-8380375D02*
X15341360Y-8410375D01*
X15341360Y-8380375D02*
X15311360Y-8410375D01*
X15311360Y-8634375D02*
X15341360Y-8664375D01*
X15341360Y-8634375D02*
X15311360Y-8664375D01*
X15311360Y-9142375D02*
X15341360Y-9172375D01*
X15341360Y-9142375D02*
X15311360Y-9172375D01*
X15311360Y-10666375D02*
X15341360Y-10696375D01*
X15341360Y-10666375D02*
X15311360Y-10696375D01*
X15311360Y-10920375D02*
X15341360Y-10950375D01*
X15341360Y-10920375D02*
X15311360Y-10950375D01*
X15311360Y-11682375D02*
X15341360Y-11712375D01*
X15341360Y-11682375D02*
X15311360Y-11712375D01*
X15325000Y-9905000D02*
X15355000Y-9935000D01*
X15355000Y-9905000D02*
X15325000Y-9935000D01*
X15445000Y-8745000D02*
X15475000Y-8775000D01*
X15475000Y-8745000D02*
X15445000Y-8775000D01*
X15445000Y-11485000D02*
X15475000Y-11515000D01*
X15475000Y-11485000D02*
X15445000Y-11515000D01*
X15465000Y-2765000D02*
X15495000Y-2795000D01*
X15495000Y-2765000D02*
X15465000Y-2795000D01*
X15465000Y-6102500D02*
X15495000Y-6132500D01*
X15495000Y-6102500D02*
X15465000Y-6132500D01*
X15465000Y-6825000D02*
X15495000Y-6855000D01*
X15495000Y-6825000D02*
X15465000Y-6855000D01*
X15545000Y-8905000D02*
X15575000Y-8935000D01*
X15575000Y-8905000D02*
X15545000Y-8935000D01*
X15645000Y-11605000D02*
X15675000Y-11635000D01*
X15675000Y-11605000D02*
X15645000Y-11635000D01*
X15819360Y-10158375D02*
X15849360Y-10188375D01*
X15849360Y-10158375D02*
X15819360Y-10188375D01*
X15819360Y-11174375D02*
X15849360Y-11204375D01*
X15849360Y-11174375D02*
X15819360Y-11204375D01*
X16073360Y-9904375D02*
X16103360Y-9934375D01*
X16103360Y-9904375D02*
X16073360Y-9934375D01*
X16073360Y-11174375D02*
X16103360Y-11204375D01*
X16103360Y-11174375D02*
X16073360Y-11204375D01*
X16165000Y-11885000D02*
X16195000Y-11915000D01*
X16195000Y-11885000D02*
X16165000Y-11915000D01*
X16327360Y-10412375D02*
X16357360Y-10442375D01*
X16357360Y-10412375D02*
X16327360Y-10442375D01*
X16327360Y-10920375D02*
X16357360Y-10950375D01*
X16357360Y-10920375D02*
X16327360Y-10950375D01*
X16327360Y-12190375D02*
X16357360Y-12220375D01*
X16357360Y-12190375D02*
X16327360Y-12220375D01*
X16581360Y-10666375D02*
X16611360Y-10696375D01*
X16611360Y-10666375D02*
X16581360Y-10696375D01*
X16581360Y-10920375D02*
X16611360Y-10950375D01*
X16611360Y-10920375D02*
X16581360Y-10950375D01*
X16581360Y-11428375D02*
X16611360Y-11458375D01*
X16611360Y-11428375D02*
X16581360Y-11458375D01*
X16581360Y-12190375D02*
X16611360Y-12220375D01*
X16611360Y-12190375D02*
X16581360Y-12220375D01*
X16581360Y-12444375D02*
X16611360Y-12474375D01*
X16611360Y-12444375D02*
X16581360Y-12474375D01*
X16835360Y-11682375D02*
X16865360Y-11712375D01*
X16865360Y-11682375D02*
X16835360Y-11712375D01*
X16835360Y-11936375D02*
X16865360Y-11966375D01*
X16865360Y-11936375D02*
X16835360Y-11966375D01*
X16835360Y-12190375D02*
X16865360Y-12220375D01*
X16865360Y-12190375D02*
X16835360Y-12220375D01*
X17089360Y-11682375D02*
X17119360Y-11712375D01*
X17119360Y-11682375D02*
X17089360Y-11712375D01*
X17343360Y-10666375D02*
X17373360Y-10696375D01*
X17373360Y-10666375D02*
X17343360Y-10696375D01*
X17343360Y-10920375D02*
X17373360Y-10950375D01*
X17373360Y-10920375D02*
X17343360Y-10950375D01*
X17343360Y-11174375D02*
X17373360Y-11204375D01*
X17373360Y-11174375D02*
X17343360Y-11204375D01*
X17343360Y-11428375D02*
X17373360Y-11458375D01*
X17373360Y-11428375D02*
X17343360Y-11458375D01*
X17597360Y-10920375D02*
X17627360Y-10950375D01*
X17627360Y-10920375D02*
X17597360Y-10950375D01*
X2386860Y-5088875D02*
G75*
G02*
X2356860Y-5088875I-15000J0D01*
G01*
X2356860Y-5088875D02*
G75*
G02*
X2386860Y-5088875I15000J0D01*
G01*
X2386860Y-6988875D02*
G75*
G02*
X2356860Y-6988875I-15000J0D01*
G01*
X2356860Y-6988875D02*
G75*
G02*
X2386860Y-6988875I15000J0D01*
G01*
X2386860Y-8888875D02*
G75*
G02*
X2356860Y-8888875I-15000J0D01*
G01*
X2356860Y-8888875D02*
G75*
G02*
X2386860Y-8888875I15000J0D01*
G01*
X2516860Y-5943875D02*
G75*
G02*
X2486860Y-5943875I-15000J0D01*
G01*
X2486860Y-5943875D02*
G75*
G02*
X2516860Y-5943875I15000J0D01*
G01*
X2516860Y-7843875D02*
G75*
G02*
X2486860Y-7843875I-15000J0D01*
G01*
X2486860Y-7843875D02*
G75*
G02*
X2516860Y-7843875I15000J0D01*
G01*
X2516860Y-9743875D02*
G75*
G02*
X2486860Y-9743875I-15000J0D01*
G01*
X2486860Y-9743875D02*
G75*
G02*
X2516860Y-9743875I15000J0D01*
G01*
X2604360Y-5943875D02*
G75*
G02*
X2574360Y-5943875I-15000J0D01*
G01*
X2574360Y-5943875D02*
G75*
G02*
X2604360Y-5943875I15000J0D01*
G01*
X2604360Y-7843875D02*
G75*
G02*
X2574360Y-7843875I-15000J0D01*
G01*
X2574360Y-7843875D02*
G75*
G02*
X2604360Y-7843875I15000J0D01*
G01*
X2604360Y-9743875D02*
G75*
G02*
X2574360Y-9743875I-15000J0D01*
G01*
X2574360Y-9743875D02*
G75*
G02*
X2604360Y-9743875I15000J0D01*
G01*
X3459360Y-5943875D02*
G75*
G02*
X3429360Y-5943875I-15000J0D01*
G01*
X3429360Y-5943875D02*
G75*
G02*
X3459360Y-5943875I15000J0D01*
G01*
X3459360Y-7843875D02*
G75*
G02*
X3429360Y-7843875I-15000J0D01*
G01*
X3429360Y-7843875D02*
G75*
G02*
X3459360Y-7843875I15000J0D01*
G01*
X3459360Y-9743875D02*
G75*
G02*
X3429360Y-9743875I-15000J0D01*
G01*
X3429360Y-9743875D02*
G75*
G02*
X3459360Y-9743875I15000J0D01*
G01*
X3546860Y-5943875D02*
G75*
G02*
X3516860Y-5943875I-15000J0D01*
G01*
X3516860Y-5943875D02*
G75*
G02*
X3546860Y-5943875I15000J0D01*
G01*
X3546860Y-7843875D02*
G75*
G02*
X3516860Y-7843875I-15000J0D01*
G01*
X3516860Y-7843875D02*
G75*
G02*
X3546860Y-7843875I15000J0D01*
G01*
X3546860Y-9743875D02*
G75*
G02*
X3516860Y-9743875I-15000J0D01*
G01*
X3516860Y-9743875D02*
G75*
G02*
X3546860Y-9743875I15000J0D01*
G01*
X3679360Y-5088875D02*
G75*
G02*
X3649360Y-5088875I-15000J0D01*
G01*
X3649360Y-5088875D02*
G75*
G02*
X3679360Y-5088875I15000J0D01*
G01*
X3679360Y-6988875D02*
G75*
G02*
X3649360Y-6988875I-15000J0D01*
G01*
X3649360Y-6988875D02*
G75*
G02*
X3679360Y-6988875I15000J0D01*
G01*
X3679360Y-8888875D02*
G75*
G02*
X3649360Y-8888875I-15000J0D01*
G01*
X3649360Y-8888875D02*
G75*
G02*
X3679360Y-8888875I15000J0D01*
G01*
X4286860Y-4388875D02*
G75*
G02*
X4256860Y-4388875I-15000J0D01*
G01*
X4256860Y-4388875D02*
G75*
G02*
X4286860Y-4388875I15000J0D01*
G01*
X4286860Y-6288875D02*
G75*
G02*
X4256860Y-6288875I-15000J0D01*
G01*
X4256860Y-6288875D02*
G75*
G02*
X4286860Y-6288875I15000J0D01*
G01*
X4286860Y-8188875D02*
G75*
G02*
X4256860Y-8188875I-15000J0D01*
G01*
X4256860Y-8188875D02*
G75*
G02*
X4286860Y-8188875I15000J0D01*
G01*
X4416860Y-5243875D02*
G75*
G02*
X4386860Y-5243875I-15000J0D01*
G01*
X4386860Y-5243875D02*
G75*
G02*
X4416860Y-5243875I15000J0D01*
G01*
X4416860Y-7143875D02*
G75*
G02*
X4386860Y-7143875I-15000J0D01*
G01*
X4386860Y-7143875D02*
G75*
G02*
X4416860Y-7143875I15000J0D01*
G01*
X4416860Y-9043875D02*
G75*
G02*
X4386860Y-9043875I-15000J0D01*
G01*
X4386860Y-9043875D02*
G75*
G02*
X4416860Y-9043875I15000J0D01*
G01*
X4504360Y-5243875D02*
G75*
G02*
X4474360Y-5243875I-15000J0D01*
G01*
X4474360Y-5243875D02*
G75*
G02*
X4504360Y-5243875I15000J0D01*
G01*
X4504360Y-7143875D02*
G75*
G02*
X4474360Y-7143875I-15000J0D01*
G01*
X4474360Y-7143875D02*
G75*
G02*
X4504360Y-7143875I15000J0D01*
G01*
X4504360Y-9043875D02*
G75*
G02*
X4474360Y-9043875I-15000J0D01*
G01*
X4474360Y-9043875D02*
G75*
G02*
X4504360Y-9043875I15000J0D01*
G01*
X5359360Y-5243875D02*
G75*
G02*
X5329360Y-5243875I-15000J0D01*
G01*
X5329360Y-5243875D02*
G75*
G02*
X5359360Y-5243875I15000J0D01*
G01*
X5359360Y-7143875D02*
G75*
G02*
X5329360Y-7143875I-15000J0D01*
G01*
X5329360Y-7143875D02*
G75*
G02*
X5359360Y-7143875I15000J0D01*
G01*
X5359360Y-9043875D02*
G75*
G02*
X5329360Y-9043875I-15000J0D01*
G01*
X5329360Y-9043875D02*
G75*
G02*
X5359360Y-9043875I15000J0D01*
G01*
X5446860Y-5243875D02*
G75*
G02*
X5416860Y-5243875I-15000J0D01*
G01*
X5416860Y-5243875D02*
G75*
G02*
X5446860Y-5243875I15000J0D01*
G01*
X5446860Y-7143875D02*
G75*
G02*
X5416860Y-7143875I-15000J0D01*
G01*
X5416860Y-7143875D02*
G75*
G02*
X5446860Y-7143875I15000J0D01*
G01*
X5446860Y-9043875D02*
G75*
G02*
X5416860Y-9043875I-15000J0D01*
G01*
X5416860Y-9043875D02*
G75*
G02*
X5446860Y-9043875I15000J0D01*
G01*
X5579360Y-4388875D02*
G75*
G02*
X5549360Y-4388875I-15000J0D01*
G01*
X5549360Y-4388875D02*
G75*
G02*
X5579360Y-4388875I15000J0D01*
G01*
X5579360Y-6288875D02*
G75*
G02*
X5549360Y-6288875I-15000J0D01*
G01*
X5549360Y-6288875D02*
G75*
G02*
X5579360Y-6288875I15000J0D01*
G01*
X5579360Y-8188875D02*
G75*
G02*
X5549360Y-8188875I-15000J0D01*
G01*
X5549360Y-8188875D02*
G75*
G02*
X5579360Y-8188875I15000J0D01*
G01*
X6186860Y-3138875D02*
G75*
G02*
X6156860Y-3138875I-15000J0D01*
G01*
X6156860Y-3138875D02*
G75*
G02*
X6186860Y-3138875I15000J0D01*
G01*
X6186860Y-5038875D02*
G75*
G02*
X6156860Y-5038875I-15000J0D01*
G01*
X6156860Y-5038875D02*
G75*
G02*
X6186860Y-5038875I15000J0D01*
G01*
X6186860Y-6938875D02*
G75*
G02*
X6156860Y-6938875I-15000J0D01*
G01*
X6156860Y-6938875D02*
G75*
G02*
X6186860Y-6938875I15000J0D01*
G01*
X6316860Y-3993875D02*
G75*
G02*
X6286860Y-3993875I-15000J0D01*
G01*
X6286860Y-3993875D02*
G75*
G02*
X6316860Y-3993875I15000J0D01*
G01*
X6316860Y-5893875D02*
G75*
G02*
X6286860Y-5893875I-15000J0D01*
G01*
X6286860Y-5893875D02*
G75*
G02*
X6316860Y-5893875I15000J0D01*
G01*
X6316860Y-7793875D02*
G75*
G02*
X6286860Y-7793875I-15000J0D01*
G01*
X6286860Y-7793875D02*
G75*
G02*
X6316860Y-7793875I15000J0D01*
G01*
X6404360Y-3993875D02*
G75*
G02*
X6374360Y-3993875I-15000J0D01*
G01*
X6374360Y-3993875D02*
G75*
G02*
X6404360Y-3993875I15000J0D01*
G01*
X6404360Y-5893875D02*
G75*
G02*
X6374360Y-5893875I-15000J0D01*
G01*
X6374360Y-5893875D02*
G75*
G02*
X6404360Y-5893875I15000J0D01*
G01*
X6404360Y-7793875D02*
G75*
G02*
X6374360Y-7793875I-15000J0D01*
G01*
X6374360Y-7793875D02*
G75*
G02*
X6404360Y-7793875I15000J0D01*
G01*
X7259360Y-3993875D02*
G75*
G02*
X7229360Y-3993875I-15000J0D01*
G01*
X7229360Y-3993875D02*
G75*
G02*
X7259360Y-3993875I15000J0D01*
G01*
X7259360Y-5893875D02*
G75*
G02*
X7229360Y-5893875I-15000J0D01*
G01*
X7229360Y-5893875D02*
G75*
G02*
X7259360Y-5893875I15000J0D01*
G01*
X7259360Y-7793875D02*
G75*
G02*
X7229360Y-7793875I-15000J0D01*
G01*
X7229360Y-7793875D02*
G75*
G02*
X7259360Y-7793875I15000J0D01*
G01*
X7346860Y-3993875D02*
G75*
G02*
X7316860Y-3993875I-15000J0D01*
G01*
X7316860Y-3993875D02*
G75*
G02*
X7346860Y-3993875I15000J0D01*
G01*
X7346860Y-5893875D02*
G75*
G02*
X7316860Y-5893875I-15000J0D01*
G01*
X7316860Y-5893875D02*
G75*
G02*
X7346860Y-5893875I15000J0D01*
G01*
X7346860Y-7793875D02*
G75*
G02*
X7316860Y-7793875I-15000J0D01*
G01*
X7316860Y-7793875D02*
G75*
G02*
X7346860Y-7793875I15000J0D01*
G01*
X7479360Y-3138875D02*
G75*
G02*
X7449360Y-3138875I-15000J0D01*
G01*
X7449360Y-3138875D02*
G75*
G02*
X7479360Y-3138875I15000J0D01*
G01*
X7479360Y-5038875D02*
G75*
G02*
X7449360Y-5038875I-15000J0D01*
G01*
X7449360Y-5038875D02*
G75*
G02*
X7479360Y-5038875I15000J0D01*
G01*
X7479360Y-6938875D02*
G75*
G02*
X7449360Y-6938875I-15000J0D01*
G01*
X7449360Y-6938875D02*
G75*
G02*
X7479360Y-6938875I15000J0D01*
G01*
X8086860Y-2638875D02*
G75*
G02*
X8056860Y-2638875I-15000J0D01*
G01*
X8056860Y-2638875D02*
G75*
G02*
X8086860Y-2638875I15000J0D01*
G01*
X8086860Y-4538875D02*
G75*
G02*
X8056860Y-4538875I-15000J0D01*
G01*
X8056860Y-4538875D02*
G75*
G02*
X8086860Y-4538875I15000J0D01*
G01*
X8086860Y-6438875D02*
G75*
G02*
X8056860Y-6438875I-15000J0D01*
G01*
X8056860Y-6438875D02*
G75*
G02*
X8086860Y-6438875I15000J0D01*
G01*
X8216860Y-3493875D02*
G75*
G02*
X8186860Y-3493875I-15000J0D01*
G01*
X8186860Y-3493875D02*
G75*
G02*
X8216860Y-3493875I15000J0D01*
G01*
X8216860Y-5393875D02*
G75*
G02*
X8186860Y-5393875I-15000J0D01*
G01*
X8186860Y-5393875D02*
G75*
G02*
X8216860Y-5393875I15000J0D01*
G01*
X8216860Y-7293875D02*
G75*
G02*
X8186860Y-7293875I-15000J0D01*
G01*
X8186860Y-7293875D02*
G75*
G02*
X8216860Y-7293875I15000J0D01*
G01*
X8304360Y-3493875D02*
G75*
G02*
X8274360Y-3493875I-15000J0D01*
G01*
X8274360Y-3493875D02*
G75*
G02*
X8304360Y-3493875I15000J0D01*
G01*
X8304360Y-5393875D02*
G75*
G02*
X8274360Y-5393875I-15000J0D01*
G01*
X8274360Y-5393875D02*
G75*
G02*
X8304360Y-5393875I15000J0D01*
G01*
X8304360Y-7293875D02*
G75*
G02*
X8274360Y-7293875I-15000J0D01*
G01*
X8274360Y-7293875D02*
G75*
G02*
X8304360Y-7293875I15000J0D01*
G01*
X9159360Y-3493875D02*
G75*
G02*
X9129360Y-3493875I-15000J0D01*
G01*
X9129360Y-3493875D02*
G75*
G02*
X9159360Y-3493875I15000J0D01*
G01*
X9159360Y-5393875D02*
G75*
G02*
X9129360Y-5393875I-15000J0D01*
G01*
X9129360Y-5393875D02*
G75*
G02*
X9159360Y-5393875I15000J0D01*
G01*
X9159360Y-7293875D02*
G75*
G02*
X9129360Y-7293875I-15000J0D01*
G01*
X9129360Y-7293875D02*
G75*
G02*
X9159360Y-7293875I15000J0D01*
G01*
X9246860Y-3493875D02*
G75*
G02*
X9216860Y-3493875I-15000J0D01*
G01*
X9216860Y-3493875D02*
G75*
G02*
X9246860Y-3493875I15000J0D01*
G01*
X9246860Y-5393875D02*
G75*
G02*
X9216860Y-5393875I-15000J0D01*
G01*
X9216860Y-5393875D02*
G75*
G02*
X9246860Y-5393875I15000J0D01*
G01*
X9246860Y-7293875D02*
G75*
G02*
X9216860Y-7293875I-15000J0D01*
G01*
X9216860Y-7293875D02*
G75*
G02*
X9246860Y-7293875I15000J0D01*
G01*
X9379360Y-2638875D02*
G75*
G02*
X9349360Y-2638875I-15000J0D01*
G01*
X9349360Y-2638875D02*
G75*
G02*
X9379360Y-2638875I15000J0D01*
G01*
X9379360Y-4538875D02*
G75*
G02*
X9349360Y-4538875I-15000J0D01*
G01*
X9349360Y-4538875D02*
G75*
G02*
X9379360Y-4538875I15000J0D01*
G01*
X9379360Y-6438875D02*
G75*
G02*
X9349360Y-6438875I-15000J0D01*
G01*
X9349360Y-6438875D02*
G75*
G02*
X9379360Y-6438875I15000J0D01*
G01*
X9986860Y-3138875D02*
G75*
G02*
X9956860Y-3138875I-15000J0D01*
G01*
X9956860Y-3138875D02*
G75*
G02*
X9986860Y-3138875I15000J0D01*
G01*
X9986860Y-5038875D02*
G75*
G02*
X9956860Y-5038875I-15000J0D01*
G01*
X9956860Y-5038875D02*
G75*
G02*
X9986860Y-5038875I15000J0D01*
G01*
X9986860Y-6938875D02*
G75*
G02*
X9956860Y-6938875I-15000J0D01*
G01*
X9956860Y-6938875D02*
G75*
G02*
X9986860Y-6938875I15000J0D01*
G01*
X10116860Y-3993875D02*
G75*
G02*
X10086860Y-3993875I-15000J0D01*
G01*
X10086860Y-3993875D02*
G75*
G02*
X10116860Y-3993875I15000J0D01*
G01*
X10116860Y-5893875D02*
G75*
G02*
X10086860Y-5893875I-15000J0D01*
G01*
X10086860Y-5893875D02*
G75*
G02*
X10116860Y-5893875I15000J0D01*
G01*
X10116860Y-7793875D02*
G75*
G02*
X10086860Y-7793875I-15000J0D01*
G01*
X10086860Y-7793875D02*
G75*
G02*
X10116860Y-7793875I15000J0D01*
G01*
X10204360Y-3993875D02*
G75*
G02*
X10174360Y-3993875I-15000J0D01*
G01*
X10174360Y-3993875D02*
G75*
G02*
X10204360Y-3993875I15000J0D01*
G01*
X10204360Y-5893875D02*
G75*
G02*
X10174360Y-5893875I-15000J0D01*
G01*
X10174360Y-5893875D02*
G75*
G02*
X10204360Y-5893875I15000J0D01*
G01*
X10204360Y-7793875D02*
G75*
G02*
X10174360Y-7793875I-15000J0D01*
G01*
X10174360Y-7793875D02*
G75*
G02*
X10204360Y-7793875I15000J0D01*
G01*
X11059360Y-3993875D02*
G75*
G02*
X11029360Y-3993875I-15000J0D01*
G01*
X11029360Y-3993875D02*
G75*
G02*
X11059360Y-3993875I15000J0D01*
G01*
X11059360Y-5893875D02*
G75*
G02*
X11029360Y-5893875I-15000J0D01*
G01*
X11029360Y-5893875D02*
G75*
G02*
X11059360Y-5893875I15000J0D01*
G01*
X11059360Y-7793875D02*
G75*
G02*
X11029360Y-7793875I-15000J0D01*
G01*
X11029360Y-7793875D02*
G75*
G02*
X11059360Y-7793875I15000J0D01*
G01*
X11146860Y-3993875D02*
G75*
G02*
X11116860Y-3993875I-15000J0D01*
G01*
X11116860Y-3993875D02*
G75*
G02*
X11146860Y-3993875I15000J0D01*
G01*
X11146860Y-5893875D02*
G75*
G02*
X11116860Y-5893875I-15000J0D01*
G01*
X11116860Y-5893875D02*
G75*
G02*
X11146860Y-5893875I15000J0D01*
G01*
X11146860Y-7793875D02*
G75*
G02*
X11116860Y-7793875I-15000J0D01*
G01*
X11116860Y-7793875D02*
G75*
G02*
X11146860Y-7793875I15000J0D01*
G01*
X11279360Y-3138875D02*
G75*
G02*
X11249360Y-3138875I-15000J0D01*
G01*
X11249360Y-3138875D02*
G75*
G02*
X11279360Y-3138875I15000J0D01*
G01*
X11279360Y-5038875D02*
G75*
G02*
X11249360Y-5038875I-15000J0D01*
G01*
X11249360Y-5038875D02*
G75*
G02*
X11279360Y-5038875I15000J0D01*
G01*
X11279360Y-6938875D02*
G75*
G02*
X11249360Y-6938875I-15000J0D01*
G01*
X11249360Y-6938875D02*
G75*
G02*
X11279360Y-6938875I15000J0D01*
G01*
X11886860Y-3388875D02*
G75*
G02*
X11856860Y-3388875I-15000J0D01*
G01*
X11856860Y-3388875D02*
G75*
G02*
X11886860Y-3388875I15000J0D01*
G01*
X11886860Y-5288875D02*
G75*
G02*
X11856860Y-5288875I-15000J0D01*
G01*
X11856860Y-5288875D02*
G75*
G02*
X11886860Y-5288875I15000J0D01*
G01*
X11886860Y-7188875D02*
G75*
G02*
X11856860Y-7188875I-15000J0D01*
G01*
X11856860Y-7188875D02*
G75*
G02*
X11886860Y-7188875I15000J0D01*
G01*
X11984326Y-10237978D02*
G75*
G02*
X11954326Y-10237978I-15000J0D01*
G01*
X11954326Y-10237978D02*
G75*
G02*
X11984326Y-10237978I15000J0D01*
G01*
X12002197Y-9373346D02*
G75*
G02*
X11972197Y-9373346I-15000J0D01*
G01*
X11972197Y-9373346D02*
G75*
G02*
X12002197Y-9373346I15000J0D01*
G01*
X12016860Y-4243875D02*
G75*
G02*
X11986860Y-4243875I-15000J0D01*
G01*
X11986860Y-4243875D02*
G75*
G02*
X12016860Y-4243875I15000J0D01*
G01*
X12016860Y-6143875D02*
G75*
G02*
X11986860Y-6143875I-15000J0D01*
G01*
X11986860Y-6143875D02*
G75*
G02*
X12016860Y-6143875I15000J0D01*
G01*
X12016860Y-8043875D02*
G75*
G02*
X11986860Y-8043875I-15000J0D01*
G01*
X11986860Y-8043875D02*
G75*
G02*
X12016860Y-8043875I15000J0D01*
G01*
X12070542Y-10252916D02*
G75*
G02*
X12040542Y-10252916I-15000J0D01*
G01*
X12040542Y-10252916D02*
G75*
G02*
X12070542Y-10252916I15000J0D01*
G01*
X12104360Y-4243875D02*
G75*
G02*
X12074360Y-4243875I-15000J0D01*
G01*
X12074360Y-4243875D02*
G75*
G02*
X12104360Y-4243875I15000J0D01*
G01*
X12104360Y-6143875D02*
G75*
G02*
X12074360Y-6143875I-15000J0D01*
G01*
X12074360Y-6143875D02*
G75*
G02*
X12104360Y-6143875I15000J0D01*
G01*
X12104360Y-8043875D02*
G75*
G02*
X12074360Y-8043875I-15000J0D01*
G01*
X12074360Y-8043875D02*
G75*
G02*
X12104360Y-8043875I15000J0D01*
G01*
X12912989Y-10398887D02*
G75*
G02*
X12882989Y-10398887I-15000J0D01*
G01*
X12882989Y-10398887D02*
G75*
G02*
X12912989Y-10398887I15000J0D01*
G01*
X12959360Y-4243875D02*
G75*
G02*
X12929360Y-4243875I-15000J0D01*
G01*
X12929360Y-4243875D02*
G75*
G02*
X12959360Y-4243875I15000J0D01*
G01*
X12959360Y-6143875D02*
G75*
G02*
X12929360Y-6143875I-15000J0D01*
G01*
X12929360Y-6143875D02*
G75*
G02*
X12959360Y-6143875I15000J0D01*
G01*
X12959360Y-8043875D02*
G75*
G02*
X12929360Y-8043875I-15000J0D01*
G01*
X12929360Y-8043875D02*
G75*
G02*
X12959360Y-8043875I15000J0D01*
G01*
X12999204Y-10413825D02*
G75*
G02*
X12969204Y-10413825I-15000J0D01*
G01*
X12969204Y-10413825D02*
G75*
G02*
X12999204Y-10413825I15000J0D01*
G01*
X13046860Y-4243875D02*
G75*
G02*
X13016860Y-4243875I-15000J0D01*
G01*
X13016860Y-4243875D02*
G75*
G02*
X13046860Y-4243875I15000J0D01*
G01*
X13046860Y-6143875D02*
G75*
G02*
X13016860Y-6143875I-15000J0D01*
G01*
X13016860Y-6143875D02*
G75*
G02*
X13046860Y-6143875I15000J0D01*
G01*
X13046860Y-8043875D02*
G75*
G02*
X13016860Y-8043875I-15000J0D01*
G01*
X13016860Y-8043875D02*
G75*
G02*
X13046860Y-8043875I15000J0D01*
G01*
X13179360Y-3388875D02*
G75*
G02*
X13149360Y-3388875I-15000J0D01*
G01*
X13149360Y-3388875D02*
G75*
G02*
X13179360Y-3388875I15000J0D01*
G01*
X13179360Y-5288875D02*
G75*
G02*
X13149360Y-5288875I-15000J0D01*
G01*
X13149360Y-5288875D02*
G75*
G02*
X13179360Y-5288875I15000J0D01*
G01*
X13179360Y-7188875D02*
G75*
G02*
X13149360Y-7188875I-15000J0D01*
G01*
X13149360Y-7188875D02*
G75*
G02*
X13179360Y-7188875I15000J0D01*
G01*
X13275725Y-9593986D02*
G75*
G02*
X13245725Y-9593986I-15000J0D01*
G01*
X13245725Y-9593986D02*
G75*
G02*
X13275725Y-9593986I15000J0D01*
G01*
X13888179Y-10645506D02*
G75*
G02*
X13858179Y-10645506I-15000J0D01*
G01*
X13858179Y-10645506D02*
G75*
G02*
X13888179Y-10645506I15000J0D01*
G01*
X13970696Y-10674613D02*
G75*
G02*
X13940696Y-10674613I-15000J0D01*
G01*
X13940696Y-10674613D02*
G75*
G02*
X13970696Y-10674613I15000J0D01*
G01*
X14050002Y-9795954D02*
G75*
G02*
X14020002Y-9795954I-15000J0D01*
G01*
X14020002Y-9795954D02*
G75*
G02*
X14050002Y-9795954I15000J0D01*
G01*
X14777002Y-10959033D02*
G75*
G02*
X14747002Y-10959033I-15000J0D01*
G01*
X14747002Y-10959033D02*
G75*
G02*
X14777002Y-10959033I15000J0D01*
G01*
X14859519Y-10988140D02*
G75*
G02*
X14829519Y-10988140I-15000J0D01*
G01*
X14829519Y-10988140D02*
G75*
G02*
X14859519Y-10988140I15000J0D01*
G01*
X15268893Y-10225911D02*
G75*
G02*
X15238893Y-10225911I-15000J0D01*
G01*
X15238893Y-10225911D02*
G75*
G02*
X15268893Y-10225911I15000J0D01*
G01*
X15698059Y-11365286D02*
G75*
G02*
X15668059Y-11365286I-15000J0D01*
G01*
X15668059Y-11365286D02*
G75*
G02*
X15698059Y-11365286I15000J0D01*
G01*
X15774566Y-11407747D02*
G75*
G02*
X15744566Y-11407747I-15000J0D01*
G01*
X15744566Y-11407747D02*
G75*
G02*
X15774566Y-11407747I15000J0D01*
G01*
X15999296Y-10554619D02*
G75*
G02*
X15969296Y-10554619I-15000J0D01*
G01*
X15969296Y-10554619D02*
G75*
G02*
X15999296Y-10554619I15000J0D01*
G01*
X16522149Y-11822651D02*
G75*
G02*
X16492149Y-11822651I-15000J0D01*
G01*
X16492149Y-11822651D02*
G75*
G02*
X16522149Y-11822651I15000J0D01*
G01*
X16598656Y-11865111D02*
G75*
G02*
X16568656Y-11865111I-15000J0D01*
G01*
X16568656Y-11865111D02*
G75*
G02*
X16598656Y-11865111I15000J0D01*
G01*
X17129414Y-11181827D02*
G75*
G02*
X17099414Y-11181827I-15000J0D01*
G01*
X17099414Y-11181827D02*
G75*
G02*
X17129414Y-11181827I15000J0D01*
G01*
X12800000Y-8338875D02*
X12800000Y-8398875D01*
X12770000Y-8368875D02*
X12830000Y-8368875D01*
X14194216Y-6606231D02*
X14194216Y-6535519D01*
X14123504Y-6535519D01*
X14123504Y-6606231D01*
X14194216Y-6606231D01*
X14422216Y-7154231D02*
X14422216Y-7083519D01*
X14351504Y-7083519D01*
X14351504Y-7154231D01*
X14422216Y-7154231D01*
X14411860Y-7068875D02*
X14361860Y-7068875D01*
X14361860Y-7168875D02*
G75*
G02*
X14361860Y-7068875I0J50000D01*
G01*
X14361860Y-7168875D02*
X14411860Y-7168875D01*
X14411860Y-7168875D02*
G75*
G03*
X14411860Y-7068875I0J50000D01*
G01*
X14422216Y-7994231D02*
X14422216Y-7923519D01*
X14351504Y-7923519D01*
X14351504Y-7994231D01*
X14422216Y-7994231D01*
X14411860Y-7908875D02*
X14361860Y-7908875D01*
X14361860Y-8008875D02*
G75*
G02*
X14361860Y-7908875I0J50000D01*
G01*
X14361860Y-8008875D02*
X14411860Y-8008875D01*
X14411860Y-8008875D02*
G75*
G03*
X14411860Y-7908875I0J50000D01*
G01*
X14448216Y-6606231D02*
X14448216Y-6535519D01*
X14377504Y-6535519D01*
X14377504Y-6606231D01*
X14448216Y-6606231D01*
X14572216Y-7574231D02*
X14572216Y-7503519D01*
X14501504Y-7503519D01*
X14501504Y-7574231D01*
X14572216Y-7574231D01*
X14561860Y-7488875D02*
X14511860Y-7488875D01*
X14511860Y-7588875D02*
G75*
G02*
X14511860Y-7488875I0J50000D01*
G01*
X14511860Y-7588875D02*
X14561860Y-7588875D01*
X14561860Y-7588875D02*
G75*
G03*
X14561860Y-7488875I0J50000D01*
G01*
X14702216Y-6606231D02*
X14702216Y-6535519D01*
X14631504Y-6535519D01*
X14631504Y-6606231D01*
X14702216Y-6606231D01*
X14956216Y-6606231D02*
X14956216Y-6535519D01*
X14885504Y-6535519D01*
X14885504Y-6606231D01*
X14956216Y-6606231D01*
X14972216Y-7574231D02*
X14972216Y-7503519D01*
X14901504Y-7503519D01*
X14901504Y-7574231D01*
X14972216Y-7574231D01*
X14961860Y-7488875D02*
X14911860Y-7488875D01*
X14911860Y-7588875D02*
G75*
G02*
X14911860Y-7488875I0J50000D01*
G01*
X14911860Y-7588875D02*
X14961860Y-7588875D01*
X14961860Y-7588875D02*
G75*
G03*
X14961860Y-7488875I0J50000D01*
G01*
X15272216Y-7574231D02*
X15272216Y-7503519D01*
X15201504Y-7503519D01*
X15201504Y-7574231D01*
X15272216Y-7574231D01*
X15261860Y-7488875D02*
X15211860Y-7488875D01*
X15211860Y-7588875D02*
G75*
G02*
X15211860Y-7488875I0J50000D01*
G01*
X15211860Y-7588875D02*
X15261860Y-7588875D01*
X15261860Y-7588875D02*
G75*
G03*
X15261860Y-7488875I0J50000D01*
G01*
D13*
X13779820Y-5922485D02*
X13834430Y-5867875D01*
X13779820Y-5813265D01*
X13725210Y-5867875D01*
X13779820Y-5922485D01*
X13779860Y-2874475D02*
X13834470Y-2819865D01*
X13779860Y-2765255D01*
X13725250Y-2819865D01*
X13779860Y-2874475D01*
X13779860Y-3128485D02*
X13834470Y-3073875D01*
X13779860Y-3019265D01*
X13725250Y-3073875D01*
X13779860Y-3128485D01*
X13779860Y-3382485D02*
X13834470Y-3327875D01*
X13779860Y-3273265D01*
X13725250Y-3327875D01*
X13779860Y-3382485D01*
X13779860Y-3636485D02*
X13834470Y-3581875D01*
X13779860Y-3527265D01*
X13725250Y-3581875D01*
X13779860Y-3636485D01*
X13779860Y-3890485D02*
X13834470Y-3835875D01*
X13779860Y-3781265D01*
X13725250Y-3835875D01*
X13779860Y-3890485D01*
X13779860Y-4144485D02*
X13834470Y-4089875D01*
X13779860Y-4035265D01*
X13725250Y-4089875D01*
X13779860Y-4144485D01*
X13779860Y-4398485D02*
X13834470Y-4343875D01*
X13779860Y-4289265D01*
X13725250Y-4343875D01*
X13779860Y-4398485D01*
X13779860Y-4652485D02*
X13834470Y-4597875D01*
X13779860Y-4543265D01*
X13725250Y-4597875D01*
X13779860Y-4652485D01*
X13779860Y-4906485D02*
X13834470Y-4851875D01*
X13779860Y-4797265D01*
X13725250Y-4851875D01*
X13779860Y-4906485D01*
X13779860Y-5160485D02*
X13834470Y-5105875D01*
X13779860Y-5051265D01*
X13725250Y-5105875D01*
X13779860Y-5160485D01*
X13779860Y-5414485D02*
X13834470Y-5359875D01*
X13779860Y-5305265D01*
X13725250Y-5359875D01*
X13779860Y-5414485D01*
X13779860Y-5668485D02*
X13834470Y-5613875D01*
X13779860Y-5559265D01*
X13725250Y-5613875D01*
X13779860Y-5668485D01*
X14033860Y-5668485D02*
X14088470Y-5613875D01*
X14033860Y-5559265D01*
X13979250Y-5613875D01*
X14033860Y-5668485D01*
X14033860Y-5922485D02*
X14088470Y-5867875D01*
X14033860Y-5813265D01*
X13979250Y-5867875D01*
X14033860Y-5922485D01*
X14287860Y-5922485D02*
X14342470Y-5867875D01*
X14287860Y-5813265D01*
X14233250Y-5867875D01*
X14287860Y-5922485D01*
X14541860Y-5922485D02*
X14596470Y-5867875D01*
X14541860Y-5813265D01*
X14487250Y-5867875D01*
X14541860Y-5922485D01*
X14795860Y-5922485D02*
X14850470Y-5867875D01*
X14795860Y-5813265D01*
X14741250Y-5867875D01*
X14795860Y-5922485D01*
X15049860Y-5922485D02*
X15104470Y-5867875D01*
X15049860Y-5813265D01*
X14995250Y-5867875D01*
X15049860Y-5922485D01*
X15303860Y-2874475D02*
X15358470Y-2819865D01*
X15303860Y-2765255D01*
X15249250Y-2819865D01*
X15303860Y-2874475D01*
X15303860Y-3128485D02*
X15358470Y-3073875D01*
X15303860Y-3019265D01*
X15249250Y-3073875D01*
X15303860Y-3128485D01*
X15303860Y-3382485D02*
X15358470Y-3327875D01*
X15303860Y-3273265D01*
X15249250Y-3327875D01*
X15303860Y-3382485D01*
X15303860Y-3636485D02*
X15358470Y-3581875D01*
X15303860Y-3527265D01*
X15249250Y-3581875D01*
X15303860Y-3636485D01*
X15303860Y-3890485D02*
X15358470Y-3835875D01*
X15303860Y-3781265D01*
X15249250Y-3835875D01*
X15303860Y-3890485D01*
X15303860Y-4144485D02*
X15358470Y-4089875D01*
X15303860Y-4035265D01*
X15249250Y-4089875D01*
X15303860Y-4144485D01*
X15303860Y-4398485D02*
X15358470Y-4343875D01*
X15303860Y-4289265D01*
X15249250Y-4343875D01*
X15303860Y-4398485D01*
X15303860Y-4652485D02*
X15358470Y-4597875D01*
X15303860Y-4543265D01*
X15249250Y-4597875D01*
X15303860Y-4652485D01*
X15303860Y-4906485D02*
X15358470Y-4851875D01*
X15303860Y-4797265D01*
X15249250Y-4851875D01*
X15303860Y-4906485D01*
X15303860Y-5160485D02*
X15358470Y-5105875D01*
X15303860Y-5051265D01*
X15249250Y-5105875D01*
X15303860Y-5160485D01*
X15303860Y-5414485D02*
X15358470Y-5359875D01*
X15303860Y-5305265D01*
X15249250Y-5359875D01*
X15303860Y-5414485D01*
X15303860Y-5668485D02*
X15358470Y-5613875D01*
X15303860Y-5559265D01*
X15249250Y-5613875D01*
X15303860Y-5668485D01*
X15303860Y-5922485D02*
X15358470Y-5867875D01*
X15303860Y-5813265D01*
X15249250Y-5867875D01*
X15303860Y-5922485D01*
D14*
X2185000Y-6065000D02*
X2295000Y-6175000D01*
X2295000Y-6065000D02*
X2185000Y-6175000D01*
X2295000Y-6120000D02*
G75*
G02*
X2185000Y-6120000I-55000J0D01*
G01*
X2185000Y-6120000D02*
G75*
G02*
X2295000Y-6120000I55000J0D01*
G01*
D12*
X2125137Y-12934418D02*
X2125137Y-12734418D01*
X2125137Y-12734418D02*
X2172756Y-12734418D01*
X2172756Y-12734418D02*
X2201327Y-12743942D01*
X2201327Y-12743942D02*
X2220375Y-12762989D01*
X2220375Y-12762989D02*
X2229899Y-12782037D01*
X2229899Y-12782037D02*
X2239423Y-12820132D01*
X2239423Y-12820132D02*
X2239423Y-12848703D01*
X2239423Y-12848703D02*
X2229899Y-12886799D01*
X2229899Y-12886799D02*
X2220375Y-12905846D01*
X2220375Y-12905846D02*
X2201327Y-12924894D01*
X2201327Y-12924894D02*
X2172756Y-12934418D01*
X2172756Y-12934418D02*
X2125137Y-12934418D01*
X2325137Y-12934418D02*
X2325137Y-12801084D01*
X2325137Y-12839180D02*
X2334661Y-12820132D01*
X2334661Y-12820132D02*
X2344184Y-12810608D01*
X2344184Y-12810608D02*
X2363232Y-12801084D01*
X2363232Y-12801084D02*
X2382280Y-12801084D01*
X2448946Y-12934418D02*
X2448946Y-12801084D01*
X2448946Y-12734418D02*
X2439423Y-12743942D01*
X2439423Y-12743942D02*
X2448946Y-12753465D01*
X2448946Y-12753465D02*
X2458470Y-12743942D01*
X2458470Y-12743942D02*
X2448946Y-12734418D01*
X2448946Y-12734418D02*
X2448946Y-12753465D01*
X2572756Y-12934418D02*
X2553708Y-12924894D01*
X2553708Y-12924894D02*
X2544184Y-12905846D01*
X2544184Y-12905846D02*
X2544184Y-12734418D01*
X2677518Y-12934418D02*
X2658470Y-12924894D01*
X2658470Y-12924894D02*
X2648946Y-12905846D01*
X2648946Y-12905846D02*
X2648946Y-12734418D01*
X2906089Y-12934418D02*
X2906089Y-12734418D01*
X2906089Y-12734418D02*
X2972756Y-12877275D01*
X2972756Y-12877275D02*
X3039422Y-12734418D01*
X3039422Y-12734418D02*
X3039422Y-12934418D01*
X3220375Y-12934418D02*
X3220375Y-12829656D01*
X3220375Y-12829656D02*
X3210851Y-12810608D01*
X3210851Y-12810608D02*
X3191803Y-12801084D01*
X3191803Y-12801084D02*
X3153708Y-12801084D01*
X3153708Y-12801084D02*
X3134661Y-12810608D01*
X3220375Y-12924894D02*
X3201327Y-12934418D01*
X3201327Y-12934418D02*
X3153708Y-12934418D01*
X3153708Y-12934418D02*
X3134661Y-12924894D01*
X3134661Y-12924894D02*
X3125137Y-12905846D01*
X3125137Y-12905846D02*
X3125137Y-12886799D01*
X3125137Y-12886799D02*
X3134661Y-12867751D01*
X3134661Y-12867751D02*
X3153708Y-12858227D01*
X3153708Y-12858227D02*
X3201327Y-12858227D01*
X3201327Y-12858227D02*
X3220375Y-12848703D01*
X3315613Y-12801084D02*
X3315613Y-13001084D01*
X3315613Y-12810608D02*
X3334661Y-12801084D01*
X3334661Y-12801084D02*
X3372756Y-12801084D01*
X3372756Y-12801084D02*
X3391803Y-12810608D01*
X3391803Y-12810608D02*
X3401327Y-12820132D01*
X3401327Y-12820132D02*
X3410851Y-12839180D01*
X3410851Y-12839180D02*
X3410851Y-12896322D01*
X3410851Y-12896322D02*
X3401327Y-12915370D01*
X3401327Y-12915370D02*
X3391803Y-12924894D01*
X3391803Y-12924894D02*
X3372756Y-12934418D01*
X3372756Y-12934418D02*
X3334661Y-12934418D01*
X3334661Y-12934418D02*
X3315613Y-12924894D01*
X3496565Y-12915370D02*
X3506089Y-12924894D01*
X3506089Y-12924894D02*
X3496565Y-12934418D01*
X3496565Y-12934418D02*
X3487042Y-12924894D01*
X3487042Y-12924894D02*
X3496565Y-12915370D01*
X3496565Y-12915370D02*
X3496565Y-12934418D01*
X3496565Y-12810608D02*
X3506089Y-12820132D01*
X3506089Y-12820132D02*
X3496565Y-12829656D01*
X3496565Y-12829656D02*
X3487042Y-12820132D01*
X3487042Y-12820132D02*
X3496565Y-12810608D01*
X3496565Y-12810608D02*
X3496565Y-12829656D01*
D11*
X1834360Y-13247934D02*
X1864360Y-13277934D01*
X1864360Y-13247934D02*
X1834360Y-13277934D01*
D12*
X2163232Y-13154418D02*
X2182280Y-13154418D01*
X2182280Y-13154418D02*
X2201327Y-13163942D01*
X2201327Y-13163942D02*
X2210851Y-13173465D01*
X2210851Y-13173465D02*
X2220375Y-13192513D01*
X2220375Y-13192513D02*
X2229899Y-13230608D01*
X2229899Y-13230608D02*
X2229899Y-13278227D01*
X2229899Y-13278227D02*
X2220375Y-13316322D01*
X2220375Y-13316322D02*
X2210851Y-13335370D01*
X2210851Y-13335370D02*
X2201327Y-13344894D01*
X2201327Y-13344894D02*
X2182280Y-13354418D01*
X2182280Y-13354418D02*
X2163232Y-13354418D01*
X2163232Y-13354418D02*
X2144184Y-13344894D01*
X2144184Y-13344894D02*
X2134661Y-13335370D01*
X2134661Y-13335370D02*
X2125137Y-13316322D01*
X2125137Y-13316322D02*
X2115613Y-13278227D01*
X2115613Y-13278227D02*
X2115613Y-13230608D01*
X2115613Y-13230608D02*
X2125137Y-13192513D01*
X2125137Y-13192513D02*
X2134661Y-13173465D01*
X2134661Y-13173465D02*
X2144184Y-13163942D01*
X2144184Y-13163942D02*
X2163232Y-13154418D01*
X2315613Y-13335370D02*
X2325137Y-13344894D01*
X2325137Y-13344894D02*
X2315613Y-13354418D01*
X2315613Y-13354418D02*
X2306089Y-13344894D01*
X2306089Y-13344894D02*
X2315613Y-13335370D01*
X2315613Y-13335370D02*
X2315613Y-13354418D01*
X2391804Y-13154418D02*
X2515613Y-13154418D01*
X2515613Y-13154418D02*
X2448946Y-13230608D01*
X2448946Y-13230608D02*
X2477518Y-13230608D01*
X2477518Y-13230608D02*
X2496565Y-13240132D01*
X2496565Y-13240132D02*
X2506089Y-13249656D01*
X2506089Y-13249656D02*
X2515613Y-13268703D01*
X2515613Y-13268703D02*
X2515613Y-13316322D01*
X2515613Y-13316322D02*
X2506089Y-13335370D01*
X2506089Y-13335370D02*
X2496565Y-13344894D01*
X2496565Y-13344894D02*
X2477518Y-13354418D01*
X2477518Y-13354418D02*
X2420375Y-13354418D01*
X2420375Y-13354418D02*
X2401327Y-13344894D01*
X2401327Y-13344894D02*
X2391804Y-13335370D01*
X2639423Y-13154418D02*
X2658470Y-13154418D01*
X2658470Y-13154418D02*
X2677518Y-13163942D01*
X2677518Y-13163942D02*
X2687042Y-13173465D01*
X2687042Y-13173465D02*
X2696565Y-13192513D01*
X2696565Y-13192513D02*
X2706089Y-13230608D01*
X2706089Y-13230608D02*
X2706089Y-13278227D01*
X2706089Y-13278227D02*
X2696565Y-13316322D01*
X2696565Y-13316322D02*
X2687042Y-13335370D01*
X2687042Y-13335370D02*
X2677518Y-13344894D01*
X2677518Y-13344894D02*
X2658470Y-13354418D01*
X2658470Y-13354418D02*
X2639423Y-13354418D01*
X2639423Y-13354418D02*
X2620375Y-13344894D01*
X2620375Y-13344894D02*
X2610851Y-13335370D01*
X2610851Y-13335370D02*
X2601327Y-13316322D01*
X2601327Y-13316322D02*
X2591804Y-13278227D01*
X2591804Y-13278227D02*
X2591804Y-13230608D01*
X2591804Y-13230608D02*
X2601327Y-13192513D01*
X2601327Y-13192513D02*
X2610851Y-13173465D01*
X2610851Y-13173465D02*
X2620375Y-13163942D01*
X2620375Y-13163942D02*
X2639423Y-13154418D01*
X2829899Y-13154418D02*
X2848946Y-13154418D01*
X2848946Y-13154418D02*
X2867994Y-13163942D01*
X2867994Y-13163942D02*
X2877518Y-13173465D01*
X2877518Y-13173465D02*
X2887042Y-13192513D01*
X2887042Y-13192513D02*
X2896565Y-13230608D01*
X2896565Y-13230608D02*
X2896565Y-13278227D01*
X2896565Y-13278227D02*
X2887042Y-13316322D01*
X2887042Y-13316322D02*
X2877518Y-13335370D01*
X2877518Y-13335370D02*
X2867994Y-13344894D01*
X2867994Y-13344894D02*
X2848946Y-13354418D01*
X2848946Y-13354418D02*
X2829899Y-13354418D01*
X2829899Y-13354418D02*
X2810851Y-13344894D01*
X2810851Y-13344894D02*
X2801327Y-13335370D01*
X2801327Y-13335370D02*
X2791804Y-13316322D01*
X2791804Y-13316322D02*
X2782280Y-13278227D01*
X2782280Y-13278227D02*
X2782280Y-13230608D01*
X2782280Y-13230608D02*
X2791804Y-13192513D01*
X2791804Y-13192513D02*
X2801327Y-13173465D01*
X2801327Y-13173465D02*
X2810851Y-13163942D01*
X2810851Y-13163942D02*
X2829899Y-13154418D01*
X2982280Y-13354418D02*
X2982280Y-13221084D01*
X2982280Y-13240132D02*
X2991803Y-13230608D01*
X2991803Y-13230608D02*
X3010851Y-13221084D01*
X3010851Y-13221084D02*
X3039423Y-13221084D01*
X3039423Y-13221084D02*
X3058470Y-13230608D01*
X3058470Y-13230608D02*
X3067994Y-13249656D01*
X3067994Y-13249656D02*
X3067994Y-13354418D01*
X3067994Y-13249656D02*
X3077518Y-13230608D01*
X3077518Y-13230608D02*
X3096565Y-13221084D01*
X3096565Y-13221084D02*
X3125137Y-13221084D01*
X3125137Y-13221084D02*
X3144184Y-13230608D01*
X3144184Y-13230608D02*
X3153708Y-13249656D01*
X3153708Y-13249656D02*
X3153708Y-13354418D01*
X3248946Y-13354418D02*
X3248946Y-13221084D01*
X3248946Y-13240132D02*
X3258470Y-13230608D01*
X3258470Y-13230608D02*
X3277518Y-13221084D01*
X3277518Y-13221084D02*
X3306089Y-13221084D01*
X3306089Y-13221084D02*
X3325137Y-13230608D01*
X3325137Y-13230608D02*
X3334661Y-13249656D01*
X3334661Y-13249656D02*
X3334661Y-13354418D01*
X3334661Y-13249656D02*
X3344184Y-13230608D01*
X3344184Y-13230608D02*
X3363232Y-13221084D01*
X3363232Y-13221084D02*
X3391803Y-13221084D01*
X3391803Y-13221084D02*
X3410851Y-13230608D01*
X3410851Y-13230608D02*
X3420375Y-13249656D01*
X3420375Y-13249656D02*
X3420375Y-13354418D01*
X3810851Y-13144894D02*
X3639423Y-13402037D01*
X4067994Y-13154418D02*
X4087042Y-13154418D01*
X4087042Y-13154418D02*
X4106089Y-13163942D01*
X4106089Y-13163942D02*
X4115613Y-13173465D01*
X4115613Y-13173465D02*
X4125137Y-13192513D01*
X4125137Y-13192513D02*
X4134661Y-13230608D01*
X4134661Y-13230608D02*
X4134661Y-13278227D01*
X4134661Y-13278227D02*
X4125137Y-13316322D01*
X4125137Y-13316322D02*
X4115613Y-13335370D01*
X4115613Y-13335370D02*
X4106089Y-13344894D01*
X4106089Y-13344894D02*
X4087042Y-13354418D01*
X4087042Y-13354418D02*
X4067994Y-13354418D01*
X4067994Y-13354418D02*
X4048946Y-13344894D01*
X4048946Y-13344894D02*
X4039423Y-13335370D01*
X4039423Y-13335370D02*
X4029899Y-13316322D01*
X4029899Y-13316322D02*
X4020375Y-13278227D01*
X4020375Y-13278227D02*
X4020375Y-13230608D01*
X4020375Y-13230608D02*
X4029899Y-13192513D01*
X4029899Y-13192513D02*
X4039423Y-13173465D01*
X4039423Y-13173465D02*
X4048946Y-13163942D01*
X4048946Y-13163942D02*
X4067994Y-13154418D01*
X4220375Y-13335370D02*
X4229899Y-13344894D01*
X4229899Y-13344894D02*
X4220375Y-13354418D01*
X4220375Y-13354418D02*
X4210851Y-13344894D01*
X4210851Y-13344894D02*
X4220375Y-13335370D01*
X4220375Y-13335370D02*
X4220375Y-13354418D01*
X4353708Y-13154418D02*
X4372756Y-13154418D01*
X4372756Y-13154418D02*
X4391804Y-13163942D01*
X4391804Y-13163942D02*
X4401328Y-13173465D01*
X4401328Y-13173465D02*
X4410851Y-13192513D01*
X4410851Y-13192513D02*
X4420375Y-13230608D01*
X4420375Y-13230608D02*
X4420375Y-13278227D01*
X4420375Y-13278227D02*
X4410851Y-13316322D01*
X4410851Y-13316322D02*
X4401328Y-13335370D01*
X4401328Y-13335370D02*
X4391804Y-13344894D01*
X4391804Y-13344894D02*
X4372756Y-13354418D01*
X4372756Y-13354418D02*
X4353708Y-13354418D01*
X4353708Y-13354418D02*
X4334661Y-13344894D01*
X4334661Y-13344894D02*
X4325137Y-13335370D01*
X4325137Y-13335370D02*
X4315613Y-13316322D01*
X4315613Y-13316322D02*
X4306089Y-13278227D01*
X4306089Y-13278227D02*
X4306089Y-13230608D01*
X4306089Y-13230608D02*
X4315613Y-13192513D01*
X4315613Y-13192513D02*
X4325137Y-13173465D01*
X4325137Y-13173465D02*
X4334661Y-13163942D01*
X4334661Y-13163942D02*
X4353708Y-13154418D01*
X4610851Y-13354418D02*
X4496566Y-13354418D01*
X4553708Y-13354418D02*
X4553708Y-13154418D01*
X4553708Y-13154418D02*
X4534661Y-13182989D01*
X4534661Y-13182989D02*
X4515613Y-13202037D01*
X4515613Y-13202037D02*
X4496566Y-13211561D01*
X4801328Y-13354418D02*
X4687042Y-13354418D01*
X4744185Y-13354418D02*
X4744185Y-13154418D01*
X4744185Y-13154418D02*
X4725137Y-13182989D01*
X4725137Y-13182989D02*
X4706089Y-13202037D01*
X4706089Y-13202037D02*
X4687042Y-13211561D01*
X4915613Y-13240132D02*
X4896566Y-13230608D01*
X4896566Y-13230608D02*
X4887042Y-13221084D01*
X4887042Y-13221084D02*
X4877518Y-13202037D01*
X4877518Y-13202037D02*
X4877518Y-13192513D01*
X4877518Y-13192513D02*
X4887042Y-13173465D01*
X4887042Y-13173465D02*
X4896566Y-13163942D01*
X4896566Y-13163942D02*
X4915613Y-13154418D01*
X4915613Y-13154418D02*
X4953709Y-13154418D01*
X4953709Y-13154418D02*
X4972756Y-13163942D01*
X4972756Y-13163942D02*
X4982280Y-13173465D01*
X4982280Y-13173465D02*
X4991804Y-13192513D01*
X4991804Y-13192513D02*
X4991804Y-13202037D01*
X4991804Y-13202037D02*
X4982280Y-13221084D01*
X4982280Y-13221084D02*
X4972756Y-13230608D01*
X4972756Y-13230608D02*
X4953709Y-13240132D01*
X4953709Y-13240132D02*
X4915613Y-13240132D01*
X4915613Y-13240132D02*
X4896566Y-13249656D01*
X4896566Y-13249656D02*
X4887042Y-13259180D01*
X4887042Y-13259180D02*
X4877518Y-13278227D01*
X4877518Y-13278227D02*
X4877518Y-13316322D01*
X4877518Y-13316322D02*
X4887042Y-13335370D01*
X4887042Y-13335370D02*
X4896566Y-13344894D01*
X4896566Y-13344894D02*
X4915613Y-13354418D01*
X4915613Y-13354418D02*
X4953709Y-13354418D01*
X4953709Y-13354418D02*
X4972756Y-13344894D01*
X4972756Y-13344894D02*
X4982280Y-13335370D01*
X4982280Y-13335370D02*
X4991804Y-13316322D01*
X4991804Y-13316322D02*
X4991804Y-13278227D01*
X4991804Y-13278227D02*
X4982280Y-13259180D01*
X4982280Y-13259180D02*
X4972756Y-13249656D01*
X4972756Y-13249656D02*
X4953709Y-13240132D01*
X5067994Y-13154418D02*
X5067994Y-13192513D01*
X5144185Y-13154418D02*
X5144185Y-13192513D01*
X5439423Y-13430608D02*
X5429899Y-13421084D01*
X5429899Y-13421084D02*
X5410851Y-13392513D01*
X5410851Y-13392513D02*
X5401328Y-13373465D01*
X5401328Y-13373465D02*
X5391804Y-13344894D01*
X5391804Y-13344894D02*
X5382280Y-13297275D01*
X5382280Y-13297275D02*
X5382280Y-13259180D01*
X5382280Y-13259180D02*
X5391804Y-13211561D01*
X5391804Y-13211561D02*
X5401328Y-13182989D01*
X5401328Y-13182989D02*
X5410851Y-13163942D01*
X5410851Y-13163942D02*
X5429899Y-13135370D01*
X5429899Y-13135370D02*
X5439423Y-13125846D01*
X5610851Y-13154418D02*
X5515613Y-13154418D01*
X5515613Y-13154418D02*
X5506090Y-13249656D01*
X5506090Y-13249656D02*
X5515613Y-13240132D01*
X5515613Y-13240132D02*
X5534661Y-13230608D01*
X5534661Y-13230608D02*
X5582280Y-13230608D01*
X5582280Y-13230608D02*
X5601328Y-13240132D01*
X5601328Y-13240132D02*
X5610851Y-13249656D01*
X5610851Y-13249656D02*
X5620375Y-13268703D01*
X5620375Y-13268703D02*
X5620375Y-13316322D01*
X5620375Y-13316322D02*
X5610851Y-13335370D01*
X5610851Y-13335370D02*
X5601328Y-13344894D01*
X5601328Y-13344894D02*
X5582280Y-13354418D01*
X5582280Y-13354418D02*
X5534661Y-13354418D01*
X5534661Y-13354418D02*
X5515613Y-13344894D01*
X5515613Y-13344894D02*
X5506090Y-13335370D01*
X5801328Y-13154418D02*
X5706089Y-13154418D01*
X5706089Y-13154418D02*
X5696566Y-13249656D01*
X5696566Y-13249656D02*
X5706089Y-13240132D01*
X5706089Y-13240132D02*
X5725137Y-13230608D01*
X5725137Y-13230608D02*
X5772756Y-13230608D01*
X5772756Y-13230608D02*
X5791804Y-13240132D01*
X5791804Y-13240132D02*
X5801328Y-13249656D01*
X5801328Y-13249656D02*
X5810851Y-13268703D01*
X5810851Y-13268703D02*
X5810851Y-13316322D01*
X5810851Y-13316322D02*
X5801328Y-13335370D01*
X5801328Y-13335370D02*
X5791804Y-13344894D01*
X5791804Y-13344894D02*
X5772756Y-13354418D01*
X5772756Y-13354418D02*
X5725137Y-13354418D01*
X5725137Y-13354418D02*
X5706089Y-13344894D01*
X5706089Y-13344894D02*
X5696566Y-13335370D01*
X5887042Y-13173465D02*
X5896566Y-13163942D01*
X5896566Y-13163942D02*
X5915613Y-13154418D01*
X5915613Y-13154418D02*
X5963232Y-13154418D01*
X5963232Y-13154418D02*
X5982280Y-13163942D01*
X5982280Y-13163942D02*
X5991804Y-13173465D01*
X5991804Y-13173465D02*
X6001328Y-13192513D01*
X6001328Y-13192513D02*
X6001328Y-13211561D01*
X6001328Y-13211561D02*
X5991804Y-13240132D01*
X5991804Y-13240132D02*
X5877518Y-13354418D01*
X5877518Y-13354418D02*
X6001328Y-13354418D01*
X6239423Y-13354418D02*
X6239423Y-13154418D01*
X6325137Y-13354418D02*
X6325137Y-13249656D01*
X6325137Y-13249656D02*
X6315613Y-13230608D01*
X6315613Y-13230608D02*
X6296566Y-13221084D01*
X6296566Y-13221084D02*
X6267994Y-13221084D01*
X6267994Y-13221084D02*
X6248947Y-13230608D01*
X6248947Y-13230608D02*
X6239423Y-13240132D01*
X6448947Y-13354418D02*
X6429899Y-13344894D01*
X6429899Y-13344894D02*
X6420375Y-13335370D01*
X6420375Y-13335370D02*
X6410851Y-13316322D01*
X6410851Y-13316322D02*
X6410851Y-13259180D01*
X6410851Y-13259180D02*
X6420375Y-13240132D01*
X6420375Y-13240132D02*
X6429899Y-13230608D01*
X6429899Y-13230608D02*
X6448947Y-13221084D01*
X6448947Y-13221084D02*
X6477518Y-13221084D01*
X6477518Y-13221084D02*
X6496566Y-13230608D01*
X6496566Y-13230608D02*
X6506090Y-13240132D01*
X6506090Y-13240132D02*
X6515613Y-13259180D01*
X6515613Y-13259180D02*
X6515613Y-13316322D01*
X6515613Y-13316322D02*
X6506090Y-13335370D01*
X6506090Y-13335370D02*
X6496566Y-13344894D01*
X6496566Y-13344894D02*
X6477518Y-13354418D01*
X6477518Y-13354418D02*
X6448947Y-13354418D01*
X6629899Y-13354418D02*
X6610851Y-13344894D01*
X6610851Y-13344894D02*
X6601328Y-13325846D01*
X6601328Y-13325846D02*
X6601328Y-13154418D01*
X6782280Y-13344894D02*
X6763232Y-13354418D01*
X6763232Y-13354418D02*
X6725137Y-13354418D01*
X6725137Y-13354418D02*
X6706090Y-13344894D01*
X6706090Y-13344894D02*
X6696566Y-13325846D01*
X6696566Y-13325846D02*
X6696566Y-13249656D01*
X6696566Y-13249656D02*
X6706090Y-13230608D01*
X6706090Y-13230608D02*
X6725137Y-13221084D01*
X6725137Y-13221084D02*
X6763232Y-13221084D01*
X6763232Y-13221084D02*
X6782280Y-13230608D01*
X6782280Y-13230608D02*
X6791804Y-13249656D01*
X6791804Y-13249656D02*
X6791804Y-13268703D01*
X6791804Y-13268703D02*
X6696566Y-13287751D01*
X6867994Y-13344894D02*
X6887042Y-13354418D01*
X6887042Y-13354418D02*
X6925137Y-13354418D01*
X6925137Y-13354418D02*
X6944185Y-13344894D01*
X6944185Y-13344894D02*
X6953709Y-13325846D01*
X6953709Y-13325846D02*
X6953709Y-13316322D01*
X6953709Y-13316322D02*
X6944185Y-13297275D01*
X6944185Y-13297275D02*
X6925137Y-13287751D01*
X6925137Y-13287751D02*
X6896566Y-13287751D01*
X6896566Y-13287751D02*
X6877518Y-13278227D01*
X6877518Y-13278227D02*
X6867994Y-13259180D01*
X6867994Y-13259180D02*
X6867994Y-13249656D01*
X6867994Y-13249656D02*
X6877518Y-13230608D01*
X6877518Y-13230608D02*
X6896566Y-13221084D01*
X6896566Y-13221084D02*
X6925137Y-13221084D01*
X6925137Y-13221084D02*
X6944185Y-13230608D01*
X7020375Y-13430608D02*
X7029899Y-13421084D01*
X7029899Y-13421084D02*
X7048947Y-13392513D01*
X7048947Y-13392513D02*
X7058471Y-13373465D01*
X7058471Y-13373465D02*
X7067994Y-13344894D01*
X7067994Y-13344894D02*
X7077518Y-13297275D01*
X7077518Y-13297275D02*
X7077518Y-13259180D01*
X7077518Y-13259180D02*
X7067994Y-13211561D01*
X7067994Y-13211561D02*
X7058471Y-13182989D01*
X7058471Y-13182989D02*
X7048947Y-13163942D01*
X7048947Y-13163942D02*
X7029899Y-13135370D01*
X7029899Y-13135370D02*
X7020375Y-13125846D01*
D11*
X1864360Y-13526934D02*
G75*
G02*
X1834360Y-13526934I-15000J0D01*
G01*
X1834360Y-13526934D02*
G75*
G02*
X1864360Y-13526934I15000J0D01*
G01*
D12*
X2163232Y-13418418D02*
X2182280Y-13418418D01*
X2182280Y-13418418D02*
X2201327Y-13427942D01*
X2201327Y-13427942D02*
X2210851Y-13437465D01*
X2210851Y-13437465D02*
X2220375Y-13456513D01*
X2220375Y-13456513D02*
X2229899Y-13494608D01*
X2229899Y-13494608D02*
X2229899Y-13542227D01*
X2229899Y-13542227D02*
X2220375Y-13580322D01*
X2220375Y-13580322D02*
X2210851Y-13599370D01*
X2210851Y-13599370D02*
X2201327Y-13608894D01*
X2201327Y-13608894D02*
X2182280Y-13618418D01*
X2182280Y-13618418D02*
X2163232Y-13618418D01*
X2163232Y-13618418D02*
X2144184Y-13608894D01*
X2144184Y-13608894D02*
X2134661Y-13599370D01*
X2134661Y-13599370D02*
X2125137Y-13580322D01*
X2125137Y-13580322D02*
X2115613Y-13542227D01*
X2115613Y-13542227D02*
X2115613Y-13494608D01*
X2115613Y-13494608D02*
X2125137Y-13456513D01*
X2125137Y-13456513D02*
X2134661Y-13437465D01*
X2134661Y-13437465D02*
X2144184Y-13427942D01*
X2144184Y-13427942D02*
X2163232Y-13418418D01*
X2315613Y-13599370D02*
X2325137Y-13608894D01*
X2325137Y-13608894D02*
X2315613Y-13618418D01*
X2315613Y-13618418D02*
X2306089Y-13608894D01*
X2306089Y-13608894D02*
X2315613Y-13599370D01*
X2315613Y-13599370D02*
X2315613Y-13618418D01*
X2391804Y-13418418D02*
X2515613Y-13418418D01*
X2515613Y-13418418D02*
X2448946Y-13494608D01*
X2448946Y-13494608D02*
X2477518Y-13494608D01*
X2477518Y-13494608D02*
X2496565Y-13504132D01*
X2496565Y-13504132D02*
X2506089Y-13513656D01*
X2506089Y-13513656D02*
X2515613Y-13532703D01*
X2515613Y-13532703D02*
X2515613Y-13580322D01*
X2515613Y-13580322D02*
X2506089Y-13599370D01*
X2506089Y-13599370D02*
X2496565Y-13608894D01*
X2496565Y-13608894D02*
X2477518Y-13618418D01*
X2477518Y-13618418D02*
X2420375Y-13618418D01*
X2420375Y-13618418D02*
X2401327Y-13608894D01*
X2401327Y-13608894D02*
X2391804Y-13599370D01*
X2639423Y-13418418D02*
X2658470Y-13418418D01*
X2658470Y-13418418D02*
X2677518Y-13427942D01*
X2677518Y-13427942D02*
X2687042Y-13437465D01*
X2687042Y-13437465D02*
X2696565Y-13456513D01*
X2696565Y-13456513D02*
X2706089Y-13494608D01*
X2706089Y-13494608D02*
X2706089Y-13542227D01*
X2706089Y-13542227D02*
X2696565Y-13580322D01*
X2696565Y-13580322D02*
X2687042Y-13599370D01*
X2687042Y-13599370D02*
X2677518Y-13608894D01*
X2677518Y-13608894D02*
X2658470Y-13618418D01*
X2658470Y-13618418D02*
X2639423Y-13618418D01*
X2639423Y-13618418D02*
X2620375Y-13608894D01*
X2620375Y-13608894D02*
X2610851Y-13599370D01*
X2610851Y-13599370D02*
X2601327Y-13580322D01*
X2601327Y-13580322D02*
X2591804Y-13542227D01*
X2591804Y-13542227D02*
X2591804Y-13494608D01*
X2591804Y-13494608D02*
X2601327Y-13456513D01*
X2601327Y-13456513D02*
X2610851Y-13437465D01*
X2610851Y-13437465D02*
X2620375Y-13427942D01*
X2620375Y-13427942D02*
X2639423Y-13418418D01*
X2829899Y-13418418D02*
X2848946Y-13418418D01*
X2848946Y-13418418D02*
X2867994Y-13427942D01*
X2867994Y-13427942D02*
X2877518Y-13437465D01*
X2877518Y-13437465D02*
X2887042Y-13456513D01*
X2887042Y-13456513D02*
X2896565Y-13494608D01*
X2896565Y-13494608D02*
X2896565Y-13542227D01*
X2896565Y-13542227D02*
X2887042Y-13580322D01*
X2887042Y-13580322D02*
X2877518Y-13599370D01*
X2877518Y-13599370D02*
X2867994Y-13608894D01*
X2867994Y-13608894D02*
X2848946Y-13618418D01*
X2848946Y-13618418D02*
X2829899Y-13618418D01*
X2829899Y-13618418D02*
X2810851Y-13608894D01*
X2810851Y-13608894D02*
X2801327Y-13599370D01*
X2801327Y-13599370D02*
X2791804Y-13580322D01*
X2791804Y-13580322D02*
X2782280Y-13542227D01*
X2782280Y-13542227D02*
X2782280Y-13494608D01*
X2782280Y-13494608D02*
X2791804Y-13456513D01*
X2791804Y-13456513D02*
X2801327Y-13437465D01*
X2801327Y-13437465D02*
X2810851Y-13427942D01*
X2810851Y-13427942D02*
X2829899Y-13418418D01*
X2982280Y-13618418D02*
X2982280Y-13485084D01*
X2982280Y-13504132D02*
X2991803Y-13494608D01*
X2991803Y-13494608D02*
X3010851Y-13485084D01*
X3010851Y-13485084D02*
X3039423Y-13485084D01*
X3039423Y-13485084D02*
X3058470Y-13494608D01*
X3058470Y-13494608D02*
X3067994Y-13513656D01*
X3067994Y-13513656D02*
X3067994Y-13618418D01*
X3067994Y-13513656D02*
X3077518Y-13494608D01*
X3077518Y-13494608D02*
X3096565Y-13485084D01*
X3096565Y-13485084D02*
X3125137Y-13485084D01*
X3125137Y-13485084D02*
X3144184Y-13494608D01*
X3144184Y-13494608D02*
X3153708Y-13513656D01*
X3153708Y-13513656D02*
X3153708Y-13618418D01*
X3248946Y-13618418D02*
X3248946Y-13485084D01*
X3248946Y-13504132D02*
X3258470Y-13494608D01*
X3258470Y-13494608D02*
X3277518Y-13485084D01*
X3277518Y-13485084D02*
X3306089Y-13485084D01*
X3306089Y-13485084D02*
X3325137Y-13494608D01*
X3325137Y-13494608D02*
X3334661Y-13513656D01*
X3334661Y-13513656D02*
X3334661Y-13618418D01*
X3334661Y-13513656D02*
X3344184Y-13494608D01*
X3344184Y-13494608D02*
X3363232Y-13485084D01*
X3363232Y-13485084D02*
X3391803Y-13485084D01*
X3391803Y-13485084D02*
X3410851Y-13494608D01*
X3410851Y-13494608D02*
X3420375Y-13513656D01*
X3420375Y-13513656D02*
X3420375Y-13618418D01*
X3810851Y-13408894D02*
X3639423Y-13666037D01*
X4067994Y-13418418D02*
X4087042Y-13418418D01*
X4087042Y-13418418D02*
X4106089Y-13427942D01*
X4106089Y-13427942D02*
X4115613Y-13437465D01*
X4115613Y-13437465D02*
X4125137Y-13456513D01*
X4125137Y-13456513D02*
X4134661Y-13494608D01*
X4134661Y-13494608D02*
X4134661Y-13542227D01*
X4134661Y-13542227D02*
X4125137Y-13580322D01*
X4125137Y-13580322D02*
X4115613Y-13599370D01*
X4115613Y-13599370D02*
X4106089Y-13608894D01*
X4106089Y-13608894D02*
X4087042Y-13618418D01*
X4087042Y-13618418D02*
X4067994Y-13618418D01*
X4067994Y-13618418D02*
X4048946Y-13608894D01*
X4048946Y-13608894D02*
X4039423Y-13599370D01*
X4039423Y-13599370D02*
X4029899Y-13580322D01*
X4029899Y-13580322D02*
X4020375Y-13542227D01*
X4020375Y-13542227D02*
X4020375Y-13494608D01*
X4020375Y-13494608D02*
X4029899Y-13456513D01*
X4029899Y-13456513D02*
X4039423Y-13437465D01*
X4039423Y-13437465D02*
X4048946Y-13427942D01*
X4048946Y-13427942D02*
X4067994Y-13418418D01*
X4220375Y-13599370D02*
X4229899Y-13608894D01*
X4229899Y-13608894D02*
X4220375Y-13618418D01*
X4220375Y-13618418D02*
X4210851Y-13608894D01*
X4210851Y-13608894D02*
X4220375Y-13599370D01*
X4220375Y-13599370D02*
X4220375Y-13618418D01*
X4353708Y-13418418D02*
X4372756Y-13418418D01*
X4372756Y-13418418D02*
X4391804Y-13427942D01*
X4391804Y-13427942D02*
X4401328Y-13437465D01*
X4401328Y-13437465D02*
X4410851Y-13456513D01*
X4410851Y-13456513D02*
X4420375Y-13494608D01*
X4420375Y-13494608D02*
X4420375Y-13542227D01*
X4420375Y-13542227D02*
X4410851Y-13580322D01*
X4410851Y-13580322D02*
X4401328Y-13599370D01*
X4401328Y-13599370D02*
X4391804Y-13608894D01*
X4391804Y-13608894D02*
X4372756Y-13618418D01*
X4372756Y-13618418D02*
X4353708Y-13618418D01*
X4353708Y-13618418D02*
X4334661Y-13608894D01*
X4334661Y-13608894D02*
X4325137Y-13599370D01*
X4325137Y-13599370D02*
X4315613Y-13580322D01*
X4315613Y-13580322D02*
X4306089Y-13542227D01*
X4306089Y-13542227D02*
X4306089Y-13494608D01*
X4306089Y-13494608D02*
X4315613Y-13456513D01*
X4315613Y-13456513D02*
X4325137Y-13437465D01*
X4325137Y-13437465D02*
X4334661Y-13427942D01*
X4334661Y-13427942D02*
X4353708Y-13418418D01*
X4610851Y-13618418D02*
X4496566Y-13618418D01*
X4553708Y-13618418D02*
X4553708Y-13418418D01*
X4553708Y-13418418D02*
X4534661Y-13446989D01*
X4534661Y-13446989D02*
X4515613Y-13466037D01*
X4515613Y-13466037D02*
X4496566Y-13475561D01*
X4801328Y-13618418D02*
X4687042Y-13618418D01*
X4744185Y-13618418D02*
X4744185Y-13418418D01*
X4744185Y-13418418D02*
X4725137Y-13446989D01*
X4725137Y-13446989D02*
X4706089Y-13466037D01*
X4706089Y-13466037D02*
X4687042Y-13475561D01*
X4915613Y-13504132D02*
X4896566Y-13494608D01*
X4896566Y-13494608D02*
X4887042Y-13485084D01*
X4887042Y-13485084D02*
X4877518Y-13466037D01*
X4877518Y-13466037D02*
X4877518Y-13456513D01*
X4877518Y-13456513D02*
X4887042Y-13437465D01*
X4887042Y-13437465D02*
X4896566Y-13427942D01*
X4896566Y-13427942D02*
X4915613Y-13418418D01*
X4915613Y-13418418D02*
X4953709Y-13418418D01*
X4953709Y-13418418D02*
X4972756Y-13427942D01*
X4972756Y-13427942D02*
X4982280Y-13437465D01*
X4982280Y-13437465D02*
X4991804Y-13456513D01*
X4991804Y-13456513D02*
X4991804Y-13466037D01*
X4991804Y-13466037D02*
X4982280Y-13485084D01*
X4982280Y-13485084D02*
X4972756Y-13494608D01*
X4972756Y-13494608D02*
X4953709Y-13504132D01*
X4953709Y-13504132D02*
X4915613Y-13504132D01*
X4915613Y-13504132D02*
X4896566Y-13513656D01*
X4896566Y-13513656D02*
X4887042Y-13523180D01*
X4887042Y-13523180D02*
X4877518Y-13542227D01*
X4877518Y-13542227D02*
X4877518Y-13580322D01*
X4877518Y-13580322D02*
X4887042Y-13599370D01*
X4887042Y-13599370D02*
X4896566Y-13608894D01*
X4896566Y-13608894D02*
X4915613Y-13618418D01*
X4915613Y-13618418D02*
X4953709Y-13618418D01*
X4953709Y-13618418D02*
X4972756Y-13608894D01*
X4972756Y-13608894D02*
X4982280Y-13599370D01*
X4982280Y-13599370D02*
X4991804Y-13580322D01*
X4991804Y-13580322D02*
X4991804Y-13542227D01*
X4991804Y-13542227D02*
X4982280Y-13523180D01*
X4982280Y-13523180D02*
X4972756Y-13513656D01*
X4972756Y-13513656D02*
X4953709Y-13504132D01*
X5067994Y-13418418D02*
X5067994Y-13456513D01*
X5144185Y-13418418D02*
X5144185Y-13456513D01*
X5439423Y-13694608D02*
X5429899Y-13685084D01*
X5429899Y-13685084D02*
X5410851Y-13656513D01*
X5410851Y-13656513D02*
X5401328Y-13637465D01*
X5401328Y-13637465D02*
X5391804Y-13608894D01*
X5391804Y-13608894D02*
X5382280Y-13561275D01*
X5382280Y-13561275D02*
X5382280Y-13523180D01*
X5382280Y-13523180D02*
X5391804Y-13475561D01*
X5391804Y-13475561D02*
X5401328Y-13446989D01*
X5401328Y-13446989D02*
X5410851Y-13427942D01*
X5410851Y-13427942D02*
X5429899Y-13399370D01*
X5429899Y-13399370D02*
X5439423Y-13389846D01*
X5620375Y-13618418D02*
X5506090Y-13618418D01*
X5563232Y-13618418D02*
X5563232Y-13418418D01*
X5563232Y-13418418D02*
X5544185Y-13446989D01*
X5544185Y-13446989D02*
X5525137Y-13466037D01*
X5525137Y-13466037D02*
X5506090Y-13475561D01*
X5696566Y-13437465D02*
X5706089Y-13427942D01*
X5706089Y-13427942D02*
X5725137Y-13418418D01*
X5725137Y-13418418D02*
X5772756Y-13418418D01*
X5772756Y-13418418D02*
X5791804Y-13427942D01*
X5791804Y-13427942D02*
X5801328Y-13437465D01*
X5801328Y-13437465D02*
X5810851Y-13456513D01*
X5810851Y-13456513D02*
X5810851Y-13475561D01*
X5810851Y-13475561D02*
X5801328Y-13504132D01*
X5801328Y-13504132D02*
X5687042Y-13618418D01*
X5687042Y-13618418D02*
X5810851Y-13618418D01*
X5982280Y-13418418D02*
X5944185Y-13418418D01*
X5944185Y-13418418D02*
X5925137Y-13427942D01*
X5925137Y-13427942D02*
X5915613Y-13437465D01*
X5915613Y-13437465D02*
X5896566Y-13466037D01*
X5896566Y-13466037D02*
X5887042Y-13504132D01*
X5887042Y-13504132D02*
X5887042Y-13580322D01*
X5887042Y-13580322D02*
X5896566Y-13599370D01*
X5896566Y-13599370D02*
X5906089Y-13608894D01*
X5906089Y-13608894D02*
X5925137Y-13618418D01*
X5925137Y-13618418D02*
X5963232Y-13618418D01*
X5963232Y-13618418D02*
X5982280Y-13608894D01*
X5982280Y-13608894D02*
X5991804Y-13599370D01*
X5991804Y-13599370D02*
X6001328Y-13580322D01*
X6001328Y-13580322D02*
X6001328Y-13532703D01*
X6001328Y-13532703D02*
X5991804Y-13513656D01*
X5991804Y-13513656D02*
X5982280Y-13504132D01*
X5982280Y-13504132D02*
X5963232Y-13494608D01*
X5963232Y-13494608D02*
X5925137Y-13494608D01*
X5925137Y-13494608D02*
X5906089Y-13504132D01*
X5906089Y-13504132D02*
X5896566Y-13513656D01*
X5896566Y-13513656D02*
X5887042Y-13532703D01*
X6239423Y-13618418D02*
X6239423Y-13418418D01*
X6325137Y-13618418D02*
X6325137Y-13513656D01*
X6325137Y-13513656D02*
X6315613Y-13494608D01*
X6315613Y-13494608D02*
X6296566Y-13485084D01*
X6296566Y-13485084D02*
X6267994Y-13485084D01*
X6267994Y-13485084D02*
X6248947Y-13494608D01*
X6248947Y-13494608D02*
X6239423Y-13504132D01*
X6448947Y-13618418D02*
X6429899Y-13608894D01*
X6429899Y-13608894D02*
X6420375Y-13599370D01*
X6420375Y-13599370D02*
X6410851Y-13580322D01*
X6410851Y-13580322D02*
X6410851Y-13523180D01*
X6410851Y-13523180D02*
X6420375Y-13504132D01*
X6420375Y-13504132D02*
X6429899Y-13494608D01*
X6429899Y-13494608D02*
X6448947Y-13485084D01*
X6448947Y-13485084D02*
X6477518Y-13485084D01*
X6477518Y-13485084D02*
X6496566Y-13494608D01*
X6496566Y-13494608D02*
X6506090Y-13504132D01*
X6506090Y-13504132D02*
X6515613Y-13523180D01*
X6515613Y-13523180D02*
X6515613Y-13580322D01*
X6515613Y-13580322D02*
X6506090Y-13599370D01*
X6506090Y-13599370D02*
X6496566Y-13608894D01*
X6496566Y-13608894D02*
X6477518Y-13618418D01*
X6477518Y-13618418D02*
X6448947Y-13618418D01*
X6629899Y-13618418D02*
X6610851Y-13608894D01*
X6610851Y-13608894D02*
X6601328Y-13589846D01*
X6601328Y-13589846D02*
X6601328Y-13418418D01*
X6782280Y-13608894D02*
X6763232Y-13618418D01*
X6763232Y-13618418D02*
X6725137Y-13618418D01*
X6725137Y-13618418D02*
X6706090Y-13608894D01*
X6706090Y-13608894D02*
X6696566Y-13589846D01*
X6696566Y-13589846D02*
X6696566Y-13513656D01*
X6696566Y-13513656D02*
X6706090Y-13494608D01*
X6706090Y-13494608D02*
X6725137Y-13485084D01*
X6725137Y-13485084D02*
X6763232Y-13485084D01*
X6763232Y-13485084D02*
X6782280Y-13494608D01*
X6782280Y-13494608D02*
X6791804Y-13513656D01*
X6791804Y-13513656D02*
X6791804Y-13532703D01*
X6791804Y-13532703D02*
X6696566Y-13551751D01*
X6867994Y-13608894D02*
X6887042Y-13618418D01*
X6887042Y-13618418D02*
X6925137Y-13618418D01*
X6925137Y-13618418D02*
X6944185Y-13608894D01*
X6944185Y-13608894D02*
X6953709Y-13589846D01*
X6953709Y-13589846D02*
X6953709Y-13580322D01*
X6953709Y-13580322D02*
X6944185Y-13561275D01*
X6944185Y-13561275D02*
X6925137Y-13551751D01*
X6925137Y-13551751D02*
X6896566Y-13551751D01*
X6896566Y-13551751D02*
X6877518Y-13542227D01*
X6877518Y-13542227D02*
X6867994Y-13523180D01*
X6867994Y-13523180D02*
X6867994Y-13513656D01*
X6867994Y-13513656D02*
X6877518Y-13494608D01*
X6877518Y-13494608D02*
X6896566Y-13485084D01*
X6896566Y-13485084D02*
X6925137Y-13485084D01*
X6925137Y-13485084D02*
X6944185Y-13494608D01*
X7020375Y-13694608D02*
X7029899Y-13685084D01*
X7029899Y-13685084D02*
X7048947Y-13656513D01*
X7048947Y-13656513D02*
X7058471Y-13637465D01*
X7058471Y-13637465D02*
X7067994Y-13608894D01*
X7067994Y-13608894D02*
X7077518Y-13561275D01*
X7077518Y-13561275D02*
X7077518Y-13523180D01*
X7077518Y-13523180D02*
X7067994Y-13475561D01*
X7067994Y-13475561D02*
X7058471Y-13446989D01*
X7058471Y-13446989D02*
X7048947Y-13427942D01*
X7048947Y-13427942D02*
X7029899Y-13399370D01*
X7029899Y-13399370D02*
X7020375Y-13389846D01*
D11*
X1834360Y-13760934D02*
X1834360Y-13820934D01*
X1804360Y-13790934D02*
X1864360Y-13790934D01*
D12*
X2163232Y-13682418D02*
X2182280Y-13682418D01*
X2182280Y-13682418D02*
X2201327Y-13691942D01*
X2201327Y-13691942D02*
X2210851Y-13701465D01*
X2210851Y-13701465D02*
X2220375Y-13720513D01*
X2220375Y-13720513D02*
X2229899Y-13758608D01*
X2229899Y-13758608D02*
X2229899Y-13806227D01*
X2229899Y-13806227D02*
X2220375Y-13844322D01*
X2220375Y-13844322D02*
X2210851Y-13863370D01*
X2210851Y-13863370D02*
X2201327Y-13872894D01*
X2201327Y-13872894D02*
X2182280Y-13882418D01*
X2182280Y-13882418D02*
X2163232Y-13882418D01*
X2163232Y-13882418D02*
X2144184Y-13872894D01*
X2144184Y-13872894D02*
X2134661Y-13863370D01*
X2134661Y-13863370D02*
X2125137Y-13844322D01*
X2125137Y-13844322D02*
X2115613Y-13806227D01*
X2115613Y-13806227D02*
X2115613Y-13758608D01*
X2115613Y-13758608D02*
X2125137Y-13720513D01*
X2125137Y-13720513D02*
X2134661Y-13701465D01*
X2134661Y-13701465D02*
X2144184Y-13691942D01*
X2144184Y-13691942D02*
X2163232Y-13682418D01*
X2315613Y-13863370D02*
X2325137Y-13872894D01*
X2325137Y-13872894D02*
X2315613Y-13882418D01*
X2315613Y-13882418D02*
X2306089Y-13872894D01*
X2306089Y-13872894D02*
X2315613Y-13863370D01*
X2315613Y-13863370D02*
X2315613Y-13882418D01*
X2496565Y-13682418D02*
X2458470Y-13682418D01*
X2458470Y-13682418D02*
X2439423Y-13691942D01*
X2439423Y-13691942D02*
X2429899Y-13701465D01*
X2429899Y-13701465D02*
X2410851Y-13730037D01*
X2410851Y-13730037D02*
X2401327Y-13768132D01*
X2401327Y-13768132D02*
X2401327Y-13844322D01*
X2401327Y-13844322D02*
X2410851Y-13863370D01*
X2410851Y-13863370D02*
X2420375Y-13872894D01*
X2420375Y-13872894D02*
X2439423Y-13882418D01*
X2439423Y-13882418D02*
X2477518Y-13882418D01*
X2477518Y-13882418D02*
X2496565Y-13872894D01*
X2496565Y-13872894D02*
X2506089Y-13863370D01*
X2506089Y-13863370D02*
X2515613Y-13844322D01*
X2515613Y-13844322D02*
X2515613Y-13796703D01*
X2515613Y-13796703D02*
X2506089Y-13777656D01*
X2506089Y-13777656D02*
X2496565Y-13768132D01*
X2496565Y-13768132D02*
X2477518Y-13758608D01*
X2477518Y-13758608D02*
X2439423Y-13758608D01*
X2439423Y-13758608D02*
X2420375Y-13768132D01*
X2420375Y-13768132D02*
X2410851Y-13777656D01*
X2410851Y-13777656D02*
X2401327Y-13796703D01*
X2639423Y-13682418D02*
X2658470Y-13682418D01*
X2658470Y-13682418D02*
X2677518Y-13691942D01*
X2677518Y-13691942D02*
X2687042Y-13701465D01*
X2687042Y-13701465D02*
X2696565Y-13720513D01*
X2696565Y-13720513D02*
X2706089Y-13758608D01*
X2706089Y-13758608D02*
X2706089Y-13806227D01*
X2706089Y-13806227D02*
X2696565Y-13844322D01*
X2696565Y-13844322D02*
X2687042Y-13863370D01*
X2687042Y-13863370D02*
X2677518Y-13872894D01*
X2677518Y-13872894D02*
X2658470Y-13882418D01*
X2658470Y-13882418D02*
X2639423Y-13882418D01*
X2639423Y-13882418D02*
X2620375Y-13872894D01*
X2620375Y-13872894D02*
X2610851Y-13863370D01*
X2610851Y-13863370D02*
X2601327Y-13844322D01*
X2601327Y-13844322D02*
X2591804Y-13806227D01*
X2591804Y-13806227D02*
X2591804Y-13758608D01*
X2591804Y-13758608D02*
X2601327Y-13720513D01*
X2601327Y-13720513D02*
X2610851Y-13701465D01*
X2610851Y-13701465D02*
X2620375Y-13691942D01*
X2620375Y-13691942D02*
X2639423Y-13682418D01*
X2829899Y-13682418D02*
X2848946Y-13682418D01*
X2848946Y-13682418D02*
X2867994Y-13691942D01*
X2867994Y-13691942D02*
X2877518Y-13701465D01*
X2877518Y-13701465D02*
X2887042Y-13720513D01*
X2887042Y-13720513D02*
X2896565Y-13758608D01*
X2896565Y-13758608D02*
X2896565Y-13806227D01*
X2896565Y-13806227D02*
X2887042Y-13844322D01*
X2887042Y-13844322D02*
X2877518Y-13863370D01*
X2877518Y-13863370D02*
X2867994Y-13872894D01*
X2867994Y-13872894D02*
X2848946Y-13882418D01*
X2848946Y-13882418D02*
X2829899Y-13882418D01*
X2829899Y-13882418D02*
X2810851Y-13872894D01*
X2810851Y-13872894D02*
X2801327Y-13863370D01*
X2801327Y-13863370D02*
X2791804Y-13844322D01*
X2791804Y-13844322D02*
X2782280Y-13806227D01*
X2782280Y-13806227D02*
X2782280Y-13758608D01*
X2782280Y-13758608D02*
X2791804Y-13720513D01*
X2791804Y-13720513D02*
X2801327Y-13701465D01*
X2801327Y-13701465D02*
X2810851Y-13691942D01*
X2810851Y-13691942D02*
X2829899Y-13682418D01*
X2982280Y-13882418D02*
X2982280Y-13749084D01*
X2982280Y-13768132D02*
X2991803Y-13758608D01*
X2991803Y-13758608D02*
X3010851Y-13749084D01*
X3010851Y-13749084D02*
X3039423Y-13749084D01*
X3039423Y-13749084D02*
X3058470Y-13758608D01*
X3058470Y-13758608D02*
X3067994Y-13777656D01*
X3067994Y-13777656D02*
X3067994Y-13882418D01*
X3067994Y-13777656D02*
X3077518Y-13758608D01*
X3077518Y-13758608D02*
X3096565Y-13749084D01*
X3096565Y-13749084D02*
X3125137Y-13749084D01*
X3125137Y-13749084D02*
X3144184Y-13758608D01*
X3144184Y-13758608D02*
X3153708Y-13777656D01*
X3153708Y-13777656D02*
X3153708Y-13882418D01*
X3248946Y-13882418D02*
X3248946Y-13749084D01*
X3248946Y-13768132D02*
X3258470Y-13758608D01*
X3258470Y-13758608D02*
X3277518Y-13749084D01*
X3277518Y-13749084D02*
X3306089Y-13749084D01*
X3306089Y-13749084D02*
X3325137Y-13758608D01*
X3325137Y-13758608D02*
X3334661Y-13777656D01*
X3334661Y-13777656D02*
X3334661Y-13882418D01*
X3334661Y-13777656D02*
X3344184Y-13758608D01*
X3344184Y-13758608D02*
X3363232Y-13749084D01*
X3363232Y-13749084D02*
X3391803Y-13749084D01*
X3391803Y-13749084D02*
X3410851Y-13758608D01*
X3410851Y-13758608D02*
X3420375Y-13777656D01*
X3420375Y-13777656D02*
X3420375Y-13882418D01*
X3810851Y-13672894D02*
X3639423Y-13930037D01*
X4067994Y-13682418D02*
X4087042Y-13682418D01*
X4087042Y-13682418D02*
X4106089Y-13691942D01*
X4106089Y-13691942D02*
X4115613Y-13701465D01*
X4115613Y-13701465D02*
X4125137Y-13720513D01*
X4125137Y-13720513D02*
X4134661Y-13758608D01*
X4134661Y-13758608D02*
X4134661Y-13806227D01*
X4134661Y-13806227D02*
X4125137Y-13844322D01*
X4125137Y-13844322D02*
X4115613Y-13863370D01*
X4115613Y-13863370D02*
X4106089Y-13872894D01*
X4106089Y-13872894D02*
X4087042Y-13882418D01*
X4087042Y-13882418D02*
X4067994Y-13882418D01*
X4067994Y-13882418D02*
X4048946Y-13872894D01*
X4048946Y-13872894D02*
X4039423Y-13863370D01*
X4039423Y-13863370D02*
X4029899Y-13844322D01*
X4029899Y-13844322D02*
X4020375Y-13806227D01*
X4020375Y-13806227D02*
X4020375Y-13758608D01*
X4020375Y-13758608D02*
X4029899Y-13720513D01*
X4029899Y-13720513D02*
X4039423Y-13701465D01*
X4039423Y-13701465D02*
X4048946Y-13691942D01*
X4048946Y-13691942D02*
X4067994Y-13682418D01*
X4220375Y-13863370D02*
X4229899Y-13872894D01*
X4229899Y-13872894D02*
X4220375Y-13882418D01*
X4220375Y-13882418D02*
X4210851Y-13872894D01*
X4210851Y-13872894D02*
X4220375Y-13863370D01*
X4220375Y-13863370D02*
X4220375Y-13882418D01*
X4353708Y-13682418D02*
X4372756Y-13682418D01*
X4372756Y-13682418D02*
X4391804Y-13691942D01*
X4391804Y-13691942D02*
X4401328Y-13701465D01*
X4401328Y-13701465D02*
X4410851Y-13720513D01*
X4410851Y-13720513D02*
X4420375Y-13758608D01*
X4420375Y-13758608D02*
X4420375Y-13806227D01*
X4420375Y-13806227D02*
X4410851Y-13844322D01*
X4410851Y-13844322D02*
X4401328Y-13863370D01*
X4401328Y-13863370D02*
X4391804Y-13872894D01*
X4391804Y-13872894D02*
X4372756Y-13882418D01*
X4372756Y-13882418D02*
X4353708Y-13882418D01*
X4353708Y-13882418D02*
X4334661Y-13872894D01*
X4334661Y-13872894D02*
X4325137Y-13863370D01*
X4325137Y-13863370D02*
X4315613Y-13844322D01*
X4315613Y-13844322D02*
X4306089Y-13806227D01*
X4306089Y-13806227D02*
X4306089Y-13758608D01*
X4306089Y-13758608D02*
X4315613Y-13720513D01*
X4315613Y-13720513D02*
X4325137Y-13701465D01*
X4325137Y-13701465D02*
X4334661Y-13691942D01*
X4334661Y-13691942D02*
X4353708Y-13682418D01*
X4496566Y-13701465D02*
X4506089Y-13691942D01*
X4506089Y-13691942D02*
X4525137Y-13682418D01*
X4525137Y-13682418D02*
X4572756Y-13682418D01*
X4572756Y-13682418D02*
X4591804Y-13691942D01*
X4591804Y-13691942D02*
X4601328Y-13701465D01*
X4601328Y-13701465D02*
X4610851Y-13720513D01*
X4610851Y-13720513D02*
X4610851Y-13739561D01*
X4610851Y-13739561D02*
X4601328Y-13768132D01*
X4601328Y-13768132D02*
X4487042Y-13882418D01*
X4487042Y-13882418D02*
X4610851Y-13882418D01*
X4677518Y-13682418D02*
X4801328Y-13682418D01*
X4801328Y-13682418D02*
X4734661Y-13758608D01*
X4734661Y-13758608D02*
X4763232Y-13758608D01*
X4763232Y-13758608D02*
X4782280Y-13768132D01*
X4782280Y-13768132D02*
X4791804Y-13777656D01*
X4791804Y-13777656D02*
X4801328Y-13796703D01*
X4801328Y-13796703D02*
X4801328Y-13844322D01*
X4801328Y-13844322D02*
X4791804Y-13863370D01*
X4791804Y-13863370D02*
X4782280Y-13872894D01*
X4782280Y-13872894D02*
X4763232Y-13882418D01*
X4763232Y-13882418D02*
X4706089Y-13882418D01*
X4706089Y-13882418D02*
X4687042Y-13872894D01*
X4687042Y-13872894D02*
X4677518Y-13863370D01*
X4972756Y-13682418D02*
X4934661Y-13682418D01*
X4934661Y-13682418D02*
X4915613Y-13691942D01*
X4915613Y-13691942D02*
X4906089Y-13701465D01*
X4906089Y-13701465D02*
X4887042Y-13730037D01*
X4887042Y-13730037D02*
X4877518Y-13768132D01*
X4877518Y-13768132D02*
X4877518Y-13844322D01*
X4877518Y-13844322D02*
X4887042Y-13863370D01*
X4887042Y-13863370D02*
X4896566Y-13872894D01*
X4896566Y-13872894D02*
X4915613Y-13882418D01*
X4915613Y-13882418D02*
X4953709Y-13882418D01*
X4953709Y-13882418D02*
X4972756Y-13872894D01*
X4972756Y-13872894D02*
X4982280Y-13863370D01*
X4982280Y-13863370D02*
X4991804Y-13844322D01*
X4991804Y-13844322D02*
X4991804Y-13796703D01*
X4991804Y-13796703D02*
X4982280Y-13777656D01*
X4982280Y-13777656D02*
X4972756Y-13768132D01*
X4972756Y-13768132D02*
X4953709Y-13758608D01*
X4953709Y-13758608D02*
X4915613Y-13758608D01*
X4915613Y-13758608D02*
X4896566Y-13768132D01*
X4896566Y-13768132D02*
X4887042Y-13777656D01*
X4887042Y-13777656D02*
X4877518Y-13796703D01*
X5067994Y-13682418D02*
X5067994Y-13720513D01*
X5144185Y-13682418D02*
X5144185Y-13720513D01*
X5439423Y-13958608D02*
X5429899Y-13949084D01*
X5429899Y-13949084D02*
X5410851Y-13920513D01*
X5410851Y-13920513D02*
X5401328Y-13901465D01*
X5401328Y-13901465D02*
X5391804Y-13872894D01*
X5391804Y-13872894D02*
X5382280Y-13825275D01*
X5382280Y-13825275D02*
X5382280Y-13787180D01*
X5382280Y-13787180D02*
X5391804Y-13739561D01*
X5391804Y-13739561D02*
X5401328Y-13710989D01*
X5401328Y-13710989D02*
X5410851Y-13691942D01*
X5410851Y-13691942D02*
X5429899Y-13663370D01*
X5429899Y-13663370D02*
X5439423Y-13653846D01*
X5620375Y-13882418D02*
X5506090Y-13882418D01*
X5563232Y-13882418D02*
X5563232Y-13682418D01*
X5563232Y-13682418D02*
X5544185Y-13710989D01*
X5544185Y-13710989D02*
X5525137Y-13730037D01*
X5525137Y-13730037D02*
X5506090Y-13739561D01*
X5858470Y-13882418D02*
X5858470Y-13682418D01*
X5944185Y-13882418D02*
X5944185Y-13777656D01*
X5944185Y-13777656D02*
X5934661Y-13758608D01*
X5934661Y-13758608D02*
X5915613Y-13749084D01*
X5915613Y-13749084D02*
X5887042Y-13749084D01*
X5887042Y-13749084D02*
X5867994Y-13758608D01*
X5867994Y-13758608D02*
X5858470Y-13768132D01*
X6067994Y-13882418D02*
X6048947Y-13872894D01*
X6048947Y-13872894D02*
X6039423Y-13863370D01*
X6039423Y-13863370D02*
X6029899Y-13844322D01*
X6029899Y-13844322D02*
X6029899Y-13787180D01*
X6029899Y-13787180D02*
X6039423Y-13768132D01*
X6039423Y-13768132D02*
X6048947Y-13758608D01*
X6048947Y-13758608D02*
X6067994Y-13749084D01*
X6067994Y-13749084D02*
X6096566Y-13749084D01*
X6096566Y-13749084D02*
X6115613Y-13758608D01*
X6115613Y-13758608D02*
X6125137Y-13768132D01*
X6125137Y-13768132D02*
X6134661Y-13787180D01*
X6134661Y-13787180D02*
X6134661Y-13844322D01*
X6134661Y-13844322D02*
X6125137Y-13863370D01*
X6125137Y-13863370D02*
X6115613Y-13872894D01*
X6115613Y-13872894D02*
X6096566Y-13882418D01*
X6096566Y-13882418D02*
X6067994Y-13882418D01*
X6248947Y-13882418D02*
X6229899Y-13872894D01*
X6229899Y-13872894D02*
X6220375Y-13853846D01*
X6220375Y-13853846D02*
X6220375Y-13682418D01*
X6401328Y-13872894D02*
X6382280Y-13882418D01*
X6382280Y-13882418D02*
X6344185Y-13882418D01*
X6344185Y-13882418D02*
X6325137Y-13872894D01*
X6325137Y-13872894D02*
X6315613Y-13853846D01*
X6315613Y-13853846D02*
X6315613Y-13777656D01*
X6315613Y-13777656D02*
X6325137Y-13758608D01*
X6325137Y-13758608D02*
X6344185Y-13749084D01*
X6344185Y-13749084D02*
X6382280Y-13749084D01*
X6382280Y-13749084D02*
X6401328Y-13758608D01*
X6401328Y-13758608D02*
X6410851Y-13777656D01*
X6410851Y-13777656D02*
X6410851Y-13796703D01*
X6410851Y-13796703D02*
X6315613Y-13815751D01*
X6477518Y-13958608D02*
X6487042Y-13949084D01*
X6487042Y-13949084D02*
X6506090Y-13920513D01*
X6506090Y-13920513D02*
X6515613Y-13901465D01*
X6515613Y-13901465D02*
X6525137Y-13872894D01*
X6525137Y-13872894D02*
X6534661Y-13825275D01*
X6534661Y-13825275D02*
X6534661Y-13787180D01*
X6534661Y-13787180D02*
X6525137Y-13739561D01*
X6525137Y-13739561D02*
X6515613Y-13710989D01*
X6515613Y-13710989D02*
X6506090Y-13691942D01*
X6506090Y-13691942D02*
X6487042Y-13663370D01*
X6487042Y-13663370D02*
X6477518Y-13653846D01*
D11*
X1849716Y-14090290D02*
X1849716Y-14019578D01*
X1779004Y-14019578D01*
X1779004Y-14090290D01*
X1849716Y-14090290D01*
D12*
X2229899Y-14146418D02*
X2115613Y-14146418D01*
X2172756Y-14146418D02*
X2172756Y-13946418D01*
X2172756Y-13946418D02*
X2153708Y-13974989D01*
X2153708Y-13974989D02*
X2134661Y-13994037D01*
X2134661Y-13994037D02*
X2115613Y-14003561D01*
X2315613Y-14127370D02*
X2325137Y-14136894D01*
X2325137Y-14136894D02*
X2315613Y-14146418D01*
X2315613Y-14146418D02*
X2306089Y-14136894D01*
X2306089Y-14136894D02*
X2315613Y-14127370D01*
X2315613Y-14127370D02*
X2315613Y-14146418D01*
X2448946Y-13946418D02*
X2467994Y-13946418D01*
X2467994Y-13946418D02*
X2487042Y-13955942D01*
X2487042Y-13955942D02*
X2496565Y-13965465D01*
X2496565Y-13965465D02*
X2506089Y-13984513D01*
X2506089Y-13984513D02*
X2515613Y-14022608D01*
X2515613Y-14022608D02*
X2515613Y-14070227D01*
X2515613Y-14070227D02*
X2506089Y-14108322D01*
X2506089Y-14108322D02*
X2496565Y-14127370D01*
X2496565Y-14127370D02*
X2487042Y-14136894D01*
X2487042Y-14136894D02*
X2467994Y-14146418D01*
X2467994Y-14146418D02*
X2448946Y-14146418D01*
X2448946Y-14146418D02*
X2429899Y-14136894D01*
X2429899Y-14136894D02*
X2420375Y-14127370D01*
X2420375Y-14127370D02*
X2410851Y-14108322D01*
X2410851Y-14108322D02*
X2401327Y-14070227D01*
X2401327Y-14070227D02*
X2401327Y-14022608D01*
X2401327Y-14022608D02*
X2410851Y-13984513D01*
X2410851Y-13984513D02*
X2420375Y-13965465D01*
X2420375Y-13965465D02*
X2429899Y-13955942D01*
X2429899Y-13955942D02*
X2448946Y-13946418D01*
X2639423Y-13946418D02*
X2658470Y-13946418D01*
X2658470Y-13946418D02*
X2677518Y-13955942D01*
X2677518Y-13955942D02*
X2687042Y-13965465D01*
X2687042Y-13965465D02*
X2696565Y-13984513D01*
X2696565Y-13984513D02*
X2706089Y-14022608D01*
X2706089Y-14022608D02*
X2706089Y-14070227D01*
X2706089Y-14070227D02*
X2696565Y-14108322D01*
X2696565Y-14108322D02*
X2687042Y-14127370D01*
X2687042Y-14127370D02*
X2677518Y-14136894D01*
X2677518Y-14136894D02*
X2658470Y-14146418D01*
X2658470Y-14146418D02*
X2639423Y-14146418D01*
X2639423Y-14146418D02*
X2620375Y-14136894D01*
X2620375Y-14136894D02*
X2610851Y-14127370D01*
X2610851Y-14127370D02*
X2601327Y-14108322D01*
X2601327Y-14108322D02*
X2591804Y-14070227D01*
X2591804Y-14070227D02*
X2591804Y-14022608D01*
X2591804Y-14022608D02*
X2601327Y-13984513D01*
X2601327Y-13984513D02*
X2610851Y-13965465D01*
X2610851Y-13965465D02*
X2620375Y-13955942D01*
X2620375Y-13955942D02*
X2639423Y-13946418D01*
X2829899Y-13946418D02*
X2848946Y-13946418D01*
X2848946Y-13946418D02*
X2867994Y-13955942D01*
X2867994Y-13955942D02*
X2877518Y-13965465D01*
X2877518Y-13965465D02*
X2887042Y-13984513D01*
X2887042Y-13984513D02*
X2896565Y-14022608D01*
X2896565Y-14022608D02*
X2896565Y-14070227D01*
X2896565Y-14070227D02*
X2887042Y-14108322D01*
X2887042Y-14108322D02*
X2877518Y-14127370D01*
X2877518Y-14127370D02*
X2867994Y-14136894D01*
X2867994Y-14136894D02*
X2848946Y-14146418D01*
X2848946Y-14146418D02*
X2829899Y-14146418D01*
X2829899Y-14146418D02*
X2810851Y-14136894D01*
X2810851Y-14136894D02*
X2801327Y-14127370D01*
X2801327Y-14127370D02*
X2791804Y-14108322D01*
X2791804Y-14108322D02*
X2782280Y-14070227D01*
X2782280Y-14070227D02*
X2782280Y-14022608D01*
X2782280Y-14022608D02*
X2791804Y-13984513D01*
X2791804Y-13984513D02*
X2801327Y-13965465D01*
X2801327Y-13965465D02*
X2810851Y-13955942D01*
X2810851Y-13955942D02*
X2829899Y-13946418D01*
X2982280Y-14146418D02*
X2982280Y-14013084D01*
X2982280Y-14032132D02*
X2991803Y-14022608D01*
X2991803Y-14022608D02*
X3010851Y-14013084D01*
X3010851Y-14013084D02*
X3039423Y-14013084D01*
X3039423Y-14013084D02*
X3058470Y-14022608D01*
X3058470Y-14022608D02*
X3067994Y-14041656D01*
X3067994Y-14041656D02*
X3067994Y-14146418D01*
X3067994Y-14041656D02*
X3077518Y-14022608D01*
X3077518Y-14022608D02*
X3096565Y-14013084D01*
X3096565Y-14013084D02*
X3125137Y-14013084D01*
X3125137Y-14013084D02*
X3144184Y-14022608D01*
X3144184Y-14022608D02*
X3153708Y-14041656D01*
X3153708Y-14041656D02*
X3153708Y-14146418D01*
X3248946Y-14146418D02*
X3248946Y-14013084D01*
X3248946Y-14032132D02*
X3258470Y-14022608D01*
X3258470Y-14022608D02*
X3277518Y-14013084D01*
X3277518Y-14013084D02*
X3306089Y-14013084D01*
X3306089Y-14013084D02*
X3325137Y-14022608D01*
X3325137Y-14022608D02*
X3334661Y-14041656D01*
X3334661Y-14041656D02*
X3334661Y-14146418D01*
X3334661Y-14041656D02*
X3344184Y-14022608D01*
X3344184Y-14022608D02*
X3363232Y-14013084D01*
X3363232Y-14013084D02*
X3391803Y-14013084D01*
X3391803Y-14013084D02*
X3410851Y-14022608D01*
X3410851Y-14022608D02*
X3420375Y-14041656D01*
X3420375Y-14041656D02*
X3420375Y-14146418D01*
X3810851Y-13936894D02*
X3639423Y-14194037D01*
X4067994Y-13946418D02*
X4087042Y-13946418D01*
X4087042Y-13946418D02*
X4106089Y-13955942D01*
X4106089Y-13955942D02*
X4115613Y-13965465D01*
X4115613Y-13965465D02*
X4125137Y-13984513D01*
X4125137Y-13984513D02*
X4134661Y-14022608D01*
X4134661Y-14022608D02*
X4134661Y-14070227D01*
X4134661Y-14070227D02*
X4125137Y-14108322D01*
X4125137Y-14108322D02*
X4115613Y-14127370D01*
X4115613Y-14127370D02*
X4106089Y-14136894D01*
X4106089Y-14136894D02*
X4087042Y-14146418D01*
X4087042Y-14146418D02*
X4067994Y-14146418D01*
X4067994Y-14146418D02*
X4048946Y-14136894D01*
X4048946Y-14136894D02*
X4039423Y-14127370D01*
X4039423Y-14127370D02*
X4029899Y-14108322D01*
X4029899Y-14108322D02*
X4020375Y-14070227D01*
X4020375Y-14070227D02*
X4020375Y-14022608D01*
X4020375Y-14022608D02*
X4029899Y-13984513D01*
X4029899Y-13984513D02*
X4039423Y-13965465D01*
X4039423Y-13965465D02*
X4048946Y-13955942D01*
X4048946Y-13955942D02*
X4067994Y-13946418D01*
X4220375Y-14127370D02*
X4229899Y-14136894D01*
X4229899Y-14136894D02*
X4220375Y-14146418D01*
X4220375Y-14146418D02*
X4210851Y-14136894D01*
X4210851Y-14136894D02*
X4220375Y-14127370D01*
X4220375Y-14127370D02*
X4220375Y-14146418D01*
X4353708Y-13946418D02*
X4372756Y-13946418D01*
X4372756Y-13946418D02*
X4391804Y-13955942D01*
X4391804Y-13955942D02*
X4401328Y-13965465D01*
X4401328Y-13965465D02*
X4410851Y-13984513D01*
X4410851Y-13984513D02*
X4420375Y-14022608D01*
X4420375Y-14022608D02*
X4420375Y-14070227D01*
X4420375Y-14070227D02*
X4410851Y-14108322D01*
X4410851Y-14108322D02*
X4401328Y-14127370D01*
X4401328Y-14127370D02*
X4391804Y-14136894D01*
X4391804Y-14136894D02*
X4372756Y-14146418D01*
X4372756Y-14146418D02*
X4353708Y-14146418D01*
X4353708Y-14146418D02*
X4334661Y-14136894D01*
X4334661Y-14136894D02*
X4325137Y-14127370D01*
X4325137Y-14127370D02*
X4315613Y-14108322D01*
X4315613Y-14108322D02*
X4306089Y-14070227D01*
X4306089Y-14070227D02*
X4306089Y-14022608D01*
X4306089Y-14022608D02*
X4315613Y-13984513D01*
X4315613Y-13984513D02*
X4325137Y-13965465D01*
X4325137Y-13965465D02*
X4334661Y-13955942D01*
X4334661Y-13955942D02*
X4353708Y-13946418D01*
X4487042Y-13946418D02*
X4610851Y-13946418D01*
X4610851Y-13946418D02*
X4544185Y-14022608D01*
X4544185Y-14022608D02*
X4572756Y-14022608D01*
X4572756Y-14022608D02*
X4591804Y-14032132D01*
X4591804Y-14032132D02*
X4601328Y-14041656D01*
X4601328Y-14041656D02*
X4610851Y-14060703D01*
X4610851Y-14060703D02*
X4610851Y-14108322D01*
X4610851Y-14108322D02*
X4601328Y-14127370D01*
X4601328Y-14127370D02*
X4591804Y-14136894D01*
X4591804Y-14136894D02*
X4572756Y-14146418D01*
X4572756Y-14146418D02*
X4515613Y-14146418D01*
X4515613Y-14146418D02*
X4496566Y-14136894D01*
X4496566Y-14136894D02*
X4487042Y-14127370D01*
X4706089Y-14146418D02*
X4744185Y-14146418D01*
X4744185Y-14146418D02*
X4763232Y-14136894D01*
X4763232Y-14136894D02*
X4772756Y-14127370D01*
X4772756Y-14127370D02*
X4791804Y-14098799D01*
X4791804Y-14098799D02*
X4801328Y-14060703D01*
X4801328Y-14060703D02*
X4801328Y-13984513D01*
X4801328Y-13984513D02*
X4791804Y-13965465D01*
X4791804Y-13965465D02*
X4782280Y-13955942D01*
X4782280Y-13955942D02*
X4763232Y-13946418D01*
X4763232Y-13946418D02*
X4725137Y-13946418D01*
X4725137Y-13946418D02*
X4706089Y-13955942D01*
X4706089Y-13955942D02*
X4696566Y-13965465D01*
X4696566Y-13965465D02*
X4687042Y-13984513D01*
X4687042Y-13984513D02*
X4687042Y-14032132D01*
X4687042Y-14032132D02*
X4696566Y-14051180D01*
X4696566Y-14051180D02*
X4706089Y-14060703D01*
X4706089Y-14060703D02*
X4725137Y-14070227D01*
X4725137Y-14070227D02*
X4763232Y-14070227D01*
X4763232Y-14070227D02*
X4782280Y-14060703D01*
X4782280Y-14060703D02*
X4791804Y-14051180D01*
X4791804Y-14051180D02*
X4801328Y-14032132D01*
X4972756Y-14013084D02*
X4972756Y-14146418D01*
X4925137Y-13936894D02*
X4877518Y-14079751D01*
X4877518Y-14079751D02*
X5001328Y-14079751D01*
X5067994Y-13946418D02*
X5067994Y-13984513D01*
X5144185Y-13946418D02*
X5144185Y-13984513D01*
X5439423Y-14222608D02*
X5429899Y-14213084D01*
X5429899Y-14213084D02*
X5410851Y-14184513D01*
X5410851Y-14184513D02*
X5401328Y-14165465D01*
X5401328Y-14165465D02*
X5391804Y-14136894D01*
X5391804Y-14136894D02*
X5382280Y-14089275D01*
X5382280Y-14089275D02*
X5382280Y-14051180D01*
X5382280Y-14051180D02*
X5391804Y-14003561D01*
X5391804Y-14003561D02*
X5401328Y-13974989D01*
X5401328Y-13974989D02*
X5410851Y-13955942D01*
X5410851Y-13955942D02*
X5429899Y-13927370D01*
X5429899Y-13927370D02*
X5439423Y-13917846D01*
X5601328Y-14013084D02*
X5601328Y-14146418D01*
X5553709Y-13936894D02*
X5506090Y-14079751D01*
X5506090Y-14079751D02*
X5629899Y-14079751D01*
X5858470Y-14146418D02*
X5858470Y-13946418D01*
X5944185Y-14146418D02*
X5944185Y-14041656D01*
X5944185Y-14041656D02*
X5934661Y-14022608D01*
X5934661Y-14022608D02*
X5915613Y-14013084D01*
X5915613Y-14013084D02*
X5887042Y-14013084D01*
X5887042Y-14013084D02*
X5867994Y-14022608D01*
X5867994Y-14022608D02*
X5858470Y-14032132D01*
X6067994Y-14146418D02*
X6048947Y-14136894D01*
X6048947Y-14136894D02*
X6039423Y-14127370D01*
X6039423Y-14127370D02*
X6029899Y-14108322D01*
X6029899Y-14108322D02*
X6029899Y-14051180D01*
X6029899Y-14051180D02*
X6039423Y-14032132D01*
X6039423Y-14032132D02*
X6048947Y-14022608D01*
X6048947Y-14022608D02*
X6067994Y-14013084D01*
X6067994Y-14013084D02*
X6096566Y-14013084D01*
X6096566Y-14013084D02*
X6115613Y-14022608D01*
X6115613Y-14022608D02*
X6125137Y-14032132D01*
X6125137Y-14032132D02*
X6134661Y-14051180D01*
X6134661Y-14051180D02*
X6134661Y-14108322D01*
X6134661Y-14108322D02*
X6125137Y-14127370D01*
X6125137Y-14127370D02*
X6115613Y-14136894D01*
X6115613Y-14136894D02*
X6096566Y-14146418D01*
X6096566Y-14146418D02*
X6067994Y-14146418D01*
X6248947Y-14146418D02*
X6229899Y-14136894D01*
X6229899Y-14136894D02*
X6220375Y-14117846D01*
X6220375Y-14117846D02*
X6220375Y-13946418D01*
X6401328Y-14136894D02*
X6382280Y-14146418D01*
X6382280Y-14146418D02*
X6344185Y-14146418D01*
X6344185Y-14146418D02*
X6325137Y-14136894D01*
X6325137Y-14136894D02*
X6315613Y-14117846D01*
X6315613Y-14117846D02*
X6315613Y-14041656D01*
X6315613Y-14041656D02*
X6325137Y-14022608D01*
X6325137Y-14022608D02*
X6344185Y-14013084D01*
X6344185Y-14013084D02*
X6382280Y-14013084D01*
X6382280Y-14013084D02*
X6401328Y-14022608D01*
X6401328Y-14022608D02*
X6410851Y-14041656D01*
X6410851Y-14041656D02*
X6410851Y-14060703D01*
X6410851Y-14060703D02*
X6315613Y-14079751D01*
X6487042Y-14136894D02*
X6506090Y-14146418D01*
X6506090Y-14146418D02*
X6544185Y-14146418D01*
X6544185Y-14146418D02*
X6563232Y-14136894D01*
X6563232Y-14136894D02*
X6572756Y-14117846D01*
X6572756Y-14117846D02*
X6572756Y-14108322D01*
X6572756Y-14108322D02*
X6563232Y-14089275D01*
X6563232Y-14089275D02*
X6544185Y-14079751D01*
X6544185Y-14079751D02*
X6515613Y-14079751D01*
X6515613Y-14079751D02*
X6496566Y-14070227D01*
X6496566Y-14070227D02*
X6487042Y-14051180D01*
X6487042Y-14051180D02*
X6487042Y-14041656D01*
X6487042Y-14041656D02*
X6496566Y-14022608D01*
X6496566Y-14022608D02*
X6515613Y-14013084D01*
X6515613Y-14013084D02*
X6544185Y-14013084D01*
X6544185Y-14013084D02*
X6563232Y-14022608D01*
X6810852Y-14070227D02*
X6963233Y-14070227D01*
X6887042Y-14146418D02*
X6887042Y-13994037D01*
X7306090Y-13946418D02*
X7210852Y-13946418D01*
X7210852Y-13946418D02*
X7201328Y-14041656D01*
X7201328Y-14041656D02*
X7210852Y-14032132D01*
X7210852Y-14032132D02*
X7229899Y-14022608D01*
X7229899Y-14022608D02*
X7277518Y-14022608D01*
X7277518Y-14022608D02*
X7296566Y-14032132D01*
X7296566Y-14032132D02*
X7306090Y-14041656D01*
X7306090Y-14041656D02*
X7315613Y-14060703D01*
X7315613Y-14060703D02*
X7315613Y-14108322D01*
X7315613Y-14108322D02*
X7306090Y-14127370D01*
X7306090Y-14127370D02*
X7296566Y-14136894D01*
X7296566Y-14136894D02*
X7277518Y-14146418D01*
X7277518Y-14146418D02*
X7229899Y-14146418D01*
X7229899Y-14146418D02*
X7210852Y-14136894D01*
X7210852Y-14136894D02*
X7201328Y-14127370D01*
X7544185Y-14136894D02*
X7563233Y-14146418D01*
X7563233Y-14146418D02*
X7601328Y-14146418D01*
X7601328Y-14146418D02*
X7620375Y-14136894D01*
X7620375Y-14136894D02*
X7629899Y-14117846D01*
X7629899Y-14117846D02*
X7629899Y-14108322D01*
X7629899Y-14108322D02*
X7620375Y-14089275D01*
X7620375Y-14089275D02*
X7601328Y-14079751D01*
X7601328Y-14079751D02*
X7572756Y-14079751D01*
X7572756Y-14079751D02*
X7553709Y-14070227D01*
X7553709Y-14070227D02*
X7544185Y-14051180D01*
X7544185Y-14051180D02*
X7544185Y-14041656D01*
X7544185Y-14041656D02*
X7553709Y-14022608D01*
X7553709Y-14022608D02*
X7572756Y-14013084D01*
X7572756Y-14013084D02*
X7601328Y-14013084D01*
X7601328Y-14013084D02*
X7620375Y-14022608D01*
X7744185Y-14146418D02*
X7725137Y-14136894D01*
X7725137Y-14136894D02*
X7715614Y-14117846D01*
X7715614Y-14117846D02*
X7715614Y-13946418D01*
X7848947Y-14146418D02*
X7829899Y-14136894D01*
X7829899Y-14136894D02*
X7820375Y-14127370D01*
X7820375Y-14127370D02*
X7810852Y-14108322D01*
X7810852Y-14108322D02*
X7810852Y-14051180D01*
X7810852Y-14051180D02*
X7820375Y-14032132D01*
X7820375Y-14032132D02*
X7829899Y-14022608D01*
X7829899Y-14022608D02*
X7848947Y-14013084D01*
X7848947Y-14013084D02*
X7877518Y-14013084D01*
X7877518Y-14013084D02*
X7896566Y-14022608D01*
X7896566Y-14022608D02*
X7906090Y-14032132D01*
X7906090Y-14032132D02*
X7915614Y-14051180D01*
X7915614Y-14051180D02*
X7915614Y-14108322D01*
X7915614Y-14108322D02*
X7906090Y-14127370D01*
X7906090Y-14127370D02*
X7896566Y-14136894D01*
X7896566Y-14136894D02*
X7877518Y-14146418D01*
X7877518Y-14146418D02*
X7848947Y-14146418D01*
X7972756Y-14013084D02*
X8048947Y-14013084D01*
X8001328Y-13946418D02*
X8001328Y-14117846D01*
X8001328Y-14117846D02*
X8010852Y-14136894D01*
X8010852Y-14136894D02*
X8029899Y-14146418D01*
X8029899Y-14146418D02*
X8048947Y-14146418D01*
X8106090Y-14136894D02*
X8125137Y-14146418D01*
X8125137Y-14146418D02*
X8163233Y-14146418D01*
X8163233Y-14146418D02*
X8182280Y-14136894D01*
X8182280Y-14136894D02*
X8191804Y-14117846D01*
X8191804Y-14117846D02*
X8191804Y-14108322D01*
X8191804Y-14108322D02*
X8182280Y-14089275D01*
X8182280Y-14089275D02*
X8163233Y-14079751D01*
X8163233Y-14079751D02*
X8134661Y-14079751D01*
X8134661Y-14079751D02*
X8115614Y-14070227D01*
X8115614Y-14070227D02*
X8106090Y-14051180D01*
X8106090Y-14051180D02*
X8106090Y-14041656D01*
X8106090Y-14041656D02*
X8115614Y-14022608D01*
X8115614Y-14022608D02*
X8134661Y-14013084D01*
X8134661Y-14013084D02*
X8163233Y-14013084D01*
X8163233Y-14013084D02*
X8182280Y-14022608D01*
X8258471Y-14222608D02*
X8267995Y-14213084D01*
X8267995Y-14213084D02*
X8287042Y-14184513D01*
X8287042Y-14184513D02*
X8296566Y-14165465D01*
X8296566Y-14165465D02*
X8306090Y-14136894D01*
X8306090Y-14136894D02*
X8315614Y-14089275D01*
X8315614Y-14089275D02*
X8315614Y-14051180D01*
X8315614Y-14051180D02*
X8306090Y-14003561D01*
X8306090Y-14003561D02*
X8296566Y-13974989D01*
X8296566Y-13974989D02*
X8287042Y-13955942D01*
X8287042Y-13955942D02*
X8267995Y-13927370D01*
X8267995Y-13927370D02*
X8258471Y-13917846D01*
D13*
X1809750Y-14373544D02*
X1864360Y-14318934D01*
X1809750Y-14264324D01*
X1755140Y-14318934D01*
X1809750Y-14373544D01*
D12*
X2229899Y-14410418D02*
X2115613Y-14410418D01*
X2172756Y-14410418D02*
X2172756Y-14210418D01*
X2172756Y-14210418D02*
X2153708Y-14238989D01*
X2153708Y-14238989D02*
X2134661Y-14258037D01*
X2134661Y-14258037D02*
X2115613Y-14267561D01*
X2315613Y-14391370D02*
X2325137Y-14400894D01*
X2325137Y-14400894D02*
X2315613Y-14410418D01*
X2315613Y-14410418D02*
X2306089Y-14400894D01*
X2306089Y-14400894D02*
X2315613Y-14391370D01*
X2315613Y-14391370D02*
X2315613Y-14410418D01*
X2448946Y-14210418D02*
X2467994Y-14210418D01*
X2467994Y-14210418D02*
X2487042Y-14219942D01*
X2487042Y-14219942D02*
X2496565Y-14229465D01*
X2496565Y-14229465D02*
X2506089Y-14248513D01*
X2506089Y-14248513D02*
X2515613Y-14286608D01*
X2515613Y-14286608D02*
X2515613Y-14334227D01*
X2515613Y-14334227D02*
X2506089Y-14372322D01*
X2506089Y-14372322D02*
X2496565Y-14391370D01*
X2496565Y-14391370D02*
X2487042Y-14400894D01*
X2487042Y-14400894D02*
X2467994Y-14410418D01*
X2467994Y-14410418D02*
X2448946Y-14410418D01*
X2448946Y-14410418D02*
X2429899Y-14400894D01*
X2429899Y-14400894D02*
X2420375Y-14391370D01*
X2420375Y-14391370D02*
X2410851Y-14372322D01*
X2410851Y-14372322D02*
X2401327Y-14334227D01*
X2401327Y-14334227D02*
X2401327Y-14286608D01*
X2401327Y-14286608D02*
X2410851Y-14248513D01*
X2410851Y-14248513D02*
X2420375Y-14229465D01*
X2420375Y-14229465D02*
X2429899Y-14219942D01*
X2429899Y-14219942D02*
X2448946Y-14210418D01*
X2610851Y-14410418D02*
X2648946Y-14410418D01*
X2648946Y-14410418D02*
X2667994Y-14400894D01*
X2667994Y-14400894D02*
X2677518Y-14391370D01*
X2677518Y-14391370D02*
X2696565Y-14362799D01*
X2696565Y-14362799D02*
X2706089Y-14324703D01*
X2706089Y-14324703D02*
X2706089Y-14248513D01*
X2706089Y-14248513D02*
X2696565Y-14229465D01*
X2696565Y-14229465D02*
X2687042Y-14219942D01*
X2687042Y-14219942D02*
X2667994Y-14210418D01*
X2667994Y-14210418D02*
X2629899Y-14210418D01*
X2629899Y-14210418D02*
X2610851Y-14219942D01*
X2610851Y-14219942D02*
X2601327Y-14229465D01*
X2601327Y-14229465D02*
X2591804Y-14248513D01*
X2591804Y-14248513D02*
X2591804Y-14296132D01*
X2591804Y-14296132D02*
X2601327Y-14315180D01*
X2601327Y-14315180D02*
X2610851Y-14324703D01*
X2610851Y-14324703D02*
X2629899Y-14334227D01*
X2629899Y-14334227D02*
X2667994Y-14334227D01*
X2667994Y-14334227D02*
X2687042Y-14324703D01*
X2687042Y-14324703D02*
X2696565Y-14315180D01*
X2696565Y-14315180D02*
X2706089Y-14296132D01*
X2782280Y-14229465D02*
X2791804Y-14219942D01*
X2791804Y-14219942D02*
X2810851Y-14210418D01*
X2810851Y-14210418D02*
X2858470Y-14210418D01*
X2858470Y-14210418D02*
X2877518Y-14219942D01*
X2877518Y-14219942D02*
X2887042Y-14229465D01*
X2887042Y-14229465D02*
X2896565Y-14248513D01*
X2896565Y-14248513D02*
X2896565Y-14267561D01*
X2896565Y-14267561D02*
X2887042Y-14296132D01*
X2887042Y-14296132D02*
X2772756Y-14410418D01*
X2772756Y-14410418D02*
X2896565Y-14410418D01*
X2982280Y-14410418D02*
X2982280Y-14277084D01*
X2982280Y-14296132D02*
X2991803Y-14286608D01*
X2991803Y-14286608D02*
X3010851Y-14277084D01*
X3010851Y-14277084D02*
X3039423Y-14277084D01*
X3039423Y-14277084D02*
X3058470Y-14286608D01*
X3058470Y-14286608D02*
X3067994Y-14305656D01*
X3067994Y-14305656D02*
X3067994Y-14410418D01*
X3067994Y-14305656D02*
X3077518Y-14286608D01*
X3077518Y-14286608D02*
X3096565Y-14277084D01*
X3096565Y-14277084D02*
X3125137Y-14277084D01*
X3125137Y-14277084D02*
X3144184Y-14286608D01*
X3144184Y-14286608D02*
X3153708Y-14305656D01*
X3153708Y-14305656D02*
X3153708Y-14410418D01*
X3248946Y-14410418D02*
X3248946Y-14277084D01*
X3248946Y-14296132D02*
X3258470Y-14286608D01*
X3258470Y-14286608D02*
X3277518Y-14277084D01*
X3277518Y-14277084D02*
X3306089Y-14277084D01*
X3306089Y-14277084D02*
X3325137Y-14286608D01*
X3325137Y-14286608D02*
X3334661Y-14305656D01*
X3334661Y-14305656D02*
X3334661Y-14410418D01*
X3334661Y-14305656D02*
X3344184Y-14286608D01*
X3344184Y-14286608D02*
X3363232Y-14277084D01*
X3363232Y-14277084D02*
X3391803Y-14277084D01*
X3391803Y-14277084D02*
X3410851Y-14286608D01*
X3410851Y-14286608D02*
X3420375Y-14305656D01*
X3420375Y-14305656D02*
X3420375Y-14410418D01*
X3810851Y-14200894D02*
X3639423Y-14458037D01*
X4067994Y-14210418D02*
X4087042Y-14210418D01*
X4087042Y-14210418D02*
X4106089Y-14219942D01*
X4106089Y-14219942D02*
X4115613Y-14229465D01*
X4115613Y-14229465D02*
X4125137Y-14248513D01*
X4125137Y-14248513D02*
X4134661Y-14286608D01*
X4134661Y-14286608D02*
X4134661Y-14334227D01*
X4134661Y-14334227D02*
X4125137Y-14372322D01*
X4125137Y-14372322D02*
X4115613Y-14391370D01*
X4115613Y-14391370D02*
X4106089Y-14400894D01*
X4106089Y-14400894D02*
X4087042Y-14410418D01*
X4087042Y-14410418D02*
X4067994Y-14410418D01*
X4067994Y-14410418D02*
X4048946Y-14400894D01*
X4048946Y-14400894D02*
X4039423Y-14391370D01*
X4039423Y-14391370D02*
X4029899Y-14372322D01*
X4029899Y-14372322D02*
X4020375Y-14334227D01*
X4020375Y-14334227D02*
X4020375Y-14286608D01*
X4020375Y-14286608D02*
X4029899Y-14248513D01*
X4029899Y-14248513D02*
X4039423Y-14229465D01*
X4039423Y-14229465D02*
X4048946Y-14219942D01*
X4048946Y-14219942D02*
X4067994Y-14210418D01*
X4220375Y-14391370D02*
X4229899Y-14400894D01*
X4229899Y-14400894D02*
X4220375Y-14410418D01*
X4220375Y-14410418D02*
X4210851Y-14400894D01*
X4210851Y-14400894D02*
X4220375Y-14391370D01*
X4220375Y-14391370D02*
X4220375Y-14410418D01*
X4353708Y-14210418D02*
X4372756Y-14210418D01*
X4372756Y-14210418D02*
X4391804Y-14219942D01*
X4391804Y-14219942D02*
X4401328Y-14229465D01*
X4401328Y-14229465D02*
X4410851Y-14248513D01*
X4410851Y-14248513D02*
X4420375Y-14286608D01*
X4420375Y-14286608D02*
X4420375Y-14334227D01*
X4420375Y-14334227D02*
X4410851Y-14372322D01*
X4410851Y-14372322D02*
X4401328Y-14391370D01*
X4401328Y-14391370D02*
X4391804Y-14400894D01*
X4391804Y-14400894D02*
X4372756Y-14410418D01*
X4372756Y-14410418D02*
X4353708Y-14410418D01*
X4353708Y-14410418D02*
X4334661Y-14400894D01*
X4334661Y-14400894D02*
X4325137Y-14391370D01*
X4325137Y-14391370D02*
X4315613Y-14372322D01*
X4315613Y-14372322D02*
X4306089Y-14334227D01*
X4306089Y-14334227D02*
X4306089Y-14286608D01*
X4306089Y-14286608D02*
X4315613Y-14248513D01*
X4315613Y-14248513D02*
X4325137Y-14229465D01*
X4325137Y-14229465D02*
X4334661Y-14219942D01*
X4334661Y-14219942D02*
X4353708Y-14210418D01*
X4591804Y-14277084D02*
X4591804Y-14410418D01*
X4544185Y-14200894D02*
X4496566Y-14343751D01*
X4496566Y-14343751D02*
X4620375Y-14343751D01*
X4677518Y-14210418D02*
X4801328Y-14210418D01*
X4801328Y-14210418D02*
X4734661Y-14286608D01*
X4734661Y-14286608D02*
X4763232Y-14286608D01*
X4763232Y-14286608D02*
X4782280Y-14296132D01*
X4782280Y-14296132D02*
X4791804Y-14305656D01*
X4791804Y-14305656D02*
X4801328Y-14324703D01*
X4801328Y-14324703D02*
X4801328Y-14372322D01*
X4801328Y-14372322D02*
X4791804Y-14391370D01*
X4791804Y-14391370D02*
X4782280Y-14400894D01*
X4782280Y-14400894D02*
X4763232Y-14410418D01*
X4763232Y-14410418D02*
X4706089Y-14410418D01*
X4706089Y-14410418D02*
X4687042Y-14400894D01*
X4687042Y-14400894D02*
X4677518Y-14391370D01*
X4925137Y-14210418D02*
X4944185Y-14210418D01*
X4944185Y-14210418D02*
X4963232Y-14219942D01*
X4963232Y-14219942D02*
X4972756Y-14229465D01*
X4972756Y-14229465D02*
X4982280Y-14248513D01*
X4982280Y-14248513D02*
X4991804Y-14286608D01*
X4991804Y-14286608D02*
X4991804Y-14334227D01*
X4991804Y-14334227D02*
X4982280Y-14372322D01*
X4982280Y-14372322D02*
X4972756Y-14391370D01*
X4972756Y-14391370D02*
X4963232Y-14400894D01*
X4963232Y-14400894D02*
X4944185Y-14410418D01*
X4944185Y-14410418D02*
X4925137Y-14410418D01*
X4925137Y-14410418D02*
X4906089Y-14400894D01*
X4906089Y-14400894D02*
X4896566Y-14391370D01*
X4896566Y-14391370D02*
X4887042Y-14372322D01*
X4887042Y-14372322D02*
X4877518Y-14334227D01*
X4877518Y-14334227D02*
X4877518Y-14286608D01*
X4877518Y-14286608D02*
X4887042Y-14248513D01*
X4887042Y-14248513D02*
X4896566Y-14229465D01*
X4896566Y-14229465D02*
X4906089Y-14219942D01*
X4906089Y-14219942D02*
X4925137Y-14210418D01*
X5067994Y-14210418D02*
X5067994Y-14248513D01*
X5144185Y-14210418D02*
X5144185Y-14248513D01*
X5439423Y-14486608D02*
X5429899Y-14477084D01*
X5429899Y-14477084D02*
X5410851Y-14448513D01*
X5410851Y-14448513D02*
X5401328Y-14429465D01*
X5401328Y-14429465D02*
X5391804Y-14400894D01*
X5391804Y-14400894D02*
X5382280Y-14353275D01*
X5382280Y-14353275D02*
X5382280Y-14315180D01*
X5382280Y-14315180D02*
X5391804Y-14267561D01*
X5391804Y-14267561D02*
X5401328Y-14238989D01*
X5401328Y-14238989D02*
X5410851Y-14219942D01*
X5410851Y-14219942D02*
X5429899Y-14191370D01*
X5429899Y-14191370D02*
X5439423Y-14181846D01*
X5496566Y-14210418D02*
X5620375Y-14210418D01*
X5620375Y-14210418D02*
X5553709Y-14286608D01*
X5553709Y-14286608D02*
X5582280Y-14286608D01*
X5582280Y-14286608D02*
X5601328Y-14296132D01*
X5601328Y-14296132D02*
X5610851Y-14305656D01*
X5610851Y-14305656D02*
X5620375Y-14324703D01*
X5620375Y-14324703D02*
X5620375Y-14372322D01*
X5620375Y-14372322D02*
X5610851Y-14391370D01*
X5610851Y-14391370D02*
X5601328Y-14400894D01*
X5601328Y-14400894D02*
X5582280Y-14410418D01*
X5582280Y-14410418D02*
X5525137Y-14410418D01*
X5525137Y-14410418D02*
X5506090Y-14400894D01*
X5506090Y-14400894D02*
X5496566Y-14391370D01*
X5696566Y-14229465D02*
X5706089Y-14219942D01*
X5706089Y-14219942D02*
X5725137Y-14210418D01*
X5725137Y-14210418D02*
X5772756Y-14210418D01*
X5772756Y-14210418D02*
X5791804Y-14219942D01*
X5791804Y-14219942D02*
X5801328Y-14229465D01*
X5801328Y-14229465D02*
X5810851Y-14248513D01*
X5810851Y-14248513D02*
X5810851Y-14267561D01*
X5810851Y-14267561D02*
X5801328Y-14296132D01*
X5801328Y-14296132D02*
X5687042Y-14410418D01*
X5687042Y-14410418D02*
X5810851Y-14410418D01*
X6048947Y-14410418D02*
X6048947Y-14210418D01*
X6134661Y-14410418D02*
X6134661Y-14305656D01*
X6134661Y-14305656D02*
X6125137Y-14286608D01*
X6125137Y-14286608D02*
X6106090Y-14277084D01*
X6106090Y-14277084D02*
X6077518Y-14277084D01*
X6077518Y-14277084D02*
X6058470Y-14286608D01*
X6058470Y-14286608D02*
X6048947Y-14296132D01*
X6258470Y-14410418D02*
X6239423Y-14400894D01*
X6239423Y-14400894D02*
X6229899Y-14391370D01*
X6229899Y-14391370D02*
X6220375Y-14372322D01*
X6220375Y-14372322D02*
X6220375Y-14315180D01*
X6220375Y-14315180D02*
X6229899Y-14296132D01*
X6229899Y-14296132D02*
X6239423Y-14286608D01*
X6239423Y-14286608D02*
X6258470Y-14277084D01*
X6258470Y-14277084D02*
X6287042Y-14277084D01*
X6287042Y-14277084D02*
X6306090Y-14286608D01*
X6306090Y-14286608D02*
X6315613Y-14296132D01*
X6315613Y-14296132D02*
X6325137Y-14315180D01*
X6325137Y-14315180D02*
X6325137Y-14372322D01*
X6325137Y-14372322D02*
X6315613Y-14391370D01*
X6315613Y-14391370D02*
X6306090Y-14400894D01*
X6306090Y-14400894D02*
X6287042Y-14410418D01*
X6287042Y-14410418D02*
X6258470Y-14410418D01*
X6439423Y-14410418D02*
X6420375Y-14400894D01*
X6420375Y-14400894D02*
X6410851Y-14381846D01*
X6410851Y-14381846D02*
X6410851Y-14210418D01*
X6591804Y-14400894D02*
X6572756Y-14410418D01*
X6572756Y-14410418D02*
X6534661Y-14410418D01*
X6534661Y-14410418D02*
X6515613Y-14400894D01*
X6515613Y-14400894D02*
X6506090Y-14381846D01*
X6506090Y-14381846D02*
X6506090Y-14305656D01*
X6506090Y-14305656D02*
X6515613Y-14286608D01*
X6515613Y-14286608D02*
X6534661Y-14277084D01*
X6534661Y-14277084D02*
X6572756Y-14277084D01*
X6572756Y-14277084D02*
X6591804Y-14286608D01*
X6591804Y-14286608D02*
X6601328Y-14305656D01*
X6601328Y-14305656D02*
X6601328Y-14324703D01*
X6601328Y-14324703D02*
X6506090Y-14343751D01*
X6677518Y-14400894D02*
X6696566Y-14410418D01*
X6696566Y-14410418D02*
X6734661Y-14410418D01*
X6734661Y-14410418D02*
X6753709Y-14400894D01*
X6753709Y-14400894D02*
X6763232Y-14381846D01*
X6763232Y-14381846D02*
X6763232Y-14372322D01*
X6763232Y-14372322D02*
X6753709Y-14353275D01*
X6753709Y-14353275D02*
X6734661Y-14343751D01*
X6734661Y-14343751D02*
X6706090Y-14343751D01*
X6706090Y-14343751D02*
X6687042Y-14334227D01*
X6687042Y-14334227D02*
X6677518Y-14315180D01*
X6677518Y-14315180D02*
X6677518Y-14305656D01*
X6677518Y-14305656D02*
X6687042Y-14286608D01*
X6687042Y-14286608D02*
X6706090Y-14277084D01*
X6706090Y-14277084D02*
X6734661Y-14277084D01*
X6734661Y-14277084D02*
X6753709Y-14286608D01*
X6829899Y-14486608D02*
X6839423Y-14477084D01*
X6839423Y-14477084D02*
X6858471Y-14448513D01*
X6858471Y-14448513D02*
X6867994Y-14429465D01*
X6867994Y-14429465D02*
X6877518Y-14400894D01*
X6877518Y-14400894D02*
X6887042Y-14353275D01*
X6887042Y-14353275D02*
X6887042Y-14315180D01*
X6887042Y-14315180D02*
X6877518Y-14267561D01*
X6877518Y-14267561D02*
X6867994Y-14238989D01*
X6867994Y-14238989D02*
X6858471Y-14219942D01*
X6858471Y-14219942D02*
X6839423Y-14191370D01*
X6839423Y-14191370D02*
X6829899Y-14181846D01*
D14*
X1754360Y-14527934D02*
X1864360Y-14637934D01*
X1864360Y-14527934D02*
X1754360Y-14637934D01*
X1864360Y-14582934D02*
G75*
G02*
X1754360Y-14582934I-55000J0D01*
G01*
X1754360Y-14582934D02*
G75*
G02*
X1864360Y-14582934I55000J0D01*
G01*
D12*
X2229899Y-14674418D02*
X2115613Y-14674418D01*
X2172756Y-14674418D02*
X2172756Y-14474418D01*
X2172756Y-14474418D02*
X2153708Y-14502989D01*
X2153708Y-14502989D02*
X2134661Y-14522037D01*
X2134661Y-14522037D02*
X2115613Y-14531561D01*
X2315613Y-14655370D02*
X2325137Y-14664894D01*
X2325137Y-14664894D02*
X2315613Y-14674418D01*
X2315613Y-14674418D02*
X2306089Y-14664894D01*
X2306089Y-14664894D02*
X2315613Y-14655370D01*
X2315613Y-14655370D02*
X2315613Y-14674418D01*
X2515613Y-14674418D02*
X2401327Y-14674418D01*
X2458470Y-14674418D02*
X2458470Y-14474418D01*
X2458470Y-14474418D02*
X2439423Y-14502989D01*
X2439423Y-14502989D02*
X2420375Y-14522037D01*
X2420375Y-14522037D02*
X2401327Y-14531561D01*
X2639423Y-14474418D02*
X2658470Y-14474418D01*
X2658470Y-14474418D02*
X2677518Y-14483942D01*
X2677518Y-14483942D02*
X2687042Y-14493465D01*
X2687042Y-14493465D02*
X2696565Y-14512513D01*
X2696565Y-14512513D02*
X2706089Y-14550608D01*
X2706089Y-14550608D02*
X2706089Y-14598227D01*
X2706089Y-14598227D02*
X2696565Y-14636322D01*
X2696565Y-14636322D02*
X2687042Y-14655370D01*
X2687042Y-14655370D02*
X2677518Y-14664894D01*
X2677518Y-14664894D02*
X2658470Y-14674418D01*
X2658470Y-14674418D02*
X2639423Y-14674418D01*
X2639423Y-14674418D02*
X2620375Y-14664894D01*
X2620375Y-14664894D02*
X2610851Y-14655370D01*
X2610851Y-14655370D02*
X2601327Y-14636322D01*
X2601327Y-14636322D02*
X2591804Y-14598227D01*
X2591804Y-14598227D02*
X2591804Y-14550608D01*
X2591804Y-14550608D02*
X2601327Y-14512513D01*
X2601327Y-14512513D02*
X2610851Y-14493465D01*
X2610851Y-14493465D02*
X2620375Y-14483942D01*
X2620375Y-14483942D02*
X2639423Y-14474418D01*
X2829899Y-14474418D02*
X2848946Y-14474418D01*
X2848946Y-14474418D02*
X2867994Y-14483942D01*
X2867994Y-14483942D02*
X2877518Y-14493465D01*
X2877518Y-14493465D02*
X2887042Y-14512513D01*
X2887042Y-14512513D02*
X2896565Y-14550608D01*
X2896565Y-14550608D02*
X2896565Y-14598227D01*
X2896565Y-14598227D02*
X2887042Y-14636322D01*
X2887042Y-14636322D02*
X2877518Y-14655370D01*
X2877518Y-14655370D02*
X2867994Y-14664894D01*
X2867994Y-14664894D02*
X2848946Y-14674418D01*
X2848946Y-14674418D02*
X2829899Y-14674418D01*
X2829899Y-14674418D02*
X2810851Y-14664894D01*
X2810851Y-14664894D02*
X2801327Y-14655370D01*
X2801327Y-14655370D02*
X2791804Y-14636322D01*
X2791804Y-14636322D02*
X2782280Y-14598227D01*
X2782280Y-14598227D02*
X2782280Y-14550608D01*
X2782280Y-14550608D02*
X2791804Y-14512513D01*
X2791804Y-14512513D02*
X2801327Y-14493465D01*
X2801327Y-14493465D02*
X2810851Y-14483942D01*
X2810851Y-14483942D02*
X2829899Y-14474418D01*
X2982280Y-14674418D02*
X2982280Y-14541084D01*
X2982280Y-14560132D02*
X2991803Y-14550608D01*
X2991803Y-14550608D02*
X3010851Y-14541084D01*
X3010851Y-14541084D02*
X3039423Y-14541084D01*
X3039423Y-14541084D02*
X3058470Y-14550608D01*
X3058470Y-14550608D02*
X3067994Y-14569656D01*
X3067994Y-14569656D02*
X3067994Y-14674418D01*
X3067994Y-14569656D02*
X3077518Y-14550608D01*
X3077518Y-14550608D02*
X3096565Y-14541084D01*
X3096565Y-14541084D02*
X3125137Y-14541084D01*
X3125137Y-14541084D02*
X3144184Y-14550608D01*
X3144184Y-14550608D02*
X3153708Y-14569656D01*
X3153708Y-14569656D02*
X3153708Y-14674418D01*
X3248946Y-14674418D02*
X3248946Y-14541084D01*
X3248946Y-14560132D02*
X3258470Y-14550608D01*
X3258470Y-14550608D02*
X3277518Y-14541084D01*
X3277518Y-14541084D02*
X3306089Y-14541084D01*
X3306089Y-14541084D02*
X3325137Y-14550608D01*
X3325137Y-14550608D02*
X3334661Y-14569656D01*
X3334661Y-14569656D02*
X3334661Y-14674418D01*
X3334661Y-14569656D02*
X3344184Y-14550608D01*
X3344184Y-14550608D02*
X3363232Y-14541084D01*
X3363232Y-14541084D02*
X3391803Y-14541084D01*
X3391803Y-14541084D02*
X3410851Y-14550608D01*
X3410851Y-14550608D02*
X3420375Y-14569656D01*
X3420375Y-14569656D02*
X3420375Y-14674418D01*
X3810851Y-14464894D02*
X3639423Y-14722037D01*
X4067994Y-14474418D02*
X4087042Y-14474418D01*
X4087042Y-14474418D02*
X4106089Y-14483942D01*
X4106089Y-14483942D02*
X4115613Y-14493465D01*
X4115613Y-14493465D02*
X4125137Y-14512513D01*
X4125137Y-14512513D02*
X4134661Y-14550608D01*
X4134661Y-14550608D02*
X4134661Y-14598227D01*
X4134661Y-14598227D02*
X4125137Y-14636322D01*
X4125137Y-14636322D02*
X4115613Y-14655370D01*
X4115613Y-14655370D02*
X4106089Y-14664894D01*
X4106089Y-14664894D02*
X4087042Y-14674418D01*
X4087042Y-14674418D02*
X4067994Y-14674418D01*
X4067994Y-14674418D02*
X4048946Y-14664894D01*
X4048946Y-14664894D02*
X4039423Y-14655370D01*
X4039423Y-14655370D02*
X4029899Y-14636322D01*
X4029899Y-14636322D02*
X4020375Y-14598227D01*
X4020375Y-14598227D02*
X4020375Y-14550608D01*
X4020375Y-14550608D02*
X4029899Y-14512513D01*
X4029899Y-14512513D02*
X4039423Y-14493465D01*
X4039423Y-14493465D02*
X4048946Y-14483942D01*
X4048946Y-14483942D02*
X4067994Y-14474418D01*
X4220375Y-14655370D02*
X4229899Y-14664894D01*
X4229899Y-14664894D02*
X4220375Y-14674418D01*
X4220375Y-14674418D02*
X4210851Y-14664894D01*
X4210851Y-14664894D02*
X4220375Y-14655370D01*
X4220375Y-14655370D02*
X4220375Y-14674418D01*
X4353708Y-14474418D02*
X4372756Y-14474418D01*
X4372756Y-14474418D02*
X4391804Y-14483942D01*
X4391804Y-14483942D02*
X4401328Y-14493465D01*
X4401328Y-14493465D02*
X4410851Y-14512513D01*
X4410851Y-14512513D02*
X4420375Y-14550608D01*
X4420375Y-14550608D02*
X4420375Y-14598227D01*
X4420375Y-14598227D02*
X4410851Y-14636322D01*
X4410851Y-14636322D02*
X4401328Y-14655370D01*
X4401328Y-14655370D02*
X4391804Y-14664894D01*
X4391804Y-14664894D02*
X4372756Y-14674418D01*
X4372756Y-14674418D02*
X4353708Y-14674418D01*
X4353708Y-14674418D02*
X4334661Y-14664894D01*
X4334661Y-14664894D02*
X4325137Y-14655370D01*
X4325137Y-14655370D02*
X4315613Y-14636322D01*
X4315613Y-14636322D02*
X4306089Y-14598227D01*
X4306089Y-14598227D02*
X4306089Y-14550608D01*
X4306089Y-14550608D02*
X4315613Y-14512513D01*
X4315613Y-14512513D02*
X4325137Y-14493465D01*
X4325137Y-14493465D02*
X4334661Y-14483942D01*
X4334661Y-14483942D02*
X4353708Y-14474418D01*
X4591804Y-14541084D02*
X4591804Y-14674418D01*
X4544185Y-14464894D02*
X4496566Y-14607751D01*
X4496566Y-14607751D02*
X4620375Y-14607751D01*
X4677518Y-14474418D02*
X4801328Y-14474418D01*
X4801328Y-14474418D02*
X4734661Y-14550608D01*
X4734661Y-14550608D02*
X4763232Y-14550608D01*
X4763232Y-14550608D02*
X4782280Y-14560132D01*
X4782280Y-14560132D02*
X4791804Y-14569656D01*
X4791804Y-14569656D02*
X4801328Y-14588703D01*
X4801328Y-14588703D02*
X4801328Y-14636322D01*
X4801328Y-14636322D02*
X4791804Y-14655370D01*
X4791804Y-14655370D02*
X4782280Y-14664894D01*
X4782280Y-14664894D02*
X4763232Y-14674418D01*
X4763232Y-14674418D02*
X4706089Y-14674418D01*
X4706089Y-14674418D02*
X4687042Y-14664894D01*
X4687042Y-14664894D02*
X4677518Y-14655370D01*
X4867994Y-14474418D02*
X4991804Y-14474418D01*
X4991804Y-14474418D02*
X4925137Y-14550608D01*
X4925137Y-14550608D02*
X4953709Y-14550608D01*
X4953709Y-14550608D02*
X4972756Y-14560132D01*
X4972756Y-14560132D02*
X4982280Y-14569656D01*
X4982280Y-14569656D02*
X4991804Y-14588703D01*
X4991804Y-14588703D02*
X4991804Y-14636322D01*
X4991804Y-14636322D02*
X4982280Y-14655370D01*
X4982280Y-14655370D02*
X4972756Y-14664894D01*
X4972756Y-14664894D02*
X4953709Y-14674418D01*
X4953709Y-14674418D02*
X4896566Y-14674418D01*
X4896566Y-14674418D02*
X4877518Y-14664894D01*
X4877518Y-14664894D02*
X4867994Y-14655370D01*
X5067994Y-14474418D02*
X5067994Y-14512513D01*
X5144185Y-14474418D02*
X5144185Y-14512513D01*
X5439423Y-14750608D02*
X5429899Y-14741084D01*
X5429899Y-14741084D02*
X5410851Y-14712513D01*
X5410851Y-14712513D02*
X5401328Y-14693465D01*
X5401328Y-14693465D02*
X5391804Y-14664894D01*
X5391804Y-14664894D02*
X5382280Y-14617275D01*
X5382280Y-14617275D02*
X5382280Y-14579180D01*
X5382280Y-14579180D02*
X5391804Y-14531561D01*
X5391804Y-14531561D02*
X5401328Y-14502989D01*
X5401328Y-14502989D02*
X5410851Y-14483942D01*
X5410851Y-14483942D02*
X5429899Y-14455370D01*
X5429899Y-14455370D02*
X5439423Y-14445846D01*
X5620375Y-14674418D02*
X5506090Y-14674418D01*
X5563232Y-14674418D02*
X5563232Y-14474418D01*
X5563232Y-14474418D02*
X5544185Y-14502989D01*
X5544185Y-14502989D02*
X5525137Y-14522037D01*
X5525137Y-14522037D02*
X5506090Y-14531561D01*
X5858470Y-14674418D02*
X5858470Y-14474418D01*
X5944185Y-14674418D02*
X5944185Y-14569656D01*
X5944185Y-14569656D02*
X5934661Y-14550608D01*
X5934661Y-14550608D02*
X5915613Y-14541084D01*
X5915613Y-14541084D02*
X5887042Y-14541084D01*
X5887042Y-14541084D02*
X5867994Y-14550608D01*
X5867994Y-14550608D02*
X5858470Y-14560132D01*
X6067994Y-14674418D02*
X6048947Y-14664894D01*
X6048947Y-14664894D02*
X6039423Y-14655370D01*
X6039423Y-14655370D02*
X6029899Y-14636322D01*
X6029899Y-14636322D02*
X6029899Y-14579180D01*
X6029899Y-14579180D02*
X6039423Y-14560132D01*
X6039423Y-14560132D02*
X6048947Y-14550608D01*
X6048947Y-14550608D02*
X6067994Y-14541084D01*
X6067994Y-14541084D02*
X6096566Y-14541084D01*
X6096566Y-14541084D02*
X6115613Y-14550608D01*
X6115613Y-14550608D02*
X6125137Y-14560132D01*
X6125137Y-14560132D02*
X6134661Y-14579180D01*
X6134661Y-14579180D02*
X6134661Y-14636322D01*
X6134661Y-14636322D02*
X6125137Y-14655370D01*
X6125137Y-14655370D02*
X6115613Y-14664894D01*
X6115613Y-14664894D02*
X6096566Y-14674418D01*
X6096566Y-14674418D02*
X6067994Y-14674418D01*
X6248947Y-14674418D02*
X6229899Y-14664894D01*
X6229899Y-14664894D02*
X6220375Y-14645846D01*
X6220375Y-14645846D02*
X6220375Y-14474418D01*
X6401328Y-14664894D02*
X6382280Y-14674418D01*
X6382280Y-14674418D02*
X6344185Y-14674418D01*
X6344185Y-14674418D02*
X6325137Y-14664894D01*
X6325137Y-14664894D02*
X6315613Y-14645846D01*
X6315613Y-14645846D02*
X6315613Y-14569656D01*
X6315613Y-14569656D02*
X6325137Y-14550608D01*
X6325137Y-14550608D02*
X6344185Y-14541084D01*
X6344185Y-14541084D02*
X6382280Y-14541084D01*
X6382280Y-14541084D02*
X6401328Y-14550608D01*
X6401328Y-14550608D02*
X6410851Y-14569656D01*
X6410851Y-14569656D02*
X6410851Y-14588703D01*
X6410851Y-14588703D02*
X6315613Y-14607751D01*
X6477518Y-14750608D02*
X6487042Y-14741084D01*
X6487042Y-14741084D02*
X6506090Y-14712513D01*
X6506090Y-14712513D02*
X6515613Y-14693465D01*
X6515613Y-14693465D02*
X6525137Y-14664894D01*
X6525137Y-14664894D02*
X6534661Y-14617275D01*
X6534661Y-14617275D02*
X6534661Y-14579180D01*
X6534661Y-14579180D02*
X6525137Y-14531561D01*
X6525137Y-14531561D02*
X6515613Y-14502989D01*
X6515613Y-14502989D02*
X6506090Y-14483942D01*
X6506090Y-14483942D02*
X6487042Y-14455370D01*
X6487042Y-14455370D02*
X6477518Y-14445846D01*
M02*
