G04 #@! TF.GenerationSoftware,KiCad,Pcbnew,8.0.1*
G04 #@! TF.CreationDate,2024-06-10T23:21:16+02:00*
G04 #@! TF.ProjectId,cornia,636f726e-6961-42e6-9b69-6361645f7063,rev?*
G04 #@! TF.SameCoordinates,Original*
G04 #@! TF.FileFunction,Profile,NP*
%FSLAX46Y46*%
G04 Gerber Fmt 4.6, Leading zero omitted, Abs format (unit mm)*
G04 Created by KiCad (PCBNEW 8.0.1) date 2024-06-10 23:21:16*
%MOMM*%
%LPD*%
G01*
G04 APERTURE LIST*
G04 #@! TA.AperFunction,Profile*
%ADD10C,0.050000*%
G04 #@! TD*
G04 #@! TA.AperFunction,Profile*
%ADD11C,0.100000*%
G04 #@! TD*
G04 APERTURE END LIST*
D10*
X56918600Y-34188750D02*
X56918600Y-25438750D01*
X176918600Y-106688750D02*
G75*
G02*
X177668541Y-109438716I-1000000J-1749950D01*
G01*
X132918600Y-111188750D02*
X150168600Y-117188750D01*
X20668600Y-104188750D02*
G75*
G02*
X18668650Y-102188750I0J1999950D01*
G01*
X27668600Y-36188750D02*
X54918600Y-36188750D01*
X56918600Y-34188750D02*
G75*
G02*
X54918600Y-36188750I-2000000J0D01*
G01*
X156418600Y-28188750D02*
X156418600Y-94188750D01*
X114635757Y-107918648D02*
G75*
G02*
X112918551Y-105938750I282843J1979948D01*
G01*
X64418600Y-17938750D02*
X117668600Y-17938750D01*
X60918600Y-88438750D02*
G75*
G02*
X62918600Y-86438750I2000000J0D01*
G01*
X177668600Y-109438750D02*
X168918600Y-125188750D01*
X42668600Y-104188750D02*
X51418600Y-104188750D01*
X39668600Y-104188750D02*
X42668600Y-104188750D01*
X125918600Y-26188750D02*
G75*
G02*
X123918650Y-24188750I0J1999950D01*
G01*
X60918600Y-94688750D02*
X60918600Y-88438750D01*
X60918600Y-94688750D02*
G75*
G02*
X51418600Y-104188750I-9500000J0D01*
G01*
X56918600Y-25438750D02*
G75*
G02*
X64418600Y-17938750I7500000J0D01*
G01*
X114635757Y-107918649D02*
X132918600Y-111188750D01*
X110918600Y-86438750D02*
G75*
G02*
X112918550Y-88438750I0J-1999950D01*
G01*
X154418600Y-26188750D02*
G75*
G02*
X156418550Y-28188750I0J-1999950D01*
G01*
X18668600Y-45188750D02*
G75*
G02*
X27668600Y-36188750I9000000J0D01*
G01*
X18668600Y-45188750D02*
X18668600Y-102188750D01*
X157309200Y-95852851D02*
X176918600Y-106688750D01*
X112918600Y-105938750D02*
X112918600Y-88438750D01*
X157309200Y-95852850D02*
G75*
G02*
X156418559Y-94188750I1109400J1664150D01*
G01*
X117668600Y-17938750D02*
G75*
G02*
X123918650Y-24188750I0J-6250050D01*
G01*
X168918599Y-125188750D02*
G75*
G02*
X166168591Y-125938766I-1749999J999950D01*
G01*
X125918600Y-26188750D02*
X154418600Y-26188750D01*
X150168600Y-117188750D02*
X166168600Y-125938750D01*
X62918600Y-86438750D02*
X110918600Y-86438750D01*
X20668600Y-104188750D02*
X39668600Y-104188750D01*
D11*
X28368600Y-76888750D02*
X28368600Y-79988750D01*
X28368600Y-79988750D02*
X31968600Y-79988750D01*
X31968600Y-76888750D02*
X28368600Y-76888750D01*
X31968600Y-79988750D02*
X31968600Y-76888750D01*
X159007556Y-116633772D02*
X162155273Y-118380735D01*
X160511885Y-113923239D02*
X159007556Y-116633772D01*
X162155273Y-118380735D02*
X163659602Y-115670202D01*
X163659602Y-115670202D02*
X160511885Y-113923239D01*
X47368600Y-50888750D02*
X47368600Y-53988750D01*
X47368600Y-53988750D02*
X50968600Y-53988750D01*
X50968600Y-50888750D02*
X47368600Y-50888750D01*
X50968600Y-53988750D02*
X50968600Y-50888750D01*
X104368600Y-76388750D02*
X104368600Y-79488750D01*
X104368600Y-79488750D02*
X107968600Y-79488750D01*
X107968600Y-76388750D02*
X104368600Y-76388750D01*
X107968600Y-79488750D02*
X107968600Y-76388750D01*
X85368600Y-71388750D02*
X85368600Y-74488750D01*
X85368600Y-74488750D02*
X88968600Y-74488750D01*
X88968600Y-71388750D02*
X85368600Y-71388750D01*
X88968600Y-74488750D02*
X88968600Y-71388750D01*
X123368600Y-40888750D02*
X123368600Y-43988750D01*
X123368600Y-43988750D02*
X126968600Y-43988750D01*
X126968600Y-40888750D02*
X123368600Y-40888750D01*
X126968600Y-43988750D02*
X126968600Y-40888750D01*
X122729456Y-104478952D02*
X126276603Y-105093564D01*
X123258705Y-101424464D02*
X122729456Y-104478952D01*
X126276603Y-105093564D02*
X126805852Y-102039076D01*
X126805852Y-102039076D02*
X123258705Y-101424464D01*
X66368600Y-57388750D02*
X66368600Y-60488750D01*
X66368600Y-60488750D02*
X69968600Y-60488750D01*
X69968600Y-57388750D02*
X66368600Y-57388750D01*
X69968600Y-60488750D02*
X69968600Y-57388750D01*
X85368600Y-52388750D02*
X85368600Y-55488750D01*
X85368600Y-55488750D02*
X88968600Y-55488750D01*
X88968600Y-52388750D02*
X85368600Y-52388750D01*
X88968600Y-55488750D02*
X88968600Y-52388750D01*
X123368600Y-78888750D02*
X123368600Y-81988750D01*
X123368600Y-81988750D02*
X126968600Y-81988750D01*
X126968600Y-78888750D02*
X123368600Y-78888750D01*
X126968600Y-81988750D02*
X126968600Y-78888750D01*
X141375386Y-109031177D02*
X144770361Y-110228735D01*
X142406617Y-106107727D02*
X141375386Y-109031177D01*
X144770361Y-110228735D02*
X145801592Y-107305285D01*
X145801592Y-107305285D02*
X142406617Y-106107727D01*
X66368600Y-76388750D02*
X66368600Y-79488750D01*
X66368600Y-79488750D02*
X69968600Y-79488750D01*
X69968600Y-76388750D02*
X66368600Y-76388750D01*
X69968600Y-79488750D02*
X69968600Y-76388750D01*
X66368600Y-38388750D02*
X66368600Y-41488750D01*
X66368600Y-41488750D02*
X69968600Y-41488750D01*
X69968600Y-38388750D02*
X66368600Y-38388750D01*
X69968600Y-41488750D02*
X69968600Y-38388750D01*
X104368600Y-57388750D02*
X104368600Y-60488750D01*
X104368600Y-60488750D02*
X107968600Y-60488750D01*
X107968600Y-57388750D02*
X104368600Y-57388750D01*
X107968600Y-60488750D02*
X107968600Y-57388750D01*
X104368600Y-38388750D02*
X104368600Y-41488750D01*
X104368600Y-41488750D02*
X107968600Y-41488750D01*
X107968600Y-38388750D02*
X104368600Y-38388750D01*
X107968600Y-41488750D02*
X107968600Y-38388750D01*
X123368600Y-59888750D02*
X123368600Y-62988750D01*
X123368600Y-62988750D02*
X126968600Y-62988750D01*
X126968600Y-59888750D02*
X123368600Y-59888750D01*
X126968600Y-62988750D02*
X126968600Y-59888750D01*
X28368600Y-95888750D02*
X28368600Y-98988750D01*
X28368600Y-98988750D02*
X31968600Y-98988750D01*
X31968600Y-95888750D02*
X28368600Y-95888750D01*
X31968600Y-98988750D02*
X31968600Y-95888750D01*
X47368600Y-88888750D02*
X47368600Y-91988750D01*
X47368600Y-91988750D02*
X50968600Y-91988750D01*
X50968600Y-88888750D02*
X47368600Y-88888750D01*
X50968600Y-91988750D02*
X50968600Y-88888750D01*
X47368600Y-69888750D02*
X47368600Y-72988750D01*
X47368600Y-72988750D02*
X50968600Y-72988750D01*
X50968600Y-69888750D02*
X47368600Y-69888750D01*
X50968600Y-72988750D02*
X50968600Y-69888750D01*
X28368600Y-57888750D02*
X28368600Y-60988750D01*
X28368600Y-60988750D02*
X31968600Y-60988750D01*
X31968600Y-57888750D02*
X28368600Y-57888750D01*
X31968600Y-60988750D02*
X31968600Y-57888750D01*
X85368600Y-33388750D02*
X85368600Y-36488750D01*
X85368600Y-36488750D02*
X88968600Y-36488750D01*
X88968600Y-33388750D02*
X85368600Y-33388750D01*
X88968600Y-36488750D02*
X88968600Y-33388750D01*
M02*
