M48
; DRILL file {KiCad 8.0.1} date 2024-07-06T22:27:56+0200
; FORMAT={-:-/ absolute / metric / decimal}
; #@! TF.CreationDate,2024-07-06T22:27:56+02:00
; #@! TF.GenerationSoftware,Kicad,Pcbnew,8.0.1
; #@! TF.FileFunction,Plated,1,2,PTH
FMAT,2
METRIC
; #@! TA.AperFunction,Plated,PTH,ViaDrill
T1C0.300
; #@! TA.AperFunction,Plated,PTH,ComponentDrill
T2C0.300
; #@! TA.AperFunction,Plated,PTH,ViaDrill
T3C0.600
; #@! TA.AperFunction,Plated,PTH,ComponentDrill
T4C1.000
; #@! TA.AperFunction,Plated,PTH,ComponentDrill
T5C1.092
; #@! TA.AperFunction,Plated,PTH,ComponentDrill
T6C1.100
%
G90
G05
T1
X21.99Y-49.02
X21.99Y-54.1
X21.99Y-56.64
X21.99Y-61.72
X21.99Y-66.8
X21.99Y-76.96
X21.99Y-79.5
X21.99Y-97.28
X21.99Y-99.82
X24.53Y-56.64
X24.53Y-61.72
X24.53Y-64.26
X24.53Y-79.5
X24.53Y-82.04
X24.53Y-94.74
X24.53Y-99.82
X27.07Y-56.64
X27.07Y-61.72
X27.07Y-74.42
X27.07Y-82.04
X27.07Y-92.2
X27.07Y-94.74
X27.07Y-99.82
X27.6Y-65.8
X29.61Y-51.56
X29.61Y-64.26
X29.61Y-66.8
X29.61Y-82.04
X29.61Y-84.58
X29.61Y-89.66
X32.15Y-64.26
X32.15Y-82.04
X32.15Y-84.58
X32.15Y-94.74
X33.8Y-66.6
X34.69Y-56.64
X34.69Y-76.96
X34.69Y-84.58
X34.69Y-94.74
X34.69Y-99.82
X35.8Y-64.0
X36.0Y-96.6
X36.4Y-61.8
X37.2Y-80.8
X37.2Y-84.6
X37.23Y-46.48
X37.23Y-56.64
X37.23Y-74.42
X37.23Y-99.82
X38.8Y-79.2
X38.8Y-95.4
X39.0Y-59.0
X39.77Y-41.4
X39.77Y-43.94
X39.77Y-46.48
X39.77Y-49.02
X39.77Y-51.56
X39.77Y-54.1
X39.969Y-94.289
X40.969Y-57.689
X41.0Y-77.2
X42.31Y-49.02
X42.31Y-51.56
X42.31Y-56.64
X42.31Y-66.8
X42.31Y-69.34
X42.31Y-74.42
X42.31Y-87.12
X42.31Y-92.2
X44.85Y-54.1
X44.85Y-56.64
X44.85Y-69.34
X44.85Y-74.42
X44.85Y-76.96
X44.85Y-92.2
X47.39Y-56.64
X47.39Y-74.42
X47.39Y-76.96
X49.93Y-56.64
X49.93Y-74.42
X49.93Y-82.04
X51.969Y-94.289
X52.47Y-49.02
X52.47Y-66.8
X52.47Y-69.34
X52.47Y-74.42
X52.47Y-87.12
X53.4Y-92.6
X54.2Y-59.0
X54.2Y-77.6
X55.0Y-89.4
X55.01Y-69.34
X56.4Y-52.4
X57.0Y-62.0
X57.0Y-79.2
X57.0Y-87.4
X57.4Y-81.2
X57.55Y-41.4
X57.55Y-59.18
X58.0Y-66.0
X58.4Y-74.4
X58.8Y-45.6
X59.0Y-94.2
X59.4Y-72.6
X60.0Y-78.0
X60.09Y-28.7
X60.09Y-36.32
X60.2Y-82.2
X61.142Y-44.569
X61.8Y-75.6
X62.63Y-41.4
X62.63Y-43.94
X62.63Y-56.64
X62.63Y-61.72
X63.4Y-83.728
X63.6Y-85.4
X65.17Y-36.32
X65.17Y-43.94
X65.17Y-54.1
X65.17Y-56.64
X65.17Y-61.72
X65.17Y-74.42
X67.71Y-28.7
X67.71Y-31.24
X67.71Y-43.94
X67.71Y-49.02
X67.71Y-51.56
X67.71Y-61.72
X67.71Y-66.8
X67.71Y-69.34
X67.71Y-82.04
X70.25Y-43.94
X70.25Y-61.72
X70.969Y-83.689
X72.4Y-47.4
X72.4Y-66.4
X72.79Y-56.64
X72.79Y-79.5
X72.79Y-82.04
X75.33Y-36.32
X75.33Y-54.1
X75.33Y-56.64
X75.33Y-74.42
X75.33Y-79.5
X75.33Y-82.04
X75.4Y-61.8
X76.8Y-39.4
X77.0Y-60.2
X77.87Y-26.16
X77.87Y-28.7
X77.87Y-31.24
X77.87Y-33.78
X78.0Y-83.689
X79.569Y-37.889
X80.41Y-31.24
X80.41Y-49.02
X80.41Y-51.56
X80.41Y-56.64
X80.41Y-69.34
X80.41Y-74.42
X80.41Y-76.96
X80.41Y-79.5
X80.41Y-82.04
X82.95Y-51.56
X82.95Y-56.64
X82.95Y-74.42
X82.95Y-76.96
X82.95Y-79.5
X82.95Y-82.04
X85.49Y-46.48
X85.49Y-56.64
X85.49Y-76.96
X85.49Y-79.5
X85.49Y-82.04
X88.0Y-85.4
X88.03Y-46.48
X88.03Y-56.64
X88.03Y-76.96
X88.03Y-79.5
X88.03Y-82.04
X90.57Y-31.24
X90.57Y-49.02
X90.57Y-51.56
X90.57Y-56.64
X90.57Y-69.34
X90.57Y-76.96
X90.57Y-79.5
X90.57Y-82.04
X91.2Y-61.4
X92.6Y-37.8
X93.11Y-33.78
X93.11Y-51.56
X93.11Y-71.88
X93.11Y-76.96
X93.11Y-79.5
X93.11Y-82.04
X94.2Y-36.4
X94.8Y-58.4
X95.2Y-43.8
X95.65Y-23.62
X95.65Y-33.78
X95.65Y-49.02
X95.65Y-51.56
X95.65Y-69.34
X95.65Y-71.88
X95.65Y-82.04
X96.0Y-53.8
X96.0Y-57.0
X96.0Y-73.8
X96.675Y-55.537
X97.03Y-83.689
X97.2Y-60.6
X97.6Y-41.6
X97.769Y-45.766
X97.8Y-60.0
X98.19Y-28.7
X98.19Y-49.02
X98.19Y-54.1
X98.19Y-66.8
X98.19Y-74.42
X98.19Y-79.5
X98.19Y-82.04
X98.973Y-43.627
X100.73Y-61.72
X100.73Y-79.5
X100.73Y-82.04
X101.8Y-41.8
X103.27Y-36.32
X103.27Y-54.1
X103.27Y-56.64
X103.27Y-61.72
X103.27Y-74.42
X103.27Y-82.04
X105.81Y-28.7
X105.81Y-31.24
X105.81Y-49.02
X105.81Y-51.56
X105.81Y-61.72
X105.81Y-66.8
X105.81Y-69.34
X105.81Y-82.04
X108.35Y-61.72
X108.969Y-83.689
X110.89Y-56.64
X110.89Y-79.5
X110.89Y-82.04
X112.6Y-41.6
X113.43Y-54.1
X113.43Y-56.64
X113.43Y-74.42
X113.43Y-76.96
X113.43Y-79.5
X113.43Y-82.04
X113.6Y-39.8
X113.8Y-85.6
X114.4Y-48.4
X114.4Y-58.8
X114.4Y-67.4
X115.569Y-83.689
X115.97Y-28.7
X115.97Y-31.24
X115.97Y-33.78
X115.97Y-36.32
X115.97Y-38.86
X115.97Y-104.9
X116.4Y-64.2
X116.6Y-98.6
X116.773Y-46.28
X116.8Y-41.4
X116.968Y-42.62
X117.2Y-85.6
X118.51Y-38.86
X118.51Y-56.64
X118.51Y-59.18
X118.51Y-61.72
X118.51Y-76.96
X118.51Y-82.04
X118.51Y-87.12
X118.51Y-92.2
X118.51Y-97.28
X119.6Y-64.8
X121.05Y-59.18
X121.05Y-99.82
X121.2Y-44.0
X123.59Y-54.1
X125.0Y-85.6
X125.8Y-64.8
X126.13Y-54.1
X126.13Y-92.2
X126.13Y-94.74
X126.6Y-106.4
X127.8Y-65.2
X128.67Y-38.86
X128.67Y-56.64
X128.67Y-59.18
X128.67Y-76.96
X128.67Y-99.82
X129.0Y-82.4
X129.2Y-106.0
X130.2Y-68.2
X131.21Y-59.18
X131.21Y-61.72
X131.21Y-79.5
X131.21Y-82.04
X131.21Y-87.12
X131.21Y-89.66
X131.21Y-92.2
X131.21Y-102.36
X132.0Y-37.0
X132.6Y-47.0
X133.0Y-92.6
X133.75Y-28.7
X133.75Y-31.24
X133.75Y-56.64
X133.75Y-59.18
X133.75Y-69.34
X133.75Y-99.82
X133.75Y-102.36
X134.0Y-109.8
X134.6Y-85.2
X135.6Y-77.0
X135.6Y-82.0
X136.29Y-28.7
X136.29Y-31.24
X136.29Y-33.78
X136.29Y-36.32
X136.29Y-38.86
X136.29Y-64.26
X136.29Y-66.8
X136.29Y-69.34
X136.29Y-87.12
X136.29Y-97.28
X136.29Y-99.82
X136.29Y-102.36
X136.4Y-47.0
X137.25Y-73.8
X138.0Y-50.0
X138.0Y-55.6
X138.6Y-73.0
X138.83Y-64.26
X138.83Y-66.8
X138.83Y-76.96
X138.83Y-87.12
X138.83Y-92.2
X138.83Y-102.36
X139.6Y-84.6
X140.0Y-73.65
X141.37Y-36.32
X141.37Y-38.86
X141.37Y-41.4
X141.37Y-43.94
X141.37Y-46.48
X141.37Y-49.02
X141.37Y-51.56
X141.37Y-64.26
X141.37Y-87.12
X141.37Y-92.2
X141.4Y-67.2
X141.4Y-70.6
X141.4Y-73.0
X142.2Y-78.4
X142.4Y-53.2
X142.75Y-73.65
X143.0Y-76.8
X143.215Y-33.382
X143.4Y-51.0
X143.757Y-31.333
X143.91Y-28.7
X143.91Y-38.86
X143.91Y-41.4
X143.91Y-43.94
X143.91Y-46.48
X143.91Y-49.02
X143.91Y-84.58
X143.91Y-87.12
X143.91Y-92.2
X144.0Y-55.8
X144.6Y-63.2
X144.669Y-31.269
X144.8Y-53.2
X144.8Y-67.2
X144.8Y-111.2
X145.0Y-30.4
X145.0Y-75.6
X145.8Y-43.4
X145.8Y-46.0
X145.8Y-48.6
X146.0Y-34.4
X146.2Y-36.4
X146.2Y-59.6
X146.427Y-57.069
X146.45Y-82.04
X146.45Y-84.58
X146.45Y-87.12
X146.45Y-89.66
X146.45Y-92.2
X146.45Y-99.82
X147.0Y-55.2
X147.169Y-33.289
X147.169Y-35.289
X147.2Y-111.4
X147.4Y-62.0
X147.4Y-63.2
X147.6Y-77.6
X147.8Y-29.4
X148.0Y-38.6
X148.0Y-70.0
X148.125Y-61.125
X148.2Y-114.6
X148.391Y-55.206
X148.569Y-89.089
X148.735Y-60.335
X148.875Y-51.0
X148.99Y-82.04
X148.99Y-87.12
X148.99Y-92.2
X148.99Y-97.28
X148.99Y-107.44
X149.169Y-33.289
X149.169Y-35.289
X149.2Y-75.0
X149.4Y-53.2
X149.4Y-109.8
X149.8Y-72.2
X150.0Y-43.4
X150.0Y-46.0
X150.0Y-48.6
X150.0Y-51.0
X150.0Y-57.2
X150.0Y-67.2
X150.0Y-76.6
X150.2Y-55.2
X150.2Y-63.2
X150.287Y-60.323
X151.4Y-51.0
X151.4Y-53.2
X151.53Y-36.32
X151.53Y-38.86
X151.53Y-43.94
X151.53Y-46.48
X151.53Y-82.04
X151.53Y-84.58
X151.53Y-87.12
X151.53Y-92.2
X151.53Y-107.44
X151.6Y-60.2
X152.0Y-76.8
X152.215Y-95.985
X152.6Y-61.079
X152.769Y-97.489
X153.2Y-56.8
X153.2Y-99.0
X153.4Y-65.8
X153.8Y-42.6
X153.8Y-47.6
X153.8Y-62.0
X153.815Y-45.036
X153.824Y-52.642
X153.867Y-50.094
X154.07Y-79.5
X154.07Y-82.04
X154.07Y-87.12
X154.07Y-92.2
X154.07Y-94.74
X154.07Y-107.44
X154.07Y-109.98
X154.07Y-117.6
X154.369Y-89.089
X154.4Y-114.8
X156.6Y-75.4
X156.6Y-116.0
X156.61Y-28.7
X156.61Y-71.88
X156.61Y-79.5
X156.61Y-82.04
X156.61Y-84.58
X156.61Y-87.12
X156.61Y-92.2
X156.61Y-94.74
X156.61Y-97.28
X156.61Y-104.9
X156.61Y-109.98
X156.61Y-112.52
X156.8Y-61.175
X156.8Y-68.2
X159.15Y-112.52
X161.6Y-119.2
X161.69Y-99.82
X164.23Y-122.68
X166.77Y-117.6
X166.77Y-120.14
X166.77Y-122.68
X166.77Y-125.22
X169.31Y-117.6
X169.31Y-120.14
X169.6Y-107.0
X171.85Y-117.6
X174.39Y-107.44
X174.39Y-109.98
X174.39Y-112.52
T2
X23.719Y-50.889
X23.719Y-69.889
X23.719Y-88.889
X25.019Y-59.439
X25.019Y-78.439
X25.019Y-97.439
X25.894Y-59.439
X25.894Y-78.439
X25.894Y-97.439
X34.444Y-59.439
X34.444Y-78.439
X34.444Y-97.439
X35.319Y-59.439
X35.319Y-78.439
X35.319Y-97.439
X36.644Y-50.889
X36.644Y-69.889
X36.644Y-88.889
X42.719Y-43.889
X42.719Y-62.889
X42.719Y-81.889
X44.019Y-52.439
X44.019Y-71.439
X44.019Y-90.439
X44.894Y-52.439
X44.894Y-71.439
X44.894Y-90.439
X53.444Y-52.439
X53.444Y-71.439
X53.444Y-90.439
X54.319Y-52.439
X54.319Y-71.439
X54.319Y-90.439
X55.644Y-43.889
X55.644Y-62.889
X55.644Y-81.889
X61.719Y-31.389
X61.719Y-50.389
X61.719Y-69.389
X63.019Y-39.939
X63.019Y-58.939
X63.019Y-77.939
X63.894Y-39.939
X63.894Y-58.939
X63.894Y-77.939
X72.444Y-39.939
X72.444Y-58.939
X72.444Y-77.939
X73.319Y-39.939
X73.319Y-58.939
X73.319Y-77.939
X74.644Y-31.389
X74.644Y-50.389
X74.644Y-69.389
X80.719Y-26.389
X80.719Y-45.389
X80.719Y-64.389
X82.019Y-34.939
X82.019Y-53.939
X82.019Y-72.939
X82.894Y-34.939
X82.894Y-53.939
X82.894Y-72.939
X91.444Y-34.939
X91.444Y-53.939
X91.444Y-72.939
X92.319Y-34.939
X92.319Y-53.939
X92.319Y-72.939
X93.644Y-26.389
X93.644Y-45.389
X93.644Y-64.389
X99.719Y-31.389
X99.719Y-50.389
X99.719Y-69.389
X101.019Y-39.939
X101.019Y-58.939
X101.019Y-77.939
X101.894Y-39.939
X101.894Y-58.939
X101.894Y-77.939
X110.444Y-39.939
X110.444Y-58.939
X110.444Y-77.939
X111.319Y-39.939
X111.319Y-58.939
X111.319Y-77.939
X112.644Y-31.389
X112.644Y-50.389
X112.644Y-69.389
X118.719Y-33.889
X118.719Y-52.889
X118.719Y-71.889
X119.693Y-102.38
X119.872Y-93.733
X120.019Y-42.439
X120.019Y-61.439
X120.019Y-80.439
X120.555Y-102.529
X120.894Y-42.439
X120.894Y-61.439
X120.894Y-80.439
X128.98Y-103.989
X129.444Y-42.439
X129.444Y-61.439
X129.444Y-80.439
X129.842Y-104.138
X130.319Y-42.439
X130.319Y-61.439
X130.319Y-80.439
X131.644Y-33.889
X131.644Y-52.889
X131.644Y-71.889
X132.607Y-95.94
X138.732Y-106.455
X139.557Y-106.746
X140.35Y-97.96
X147.62Y-109.59
X148.445Y-109.881
X152.539Y-102.259
X156.831Y-113.653
X157.596Y-114.077
X159.843Y-105.546
X165.071Y-118.227
X165.837Y-118.651
X171.144Y-111.818
T3
X128.0Y-83.689
T5
X139.798Y-58.679
X139.799Y-28.199
X139.799Y-30.739
X139.799Y-33.279
X139.799Y-35.819
X139.799Y-38.359
X139.799Y-40.899
X139.799Y-43.439
X139.799Y-45.979
X139.799Y-48.519
X139.799Y-51.059
X139.799Y-53.599
X139.799Y-56.139
X142.339Y-56.139
X142.339Y-58.679
X143.589Y-65.709
X144.879Y-58.679
X146.129Y-65.709
X147.419Y-58.679
X148.669Y-65.709
X149.959Y-58.679
X151.209Y-65.709
X152.499Y-58.679
X155.039Y-28.199
X155.039Y-30.739
X155.039Y-33.279
X155.039Y-35.819
X155.039Y-38.359
X155.039Y-40.899
X155.039Y-43.439
X155.039Y-45.979
X155.039Y-48.519
X155.039Y-51.059
X155.039Y-53.599
X155.039Y-56.139
X155.039Y-58.679
T6
X21.6Y-58.8
T4
X146.119Y-71.189G85X145.619Y-71.189
G05
X146.119Y-79.589G85X145.619Y-79.589
G05
X147.619Y-75.389G85X147.119Y-75.389
G05
X151.619Y-75.389G85X151.119Y-75.389
G05
X154.619Y-75.389G85X154.119Y-75.389
G05
M30
