G04 #@! TF.GenerationSoftware,KiCad,Pcbnew,8.0.1*
G04 #@! TF.CreationDate,2024-04-22T22:15:04+02:00*
G04 #@! TF.ProjectId,cornia,636f726e-6961-42e6-9b69-6361645f7063,3.0.1*
G04 #@! TF.SameCoordinates,Original*
G04 #@! TF.FileFunction,Soldermask,Bot*
G04 #@! TF.FilePolarity,Negative*
%FSLAX46Y46*%
G04 Gerber Fmt 4.6, Leading zero omitted, Abs format (unit mm)*
G04 Created by KiCad (PCBNEW 8.0.1) date 2024-04-22 22:15:04*
%MOMM*%
%LPD*%
G01*
G04 APERTURE LIST*
G04 Aperture macros list*
%AMRoundRect*
0 Rectangle with rounded corners*
0 $1 Rounding radius*
0 $2 $3 $4 $5 $6 $7 $8 $9 X,Y pos of 4 corners*
0 Add a 4 corners polygon primitive as box body*
4,1,4,$2,$3,$4,$5,$6,$7,$8,$9,$2,$3,0*
0 Add four circle primitives for the rounded corners*
1,1,$1+$1,$2,$3*
1,1,$1+$1,$4,$5*
1,1,$1+$1,$6,$7*
1,1,$1+$1,$8,$9*
0 Add four rect primitives between the rounded corners*
20,1,$1+$1,$2,$3,$4,$5,0*
20,1,$1+$1,$4,$5,$6,$7,0*
20,1,$1+$1,$6,$7,$8,$9,0*
20,1,$1+$1,$8,$9,$2,$3,0*%
G04 Aperture macros list end*
%ADD10C,1.600000*%
%ADD11O,2.900000X2.100000*%
%ADD12C,1.800000*%
%ADD13C,2.400000*%
%ADD14C,4.700000*%
%ADD15C,2.600000*%
%ADD16C,1.924000*%
%ADD17C,0.900000*%
%ADD18RoundRect,0.326923X0.723077X-0.523077X0.723077X0.523077X-0.723077X0.523077X-0.723077X-0.523077X0*%
%ADD19RoundRect,0.200000X-0.850000X-0.412500X0.850000X-0.412500X0.850000X0.412500X-0.850000X0.412500X0*%
%ADD20RoundRect,0.200000X-0.943559X0.048508X0.545734X-0.771253X0.943559X-0.048508X-0.545734X0.771253X0*%
%ADD21C,2.300000*%
%ADD22C,3.400000*%
%ADD23C,4.500000*%
%ADD24RoundRect,0.200000X-1.275000X-1.250000X1.275000X-1.250000X1.275000X1.250000X-1.275000X1.250000X0*%
%ADD25RoundRect,0.200000X-1.469688X-1.013973X1.042874X-1.449323X1.469688X1.013973X-1.042874X1.449323X0*%
%ADD26RoundRect,0.200000X-1.616886X-0.757499X0.789365X-1.601571X1.616886X0.757499X-0.789365X1.601571X0*%
%ADD27RoundRect,0.200000X-1.719735X-0.480247X0.514204X-1.709889X1.719735X0.480247X-0.514204X1.709889X0*%
%ADD28RoundRect,0.200000X0.750000X0.450000X-0.750000X0.450000X-0.750000X-0.450000X0.750000X-0.450000X0*%
%ADD29RoundRect,0.200000X-0.767097X-0.551561X0.907945X-0.261327X0.767097X0.551561X-0.907945X0.261327X0*%
%ADD30RoundRect,0.200000X-0.665543X-0.670604X0.938625X-0.107889X0.665543X0.670604X-0.938625X0.107889X0*%
%ADD31RoundRect,0.200000X-0.514204X-1.709889X1.719735X-0.480247X0.514204X1.709889X-1.719735X0.480247X0*%
%ADD32RoundRect,0.200000X-1.042874X-1.449323X1.469688X-1.013973X1.042874X1.449323X-1.469688X1.013973X0*%
%ADD33RoundRect,0.200000X-0.789365X-1.601571X1.616886X-0.757499X0.789365X1.601571X-1.616886X0.757499X0*%
%ADD34RoundRect,0.200000X-0.907945X-0.261327X0.767097X-0.551561X0.907945X0.261327X-0.767097X0.551561X0*%
%ADD35RoundRect,0.200000X-0.938625X-0.107889X0.665543X-0.670604X0.938625X0.107889X-0.665543X0.670604X0*%
%ADD36RoundRect,0.200000X-0.545734X-0.771253X0.943559X0.048508X0.545734X0.771253X-0.943559X-0.048508X0*%
%ADD37RoundRect,0.337500X0.350000X0.337500X-0.350000X0.337500X-0.350000X-0.337500X0.350000X-0.337500X0*%
%ADD38RoundRect,0.337500X-0.350000X-0.337500X0.350000X-0.337500X0.350000X0.337500X-0.350000X0.337500X0*%
G04 APERTURE END LIST*
D10*
X176786500Y-117541500D03*
X169786500Y-117541500D03*
D11*
X166486500Y-115441500D03*
X174986500Y-119641500D03*
X171986500Y-119641500D03*
X167986500Y-119641500D03*
D12*
X165027500Y-110280000D03*
X167567500Y-110280000D03*
X170107500Y-110280000D03*
X172647500Y-110280000D03*
D13*
X176576500Y-113030500D03*
X176576500Y-106530500D03*
D10*
X231650500Y-117525000D03*
X238650500Y-117525000D03*
D11*
X241950500Y-119625000D03*
X233450500Y-115425000D03*
X236450500Y-115425000D03*
X240450500Y-115425000D03*
D12*
X235797500Y-110280000D03*
X238337500Y-110280000D03*
X240877500Y-110280000D03*
X243417500Y-110280000D03*
D13*
X231917500Y-113027000D03*
X231917500Y-106527000D03*
D14*
X175607500Y-67780000D03*
X88607500Y-129780000D03*
X169607500Y-127780000D03*
D15*
X162021500Y-117503500D03*
X176453500Y-126024500D03*
D14*
X239107500Y-127780000D03*
X320107500Y-130280000D03*
X346107500Y-81780000D03*
X233107500Y-67780000D03*
D16*
X176575900Y-75191500D03*
X176575900Y-77731500D03*
X176575900Y-80271500D03*
X176575900Y-82811500D03*
X176575900Y-85351500D03*
X176575900Y-87891500D03*
X176575900Y-90431500D03*
X176575900Y-92971500D03*
X176575900Y-95511500D03*
X176575900Y-98051500D03*
X176575900Y-100591500D03*
X176575900Y-103131500D03*
X161355900Y-103131500D03*
X161355900Y-100591500D03*
X161355900Y-98051500D03*
X161355900Y-95511500D03*
X161355900Y-92971500D03*
X161355900Y-90431500D03*
X161355900Y-87891500D03*
X161355900Y-85351500D03*
X161355900Y-82811500D03*
X161355900Y-80271500D03*
X161355900Y-77731500D03*
X161355900Y-75191500D03*
X247211900Y-75167000D03*
X247211900Y-77707000D03*
X247211900Y-80247000D03*
X247211900Y-82787000D03*
X247211900Y-85327000D03*
X247211900Y-87867000D03*
X247211900Y-90407000D03*
X247211900Y-92947000D03*
X247211900Y-95487000D03*
X247211900Y-98027000D03*
X247211900Y-100567000D03*
X247211900Y-103107000D03*
X231991900Y-103107000D03*
X231991900Y-100567000D03*
X231991900Y-98027000D03*
X231991900Y-95487000D03*
X231991900Y-92947000D03*
X231991900Y-90407000D03*
X231991900Y-87867000D03*
X231991900Y-85327000D03*
X231991900Y-82787000D03*
X231991900Y-80247000D03*
X231991900Y-77707000D03*
X231991900Y-75167000D03*
D14*
X62607500Y-81780000D03*
D17*
X56225395Y-145272895D03*
X57017062Y-145272895D03*
X57808728Y-145272895D03*
X58600395Y-145272895D03*
X59392062Y-145272895D03*
X60183728Y-145272895D03*
X60975395Y-145272895D03*
X112307500Y-53780000D03*
X113099167Y-53780000D03*
X113890833Y-53780000D03*
X114682500Y-53780000D03*
X115474167Y-53780000D03*
X116265833Y-53780000D03*
X117057500Y-53780000D03*
X291417062Y-53772895D03*
X292208729Y-53772895D03*
X293000395Y-53772895D03*
X293792062Y-53772895D03*
X294583729Y-53772895D03*
X295375395Y-53772895D03*
X296167062Y-53772895D03*
X347417062Y-145272895D03*
X348208729Y-145272895D03*
X349000395Y-145272895D03*
X349792062Y-145272895D03*
X350583729Y-145272895D03*
X351375395Y-145272895D03*
X352167062Y-145272895D03*
X352925395Y-145272895D03*
X353717062Y-145272895D03*
X354508728Y-145272895D03*
X355300395Y-145272895D03*
X356092062Y-145272895D03*
X356883728Y-145272895D03*
X357675395Y-145272895D03*
X296925395Y-53772895D03*
X297717062Y-53772895D03*
X298508728Y-53772895D03*
X299300395Y-53772895D03*
X300092062Y-53772895D03*
X300883728Y-53772895D03*
X301675395Y-53772895D03*
X106799167Y-53780000D03*
X107590834Y-53780000D03*
X108382500Y-53780000D03*
X109174167Y-53780000D03*
X109965834Y-53780000D03*
X110757500Y-53780000D03*
X111549167Y-53780000D03*
X50717062Y-145272895D03*
X51508729Y-145272895D03*
X52300395Y-145272895D03*
X53092062Y-145272895D03*
X53883729Y-145272895D03*
X54675395Y-145272895D03*
X55467062Y-145272895D03*
D18*
X63686500Y-95801375D03*
X63686500Y-92301375D03*
X82326500Y-88804500D03*
X82326500Y-85304500D03*
X100939500Y-76054500D03*
X100939500Y-72554500D03*
X119579500Y-71304500D03*
X119579500Y-67804500D03*
X138219500Y-76204500D03*
X138219500Y-72704500D03*
X156859500Y-78804500D03*
X156859500Y-75304500D03*
X63686500Y-114401375D03*
X63686500Y-110901375D03*
X82326500Y-107404500D03*
X82326500Y-103904500D03*
X100939500Y-94904500D03*
X100939500Y-91404500D03*
X119579500Y-89904500D03*
X119579500Y-86404500D03*
X138219500Y-94804500D03*
X138219500Y-91304500D03*
X156859500Y-97404500D03*
X156859500Y-93904500D03*
X63686500Y-133001375D03*
X63686500Y-129501375D03*
X82326500Y-126004500D03*
X82326500Y-122504500D03*
X100939500Y-113504500D03*
X100939500Y-110004500D03*
X119579500Y-108504500D03*
X119579500Y-105004500D03*
X138219500Y-113404500D03*
X138219500Y-109904500D03*
X156859500Y-116004500D03*
X156859500Y-112504500D03*
X143607500Y-143530000D03*
X143607500Y-140030000D03*
X176607500Y-151530000D03*
X176607500Y-148030000D03*
X179607500Y-151530000D03*
X179607500Y-148030000D03*
D19*
X58859500Y-99504500D03*
X58859500Y-98104500D03*
X53259500Y-98104500D03*
X53259500Y-99504500D03*
X77499500Y-92504500D03*
X77499500Y-91104500D03*
X71899500Y-91104500D03*
X71899500Y-92504500D03*
X96139500Y-80004500D03*
X96139500Y-78604500D03*
X90539500Y-78604500D03*
X90539500Y-80004500D03*
X114779500Y-75004500D03*
X114779500Y-73604500D03*
X109179500Y-73604500D03*
X109179500Y-75004500D03*
X133419500Y-79904500D03*
X133419500Y-78504500D03*
X127819500Y-78504500D03*
X127819500Y-79904500D03*
X152059500Y-82504500D03*
X152059500Y-81104500D03*
X146459500Y-81104500D03*
X146459500Y-82504500D03*
X58859500Y-118104500D03*
X58859500Y-116704500D03*
X53259500Y-116704500D03*
X53259500Y-118104500D03*
X77499500Y-111104500D03*
X77499500Y-109704500D03*
X71899500Y-109704500D03*
X71899500Y-111104500D03*
X96139500Y-98604500D03*
X96139500Y-97204500D03*
X90539500Y-97204500D03*
X90539500Y-98604500D03*
X114779500Y-93604500D03*
X114779500Y-92204500D03*
X109179500Y-92204500D03*
X109179500Y-93604500D03*
X133419500Y-98504500D03*
X133419500Y-97104500D03*
X127819500Y-97104500D03*
X127819500Y-98504500D03*
X152059500Y-101104500D03*
X152059500Y-99704500D03*
X146459500Y-99704500D03*
X146459500Y-101104500D03*
X58859500Y-136704500D03*
X58859500Y-135304500D03*
X53259500Y-135304500D03*
X53259500Y-136704500D03*
X77499500Y-129704500D03*
X77499500Y-128304500D03*
X71899500Y-128304500D03*
X71899500Y-129704500D03*
X96139500Y-117204500D03*
X96139500Y-115804500D03*
X90539500Y-115804500D03*
X90539500Y-117204500D03*
X114779500Y-112204500D03*
X114779500Y-110804500D03*
X109179500Y-110804500D03*
X109179500Y-112204500D03*
X152059500Y-119704500D03*
X152059500Y-118304500D03*
X146459500Y-118304500D03*
X146459500Y-119704500D03*
D20*
X188191660Y-156902682D03*
X188866758Y-155676205D03*
X183960854Y-152975816D03*
X183285756Y-154202293D03*
D21*
X79779500Y-87054500D03*
D22*
X77239500Y-81974500D03*
D23*
X74699500Y-87054500D03*
D22*
X70889500Y-84514500D03*
D21*
X69619500Y-87054500D03*
D24*
X67614500Y-84514500D03*
X80541500Y-81974500D03*
D21*
X98419500Y-74554500D03*
D22*
X95879500Y-69474500D03*
D23*
X93339500Y-74554500D03*
D22*
X89529500Y-72014500D03*
D21*
X88259500Y-74554500D03*
D24*
X86254500Y-72014500D03*
X99181500Y-69474500D03*
D21*
X117059500Y-69554500D03*
D22*
X114519500Y-64474500D03*
D23*
X111979500Y-69554500D03*
D22*
X108169500Y-67014500D03*
D21*
X106899500Y-69554500D03*
D24*
X104894500Y-67014500D03*
X117821500Y-64474500D03*
D21*
X135699500Y-74454500D03*
D22*
X133159500Y-69374500D03*
D23*
X130619500Y-74454500D03*
D22*
X126809500Y-71914500D03*
D21*
X125539500Y-74454500D03*
D24*
X123534500Y-71914500D03*
X136461500Y-69374500D03*
D21*
X61139500Y-112654500D03*
D22*
X58599500Y-107574500D03*
D23*
X56059500Y-112654500D03*
D22*
X52249500Y-110114500D03*
D21*
X50979500Y-112654500D03*
D24*
X48974500Y-110114500D03*
X61901500Y-107574500D03*
D21*
X79779500Y-105654500D03*
D22*
X77239500Y-100574500D03*
D23*
X74699500Y-105654500D03*
D22*
X70889500Y-103114500D03*
D21*
X69619500Y-105654500D03*
D24*
X67614500Y-103114500D03*
X80541500Y-100574500D03*
D21*
X98419500Y-93154500D03*
D22*
X95879500Y-88074500D03*
D23*
X93339500Y-93154500D03*
D22*
X89529500Y-90614500D03*
D21*
X88259500Y-93154500D03*
D24*
X86254500Y-90614500D03*
X99181500Y-88074500D03*
D21*
X117059500Y-88154500D03*
D22*
X114519500Y-83074500D03*
D23*
X111979500Y-88154500D03*
D22*
X108169500Y-85614500D03*
D21*
X106899500Y-88154500D03*
D24*
X104894500Y-85614500D03*
X117821500Y-83074500D03*
D21*
X135699500Y-93054500D03*
D22*
X133159500Y-87974500D03*
D23*
X130619500Y-93054500D03*
D22*
X126809500Y-90514500D03*
D21*
X125539500Y-93054500D03*
D24*
X123534500Y-90514500D03*
X136461500Y-87974500D03*
D21*
X154339500Y-95654500D03*
D22*
X151799500Y-90574500D03*
D23*
X149259500Y-95654500D03*
D22*
X145449500Y-93114500D03*
D21*
X144179500Y-95654500D03*
D24*
X142174500Y-93114500D03*
X155101500Y-90574500D03*
D21*
X61139500Y-131254500D03*
D22*
X58599500Y-126174500D03*
D23*
X56059500Y-131254500D03*
D22*
X52249500Y-128714500D03*
D21*
X50979500Y-131254500D03*
D24*
X48974500Y-128714500D03*
X61901500Y-126174500D03*
D21*
X79779500Y-124254500D03*
D22*
X77239500Y-119174500D03*
D23*
X74699500Y-124254500D03*
D22*
X70889500Y-121714500D03*
D21*
X69619500Y-124254500D03*
D24*
X67614500Y-121714500D03*
X80541500Y-119174500D03*
D21*
X98419500Y-111754500D03*
D22*
X95879500Y-106674500D03*
D23*
X93339500Y-111754500D03*
D22*
X89529500Y-109214500D03*
D21*
X88259500Y-111754500D03*
D24*
X86254500Y-109214500D03*
X99181500Y-106674500D03*
D21*
X117059500Y-106754500D03*
D22*
X114519500Y-101674500D03*
D23*
X111979500Y-106754500D03*
D22*
X108169500Y-104214500D03*
D21*
X106899500Y-106754500D03*
D24*
X104894500Y-104214500D03*
X117821500Y-101674500D03*
D21*
X135699500Y-111654500D03*
D22*
X133159500Y-106574500D03*
D23*
X130619500Y-111654500D03*
D22*
X126809500Y-109114500D03*
D21*
X125539500Y-111654500D03*
D24*
X123534500Y-109114500D03*
X136461500Y-106574500D03*
D21*
X154339500Y-114254500D03*
D22*
X151799500Y-109174500D03*
D23*
X149259500Y-114254500D03*
D22*
X145449500Y-111714500D03*
D21*
X144179500Y-114254500D03*
D24*
X142174500Y-111714500D03*
X155101500Y-109174500D03*
D21*
X156235298Y-138781285D03*
D22*
X154599874Y-133342224D03*
D23*
X151229879Y-137914000D03*
D22*
X147909458Y-134760827D03*
D21*
X146224460Y-137046715D03*
D25*
X144682539Y-134201701D03*
X157853396Y-133905959D03*
D21*
X175143508Y-144405523D03*
D22*
X174428217Y-138771133D03*
D23*
X170349879Y-142724000D03*
D22*
X167595419Y-139066043D03*
D21*
X165556250Y-141042477D03*
D26*
X164505038Y-137981990D03*
X177544076Y-139864123D03*
D21*
X192809856Y-153223639D03*
D22*
X193034317Y-147548464D03*
D23*
X188359500Y-150774000D03*
D22*
X186246553Y-146711593D03*
D21*
X183909144Y-148324361D03*
D27*
X183377475Y-145132347D03*
X195927048Y-149140729D03*
D28*
X77149500Y-75130000D03*
X77149500Y-78430000D03*
X72249500Y-78430000D03*
X72249500Y-75130000D03*
X114429500Y-57630000D03*
X114429500Y-60930000D03*
X109529500Y-60930000D03*
X109529500Y-57630000D03*
X151709500Y-65130000D03*
X151709500Y-68430000D03*
X146809500Y-68430000D03*
X146809500Y-65130000D03*
X114429500Y-114604500D03*
X114429500Y-117904500D03*
X109529500Y-117904500D03*
X109529500Y-114604500D03*
X151709500Y-122104500D03*
X151709500Y-125404500D03*
X146809500Y-125404500D03*
X146809500Y-122104500D03*
X336230500Y-75280000D03*
X336230500Y-78580000D03*
X331330500Y-78580000D03*
X331330500Y-75280000D03*
X298950500Y-57880000D03*
X298950500Y-61180000D03*
X294050500Y-61180000D03*
X294050500Y-57880000D03*
X261670500Y-65380000D03*
X261670500Y-68680000D03*
X256770500Y-68680000D03*
X256770500Y-65380000D03*
X336230500Y-132130000D03*
X336230500Y-135430000D03*
X331330500Y-135430000D03*
X331330500Y-132130000D03*
X298950500Y-114630000D03*
X298950500Y-117930000D03*
X294050500Y-117930000D03*
X294050500Y-114630000D03*
X261670500Y-122110000D03*
X261670500Y-125410000D03*
X256770500Y-125410000D03*
X256770500Y-122110000D03*
D19*
X299300500Y-93610000D03*
X299300500Y-92210000D03*
X293700500Y-92210000D03*
X293700500Y-93610000D03*
X280660500Y-98510000D03*
X280660500Y-97110000D03*
X275060500Y-97110000D03*
X275060500Y-98510000D03*
X262020500Y-101110000D03*
X262020500Y-99710000D03*
X256420500Y-99710000D03*
X256420500Y-101110000D03*
X355220500Y-136710000D03*
X355220500Y-135310000D03*
X349620500Y-135310000D03*
X349620500Y-136710000D03*
X336580500Y-129710000D03*
X336580500Y-128310000D03*
X330980500Y-128310000D03*
X330980500Y-129710000D03*
X317940500Y-117210000D03*
X317940500Y-115810000D03*
X312340500Y-115810000D03*
X312340500Y-117210000D03*
X299300500Y-112210000D03*
X299300500Y-110810000D03*
X293700500Y-110810000D03*
X293700500Y-112210000D03*
X280660500Y-117110000D03*
X280660500Y-115710000D03*
X275060500Y-115710000D03*
X275060500Y-117110000D03*
X262020500Y-119710000D03*
X262020500Y-118310000D03*
X256420500Y-118310000D03*
X256420500Y-119710000D03*
D29*
X260940199Y-142812132D03*
X260701183Y-141432686D03*
X255183399Y-142388748D03*
X255422415Y-143768194D03*
D30*
X242573045Y-146940861D03*
X242109633Y-145619782D03*
X236825317Y-147473429D03*
X237288729Y-148794508D03*
D21*
X224577356Y-148325611D03*
D22*
X219902539Y-145100074D03*
D23*
X220127000Y-150775250D03*
D22*
X215564413Y-150387301D03*
D21*
X215676644Y-153224889D03*
D31*
X212695336Y-151966547D03*
X222795270Y-143507809D03*
D18*
X341387500Y-88805000D03*
X341387500Y-85305000D03*
X322747500Y-76305000D03*
X322747500Y-72805000D03*
X304107500Y-71305000D03*
X304107500Y-67805000D03*
X266820500Y-78810000D03*
X266820500Y-75310000D03*
X360027500Y-114250000D03*
X360027500Y-110750000D03*
X341387500Y-107405000D03*
X341387500Y-103905000D03*
X322747500Y-94905000D03*
X322747500Y-91405000D03*
X304107500Y-89905000D03*
X304107500Y-86405000D03*
X285467500Y-94805000D03*
X285467500Y-91305000D03*
X266820500Y-97410000D03*
X266820500Y-93910000D03*
X360027500Y-133000000D03*
X360027500Y-129500000D03*
X341387500Y-126005000D03*
X341387500Y-122505000D03*
X322747500Y-113505000D03*
X322747500Y-110005000D03*
X304107500Y-108505000D03*
X304107500Y-105005000D03*
X285467500Y-113405000D03*
X285467500Y-109905000D03*
X266820500Y-116010000D03*
X266820500Y-112510000D03*
X265607500Y-141530000D03*
X265607500Y-138030000D03*
X247107500Y-144530000D03*
X247107500Y-141030000D03*
X229107500Y-151030000D03*
X229107500Y-147530000D03*
X360027500Y-95800000D03*
X360027500Y-92300000D03*
D21*
X301587500Y-106755000D03*
D22*
X299047500Y-101675000D03*
D23*
X296507500Y-106755000D03*
D22*
X292697500Y-104215000D03*
D21*
X291427500Y-106755000D03*
D24*
X289422500Y-104215000D03*
X302349500Y-101675000D03*
D21*
X282947500Y-111655000D03*
D22*
X280407500Y-106575000D03*
D23*
X277867500Y-111655000D03*
D22*
X274057500Y-109115000D03*
D21*
X272787500Y-111655000D03*
D24*
X270782500Y-109115000D03*
X283709500Y-106575000D03*
D21*
X264307500Y-114255000D03*
D22*
X261767500Y-109175000D03*
D23*
X259227500Y-114255000D03*
D22*
X255417500Y-111715000D03*
D21*
X254147500Y-114255000D03*
D24*
X252142500Y-111715000D03*
X265069500Y-109175000D03*
D21*
X262262316Y-137046770D03*
D22*
X258892321Y-132474994D03*
D23*
X257256897Y-137914055D03*
D22*
X253069190Y-136061810D03*
D21*
X252251478Y-138781340D03*
D32*
X249842272Y-136620935D03*
X262145843Y-131911258D03*
D21*
X242930519Y-141043389D03*
D22*
X238852181Y-137090521D03*
D23*
X238136890Y-142724912D03*
D22*
X233700907Y-141589240D03*
D21*
X233343261Y-144406435D03*
D33*
X230610526Y-142673293D03*
X241968040Y-135997531D03*
D21*
X301587500Y-69555000D03*
D22*
X299047500Y-64475000D03*
D23*
X296507500Y-69555000D03*
D22*
X292697500Y-67015000D03*
D21*
X291427500Y-69555000D03*
D24*
X289422500Y-67015000D03*
X302349500Y-64475000D03*
D21*
X282947500Y-74455000D03*
D22*
X280407500Y-69375000D03*
D23*
X277867500Y-74455000D03*
D22*
X274057500Y-71915000D03*
D21*
X272787500Y-74455000D03*
D24*
X270782500Y-71915000D03*
X283709500Y-69375000D03*
D21*
X357507500Y-112655000D03*
D22*
X354967500Y-107575000D03*
D23*
X352427500Y-112655000D03*
D22*
X348617500Y-110115000D03*
D21*
X347347500Y-112655000D03*
D24*
X345342500Y-110115000D03*
X358269500Y-107575000D03*
D21*
X320227500Y-74555000D03*
D22*
X317687500Y-69475000D03*
D23*
X315147500Y-74555000D03*
D22*
X311337500Y-72015000D03*
D21*
X310067500Y-74555000D03*
D24*
X308062500Y-72015000D03*
X320989500Y-69475000D03*
D21*
X338867500Y-105655000D03*
D22*
X336327500Y-100575000D03*
D23*
X333787500Y-105655000D03*
D22*
X329977500Y-103115000D03*
D21*
X328707500Y-105655000D03*
D24*
X326702500Y-103115000D03*
X339629500Y-100575000D03*
D21*
X338867500Y-124255000D03*
D22*
X336327500Y-119175000D03*
D23*
X333787500Y-124255000D03*
D22*
X329977500Y-121715000D03*
D21*
X328707500Y-124255000D03*
D24*
X326702500Y-121715000D03*
X339629500Y-119175000D03*
D21*
X320227500Y-111755000D03*
D22*
X317687500Y-106675000D03*
D23*
X315147500Y-111755000D03*
D22*
X311337500Y-109215000D03*
D21*
X310067500Y-111755000D03*
D24*
X308062500Y-109215000D03*
X320989500Y-106675000D03*
D21*
X357507500Y-94055000D03*
D22*
X354967500Y-88975000D03*
D23*
X352427500Y-94055000D03*
D22*
X348617500Y-91515000D03*
D21*
X347347500Y-94055000D03*
D24*
X345342500Y-91515000D03*
X358269500Y-88975000D03*
D21*
X338867500Y-87055000D03*
D22*
X336327500Y-81975000D03*
D23*
X333787500Y-87055000D03*
D22*
X329977500Y-84515000D03*
D21*
X328707500Y-87055000D03*
D24*
X326702500Y-84515000D03*
X339629500Y-81975000D03*
D21*
X320227500Y-93155000D03*
D22*
X317687500Y-88075000D03*
D23*
X315147500Y-93155000D03*
D22*
X311337500Y-90615000D03*
D21*
X310067500Y-93155000D03*
D24*
X308062500Y-90615000D03*
X320989500Y-88075000D03*
D21*
X301587500Y-88155000D03*
D22*
X299047500Y-83075000D03*
D23*
X296507500Y-88155000D03*
D22*
X292697500Y-85615000D03*
D21*
X291427500Y-88155000D03*
D24*
X289422500Y-85615000D03*
X302349500Y-83075000D03*
D21*
X282947500Y-93055000D03*
D22*
X280407500Y-87975000D03*
D23*
X277867500Y-93055000D03*
D22*
X274057500Y-90515000D03*
D21*
X272787500Y-93055000D03*
D24*
X270782500Y-90515000D03*
X283709500Y-87975000D03*
D21*
X264307500Y-95655000D03*
D22*
X261767500Y-90575000D03*
D23*
X259227500Y-95655000D03*
D22*
X255417500Y-93115000D03*
D21*
X254147500Y-95655000D03*
D24*
X252142500Y-93115000D03*
X265069500Y-90575000D03*
D21*
X357507500Y-131255000D03*
D22*
X354967500Y-126175000D03*
D23*
X352427500Y-131255000D03*
D22*
X348617500Y-128715000D03*
D21*
X347347500Y-131255000D03*
D24*
X345342500Y-128715000D03*
X358269500Y-126175000D03*
D18*
X285467500Y-76205000D03*
X285467500Y-72705000D03*
D21*
X61139500Y-94054500D03*
D22*
X58599500Y-88974500D03*
D23*
X56059500Y-94054500D03*
D22*
X52249500Y-91514500D03*
D21*
X50979500Y-94054500D03*
D24*
X48974500Y-91514500D03*
X61901500Y-88974500D03*
D34*
X153058317Y-143762018D03*
X153297333Y-142382572D03*
X147779549Y-141426510D03*
X147540533Y-142805956D03*
D35*
X171198041Y-148793595D03*
X171661453Y-147472516D03*
X166377137Y-145618869D03*
X165913725Y-146939948D03*
D28*
X77149500Y-132130000D03*
X77149500Y-135430000D03*
X72249500Y-135430000D03*
X72249500Y-132130000D03*
D19*
X133419500Y-117104500D03*
X133419500Y-115704500D03*
X127819500Y-115704500D03*
X127819500Y-117104500D03*
X355220500Y-99510000D03*
X355220500Y-98110000D03*
X349620500Y-98110000D03*
X349620500Y-99510000D03*
X336580500Y-92510000D03*
X336580500Y-91110000D03*
X330980500Y-91110000D03*
X330980500Y-92510000D03*
X317940500Y-80010000D03*
X317940500Y-78610000D03*
X312340500Y-78610000D03*
X312340500Y-80010000D03*
X299300500Y-75010000D03*
X299300500Y-73610000D03*
X293700500Y-73610000D03*
X293700500Y-75010000D03*
X280660500Y-79910000D03*
X280660500Y-78510000D03*
X275060500Y-78510000D03*
X275060500Y-79910000D03*
X262020500Y-82510000D03*
X262020500Y-81110000D03*
X256420500Y-81110000D03*
X256420500Y-82510000D03*
X355220500Y-118110000D03*
X355220500Y-116710000D03*
X349620500Y-116710000D03*
X349620500Y-118110000D03*
X336580500Y-111110000D03*
X336580500Y-109710000D03*
X330980500Y-109710000D03*
X330980500Y-111110000D03*
X317940500Y-98610000D03*
X317940500Y-97210000D03*
X312340500Y-97210000D03*
X312340500Y-98610000D03*
D15*
X232031500Y-126040000D03*
X246463500Y-117519000D03*
D21*
X154339500Y-77054500D03*
D22*
X151799500Y-71974500D03*
D23*
X149259500Y-77054500D03*
D22*
X145449500Y-74514500D03*
D21*
X144179500Y-77054500D03*
D24*
X142174500Y-74514500D03*
X155101500Y-71974500D03*
D21*
X264300500Y-77060000D03*
D22*
X261760500Y-71980000D03*
D23*
X259220500Y-77060000D03*
D22*
X255410500Y-74520000D03*
D21*
X254140500Y-77060000D03*
D24*
X252135500Y-74520000D03*
X265062500Y-71980000D03*
D36*
X225200744Y-154203543D03*
X224525646Y-152977066D03*
X219619742Y-155677455D03*
X220294840Y-156903932D03*
D37*
X160607500Y-126780000D03*
X158782500Y-126780000D03*
D38*
X250695000Y-125780000D03*
X252520000Y-125780000D03*
M02*
