%TF.GenerationSoftware,KiCad,Pcbnew,8.0.1*%
%TF.CreationDate,2024-05-18T22:20:29+02:00*%
%TF.ProjectId,cornia,636f726e-6961-42e6-9b69-6361645f7063,3.0.1*%
%TF.SameCoordinates,Original*%
%TF.FileFunction,Drillmap*%
%TF.FilePolarity,Positive*%
%FSLAX45Y45*%
G04 Gerber Fmt 4.5, Leading zero omitted, Abs format (unit mm)*
G04 Created by KiCad (PCBNEW 8.0.1) date 2024-05-18 22:20:29*
%MOMM*%
%LPD*%
G01*
G04 APERTURE LIST*
%ADD10C,0.200000*%
%ADD11C,0.100000*%
%ADD12C,0.120000*%
%ADD13C,0.190000*%
%ADD14C,0.220000*%
%ADD15C,0.300000*%
%ADD16C,0.410000*%
G04 APERTURE END LIST*
D10*
X27124575Y-14507155D02*
G75*
G02*
X26853303Y-14857393I-295595J-51225D01*
G01*
X33800750Y-13828000D02*
X32801014Y-13828000D01*
X36300750Y-5278000D02*
X30310750Y-5278000D01*
X29002539Y-5277290D02*
X11848960Y-5278711D01*
X14008198Y-14857391D02*
G75*
G02*
X13736927Y-14507155I24322J299011D01*
G01*
X36300750Y-14628000D02*
G75*
G02*
X36500750Y-14828000I0J-200000D01*
G01*
X34202171Y-14628000D02*
X34602540Y-14627289D01*
X6860750Y-16606578D02*
X6859329Y-14828000D01*
X13779241Y-12906417D02*
G75*
G02*
X13966784Y-13180753I-44441J-231653D01*
G01*
X4360750Y-8128000D02*
X4360750Y-14228000D01*
X10540750Y-5478000D02*
X10468486Y-5478000D01*
X17860750Y-7253000D02*
X16185750Y-7253000D01*
X4360750Y-4978000D02*
X4360750Y-5078000D01*
X4932540Y-14427289D02*
G75*
G02*
X5032541Y-14527289I1J-100001D01*
G01*
X36300750Y-7928000D02*
G75*
G02*
X36500750Y-8128000I10J-199990D01*
G01*
X6224750Y-7728000D02*
G75*
G02*
X6024750Y-7928000I-200000J0D01*
G01*
X34636750Y-7428000D02*
X34636750Y-7728000D01*
X30534435Y-5536578D02*
X30917278Y-5919421D01*
X35910750Y-14628000D02*
X36300750Y-14628000D01*
X6860750Y-14228000D02*
X6860750Y-14028000D01*
X32972750Y-7228000D02*
G75*
G02*
X32772750Y-7028000I0J200000D01*
G01*
X6024750Y-7928000D02*
X4560750Y-7928000D01*
X30310750Y-5478000D02*
G75*
G02*
X30210750Y-5378000I0J100000D01*
G01*
X8088750Y-6178000D02*
X8088750Y-7028000D01*
X29002539Y-5477289D02*
X28924486Y-5478000D01*
X12451278Y-5909421D02*
X12078436Y-5536579D01*
X24875750Y-6428000D02*
X24875750Y-7053000D01*
X6224750Y-7428000D02*
X6224750Y-7728000D01*
X13785907Y-5968000D02*
G75*
G02*
X13927330Y-6026577I3J-200000D01*
G01*
X34002172Y-14828000D02*
X34000750Y-16606578D01*
X34602540Y-14428000D02*
G75*
G02*
X34701830Y-14527289I1J-99290D01*
G01*
X13779241Y-12906417D02*
X13563963Y-12877327D01*
X13352747Y-12851652D01*
X13145445Y-12829420D01*
X12941910Y-12810657D01*
X12741995Y-12795389D01*
X12545550Y-12783643D01*
X12352430Y-12775446D01*
X12162485Y-12770824D01*
X11975568Y-12769804D01*
X11791532Y-12772411D01*
X11610229Y-12778674D01*
X11431510Y-12788618D01*
X11255229Y-12802269D01*
X11081238Y-12819656D01*
X10909389Y-12840803D01*
X10739533Y-12865738D01*
X10571525Y-12894487D01*
X10405215Y-12927077D01*
X10240456Y-12963534D01*
X10077100Y-13003885D01*
X9915000Y-13048157D01*
X9754008Y-13096375D01*
X9593976Y-13148567D01*
X9434757Y-13204759D01*
X9276202Y-13264978D01*
X9118165Y-13329250D01*
X8960496Y-13397602D01*
X8803050Y-13470060D01*
X8645677Y-13546652D01*
X8488231Y-13627402D01*
X8330563Y-13712339D01*
X8172525Y-13801489D01*
X7888750Y-7228000D02*
X6424750Y-7228000D01*
X31058699Y-5978000D02*
G75*
G02*
X30917276Y-5919423I1J200010D01*
G01*
X25075750Y-6228000D02*
X26649907Y-6228000D01*
X34000750Y-16606578D02*
G75*
G02*
X33790833Y-16807759I-200000J-1422D01*
G01*
X34602540Y-14428000D02*
X34200750Y-14428000D01*
X36500750Y-8128000D02*
X36500750Y-14228000D01*
X14008198Y-14857391D02*
G75*
G02*
X18959778Y-16539482I-869358J-10688178D01*
G01*
X36300750Y-4778000D02*
X4560750Y-4778000D01*
X6860750Y-14028000D02*
G75*
G02*
X7060750Y-13828000I200000J0D01*
G01*
X4560750Y-14428000D02*
G75*
G02*
X4360750Y-14228000I0J200000D01*
G01*
X8172525Y-13801489D02*
G75*
G02*
X8060486Y-13827998I-112036J223489D01*
G01*
X5032539Y-14527289D02*
G75*
G02*
X4932540Y-14627289I-99999J-1D01*
G01*
X11937014Y-5478000D02*
G75*
G02*
X12078434Y-5536581I-4J-200000D01*
G01*
X10540750Y-5278000D02*
G75*
G02*
X10640750Y-5378000I0J-100000D01*
G01*
X36300750Y-17308000D02*
X4560750Y-17308000D01*
X4360750Y-8128000D02*
G75*
G02*
X4560750Y-7928000I200000J0D01*
G01*
X4360750Y-14828000D02*
X4360750Y-17108000D01*
X15785750Y-6228000D02*
X14211593Y-6228000D01*
X21333847Y-16395839D02*
X20579086Y-15019151D01*
X6659329Y-14628000D02*
G75*
G02*
X6859330Y-14828000I1J-200000D01*
G01*
X26791329Y-6169421D02*
G75*
G02*
X26649907Y-6227998I-141419J141421D01*
G01*
X30393014Y-5478000D02*
G75*
G02*
X30534432Y-5536581I-14J-200020D01*
G01*
X36500750Y-14228000D02*
G75*
G02*
X36300750Y-14428000I-200000J0D01*
G01*
X14211593Y-6228000D02*
G75*
G02*
X14070170Y-6169423I-3J200000D01*
G01*
X19527653Y-16395839D02*
X20282414Y-15019151D01*
X6224750Y-7428000D02*
G75*
G02*
X6424750Y-7228000I200000J0D01*
G01*
X26934170Y-6026577D02*
G75*
G02*
X27075593Y-5968000I141420J-141423D01*
G01*
X4560750Y-17308000D02*
G75*
G02*
X4360750Y-17108000I0J200000D01*
G01*
X7060750Y-13828000D02*
X8060486Y-13828000D01*
X14070171Y-6169421D02*
X13927329Y-6026579D01*
X21901723Y-16539484D02*
G75*
G02*
X26853303Y-14857394I5820937J-9006086D01*
G01*
X17860750Y-7253000D02*
G75*
G02*
X18060750Y-7453000I0J-200000D01*
G01*
X12592699Y-5968000D02*
G75*
G02*
X12451278Y-5909421I1J200000D01*
G01*
X15785750Y-6228000D02*
G75*
G02*
X15985750Y-6428000I0J-200000D01*
G01*
X4560750Y-14428000D02*
X4932540Y-14427289D01*
X22303570Y-13535871D02*
X20753202Y-14354357D01*
X9802801Y-5978000D02*
X8288750Y-5978000D01*
X36500750Y-5078000D02*
X36500750Y-4978000D01*
X34200750Y-14428000D02*
G75*
G02*
X34000750Y-14228000I0J200000D01*
G01*
X11937014Y-5478000D02*
X11848961Y-5478710D01*
X29002539Y-5277290D02*
G75*
G02*
X29102540Y-5377289I1J-100001D01*
G01*
X33800750Y-13828000D02*
G75*
G02*
X34000750Y-14028000I0J-200000D01*
G01*
X34000750Y-14228000D02*
X34000750Y-14028000D01*
X22800750Y-7453000D02*
G75*
G02*
X23000750Y-7253000I200000J0D01*
G01*
X20579086Y-15019151D02*
G75*
G02*
X20753200Y-14354354I438434J240371D01*
G01*
X31058699Y-5978000D02*
X32572750Y-5978000D01*
X34836750Y-7928000D02*
X36300750Y-7928000D01*
X30393014Y-5478000D02*
X30310750Y-5478000D01*
X6860750Y-14228000D02*
G75*
G02*
X6660750Y-14428000I-200000J0D01*
G01*
X29102539Y-5377289D02*
G75*
G02*
X29002539Y-5477289I-99999J-1D01*
G01*
X4360750Y-14828000D02*
G75*
G02*
X4560750Y-14628000I200000J0D01*
G01*
X24675750Y-7253000D02*
X23000750Y-7253000D01*
X8088750Y-7028000D02*
G75*
G02*
X7888750Y-7228000I-200000J0D01*
G01*
X20108298Y-14354357D02*
G75*
G02*
X20282410Y-15019149I-264318J-424423D01*
G01*
X4560750Y-5278000D02*
G75*
G02*
X4360750Y-5078000I0J200000D01*
G01*
X10640750Y-5378000D02*
G75*
G02*
X10540750Y-5478000I-100000J0D01*
G01*
X26894722Y-13180751D02*
G75*
G02*
X27082258Y-12906411I231978J42692D01*
G01*
X32772750Y-6178000D02*
X32772750Y-7028000D01*
X24875750Y-7053000D02*
G75*
G02*
X24675750Y-7253000I-200000J0D01*
G01*
X7070667Y-16807759D02*
G75*
G02*
X6860750Y-16606578I-9917J199759D01*
G01*
X18557930Y-13535872D02*
G75*
G02*
X18060750Y-12878000I252820J707872D01*
G01*
X28410222Y-5909421D02*
X28783064Y-5536579D01*
X28783064Y-5536579D02*
G75*
G02*
X28924486Y-5478002I141406J-141391D01*
G01*
X36500750Y-17108000D02*
G75*
G02*
X36300750Y-17308000I-200000J0D01*
G01*
X6240750Y-14628000D02*
G75*
G02*
X6140750Y-14528000I0J100000D01*
G01*
X32972750Y-7228000D02*
X34436750Y-7228000D01*
X18557930Y-13535872D02*
X20108298Y-14354357D01*
X27075593Y-5968000D02*
X28268800Y-5968000D01*
X36500750Y-17108000D02*
X36500750Y-14828000D01*
X36500750Y-5078000D02*
G75*
G02*
X36300750Y-5278000I-200000J0D01*
G01*
X19527653Y-16395839D02*
G75*
G02*
X18959781Y-16539478I-350743J192299D01*
G01*
X11748961Y-5378711D02*
G75*
G02*
X11848960Y-5278711I99999J1D01*
G01*
X34436750Y-7228000D02*
G75*
G02*
X34636750Y-7428000I0J-200000D01*
G01*
X21901722Y-16539483D02*
G75*
G02*
X21333842Y-16395841I-217132J335943D01*
G01*
X28410222Y-5909421D02*
G75*
G02*
X28268800Y-5967996I-141412J141411D01*
G01*
X15985750Y-7053000D02*
X15985750Y-6428000D01*
X18060750Y-12878000D02*
X18060750Y-7453000D01*
X22800750Y-12878000D02*
G75*
G02*
X22303570Y-13535871I-750000J50000D01*
G01*
X10327065Y-5536579D02*
X9944222Y-5919421D01*
X35910750Y-14628000D02*
G75*
G02*
X35810750Y-14528000I0J100000D01*
G01*
X9944221Y-5919421D02*
G75*
G02*
X9802801Y-5978000I-141421J141421D01*
G01*
X10327065Y-5536579D02*
G75*
G02*
X10468486Y-5477997I141425J-141421D01*
G01*
X32572750Y-5978000D02*
G75*
G02*
X32772750Y-6178000I0J-200000D01*
G01*
X6240750Y-14428000D02*
X6660750Y-14428000D01*
X11848961Y-5478710D02*
G75*
G02*
X11748960Y-5378711I-1J100000D01*
G01*
X8088750Y-6178000D02*
G75*
G02*
X8288750Y-5978000I200000J0D01*
G01*
X24875750Y-6428000D02*
G75*
G02*
X25075750Y-6228000I200000J0D01*
G01*
X34836750Y-7928000D02*
G75*
G02*
X34636750Y-7728000I0J200000D01*
G01*
X4360750Y-4978000D02*
G75*
G02*
X4560750Y-4778000I200000J0D01*
G01*
X16185750Y-7253000D02*
G75*
G02*
X15985750Y-7053000I0J200000D01*
G01*
X36300750Y-4778000D02*
G75*
G02*
X36500750Y-4978000I0J-200000D01*
G01*
X4560750Y-14628000D02*
X4932540Y-14627289D01*
X34702539Y-14527289D02*
G75*
G02*
X34602540Y-14627289I-99999J-1D01*
G01*
X13966778Y-13180752D02*
X13736924Y-14507155D01*
X35910750Y-14428000D02*
X36300750Y-14428000D01*
X26791329Y-6169421D02*
X26934170Y-6026577D01*
X26894722Y-13180751D02*
X27124576Y-14507155D01*
X6140750Y-14528000D02*
G75*
G02*
X6240750Y-14428000I100000J0D01*
G01*
X10540750Y-5278000D02*
X4560750Y-5278000D01*
X6240750Y-14628000D02*
X6659329Y-14628000D01*
X32801014Y-13828000D02*
G75*
G02*
X32688973Y-13801490I-14J249960D01*
G01*
X13785907Y-5968000D02*
X12592699Y-5968000D01*
X33790833Y-16807759D02*
X7070750Y-16808000D01*
X27082259Y-12906417D02*
X27297537Y-12877327D01*
X27508753Y-12851652D01*
X27716054Y-12829420D01*
X27919589Y-12810657D01*
X28119505Y-12795389D01*
X28315949Y-12783643D01*
X28509070Y-12775446D01*
X28699015Y-12770824D01*
X28885932Y-12769803D01*
X29069968Y-12772411D01*
X29251271Y-12778674D01*
X29429989Y-12788618D01*
X29606270Y-12802269D01*
X29780262Y-12819656D01*
X29952111Y-12840803D01*
X30121966Y-12865738D01*
X30289975Y-12894487D01*
X30456285Y-12927077D01*
X30621044Y-12963534D01*
X30784400Y-13003885D01*
X30946500Y-13048157D01*
X31107492Y-13096375D01*
X31267524Y-13148567D01*
X31426743Y-13204759D01*
X31585298Y-13264978D01*
X31743335Y-13329250D01*
X31901003Y-13397602D01*
X32058450Y-13470060D01*
X32215823Y-13546652D01*
X32373269Y-13627402D01*
X32530937Y-13712339D01*
X32688974Y-13801488D01*
X35810750Y-14528000D02*
G75*
G02*
X35910750Y-14428000I100000J0D01*
G01*
X34002172Y-14828000D02*
G75*
G02*
X34202171Y-14628001I199999J0D01*
G01*
X30210750Y-5378000D02*
G75*
G02*
X30310750Y-5278000I100000J0D01*
G01*
X22800750Y-12878000D02*
X22800750Y-7453000D01*
D11*
X5425950Y-9725450D02*
X5425950Y-10035450D01*
X5425950Y-10035450D02*
X5785950Y-10035450D01*
X5785950Y-9725450D02*
X5425950Y-9725450D01*
X5785950Y-10035450D02*
X5785950Y-9725450D01*
X7289950Y-9025450D02*
X7289950Y-9335450D01*
X7289950Y-9335450D02*
X7649950Y-9335450D01*
X7649950Y-9025450D02*
X7289950Y-9025450D01*
X7649950Y-9335450D02*
X7649950Y-9025450D01*
X9153950Y-7775450D02*
X9153950Y-8085450D01*
X9153950Y-8085450D02*
X9513950Y-8085450D01*
X9513950Y-7775450D02*
X9153950Y-7775450D01*
X9513950Y-8085450D02*
X9513950Y-7775450D01*
X11017950Y-7275450D02*
X11017950Y-7585450D01*
X11017950Y-7585450D02*
X11377950Y-7585450D01*
X11377950Y-7275450D02*
X11017950Y-7275450D01*
X11377950Y-7585450D02*
X11377950Y-7275450D01*
X12881950Y-7765450D02*
X12881950Y-8075450D01*
X12881950Y-8075450D02*
X13241950Y-8075450D01*
X13241950Y-7765450D02*
X12881950Y-7765450D01*
X13241950Y-8075450D02*
X13241950Y-7765450D01*
X14745950Y-8025450D02*
X14745950Y-8335450D01*
X14745950Y-8335450D02*
X15105950Y-8335450D01*
X15105950Y-8025450D02*
X14745950Y-8025450D01*
X15105950Y-8335450D02*
X15105950Y-8025450D01*
X5425950Y-11585450D02*
X5425950Y-11895450D01*
X5425950Y-11895450D02*
X5785950Y-11895450D01*
X5785950Y-11585450D02*
X5425950Y-11585450D01*
X5785950Y-11895450D02*
X5785950Y-11585450D01*
X7289950Y-10885450D02*
X7289950Y-11195450D01*
X7289950Y-11195450D02*
X7649950Y-11195450D01*
X7649950Y-10885450D02*
X7289950Y-10885450D01*
X7649950Y-11195450D02*
X7649950Y-10885450D01*
X9153950Y-9635450D02*
X9153950Y-9945450D01*
X9153950Y-9945450D02*
X9513950Y-9945450D01*
X9513950Y-9635450D02*
X9153950Y-9635450D01*
X9513950Y-9945450D02*
X9513950Y-9635450D01*
X11017950Y-9135450D02*
X11017950Y-9445450D01*
X11017950Y-9445450D02*
X11377950Y-9445450D01*
X11377950Y-9135450D02*
X11017950Y-9135450D01*
X11377950Y-9445450D02*
X11377950Y-9135450D01*
X12881950Y-9625450D02*
X12881950Y-9935450D01*
X12881950Y-9935450D02*
X13241950Y-9935450D01*
X13241950Y-9625450D02*
X12881950Y-9625450D01*
X13241950Y-9935450D02*
X13241950Y-9625450D01*
X14745950Y-9885450D02*
X14745950Y-10195450D01*
X14745950Y-10195450D02*
X15105950Y-10195450D01*
X15105950Y-9885450D02*
X14745950Y-9885450D01*
X15105950Y-10195450D02*
X15105950Y-9885450D01*
X5425950Y-13445450D02*
X5425950Y-13755450D01*
X5425950Y-13755450D02*
X5785950Y-13755450D01*
X5785950Y-13445450D02*
X5425950Y-13445450D01*
X5785950Y-13755450D02*
X5785950Y-13445450D01*
X7289950Y-12745450D02*
X7289950Y-13055450D01*
X7289950Y-13055450D02*
X7649950Y-13055450D01*
X7649950Y-12745450D02*
X7289950Y-12745450D01*
X7649950Y-13055450D02*
X7649950Y-12745450D01*
X9153950Y-11495450D02*
X9153950Y-11805450D01*
X9153950Y-11805450D02*
X9513950Y-11805450D01*
X9513950Y-11495450D02*
X9153950Y-11495450D01*
X9513950Y-11805450D02*
X9513950Y-11495450D01*
X11017950Y-10995450D02*
X11017950Y-11305450D01*
X11017950Y-11305450D02*
X11377950Y-11305450D01*
X11377950Y-10995450D02*
X11017950Y-10995450D01*
X11377950Y-11305450D02*
X11377950Y-10995450D01*
X14745950Y-11745450D02*
X14745950Y-12055450D01*
X14745950Y-12055450D02*
X15105950Y-12055450D01*
X15105950Y-11745450D02*
X14745950Y-11745450D01*
X15105950Y-12055450D02*
X15105950Y-11745450D01*
X18375193Y-15542915D02*
X18690573Y-15716511D01*
X18524679Y-15271338D02*
X18375193Y-15542915D01*
X18690573Y-15716511D02*
X18840058Y-15444935D01*
X18840058Y-15444935D02*
X18524679Y-15271338D01*
X29470050Y-9136000D02*
X29470050Y-9446000D01*
X29470050Y-9446000D02*
X29830050Y-9446000D01*
X29830050Y-9136000D02*
X29470050Y-9136000D01*
X29830050Y-9446000D02*
X29830050Y-9136000D01*
X27606050Y-9626000D02*
X27606050Y-9936000D01*
X27606050Y-9936000D02*
X27966050Y-9936000D01*
X27966050Y-9626000D02*
X27606050Y-9626000D01*
X27966050Y-9936000D02*
X27966050Y-9626000D01*
X25742050Y-9886000D02*
X25742050Y-10196000D01*
X25742050Y-10196000D02*
X26102050Y-10196000D01*
X26102050Y-9886000D02*
X25742050Y-9886000D01*
X26102050Y-10196000D02*
X26102050Y-9886000D01*
X35062050Y-13446000D02*
X35062050Y-13756000D01*
X35062050Y-13756000D02*
X35422050Y-13756000D01*
X35422050Y-13446000D02*
X35062050Y-13446000D01*
X35422050Y-13756000D02*
X35422050Y-13446000D01*
X33198050Y-12746000D02*
X33198050Y-13056000D01*
X33198050Y-13056000D02*
X33558050Y-13056000D01*
X33558050Y-12746000D02*
X33198050Y-12746000D01*
X33558050Y-13056000D02*
X33558050Y-12746000D01*
X31334050Y-11496000D02*
X31334050Y-11806000D01*
X31334050Y-11806000D02*
X31694050Y-11806000D01*
X31694050Y-11496000D02*
X31334050Y-11496000D01*
X31694050Y-11806000D02*
X31694050Y-11496000D01*
X29470050Y-10996000D02*
X29470050Y-11306000D01*
X29470050Y-11306000D02*
X29830050Y-11306000D01*
X29830050Y-10996000D02*
X29470050Y-10996000D01*
X29830050Y-11306000D02*
X29830050Y-10996000D01*
X27606050Y-11486000D02*
X27606050Y-11796000D01*
X27606050Y-11796000D02*
X27966050Y-11796000D01*
X27966050Y-11486000D02*
X27606050Y-11486000D01*
X27966050Y-11796000D02*
X27966050Y-11486000D01*
X25742050Y-11746000D02*
X25742050Y-12056000D01*
X25742050Y-12056000D02*
X26102050Y-12056000D01*
X26102050Y-11746000D02*
X25742050Y-11746000D01*
X26102050Y-12056000D02*
X26102050Y-11746000D01*
X25602360Y-14138050D02*
X25655285Y-14443499D01*
X25655285Y-14443499D02*
X26010000Y-14382038D01*
X25957075Y-14076589D02*
X25602360Y-14138050D01*
X26010000Y-14382038D02*
X25957075Y-14076589D01*
X23748759Y-14634034D02*
X23851371Y-14926558D01*
X23851371Y-14926558D02*
X24191077Y-14807395D01*
X24088465Y-14514871D02*
X23748759Y-14634034D01*
X24191077Y-14807395D02*
X24088465Y-14514871D01*
X14838073Y-14381420D02*
X15192788Y-14442881D01*
X14890998Y-14075971D02*
X14838073Y-14381420D01*
X15192788Y-14442881D02*
X15245713Y-14137433D01*
X15245713Y-14137433D02*
X14890998Y-14075971D01*
X16657600Y-14807304D02*
X16997306Y-14926467D01*
X16760212Y-14514779D02*
X16657600Y-14807304D01*
X16997306Y-14926467D02*
X17099918Y-14633942D01*
X17099918Y-14633942D02*
X16760212Y-14514779D01*
X12881950Y-11485450D02*
X12881950Y-11795450D01*
X12881950Y-11795450D02*
X13241950Y-11795450D01*
X13241950Y-11485450D02*
X12881950Y-11485450D01*
X13241950Y-11795450D02*
X13241950Y-11485450D01*
X35062050Y-9726000D02*
X35062050Y-10036000D01*
X35062050Y-10036000D02*
X35422050Y-10036000D01*
X35422050Y-9726000D02*
X35062050Y-9726000D01*
X35422050Y-10036000D02*
X35422050Y-9726000D01*
X33198050Y-9026000D02*
X33198050Y-9336000D01*
X33198050Y-9336000D02*
X33558050Y-9336000D01*
X33558050Y-9026000D02*
X33198050Y-9026000D01*
X33558050Y-9336000D02*
X33558050Y-9026000D01*
X31334050Y-7776000D02*
X31334050Y-8086000D01*
X31334050Y-8086000D02*
X31694050Y-8086000D01*
X31694050Y-7776000D02*
X31334050Y-7776000D01*
X31694050Y-8086000D02*
X31694050Y-7776000D01*
X29470050Y-7276000D02*
X29470050Y-7586000D01*
X29470050Y-7586000D02*
X29830050Y-7586000D01*
X29830050Y-7276000D02*
X29470050Y-7276000D01*
X29830050Y-7586000D02*
X29830050Y-7276000D01*
X27606050Y-7766000D02*
X27606050Y-8076000D01*
X27606050Y-8076000D02*
X27966050Y-8076000D01*
X27966050Y-7766000D02*
X27606050Y-7766000D01*
X27966050Y-8076000D02*
X27966050Y-7766000D01*
X25742050Y-8026000D02*
X25742050Y-8336000D01*
X25742050Y-8336000D02*
X26102050Y-8336000D01*
X26102050Y-8026000D02*
X25742050Y-8026000D01*
X26102050Y-8336000D02*
X26102050Y-8026000D01*
X35062050Y-11586000D02*
X35062050Y-11896000D01*
X35062050Y-11896000D02*
X35422050Y-11896000D01*
X35422050Y-11586000D02*
X35062050Y-11586000D01*
X35422050Y-11896000D02*
X35422050Y-11586000D01*
X33198050Y-10886000D02*
X33198050Y-11196000D01*
X33198050Y-11196000D02*
X33558050Y-11196000D01*
X33558050Y-10886000D02*
X33198050Y-10886000D01*
X33558050Y-11196000D02*
X33558050Y-10886000D01*
X31334050Y-9636000D02*
X31334050Y-9946000D01*
X31334050Y-9946000D02*
X31694050Y-9946000D01*
X31694050Y-9636000D02*
X31334050Y-9636000D01*
X31694050Y-9946000D02*
X31694050Y-9636000D01*
X22008592Y-15445060D02*
X22158078Y-15716636D01*
X22158078Y-15716636D02*
X22473457Y-15543040D01*
X22323971Y-15271463D02*
X22008592Y-15445060D01*
X22473457Y-15543040D02*
X22323971Y-15271463D01*
D10*
D11*
X5046706Y-14502289D02*
X5096706Y-14552289D01*
X5096706Y-14502289D02*
X5046706Y-14552289D01*
X5125873Y-14502289D02*
X5175873Y-14552289D01*
X5175873Y-14502289D02*
X5125873Y-14552289D01*
X5205040Y-14502289D02*
X5255040Y-14552289D01*
X5255040Y-14502289D02*
X5205040Y-14552289D01*
X5284206Y-14502289D02*
X5334206Y-14552289D01*
X5334206Y-14502289D02*
X5284206Y-14552289D01*
X5363373Y-14502289D02*
X5413373Y-14552289D01*
X5413373Y-14502289D02*
X5363373Y-14552289D01*
X5442540Y-14502289D02*
X5492540Y-14552289D01*
X5492540Y-14502289D02*
X5442540Y-14552289D01*
X5521706Y-14502289D02*
X5571706Y-14552289D01*
X5571706Y-14502289D02*
X5521706Y-14552289D01*
X5597539Y-14502289D02*
X5647539Y-14552289D01*
X5647539Y-14502289D02*
X5597539Y-14552289D01*
X5676706Y-14502289D02*
X5726706Y-14552289D01*
X5726706Y-14502289D02*
X5676706Y-14552289D01*
X5755873Y-14502289D02*
X5805873Y-14552289D01*
X5805873Y-14502289D02*
X5755873Y-14552289D01*
X5835039Y-14502289D02*
X5885039Y-14552289D01*
X5885039Y-14502289D02*
X5835039Y-14552289D01*
X5914206Y-14502289D02*
X5964206Y-14552289D01*
X5964206Y-14502289D02*
X5914206Y-14552289D01*
X5993373Y-14502289D02*
X6043373Y-14552289D01*
X6043373Y-14502289D02*
X5993373Y-14552289D01*
X6072539Y-14502289D02*
X6122539Y-14552289D01*
X6122539Y-14502289D02*
X6072539Y-14552289D01*
X10654917Y-5353000D02*
X10704917Y-5403000D01*
X10704917Y-5353000D02*
X10654917Y-5403000D01*
X10734083Y-5353000D02*
X10784083Y-5403000D01*
X10784083Y-5353000D02*
X10734083Y-5403000D01*
X10813250Y-5353000D02*
X10863250Y-5403000D01*
X10863250Y-5353000D02*
X10813250Y-5403000D01*
X10892417Y-5353000D02*
X10942417Y-5403000D01*
X10942417Y-5353000D02*
X10892417Y-5403000D01*
X10971583Y-5353000D02*
X11021583Y-5403000D01*
X11021583Y-5353000D02*
X10971583Y-5403000D01*
X11050750Y-5353000D02*
X11100750Y-5403000D01*
X11100750Y-5353000D02*
X11050750Y-5403000D01*
X11129917Y-5353000D02*
X11179917Y-5403000D01*
X11179917Y-5353000D02*
X11129917Y-5403000D01*
X11205750Y-5353000D02*
X11255750Y-5403000D01*
X11255750Y-5353000D02*
X11205750Y-5403000D01*
X11284917Y-5353000D02*
X11334917Y-5403000D01*
X11334917Y-5353000D02*
X11284917Y-5403000D01*
X11364083Y-5353000D02*
X11414083Y-5403000D01*
X11414083Y-5353000D02*
X11364083Y-5403000D01*
X11443250Y-5353000D02*
X11493250Y-5403000D01*
X11493250Y-5353000D02*
X11443250Y-5403000D01*
X11522417Y-5353000D02*
X11572417Y-5403000D01*
X11572417Y-5353000D02*
X11522417Y-5403000D01*
X11601583Y-5353000D02*
X11651583Y-5403000D01*
X11651583Y-5353000D02*
X11601583Y-5403000D01*
X11680750Y-5353000D02*
X11730750Y-5403000D01*
X11730750Y-5353000D02*
X11680750Y-5403000D01*
X29116706Y-5352290D02*
X29166706Y-5402290D01*
X29166706Y-5352290D02*
X29116706Y-5402290D01*
X29195873Y-5352290D02*
X29245873Y-5402290D01*
X29245873Y-5352290D02*
X29195873Y-5402290D01*
X29275039Y-5352290D02*
X29325039Y-5402290D01*
X29325039Y-5352290D02*
X29275039Y-5402290D01*
X29354206Y-5352290D02*
X29404206Y-5402290D01*
X29404206Y-5352290D02*
X29354206Y-5402290D01*
X29433373Y-5352290D02*
X29483373Y-5402290D01*
X29483373Y-5352290D02*
X29433373Y-5402290D01*
X29512539Y-5352290D02*
X29562539Y-5402290D01*
X29562539Y-5352290D02*
X29512539Y-5402290D01*
X29591706Y-5352290D02*
X29641706Y-5402290D01*
X29641706Y-5352290D02*
X29591706Y-5402290D01*
X29667539Y-5352290D02*
X29717539Y-5402290D01*
X29717539Y-5352290D02*
X29667539Y-5402290D01*
X29746706Y-5352290D02*
X29796706Y-5402290D01*
X29796706Y-5352290D02*
X29746706Y-5402290D01*
X29825873Y-5352290D02*
X29875873Y-5402290D01*
X29875873Y-5352290D02*
X29825873Y-5402290D01*
X29905039Y-5352290D02*
X29955039Y-5402290D01*
X29955039Y-5352290D02*
X29905039Y-5402290D01*
X29984206Y-5352290D02*
X30034206Y-5402290D01*
X30034206Y-5352290D02*
X29984206Y-5402290D01*
X30063373Y-5352290D02*
X30113373Y-5402290D01*
X30113373Y-5352290D02*
X30063373Y-5402290D01*
X30142539Y-5352290D02*
X30192539Y-5402290D01*
X30192539Y-5352290D02*
X30142539Y-5402290D01*
X34716706Y-14502289D02*
X34766706Y-14552289D01*
X34766706Y-14502289D02*
X34716706Y-14552289D01*
X34795873Y-14502289D02*
X34845873Y-14552289D01*
X34845873Y-14502289D02*
X34795873Y-14552289D01*
X34875040Y-14502289D02*
X34925040Y-14552289D01*
X34925040Y-14502289D02*
X34875040Y-14552289D01*
X34954206Y-14502289D02*
X35004206Y-14552289D01*
X35004206Y-14502289D02*
X34954206Y-14552289D01*
X35033373Y-14502289D02*
X35083373Y-14552289D01*
X35083373Y-14502289D02*
X35033373Y-14552289D01*
X35112540Y-14502289D02*
X35162540Y-14552289D01*
X35162540Y-14502289D02*
X35112540Y-14552289D01*
X35191706Y-14502289D02*
X35241706Y-14552289D01*
X35241706Y-14502289D02*
X35191706Y-14552289D01*
X35267540Y-14502289D02*
X35317540Y-14552289D01*
X35317540Y-14502289D02*
X35267540Y-14552289D01*
X35346706Y-14502289D02*
X35396706Y-14552289D01*
X35396706Y-14502289D02*
X35346706Y-14552289D01*
X35425873Y-14502289D02*
X35475873Y-14552289D01*
X35475873Y-14502289D02*
X35425873Y-14552289D01*
X35505040Y-14502289D02*
X35555040Y-14552289D01*
X35555040Y-14502289D02*
X35505040Y-14552289D01*
X35584206Y-14502289D02*
X35634206Y-14552289D01*
X35634206Y-14502289D02*
X35584206Y-14552289D01*
X35663373Y-14502289D02*
X35713373Y-14552289D01*
X35713373Y-14502289D02*
X35663373Y-14552289D01*
X35742540Y-14502289D02*
X35792540Y-14552289D01*
X35792540Y-14502289D02*
X35742540Y-14552289D01*
D12*
X17038650Y-11754150D02*
G75*
G02*
X16918650Y-11754150I-60000J0D01*
G01*
X16918650Y-11754150D02*
G75*
G02*
X17038650Y-11754150I60000J0D01*
G01*
X17738650Y-11754150D02*
G75*
G02*
X17618650Y-11754150I-60000J0D01*
G01*
X17618650Y-11754150D02*
G75*
G02*
X17738650Y-11754150I60000J0D01*
G01*
X23225050Y-11752500D02*
G75*
G02*
X23105050Y-11752500I-60000J0D01*
G01*
X23105050Y-11752500D02*
G75*
G02*
X23225050Y-11752500I60000J0D01*
G01*
X23925050Y-11752500D02*
G75*
G02*
X23805050Y-11752500I-60000J0D01*
G01*
X23805050Y-11752500D02*
G75*
G02*
X23925050Y-11752500I60000J0D01*
G01*
D13*
X5097950Y-9310450D02*
X5097950Y-9500450D01*
X5002950Y-9405450D02*
X5192950Y-9405450D01*
X5097950Y-11170450D02*
X5097950Y-11360450D01*
X5002950Y-11265450D02*
X5192950Y-11265450D01*
X5097950Y-13030450D02*
X5097950Y-13220450D01*
X5002950Y-13125450D02*
X5192950Y-13125450D01*
X6113950Y-9310450D02*
X6113950Y-9500450D01*
X6018950Y-9405450D02*
X6208950Y-9405450D01*
X6113950Y-11170450D02*
X6113950Y-11360450D01*
X6018950Y-11265450D02*
X6208950Y-11265450D01*
X6113950Y-13030450D02*
X6113950Y-13220450D01*
X6018950Y-13125450D02*
X6208950Y-13125450D01*
X6961950Y-8610450D02*
X6961950Y-8800450D01*
X6866950Y-8705450D02*
X7056950Y-8705450D01*
X6961950Y-10470450D02*
X6961950Y-10660450D01*
X6866950Y-10565450D02*
X7056950Y-10565450D01*
X6961950Y-12330450D02*
X6961950Y-12520450D01*
X6866950Y-12425450D02*
X7056950Y-12425450D01*
X7977950Y-8610450D02*
X7977950Y-8800450D01*
X7882950Y-8705450D02*
X8072950Y-8705450D01*
X7977950Y-10470450D02*
X7977950Y-10660450D01*
X7882950Y-10565450D02*
X8072950Y-10565450D01*
X7977950Y-12330450D02*
X7977950Y-12520450D01*
X7882950Y-12425450D02*
X8072950Y-12425450D01*
X8825950Y-7360450D02*
X8825950Y-7550450D01*
X8730950Y-7455450D02*
X8920950Y-7455450D01*
X8825950Y-9220450D02*
X8825950Y-9410450D01*
X8730950Y-9315450D02*
X8920950Y-9315450D01*
X8825950Y-11080450D02*
X8825950Y-11270450D01*
X8730950Y-11175450D02*
X8920950Y-11175450D01*
X9841950Y-7360450D02*
X9841950Y-7550450D01*
X9746950Y-7455450D02*
X9936950Y-7455450D01*
X9841950Y-9220450D02*
X9841950Y-9410450D01*
X9746950Y-9315450D02*
X9936950Y-9315450D01*
X9841950Y-11080450D02*
X9841950Y-11270450D01*
X9746950Y-11175450D02*
X9936950Y-11175450D01*
X10689950Y-6860450D02*
X10689950Y-7050450D01*
X10594950Y-6955450D02*
X10784950Y-6955450D01*
X10689950Y-8720450D02*
X10689950Y-8910450D01*
X10594950Y-8815450D02*
X10784950Y-8815450D01*
X10689950Y-10580450D02*
X10689950Y-10770450D01*
X10594950Y-10675450D02*
X10784950Y-10675450D01*
X11705950Y-6860450D02*
X11705950Y-7050450D01*
X11610950Y-6955450D02*
X11800950Y-6955450D01*
X11705950Y-8720450D02*
X11705950Y-8910450D01*
X11610950Y-8815450D02*
X11800950Y-8815450D01*
X11705950Y-10580450D02*
X11705950Y-10770450D01*
X11610950Y-10675450D02*
X11800950Y-10675450D01*
X12553950Y-7350450D02*
X12553950Y-7540450D01*
X12458950Y-7445450D02*
X12648950Y-7445450D01*
X12553950Y-9210450D02*
X12553950Y-9400450D01*
X12458950Y-9305450D02*
X12648950Y-9305450D01*
X12553950Y-11070450D02*
X12553950Y-11260450D01*
X12458950Y-11165450D02*
X12648950Y-11165450D01*
X13569950Y-7350450D02*
X13569950Y-7540450D01*
X13474950Y-7445450D02*
X13664950Y-7445450D01*
X13569950Y-9210450D02*
X13569950Y-9400450D01*
X13474950Y-9305450D02*
X13664950Y-9305450D01*
X13569950Y-11070450D02*
X13569950Y-11260450D01*
X13474950Y-11165450D02*
X13664950Y-11165450D01*
X14417950Y-7610450D02*
X14417950Y-7800450D01*
X14322950Y-7705450D02*
X14512950Y-7705450D01*
X14417950Y-9470450D02*
X14417950Y-9660450D01*
X14322950Y-9565450D02*
X14512950Y-9565450D01*
X14417950Y-11330450D02*
X14417950Y-11520450D01*
X14322950Y-11425450D02*
X14512950Y-11425450D01*
X14622446Y-13609671D02*
X14622446Y-13799671D01*
X14527446Y-13704671D02*
X14717446Y-13704671D01*
X15433950Y-7610450D02*
X15433950Y-7800450D01*
X15338950Y-7705450D02*
X15528950Y-7705450D01*
X15433950Y-9470450D02*
X15433950Y-9660450D01*
X15338950Y-9565450D02*
X15528950Y-9565450D01*
X15433950Y-11330450D02*
X15433950Y-11520450D01*
X15338950Y-11425450D02*
X15528950Y-11425450D01*
X15623530Y-13783128D02*
X15623530Y-13973128D01*
X15528530Y-13878128D02*
X15718530Y-13878128D01*
X16555625Y-14009248D02*
X16555625Y-14199248D01*
X16460625Y-14104248D02*
X16650625Y-14104248D01*
X17514351Y-14345552D02*
X17514351Y-14535552D01*
X17419351Y-14440552D02*
X17609351Y-14440552D01*
X18390914Y-14737436D02*
X18390914Y-14927436D01*
X18295914Y-14832436D02*
X18485914Y-14832436D01*
X19280986Y-15227364D02*
X19280986Y-15417364D01*
X19185986Y-15322364D02*
X19375986Y-15322364D01*
X21567664Y-15227489D02*
X21567664Y-15417489D01*
X21472664Y-15322489D02*
X21662664Y-15322489D01*
X22457736Y-14737561D02*
X22457736Y-14927561D01*
X22362736Y-14832561D02*
X22552736Y-14832561D01*
X23334326Y-14345643D02*
X23334326Y-14535643D01*
X23239326Y-14440643D02*
X23429326Y-14440643D01*
X24293052Y-14009339D02*
X24293052Y-14199339D01*
X24198052Y-14104339D02*
X24388052Y-14104339D01*
X25225148Y-13783134D02*
X25225148Y-13973134D01*
X25130148Y-13878134D02*
X25320148Y-13878134D01*
X25414050Y-7611000D02*
X25414050Y-7801000D01*
X25319050Y-7706000D02*
X25509050Y-7706000D01*
X25414750Y-9470500D02*
X25414750Y-9660500D01*
X25319750Y-9565500D02*
X25509750Y-9565500D01*
X25414750Y-11330500D02*
X25414750Y-11520500D01*
X25319750Y-11425500D02*
X25509750Y-11425500D01*
X26226232Y-13609677D02*
X26226232Y-13799677D01*
X26131232Y-13704677D02*
X26321232Y-13704677D01*
X26430050Y-7611000D02*
X26430050Y-7801000D01*
X26335050Y-7706000D02*
X26525050Y-7706000D01*
X26430750Y-9470500D02*
X26430750Y-9660500D01*
X26335750Y-9565500D02*
X26525750Y-9565500D01*
X26430750Y-11330500D02*
X26430750Y-11520500D01*
X26335750Y-11425500D02*
X26525750Y-11425500D01*
X27278750Y-7350500D02*
X27278750Y-7540500D01*
X27183750Y-7445500D02*
X27373750Y-7445500D01*
X27278750Y-9210500D02*
X27278750Y-9400500D01*
X27183750Y-9305500D02*
X27373750Y-9305500D01*
X27278750Y-11070500D02*
X27278750Y-11260500D01*
X27183750Y-11165500D02*
X27373750Y-11165500D01*
X28294750Y-7350500D02*
X28294750Y-7540500D01*
X28199750Y-7445500D02*
X28389750Y-7445500D01*
X28294750Y-9210500D02*
X28294750Y-9400500D01*
X28199750Y-9305500D02*
X28389750Y-9305500D01*
X28294750Y-11070500D02*
X28294750Y-11260500D01*
X28199750Y-11165500D02*
X28389750Y-11165500D01*
X29142750Y-6860500D02*
X29142750Y-7050500D01*
X29047750Y-6955500D02*
X29237750Y-6955500D01*
X29142750Y-8720500D02*
X29142750Y-8910500D01*
X29047750Y-8815500D02*
X29237750Y-8815500D01*
X29142750Y-10580500D02*
X29142750Y-10770500D01*
X29047750Y-10675500D02*
X29237750Y-10675500D01*
X30158750Y-6860500D02*
X30158750Y-7050500D01*
X30063750Y-6955500D02*
X30253750Y-6955500D01*
X30158750Y-8720500D02*
X30158750Y-8910500D01*
X30063750Y-8815500D02*
X30253750Y-8815500D01*
X30158750Y-10580500D02*
X30158750Y-10770500D01*
X30063750Y-10675500D02*
X30253750Y-10675500D01*
X31006750Y-7360500D02*
X31006750Y-7550500D01*
X30911750Y-7455500D02*
X31101750Y-7455500D01*
X31006750Y-9220500D02*
X31006750Y-9410500D01*
X30911750Y-9315500D02*
X31101750Y-9315500D01*
X31006750Y-11080500D02*
X31006750Y-11270500D01*
X30911750Y-11175500D02*
X31101750Y-11175500D01*
X32022750Y-7360500D02*
X32022750Y-7550500D01*
X31927750Y-7455500D02*
X32117750Y-7455500D01*
X32022750Y-9220500D02*
X32022750Y-9410500D01*
X31927750Y-9315500D02*
X32117750Y-9315500D01*
X32022750Y-11080500D02*
X32022750Y-11270500D01*
X31927750Y-11175500D02*
X32117750Y-11175500D01*
X32870750Y-8610500D02*
X32870750Y-8800500D01*
X32775750Y-8705500D02*
X32965750Y-8705500D01*
X32870750Y-10470500D02*
X32870750Y-10660500D01*
X32775750Y-10565500D02*
X32965750Y-10565500D01*
X32870750Y-12330500D02*
X32870750Y-12520500D01*
X32775750Y-12425500D02*
X32965750Y-12425500D01*
X33886750Y-8610500D02*
X33886750Y-8800500D01*
X33791750Y-8705500D02*
X33981750Y-8705500D01*
X33886750Y-10470500D02*
X33886750Y-10660500D01*
X33791750Y-10565500D02*
X33981750Y-10565500D01*
X33886750Y-12330500D02*
X33886750Y-12520500D01*
X33791750Y-12425500D02*
X33981750Y-12425500D01*
X34734750Y-9310500D02*
X34734750Y-9500500D01*
X34639750Y-9405500D02*
X34829750Y-9405500D01*
X34734750Y-11170500D02*
X34734750Y-11360500D01*
X34639750Y-11265500D02*
X34829750Y-11265500D01*
X34734750Y-13030500D02*
X34734750Y-13220500D01*
X34639750Y-13125500D02*
X34829750Y-13125500D01*
X35750750Y-9310500D02*
X35750750Y-9500500D01*
X35655750Y-9405500D02*
X35845750Y-9405500D01*
X35750750Y-11170500D02*
X35750750Y-11360500D01*
X35655750Y-11265500D02*
X35845750Y-11265500D01*
X35750750Y-13030500D02*
X35750750Y-13220500D01*
X35655750Y-13125500D02*
X35845750Y-13125500D01*
D14*
X16279932Y-11828132D02*
X16279932Y-11672567D01*
X16124367Y-11672567D01*
X16124367Y-11828132D01*
X16279932Y-11828132D01*
X17723133Y-12680232D02*
X17723133Y-12524667D01*
X17567568Y-12524667D01*
X17567568Y-12680232D01*
X17723133Y-12680232D01*
X23280932Y-12681782D02*
X23280932Y-12526217D01*
X23125367Y-12526217D01*
X23125367Y-12681782D01*
X23280932Y-12681782D01*
X24724132Y-11829682D02*
X24724132Y-11674117D01*
X24568567Y-11674117D01*
X24568567Y-11829682D01*
X24724132Y-11829682D01*
D15*
X5224950Y-9301450D02*
X5374950Y-9151450D01*
X5224950Y-9001450D01*
X5074950Y-9151450D01*
X5224950Y-9301450D01*
X5224950Y-11161450D02*
X5374950Y-11011450D01*
X5224950Y-10861450D01*
X5074950Y-11011450D01*
X5224950Y-11161450D01*
X5224950Y-13021450D02*
X5374950Y-12871450D01*
X5224950Y-12721450D01*
X5074950Y-12871450D01*
X5224950Y-13021450D01*
X5859950Y-9047450D02*
X6009950Y-8897450D01*
X5859950Y-8747450D01*
X5709950Y-8897450D01*
X5859950Y-9047450D01*
X5859950Y-10907450D02*
X6009950Y-10757450D01*
X5859950Y-10607450D01*
X5709950Y-10757450D01*
X5859950Y-10907450D01*
X5859950Y-12767450D02*
X6009950Y-12617450D01*
X5859950Y-12467450D01*
X5709950Y-12617450D01*
X5859950Y-12767450D01*
X7088950Y-8601450D02*
X7238950Y-8451450D01*
X7088950Y-8301450D01*
X6938950Y-8451450D01*
X7088950Y-8601450D01*
X7088950Y-10461450D02*
X7238950Y-10311450D01*
X7088950Y-10161450D01*
X6938950Y-10311450D01*
X7088950Y-10461450D01*
X7088950Y-12321450D02*
X7238950Y-12171450D01*
X7088950Y-12021450D01*
X6938950Y-12171450D01*
X7088950Y-12321450D01*
X7723950Y-8347450D02*
X7873950Y-8197450D01*
X7723950Y-8047450D01*
X7573950Y-8197450D01*
X7723950Y-8347450D01*
X7723950Y-10207450D02*
X7873950Y-10057450D01*
X7723950Y-9907450D01*
X7573950Y-10057450D01*
X7723950Y-10207450D01*
X7723950Y-12067450D02*
X7873950Y-11917450D01*
X7723950Y-11767450D01*
X7573950Y-11917450D01*
X7723950Y-12067450D01*
X8952950Y-7351450D02*
X9102950Y-7201450D01*
X8952950Y-7051450D01*
X8802950Y-7201450D01*
X8952950Y-7351450D01*
X8952950Y-9211450D02*
X9102950Y-9061450D01*
X8952950Y-8911450D01*
X8802950Y-9061450D01*
X8952950Y-9211450D01*
X8952950Y-11071450D02*
X9102950Y-10921450D01*
X8952950Y-10771450D01*
X8802950Y-10921450D01*
X8952950Y-11071450D01*
X9587950Y-7097450D02*
X9737950Y-6947450D01*
X9587950Y-6797450D01*
X9437950Y-6947450D01*
X9587950Y-7097450D01*
X9587950Y-8957450D02*
X9737950Y-8807450D01*
X9587950Y-8657450D01*
X9437950Y-8807450D01*
X9587950Y-8957450D01*
X9587950Y-10817450D02*
X9737950Y-10667450D01*
X9587950Y-10517450D01*
X9437950Y-10667450D01*
X9587950Y-10817450D01*
X10816950Y-6851450D02*
X10966950Y-6701450D01*
X10816950Y-6551450D01*
X10666950Y-6701450D01*
X10816950Y-6851450D01*
X10816950Y-8711450D02*
X10966950Y-8561450D01*
X10816950Y-8411450D01*
X10666950Y-8561450D01*
X10816950Y-8711450D01*
X10816950Y-10571450D02*
X10966950Y-10421450D01*
X10816950Y-10271450D01*
X10666950Y-10421450D01*
X10816950Y-10571450D01*
X11451950Y-6597450D02*
X11601950Y-6447450D01*
X11451950Y-6297450D01*
X11301950Y-6447450D01*
X11451950Y-6597450D01*
X11451950Y-8457450D02*
X11601950Y-8307450D01*
X11451950Y-8157450D01*
X11301950Y-8307450D01*
X11451950Y-8457450D01*
X11451950Y-10317450D02*
X11601950Y-10167450D01*
X11451950Y-10017450D01*
X11301950Y-10167450D01*
X11451950Y-10317450D01*
X12680950Y-7341450D02*
X12830950Y-7191450D01*
X12680950Y-7041450D01*
X12530950Y-7191450D01*
X12680950Y-7341450D01*
X12680950Y-9201450D02*
X12830950Y-9051450D01*
X12680950Y-8901450D01*
X12530950Y-9051450D01*
X12680950Y-9201450D01*
X12680950Y-11061450D02*
X12830950Y-10911450D01*
X12680950Y-10761450D01*
X12530950Y-10911450D01*
X12680950Y-11061450D01*
X13315950Y-7087450D02*
X13465950Y-6937450D01*
X13315950Y-6787450D01*
X13165950Y-6937450D01*
X13315950Y-7087450D01*
X13315950Y-8947450D02*
X13465950Y-8797450D01*
X13315950Y-8647450D01*
X13165950Y-8797450D01*
X13315950Y-8947450D01*
X13315950Y-10807450D02*
X13465950Y-10657450D01*
X13315950Y-10507450D01*
X13165950Y-10657450D01*
X13315950Y-10807450D01*
X14544950Y-7601450D02*
X14694950Y-7451450D01*
X14544950Y-7301450D01*
X14394950Y-7451450D01*
X14544950Y-7601450D01*
X14544950Y-9461450D02*
X14694950Y-9311450D01*
X14544950Y-9161450D01*
X14394950Y-9311450D01*
X14544950Y-9461450D01*
X14544950Y-11321450D02*
X14694950Y-11171450D01*
X14544950Y-11021450D01*
X14394950Y-11171450D01*
X14544950Y-11321450D01*
X14790946Y-13626083D02*
X14940946Y-13476083D01*
X14790946Y-13326083D01*
X14640946Y-13476083D01*
X14790946Y-13626083D01*
X15179950Y-7347450D02*
X15329950Y-7197450D01*
X15179950Y-7047450D01*
X15029950Y-7197450D01*
X15179950Y-7347450D01*
X15179950Y-9207450D02*
X15329950Y-9057450D01*
X15179950Y-8907450D01*
X15029950Y-9057450D01*
X15179950Y-9207450D01*
X15179950Y-11067450D02*
X15329950Y-10917450D01*
X15179950Y-10767450D01*
X15029950Y-10917450D01*
X15179950Y-11067450D01*
X15459987Y-13484222D02*
X15609987Y-13334222D01*
X15459987Y-13184222D01*
X15309987Y-13334222D01*
X15459987Y-13484222D01*
X16759542Y-14056604D02*
X16909542Y-13906604D01*
X16759542Y-13756604D01*
X16609542Y-13906604D01*
X16759542Y-14056604D01*
X17442822Y-14027113D02*
X17592822Y-13877113D01*
X17442822Y-13727113D01*
X17292822Y-13877113D01*
X17442822Y-14027113D01*
X18624655Y-14821159D02*
X18774655Y-14671159D01*
X18624655Y-14521159D01*
X18474655Y-14671159D01*
X18624655Y-14821159D01*
X19303432Y-14904846D02*
X19453432Y-14754846D01*
X19303432Y-14604846D01*
X19153432Y-14754846D01*
X19303432Y-14904846D01*
X21556441Y-15188730D02*
X21706441Y-15038730D01*
X21556441Y-14888730D01*
X21406441Y-15038730D01*
X21556441Y-15188730D01*
X21990254Y-14660007D02*
X22140254Y-14510007D01*
X21990254Y-14360007D01*
X21840254Y-14510007D01*
X21990254Y-14660007D01*
X23370091Y-14308924D02*
X23520091Y-14158924D01*
X23370091Y-14008924D01*
X23220091Y-14158924D01*
X23370091Y-14308924D01*
X23885218Y-13859052D02*
X24035218Y-13709052D01*
X23885218Y-13559052D01*
X23735218Y-13709052D01*
X23885218Y-13859052D01*
X25306919Y-13756181D02*
X25456919Y-13606181D01*
X25306919Y-13456181D01*
X25156919Y-13606181D01*
X25306919Y-13756181D01*
X25541050Y-7602000D02*
X25691050Y-7452000D01*
X25541050Y-7302000D01*
X25391050Y-7452000D01*
X25541050Y-7602000D01*
X25541750Y-9461500D02*
X25691750Y-9311500D01*
X25541750Y-9161500D01*
X25391750Y-9311500D01*
X25541750Y-9461500D01*
X25541750Y-11321500D02*
X25691750Y-11171500D01*
X25541750Y-11021500D01*
X25391750Y-11171500D01*
X25541750Y-11321500D01*
X25889232Y-13397499D02*
X26039232Y-13247499D01*
X25889232Y-13097499D01*
X25739232Y-13247499D01*
X25889232Y-13397499D01*
X26176050Y-7348000D02*
X26326050Y-7198000D01*
X26176050Y-7048000D01*
X26026050Y-7198000D01*
X26176050Y-7348000D01*
X26176750Y-9207500D02*
X26326750Y-9057500D01*
X26176750Y-8907500D01*
X26026750Y-9057500D01*
X26176750Y-9207500D01*
X26176750Y-11067500D02*
X26326750Y-10917500D01*
X26176750Y-10767500D01*
X26026750Y-10917500D01*
X26176750Y-11067500D01*
X27405750Y-7341500D02*
X27555750Y-7191500D01*
X27405750Y-7041500D01*
X27255750Y-7191500D01*
X27405750Y-7341500D01*
X27405750Y-9201500D02*
X27555750Y-9051500D01*
X27405750Y-8901500D01*
X27255750Y-9051500D01*
X27405750Y-9201500D01*
X27405750Y-11061500D02*
X27555750Y-10911500D01*
X27405750Y-10761500D01*
X27255750Y-10911500D01*
X27405750Y-11061500D01*
X28040750Y-7087500D02*
X28190750Y-6937500D01*
X28040750Y-6787500D01*
X27890750Y-6937500D01*
X28040750Y-7087500D01*
X28040750Y-8947500D02*
X28190750Y-8797500D01*
X28040750Y-8647500D01*
X27890750Y-8797500D01*
X28040750Y-8947500D01*
X28040750Y-10807500D02*
X28190750Y-10657500D01*
X28040750Y-10507500D01*
X27890750Y-10657500D01*
X28040750Y-10807500D01*
X29269750Y-6851500D02*
X29419750Y-6701500D01*
X29269750Y-6551500D01*
X29119750Y-6701500D01*
X29269750Y-6851500D01*
X29269750Y-8711500D02*
X29419750Y-8561500D01*
X29269750Y-8411500D01*
X29119750Y-8561500D01*
X29269750Y-8711500D01*
X29269750Y-10571500D02*
X29419750Y-10421500D01*
X29269750Y-10271500D01*
X29119750Y-10421500D01*
X29269750Y-10571500D01*
X29904750Y-6597500D02*
X30054750Y-6447500D01*
X29904750Y-6297500D01*
X29754750Y-6447500D01*
X29904750Y-6597500D01*
X29904750Y-8457500D02*
X30054750Y-8307500D01*
X29904750Y-8157500D01*
X29754750Y-8307500D01*
X29904750Y-8457500D01*
X29904750Y-10317500D02*
X30054750Y-10167500D01*
X29904750Y-10017500D01*
X29754750Y-10167500D01*
X29904750Y-10317500D01*
X31133750Y-7351500D02*
X31283750Y-7201500D01*
X31133750Y-7051500D01*
X30983750Y-7201500D01*
X31133750Y-7351500D01*
X31133750Y-9211500D02*
X31283750Y-9061500D01*
X31133750Y-8911500D01*
X30983750Y-9061500D01*
X31133750Y-9211500D01*
X31133750Y-11071500D02*
X31283750Y-10921500D01*
X31133750Y-10771500D01*
X30983750Y-10921500D01*
X31133750Y-11071500D01*
X31768750Y-7097500D02*
X31918750Y-6947500D01*
X31768750Y-6797500D01*
X31618750Y-6947500D01*
X31768750Y-7097500D01*
X31768750Y-8957500D02*
X31918750Y-8807500D01*
X31768750Y-8657500D01*
X31618750Y-8807500D01*
X31768750Y-8957500D01*
X31768750Y-10817500D02*
X31918750Y-10667500D01*
X31768750Y-10517500D01*
X31618750Y-10667500D01*
X31768750Y-10817500D01*
X32997750Y-8601500D02*
X33147750Y-8451500D01*
X32997750Y-8301500D01*
X32847750Y-8451500D01*
X32997750Y-8601500D01*
X32997750Y-10461500D02*
X33147750Y-10311500D01*
X32997750Y-10161500D01*
X32847750Y-10311500D01*
X32997750Y-10461500D01*
X32997750Y-12321500D02*
X33147750Y-12171500D01*
X32997750Y-12021500D01*
X32847750Y-12171500D01*
X32997750Y-12321500D01*
X33632750Y-8347500D02*
X33782750Y-8197500D01*
X33632750Y-8047500D01*
X33482750Y-8197500D01*
X33632750Y-8347500D01*
X33632750Y-10207500D02*
X33782750Y-10057500D01*
X33632750Y-9907500D01*
X33482750Y-10057500D01*
X33632750Y-10207500D01*
X33632750Y-12067500D02*
X33782750Y-11917500D01*
X33632750Y-11767500D01*
X33482750Y-11917500D01*
X33632750Y-12067500D01*
X34861750Y-9301500D02*
X35011750Y-9151500D01*
X34861750Y-9001500D01*
X34711750Y-9151500D01*
X34861750Y-9301500D01*
X34861750Y-11161500D02*
X35011750Y-11011500D01*
X34861750Y-10861500D01*
X34711750Y-11011500D01*
X34861750Y-11161500D01*
X34861750Y-13021500D02*
X35011750Y-12871500D01*
X34861750Y-12721500D01*
X34711750Y-12871500D01*
X34861750Y-13021500D01*
X35496750Y-9047500D02*
X35646750Y-8897500D01*
X35496750Y-8747500D01*
X35346750Y-8897500D01*
X35496750Y-9047500D01*
X35496750Y-10907500D02*
X35646750Y-10757500D01*
X35496750Y-10607500D01*
X35346750Y-10757500D01*
X35496750Y-10907500D01*
X35496750Y-12767500D02*
X35646750Y-12617500D01*
X35496750Y-12467500D01*
X35346750Y-12617500D01*
X35496750Y-12767500D01*
D16*
X5400950Y-9200450D02*
X5810950Y-9610450D01*
X5810950Y-9200450D02*
X5400950Y-9610450D01*
X5810950Y-9405450D02*
G75*
G02*
X5400950Y-9405450I-205000J0D01*
G01*
X5400950Y-9405450D02*
G75*
G02*
X5810950Y-9405450I205000J0D01*
G01*
X5400950Y-11060450D02*
X5810950Y-11470450D01*
X5810950Y-11060450D02*
X5400950Y-11470450D01*
X5810950Y-11265450D02*
G75*
G02*
X5400950Y-11265450I-205000J0D01*
G01*
X5400950Y-11265450D02*
G75*
G02*
X5810950Y-11265450I205000J0D01*
G01*
X5400950Y-12920450D02*
X5810950Y-13330450D01*
X5810950Y-12920450D02*
X5400950Y-13330450D01*
X5810950Y-13125450D02*
G75*
G02*
X5400950Y-13125450I-205000J0D01*
G01*
X5400950Y-13125450D02*
G75*
G02*
X5810950Y-13125450I205000J0D01*
G01*
X7264950Y-8500450D02*
X7674950Y-8910450D01*
X7674950Y-8500450D02*
X7264950Y-8910450D01*
X7674950Y-8705450D02*
G75*
G02*
X7264950Y-8705450I-205000J0D01*
G01*
X7264950Y-8705450D02*
G75*
G02*
X7674950Y-8705450I205000J0D01*
G01*
X7264950Y-10360450D02*
X7674950Y-10770450D01*
X7674950Y-10360450D02*
X7264950Y-10770450D01*
X7674950Y-10565450D02*
G75*
G02*
X7264950Y-10565450I-205000J0D01*
G01*
X7264950Y-10565450D02*
G75*
G02*
X7674950Y-10565450I205000J0D01*
G01*
X7264950Y-12220450D02*
X7674950Y-12630450D01*
X7674950Y-12220450D02*
X7264950Y-12630450D01*
X7674950Y-12425450D02*
G75*
G02*
X7264950Y-12425450I-205000J0D01*
G01*
X7264950Y-12425450D02*
G75*
G02*
X7674950Y-12425450I205000J0D01*
G01*
X9128950Y-7250450D02*
X9538950Y-7660450D01*
X9538950Y-7250450D02*
X9128950Y-7660450D01*
X9538950Y-7455450D02*
G75*
G02*
X9128950Y-7455450I-205000J0D01*
G01*
X9128950Y-7455450D02*
G75*
G02*
X9538950Y-7455450I205000J0D01*
G01*
X9128950Y-9110450D02*
X9538950Y-9520450D01*
X9538950Y-9110450D02*
X9128950Y-9520450D01*
X9538950Y-9315450D02*
G75*
G02*
X9128950Y-9315450I-205000J0D01*
G01*
X9128950Y-9315450D02*
G75*
G02*
X9538950Y-9315450I205000J0D01*
G01*
X9128950Y-10970450D02*
X9538950Y-11380450D01*
X9538950Y-10970450D02*
X9128950Y-11380450D01*
X9538950Y-11175450D02*
G75*
G02*
X9128950Y-11175450I-205000J0D01*
G01*
X9128950Y-11175450D02*
G75*
G02*
X9538950Y-11175450I205000J0D01*
G01*
X10992950Y-6750450D02*
X11402950Y-7160450D01*
X11402950Y-6750450D02*
X10992950Y-7160450D01*
X11402950Y-6955450D02*
G75*
G02*
X10992950Y-6955450I-205000J0D01*
G01*
X10992950Y-6955450D02*
G75*
G02*
X11402950Y-6955450I205000J0D01*
G01*
X10992950Y-8610450D02*
X11402950Y-9020450D01*
X11402950Y-8610450D02*
X10992950Y-9020450D01*
X11402950Y-8815450D02*
G75*
G02*
X10992950Y-8815450I-205000J0D01*
G01*
X10992950Y-8815450D02*
G75*
G02*
X11402950Y-8815450I205000J0D01*
G01*
X10992950Y-10470450D02*
X11402950Y-10880450D01*
X11402950Y-10470450D02*
X10992950Y-10880450D01*
X11402950Y-10675450D02*
G75*
G02*
X10992950Y-10675450I-205000J0D01*
G01*
X10992950Y-10675450D02*
G75*
G02*
X11402950Y-10675450I205000J0D01*
G01*
X12856950Y-7240450D02*
X13266950Y-7650450D01*
X13266950Y-7240450D02*
X12856950Y-7650450D01*
X13266950Y-7445450D02*
G75*
G02*
X12856950Y-7445450I-205000J0D01*
G01*
X12856950Y-7445450D02*
G75*
G02*
X13266950Y-7445450I205000J0D01*
G01*
X12856950Y-9100450D02*
X13266950Y-9510450D01*
X13266950Y-9100450D02*
X12856950Y-9510450D01*
X13266950Y-9305450D02*
G75*
G02*
X12856950Y-9305450I-205000J0D01*
G01*
X12856950Y-9305450D02*
G75*
G02*
X13266950Y-9305450I205000J0D01*
G01*
X12856950Y-10960450D02*
X13266950Y-11370450D01*
X13266950Y-10960450D02*
X12856950Y-11370450D01*
X13266950Y-11165450D02*
G75*
G02*
X12856950Y-11165450I-205000J0D01*
G01*
X12856950Y-11165450D02*
G75*
G02*
X13266950Y-11165450I205000J0D01*
G01*
X14720950Y-7500450D02*
X15130950Y-7910450D01*
X15130950Y-7500450D02*
X14720950Y-7910450D01*
X15130950Y-7705450D02*
G75*
G02*
X14720950Y-7705450I-205000J0D01*
G01*
X14720950Y-7705450D02*
G75*
G02*
X15130950Y-7705450I205000J0D01*
G01*
X14720950Y-9360450D02*
X15130950Y-9770450D01*
X15130950Y-9360450D02*
X14720950Y-9770450D01*
X15130950Y-9565450D02*
G75*
G02*
X14720950Y-9565450I-205000J0D01*
G01*
X14720950Y-9565450D02*
G75*
G02*
X15130950Y-9565450I205000J0D01*
G01*
X14720950Y-11220450D02*
X15130950Y-11630450D01*
X15130950Y-11220450D02*
X14720950Y-11630450D01*
X15130950Y-11425450D02*
G75*
G02*
X14720950Y-11425450I-205000J0D01*
G01*
X14720950Y-11425450D02*
G75*
G02*
X15130950Y-11425450I205000J0D01*
G01*
X14917988Y-13586400D02*
X15327988Y-13996400D01*
X15327988Y-13586400D02*
X14917988Y-13996400D01*
X15327988Y-13791400D02*
G75*
G02*
X14917988Y-13791400I-205000J0D01*
G01*
X14917988Y-13791400D02*
G75*
G02*
X15327988Y-13791400I205000J0D01*
G01*
X16829988Y-14067400D02*
X17239988Y-14477400D01*
X17239988Y-14067400D02*
X16829988Y-14477400D01*
X17239988Y-14272400D02*
G75*
G02*
X16829988Y-14272400I-205000J0D01*
G01*
X16829988Y-14272400D02*
G75*
G02*
X17239988Y-14272400I205000J0D01*
G01*
X18630950Y-14872400D02*
X19040950Y-15282400D01*
X19040950Y-14872400D02*
X18630950Y-15282400D01*
X19040950Y-15077400D02*
G75*
G02*
X18630950Y-15077400I-205000J0D01*
G01*
X18630950Y-15077400D02*
G75*
G02*
X19040950Y-15077400I205000J0D01*
G01*
X21807700Y-14872525D02*
X22217700Y-15282525D01*
X22217700Y-14872525D02*
X21807700Y-15282525D01*
X22217700Y-15077525D02*
G75*
G02*
X21807700Y-15077525I-205000J0D01*
G01*
X21807700Y-15077525D02*
G75*
G02*
X22217700Y-15077525I205000J0D01*
G01*
X23608689Y-14067491D02*
X24018689Y-14477491D01*
X24018689Y-14067491D02*
X23608689Y-14477491D01*
X24018689Y-14272491D02*
G75*
G02*
X23608689Y-14272491I-205000J0D01*
G01*
X23608689Y-14272491D02*
G75*
G02*
X24018689Y-14272491I205000J0D01*
G01*
X25520690Y-13586405D02*
X25930690Y-13996405D01*
X25930690Y-13586405D02*
X25520690Y-13996405D01*
X25930690Y-13791405D02*
G75*
G02*
X25520690Y-13791405I-205000J0D01*
G01*
X25520690Y-13791405D02*
G75*
G02*
X25930690Y-13791405I205000J0D01*
G01*
X25717050Y-7501000D02*
X26127050Y-7911000D01*
X26127050Y-7501000D02*
X25717050Y-7911000D01*
X26127050Y-7706000D02*
G75*
G02*
X25717050Y-7706000I-205000J0D01*
G01*
X25717050Y-7706000D02*
G75*
G02*
X26127050Y-7706000I205000J0D01*
G01*
X25717750Y-9360500D02*
X26127750Y-9770500D01*
X26127750Y-9360500D02*
X25717750Y-9770500D01*
X26127750Y-9565500D02*
G75*
G02*
X25717750Y-9565500I-205000J0D01*
G01*
X25717750Y-9565500D02*
G75*
G02*
X26127750Y-9565500I205000J0D01*
G01*
X25717750Y-11220500D02*
X26127750Y-11630500D01*
X26127750Y-11220500D02*
X25717750Y-11630500D01*
X26127750Y-11425500D02*
G75*
G02*
X25717750Y-11425500I-205000J0D01*
G01*
X25717750Y-11425500D02*
G75*
G02*
X26127750Y-11425500I205000J0D01*
G01*
X27581750Y-7240500D02*
X27991750Y-7650500D01*
X27991750Y-7240500D02*
X27581750Y-7650500D01*
X27991750Y-7445500D02*
G75*
G02*
X27581750Y-7445500I-205000J0D01*
G01*
X27581750Y-7445500D02*
G75*
G02*
X27991750Y-7445500I205000J0D01*
G01*
X27581750Y-9100500D02*
X27991750Y-9510500D01*
X27991750Y-9100500D02*
X27581750Y-9510500D01*
X27991750Y-9305500D02*
G75*
G02*
X27581750Y-9305500I-205000J0D01*
G01*
X27581750Y-9305500D02*
G75*
G02*
X27991750Y-9305500I205000J0D01*
G01*
X27581750Y-10960500D02*
X27991750Y-11370500D01*
X27991750Y-10960500D02*
X27581750Y-11370500D01*
X27991750Y-11165500D02*
G75*
G02*
X27581750Y-11165500I-205000J0D01*
G01*
X27581750Y-11165500D02*
G75*
G02*
X27991750Y-11165500I205000J0D01*
G01*
X29445750Y-6750500D02*
X29855750Y-7160500D01*
X29855750Y-6750500D02*
X29445750Y-7160500D01*
X29855750Y-6955500D02*
G75*
G02*
X29445750Y-6955500I-205000J0D01*
G01*
X29445750Y-6955500D02*
G75*
G02*
X29855750Y-6955500I205000J0D01*
G01*
X29445750Y-8610500D02*
X29855750Y-9020500D01*
X29855750Y-8610500D02*
X29445750Y-9020500D01*
X29855750Y-8815500D02*
G75*
G02*
X29445750Y-8815500I-205000J0D01*
G01*
X29445750Y-8815500D02*
G75*
G02*
X29855750Y-8815500I205000J0D01*
G01*
X29445750Y-10470500D02*
X29855750Y-10880500D01*
X29855750Y-10470500D02*
X29445750Y-10880500D01*
X29855750Y-10675500D02*
G75*
G02*
X29445750Y-10675500I-205000J0D01*
G01*
X29445750Y-10675500D02*
G75*
G02*
X29855750Y-10675500I205000J0D01*
G01*
X31309750Y-7250500D02*
X31719750Y-7660500D01*
X31719750Y-7250500D02*
X31309750Y-7660500D01*
X31719750Y-7455500D02*
G75*
G02*
X31309750Y-7455500I-205000J0D01*
G01*
X31309750Y-7455500D02*
G75*
G02*
X31719750Y-7455500I205000J0D01*
G01*
X31309750Y-9110500D02*
X31719750Y-9520500D01*
X31719750Y-9110500D02*
X31309750Y-9520500D01*
X31719750Y-9315500D02*
G75*
G02*
X31309750Y-9315500I-205000J0D01*
G01*
X31309750Y-9315500D02*
G75*
G02*
X31719750Y-9315500I205000J0D01*
G01*
X31309750Y-10970500D02*
X31719750Y-11380500D01*
X31719750Y-10970500D02*
X31309750Y-11380500D01*
X31719750Y-11175500D02*
G75*
G02*
X31309750Y-11175500I-205000J0D01*
G01*
X31309750Y-11175500D02*
G75*
G02*
X31719750Y-11175500I205000J0D01*
G01*
X33173750Y-8500500D02*
X33583750Y-8910500D01*
X33583750Y-8500500D02*
X33173750Y-8910500D01*
X33583750Y-8705500D02*
G75*
G02*
X33173750Y-8705500I-205000J0D01*
G01*
X33173750Y-8705500D02*
G75*
G02*
X33583750Y-8705500I205000J0D01*
G01*
X33173750Y-10360500D02*
X33583750Y-10770500D01*
X33583750Y-10360500D02*
X33173750Y-10770500D01*
X33583750Y-10565500D02*
G75*
G02*
X33173750Y-10565500I-205000J0D01*
G01*
X33173750Y-10565500D02*
G75*
G02*
X33583750Y-10565500I205000J0D01*
G01*
X33173750Y-12220500D02*
X33583750Y-12630500D01*
X33583750Y-12220500D02*
X33173750Y-12630500D01*
X33583750Y-12425500D02*
G75*
G02*
X33173750Y-12425500I-205000J0D01*
G01*
X33173750Y-12425500D02*
G75*
G02*
X33583750Y-12425500I205000J0D01*
G01*
X35037750Y-9200500D02*
X35447750Y-9610500D01*
X35447750Y-9200500D02*
X35037750Y-9610500D01*
X35447750Y-9405500D02*
G75*
G02*
X35037750Y-9405500I-205000J0D01*
G01*
X35037750Y-9405500D02*
G75*
G02*
X35447750Y-9405500I205000J0D01*
G01*
X35037750Y-11060500D02*
X35447750Y-11470500D01*
X35447750Y-11060500D02*
X35037750Y-11470500D01*
X35447750Y-11265500D02*
G75*
G02*
X35037750Y-11265500I-205000J0D01*
G01*
X35037750Y-11265500D02*
G75*
G02*
X35447750Y-11265500I205000J0D01*
G01*
X35037750Y-12920500D02*
X35447750Y-13330500D01*
X35447750Y-12920500D02*
X35037750Y-13330500D01*
X35447750Y-13125500D02*
G75*
G02*
X35037750Y-13125500I-205000J0D01*
G01*
X35037750Y-13125500D02*
G75*
G02*
X35447750Y-13125500I205000J0D01*
G01*
D10*
X4611527Y-17629484D02*
X4611527Y-17429484D01*
X4611527Y-17429484D02*
X4659146Y-17429484D01*
X4659146Y-17429484D02*
X4687717Y-17439008D01*
X4687717Y-17439008D02*
X4706765Y-17458055D01*
X4706765Y-17458055D02*
X4716288Y-17477103D01*
X4716288Y-17477103D02*
X4725812Y-17515198D01*
X4725812Y-17515198D02*
X4725812Y-17543770D01*
X4725812Y-17543770D02*
X4716288Y-17581865D01*
X4716288Y-17581865D02*
X4706765Y-17600913D01*
X4706765Y-17600913D02*
X4687717Y-17619960D01*
X4687717Y-17619960D02*
X4659146Y-17629484D01*
X4659146Y-17629484D02*
X4611527Y-17629484D01*
X4811527Y-17629484D02*
X4811527Y-17496151D01*
X4811527Y-17534246D02*
X4821050Y-17515198D01*
X4821050Y-17515198D02*
X4830574Y-17505674D01*
X4830574Y-17505674D02*
X4849622Y-17496151D01*
X4849622Y-17496151D02*
X4868669Y-17496151D01*
X4935336Y-17629484D02*
X4935336Y-17496151D01*
X4935336Y-17429484D02*
X4925812Y-17439008D01*
X4925812Y-17439008D02*
X4935336Y-17448532D01*
X4935336Y-17448532D02*
X4944860Y-17439008D01*
X4944860Y-17439008D02*
X4935336Y-17429484D01*
X4935336Y-17429484D02*
X4935336Y-17448532D01*
X5059146Y-17629484D02*
X5040098Y-17619960D01*
X5040098Y-17619960D02*
X5030574Y-17600913D01*
X5030574Y-17600913D02*
X5030574Y-17429484D01*
X5163907Y-17629484D02*
X5144860Y-17619960D01*
X5144860Y-17619960D02*
X5135336Y-17600913D01*
X5135336Y-17600913D02*
X5135336Y-17429484D01*
X5392479Y-17629484D02*
X5392479Y-17429484D01*
X5392479Y-17429484D02*
X5459146Y-17572341D01*
X5459146Y-17572341D02*
X5525812Y-17429484D01*
X5525812Y-17429484D02*
X5525812Y-17629484D01*
X5706765Y-17629484D02*
X5706765Y-17524722D01*
X5706765Y-17524722D02*
X5697241Y-17505674D01*
X5697241Y-17505674D02*
X5678193Y-17496151D01*
X5678193Y-17496151D02*
X5640098Y-17496151D01*
X5640098Y-17496151D02*
X5621050Y-17505674D01*
X5706765Y-17619960D02*
X5687717Y-17629484D01*
X5687717Y-17629484D02*
X5640098Y-17629484D01*
X5640098Y-17629484D02*
X5621050Y-17619960D01*
X5621050Y-17619960D02*
X5611526Y-17600913D01*
X5611526Y-17600913D02*
X5611526Y-17581865D01*
X5611526Y-17581865D02*
X5621050Y-17562817D01*
X5621050Y-17562817D02*
X5640098Y-17553294D01*
X5640098Y-17553294D02*
X5687717Y-17553294D01*
X5687717Y-17553294D02*
X5706765Y-17543770D01*
X5802003Y-17496151D02*
X5802003Y-17696151D01*
X5802003Y-17505674D02*
X5821050Y-17496151D01*
X5821050Y-17496151D02*
X5859146Y-17496151D01*
X5859146Y-17496151D02*
X5878193Y-17505674D01*
X5878193Y-17505674D02*
X5887717Y-17515198D01*
X5887717Y-17515198D02*
X5897241Y-17534246D01*
X5897241Y-17534246D02*
X5897241Y-17591389D01*
X5897241Y-17591389D02*
X5887717Y-17610436D01*
X5887717Y-17610436D02*
X5878193Y-17619960D01*
X5878193Y-17619960D02*
X5859146Y-17629484D01*
X5859146Y-17629484D02*
X5821050Y-17629484D01*
X5821050Y-17629484D02*
X5802003Y-17619960D01*
X5982955Y-17610436D02*
X5992479Y-17619960D01*
X5992479Y-17619960D02*
X5982955Y-17629484D01*
X5982955Y-17629484D02*
X5973431Y-17619960D01*
X5973431Y-17619960D02*
X5982955Y-17610436D01*
X5982955Y-17610436D02*
X5982955Y-17629484D01*
X5982955Y-17505674D02*
X5992479Y-17515198D01*
X5992479Y-17515198D02*
X5982955Y-17524722D01*
X5982955Y-17524722D02*
X5973431Y-17515198D01*
X5973431Y-17515198D02*
X5982955Y-17505674D01*
X5982955Y-17505674D02*
X5982955Y-17524722D01*
D11*
X4300750Y-17933000D02*
X4350750Y-17983000D01*
X4350750Y-17933000D02*
X4300750Y-17983000D01*
D10*
X4649622Y-17849484D02*
X4668669Y-17849484D01*
X4668669Y-17849484D02*
X4687717Y-17859008D01*
X4687717Y-17859008D02*
X4697241Y-17868532D01*
X4697241Y-17868532D02*
X4706765Y-17887579D01*
X4706765Y-17887579D02*
X4716288Y-17925674D01*
X4716288Y-17925674D02*
X4716288Y-17973294D01*
X4716288Y-17973294D02*
X4706765Y-18011389D01*
X4706765Y-18011389D02*
X4697241Y-18030436D01*
X4697241Y-18030436D02*
X4687717Y-18039960D01*
X4687717Y-18039960D02*
X4668669Y-18049484D01*
X4668669Y-18049484D02*
X4649622Y-18049484D01*
X4649622Y-18049484D02*
X4630574Y-18039960D01*
X4630574Y-18039960D02*
X4621050Y-18030436D01*
X4621050Y-18030436D02*
X4611527Y-18011389D01*
X4611527Y-18011389D02*
X4602003Y-17973294D01*
X4602003Y-17973294D02*
X4602003Y-17925674D01*
X4602003Y-17925674D02*
X4611527Y-17887579D01*
X4611527Y-17887579D02*
X4621050Y-17868532D01*
X4621050Y-17868532D02*
X4630574Y-17859008D01*
X4630574Y-17859008D02*
X4649622Y-17849484D01*
X4802003Y-18030436D02*
X4811527Y-18039960D01*
X4811527Y-18039960D02*
X4802003Y-18049484D01*
X4802003Y-18049484D02*
X4792479Y-18039960D01*
X4792479Y-18039960D02*
X4802003Y-18030436D01*
X4802003Y-18030436D02*
X4802003Y-18049484D01*
X4992479Y-17849484D02*
X4897241Y-17849484D01*
X4897241Y-17849484D02*
X4887717Y-17944722D01*
X4887717Y-17944722D02*
X4897241Y-17935198D01*
X4897241Y-17935198D02*
X4916288Y-17925674D01*
X4916288Y-17925674D02*
X4963908Y-17925674D01*
X4963908Y-17925674D02*
X4982955Y-17935198D01*
X4982955Y-17935198D02*
X4992479Y-17944722D01*
X4992479Y-17944722D02*
X5002003Y-17963770D01*
X5002003Y-17963770D02*
X5002003Y-18011389D01*
X5002003Y-18011389D02*
X4992479Y-18030436D01*
X4992479Y-18030436D02*
X4982955Y-18039960D01*
X4982955Y-18039960D02*
X4963908Y-18049484D01*
X4963908Y-18049484D02*
X4916288Y-18049484D01*
X4916288Y-18049484D02*
X4897241Y-18039960D01*
X4897241Y-18039960D02*
X4887717Y-18030436D01*
X5125812Y-17849484D02*
X5144860Y-17849484D01*
X5144860Y-17849484D02*
X5163908Y-17859008D01*
X5163908Y-17859008D02*
X5173431Y-17868532D01*
X5173431Y-17868532D02*
X5182955Y-17887579D01*
X5182955Y-17887579D02*
X5192479Y-17925674D01*
X5192479Y-17925674D02*
X5192479Y-17973294D01*
X5192479Y-17973294D02*
X5182955Y-18011389D01*
X5182955Y-18011389D02*
X5173431Y-18030436D01*
X5173431Y-18030436D02*
X5163908Y-18039960D01*
X5163908Y-18039960D02*
X5144860Y-18049484D01*
X5144860Y-18049484D02*
X5125812Y-18049484D01*
X5125812Y-18049484D02*
X5106765Y-18039960D01*
X5106765Y-18039960D02*
X5097241Y-18030436D01*
X5097241Y-18030436D02*
X5087717Y-18011389D01*
X5087717Y-18011389D02*
X5078193Y-17973294D01*
X5078193Y-17973294D02*
X5078193Y-17925674D01*
X5078193Y-17925674D02*
X5087717Y-17887579D01*
X5087717Y-17887579D02*
X5097241Y-17868532D01*
X5097241Y-17868532D02*
X5106765Y-17859008D01*
X5106765Y-17859008D02*
X5125812Y-17849484D01*
X5316288Y-17849484D02*
X5335336Y-17849484D01*
X5335336Y-17849484D02*
X5354384Y-17859008D01*
X5354384Y-17859008D02*
X5363908Y-17868532D01*
X5363908Y-17868532D02*
X5373431Y-17887579D01*
X5373431Y-17887579D02*
X5382955Y-17925674D01*
X5382955Y-17925674D02*
X5382955Y-17973294D01*
X5382955Y-17973294D02*
X5373431Y-18011389D01*
X5373431Y-18011389D02*
X5363908Y-18030436D01*
X5363908Y-18030436D02*
X5354384Y-18039960D01*
X5354384Y-18039960D02*
X5335336Y-18049484D01*
X5335336Y-18049484D02*
X5316288Y-18049484D01*
X5316288Y-18049484D02*
X5297241Y-18039960D01*
X5297241Y-18039960D02*
X5287717Y-18030436D01*
X5287717Y-18030436D02*
X5278193Y-18011389D01*
X5278193Y-18011389D02*
X5268669Y-17973294D01*
X5268669Y-17973294D02*
X5268669Y-17925674D01*
X5268669Y-17925674D02*
X5278193Y-17887579D01*
X5278193Y-17887579D02*
X5287717Y-17868532D01*
X5287717Y-17868532D02*
X5297241Y-17859008D01*
X5297241Y-17859008D02*
X5316288Y-17849484D01*
X5468669Y-18049484D02*
X5468669Y-17916151D01*
X5468669Y-17935198D02*
X5478193Y-17925674D01*
X5478193Y-17925674D02*
X5497241Y-17916151D01*
X5497241Y-17916151D02*
X5525812Y-17916151D01*
X5525812Y-17916151D02*
X5544860Y-17925674D01*
X5544860Y-17925674D02*
X5554384Y-17944722D01*
X5554384Y-17944722D02*
X5554384Y-18049484D01*
X5554384Y-17944722D02*
X5563908Y-17925674D01*
X5563908Y-17925674D02*
X5582955Y-17916151D01*
X5582955Y-17916151D02*
X5611526Y-17916151D01*
X5611526Y-17916151D02*
X5630574Y-17925674D01*
X5630574Y-17925674D02*
X5640098Y-17944722D01*
X5640098Y-17944722D02*
X5640098Y-18049484D01*
X5735336Y-18049484D02*
X5735336Y-17916151D01*
X5735336Y-17935198D02*
X5744860Y-17925674D01*
X5744860Y-17925674D02*
X5763907Y-17916151D01*
X5763907Y-17916151D02*
X5792479Y-17916151D01*
X5792479Y-17916151D02*
X5811527Y-17925674D01*
X5811527Y-17925674D02*
X5821050Y-17944722D01*
X5821050Y-17944722D02*
X5821050Y-18049484D01*
X5821050Y-17944722D02*
X5830574Y-17925674D01*
X5830574Y-17925674D02*
X5849622Y-17916151D01*
X5849622Y-17916151D02*
X5878193Y-17916151D01*
X5878193Y-17916151D02*
X5897241Y-17925674D01*
X5897241Y-17925674D02*
X5906765Y-17944722D01*
X5906765Y-17944722D02*
X5906765Y-18049484D01*
X6297241Y-17839960D02*
X6125812Y-18097103D01*
X6554384Y-17849484D02*
X6573431Y-17849484D01*
X6573431Y-17849484D02*
X6592479Y-17859008D01*
X6592479Y-17859008D02*
X6602003Y-17868532D01*
X6602003Y-17868532D02*
X6611527Y-17887579D01*
X6611527Y-17887579D02*
X6621050Y-17925674D01*
X6621050Y-17925674D02*
X6621050Y-17973294D01*
X6621050Y-17973294D02*
X6611527Y-18011389D01*
X6611527Y-18011389D02*
X6602003Y-18030436D01*
X6602003Y-18030436D02*
X6592479Y-18039960D01*
X6592479Y-18039960D02*
X6573431Y-18049484D01*
X6573431Y-18049484D02*
X6554384Y-18049484D01*
X6554384Y-18049484D02*
X6535336Y-18039960D01*
X6535336Y-18039960D02*
X6525812Y-18030436D01*
X6525812Y-18030436D02*
X6516289Y-18011389D01*
X6516289Y-18011389D02*
X6506765Y-17973294D01*
X6506765Y-17973294D02*
X6506765Y-17925674D01*
X6506765Y-17925674D02*
X6516289Y-17887579D01*
X6516289Y-17887579D02*
X6525812Y-17868532D01*
X6525812Y-17868532D02*
X6535336Y-17859008D01*
X6535336Y-17859008D02*
X6554384Y-17849484D01*
X6706765Y-18030436D02*
X6716289Y-18039960D01*
X6716289Y-18039960D02*
X6706765Y-18049484D01*
X6706765Y-18049484D02*
X6697241Y-18039960D01*
X6697241Y-18039960D02*
X6706765Y-18030436D01*
X6706765Y-18030436D02*
X6706765Y-18049484D01*
X6840098Y-17849484D02*
X6859146Y-17849484D01*
X6859146Y-17849484D02*
X6878193Y-17859008D01*
X6878193Y-17859008D02*
X6887717Y-17868532D01*
X6887717Y-17868532D02*
X6897241Y-17887579D01*
X6897241Y-17887579D02*
X6906765Y-17925674D01*
X6906765Y-17925674D02*
X6906765Y-17973294D01*
X6906765Y-17973294D02*
X6897241Y-18011389D01*
X6897241Y-18011389D02*
X6887717Y-18030436D01*
X6887717Y-18030436D02*
X6878193Y-18039960D01*
X6878193Y-18039960D02*
X6859146Y-18049484D01*
X6859146Y-18049484D02*
X6840098Y-18049484D01*
X6840098Y-18049484D02*
X6821050Y-18039960D01*
X6821050Y-18039960D02*
X6811527Y-18030436D01*
X6811527Y-18030436D02*
X6802003Y-18011389D01*
X6802003Y-18011389D02*
X6792479Y-17973294D01*
X6792479Y-17973294D02*
X6792479Y-17925674D01*
X6792479Y-17925674D02*
X6802003Y-17887579D01*
X6802003Y-17887579D02*
X6811527Y-17868532D01*
X6811527Y-17868532D02*
X6821050Y-17859008D01*
X6821050Y-17859008D02*
X6840098Y-17849484D01*
X7097241Y-18049484D02*
X6982955Y-18049484D01*
X7040098Y-18049484D02*
X7040098Y-17849484D01*
X7040098Y-17849484D02*
X7021050Y-17878055D01*
X7021050Y-17878055D02*
X7002003Y-17897103D01*
X7002003Y-17897103D02*
X6982955Y-17906627D01*
X7192479Y-18049484D02*
X7230574Y-18049484D01*
X7230574Y-18049484D02*
X7249622Y-18039960D01*
X7249622Y-18039960D02*
X7259146Y-18030436D01*
X7259146Y-18030436D02*
X7278193Y-18001865D01*
X7278193Y-18001865D02*
X7287717Y-17963770D01*
X7287717Y-17963770D02*
X7287717Y-17887579D01*
X7287717Y-17887579D02*
X7278193Y-17868532D01*
X7278193Y-17868532D02*
X7268670Y-17859008D01*
X7268670Y-17859008D02*
X7249622Y-17849484D01*
X7249622Y-17849484D02*
X7211527Y-17849484D01*
X7211527Y-17849484D02*
X7192479Y-17859008D01*
X7192479Y-17859008D02*
X7182955Y-17868532D01*
X7182955Y-17868532D02*
X7173431Y-17887579D01*
X7173431Y-17887579D02*
X7173431Y-17935198D01*
X7173431Y-17935198D02*
X7182955Y-17954246D01*
X7182955Y-17954246D02*
X7192479Y-17963770D01*
X7192479Y-17963770D02*
X7211527Y-17973294D01*
X7211527Y-17973294D02*
X7249622Y-17973294D01*
X7249622Y-17973294D02*
X7268670Y-17963770D01*
X7268670Y-17963770D02*
X7278193Y-17954246D01*
X7278193Y-17954246D02*
X7287717Y-17935198D01*
X7354384Y-17849484D02*
X7487717Y-17849484D01*
X7487717Y-17849484D02*
X7402003Y-18049484D01*
X7554384Y-17849484D02*
X7554384Y-17887579D01*
X7630574Y-17849484D02*
X7630574Y-17887579D01*
X7925813Y-18125674D02*
X7916289Y-18116151D01*
X7916289Y-18116151D02*
X7897241Y-18087579D01*
X7897241Y-18087579D02*
X7887717Y-18068532D01*
X7887717Y-18068532D02*
X7878193Y-18039960D01*
X7878193Y-18039960D02*
X7868670Y-17992341D01*
X7868670Y-17992341D02*
X7868670Y-17954246D01*
X7868670Y-17954246D02*
X7878193Y-17906627D01*
X7878193Y-17906627D02*
X7887717Y-17878055D01*
X7887717Y-17878055D02*
X7897241Y-17859008D01*
X7897241Y-17859008D02*
X7916289Y-17830436D01*
X7916289Y-17830436D02*
X7925813Y-17820913D01*
X8097241Y-17849484D02*
X8002003Y-17849484D01*
X8002003Y-17849484D02*
X7992479Y-17944722D01*
X7992479Y-17944722D02*
X8002003Y-17935198D01*
X8002003Y-17935198D02*
X8021051Y-17925674D01*
X8021051Y-17925674D02*
X8068670Y-17925674D01*
X8068670Y-17925674D02*
X8087717Y-17935198D01*
X8087717Y-17935198D02*
X8097241Y-17944722D01*
X8097241Y-17944722D02*
X8106765Y-17963770D01*
X8106765Y-17963770D02*
X8106765Y-18011389D01*
X8106765Y-18011389D02*
X8097241Y-18030436D01*
X8097241Y-18030436D02*
X8087717Y-18039960D01*
X8087717Y-18039960D02*
X8068670Y-18049484D01*
X8068670Y-18049484D02*
X8021051Y-18049484D01*
X8021051Y-18049484D02*
X8002003Y-18039960D01*
X8002003Y-18039960D02*
X7992479Y-18030436D01*
X8278193Y-17849484D02*
X8240098Y-17849484D01*
X8240098Y-17849484D02*
X8221051Y-17859008D01*
X8221051Y-17859008D02*
X8211527Y-17868532D01*
X8211527Y-17868532D02*
X8192479Y-17897103D01*
X8192479Y-17897103D02*
X8182955Y-17935198D01*
X8182955Y-17935198D02*
X8182955Y-18011389D01*
X8182955Y-18011389D02*
X8192479Y-18030436D01*
X8192479Y-18030436D02*
X8202003Y-18039960D01*
X8202003Y-18039960D02*
X8221051Y-18049484D01*
X8221051Y-18049484D02*
X8259146Y-18049484D01*
X8259146Y-18049484D02*
X8278193Y-18039960D01*
X8278193Y-18039960D02*
X8287717Y-18030436D01*
X8287717Y-18030436D02*
X8297241Y-18011389D01*
X8297241Y-18011389D02*
X8297241Y-17963770D01*
X8297241Y-17963770D02*
X8287717Y-17944722D01*
X8287717Y-17944722D02*
X8278193Y-17935198D01*
X8278193Y-17935198D02*
X8259146Y-17925674D01*
X8259146Y-17925674D02*
X8221051Y-17925674D01*
X8221051Y-17925674D02*
X8202003Y-17935198D01*
X8202003Y-17935198D02*
X8192479Y-17944722D01*
X8192479Y-17944722D02*
X8182955Y-17963770D01*
X8535336Y-18049484D02*
X8535336Y-17849484D01*
X8621051Y-18049484D02*
X8621051Y-17944722D01*
X8621051Y-17944722D02*
X8611527Y-17925674D01*
X8611527Y-17925674D02*
X8592479Y-17916151D01*
X8592479Y-17916151D02*
X8563908Y-17916151D01*
X8563908Y-17916151D02*
X8544860Y-17925674D01*
X8544860Y-17925674D02*
X8535336Y-17935198D01*
X8744860Y-18049484D02*
X8725813Y-18039960D01*
X8725813Y-18039960D02*
X8716289Y-18030436D01*
X8716289Y-18030436D02*
X8706765Y-18011389D01*
X8706765Y-18011389D02*
X8706765Y-17954246D01*
X8706765Y-17954246D02*
X8716289Y-17935198D01*
X8716289Y-17935198D02*
X8725813Y-17925674D01*
X8725813Y-17925674D02*
X8744860Y-17916151D01*
X8744860Y-17916151D02*
X8773432Y-17916151D01*
X8773432Y-17916151D02*
X8792479Y-17925674D01*
X8792479Y-17925674D02*
X8802003Y-17935198D01*
X8802003Y-17935198D02*
X8811527Y-17954246D01*
X8811527Y-17954246D02*
X8811527Y-18011389D01*
X8811527Y-18011389D02*
X8802003Y-18030436D01*
X8802003Y-18030436D02*
X8792479Y-18039960D01*
X8792479Y-18039960D02*
X8773432Y-18049484D01*
X8773432Y-18049484D02*
X8744860Y-18049484D01*
X8925813Y-18049484D02*
X8906765Y-18039960D01*
X8906765Y-18039960D02*
X8897241Y-18020913D01*
X8897241Y-18020913D02*
X8897241Y-17849484D01*
X9078194Y-18039960D02*
X9059146Y-18049484D01*
X9059146Y-18049484D02*
X9021051Y-18049484D01*
X9021051Y-18049484D02*
X9002003Y-18039960D01*
X9002003Y-18039960D02*
X8992479Y-18020913D01*
X8992479Y-18020913D02*
X8992479Y-17944722D01*
X8992479Y-17944722D02*
X9002003Y-17925674D01*
X9002003Y-17925674D02*
X9021051Y-17916151D01*
X9021051Y-17916151D02*
X9059146Y-17916151D01*
X9059146Y-17916151D02*
X9078194Y-17925674D01*
X9078194Y-17925674D02*
X9087717Y-17944722D01*
X9087717Y-17944722D02*
X9087717Y-17963770D01*
X9087717Y-17963770D02*
X8992479Y-17982817D01*
X9163908Y-18039960D02*
X9182956Y-18049484D01*
X9182956Y-18049484D02*
X9221051Y-18049484D01*
X9221051Y-18049484D02*
X9240098Y-18039960D01*
X9240098Y-18039960D02*
X9249622Y-18020913D01*
X9249622Y-18020913D02*
X9249622Y-18011389D01*
X9249622Y-18011389D02*
X9240098Y-17992341D01*
X9240098Y-17992341D02*
X9221051Y-17982817D01*
X9221051Y-17982817D02*
X9192479Y-17982817D01*
X9192479Y-17982817D02*
X9173432Y-17973294D01*
X9173432Y-17973294D02*
X9163908Y-17954246D01*
X9163908Y-17954246D02*
X9163908Y-17944722D01*
X9163908Y-17944722D02*
X9173432Y-17925674D01*
X9173432Y-17925674D02*
X9192479Y-17916151D01*
X9192479Y-17916151D02*
X9221051Y-17916151D01*
X9221051Y-17916151D02*
X9240098Y-17925674D01*
X9316289Y-18125674D02*
X9325813Y-18116151D01*
X9325813Y-18116151D02*
X9344860Y-18087579D01*
X9344860Y-18087579D02*
X9354384Y-18068532D01*
X9354384Y-18068532D02*
X9363908Y-18039960D01*
X9363908Y-18039960D02*
X9373432Y-17992341D01*
X9373432Y-17992341D02*
X9373432Y-17954246D01*
X9373432Y-17954246D02*
X9363908Y-17906627D01*
X9363908Y-17906627D02*
X9354384Y-17878055D01*
X9354384Y-17878055D02*
X9344860Y-17859008D01*
X9344860Y-17859008D02*
X9325813Y-17830436D01*
X9325813Y-17830436D02*
X9316289Y-17820913D01*
X9678194Y-18125674D02*
X9668670Y-18116151D01*
X9668670Y-18116151D02*
X9649622Y-18087579D01*
X9649622Y-18087579D02*
X9640098Y-18068532D01*
X9640098Y-18068532D02*
X9630575Y-18039960D01*
X9630575Y-18039960D02*
X9621051Y-17992341D01*
X9621051Y-17992341D02*
X9621051Y-17954246D01*
X9621051Y-17954246D02*
X9630575Y-17906627D01*
X9630575Y-17906627D02*
X9640098Y-17878055D01*
X9640098Y-17878055D02*
X9649622Y-17859008D01*
X9649622Y-17859008D02*
X9668670Y-17830436D01*
X9668670Y-17830436D02*
X9678194Y-17820913D01*
X9754384Y-17916151D02*
X9754384Y-18049484D01*
X9754384Y-17935198D02*
X9763908Y-17925674D01*
X9763908Y-17925674D02*
X9782956Y-17916151D01*
X9782956Y-17916151D02*
X9811527Y-17916151D01*
X9811527Y-17916151D02*
X9830575Y-17925674D01*
X9830575Y-17925674D02*
X9840098Y-17944722D01*
X9840098Y-17944722D02*
X9840098Y-18049484D01*
X9963908Y-18049484D02*
X9944860Y-18039960D01*
X9944860Y-18039960D02*
X9935337Y-18030436D01*
X9935337Y-18030436D02*
X9925813Y-18011389D01*
X9925813Y-18011389D02*
X9925813Y-17954246D01*
X9925813Y-17954246D02*
X9935337Y-17935198D01*
X9935337Y-17935198D02*
X9944860Y-17925674D01*
X9944860Y-17925674D02*
X9963908Y-17916151D01*
X9963908Y-17916151D02*
X9992479Y-17916151D01*
X9992479Y-17916151D02*
X10011527Y-17925674D01*
X10011527Y-17925674D02*
X10021051Y-17935198D01*
X10021051Y-17935198D02*
X10030575Y-17954246D01*
X10030575Y-17954246D02*
X10030575Y-18011389D01*
X10030575Y-18011389D02*
X10021051Y-18030436D01*
X10021051Y-18030436D02*
X10011527Y-18039960D01*
X10011527Y-18039960D02*
X9992479Y-18049484D01*
X9992479Y-18049484D02*
X9963908Y-18049484D01*
X10087718Y-17916151D02*
X10163908Y-17916151D01*
X10116289Y-17849484D02*
X10116289Y-18020913D01*
X10116289Y-18020913D02*
X10125813Y-18039960D01*
X10125813Y-18039960D02*
X10144860Y-18049484D01*
X10144860Y-18049484D02*
X10163908Y-18049484D01*
X10382956Y-17916151D02*
X10382956Y-18116151D01*
X10382956Y-17925674D02*
X10402003Y-17916151D01*
X10402003Y-17916151D02*
X10440099Y-17916151D01*
X10440099Y-17916151D02*
X10459146Y-17925674D01*
X10459146Y-17925674D02*
X10468670Y-17935198D01*
X10468670Y-17935198D02*
X10478194Y-17954246D01*
X10478194Y-17954246D02*
X10478194Y-18011389D01*
X10478194Y-18011389D02*
X10468670Y-18030436D01*
X10468670Y-18030436D02*
X10459146Y-18039960D01*
X10459146Y-18039960D02*
X10440099Y-18049484D01*
X10440099Y-18049484D02*
X10402003Y-18049484D01*
X10402003Y-18049484D02*
X10382956Y-18039960D01*
X10592479Y-18049484D02*
X10573432Y-18039960D01*
X10573432Y-18039960D02*
X10563908Y-18020913D01*
X10563908Y-18020913D02*
X10563908Y-17849484D01*
X10754384Y-18049484D02*
X10754384Y-17944722D01*
X10754384Y-17944722D02*
X10744860Y-17925674D01*
X10744860Y-17925674D02*
X10725813Y-17916151D01*
X10725813Y-17916151D02*
X10687718Y-17916151D01*
X10687718Y-17916151D02*
X10668670Y-17925674D01*
X10754384Y-18039960D02*
X10735337Y-18049484D01*
X10735337Y-18049484D02*
X10687718Y-18049484D01*
X10687718Y-18049484D02*
X10668670Y-18039960D01*
X10668670Y-18039960D02*
X10659146Y-18020913D01*
X10659146Y-18020913D02*
X10659146Y-18001865D01*
X10659146Y-18001865D02*
X10668670Y-17982817D01*
X10668670Y-17982817D02*
X10687718Y-17973294D01*
X10687718Y-17973294D02*
X10735337Y-17973294D01*
X10735337Y-17973294D02*
X10754384Y-17963770D01*
X10821051Y-17916151D02*
X10897241Y-17916151D01*
X10849622Y-17849484D02*
X10849622Y-18020913D01*
X10849622Y-18020913D02*
X10859146Y-18039960D01*
X10859146Y-18039960D02*
X10878194Y-18049484D01*
X10878194Y-18049484D02*
X10897241Y-18049484D01*
X11040099Y-18039960D02*
X11021051Y-18049484D01*
X11021051Y-18049484D02*
X10982956Y-18049484D01*
X10982956Y-18049484D02*
X10963908Y-18039960D01*
X10963908Y-18039960D02*
X10954384Y-18020913D01*
X10954384Y-18020913D02*
X10954384Y-17944722D01*
X10954384Y-17944722D02*
X10963908Y-17925674D01*
X10963908Y-17925674D02*
X10982956Y-17916151D01*
X10982956Y-17916151D02*
X11021051Y-17916151D01*
X11021051Y-17916151D02*
X11040099Y-17925674D01*
X11040099Y-17925674D02*
X11049622Y-17944722D01*
X11049622Y-17944722D02*
X11049622Y-17963770D01*
X11049622Y-17963770D02*
X10954384Y-17982817D01*
X11221051Y-18049484D02*
X11221051Y-17849484D01*
X11221051Y-18039960D02*
X11202003Y-18049484D01*
X11202003Y-18049484D02*
X11163908Y-18049484D01*
X11163908Y-18049484D02*
X11144860Y-18039960D01*
X11144860Y-18039960D02*
X11135337Y-18030436D01*
X11135337Y-18030436D02*
X11125813Y-18011389D01*
X11125813Y-18011389D02*
X11125813Y-17954246D01*
X11125813Y-17954246D02*
X11135337Y-17935198D01*
X11135337Y-17935198D02*
X11144860Y-17925674D01*
X11144860Y-17925674D02*
X11163908Y-17916151D01*
X11163908Y-17916151D02*
X11202003Y-17916151D01*
X11202003Y-17916151D02*
X11221051Y-17925674D01*
X11297241Y-18125674D02*
X11306765Y-18116151D01*
X11306765Y-18116151D02*
X11325813Y-18087579D01*
X11325813Y-18087579D02*
X11335337Y-18068532D01*
X11335337Y-18068532D02*
X11344860Y-18039960D01*
X11344860Y-18039960D02*
X11354384Y-17992341D01*
X11354384Y-17992341D02*
X11354384Y-17954246D01*
X11354384Y-17954246D02*
X11344860Y-17906627D01*
X11344860Y-17906627D02*
X11335337Y-17878055D01*
X11335337Y-17878055D02*
X11325813Y-17859008D01*
X11325813Y-17859008D02*
X11306765Y-17830436D01*
X11306765Y-17830436D02*
X11297241Y-17820913D01*
D12*
X4350750Y-18222000D02*
G75*
G02*
X4230750Y-18222000I-60000J0D01*
G01*
X4230750Y-18222000D02*
G75*
G02*
X4350750Y-18222000I60000J0D01*
G01*
D10*
X4716288Y-18313484D02*
X4602003Y-18313484D01*
X4659146Y-18313484D02*
X4659146Y-18113484D01*
X4659146Y-18113484D02*
X4640098Y-18142055D01*
X4640098Y-18142055D02*
X4621050Y-18161103D01*
X4621050Y-18161103D02*
X4602003Y-18170627D01*
X4802003Y-18294436D02*
X4811527Y-18303960D01*
X4811527Y-18303960D02*
X4802003Y-18313484D01*
X4802003Y-18313484D02*
X4792479Y-18303960D01*
X4792479Y-18303960D02*
X4802003Y-18294436D01*
X4802003Y-18294436D02*
X4802003Y-18313484D01*
X4887717Y-18132532D02*
X4897241Y-18123008D01*
X4897241Y-18123008D02*
X4916288Y-18113484D01*
X4916288Y-18113484D02*
X4963908Y-18113484D01*
X4963908Y-18113484D02*
X4982955Y-18123008D01*
X4982955Y-18123008D02*
X4992479Y-18132532D01*
X4992479Y-18132532D02*
X5002003Y-18151579D01*
X5002003Y-18151579D02*
X5002003Y-18170627D01*
X5002003Y-18170627D02*
X4992479Y-18199198D01*
X4992479Y-18199198D02*
X4878193Y-18313484D01*
X4878193Y-18313484D02*
X5002003Y-18313484D01*
X5125812Y-18113484D02*
X5144860Y-18113484D01*
X5144860Y-18113484D02*
X5163908Y-18123008D01*
X5163908Y-18123008D02*
X5173431Y-18132532D01*
X5173431Y-18132532D02*
X5182955Y-18151579D01*
X5182955Y-18151579D02*
X5192479Y-18189674D01*
X5192479Y-18189674D02*
X5192479Y-18237294D01*
X5192479Y-18237294D02*
X5182955Y-18275389D01*
X5182955Y-18275389D02*
X5173431Y-18294436D01*
X5173431Y-18294436D02*
X5163908Y-18303960D01*
X5163908Y-18303960D02*
X5144860Y-18313484D01*
X5144860Y-18313484D02*
X5125812Y-18313484D01*
X5125812Y-18313484D02*
X5106765Y-18303960D01*
X5106765Y-18303960D02*
X5097241Y-18294436D01*
X5097241Y-18294436D02*
X5087717Y-18275389D01*
X5087717Y-18275389D02*
X5078193Y-18237294D01*
X5078193Y-18237294D02*
X5078193Y-18189674D01*
X5078193Y-18189674D02*
X5087717Y-18151579D01*
X5087717Y-18151579D02*
X5097241Y-18132532D01*
X5097241Y-18132532D02*
X5106765Y-18123008D01*
X5106765Y-18123008D02*
X5125812Y-18113484D01*
X5316288Y-18113484D02*
X5335336Y-18113484D01*
X5335336Y-18113484D02*
X5354384Y-18123008D01*
X5354384Y-18123008D02*
X5363908Y-18132532D01*
X5363908Y-18132532D02*
X5373431Y-18151579D01*
X5373431Y-18151579D02*
X5382955Y-18189674D01*
X5382955Y-18189674D02*
X5382955Y-18237294D01*
X5382955Y-18237294D02*
X5373431Y-18275389D01*
X5373431Y-18275389D02*
X5363908Y-18294436D01*
X5363908Y-18294436D02*
X5354384Y-18303960D01*
X5354384Y-18303960D02*
X5335336Y-18313484D01*
X5335336Y-18313484D02*
X5316288Y-18313484D01*
X5316288Y-18313484D02*
X5297241Y-18303960D01*
X5297241Y-18303960D02*
X5287717Y-18294436D01*
X5287717Y-18294436D02*
X5278193Y-18275389D01*
X5278193Y-18275389D02*
X5268669Y-18237294D01*
X5268669Y-18237294D02*
X5268669Y-18189674D01*
X5268669Y-18189674D02*
X5278193Y-18151579D01*
X5278193Y-18151579D02*
X5287717Y-18132532D01*
X5287717Y-18132532D02*
X5297241Y-18123008D01*
X5297241Y-18123008D02*
X5316288Y-18113484D01*
X5468669Y-18313484D02*
X5468669Y-18180151D01*
X5468669Y-18199198D02*
X5478193Y-18189674D01*
X5478193Y-18189674D02*
X5497241Y-18180151D01*
X5497241Y-18180151D02*
X5525812Y-18180151D01*
X5525812Y-18180151D02*
X5544860Y-18189674D01*
X5544860Y-18189674D02*
X5554384Y-18208722D01*
X5554384Y-18208722D02*
X5554384Y-18313484D01*
X5554384Y-18208722D02*
X5563908Y-18189674D01*
X5563908Y-18189674D02*
X5582955Y-18180151D01*
X5582955Y-18180151D02*
X5611526Y-18180151D01*
X5611526Y-18180151D02*
X5630574Y-18189674D01*
X5630574Y-18189674D02*
X5640098Y-18208722D01*
X5640098Y-18208722D02*
X5640098Y-18313484D01*
X5735336Y-18313484D02*
X5735336Y-18180151D01*
X5735336Y-18199198D02*
X5744860Y-18189674D01*
X5744860Y-18189674D02*
X5763907Y-18180151D01*
X5763907Y-18180151D02*
X5792479Y-18180151D01*
X5792479Y-18180151D02*
X5811527Y-18189674D01*
X5811527Y-18189674D02*
X5821050Y-18208722D01*
X5821050Y-18208722D02*
X5821050Y-18313484D01*
X5821050Y-18208722D02*
X5830574Y-18189674D01*
X5830574Y-18189674D02*
X5849622Y-18180151D01*
X5849622Y-18180151D02*
X5878193Y-18180151D01*
X5878193Y-18180151D02*
X5897241Y-18189674D01*
X5897241Y-18189674D02*
X5906765Y-18208722D01*
X5906765Y-18208722D02*
X5906765Y-18313484D01*
X6297241Y-18103960D02*
X6125812Y-18361103D01*
X6554384Y-18113484D02*
X6573431Y-18113484D01*
X6573431Y-18113484D02*
X6592479Y-18123008D01*
X6592479Y-18123008D02*
X6602003Y-18132532D01*
X6602003Y-18132532D02*
X6611527Y-18151579D01*
X6611527Y-18151579D02*
X6621050Y-18189674D01*
X6621050Y-18189674D02*
X6621050Y-18237294D01*
X6621050Y-18237294D02*
X6611527Y-18275389D01*
X6611527Y-18275389D02*
X6602003Y-18294436D01*
X6602003Y-18294436D02*
X6592479Y-18303960D01*
X6592479Y-18303960D02*
X6573431Y-18313484D01*
X6573431Y-18313484D02*
X6554384Y-18313484D01*
X6554384Y-18313484D02*
X6535336Y-18303960D01*
X6535336Y-18303960D02*
X6525812Y-18294436D01*
X6525812Y-18294436D02*
X6516289Y-18275389D01*
X6516289Y-18275389D02*
X6506765Y-18237294D01*
X6506765Y-18237294D02*
X6506765Y-18189674D01*
X6506765Y-18189674D02*
X6516289Y-18151579D01*
X6516289Y-18151579D02*
X6525812Y-18132532D01*
X6525812Y-18132532D02*
X6535336Y-18123008D01*
X6535336Y-18123008D02*
X6554384Y-18113484D01*
X6706765Y-18294436D02*
X6716289Y-18303960D01*
X6716289Y-18303960D02*
X6706765Y-18313484D01*
X6706765Y-18313484D02*
X6697241Y-18303960D01*
X6697241Y-18303960D02*
X6706765Y-18294436D01*
X6706765Y-18294436D02*
X6706765Y-18313484D01*
X6840098Y-18113484D02*
X6859146Y-18113484D01*
X6859146Y-18113484D02*
X6878193Y-18123008D01*
X6878193Y-18123008D02*
X6887717Y-18132532D01*
X6887717Y-18132532D02*
X6897241Y-18151579D01*
X6897241Y-18151579D02*
X6906765Y-18189674D01*
X6906765Y-18189674D02*
X6906765Y-18237294D01*
X6906765Y-18237294D02*
X6897241Y-18275389D01*
X6897241Y-18275389D02*
X6887717Y-18294436D01*
X6887717Y-18294436D02*
X6878193Y-18303960D01*
X6878193Y-18303960D02*
X6859146Y-18313484D01*
X6859146Y-18313484D02*
X6840098Y-18313484D01*
X6840098Y-18313484D02*
X6821050Y-18303960D01*
X6821050Y-18303960D02*
X6811527Y-18294436D01*
X6811527Y-18294436D02*
X6802003Y-18275389D01*
X6802003Y-18275389D02*
X6792479Y-18237294D01*
X6792479Y-18237294D02*
X6792479Y-18189674D01*
X6792479Y-18189674D02*
X6802003Y-18151579D01*
X6802003Y-18151579D02*
X6811527Y-18132532D01*
X6811527Y-18132532D02*
X6821050Y-18123008D01*
X6821050Y-18123008D02*
X6840098Y-18113484D01*
X7078193Y-18180151D02*
X7078193Y-18313484D01*
X7030574Y-18103960D02*
X6982955Y-18246817D01*
X6982955Y-18246817D02*
X7106765Y-18246817D01*
X7163908Y-18113484D02*
X7297241Y-18113484D01*
X7297241Y-18113484D02*
X7211527Y-18313484D01*
X7363908Y-18132532D02*
X7373431Y-18123008D01*
X7373431Y-18123008D02*
X7392479Y-18113484D01*
X7392479Y-18113484D02*
X7440098Y-18113484D01*
X7440098Y-18113484D02*
X7459146Y-18123008D01*
X7459146Y-18123008D02*
X7468670Y-18132532D01*
X7468670Y-18132532D02*
X7478193Y-18151579D01*
X7478193Y-18151579D02*
X7478193Y-18170627D01*
X7478193Y-18170627D02*
X7468670Y-18199198D01*
X7468670Y-18199198D02*
X7354384Y-18313484D01*
X7354384Y-18313484D02*
X7478193Y-18313484D01*
X7554384Y-18113484D02*
X7554384Y-18151579D01*
X7630574Y-18113484D02*
X7630574Y-18151579D01*
X7925813Y-18389674D02*
X7916289Y-18380151D01*
X7916289Y-18380151D02*
X7897241Y-18351579D01*
X7897241Y-18351579D02*
X7887717Y-18332532D01*
X7887717Y-18332532D02*
X7878193Y-18303960D01*
X7878193Y-18303960D02*
X7868670Y-18256341D01*
X7868670Y-18256341D02*
X7868670Y-18218246D01*
X7868670Y-18218246D02*
X7878193Y-18170627D01*
X7878193Y-18170627D02*
X7887717Y-18142055D01*
X7887717Y-18142055D02*
X7897241Y-18123008D01*
X7897241Y-18123008D02*
X7916289Y-18094436D01*
X7916289Y-18094436D02*
X7925813Y-18084913D01*
X8087717Y-18180151D02*
X8087717Y-18313484D01*
X8040098Y-18103960D02*
X7992479Y-18246817D01*
X7992479Y-18246817D02*
X8116289Y-18246817D01*
X8344860Y-18313484D02*
X8344860Y-18113484D01*
X8430575Y-18313484D02*
X8430575Y-18208722D01*
X8430575Y-18208722D02*
X8421051Y-18189674D01*
X8421051Y-18189674D02*
X8402003Y-18180151D01*
X8402003Y-18180151D02*
X8373432Y-18180151D01*
X8373432Y-18180151D02*
X8354384Y-18189674D01*
X8354384Y-18189674D02*
X8344860Y-18199198D01*
X8554384Y-18313484D02*
X8535336Y-18303960D01*
X8535336Y-18303960D02*
X8525813Y-18294436D01*
X8525813Y-18294436D02*
X8516289Y-18275389D01*
X8516289Y-18275389D02*
X8516289Y-18218246D01*
X8516289Y-18218246D02*
X8525813Y-18199198D01*
X8525813Y-18199198D02*
X8535336Y-18189674D01*
X8535336Y-18189674D02*
X8554384Y-18180151D01*
X8554384Y-18180151D02*
X8582956Y-18180151D01*
X8582956Y-18180151D02*
X8602003Y-18189674D01*
X8602003Y-18189674D02*
X8611527Y-18199198D01*
X8611527Y-18199198D02*
X8621051Y-18218246D01*
X8621051Y-18218246D02*
X8621051Y-18275389D01*
X8621051Y-18275389D02*
X8611527Y-18294436D01*
X8611527Y-18294436D02*
X8602003Y-18303960D01*
X8602003Y-18303960D02*
X8582956Y-18313484D01*
X8582956Y-18313484D02*
X8554384Y-18313484D01*
X8735336Y-18313484D02*
X8716289Y-18303960D01*
X8716289Y-18303960D02*
X8706765Y-18284913D01*
X8706765Y-18284913D02*
X8706765Y-18113484D01*
X8887717Y-18303960D02*
X8868670Y-18313484D01*
X8868670Y-18313484D02*
X8830575Y-18313484D01*
X8830575Y-18313484D02*
X8811527Y-18303960D01*
X8811527Y-18303960D02*
X8802003Y-18284913D01*
X8802003Y-18284913D02*
X8802003Y-18208722D01*
X8802003Y-18208722D02*
X8811527Y-18189674D01*
X8811527Y-18189674D02*
X8830575Y-18180151D01*
X8830575Y-18180151D02*
X8868670Y-18180151D01*
X8868670Y-18180151D02*
X8887717Y-18189674D01*
X8887717Y-18189674D02*
X8897241Y-18208722D01*
X8897241Y-18208722D02*
X8897241Y-18227770D01*
X8897241Y-18227770D02*
X8802003Y-18246817D01*
X8973432Y-18303960D02*
X8992479Y-18313484D01*
X8992479Y-18313484D02*
X9030575Y-18313484D01*
X9030575Y-18313484D02*
X9049622Y-18303960D01*
X9049622Y-18303960D02*
X9059146Y-18284913D01*
X9059146Y-18284913D02*
X9059146Y-18275389D01*
X9059146Y-18275389D02*
X9049622Y-18256341D01*
X9049622Y-18256341D02*
X9030575Y-18246817D01*
X9030575Y-18246817D02*
X9002003Y-18246817D01*
X9002003Y-18246817D02*
X8982956Y-18237294D01*
X8982956Y-18237294D02*
X8973432Y-18218246D01*
X8973432Y-18218246D02*
X8973432Y-18208722D01*
X8973432Y-18208722D02*
X8982956Y-18189674D01*
X8982956Y-18189674D02*
X9002003Y-18180151D01*
X9002003Y-18180151D02*
X9030575Y-18180151D01*
X9030575Y-18180151D02*
X9049622Y-18189674D01*
X9125813Y-18389674D02*
X9135337Y-18380151D01*
X9135337Y-18380151D02*
X9154384Y-18351579D01*
X9154384Y-18351579D02*
X9163908Y-18332532D01*
X9163908Y-18332532D02*
X9173432Y-18303960D01*
X9173432Y-18303960D02*
X9182956Y-18256341D01*
X9182956Y-18256341D02*
X9182956Y-18218246D01*
X9182956Y-18218246D02*
X9173432Y-18170627D01*
X9173432Y-18170627D02*
X9163908Y-18142055D01*
X9163908Y-18142055D02*
X9154384Y-18123008D01*
X9154384Y-18123008D02*
X9135337Y-18094436D01*
X9135337Y-18094436D02*
X9125813Y-18084913D01*
X9487718Y-18389674D02*
X9478194Y-18380151D01*
X9478194Y-18380151D02*
X9459146Y-18351579D01*
X9459146Y-18351579D02*
X9449622Y-18332532D01*
X9449622Y-18332532D02*
X9440098Y-18303960D01*
X9440098Y-18303960D02*
X9430575Y-18256341D01*
X9430575Y-18256341D02*
X9430575Y-18218246D01*
X9430575Y-18218246D02*
X9440098Y-18170627D01*
X9440098Y-18170627D02*
X9449622Y-18142055D01*
X9449622Y-18142055D02*
X9459146Y-18123008D01*
X9459146Y-18123008D02*
X9478194Y-18094436D01*
X9478194Y-18094436D02*
X9487718Y-18084913D01*
X9563908Y-18180151D02*
X9563908Y-18313484D01*
X9563908Y-18199198D02*
X9573432Y-18189674D01*
X9573432Y-18189674D02*
X9592479Y-18180151D01*
X9592479Y-18180151D02*
X9621051Y-18180151D01*
X9621051Y-18180151D02*
X9640098Y-18189674D01*
X9640098Y-18189674D02*
X9649622Y-18208722D01*
X9649622Y-18208722D02*
X9649622Y-18313484D01*
X9773432Y-18313484D02*
X9754384Y-18303960D01*
X9754384Y-18303960D02*
X9744860Y-18294436D01*
X9744860Y-18294436D02*
X9735337Y-18275389D01*
X9735337Y-18275389D02*
X9735337Y-18218246D01*
X9735337Y-18218246D02*
X9744860Y-18199198D01*
X9744860Y-18199198D02*
X9754384Y-18189674D01*
X9754384Y-18189674D02*
X9773432Y-18180151D01*
X9773432Y-18180151D02*
X9802003Y-18180151D01*
X9802003Y-18180151D02*
X9821051Y-18189674D01*
X9821051Y-18189674D02*
X9830575Y-18199198D01*
X9830575Y-18199198D02*
X9840098Y-18218246D01*
X9840098Y-18218246D02*
X9840098Y-18275389D01*
X9840098Y-18275389D02*
X9830575Y-18294436D01*
X9830575Y-18294436D02*
X9821051Y-18303960D01*
X9821051Y-18303960D02*
X9802003Y-18313484D01*
X9802003Y-18313484D02*
X9773432Y-18313484D01*
X9897241Y-18180151D02*
X9973432Y-18180151D01*
X9925813Y-18113484D02*
X9925813Y-18284913D01*
X9925813Y-18284913D02*
X9935337Y-18303960D01*
X9935337Y-18303960D02*
X9954384Y-18313484D01*
X9954384Y-18313484D02*
X9973432Y-18313484D01*
X10192479Y-18180151D02*
X10192479Y-18380151D01*
X10192479Y-18189674D02*
X10211527Y-18180151D01*
X10211527Y-18180151D02*
X10249622Y-18180151D01*
X10249622Y-18180151D02*
X10268670Y-18189674D01*
X10268670Y-18189674D02*
X10278194Y-18199198D01*
X10278194Y-18199198D02*
X10287718Y-18218246D01*
X10287718Y-18218246D02*
X10287718Y-18275389D01*
X10287718Y-18275389D02*
X10278194Y-18294436D01*
X10278194Y-18294436D02*
X10268670Y-18303960D01*
X10268670Y-18303960D02*
X10249622Y-18313484D01*
X10249622Y-18313484D02*
X10211527Y-18313484D01*
X10211527Y-18313484D02*
X10192479Y-18303960D01*
X10402003Y-18313484D02*
X10382956Y-18303960D01*
X10382956Y-18303960D02*
X10373432Y-18284913D01*
X10373432Y-18284913D02*
X10373432Y-18113484D01*
X10563908Y-18313484D02*
X10563908Y-18208722D01*
X10563908Y-18208722D02*
X10554384Y-18189674D01*
X10554384Y-18189674D02*
X10535337Y-18180151D01*
X10535337Y-18180151D02*
X10497241Y-18180151D01*
X10497241Y-18180151D02*
X10478194Y-18189674D01*
X10563908Y-18303960D02*
X10544860Y-18313484D01*
X10544860Y-18313484D02*
X10497241Y-18313484D01*
X10497241Y-18313484D02*
X10478194Y-18303960D01*
X10478194Y-18303960D02*
X10468670Y-18284913D01*
X10468670Y-18284913D02*
X10468670Y-18265865D01*
X10468670Y-18265865D02*
X10478194Y-18246817D01*
X10478194Y-18246817D02*
X10497241Y-18237294D01*
X10497241Y-18237294D02*
X10544860Y-18237294D01*
X10544860Y-18237294D02*
X10563908Y-18227770D01*
X10630575Y-18180151D02*
X10706765Y-18180151D01*
X10659146Y-18113484D02*
X10659146Y-18284913D01*
X10659146Y-18284913D02*
X10668670Y-18303960D01*
X10668670Y-18303960D02*
X10687718Y-18313484D01*
X10687718Y-18313484D02*
X10706765Y-18313484D01*
X10849622Y-18303960D02*
X10830575Y-18313484D01*
X10830575Y-18313484D02*
X10792479Y-18313484D01*
X10792479Y-18313484D02*
X10773432Y-18303960D01*
X10773432Y-18303960D02*
X10763908Y-18284913D01*
X10763908Y-18284913D02*
X10763908Y-18208722D01*
X10763908Y-18208722D02*
X10773432Y-18189674D01*
X10773432Y-18189674D02*
X10792479Y-18180151D01*
X10792479Y-18180151D02*
X10830575Y-18180151D01*
X10830575Y-18180151D02*
X10849622Y-18189674D01*
X10849622Y-18189674D02*
X10859146Y-18208722D01*
X10859146Y-18208722D02*
X10859146Y-18227770D01*
X10859146Y-18227770D02*
X10763908Y-18246817D01*
X11030575Y-18313484D02*
X11030575Y-18113484D01*
X11030575Y-18303960D02*
X11011527Y-18313484D01*
X11011527Y-18313484D02*
X10973432Y-18313484D01*
X10973432Y-18313484D02*
X10954384Y-18303960D01*
X10954384Y-18303960D02*
X10944860Y-18294436D01*
X10944860Y-18294436D02*
X10935337Y-18275389D01*
X10935337Y-18275389D02*
X10935337Y-18218246D01*
X10935337Y-18218246D02*
X10944860Y-18199198D01*
X10944860Y-18199198D02*
X10954384Y-18189674D01*
X10954384Y-18189674D02*
X10973432Y-18180151D01*
X10973432Y-18180151D02*
X11011527Y-18180151D01*
X11011527Y-18180151D02*
X11030575Y-18189674D01*
X11106765Y-18389674D02*
X11116289Y-18380151D01*
X11116289Y-18380151D02*
X11135337Y-18351579D01*
X11135337Y-18351579D02*
X11144860Y-18332532D01*
X11144860Y-18332532D02*
X11154384Y-18303960D01*
X11154384Y-18303960D02*
X11163908Y-18256341D01*
X11163908Y-18256341D02*
X11163908Y-18218246D01*
X11163908Y-18218246D02*
X11154384Y-18170627D01*
X11154384Y-18170627D02*
X11144860Y-18142055D01*
X11144860Y-18142055D02*
X11135337Y-18123008D01*
X11135337Y-18123008D02*
X11116289Y-18094436D01*
X11116289Y-18094436D02*
X11106765Y-18084913D01*
D13*
X4255750Y-18391000D02*
X4255750Y-18581000D01*
X4160750Y-18486000D02*
X4350750Y-18486000D01*
D10*
X4716288Y-18577484D02*
X4602003Y-18577484D01*
X4659146Y-18577484D02*
X4659146Y-18377484D01*
X4659146Y-18377484D02*
X4640098Y-18406055D01*
X4640098Y-18406055D02*
X4621050Y-18425103D01*
X4621050Y-18425103D02*
X4602003Y-18434627D01*
X4802003Y-18558436D02*
X4811527Y-18567960D01*
X4811527Y-18567960D02*
X4802003Y-18577484D01*
X4802003Y-18577484D02*
X4792479Y-18567960D01*
X4792479Y-18567960D02*
X4802003Y-18558436D01*
X4802003Y-18558436D02*
X4802003Y-18577484D01*
X4906765Y-18577484D02*
X4944860Y-18577484D01*
X4944860Y-18577484D02*
X4963908Y-18567960D01*
X4963908Y-18567960D02*
X4973431Y-18558436D01*
X4973431Y-18558436D02*
X4992479Y-18529865D01*
X4992479Y-18529865D02*
X5002003Y-18491770D01*
X5002003Y-18491770D02*
X5002003Y-18415579D01*
X5002003Y-18415579D02*
X4992479Y-18396532D01*
X4992479Y-18396532D02*
X4982955Y-18387008D01*
X4982955Y-18387008D02*
X4963908Y-18377484D01*
X4963908Y-18377484D02*
X4925812Y-18377484D01*
X4925812Y-18377484D02*
X4906765Y-18387008D01*
X4906765Y-18387008D02*
X4897241Y-18396532D01*
X4897241Y-18396532D02*
X4887717Y-18415579D01*
X4887717Y-18415579D02*
X4887717Y-18463198D01*
X4887717Y-18463198D02*
X4897241Y-18482246D01*
X4897241Y-18482246D02*
X4906765Y-18491770D01*
X4906765Y-18491770D02*
X4925812Y-18501294D01*
X4925812Y-18501294D02*
X4963908Y-18501294D01*
X4963908Y-18501294D02*
X4982955Y-18491770D01*
X4982955Y-18491770D02*
X4992479Y-18482246D01*
X4992479Y-18482246D02*
X5002003Y-18463198D01*
X5125812Y-18377484D02*
X5144860Y-18377484D01*
X5144860Y-18377484D02*
X5163908Y-18387008D01*
X5163908Y-18387008D02*
X5173431Y-18396532D01*
X5173431Y-18396532D02*
X5182955Y-18415579D01*
X5182955Y-18415579D02*
X5192479Y-18453674D01*
X5192479Y-18453674D02*
X5192479Y-18501294D01*
X5192479Y-18501294D02*
X5182955Y-18539389D01*
X5182955Y-18539389D02*
X5173431Y-18558436D01*
X5173431Y-18558436D02*
X5163908Y-18567960D01*
X5163908Y-18567960D02*
X5144860Y-18577484D01*
X5144860Y-18577484D02*
X5125812Y-18577484D01*
X5125812Y-18577484D02*
X5106765Y-18567960D01*
X5106765Y-18567960D02*
X5097241Y-18558436D01*
X5097241Y-18558436D02*
X5087717Y-18539389D01*
X5087717Y-18539389D02*
X5078193Y-18501294D01*
X5078193Y-18501294D02*
X5078193Y-18453674D01*
X5078193Y-18453674D02*
X5087717Y-18415579D01*
X5087717Y-18415579D02*
X5097241Y-18396532D01*
X5097241Y-18396532D02*
X5106765Y-18387008D01*
X5106765Y-18387008D02*
X5125812Y-18377484D01*
X5316288Y-18377484D02*
X5335336Y-18377484D01*
X5335336Y-18377484D02*
X5354384Y-18387008D01*
X5354384Y-18387008D02*
X5363908Y-18396532D01*
X5363908Y-18396532D02*
X5373431Y-18415579D01*
X5373431Y-18415579D02*
X5382955Y-18453674D01*
X5382955Y-18453674D02*
X5382955Y-18501294D01*
X5382955Y-18501294D02*
X5373431Y-18539389D01*
X5373431Y-18539389D02*
X5363908Y-18558436D01*
X5363908Y-18558436D02*
X5354384Y-18567960D01*
X5354384Y-18567960D02*
X5335336Y-18577484D01*
X5335336Y-18577484D02*
X5316288Y-18577484D01*
X5316288Y-18577484D02*
X5297241Y-18567960D01*
X5297241Y-18567960D02*
X5287717Y-18558436D01*
X5287717Y-18558436D02*
X5278193Y-18539389D01*
X5278193Y-18539389D02*
X5268669Y-18501294D01*
X5268669Y-18501294D02*
X5268669Y-18453674D01*
X5268669Y-18453674D02*
X5278193Y-18415579D01*
X5278193Y-18415579D02*
X5287717Y-18396532D01*
X5287717Y-18396532D02*
X5297241Y-18387008D01*
X5297241Y-18387008D02*
X5316288Y-18377484D01*
X5468669Y-18577484D02*
X5468669Y-18444151D01*
X5468669Y-18463198D02*
X5478193Y-18453674D01*
X5478193Y-18453674D02*
X5497241Y-18444151D01*
X5497241Y-18444151D02*
X5525812Y-18444151D01*
X5525812Y-18444151D02*
X5544860Y-18453674D01*
X5544860Y-18453674D02*
X5554384Y-18472722D01*
X5554384Y-18472722D02*
X5554384Y-18577484D01*
X5554384Y-18472722D02*
X5563908Y-18453674D01*
X5563908Y-18453674D02*
X5582955Y-18444151D01*
X5582955Y-18444151D02*
X5611526Y-18444151D01*
X5611526Y-18444151D02*
X5630574Y-18453674D01*
X5630574Y-18453674D02*
X5640098Y-18472722D01*
X5640098Y-18472722D02*
X5640098Y-18577484D01*
X5735336Y-18577484D02*
X5735336Y-18444151D01*
X5735336Y-18463198D02*
X5744860Y-18453674D01*
X5744860Y-18453674D02*
X5763907Y-18444151D01*
X5763907Y-18444151D02*
X5792479Y-18444151D01*
X5792479Y-18444151D02*
X5811527Y-18453674D01*
X5811527Y-18453674D02*
X5821050Y-18472722D01*
X5821050Y-18472722D02*
X5821050Y-18577484D01*
X5821050Y-18472722D02*
X5830574Y-18453674D01*
X5830574Y-18453674D02*
X5849622Y-18444151D01*
X5849622Y-18444151D02*
X5878193Y-18444151D01*
X5878193Y-18444151D02*
X5897241Y-18453674D01*
X5897241Y-18453674D02*
X5906765Y-18472722D01*
X5906765Y-18472722D02*
X5906765Y-18577484D01*
X6297241Y-18367960D02*
X6125812Y-18625103D01*
X6554384Y-18377484D02*
X6573431Y-18377484D01*
X6573431Y-18377484D02*
X6592479Y-18387008D01*
X6592479Y-18387008D02*
X6602003Y-18396532D01*
X6602003Y-18396532D02*
X6611527Y-18415579D01*
X6611527Y-18415579D02*
X6621050Y-18453674D01*
X6621050Y-18453674D02*
X6621050Y-18501294D01*
X6621050Y-18501294D02*
X6611527Y-18539389D01*
X6611527Y-18539389D02*
X6602003Y-18558436D01*
X6602003Y-18558436D02*
X6592479Y-18567960D01*
X6592479Y-18567960D02*
X6573431Y-18577484D01*
X6573431Y-18577484D02*
X6554384Y-18577484D01*
X6554384Y-18577484D02*
X6535336Y-18567960D01*
X6535336Y-18567960D02*
X6525812Y-18558436D01*
X6525812Y-18558436D02*
X6516289Y-18539389D01*
X6516289Y-18539389D02*
X6506765Y-18501294D01*
X6506765Y-18501294D02*
X6506765Y-18453674D01*
X6506765Y-18453674D02*
X6516289Y-18415579D01*
X6516289Y-18415579D02*
X6525812Y-18396532D01*
X6525812Y-18396532D02*
X6535336Y-18387008D01*
X6535336Y-18387008D02*
X6554384Y-18377484D01*
X6706765Y-18558436D02*
X6716289Y-18567960D01*
X6716289Y-18567960D02*
X6706765Y-18577484D01*
X6706765Y-18577484D02*
X6697241Y-18567960D01*
X6697241Y-18567960D02*
X6706765Y-18558436D01*
X6706765Y-18558436D02*
X6706765Y-18577484D01*
X6840098Y-18377484D02*
X6859146Y-18377484D01*
X6859146Y-18377484D02*
X6878193Y-18387008D01*
X6878193Y-18387008D02*
X6887717Y-18396532D01*
X6887717Y-18396532D02*
X6897241Y-18415579D01*
X6897241Y-18415579D02*
X6906765Y-18453674D01*
X6906765Y-18453674D02*
X6906765Y-18501294D01*
X6906765Y-18501294D02*
X6897241Y-18539389D01*
X6897241Y-18539389D02*
X6887717Y-18558436D01*
X6887717Y-18558436D02*
X6878193Y-18567960D01*
X6878193Y-18567960D02*
X6859146Y-18577484D01*
X6859146Y-18577484D02*
X6840098Y-18577484D01*
X6840098Y-18577484D02*
X6821050Y-18567960D01*
X6821050Y-18567960D02*
X6811527Y-18558436D01*
X6811527Y-18558436D02*
X6802003Y-18539389D01*
X6802003Y-18539389D02*
X6792479Y-18501294D01*
X6792479Y-18501294D02*
X6792479Y-18453674D01*
X6792479Y-18453674D02*
X6802003Y-18415579D01*
X6802003Y-18415579D02*
X6811527Y-18396532D01*
X6811527Y-18396532D02*
X6821050Y-18387008D01*
X6821050Y-18387008D02*
X6840098Y-18377484D01*
X6973431Y-18377484D02*
X7106765Y-18377484D01*
X7106765Y-18377484D02*
X7021050Y-18577484D01*
X7268670Y-18444151D02*
X7268670Y-18577484D01*
X7221050Y-18367960D02*
X7173431Y-18510817D01*
X7173431Y-18510817D02*
X7297241Y-18510817D01*
X7402003Y-18463198D02*
X7382955Y-18453674D01*
X7382955Y-18453674D02*
X7373431Y-18444151D01*
X7373431Y-18444151D02*
X7363908Y-18425103D01*
X7363908Y-18425103D02*
X7363908Y-18415579D01*
X7363908Y-18415579D02*
X7373431Y-18396532D01*
X7373431Y-18396532D02*
X7382955Y-18387008D01*
X7382955Y-18387008D02*
X7402003Y-18377484D01*
X7402003Y-18377484D02*
X7440098Y-18377484D01*
X7440098Y-18377484D02*
X7459146Y-18387008D01*
X7459146Y-18387008D02*
X7468670Y-18396532D01*
X7468670Y-18396532D02*
X7478193Y-18415579D01*
X7478193Y-18415579D02*
X7478193Y-18425103D01*
X7478193Y-18425103D02*
X7468670Y-18444151D01*
X7468670Y-18444151D02*
X7459146Y-18453674D01*
X7459146Y-18453674D02*
X7440098Y-18463198D01*
X7440098Y-18463198D02*
X7402003Y-18463198D01*
X7402003Y-18463198D02*
X7382955Y-18472722D01*
X7382955Y-18472722D02*
X7373431Y-18482246D01*
X7373431Y-18482246D02*
X7363908Y-18501294D01*
X7363908Y-18501294D02*
X7363908Y-18539389D01*
X7363908Y-18539389D02*
X7373431Y-18558436D01*
X7373431Y-18558436D02*
X7382955Y-18567960D01*
X7382955Y-18567960D02*
X7402003Y-18577484D01*
X7402003Y-18577484D02*
X7440098Y-18577484D01*
X7440098Y-18577484D02*
X7459146Y-18567960D01*
X7459146Y-18567960D02*
X7468670Y-18558436D01*
X7468670Y-18558436D02*
X7478193Y-18539389D01*
X7478193Y-18539389D02*
X7478193Y-18501294D01*
X7478193Y-18501294D02*
X7468670Y-18482246D01*
X7468670Y-18482246D02*
X7459146Y-18472722D01*
X7459146Y-18472722D02*
X7440098Y-18463198D01*
X7554384Y-18377484D02*
X7554384Y-18415579D01*
X7630574Y-18377484D02*
X7630574Y-18415579D01*
X7925813Y-18653674D02*
X7916289Y-18644151D01*
X7916289Y-18644151D02*
X7897241Y-18615579D01*
X7897241Y-18615579D02*
X7887717Y-18596532D01*
X7887717Y-18596532D02*
X7878193Y-18567960D01*
X7878193Y-18567960D02*
X7868670Y-18520341D01*
X7868670Y-18520341D02*
X7868670Y-18482246D01*
X7868670Y-18482246D02*
X7878193Y-18434627D01*
X7878193Y-18434627D02*
X7887717Y-18406055D01*
X7887717Y-18406055D02*
X7897241Y-18387008D01*
X7897241Y-18387008D02*
X7916289Y-18358436D01*
X7916289Y-18358436D02*
X7925813Y-18348913D01*
X8030574Y-18463198D02*
X8011527Y-18453674D01*
X8011527Y-18453674D02*
X8002003Y-18444151D01*
X8002003Y-18444151D02*
X7992479Y-18425103D01*
X7992479Y-18425103D02*
X7992479Y-18415579D01*
X7992479Y-18415579D02*
X8002003Y-18396532D01*
X8002003Y-18396532D02*
X8011527Y-18387008D01*
X8011527Y-18387008D02*
X8030574Y-18377484D01*
X8030574Y-18377484D02*
X8068670Y-18377484D01*
X8068670Y-18377484D02*
X8087717Y-18387008D01*
X8087717Y-18387008D02*
X8097241Y-18396532D01*
X8097241Y-18396532D02*
X8106765Y-18415579D01*
X8106765Y-18415579D02*
X8106765Y-18425103D01*
X8106765Y-18425103D02*
X8097241Y-18444151D01*
X8097241Y-18444151D02*
X8087717Y-18453674D01*
X8087717Y-18453674D02*
X8068670Y-18463198D01*
X8068670Y-18463198D02*
X8030574Y-18463198D01*
X8030574Y-18463198D02*
X8011527Y-18472722D01*
X8011527Y-18472722D02*
X8002003Y-18482246D01*
X8002003Y-18482246D02*
X7992479Y-18501294D01*
X7992479Y-18501294D02*
X7992479Y-18539389D01*
X7992479Y-18539389D02*
X8002003Y-18558436D01*
X8002003Y-18558436D02*
X8011527Y-18567960D01*
X8011527Y-18567960D02*
X8030574Y-18577484D01*
X8030574Y-18577484D02*
X8068670Y-18577484D01*
X8068670Y-18577484D02*
X8087717Y-18567960D01*
X8087717Y-18567960D02*
X8097241Y-18558436D01*
X8097241Y-18558436D02*
X8106765Y-18539389D01*
X8106765Y-18539389D02*
X8106765Y-18501294D01*
X8106765Y-18501294D02*
X8097241Y-18482246D01*
X8097241Y-18482246D02*
X8087717Y-18472722D01*
X8087717Y-18472722D02*
X8068670Y-18463198D01*
X8278193Y-18444151D02*
X8278193Y-18577484D01*
X8230574Y-18367960D02*
X8182955Y-18510817D01*
X8182955Y-18510817D02*
X8306765Y-18510817D01*
X8535336Y-18577484D02*
X8535336Y-18377484D01*
X8621051Y-18577484D02*
X8621051Y-18472722D01*
X8621051Y-18472722D02*
X8611527Y-18453674D01*
X8611527Y-18453674D02*
X8592479Y-18444151D01*
X8592479Y-18444151D02*
X8563908Y-18444151D01*
X8563908Y-18444151D02*
X8544860Y-18453674D01*
X8544860Y-18453674D02*
X8535336Y-18463198D01*
X8744860Y-18577484D02*
X8725813Y-18567960D01*
X8725813Y-18567960D02*
X8716289Y-18558436D01*
X8716289Y-18558436D02*
X8706765Y-18539389D01*
X8706765Y-18539389D02*
X8706765Y-18482246D01*
X8706765Y-18482246D02*
X8716289Y-18463198D01*
X8716289Y-18463198D02*
X8725813Y-18453674D01*
X8725813Y-18453674D02*
X8744860Y-18444151D01*
X8744860Y-18444151D02*
X8773432Y-18444151D01*
X8773432Y-18444151D02*
X8792479Y-18453674D01*
X8792479Y-18453674D02*
X8802003Y-18463198D01*
X8802003Y-18463198D02*
X8811527Y-18482246D01*
X8811527Y-18482246D02*
X8811527Y-18539389D01*
X8811527Y-18539389D02*
X8802003Y-18558436D01*
X8802003Y-18558436D02*
X8792479Y-18567960D01*
X8792479Y-18567960D02*
X8773432Y-18577484D01*
X8773432Y-18577484D02*
X8744860Y-18577484D01*
X8925813Y-18577484D02*
X8906765Y-18567960D01*
X8906765Y-18567960D02*
X8897241Y-18548913D01*
X8897241Y-18548913D02*
X8897241Y-18377484D01*
X9078194Y-18567960D02*
X9059146Y-18577484D01*
X9059146Y-18577484D02*
X9021051Y-18577484D01*
X9021051Y-18577484D02*
X9002003Y-18567960D01*
X9002003Y-18567960D02*
X8992479Y-18548913D01*
X8992479Y-18548913D02*
X8992479Y-18472722D01*
X8992479Y-18472722D02*
X9002003Y-18453674D01*
X9002003Y-18453674D02*
X9021051Y-18444151D01*
X9021051Y-18444151D02*
X9059146Y-18444151D01*
X9059146Y-18444151D02*
X9078194Y-18453674D01*
X9078194Y-18453674D02*
X9087717Y-18472722D01*
X9087717Y-18472722D02*
X9087717Y-18491770D01*
X9087717Y-18491770D02*
X8992479Y-18510817D01*
X9163908Y-18567960D02*
X9182956Y-18577484D01*
X9182956Y-18577484D02*
X9221051Y-18577484D01*
X9221051Y-18577484D02*
X9240098Y-18567960D01*
X9240098Y-18567960D02*
X9249622Y-18548913D01*
X9249622Y-18548913D02*
X9249622Y-18539389D01*
X9249622Y-18539389D02*
X9240098Y-18520341D01*
X9240098Y-18520341D02*
X9221051Y-18510817D01*
X9221051Y-18510817D02*
X9192479Y-18510817D01*
X9192479Y-18510817D02*
X9173432Y-18501294D01*
X9173432Y-18501294D02*
X9163908Y-18482246D01*
X9163908Y-18482246D02*
X9163908Y-18472722D01*
X9163908Y-18472722D02*
X9173432Y-18453674D01*
X9173432Y-18453674D02*
X9192479Y-18444151D01*
X9192479Y-18444151D02*
X9221051Y-18444151D01*
X9221051Y-18444151D02*
X9240098Y-18453674D01*
X9316289Y-18653674D02*
X9325813Y-18644151D01*
X9325813Y-18644151D02*
X9344860Y-18615579D01*
X9344860Y-18615579D02*
X9354384Y-18596532D01*
X9354384Y-18596532D02*
X9363908Y-18567960D01*
X9363908Y-18567960D02*
X9373432Y-18520341D01*
X9373432Y-18520341D02*
X9373432Y-18482246D01*
X9373432Y-18482246D02*
X9363908Y-18434627D01*
X9363908Y-18434627D02*
X9354384Y-18406055D01*
X9354384Y-18406055D02*
X9344860Y-18387008D01*
X9344860Y-18387008D02*
X9325813Y-18358436D01*
X9325813Y-18358436D02*
X9316289Y-18348913D01*
X9678194Y-18653674D02*
X9668670Y-18644151D01*
X9668670Y-18644151D02*
X9649622Y-18615579D01*
X9649622Y-18615579D02*
X9640098Y-18596532D01*
X9640098Y-18596532D02*
X9630575Y-18567960D01*
X9630575Y-18567960D02*
X9621051Y-18520341D01*
X9621051Y-18520341D02*
X9621051Y-18482246D01*
X9621051Y-18482246D02*
X9630575Y-18434627D01*
X9630575Y-18434627D02*
X9640098Y-18406055D01*
X9640098Y-18406055D02*
X9649622Y-18387008D01*
X9649622Y-18387008D02*
X9668670Y-18358436D01*
X9668670Y-18358436D02*
X9678194Y-18348913D01*
X9754384Y-18444151D02*
X9754384Y-18577484D01*
X9754384Y-18463198D02*
X9763908Y-18453674D01*
X9763908Y-18453674D02*
X9782956Y-18444151D01*
X9782956Y-18444151D02*
X9811527Y-18444151D01*
X9811527Y-18444151D02*
X9830575Y-18453674D01*
X9830575Y-18453674D02*
X9840098Y-18472722D01*
X9840098Y-18472722D02*
X9840098Y-18577484D01*
X9963908Y-18577484D02*
X9944860Y-18567960D01*
X9944860Y-18567960D02*
X9935337Y-18558436D01*
X9935337Y-18558436D02*
X9925813Y-18539389D01*
X9925813Y-18539389D02*
X9925813Y-18482246D01*
X9925813Y-18482246D02*
X9935337Y-18463198D01*
X9935337Y-18463198D02*
X9944860Y-18453674D01*
X9944860Y-18453674D02*
X9963908Y-18444151D01*
X9963908Y-18444151D02*
X9992479Y-18444151D01*
X9992479Y-18444151D02*
X10011527Y-18453674D01*
X10011527Y-18453674D02*
X10021051Y-18463198D01*
X10021051Y-18463198D02*
X10030575Y-18482246D01*
X10030575Y-18482246D02*
X10030575Y-18539389D01*
X10030575Y-18539389D02*
X10021051Y-18558436D01*
X10021051Y-18558436D02*
X10011527Y-18567960D01*
X10011527Y-18567960D02*
X9992479Y-18577484D01*
X9992479Y-18577484D02*
X9963908Y-18577484D01*
X10087718Y-18444151D02*
X10163908Y-18444151D01*
X10116289Y-18377484D02*
X10116289Y-18548913D01*
X10116289Y-18548913D02*
X10125813Y-18567960D01*
X10125813Y-18567960D02*
X10144860Y-18577484D01*
X10144860Y-18577484D02*
X10163908Y-18577484D01*
X10382956Y-18444151D02*
X10382956Y-18644151D01*
X10382956Y-18453674D02*
X10402003Y-18444151D01*
X10402003Y-18444151D02*
X10440099Y-18444151D01*
X10440099Y-18444151D02*
X10459146Y-18453674D01*
X10459146Y-18453674D02*
X10468670Y-18463198D01*
X10468670Y-18463198D02*
X10478194Y-18482246D01*
X10478194Y-18482246D02*
X10478194Y-18539389D01*
X10478194Y-18539389D02*
X10468670Y-18558436D01*
X10468670Y-18558436D02*
X10459146Y-18567960D01*
X10459146Y-18567960D02*
X10440099Y-18577484D01*
X10440099Y-18577484D02*
X10402003Y-18577484D01*
X10402003Y-18577484D02*
X10382956Y-18567960D01*
X10592479Y-18577484D02*
X10573432Y-18567960D01*
X10573432Y-18567960D02*
X10563908Y-18548913D01*
X10563908Y-18548913D02*
X10563908Y-18377484D01*
X10754384Y-18577484D02*
X10754384Y-18472722D01*
X10754384Y-18472722D02*
X10744860Y-18453674D01*
X10744860Y-18453674D02*
X10725813Y-18444151D01*
X10725813Y-18444151D02*
X10687718Y-18444151D01*
X10687718Y-18444151D02*
X10668670Y-18453674D01*
X10754384Y-18567960D02*
X10735337Y-18577484D01*
X10735337Y-18577484D02*
X10687718Y-18577484D01*
X10687718Y-18577484D02*
X10668670Y-18567960D01*
X10668670Y-18567960D02*
X10659146Y-18548913D01*
X10659146Y-18548913D02*
X10659146Y-18529865D01*
X10659146Y-18529865D02*
X10668670Y-18510817D01*
X10668670Y-18510817D02*
X10687718Y-18501294D01*
X10687718Y-18501294D02*
X10735337Y-18501294D01*
X10735337Y-18501294D02*
X10754384Y-18491770D01*
X10821051Y-18444151D02*
X10897241Y-18444151D01*
X10849622Y-18377484D02*
X10849622Y-18548913D01*
X10849622Y-18548913D02*
X10859146Y-18567960D01*
X10859146Y-18567960D02*
X10878194Y-18577484D01*
X10878194Y-18577484D02*
X10897241Y-18577484D01*
X11040099Y-18567960D02*
X11021051Y-18577484D01*
X11021051Y-18577484D02*
X10982956Y-18577484D01*
X10982956Y-18577484D02*
X10963908Y-18567960D01*
X10963908Y-18567960D02*
X10954384Y-18548913D01*
X10954384Y-18548913D02*
X10954384Y-18472722D01*
X10954384Y-18472722D02*
X10963908Y-18453674D01*
X10963908Y-18453674D02*
X10982956Y-18444151D01*
X10982956Y-18444151D02*
X11021051Y-18444151D01*
X11021051Y-18444151D02*
X11040099Y-18453674D01*
X11040099Y-18453674D02*
X11049622Y-18472722D01*
X11049622Y-18472722D02*
X11049622Y-18491770D01*
X11049622Y-18491770D02*
X10954384Y-18510817D01*
X11221051Y-18577484D02*
X11221051Y-18377484D01*
X11221051Y-18567960D02*
X11202003Y-18577484D01*
X11202003Y-18577484D02*
X11163908Y-18577484D01*
X11163908Y-18577484D02*
X11144860Y-18567960D01*
X11144860Y-18567960D02*
X11135337Y-18558436D01*
X11135337Y-18558436D02*
X11125813Y-18539389D01*
X11125813Y-18539389D02*
X11125813Y-18482246D01*
X11125813Y-18482246D02*
X11135337Y-18463198D01*
X11135337Y-18463198D02*
X11144860Y-18453674D01*
X11144860Y-18453674D02*
X11163908Y-18444151D01*
X11163908Y-18444151D02*
X11202003Y-18444151D01*
X11202003Y-18444151D02*
X11221051Y-18453674D01*
X11297241Y-18653674D02*
X11306765Y-18644151D01*
X11306765Y-18644151D02*
X11325813Y-18615579D01*
X11325813Y-18615579D02*
X11335337Y-18596532D01*
X11335337Y-18596532D02*
X11344860Y-18567960D01*
X11344860Y-18567960D02*
X11354384Y-18520341D01*
X11354384Y-18520341D02*
X11354384Y-18482246D01*
X11354384Y-18482246D02*
X11344860Y-18434627D01*
X11344860Y-18434627D02*
X11335337Y-18406055D01*
X11335337Y-18406055D02*
X11325813Y-18387008D01*
X11325813Y-18387008D02*
X11306765Y-18358436D01*
X11306765Y-18358436D02*
X11297241Y-18348913D01*
X4321461Y-18866712D02*
X4321461Y-18725289D01*
X4180038Y-18725289D01*
X4180038Y-18866712D01*
X4321461Y-18866712D01*
X4602003Y-18706532D02*
X4611527Y-18697008D01*
X4611527Y-18697008D02*
X4630574Y-18687484D01*
X4630574Y-18687484D02*
X4678193Y-18687484D01*
X4678193Y-18687484D02*
X4697241Y-18697008D01*
X4697241Y-18697008D02*
X4706765Y-18706532D01*
X4706765Y-18706532D02*
X4716288Y-18725579D01*
X4716288Y-18725579D02*
X4716288Y-18744627D01*
X4716288Y-18744627D02*
X4706765Y-18773198D01*
X4706765Y-18773198D02*
X4592479Y-18887484D01*
X4592479Y-18887484D02*
X4716288Y-18887484D01*
X4802003Y-18868436D02*
X4811527Y-18877960D01*
X4811527Y-18877960D02*
X4802003Y-18887484D01*
X4802003Y-18887484D02*
X4792479Y-18877960D01*
X4792479Y-18877960D02*
X4802003Y-18868436D01*
X4802003Y-18868436D02*
X4802003Y-18887484D01*
X4887717Y-18706532D02*
X4897241Y-18697008D01*
X4897241Y-18697008D02*
X4916288Y-18687484D01*
X4916288Y-18687484D02*
X4963908Y-18687484D01*
X4963908Y-18687484D02*
X4982955Y-18697008D01*
X4982955Y-18697008D02*
X4992479Y-18706532D01*
X4992479Y-18706532D02*
X5002003Y-18725579D01*
X5002003Y-18725579D02*
X5002003Y-18744627D01*
X5002003Y-18744627D02*
X4992479Y-18773198D01*
X4992479Y-18773198D02*
X4878193Y-18887484D01*
X4878193Y-18887484D02*
X5002003Y-18887484D01*
X5125812Y-18687484D02*
X5144860Y-18687484D01*
X5144860Y-18687484D02*
X5163908Y-18697008D01*
X5163908Y-18697008D02*
X5173431Y-18706532D01*
X5173431Y-18706532D02*
X5182955Y-18725579D01*
X5182955Y-18725579D02*
X5192479Y-18763674D01*
X5192479Y-18763674D02*
X5192479Y-18811294D01*
X5192479Y-18811294D02*
X5182955Y-18849389D01*
X5182955Y-18849389D02*
X5173431Y-18868436D01*
X5173431Y-18868436D02*
X5163908Y-18877960D01*
X5163908Y-18877960D02*
X5144860Y-18887484D01*
X5144860Y-18887484D02*
X5125812Y-18887484D01*
X5125812Y-18887484D02*
X5106765Y-18877960D01*
X5106765Y-18877960D02*
X5097241Y-18868436D01*
X5097241Y-18868436D02*
X5087717Y-18849389D01*
X5087717Y-18849389D02*
X5078193Y-18811294D01*
X5078193Y-18811294D02*
X5078193Y-18763674D01*
X5078193Y-18763674D02*
X5087717Y-18725579D01*
X5087717Y-18725579D02*
X5097241Y-18706532D01*
X5097241Y-18706532D02*
X5106765Y-18697008D01*
X5106765Y-18697008D02*
X5125812Y-18687484D01*
X5316288Y-18687484D02*
X5335336Y-18687484D01*
X5335336Y-18687484D02*
X5354384Y-18697008D01*
X5354384Y-18697008D02*
X5363908Y-18706532D01*
X5363908Y-18706532D02*
X5373431Y-18725579D01*
X5373431Y-18725579D02*
X5382955Y-18763674D01*
X5382955Y-18763674D02*
X5382955Y-18811294D01*
X5382955Y-18811294D02*
X5373431Y-18849389D01*
X5373431Y-18849389D02*
X5363908Y-18868436D01*
X5363908Y-18868436D02*
X5354384Y-18877960D01*
X5354384Y-18877960D02*
X5335336Y-18887484D01*
X5335336Y-18887484D02*
X5316288Y-18887484D01*
X5316288Y-18887484D02*
X5297241Y-18877960D01*
X5297241Y-18877960D02*
X5287717Y-18868436D01*
X5287717Y-18868436D02*
X5278193Y-18849389D01*
X5278193Y-18849389D02*
X5268669Y-18811294D01*
X5268669Y-18811294D02*
X5268669Y-18763674D01*
X5268669Y-18763674D02*
X5278193Y-18725579D01*
X5278193Y-18725579D02*
X5287717Y-18706532D01*
X5287717Y-18706532D02*
X5297241Y-18697008D01*
X5297241Y-18697008D02*
X5316288Y-18687484D01*
X5468669Y-18887484D02*
X5468669Y-18754151D01*
X5468669Y-18773198D02*
X5478193Y-18763674D01*
X5478193Y-18763674D02*
X5497241Y-18754151D01*
X5497241Y-18754151D02*
X5525812Y-18754151D01*
X5525812Y-18754151D02*
X5544860Y-18763674D01*
X5544860Y-18763674D02*
X5554384Y-18782722D01*
X5554384Y-18782722D02*
X5554384Y-18887484D01*
X5554384Y-18782722D02*
X5563908Y-18763674D01*
X5563908Y-18763674D02*
X5582955Y-18754151D01*
X5582955Y-18754151D02*
X5611526Y-18754151D01*
X5611526Y-18754151D02*
X5630574Y-18763674D01*
X5630574Y-18763674D02*
X5640098Y-18782722D01*
X5640098Y-18782722D02*
X5640098Y-18887484D01*
X5735336Y-18887484D02*
X5735336Y-18754151D01*
X5735336Y-18773198D02*
X5744860Y-18763674D01*
X5744860Y-18763674D02*
X5763907Y-18754151D01*
X5763907Y-18754151D02*
X5792479Y-18754151D01*
X5792479Y-18754151D02*
X5811527Y-18763674D01*
X5811527Y-18763674D02*
X5821050Y-18782722D01*
X5821050Y-18782722D02*
X5821050Y-18887484D01*
X5821050Y-18782722D02*
X5830574Y-18763674D01*
X5830574Y-18763674D02*
X5849622Y-18754151D01*
X5849622Y-18754151D02*
X5878193Y-18754151D01*
X5878193Y-18754151D02*
X5897241Y-18763674D01*
X5897241Y-18763674D02*
X5906765Y-18782722D01*
X5906765Y-18782722D02*
X5906765Y-18887484D01*
X6297241Y-18677960D02*
X6125812Y-18935103D01*
X6554384Y-18687484D02*
X6573431Y-18687484D01*
X6573431Y-18687484D02*
X6592479Y-18697008D01*
X6592479Y-18697008D02*
X6602003Y-18706532D01*
X6602003Y-18706532D02*
X6611527Y-18725579D01*
X6611527Y-18725579D02*
X6621050Y-18763674D01*
X6621050Y-18763674D02*
X6621050Y-18811294D01*
X6621050Y-18811294D02*
X6611527Y-18849389D01*
X6611527Y-18849389D02*
X6602003Y-18868436D01*
X6602003Y-18868436D02*
X6592479Y-18877960D01*
X6592479Y-18877960D02*
X6573431Y-18887484D01*
X6573431Y-18887484D02*
X6554384Y-18887484D01*
X6554384Y-18887484D02*
X6535336Y-18877960D01*
X6535336Y-18877960D02*
X6525812Y-18868436D01*
X6525812Y-18868436D02*
X6516289Y-18849389D01*
X6516289Y-18849389D02*
X6506765Y-18811294D01*
X6506765Y-18811294D02*
X6506765Y-18763674D01*
X6506765Y-18763674D02*
X6516289Y-18725579D01*
X6516289Y-18725579D02*
X6525812Y-18706532D01*
X6525812Y-18706532D02*
X6535336Y-18697008D01*
X6535336Y-18697008D02*
X6554384Y-18687484D01*
X6706765Y-18868436D02*
X6716289Y-18877960D01*
X6716289Y-18877960D02*
X6706765Y-18887484D01*
X6706765Y-18887484D02*
X6697241Y-18877960D01*
X6697241Y-18877960D02*
X6706765Y-18868436D01*
X6706765Y-18868436D02*
X6706765Y-18887484D01*
X6840098Y-18687484D02*
X6859146Y-18687484D01*
X6859146Y-18687484D02*
X6878193Y-18697008D01*
X6878193Y-18697008D02*
X6887717Y-18706532D01*
X6887717Y-18706532D02*
X6897241Y-18725579D01*
X6897241Y-18725579D02*
X6906765Y-18763674D01*
X6906765Y-18763674D02*
X6906765Y-18811294D01*
X6906765Y-18811294D02*
X6897241Y-18849389D01*
X6897241Y-18849389D02*
X6887717Y-18868436D01*
X6887717Y-18868436D02*
X6878193Y-18877960D01*
X6878193Y-18877960D02*
X6859146Y-18887484D01*
X6859146Y-18887484D02*
X6840098Y-18887484D01*
X6840098Y-18887484D02*
X6821050Y-18877960D01*
X6821050Y-18877960D02*
X6811527Y-18868436D01*
X6811527Y-18868436D02*
X6802003Y-18849389D01*
X6802003Y-18849389D02*
X6792479Y-18811294D01*
X6792479Y-18811294D02*
X6792479Y-18763674D01*
X6792479Y-18763674D02*
X6802003Y-18725579D01*
X6802003Y-18725579D02*
X6811527Y-18706532D01*
X6811527Y-18706532D02*
X6821050Y-18697008D01*
X6821050Y-18697008D02*
X6840098Y-18687484D01*
X7021050Y-18773198D02*
X7002003Y-18763674D01*
X7002003Y-18763674D02*
X6992479Y-18754151D01*
X6992479Y-18754151D02*
X6982955Y-18735103D01*
X6982955Y-18735103D02*
X6982955Y-18725579D01*
X6982955Y-18725579D02*
X6992479Y-18706532D01*
X6992479Y-18706532D02*
X7002003Y-18697008D01*
X7002003Y-18697008D02*
X7021050Y-18687484D01*
X7021050Y-18687484D02*
X7059146Y-18687484D01*
X7059146Y-18687484D02*
X7078193Y-18697008D01*
X7078193Y-18697008D02*
X7087717Y-18706532D01*
X7087717Y-18706532D02*
X7097241Y-18725579D01*
X7097241Y-18725579D02*
X7097241Y-18735103D01*
X7097241Y-18735103D02*
X7087717Y-18754151D01*
X7087717Y-18754151D02*
X7078193Y-18763674D01*
X7078193Y-18763674D02*
X7059146Y-18773198D01*
X7059146Y-18773198D02*
X7021050Y-18773198D01*
X7021050Y-18773198D02*
X7002003Y-18782722D01*
X7002003Y-18782722D02*
X6992479Y-18792246D01*
X6992479Y-18792246D02*
X6982955Y-18811294D01*
X6982955Y-18811294D02*
X6982955Y-18849389D01*
X6982955Y-18849389D02*
X6992479Y-18868436D01*
X6992479Y-18868436D02*
X7002003Y-18877960D01*
X7002003Y-18877960D02*
X7021050Y-18887484D01*
X7021050Y-18887484D02*
X7059146Y-18887484D01*
X7059146Y-18887484D02*
X7078193Y-18877960D01*
X7078193Y-18877960D02*
X7087717Y-18868436D01*
X7087717Y-18868436D02*
X7097241Y-18849389D01*
X7097241Y-18849389D02*
X7097241Y-18811294D01*
X7097241Y-18811294D02*
X7087717Y-18792246D01*
X7087717Y-18792246D02*
X7078193Y-18782722D01*
X7078193Y-18782722D02*
X7059146Y-18773198D01*
X7268670Y-18687484D02*
X7230574Y-18687484D01*
X7230574Y-18687484D02*
X7211527Y-18697008D01*
X7211527Y-18697008D02*
X7202003Y-18706532D01*
X7202003Y-18706532D02*
X7182955Y-18735103D01*
X7182955Y-18735103D02*
X7173431Y-18773198D01*
X7173431Y-18773198D02*
X7173431Y-18849389D01*
X7173431Y-18849389D02*
X7182955Y-18868436D01*
X7182955Y-18868436D02*
X7192479Y-18877960D01*
X7192479Y-18877960D02*
X7211527Y-18887484D01*
X7211527Y-18887484D02*
X7249622Y-18887484D01*
X7249622Y-18887484D02*
X7268670Y-18877960D01*
X7268670Y-18877960D02*
X7278193Y-18868436D01*
X7278193Y-18868436D02*
X7287717Y-18849389D01*
X7287717Y-18849389D02*
X7287717Y-18801770D01*
X7287717Y-18801770D02*
X7278193Y-18782722D01*
X7278193Y-18782722D02*
X7268670Y-18773198D01*
X7268670Y-18773198D02*
X7249622Y-18763674D01*
X7249622Y-18763674D02*
X7211527Y-18763674D01*
X7211527Y-18763674D02*
X7192479Y-18773198D01*
X7192479Y-18773198D02*
X7182955Y-18782722D01*
X7182955Y-18782722D02*
X7173431Y-18801770D01*
X7459146Y-18687484D02*
X7421050Y-18687484D01*
X7421050Y-18687484D02*
X7402003Y-18697008D01*
X7402003Y-18697008D02*
X7392479Y-18706532D01*
X7392479Y-18706532D02*
X7373431Y-18735103D01*
X7373431Y-18735103D02*
X7363908Y-18773198D01*
X7363908Y-18773198D02*
X7363908Y-18849389D01*
X7363908Y-18849389D02*
X7373431Y-18868436D01*
X7373431Y-18868436D02*
X7382955Y-18877960D01*
X7382955Y-18877960D02*
X7402003Y-18887484D01*
X7402003Y-18887484D02*
X7440098Y-18887484D01*
X7440098Y-18887484D02*
X7459146Y-18877960D01*
X7459146Y-18877960D02*
X7468670Y-18868436D01*
X7468670Y-18868436D02*
X7478193Y-18849389D01*
X7478193Y-18849389D02*
X7478193Y-18801770D01*
X7478193Y-18801770D02*
X7468670Y-18782722D01*
X7468670Y-18782722D02*
X7459146Y-18773198D01*
X7459146Y-18773198D02*
X7440098Y-18763674D01*
X7440098Y-18763674D02*
X7402003Y-18763674D01*
X7402003Y-18763674D02*
X7382955Y-18773198D01*
X7382955Y-18773198D02*
X7373431Y-18782722D01*
X7373431Y-18782722D02*
X7363908Y-18801770D01*
X7554384Y-18687484D02*
X7554384Y-18725579D01*
X7630574Y-18687484D02*
X7630574Y-18725579D01*
X7925813Y-18963674D02*
X7916289Y-18954151D01*
X7916289Y-18954151D02*
X7897241Y-18925579D01*
X7897241Y-18925579D02*
X7887717Y-18906532D01*
X7887717Y-18906532D02*
X7878193Y-18877960D01*
X7878193Y-18877960D02*
X7868670Y-18830341D01*
X7868670Y-18830341D02*
X7868670Y-18792246D01*
X7868670Y-18792246D02*
X7878193Y-18744627D01*
X7878193Y-18744627D02*
X7887717Y-18716055D01*
X7887717Y-18716055D02*
X7897241Y-18697008D01*
X7897241Y-18697008D02*
X7916289Y-18668436D01*
X7916289Y-18668436D02*
X7925813Y-18658913D01*
X8087717Y-18754151D02*
X8087717Y-18887484D01*
X8040098Y-18677960D02*
X7992479Y-18820817D01*
X7992479Y-18820817D02*
X8116289Y-18820817D01*
X8344860Y-18887484D02*
X8344860Y-18687484D01*
X8430575Y-18887484D02*
X8430575Y-18782722D01*
X8430575Y-18782722D02*
X8421051Y-18763674D01*
X8421051Y-18763674D02*
X8402003Y-18754151D01*
X8402003Y-18754151D02*
X8373432Y-18754151D01*
X8373432Y-18754151D02*
X8354384Y-18763674D01*
X8354384Y-18763674D02*
X8344860Y-18773198D01*
X8554384Y-18887484D02*
X8535336Y-18877960D01*
X8535336Y-18877960D02*
X8525813Y-18868436D01*
X8525813Y-18868436D02*
X8516289Y-18849389D01*
X8516289Y-18849389D02*
X8516289Y-18792246D01*
X8516289Y-18792246D02*
X8525813Y-18773198D01*
X8525813Y-18773198D02*
X8535336Y-18763674D01*
X8535336Y-18763674D02*
X8554384Y-18754151D01*
X8554384Y-18754151D02*
X8582956Y-18754151D01*
X8582956Y-18754151D02*
X8602003Y-18763674D01*
X8602003Y-18763674D02*
X8611527Y-18773198D01*
X8611527Y-18773198D02*
X8621051Y-18792246D01*
X8621051Y-18792246D02*
X8621051Y-18849389D01*
X8621051Y-18849389D02*
X8611527Y-18868436D01*
X8611527Y-18868436D02*
X8602003Y-18877960D01*
X8602003Y-18877960D02*
X8582956Y-18887484D01*
X8582956Y-18887484D02*
X8554384Y-18887484D01*
X8735336Y-18887484D02*
X8716289Y-18877960D01*
X8716289Y-18877960D02*
X8706765Y-18858913D01*
X8706765Y-18858913D02*
X8706765Y-18687484D01*
X8887717Y-18877960D02*
X8868670Y-18887484D01*
X8868670Y-18887484D02*
X8830575Y-18887484D01*
X8830575Y-18887484D02*
X8811527Y-18877960D01*
X8811527Y-18877960D02*
X8802003Y-18858913D01*
X8802003Y-18858913D02*
X8802003Y-18782722D01*
X8802003Y-18782722D02*
X8811527Y-18763674D01*
X8811527Y-18763674D02*
X8830575Y-18754151D01*
X8830575Y-18754151D02*
X8868670Y-18754151D01*
X8868670Y-18754151D02*
X8887717Y-18763674D01*
X8887717Y-18763674D02*
X8897241Y-18782722D01*
X8897241Y-18782722D02*
X8897241Y-18801770D01*
X8897241Y-18801770D02*
X8802003Y-18820817D01*
X8973432Y-18877960D02*
X8992479Y-18887484D01*
X8992479Y-18887484D02*
X9030575Y-18887484D01*
X9030575Y-18887484D02*
X9049622Y-18877960D01*
X9049622Y-18877960D02*
X9059146Y-18858913D01*
X9059146Y-18858913D02*
X9059146Y-18849389D01*
X9059146Y-18849389D02*
X9049622Y-18830341D01*
X9049622Y-18830341D02*
X9030575Y-18820817D01*
X9030575Y-18820817D02*
X9002003Y-18820817D01*
X9002003Y-18820817D02*
X8982956Y-18811294D01*
X8982956Y-18811294D02*
X8973432Y-18792246D01*
X8973432Y-18792246D02*
X8973432Y-18782722D01*
X8973432Y-18782722D02*
X8982956Y-18763674D01*
X8982956Y-18763674D02*
X9002003Y-18754151D01*
X9002003Y-18754151D02*
X9030575Y-18754151D01*
X9030575Y-18754151D02*
X9049622Y-18763674D01*
X9125813Y-18963674D02*
X9135337Y-18954151D01*
X9135337Y-18954151D02*
X9154384Y-18925579D01*
X9154384Y-18925579D02*
X9163908Y-18906532D01*
X9163908Y-18906532D02*
X9173432Y-18877960D01*
X9173432Y-18877960D02*
X9182956Y-18830341D01*
X9182956Y-18830341D02*
X9182956Y-18792246D01*
X9182956Y-18792246D02*
X9173432Y-18744627D01*
X9173432Y-18744627D02*
X9163908Y-18716055D01*
X9163908Y-18716055D02*
X9154384Y-18697008D01*
X9154384Y-18697008D02*
X9135337Y-18668436D01*
X9135337Y-18668436D02*
X9125813Y-18658913D01*
X9487718Y-18963674D02*
X9478194Y-18954151D01*
X9478194Y-18954151D02*
X9459146Y-18925579D01*
X9459146Y-18925579D02*
X9449622Y-18906532D01*
X9449622Y-18906532D02*
X9440098Y-18877960D01*
X9440098Y-18877960D02*
X9430575Y-18830341D01*
X9430575Y-18830341D02*
X9430575Y-18792246D01*
X9430575Y-18792246D02*
X9440098Y-18744627D01*
X9440098Y-18744627D02*
X9449622Y-18716055D01*
X9449622Y-18716055D02*
X9459146Y-18697008D01*
X9459146Y-18697008D02*
X9478194Y-18668436D01*
X9478194Y-18668436D02*
X9487718Y-18658913D01*
X9563908Y-18754151D02*
X9563908Y-18887484D01*
X9563908Y-18773198D02*
X9573432Y-18763674D01*
X9573432Y-18763674D02*
X9592479Y-18754151D01*
X9592479Y-18754151D02*
X9621051Y-18754151D01*
X9621051Y-18754151D02*
X9640098Y-18763674D01*
X9640098Y-18763674D02*
X9649622Y-18782722D01*
X9649622Y-18782722D02*
X9649622Y-18887484D01*
X9773432Y-18887484D02*
X9754384Y-18877960D01*
X9754384Y-18877960D02*
X9744860Y-18868436D01*
X9744860Y-18868436D02*
X9735337Y-18849389D01*
X9735337Y-18849389D02*
X9735337Y-18792246D01*
X9735337Y-18792246D02*
X9744860Y-18773198D01*
X9744860Y-18773198D02*
X9754384Y-18763674D01*
X9754384Y-18763674D02*
X9773432Y-18754151D01*
X9773432Y-18754151D02*
X9802003Y-18754151D01*
X9802003Y-18754151D02*
X9821051Y-18763674D01*
X9821051Y-18763674D02*
X9830575Y-18773198D01*
X9830575Y-18773198D02*
X9840098Y-18792246D01*
X9840098Y-18792246D02*
X9840098Y-18849389D01*
X9840098Y-18849389D02*
X9830575Y-18868436D01*
X9830575Y-18868436D02*
X9821051Y-18877960D01*
X9821051Y-18877960D02*
X9802003Y-18887484D01*
X9802003Y-18887484D02*
X9773432Y-18887484D01*
X9897241Y-18754151D02*
X9973432Y-18754151D01*
X9925813Y-18687484D02*
X9925813Y-18858913D01*
X9925813Y-18858913D02*
X9935337Y-18877960D01*
X9935337Y-18877960D02*
X9954384Y-18887484D01*
X9954384Y-18887484D02*
X9973432Y-18887484D01*
X10192479Y-18754151D02*
X10192479Y-18954151D01*
X10192479Y-18763674D02*
X10211527Y-18754151D01*
X10211527Y-18754151D02*
X10249622Y-18754151D01*
X10249622Y-18754151D02*
X10268670Y-18763674D01*
X10268670Y-18763674D02*
X10278194Y-18773198D01*
X10278194Y-18773198D02*
X10287718Y-18792246D01*
X10287718Y-18792246D02*
X10287718Y-18849389D01*
X10287718Y-18849389D02*
X10278194Y-18868436D01*
X10278194Y-18868436D02*
X10268670Y-18877960D01*
X10268670Y-18877960D02*
X10249622Y-18887484D01*
X10249622Y-18887484D02*
X10211527Y-18887484D01*
X10211527Y-18887484D02*
X10192479Y-18877960D01*
X10402003Y-18887484D02*
X10382956Y-18877960D01*
X10382956Y-18877960D02*
X10373432Y-18858913D01*
X10373432Y-18858913D02*
X10373432Y-18687484D01*
X10563908Y-18887484D02*
X10563908Y-18782722D01*
X10563908Y-18782722D02*
X10554384Y-18763674D01*
X10554384Y-18763674D02*
X10535337Y-18754151D01*
X10535337Y-18754151D02*
X10497241Y-18754151D01*
X10497241Y-18754151D02*
X10478194Y-18763674D01*
X10563908Y-18877960D02*
X10544860Y-18887484D01*
X10544860Y-18887484D02*
X10497241Y-18887484D01*
X10497241Y-18887484D02*
X10478194Y-18877960D01*
X10478194Y-18877960D02*
X10468670Y-18858913D01*
X10468670Y-18858913D02*
X10468670Y-18839865D01*
X10468670Y-18839865D02*
X10478194Y-18820817D01*
X10478194Y-18820817D02*
X10497241Y-18811294D01*
X10497241Y-18811294D02*
X10544860Y-18811294D01*
X10544860Y-18811294D02*
X10563908Y-18801770D01*
X10630575Y-18754151D02*
X10706765Y-18754151D01*
X10659146Y-18687484D02*
X10659146Y-18858913D01*
X10659146Y-18858913D02*
X10668670Y-18877960D01*
X10668670Y-18877960D02*
X10687718Y-18887484D01*
X10687718Y-18887484D02*
X10706765Y-18887484D01*
X10849622Y-18877960D02*
X10830575Y-18887484D01*
X10830575Y-18887484D02*
X10792479Y-18887484D01*
X10792479Y-18887484D02*
X10773432Y-18877960D01*
X10773432Y-18877960D02*
X10763908Y-18858913D01*
X10763908Y-18858913D02*
X10763908Y-18782722D01*
X10763908Y-18782722D02*
X10773432Y-18763674D01*
X10773432Y-18763674D02*
X10792479Y-18754151D01*
X10792479Y-18754151D02*
X10830575Y-18754151D01*
X10830575Y-18754151D02*
X10849622Y-18763674D01*
X10849622Y-18763674D02*
X10859146Y-18782722D01*
X10859146Y-18782722D02*
X10859146Y-18801770D01*
X10859146Y-18801770D02*
X10763908Y-18820817D01*
X11030575Y-18887484D02*
X11030575Y-18687484D01*
X11030575Y-18877960D02*
X11011527Y-18887484D01*
X11011527Y-18887484D02*
X10973432Y-18887484D01*
X10973432Y-18887484D02*
X10954384Y-18877960D01*
X10954384Y-18877960D02*
X10944860Y-18868436D01*
X10944860Y-18868436D02*
X10935337Y-18849389D01*
X10935337Y-18849389D02*
X10935337Y-18792246D01*
X10935337Y-18792246D02*
X10944860Y-18773198D01*
X10944860Y-18773198D02*
X10954384Y-18763674D01*
X10954384Y-18763674D02*
X10973432Y-18754151D01*
X10973432Y-18754151D02*
X11011527Y-18754151D01*
X11011527Y-18754151D02*
X11030575Y-18763674D01*
X11106765Y-18963674D02*
X11116289Y-18954151D01*
X11116289Y-18954151D02*
X11135337Y-18925579D01*
X11135337Y-18925579D02*
X11144860Y-18906532D01*
X11144860Y-18906532D02*
X11154384Y-18877960D01*
X11154384Y-18877960D02*
X11163908Y-18830341D01*
X11163908Y-18830341D02*
X11163908Y-18792246D01*
X11163908Y-18792246D02*
X11154384Y-18744627D01*
X11154384Y-18744627D02*
X11144860Y-18716055D01*
X11144860Y-18716055D02*
X11135337Y-18697008D01*
X11135337Y-18697008D02*
X11116289Y-18668436D01*
X11116289Y-18668436D02*
X11106765Y-18658913D01*
X4250750Y-19216000D02*
X4350750Y-19116000D01*
X4250750Y-19016000D01*
X4150750Y-19116000D01*
X4250750Y-19216000D01*
X4592479Y-19007484D02*
X4716288Y-19007484D01*
X4716288Y-19007484D02*
X4649622Y-19083674D01*
X4649622Y-19083674D02*
X4678193Y-19083674D01*
X4678193Y-19083674D02*
X4697241Y-19093198D01*
X4697241Y-19093198D02*
X4706765Y-19102722D01*
X4706765Y-19102722D02*
X4716288Y-19121770D01*
X4716288Y-19121770D02*
X4716288Y-19169389D01*
X4716288Y-19169389D02*
X4706765Y-19188436D01*
X4706765Y-19188436D02*
X4697241Y-19197960D01*
X4697241Y-19197960D02*
X4678193Y-19207484D01*
X4678193Y-19207484D02*
X4621050Y-19207484D01*
X4621050Y-19207484D02*
X4602003Y-19197960D01*
X4602003Y-19197960D02*
X4592479Y-19188436D01*
X4802003Y-19188436D02*
X4811527Y-19197960D01*
X4811527Y-19197960D02*
X4802003Y-19207484D01*
X4802003Y-19207484D02*
X4792479Y-19197960D01*
X4792479Y-19197960D02*
X4802003Y-19188436D01*
X4802003Y-19188436D02*
X4802003Y-19207484D01*
X4935336Y-19007484D02*
X4954384Y-19007484D01*
X4954384Y-19007484D02*
X4973431Y-19017008D01*
X4973431Y-19017008D02*
X4982955Y-19026532D01*
X4982955Y-19026532D02*
X4992479Y-19045579D01*
X4992479Y-19045579D02*
X5002003Y-19083674D01*
X5002003Y-19083674D02*
X5002003Y-19131294D01*
X5002003Y-19131294D02*
X4992479Y-19169389D01*
X4992479Y-19169389D02*
X4982955Y-19188436D01*
X4982955Y-19188436D02*
X4973431Y-19197960D01*
X4973431Y-19197960D02*
X4954384Y-19207484D01*
X4954384Y-19207484D02*
X4935336Y-19207484D01*
X4935336Y-19207484D02*
X4916288Y-19197960D01*
X4916288Y-19197960D02*
X4906765Y-19188436D01*
X4906765Y-19188436D02*
X4897241Y-19169389D01*
X4897241Y-19169389D02*
X4887717Y-19131294D01*
X4887717Y-19131294D02*
X4887717Y-19083674D01*
X4887717Y-19083674D02*
X4897241Y-19045579D01*
X4897241Y-19045579D02*
X4906765Y-19026532D01*
X4906765Y-19026532D02*
X4916288Y-19017008D01*
X4916288Y-19017008D02*
X4935336Y-19007484D01*
X5125812Y-19007484D02*
X5144860Y-19007484D01*
X5144860Y-19007484D02*
X5163908Y-19017008D01*
X5163908Y-19017008D02*
X5173431Y-19026532D01*
X5173431Y-19026532D02*
X5182955Y-19045579D01*
X5182955Y-19045579D02*
X5192479Y-19083674D01*
X5192479Y-19083674D02*
X5192479Y-19131294D01*
X5192479Y-19131294D02*
X5182955Y-19169389D01*
X5182955Y-19169389D02*
X5173431Y-19188436D01*
X5173431Y-19188436D02*
X5163908Y-19197960D01*
X5163908Y-19197960D02*
X5144860Y-19207484D01*
X5144860Y-19207484D02*
X5125812Y-19207484D01*
X5125812Y-19207484D02*
X5106765Y-19197960D01*
X5106765Y-19197960D02*
X5097241Y-19188436D01*
X5097241Y-19188436D02*
X5087717Y-19169389D01*
X5087717Y-19169389D02*
X5078193Y-19131294D01*
X5078193Y-19131294D02*
X5078193Y-19083674D01*
X5078193Y-19083674D02*
X5087717Y-19045579D01*
X5087717Y-19045579D02*
X5097241Y-19026532D01*
X5097241Y-19026532D02*
X5106765Y-19017008D01*
X5106765Y-19017008D02*
X5125812Y-19007484D01*
X5316288Y-19007484D02*
X5335336Y-19007484D01*
X5335336Y-19007484D02*
X5354384Y-19017008D01*
X5354384Y-19017008D02*
X5363908Y-19026532D01*
X5363908Y-19026532D02*
X5373431Y-19045579D01*
X5373431Y-19045579D02*
X5382955Y-19083674D01*
X5382955Y-19083674D02*
X5382955Y-19131294D01*
X5382955Y-19131294D02*
X5373431Y-19169389D01*
X5373431Y-19169389D02*
X5363908Y-19188436D01*
X5363908Y-19188436D02*
X5354384Y-19197960D01*
X5354384Y-19197960D02*
X5335336Y-19207484D01*
X5335336Y-19207484D02*
X5316288Y-19207484D01*
X5316288Y-19207484D02*
X5297241Y-19197960D01*
X5297241Y-19197960D02*
X5287717Y-19188436D01*
X5287717Y-19188436D02*
X5278193Y-19169389D01*
X5278193Y-19169389D02*
X5268669Y-19131294D01*
X5268669Y-19131294D02*
X5268669Y-19083674D01*
X5268669Y-19083674D02*
X5278193Y-19045579D01*
X5278193Y-19045579D02*
X5287717Y-19026532D01*
X5287717Y-19026532D02*
X5297241Y-19017008D01*
X5297241Y-19017008D02*
X5316288Y-19007484D01*
X5468669Y-19207484D02*
X5468669Y-19074151D01*
X5468669Y-19093198D02*
X5478193Y-19083674D01*
X5478193Y-19083674D02*
X5497241Y-19074151D01*
X5497241Y-19074151D02*
X5525812Y-19074151D01*
X5525812Y-19074151D02*
X5544860Y-19083674D01*
X5544860Y-19083674D02*
X5554384Y-19102722D01*
X5554384Y-19102722D02*
X5554384Y-19207484D01*
X5554384Y-19102722D02*
X5563908Y-19083674D01*
X5563908Y-19083674D02*
X5582955Y-19074151D01*
X5582955Y-19074151D02*
X5611526Y-19074151D01*
X5611526Y-19074151D02*
X5630574Y-19083674D01*
X5630574Y-19083674D02*
X5640098Y-19102722D01*
X5640098Y-19102722D02*
X5640098Y-19207484D01*
X5735336Y-19207484D02*
X5735336Y-19074151D01*
X5735336Y-19093198D02*
X5744860Y-19083674D01*
X5744860Y-19083674D02*
X5763907Y-19074151D01*
X5763907Y-19074151D02*
X5792479Y-19074151D01*
X5792479Y-19074151D02*
X5811527Y-19083674D01*
X5811527Y-19083674D02*
X5821050Y-19102722D01*
X5821050Y-19102722D02*
X5821050Y-19207484D01*
X5821050Y-19102722D02*
X5830574Y-19083674D01*
X5830574Y-19083674D02*
X5849622Y-19074151D01*
X5849622Y-19074151D02*
X5878193Y-19074151D01*
X5878193Y-19074151D02*
X5897241Y-19083674D01*
X5897241Y-19083674D02*
X5906765Y-19102722D01*
X5906765Y-19102722D02*
X5906765Y-19207484D01*
X6297241Y-18997960D02*
X6125812Y-19255103D01*
X6554384Y-19007484D02*
X6573431Y-19007484D01*
X6573431Y-19007484D02*
X6592479Y-19017008D01*
X6592479Y-19017008D02*
X6602003Y-19026532D01*
X6602003Y-19026532D02*
X6611527Y-19045579D01*
X6611527Y-19045579D02*
X6621050Y-19083674D01*
X6621050Y-19083674D02*
X6621050Y-19131294D01*
X6621050Y-19131294D02*
X6611527Y-19169389D01*
X6611527Y-19169389D02*
X6602003Y-19188436D01*
X6602003Y-19188436D02*
X6592479Y-19197960D01*
X6592479Y-19197960D02*
X6573431Y-19207484D01*
X6573431Y-19207484D02*
X6554384Y-19207484D01*
X6554384Y-19207484D02*
X6535336Y-19197960D01*
X6535336Y-19197960D02*
X6525812Y-19188436D01*
X6525812Y-19188436D02*
X6516289Y-19169389D01*
X6516289Y-19169389D02*
X6506765Y-19131294D01*
X6506765Y-19131294D02*
X6506765Y-19083674D01*
X6506765Y-19083674D02*
X6516289Y-19045579D01*
X6516289Y-19045579D02*
X6525812Y-19026532D01*
X6525812Y-19026532D02*
X6535336Y-19017008D01*
X6535336Y-19017008D02*
X6554384Y-19007484D01*
X6706765Y-19188436D02*
X6716289Y-19197960D01*
X6716289Y-19197960D02*
X6706765Y-19207484D01*
X6706765Y-19207484D02*
X6697241Y-19197960D01*
X6697241Y-19197960D02*
X6706765Y-19188436D01*
X6706765Y-19188436D02*
X6706765Y-19207484D01*
X6906765Y-19207484D02*
X6792479Y-19207484D01*
X6849622Y-19207484D02*
X6849622Y-19007484D01*
X6849622Y-19007484D02*
X6830574Y-19036055D01*
X6830574Y-19036055D02*
X6811527Y-19055103D01*
X6811527Y-19055103D02*
X6792479Y-19064627D01*
X7097241Y-19207484D02*
X6982955Y-19207484D01*
X7040098Y-19207484D02*
X7040098Y-19007484D01*
X7040098Y-19007484D02*
X7021050Y-19036055D01*
X7021050Y-19036055D02*
X7002003Y-19055103D01*
X7002003Y-19055103D02*
X6982955Y-19064627D01*
X7211527Y-19093198D02*
X7192479Y-19083674D01*
X7192479Y-19083674D02*
X7182955Y-19074151D01*
X7182955Y-19074151D02*
X7173431Y-19055103D01*
X7173431Y-19055103D02*
X7173431Y-19045579D01*
X7173431Y-19045579D02*
X7182955Y-19026532D01*
X7182955Y-19026532D02*
X7192479Y-19017008D01*
X7192479Y-19017008D02*
X7211527Y-19007484D01*
X7211527Y-19007484D02*
X7249622Y-19007484D01*
X7249622Y-19007484D02*
X7268670Y-19017008D01*
X7268670Y-19017008D02*
X7278193Y-19026532D01*
X7278193Y-19026532D02*
X7287717Y-19045579D01*
X7287717Y-19045579D02*
X7287717Y-19055103D01*
X7287717Y-19055103D02*
X7278193Y-19074151D01*
X7278193Y-19074151D02*
X7268670Y-19083674D01*
X7268670Y-19083674D02*
X7249622Y-19093198D01*
X7249622Y-19093198D02*
X7211527Y-19093198D01*
X7211527Y-19093198D02*
X7192479Y-19102722D01*
X7192479Y-19102722D02*
X7182955Y-19112246D01*
X7182955Y-19112246D02*
X7173431Y-19131294D01*
X7173431Y-19131294D02*
X7173431Y-19169389D01*
X7173431Y-19169389D02*
X7182955Y-19188436D01*
X7182955Y-19188436D02*
X7192479Y-19197960D01*
X7192479Y-19197960D02*
X7211527Y-19207484D01*
X7211527Y-19207484D02*
X7249622Y-19207484D01*
X7249622Y-19207484D02*
X7268670Y-19197960D01*
X7268670Y-19197960D02*
X7278193Y-19188436D01*
X7278193Y-19188436D02*
X7287717Y-19169389D01*
X7287717Y-19169389D02*
X7287717Y-19131294D01*
X7287717Y-19131294D02*
X7278193Y-19112246D01*
X7278193Y-19112246D02*
X7268670Y-19102722D01*
X7268670Y-19102722D02*
X7249622Y-19093198D01*
X7478193Y-19207484D02*
X7363908Y-19207484D01*
X7421050Y-19207484D02*
X7421050Y-19007484D01*
X7421050Y-19007484D02*
X7402003Y-19036055D01*
X7402003Y-19036055D02*
X7382955Y-19055103D01*
X7382955Y-19055103D02*
X7363908Y-19064627D01*
X7554384Y-19007484D02*
X7554384Y-19045579D01*
X7630574Y-19007484D02*
X7630574Y-19045579D01*
X7925813Y-19283674D02*
X7916289Y-19274151D01*
X7916289Y-19274151D02*
X7897241Y-19245579D01*
X7897241Y-19245579D02*
X7887717Y-19226532D01*
X7887717Y-19226532D02*
X7878193Y-19197960D01*
X7878193Y-19197960D02*
X7868670Y-19150341D01*
X7868670Y-19150341D02*
X7868670Y-19112246D01*
X7868670Y-19112246D02*
X7878193Y-19064627D01*
X7878193Y-19064627D02*
X7887717Y-19036055D01*
X7887717Y-19036055D02*
X7897241Y-19017008D01*
X7897241Y-19017008D02*
X7916289Y-18988436D01*
X7916289Y-18988436D02*
X7925813Y-18978913D01*
X8030574Y-19093198D02*
X8011527Y-19083674D01*
X8011527Y-19083674D02*
X8002003Y-19074151D01*
X8002003Y-19074151D02*
X7992479Y-19055103D01*
X7992479Y-19055103D02*
X7992479Y-19045579D01*
X7992479Y-19045579D02*
X8002003Y-19026532D01*
X8002003Y-19026532D02*
X8011527Y-19017008D01*
X8011527Y-19017008D02*
X8030574Y-19007484D01*
X8030574Y-19007484D02*
X8068670Y-19007484D01*
X8068670Y-19007484D02*
X8087717Y-19017008D01*
X8087717Y-19017008D02*
X8097241Y-19026532D01*
X8097241Y-19026532D02*
X8106765Y-19045579D01*
X8106765Y-19045579D02*
X8106765Y-19055103D01*
X8106765Y-19055103D02*
X8097241Y-19074151D01*
X8097241Y-19074151D02*
X8087717Y-19083674D01*
X8087717Y-19083674D02*
X8068670Y-19093198D01*
X8068670Y-19093198D02*
X8030574Y-19093198D01*
X8030574Y-19093198D02*
X8011527Y-19102722D01*
X8011527Y-19102722D02*
X8002003Y-19112246D01*
X8002003Y-19112246D02*
X7992479Y-19131294D01*
X7992479Y-19131294D02*
X7992479Y-19169389D01*
X7992479Y-19169389D02*
X8002003Y-19188436D01*
X8002003Y-19188436D02*
X8011527Y-19197960D01*
X8011527Y-19197960D02*
X8030574Y-19207484D01*
X8030574Y-19207484D02*
X8068670Y-19207484D01*
X8068670Y-19207484D02*
X8087717Y-19197960D01*
X8087717Y-19197960D02*
X8097241Y-19188436D01*
X8097241Y-19188436D02*
X8106765Y-19169389D01*
X8106765Y-19169389D02*
X8106765Y-19131294D01*
X8106765Y-19131294D02*
X8097241Y-19112246D01*
X8097241Y-19112246D02*
X8087717Y-19102722D01*
X8087717Y-19102722D02*
X8068670Y-19093198D01*
X8278193Y-19074151D02*
X8278193Y-19207484D01*
X8230574Y-18997960D02*
X8182955Y-19140817D01*
X8182955Y-19140817D02*
X8306765Y-19140817D01*
X8535336Y-19207484D02*
X8535336Y-19007484D01*
X8621051Y-19207484D02*
X8621051Y-19102722D01*
X8621051Y-19102722D02*
X8611527Y-19083674D01*
X8611527Y-19083674D02*
X8592479Y-19074151D01*
X8592479Y-19074151D02*
X8563908Y-19074151D01*
X8563908Y-19074151D02*
X8544860Y-19083674D01*
X8544860Y-19083674D02*
X8535336Y-19093198D01*
X8744860Y-19207484D02*
X8725813Y-19197960D01*
X8725813Y-19197960D02*
X8716289Y-19188436D01*
X8716289Y-19188436D02*
X8706765Y-19169389D01*
X8706765Y-19169389D02*
X8706765Y-19112246D01*
X8706765Y-19112246D02*
X8716289Y-19093198D01*
X8716289Y-19093198D02*
X8725813Y-19083674D01*
X8725813Y-19083674D02*
X8744860Y-19074151D01*
X8744860Y-19074151D02*
X8773432Y-19074151D01*
X8773432Y-19074151D02*
X8792479Y-19083674D01*
X8792479Y-19083674D02*
X8802003Y-19093198D01*
X8802003Y-19093198D02*
X8811527Y-19112246D01*
X8811527Y-19112246D02*
X8811527Y-19169389D01*
X8811527Y-19169389D02*
X8802003Y-19188436D01*
X8802003Y-19188436D02*
X8792479Y-19197960D01*
X8792479Y-19197960D02*
X8773432Y-19207484D01*
X8773432Y-19207484D02*
X8744860Y-19207484D01*
X8925813Y-19207484D02*
X8906765Y-19197960D01*
X8906765Y-19197960D02*
X8897241Y-19178913D01*
X8897241Y-19178913D02*
X8897241Y-19007484D01*
X9078194Y-19197960D02*
X9059146Y-19207484D01*
X9059146Y-19207484D02*
X9021051Y-19207484D01*
X9021051Y-19207484D02*
X9002003Y-19197960D01*
X9002003Y-19197960D02*
X8992479Y-19178913D01*
X8992479Y-19178913D02*
X8992479Y-19102722D01*
X8992479Y-19102722D02*
X9002003Y-19083674D01*
X9002003Y-19083674D02*
X9021051Y-19074151D01*
X9021051Y-19074151D02*
X9059146Y-19074151D01*
X9059146Y-19074151D02*
X9078194Y-19083674D01*
X9078194Y-19083674D02*
X9087717Y-19102722D01*
X9087717Y-19102722D02*
X9087717Y-19121770D01*
X9087717Y-19121770D02*
X8992479Y-19140817D01*
X9163908Y-19197960D02*
X9182956Y-19207484D01*
X9182956Y-19207484D02*
X9221051Y-19207484D01*
X9221051Y-19207484D02*
X9240098Y-19197960D01*
X9240098Y-19197960D02*
X9249622Y-19178913D01*
X9249622Y-19178913D02*
X9249622Y-19169389D01*
X9249622Y-19169389D02*
X9240098Y-19150341D01*
X9240098Y-19150341D02*
X9221051Y-19140817D01*
X9221051Y-19140817D02*
X9192479Y-19140817D01*
X9192479Y-19140817D02*
X9173432Y-19131294D01*
X9173432Y-19131294D02*
X9163908Y-19112246D01*
X9163908Y-19112246D02*
X9163908Y-19102722D01*
X9163908Y-19102722D02*
X9173432Y-19083674D01*
X9173432Y-19083674D02*
X9192479Y-19074151D01*
X9192479Y-19074151D02*
X9221051Y-19074151D01*
X9221051Y-19074151D02*
X9240098Y-19083674D01*
X9316289Y-19283674D02*
X9325813Y-19274151D01*
X9325813Y-19274151D02*
X9344860Y-19245579D01*
X9344860Y-19245579D02*
X9354384Y-19226532D01*
X9354384Y-19226532D02*
X9363908Y-19197960D01*
X9363908Y-19197960D02*
X9373432Y-19150341D01*
X9373432Y-19150341D02*
X9373432Y-19112246D01*
X9373432Y-19112246D02*
X9363908Y-19064627D01*
X9363908Y-19064627D02*
X9354384Y-19036055D01*
X9354384Y-19036055D02*
X9344860Y-19017008D01*
X9344860Y-19017008D02*
X9325813Y-18988436D01*
X9325813Y-18988436D02*
X9316289Y-18978913D01*
X9678194Y-19283674D02*
X9668670Y-19274151D01*
X9668670Y-19274151D02*
X9649622Y-19245579D01*
X9649622Y-19245579D02*
X9640098Y-19226532D01*
X9640098Y-19226532D02*
X9630575Y-19197960D01*
X9630575Y-19197960D02*
X9621051Y-19150341D01*
X9621051Y-19150341D02*
X9621051Y-19112246D01*
X9621051Y-19112246D02*
X9630575Y-19064627D01*
X9630575Y-19064627D02*
X9640098Y-19036055D01*
X9640098Y-19036055D02*
X9649622Y-19017008D01*
X9649622Y-19017008D02*
X9668670Y-18988436D01*
X9668670Y-18988436D02*
X9678194Y-18978913D01*
X9754384Y-19074151D02*
X9754384Y-19207484D01*
X9754384Y-19093198D02*
X9763908Y-19083674D01*
X9763908Y-19083674D02*
X9782956Y-19074151D01*
X9782956Y-19074151D02*
X9811527Y-19074151D01*
X9811527Y-19074151D02*
X9830575Y-19083674D01*
X9830575Y-19083674D02*
X9840098Y-19102722D01*
X9840098Y-19102722D02*
X9840098Y-19207484D01*
X9963908Y-19207484D02*
X9944860Y-19197960D01*
X9944860Y-19197960D02*
X9935337Y-19188436D01*
X9935337Y-19188436D02*
X9925813Y-19169389D01*
X9925813Y-19169389D02*
X9925813Y-19112246D01*
X9925813Y-19112246D02*
X9935337Y-19093198D01*
X9935337Y-19093198D02*
X9944860Y-19083674D01*
X9944860Y-19083674D02*
X9963908Y-19074151D01*
X9963908Y-19074151D02*
X9992479Y-19074151D01*
X9992479Y-19074151D02*
X10011527Y-19083674D01*
X10011527Y-19083674D02*
X10021051Y-19093198D01*
X10021051Y-19093198D02*
X10030575Y-19112246D01*
X10030575Y-19112246D02*
X10030575Y-19169389D01*
X10030575Y-19169389D02*
X10021051Y-19188436D01*
X10021051Y-19188436D02*
X10011527Y-19197960D01*
X10011527Y-19197960D02*
X9992479Y-19207484D01*
X9992479Y-19207484D02*
X9963908Y-19207484D01*
X10087718Y-19074151D02*
X10163908Y-19074151D01*
X10116289Y-19007484D02*
X10116289Y-19178913D01*
X10116289Y-19178913D02*
X10125813Y-19197960D01*
X10125813Y-19197960D02*
X10144860Y-19207484D01*
X10144860Y-19207484D02*
X10163908Y-19207484D01*
X10382956Y-19074151D02*
X10382956Y-19274151D01*
X10382956Y-19083674D02*
X10402003Y-19074151D01*
X10402003Y-19074151D02*
X10440099Y-19074151D01*
X10440099Y-19074151D02*
X10459146Y-19083674D01*
X10459146Y-19083674D02*
X10468670Y-19093198D01*
X10468670Y-19093198D02*
X10478194Y-19112246D01*
X10478194Y-19112246D02*
X10478194Y-19169389D01*
X10478194Y-19169389D02*
X10468670Y-19188436D01*
X10468670Y-19188436D02*
X10459146Y-19197960D01*
X10459146Y-19197960D02*
X10440099Y-19207484D01*
X10440099Y-19207484D02*
X10402003Y-19207484D01*
X10402003Y-19207484D02*
X10382956Y-19197960D01*
X10592479Y-19207484D02*
X10573432Y-19197960D01*
X10573432Y-19197960D02*
X10563908Y-19178913D01*
X10563908Y-19178913D02*
X10563908Y-19007484D01*
X10754384Y-19207484D02*
X10754384Y-19102722D01*
X10754384Y-19102722D02*
X10744860Y-19083674D01*
X10744860Y-19083674D02*
X10725813Y-19074151D01*
X10725813Y-19074151D02*
X10687718Y-19074151D01*
X10687718Y-19074151D02*
X10668670Y-19083674D01*
X10754384Y-19197960D02*
X10735337Y-19207484D01*
X10735337Y-19207484D02*
X10687718Y-19207484D01*
X10687718Y-19207484D02*
X10668670Y-19197960D01*
X10668670Y-19197960D02*
X10659146Y-19178913D01*
X10659146Y-19178913D02*
X10659146Y-19159865D01*
X10659146Y-19159865D02*
X10668670Y-19140817D01*
X10668670Y-19140817D02*
X10687718Y-19131294D01*
X10687718Y-19131294D02*
X10735337Y-19131294D01*
X10735337Y-19131294D02*
X10754384Y-19121770D01*
X10821051Y-19074151D02*
X10897241Y-19074151D01*
X10849622Y-19007484D02*
X10849622Y-19178913D01*
X10849622Y-19178913D02*
X10859146Y-19197960D01*
X10859146Y-19197960D02*
X10878194Y-19207484D01*
X10878194Y-19207484D02*
X10897241Y-19207484D01*
X11040099Y-19197960D02*
X11021051Y-19207484D01*
X11021051Y-19207484D02*
X10982956Y-19207484D01*
X10982956Y-19207484D02*
X10963908Y-19197960D01*
X10963908Y-19197960D02*
X10954384Y-19178913D01*
X10954384Y-19178913D02*
X10954384Y-19102722D01*
X10954384Y-19102722D02*
X10963908Y-19083674D01*
X10963908Y-19083674D02*
X10982956Y-19074151D01*
X10982956Y-19074151D02*
X11021051Y-19074151D01*
X11021051Y-19074151D02*
X11040099Y-19083674D01*
X11040099Y-19083674D02*
X11049622Y-19102722D01*
X11049622Y-19102722D02*
X11049622Y-19121770D01*
X11049622Y-19121770D02*
X10954384Y-19140817D01*
X11221051Y-19207484D02*
X11221051Y-19007484D01*
X11221051Y-19197960D02*
X11202003Y-19207484D01*
X11202003Y-19207484D02*
X11163908Y-19207484D01*
X11163908Y-19207484D02*
X11144860Y-19197960D01*
X11144860Y-19197960D02*
X11135337Y-19188436D01*
X11135337Y-19188436D02*
X11125813Y-19169389D01*
X11125813Y-19169389D02*
X11125813Y-19112246D01*
X11125813Y-19112246D02*
X11135337Y-19093198D01*
X11135337Y-19093198D02*
X11144860Y-19083674D01*
X11144860Y-19083674D02*
X11163908Y-19074151D01*
X11163908Y-19074151D02*
X11202003Y-19074151D01*
X11202003Y-19074151D02*
X11221051Y-19083674D01*
X11297241Y-19283674D02*
X11306765Y-19274151D01*
X11306765Y-19274151D02*
X11325813Y-19245579D01*
X11325813Y-19245579D02*
X11335337Y-19226532D01*
X11335337Y-19226532D02*
X11344860Y-19197960D01*
X11344860Y-19197960D02*
X11354384Y-19150341D01*
X11354384Y-19150341D02*
X11354384Y-19112246D01*
X11354384Y-19112246D02*
X11344860Y-19064627D01*
X11344860Y-19064627D02*
X11335337Y-19036055D01*
X11335337Y-19036055D02*
X11325813Y-19017008D01*
X11325813Y-19017008D02*
X11306765Y-18988436D01*
X11306765Y-18988436D02*
X11297241Y-18978913D01*
X4150750Y-19336000D02*
X4350750Y-19536000D01*
X4350750Y-19336000D02*
X4150750Y-19536000D01*
X4350750Y-19436000D02*
G75*
G02*
X4150750Y-19436000I-100000J0D01*
G01*
X4150750Y-19436000D02*
G75*
G02*
X4350750Y-19436000I100000J0D01*
G01*
X4697241Y-19394151D02*
X4697241Y-19527484D01*
X4649622Y-19317960D02*
X4602003Y-19460817D01*
X4602003Y-19460817D02*
X4725812Y-19460817D01*
X4802003Y-19508436D02*
X4811527Y-19517960D01*
X4811527Y-19517960D02*
X4802003Y-19527484D01*
X4802003Y-19527484D02*
X4792479Y-19517960D01*
X4792479Y-19517960D02*
X4802003Y-19508436D01*
X4802003Y-19508436D02*
X4802003Y-19527484D01*
X5002003Y-19527484D02*
X4887717Y-19527484D01*
X4944860Y-19527484D02*
X4944860Y-19327484D01*
X4944860Y-19327484D02*
X4925812Y-19356055D01*
X4925812Y-19356055D02*
X4906765Y-19375103D01*
X4906765Y-19375103D02*
X4887717Y-19384627D01*
X5125812Y-19327484D02*
X5144860Y-19327484D01*
X5144860Y-19327484D02*
X5163908Y-19337008D01*
X5163908Y-19337008D02*
X5173431Y-19346532D01*
X5173431Y-19346532D02*
X5182955Y-19365579D01*
X5182955Y-19365579D02*
X5192479Y-19403674D01*
X5192479Y-19403674D02*
X5192479Y-19451294D01*
X5192479Y-19451294D02*
X5182955Y-19489389D01*
X5182955Y-19489389D02*
X5173431Y-19508436D01*
X5173431Y-19508436D02*
X5163908Y-19517960D01*
X5163908Y-19517960D02*
X5144860Y-19527484D01*
X5144860Y-19527484D02*
X5125812Y-19527484D01*
X5125812Y-19527484D02*
X5106765Y-19517960D01*
X5106765Y-19517960D02*
X5097241Y-19508436D01*
X5097241Y-19508436D02*
X5087717Y-19489389D01*
X5087717Y-19489389D02*
X5078193Y-19451294D01*
X5078193Y-19451294D02*
X5078193Y-19403674D01*
X5078193Y-19403674D02*
X5087717Y-19365579D01*
X5087717Y-19365579D02*
X5097241Y-19346532D01*
X5097241Y-19346532D02*
X5106765Y-19337008D01*
X5106765Y-19337008D02*
X5125812Y-19327484D01*
X5316288Y-19327484D02*
X5335336Y-19327484D01*
X5335336Y-19327484D02*
X5354384Y-19337008D01*
X5354384Y-19337008D02*
X5363908Y-19346532D01*
X5363908Y-19346532D02*
X5373431Y-19365579D01*
X5373431Y-19365579D02*
X5382955Y-19403674D01*
X5382955Y-19403674D02*
X5382955Y-19451294D01*
X5382955Y-19451294D02*
X5373431Y-19489389D01*
X5373431Y-19489389D02*
X5363908Y-19508436D01*
X5363908Y-19508436D02*
X5354384Y-19517960D01*
X5354384Y-19517960D02*
X5335336Y-19527484D01*
X5335336Y-19527484D02*
X5316288Y-19527484D01*
X5316288Y-19527484D02*
X5297241Y-19517960D01*
X5297241Y-19517960D02*
X5287717Y-19508436D01*
X5287717Y-19508436D02*
X5278193Y-19489389D01*
X5278193Y-19489389D02*
X5268669Y-19451294D01*
X5268669Y-19451294D02*
X5268669Y-19403674D01*
X5268669Y-19403674D02*
X5278193Y-19365579D01*
X5278193Y-19365579D02*
X5287717Y-19346532D01*
X5287717Y-19346532D02*
X5297241Y-19337008D01*
X5297241Y-19337008D02*
X5316288Y-19327484D01*
X5468669Y-19527484D02*
X5468669Y-19394151D01*
X5468669Y-19413198D02*
X5478193Y-19403674D01*
X5478193Y-19403674D02*
X5497241Y-19394151D01*
X5497241Y-19394151D02*
X5525812Y-19394151D01*
X5525812Y-19394151D02*
X5544860Y-19403674D01*
X5544860Y-19403674D02*
X5554384Y-19422722D01*
X5554384Y-19422722D02*
X5554384Y-19527484D01*
X5554384Y-19422722D02*
X5563908Y-19403674D01*
X5563908Y-19403674D02*
X5582955Y-19394151D01*
X5582955Y-19394151D02*
X5611526Y-19394151D01*
X5611526Y-19394151D02*
X5630574Y-19403674D01*
X5630574Y-19403674D02*
X5640098Y-19422722D01*
X5640098Y-19422722D02*
X5640098Y-19527484D01*
X5735336Y-19527484D02*
X5735336Y-19394151D01*
X5735336Y-19413198D02*
X5744860Y-19403674D01*
X5744860Y-19403674D02*
X5763907Y-19394151D01*
X5763907Y-19394151D02*
X5792479Y-19394151D01*
X5792479Y-19394151D02*
X5811527Y-19403674D01*
X5811527Y-19403674D02*
X5821050Y-19422722D01*
X5821050Y-19422722D02*
X5821050Y-19527484D01*
X5821050Y-19422722D02*
X5830574Y-19403674D01*
X5830574Y-19403674D02*
X5849622Y-19394151D01*
X5849622Y-19394151D02*
X5878193Y-19394151D01*
X5878193Y-19394151D02*
X5897241Y-19403674D01*
X5897241Y-19403674D02*
X5906765Y-19422722D01*
X5906765Y-19422722D02*
X5906765Y-19527484D01*
X6297241Y-19317960D02*
X6125812Y-19575103D01*
X6554384Y-19327484D02*
X6573431Y-19327484D01*
X6573431Y-19327484D02*
X6592479Y-19337008D01*
X6592479Y-19337008D02*
X6602003Y-19346532D01*
X6602003Y-19346532D02*
X6611527Y-19365579D01*
X6611527Y-19365579D02*
X6621050Y-19403674D01*
X6621050Y-19403674D02*
X6621050Y-19451294D01*
X6621050Y-19451294D02*
X6611527Y-19489389D01*
X6611527Y-19489389D02*
X6602003Y-19508436D01*
X6602003Y-19508436D02*
X6592479Y-19517960D01*
X6592479Y-19517960D02*
X6573431Y-19527484D01*
X6573431Y-19527484D02*
X6554384Y-19527484D01*
X6554384Y-19527484D02*
X6535336Y-19517960D01*
X6535336Y-19517960D02*
X6525812Y-19508436D01*
X6525812Y-19508436D02*
X6516289Y-19489389D01*
X6516289Y-19489389D02*
X6506765Y-19451294D01*
X6506765Y-19451294D02*
X6506765Y-19403674D01*
X6506765Y-19403674D02*
X6516289Y-19365579D01*
X6516289Y-19365579D02*
X6525812Y-19346532D01*
X6525812Y-19346532D02*
X6535336Y-19337008D01*
X6535336Y-19337008D02*
X6554384Y-19327484D01*
X6706765Y-19508436D02*
X6716289Y-19517960D01*
X6716289Y-19517960D02*
X6706765Y-19527484D01*
X6706765Y-19527484D02*
X6697241Y-19517960D01*
X6697241Y-19517960D02*
X6706765Y-19508436D01*
X6706765Y-19508436D02*
X6706765Y-19527484D01*
X6906765Y-19527484D02*
X6792479Y-19527484D01*
X6849622Y-19527484D02*
X6849622Y-19327484D01*
X6849622Y-19327484D02*
X6830574Y-19356055D01*
X6830574Y-19356055D02*
X6811527Y-19375103D01*
X6811527Y-19375103D02*
X6792479Y-19384627D01*
X7078193Y-19327484D02*
X7040098Y-19327484D01*
X7040098Y-19327484D02*
X7021050Y-19337008D01*
X7021050Y-19337008D02*
X7011527Y-19346532D01*
X7011527Y-19346532D02*
X6992479Y-19375103D01*
X6992479Y-19375103D02*
X6982955Y-19413198D01*
X6982955Y-19413198D02*
X6982955Y-19489389D01*
X6982955Y-19489389D02*
X6992479Y-19508436D01*
X6992479Y-19508436D02*
X7002003Y-19517960D01*
X7002003Y-19517960D02*
X7021050Y-19527484D01*
X7021050Y-19527484D02*
X7059146Y-19527484D01*
X7059146Y-19527484D02*
X7078193Y-19517960D01*
X7078193Y-19517960D02*
X7087717Y-19508436D01*
X7087717Y-19508436D02*
X7097241Y-19489389D01*
X7097241Y-19489389D02*
X7097241Y-19441770D01*
X7097241Y-19441770D02*
X7087717Y-19422722D01*
X7087717Y-19422722D02*
X7078193Y-19413198D01*
X7078193Y-19413198D02*
X7059146Y-19403674D01*
X7059146Y-19403674D02*
X7021050Y-19403674D01*
X7021050Y-19403674D02*
X7002003Y-19413198D01*
X7002003Y-19413198D02*
X6992479Y-19422722D01*
X6992479Y-19422722D02*
X6982955Y-19441770D01*
X7287717Y-19527484D02*
X7173431Y-19527484D01*
X7230574Y-19527484D02*
X7230574Y-19327484D01*
X7230574Y-19327484D02*
X7211527Y-19356055D01*
X7211527Y-19356055D02*
X7192479Y-19375103D01*
X7192479Y-19375103D02*
X7173431Y-19384627D01*
X7459146Y-19394151D02*
X7459146Y-19527484D01*
X7411527Y-19317960D02*
X7363908Y-19460817D01*
X7363908Y-19460817D02*
X7487717Y-19460817D01*
X7554384Y-19327484D02*
X7554384Y-19365579D01*
X7630574Y-19327484D02*
X7630574Y-19365579D01*
X7925813Y-19603674D02*
X7916289Y-19594151D01*
X7916289Y-19594151D02*
X7897241Y-19565579D01*
X7897241Y-19565579D02*
X7887717Y-19546532D01*
X7887717Y-19546532D02*
X7878193Y-19517960D01*
X7878193Y-19517960D02*
X7868670Y-19470341D01*
X7868670Y-19470341D02*
X7868670Y-19432246D01*
X7868670Y-19432246D02*
X7878193Y-19384627D01*
X7878193Y-19384627D02*
X7887717Y-19356055D01*
X7887717Y-19356055D02*
X7897241Y-19337008D01*
X7897241Y-19337008D02*
X7916289Y-19308436D01*
X7916289Y-19308436D02*
X7925813Y-19298913D01*
X8087717Y-19394151D02*
X8087717Y-19527484D01*
X8040098Y-19317960D02*
X7992479Y-19460817D01*
X7992479Y-19460817D02*
X8116289Y-19460817D01*
X8182955Y-19346532D02*
X8192479Y-19337008D01*
X8192479Y-19337008D02*
X8211527Y-19327484D01*
X8211527Y-19327484D02*
X8259146Y-19327484D01*
X8259146Y-19327484D02*
X8278193Y-19337008D01*
X8278193Y-19337008D02*
X8287717Y-19346532D01*
X8287717Y-19346532D02*
X8297241Y-19365579D01*
X8297241Y-19365579D02*
X8297241Y-19384627D01*
X8297241Y-19384627D02*
X8287717Y-19413198D01*
X8287717Y-19413198D02*
X8173432Y-19527484D01*
X8173432Y-19527484D02*
X8297241Y-19527484D01*
X8535336Y-19527484D02*
X8535336Y-19327484D01*
X8621051Y-19527484D02*
X8621051Y-19422722D01*
X8621051Y-19422722D02*
X8611527Y-19403674D01*
X8611527Y-19403674D02*
X8592479Y-19394151D01*
X8592479Y-19394151D02*
X8563908Y-19394151D01*
X8563908Y-19394151D02*
X8544860Y-19403674D01*
X8544860Y-19403674D02*
X8535336Y-19413198D01*
X8744860Y-19527484D02*
X8725813Y-19517960D01*
X8725813Y-19517960D02*
X8716289Y-19508436D01*
X8716289Y-19508436D02*
X8706765Y-19489389D01*
X8706765Y-19489389D02*
X8706765Y-19432246D01*
X8706765Y-19432246D02*
X8716289Y-19413198D01*
X8716289Y-19413198D02*
X8725813Y-19403674D01*
X8725813Y-19403674D02*
X8744860Y-19394151D01*
X8744860Y-19394151D02*
X8773432Y-19394151D01*
X8773432Y-19394151D02*
X8792479Y-19403674D01*
X8792479Y-19403674D02*
X8802003Y-19413198D01*
X8802003Y-19413198D02*
X8811527Y-19432246D01*
X8811527Y-19432246D02*
X8811527Y-19489389D01*
X8811527Y-19489389D02*
X8802003Y-19508436D01*
X8802003Y-19508436D02*
X8792479Y-19517960D01*
X8792479Y-19517960D02*
X8773432Y-19527484D01*
X8773432Y-19527484D02*
X8744860Y-19527484D01*
X8925813Y-19527484D02*
X8906765Y-19517960D01*
X8906765Y-19517960D02*
X8897241Y-19498913D01*
X8897241Y-19498913D02*
X8897241Y-19327484D01*
X9078194Y-19517960D02*
X9059146Y-19527484D01*
X9059146Y-19527484D02*
X9021051Y-19527484D01*
X9021051Y-19527484D02*
X9002003Y-19517960D01*
X9002003Y-19517960D02*
X8992479Y-19498913D01*
X8992479Y-19498913D02*
X8992479Y-19422722D01*
X8992479Y-19422722D02*
X9002003Y-19403674D01*
X9002003Y-19403674D02*
X9021051Y-19394151D01*
X9021051Y-19394151D02*
X9059146Y-19394151D01*
X9059146Y-19394151D02*
X9078194Y-19403674D01*
X9078194Y-19403674D02*
X9087717Y-19422722D01*
X9087717Y-19422722D02*
X9087717Y-19441770D01*
X9087717Y-19441770D02*
X8992479Y-19460817D01*
X9163908Y-19517960D02*
X9182956Y-19527484D01*
X9182956Y-19527484D02*
X9221051Y-19527484D01*
X9221051Y-19527484D02*
X9240098Y-19517960D01*
X9240098Y-19517960D02*
X9249622Y-19498913D01*
X9249622Y-19498913D02*
X9249622Y-19489389D01*
X9249622Y-19489389D02*
X9240098Y-19470341D01*
X9240098Y-19470341D02*
X9221051Y-19460817D01*
X9221051Y-19460817D02*
X9192479Y-19460817D01*
X9192479Y-19460817D02*
X9173432Y-19451294D01*
X9173432Y-19451294D02*
X9163908Y-19432246D01*
X9163908Y-19432246D02*
X9163908Y-19422722D01*
X9163908Y-19422722D02*
X9173432Y-19403674D01*
X9173432Y-19403674D02*
X9192479Y-19394151D01*
X9192479Y-19394151D02*
X9221051Y-19394151D01*
X9221051Y-19394151D02*
X9240098Y-19403674D01*
X9316289Y-19603674D02*
X9325813Y-19594151D01*
X9325813Y-19594151D02*
X9344860Y-19565579D01*
X9344860Y-19565579D02*
X9354384Y-19546532D01*
X9354384Y-19546532D02*
X9363908Y-19517960D01*
X9363908Y-19517960D02*
X9373432Y-19470341D01*
X9373432Y-19470341D02*
X9373432Y-19432246D01*
X9373432Y-19432246D02*
X9363908Y-19384627D01*
X9363908Y-19384627D02*
X9354384Y-19356055D01*
X9354384Y-19356055D02*
X9344860Y-19337008D01*
X9344860Y-19337008D02*
X9325813Y-19308436D01*
X9325813Y-19308436D02*
X9316289Y-19298913D01*
X9678194Y-19603674D02*
X9668670Y-19594151D01*
X9668670Y-19594151D02*
X9649622Y-19565579D01*
X9649622Y-19565579D02*
X9640098Y-19546532D01*
X9640098Y-19546532D02*
X9630575Y-19517960D01*
X9630575Y-19517960D02*
X9621051Y-19470341D01*
X9621051Y-19470341D02*
X9621051Y-19432246D01*
X9621051Y-19432246D02*
X9630575Y-19384627D01*
X9630575Y-19384627D02*
X9640098Y-19356055D01*
X9640098Y-19356055D02*
X9649622Y-19337008D01*
X9649622Y-19337008D02*
X9668670Y-19308436D01*
X9668670Y-19308436D02*
X9678194Y-19298913D01*
X9754384Y-19394151D02*
X9754384Y-19527484D01*
X9754384Y-19413198D02*
X9763908Y-19403674D01*
X9763908Y-19403674D02*
X9782956Y-19394151D01*
X9782956Y-19394151D02*
X9811527Y-19394151D01*
X9811527Y-19394151D02*
X9830575Y-19403674D01*
X9830575Y-19403674D02*
X9840098Y-19422722D01*
X9840098Y-19422722D02*
X9840098Y-19527484D01*
X9963908Y-19527484D02*
X9944860Y-19517960D01*
X9944860Y-19517960D02*
X9935337Y-19508436D01*
X9935337Y-19508436D02*
X9925813Y-19489389D01*
X9925813Y-19489389D02*
X9925813Y-19432246D01*
X9925813Y-19432246D02*
X9935337Y-19413198D01*
X9935337Y-19413198D02*
X9944860Y-19403674D01*
X9944860Y-19403674D02*
X9963908Y-19394151D01*
X9963908Y-19394151D02*
X9992479Y-19394151D01*
X9992479Y-19394151D02*
X10011527Y-19403674D01*
X10011527Y-19403674D02*
X10021051Y-19413198D01*
X10021051Y-19413198D02*
X10030575Y-19432246D01*
X10030575Y-19432246D02*
X10030575Y-19489389D01*
X10030575Y-19489389D02*
X10021051Y-19508436D01*
X10021051Y-19508436D02*
X10011527Y-19517960D01*
X10011527Y-19517960D02*
X9992479Y-19527484D01*
X9992479Y-19527484D02*
X9963908Y-19527484D01*
X10087718Y-19394151D02*
X10163908Y-19394151D01*
X10116289Y-19327484D02*
X10116289Y-19498913D01*
X10116289Y-19498913D02*
X10125813Y-19517960D01*
X10125813Y-19517960D02*
X10144860Y-19527484D01*
X10144860Y-19527484D02*
X10163908Y-19527484D01*
X10382956Y-19394151D02*
X10382956Y-19594151D01*
X10382956Y-19403674D02*
X10402003Y-19394151D01*
X10402003Y-19394151D02*
X10440099Y-19394151D01*
X10440099Y-19394151D02*
X10459146Y-19403674D01*
X10459146Y-19403674D02*
X10468670Y-19413198D01*
X10468670Y-19413198D02*
X10478194Y-19432246D01*
X10478194Y-19432246D02*
X10478194Y-19489389D01*
X10478194Y-19489389D02*
X10468670Y-19508436D01*
X10468670Y-19508436D02*
X10459146Y-19517960D01*
X10459146Y-19517960D02*
X10440099Y-19527484D01*
X10440099Y-19527484D02*
X10402003Y-19527484D01*
X10402003Y-19527484D02*
X10382956Y-19517960D01*
X10592479Y-19527484D02*
X10573432Y-19517960D01*
X10573432Y-19517960D02*
X10563908Y-19498913D01*
X10563908Y-19498913D02*
X10563908Y-19327484D01*
X10754384Y-19527484D02*
X10754384Y-19422722D01*
X10754384Y-19422722D02*
X10744860Y-19403674D01*
X10744860Y-19403674D02*
X10725813Y-19394151D01*
X10725813Y-19394151D02*
X10687718Y-19394151D01*
X10687718Y-19394151D02*
X10668670Y-19403674D01*
X10754384Y-19517960D02*
X10735337Y-19527484D01*
X10735337Y-19527484D02*
X10687718Y-19527484D01*
X10687718Y-19527484D02*
X10668670Y-19517960D01*
X10668670Y-19517960D02*
X10659146Y-19498913D01*
X10659146Y-19498913D02*
X10659146Y-19479865D01*
X10659146Y-19479865D02*
X10668670Y-19460817D01*
X10668670Y-19460817D02*
X10687718Y-19451294D01*
X10687718Y-19451294D02*
X10735337Y-19451294D01*
X10735337Y-19451294D02*
X10754384Y-19441770D01*
X10821051Y-19394151D02*
X10897241Y-19394151D01*
X10849622Y-19327484D02*
X10849622Y-19498913D01*
X10849622Y-19498913D02*
X10859146Y-19517960D01*
X10859146Y-19517960D02*
X10878194Y-19527484D01*
X10878194Y-19527484D02*
X10897241Y-19527484D01*
X11040099Y-19517960D02*
X11021051Y-19527484D01*
X11021051Y-19527484D02*
X10982956Y-19527484D01*
X10982956Y-19527484D02*
X10963908Y-19517960D01*
X10963908Y-19517960D02*
X10954384Y-19498913D01*
X10954384Y-19498913D02*
X10954384Y-19422722D01*
X10954384Y-19422722D02*
X10963908Y-19403674D01*
X10963908Y-19403674D02*
X10982956Y-19394151D01*
X10982956Y-19394151D02*
X11021051Y-19394151D01*
X11021051Y-19394151D02*
X11040099Y-19403674D01*
X11040099Y-19403674D02*
X11049622Y-19422722D01*
X11049622Y-19422722D02*
X11049622Y-19441770D01*
X11049622Y-19441770D02*
X10954384Y-19460817D01*
X11221051Y-19527484D02*
X11221051Y-19327484D01*
X11221051Y-19517960D02*
X11202003Y-19527484D01*
X11202003Y-19527484D02*
X11163908Y-19527484D01*
X11163908Y-19527484D02*
X11144860Y-19517960D01*
X11144860Y-19517960D02*
X11135337Y-19508436D01*
X11135337Y-19508436D02*
X11125813Y-19489389D01*
X11125813Y-19489389D02*
X11125813Y-19432246D01*
X11125813Y-19432246D02*
X11135337Y-19413198D01*
X11135337Y-19413198D02*
X11144860Y-19403674D01*
X11144860Y-19403674D02*
X11163908Y-19394151D01*
X11163908Y-19394151D02*
X11202003Y-19394151D01*
X11202003Y-19394151D02*
X11221051Y-19403674D01*
X11297241Y-19603674D02*
X11306765Y-19594151D01*
X11306765Y-19594151D02*
X11325813Y-19565579D01*
X11325813Y-19565579D02*
X11335337Y-19546532D01*
X11335337Y-19546532D02*
X11344860Y-19517960D01*
X11344860Y-19517960D02*
X11354384Y-19470341D01*
X11354384Y-19470341D02*
X11354384Y-19432246D01*
X11354384Y-19432246D02*
X11344860Y-19384627D01*
X11344860Y-19384627D02*
X11335337Y-19356055D01*
X11335337Y-19356055D02*
X11325813Y-19337008D01*
X11325813Y-19337008D02*
X11306765Y-19308436D01*
X11306765Y-19308436D02*
X11297241Y-19298913D01*
M02*
