M48
; DRILL file {KiCad 8.0.1} date 2024-05-18T22:20:28+0200
; FORMAT={-:-/ absolute / metric / decimal}
; #@! TF.CreationDate,2024-05-18T22:20:28+02:00
; #@! TF.GenerationSoftware,Kicad,Pcbnew,8.0.1
; #@! TF.FileFunction,NonPlated,1,2,NPTH
FMAT,2
METRIC
; #@! TA.AperFunction,NonPlated,NPTH,ComponentDrill
T1C0.500
; #@! TA.AperFunction,NonPlated,NPTH,ComponentDrill
T2C1.200
; #@! TA.AperFunction,NonPlated,NPTH,ComponentDrill
T3C1.900
; #@! TA.AperFunction,NonPlated,NPTH,ComponentDrill
T4C2.200
; #@! TA.AperFunction,NonPlated,NPTH,ComponentDrill
T5C3.000
; #@! TA.AperFunction,NonPlated,NPTH,ComponentDrill
T6C4.100
%
G90
G05
T1
X50.717Y-145.273
X51.509Y-145.273
X52.3Y-145.273
X53.092Y-145.273
X53.884Y-145.273
X54.675Y-145.273
X55.467Y-145.273
X56.225Y-145.273
X57.017Y-145.273
X57.809Y-145.273
X58.6Y-145.273
X59.392Y-145.273
X60.184Y-145.273
X60.975Y-145.273
X106.799Y-53.78
X107.591Y-53.78
X108.382Y-53.78
X109.174Y-53.78
X109.966Y-53.78
X110.757Y-53.78
X111.549Y-53.78
X112.307Y-53.78
X113.099Y-53.78
X113.891Y-53.78
X114.682Y-53.78
X115.474Y-53.78
X116.266Y-53.78
X117.057Y-53.78
X291.417Y-53.773
X292.209Y-53.773
X293.0Y-53.773
X293.792Y-53.773
X294.584Y-53.773
X295.375Y-53.773
X296.167Y-53.773
X296.925Y-53.773
X297.717Y-53.773
X298.509Y-53.773
X299.3Y-53.773
X300.092Y-53.773
X300.884Y-53.773
X301.675Y-53.773
X347.417Y-145.273
X348.209Y-145.273
X349.0Y-145.273
X349.792Y-145.273
X350.584Y-145.273
X351.375Y-145.273
X352.167Y-145.273
X352.925Y-145.273
X353.717Y-145.273
X354.509Y-145.273
X355.3Y-145.273
X356.092Y-145.273
X356.884Y-145.273
X357.675Y-145.273
T2
X169.786Y-117.541
X176.786Y-117.541
X231.65Y-117.525
X238.65Y-117.525
T3
X50.979Y-94.054
X50.979Y-112.654
X50.979Y-131.255
X61.139Y-94.054
X61.139Y-112.654
X61.139Y-131.255
X69.62Y-87.054
X69.62Y-105.654
X69.62Y-124.254
X79.779Y-87.054
X79.779Y-105.654
X79.779Y-124.254
X88.26Y-74.554
X88.26Y-93.154
X88.26Y-111.754
X98.419Y-74.554
X98.419Y-93.154
X98.419Y-111.754
X106.899Y-69.554
X106.899Y-88.154
X106.899Y-106.754
X117.059Y-69.554
X117.059Y-88.154
X117.059Y-106.754
X125.539Y-74.454
X125.539Y-93.054
X125.539Y-111.654
X135.7Y-74.454
X135.7Y-93.054
X135.7Y-111.654
X144.179Y-77.054
X144.179Y-95.654
X144.179Y-114.254
X146.224Y-137.047
X154.339Y-77.054
X154.339Y-95.654
X154.339Y-114.254
X156.235Y-138.781
X165.556Y-141.042
X175.144Y-144.406
X183.909Y-148.324
X192.81Y-153.224
X215.677Y-153.225
X224.577Y-148.326
X233.343Y-144.406
X242.931Y-141.043
X252.251Y-138.781
X254.14Y-77.06
X254.147Y-95.655
X254.147Y-114.255
X262.262Y-137.047
X264.3Y-77.06
X264.308Y-95.655
X264.308Y-114.255
X272.787Y-74.455
X272.787Y-93.055
X272.787Y-111.655
X282.947Y-74.455
X282.947Y-93.055
X282.947Y-111.655
X291.428Y-69.555
X291.428Y-88.155
X291.428Y-106.755
X301.587Y-69.555
X301.587Y-88.155
X301.587Y-106.755
X310.067Y-74.555
X310.067Y-93.155
X310.067Y-111.755
X320.227Y-74.555
X320.227Y-93.155
X320.227Y-111.755
X328.707Y-87.055
X328.707Y-105.655
X328.707Y-124.255
X338.868Y-87.055
X338.868Y-105.655
X338.868Y-124.255
X347.347Y-94.055
X347.347Y-112.655
X347.347Y-131.255
X357.507Y-94.055
X357.507Y-112.655
X357.507Y-131.255
T4
X162.022Y-117.503
X176.453Y-126.024
X232.031Y-126.04
X246.463Y-117.519
T5
X52.249Y-91.514
X52.249Y-110.114
X52.249Y-128.714
X58.599Y-88.974
X58.599Y-107.575
X58.599Y-126.174
X70.889Y-84.514
X70.889Y-103.114
X70.889Y-121.715
X77.239Y-81.974
X77.239Y-100.575
X77.239Y-119.174
X89.529Y-72.014
X89.529Y-90.614
X89.529Y-109.215
X95.879Y-69.474
X95.879Y-88.075
X95.879Y-106.674
X108.169Y-67.014
X108.169Y-85.614
X108.169Y-104.215
X114.519Y-64.474
X114.519Y-83.075
X114.519Y-101.674
X126.809Y-71.914
X126.809Y-90.514
X126.809Y-109.114
X133.159Y-69.374
X133.159Y-87.974
X133.159Y-106.575
X145.45Y-74.514
X145.45Y-93.114
X145.45Y-111.715
X147.909Y-134.761
X151.799Y-71.974
X151.799Y-90.575
X151.799Y-109.174
X154.6Y-133.342
X167.595Y-139.066
X174.428Y-138.771
X186.247Y-146.712
X193.034Y-147.548
X215.564Y-150.387
X219.903Y-145.1
X233.701Y-141.589
X238.852Y-137.091
X253.069Y-136.062
X255.41Y-74.52
X255.417Y-93.115
X255.417Y-111.715
X258.892Y-132.475
X261.76Y-71.98
X261.767Y-90.575
X261.767Y-109.175
X274.058Y-71.915
X274.058Y-90.515
X274.058Y-109.115
X280.407Y-69.375
X280.407Y-87.975
X280.407Y-106.575
X292.697Y-67.015
X292.697Y-85.615
X292.697Y-104.215
X299.048Y-64.475
X299.048Y-83.075
X299.048Y-101.675
X311.337Y-72.015
X311.337Y-90.615
X311.337Y-109.215
X317.688Y-69.475
X317.688Y-88.075
X317.688Y-106.675
X329.977Y-84.515
X329.977Y-103.115
X329.977Y-121.715
X336.327Y-81.975
X336.327Y-100.575
X336.327Y-119.175
X348.618Y-91.515
X348.618Y-110.115
X348.618Y-128.715
X354.967Y-88.975
X354.967Y-107.575
X354.967Y-126.175
T6
X56.059Y-94.054
X56.059Y-112.654
X56.059Y-131.255
X74.7Y-87.054
X74.7Y-105.654
X74.7Y-124.254
X93.34Y-74.554
X93.34Y-93.154
X93.34Y-111.754
X111.98Y-69.554
X111.98Y-88.154
X111.98Y-106.754
X130.619Y-74.454
X130.619Y-93.054
X130.619Y-111.654
X149.26Y-77.054
X149.26Y-95.654
X149.26Y-114.254
X151.23Y-137.914
X170.35Y-142.724
X188.359Y-150.774
X220.127Y-150.775
X238.137Y-142.725
X257.257Y-137.914
X259.221Y-77.06
X259.227Y-95.655
X259.227Y-114.255
X277.868Y-74.455
X277.868Y-93.055
X277.868Y-111.655
X296.507Y-69.555
X296.507Y-88.155
X296.507Y-106.755
X315.147Y-74.555
X315.147Y-93.155
X315.147Y-111.755
X333.787Y-87.055
X333.787Y-105.655
X333.787Y-124.255
X352.428Y-94.055
X352.428Y-112.655
X352.428Y-131.255
M30
