%TF.GenerationSoftware,KiCad,Pcbnew,8.0.1*%
%TF.CreationDate,2024-05-18T22:20:29+02:00*%
%TF.ProjectId,cornia,636f726e-6961-42e6-9b69-6361645f7063,3.0.1*%
%TF.SameCoordinates,Original*%
%TF.FileFunction,Drillmap*%
%TF.FilePolarity,Positive*%
%FSLAX45Y45*%
G04 Gerber Fmt 4.5, Leading zero omitted, Abs format (unit mm)*
G04 Created by KiCad (PCBNEW 8.0.1) date 2024-05-18 22:20:29*
%MOMM*%
%LPD*%
G01*
G04 APERTURE LIST*
%ADD10C,0.200000*%
%ADD11C,0.100000*%
%ADD12C,0.130000*%
G04 APERTURE END LIST*
D10*
X27124575Y-14507155D02*
G75*
G02*
X26853303Y-14857393I-295595J-51225D01*
G01*
X33800750Y-13828000D02*
X32801014Y-13828000D01*
X36300750Y-5278000D02*
X30310750Y-5278000D01*
X29002539Y-5277290D02*
X11848960Y-5278711D01*
X14008198Y-14857391D02*
G75*
G02*
X13736927Y-14507155I24322J299011D01*
G01*
X36300750Y-14628000D02*
G75*
G02*
X36500750Y-14828000I0J-200000D01*
G01*
X34202171Y-14628000D02*
X34602540Y-14627289D01*
X6860750Y-16606578D02*
X6859329Y-14828000D01*
X13779241Y-12906417D02*
G75*
G02*
X13966784Y-13180753I-44441J-231653D01*
G01*
X4360750Y-8128000D02*
X4360750Y-14228000D01*
X10540750Y-5478000D02*
X10468486Y-5478000D01*
X17860750Y-7253000D02*
X16185750Y-7253000D01*
X4360750Y-4978000D02*
X4360750Y-5078000D01*
X4932540Y-14427289D02*
G75*
G02*
X5032541Y-14527289I1J-100001D01*
G01*
X36300750Y-7928000D02*
G75*
G02*
X36500750Y-8128000I10J-199990D01*
G01*
X6224750Y-7728000D02*
G75*
G02*
X6024750Y-7928000I-200000J0D01*
G01*
X34636750Y-7428000D02*
X34636750Y-7728000D01*
X30534435Y-5536578D02*
X30917278Y-5919421D01*
X35910750Y-14628000D02*
X36300750Y-14628000D01*
X6860750Y-14228000D02*
X6860750Y-14028000D01*
X32972750Y-7228000D02*
G75*
G02*
X32772750Y-7028000I0J200000D01*
G01*
X6024750Y-7928000D02*
X4560750Y-7928000D01*
X30310750Y-5478000D02*
G75*
G02*
X30210750Y-5378000I0J100000D01*
G01*
X8088750Y-6178000D02*
X8088750Y-7028000D01*
X29002539Y-5477289D02*
X28924486Y-5478000D01*
X12451278Y-5909421D02*
X12078436Y-5536579D01*
X24875750Y-6428000D02*
X24875750Y-7053000D01*
X6224750Y-7428000D02*
X6224750Y-7728000D01*
X13785907Y-5968000D02*
G75*
G02*
X13927330Y-6026577I3J-200000D01*
G01*
X34002172Y-14828000D02*
X34000750Y-16606578D01*
X34602540Y-14428000D02*
G75*
G02*
X34701830Y-14527289I1J-99290D01*
G01*
X13779241Y-12906417D02*
X13563963Y-12877327D01*
X13352747Y-12851652D01*
X13145445Y-12829420D01*
X12941910Y-12810657D01*
X12741995Y-12795389D01*
X12545550Y-12783643D01*
X12352430Y-12775446D01*
X12162485Y-12770824D01*
X11975568Y-12769804D01*
X11791532Y-12772411D01*
X11610229Y-12778674D01*
X11431510Y-12788618D01*
X11255229Y-12802269D01*
X11081238Y-12819656D01*
X10909389Y-12840803D01*
X10739533Y-12865738D01*
X10571525Y-12894487D01*
X10405215Y-12927077D01*
X10240456Y-12963534D01*
X10077100Y-13003885D01*
X9915000Y-13048157D01*
X9754008Y-13096375D01*
X9593976Y-13148567D01*
X9434757Y-13204759D01*
X9276202Y-13264978D01*
X9118165Y-13329250D01*
X8960496Y-13397602D01*
X8803050Y-13470060D01*
X8645677Y-13546652D01*
X8488231Y-13627402D01*
X8330563Y-13712339D01*
X8172525Y-13801489D01*
X7888750Y-7228000D02*
X6424750Y-7228000D01*
X31058699Y-5978000D02*
G75*
G02*
X30917276Y-5919423I1J200010D01*
G01*
X25075750Y-6228000D02*
X26649907Y-6228000D01*
X34000750Y-16606578D02*
G75*
G02*
X33790833Y-16807759I-200000J-1422D01*
G01*
X34602540Y-14428000D02*
X34200750Y-14428000D01*
X36500750Y-8128000D02*
X36500750Y-14228000D01*
X14008198Y-14857391D02*
G75*
G02*
X18959778Y-16539482I-869358J-10688178D01*
G01*
X36300750Y-4778000D02*
X4560750Y-4778000D01*
X6860750Y-14028000D02*
G75*
G02*
X7060750Y-13828000I200000J0D01*
G01*
X4560750Y-14428000D02*
G75*
G02*
X4360750Y-14228000I0J200000D01*
G01*
X8172525Y-13801489D02*
G75*
G02*
X8060486Y-13827998I-112036J223489D01*
G01*
X5032539Y-14527289D02*
G75*
G02*
X4932540Y-14627289I-99999J-1D01*
G01*
X11937014Y-5478000D02*
G75*
G02*
X12078434Y-5536581I-4J-200000D01*
G01*
X10540750Y-5278000D02*
G75*
G02*
X10640750Y-5378000I0J-100000D01*
G01*
X36300750Y-17308000D02*
X4560750Y-17308000D01*
X4360750Y-8128000D02*
G75*
G02*
X4560750Y-7928000I200000J0D01*
G01*
X4360750Y-14828000D02*
X4360750Y-17108000D01*
X15785750Y-6228000D02*
X14211593Y-6228000D01*
X21333847Y-16395839D02*
X20579086Y-15019151D01*
X6659329Y-14628000D02*
G75*
G02*
X6859330Y-14828000I1J-200000D01*
G01*
X26791329Y-6169421D02*
G75*
G02*
X26649907Y-6227998I-141419J141421D01*
G01*
X30393014Y-5478000D02*
G75*
G02*
X30534432Y-5536581I-14J-200020D01*
G01*
X36500750Y-14228000D02*
G75*
G02*
X36300750Y-14428000I-200000J0D01*
G01*
X14211593Y-6228000D02*
G75*
G02*
X14070170Y-6169423I-3J200000D01*
G01*
X19527653Y-16395839D02*
X20282414Y-15019151D01*
X6224750Y-7428000D02*
G75*
G02*
X6424750Y-7228000I200000J0D01*
G01*
X26934170Y-6026577D02*
G75*
G02*
X27075593Y-5968000I141420J-141423D01*
G01*
X4560750Y-17308000D02*
G75*
G02*
X4360750Y-17108000I0J200000D01*
G01*
X7060750Y-13828000D02*
X8060486Y-13828000D01*
X14070171Y-6169421D02*
X13927329Y-6026579D01*
X21901723Y-16539484D02*
G75*
G02*
X26853303Y-14857394I5820937J-9006086D01*
G01*
X17860750Y-7253000D02*
G75*
G02*
X18060750Y-7453000I0J-200000D01*
G01*
X12592699Y-5968000D02*
G75*
G02*
X12451278Y-5909421I1J200000D01*
G01*
X15785750Y-6228000D02*
G75*
G02*
X15985750Y-6428000I0J-200000D01*
G01*
X4560750Y-14428000D02*
X4932540Y-14427289D01*
X22303570Y-13535871D02*
X20753202Y-14354357D01*
X9802801Y-5978000D02*
X8288750Y-5978000D01*
X36500750Y-5078000D02*
X36500750Y-4978000D01*
X34200750Y-14428000D02*
G75*
G02*
X34000750Y-14228000I0J200000D01*
G01*
X11937014Y-5478000D02*
X11848961Y-5478710D01*
X29002539Y-5277290D02*
G75*
G02*
X29102540Y-5377289I1J-100001D01*
G01*
X33800750Y-13828000D02*
G75*
G02*
X34000750Y-14028000I0J-200000D01*
G01*
X34000750Y-14228000D02*
X34000750Y-14028000D01*
X22800750Y-7453000D02*
G75*
G02*
X23000750Y-7253000I200000J0D01*
G01*
X20579086Y-15019151D02*
G75*
G02*
X20753200Y-14354354I438434J240371D01*
G01*
X31058699Y-5978000D02*
X32572750Y-5978000D01*
X34836750Y-7928000D02*
X36300750Y-7928000D01*
X30393014Y-5478000D02*
X30310750Y-5478000D01*
X6860750Y-14228000D02*
G75*
G02*
X6660750Y-14428000I-200000J0D01*
G01*
X29102539Y-5377289D02*
G75*
G02*
X29002539Y-5477289I-99999J-1D01*
G01*
X4360750Y-14828000D02*
G75*
G02*
X4560750Y-14628000I200000J0D01*
G01*
X24675750Y-7253000D02*
X23000750Y-7253000D01*
X8088750Y-7028000D02*
G75*
G02*
X7888750Y-7228000I-200000J0D01*
G01*
X20108298Y-14354357D02*
G75*
G02*
X20282410Y-15019149I-264318J-424423D01*
G01*
X4560750Y-5278000D02*
G75*
G02*
X4360750Y-5078000I0J200000D01*
G01*
X10640750Y-5378000D02*
G75*
G02*
X10540750Y-5478000I-100000J0D01*
G01*
X26894722Y-13180751D02*
G75*
G02*
X27082258Y-12906411I231978J42692D01*
G01*
X32772750Y-6178000D02*
X32772750Y-7028000D01*
X24875750Y-7053000D02*
G75*
G02*
X24675750Y-7253000I-200000J0D01*
G01*
X7070667Y-16807759D02*
G75*
G02*
X6860750Y-16606578I-9917J199759D01*
G01*
X18557930Y-13535872D02*
G75*
G02*
X18060750Y-12878000I252820J707872D01*
G01*
X28410222Y-5909421D02*
X28783064Y-5536579D01*
X28783064Y-5536579D02*
G75*
G02*
X28924486Y-5478002I141406J-141391D01*
G01*
X36500750Y-17108000D02*
G75*
G02*
X36300750Y-17308000I-200000J0D01*
G01*
X6240750Y-14628000D02*
G75*
G02*
X6140750Y-14528000I0J100000D01*
G01*
X32972750Y-7228000D02*
X34436750Y-7228000D01*
X18557930Y-13535872D02*
X20108298Y-14354357D01*
X27075593Y-5968000D02*
X28268800Y-5968000D01*
X36500750Y-17108000D02*
X36500750Y-14828000D01*
X36500750Y-5078000D02*
G75*
G02*
X36300750Y-5278000I-200000J0D01*
G01*
X19527653Y-16395839D02*
G75*
G02*
X18959781Y-16539478I-350743J192299D01*
G01*
X11748961Y-5378711D02*
G75*
G02*
X11848960Y-5278711I99999J1D01*
G01*
X34436750Y-7228000D02*
G75*
G02*
X34636750Y-7428000I0J-200000D01*
G01*
X21901722Y-16539483D02*
G75*
G02*
X21333842Y-16395841I-217132J335943D01*
G01*
X28410222Y-5909421D02*
G75*
G02*
X28268800Y-5967996I-141412J141411D01*
G01*
X15985750Y-7053000D02*
X15985750Y-6428000D01*
X18060750Y-12878000D02*
X18060750Y-7453000D01*
X22800750Y-12878000D02*
G75*
G02*
X22303570Y-13535871I-750000J50000D01*
G01*
X10327065Y-5536579D02*
X9944222Y-5919421D01*
X35910750Y-14628000D02*
G75*
G02*
X35810750Y-14528000I0J100000D01*
G01*
X9944221Y-5919421D02*
G75*
G02*
X9802801Y-5978000I-141421J141421D01*
G01*
X10327065Y-5536579D02*
G75*
G02*
X10468486Y-5477997I141425J-141421D01*
G01*
X32572750Y-5978000D02*
G75*
G02*
X32772750Y-6178000I0J-200000D01*
G01*
X6240750Y-14428000D02*
X6660750Y-14428000D01*
X11848961Y-5478710D02*
G75*
G02*
X11748960Y-5378711I-1J100000D01*
G01*
X8088750Y-6178000D02*
G75*
G02*
X8288750Y-5978000I200000J0D01*
G01*
X24875750Y-6428000D02*
G75*
G02*
X25075750Y-6228000I200000J0D01*
G01*
X34836750Y-7928000D02*
G75*
G02*
X34636750Y-7728000I0J200000D01*
G01*
X4360750Y-4978000D02*
G75*
G02*
X4560750Y-4778000I200000J0D01*
G01*
X16185750Y-7253000D02*
G75*
G02*
X15985750Y-7053000I0J200000D01*
G01*
X36300750Y-4778000D02*
G75*
G02*
X36500750Y-4978000I0J-200000D01*
G01*
X4560750Y-14628000D02*
X4932540Y-14627289D01*
X34702539Y-14527289D02*
G75*
G02*
X34602540Y-14627289I-99999J-1D01*
G01*
X13966778Y-13180752D02*
X13736924Y-14507155D01*
X35910750Y-14428000D02*
X36300750Y-14428000D01*
X26791329Y-6169421D02*
X26934170Y-6026577D01*
X26894722Y-13180751D02*
X27124576Y-14507155D01*
X6140750Y-14528000D02*
G75*
G02*
X6240750Y-14428000I100000J0D01*
G01*
X10540750Y-5278000D02*
X4560750Y-5278000D01*
X6240750Y-14628000D02*
X6659329Y-14628000D01*
X32801014Y-13828000D02*
G75*
G02*
X32688973Y-13801490I-14J249960D01*
G01*
X13785907Y-5968000D02*
X12592699Y-5968000D01*
X33790833Y-16807759D02*
X7070750Y-16808000D01*
X27082259Y-12906417D02*
X27297537Y-12877327D01*
X27508753Y-12851652D01*
X27716054Y-12829420D01*
X27919589Y-12810657D01*
X28119505Y-12795389D01*
X28315949Y-12783643D01*
X28509070Y-12775446D01*
X28699015Y-12770824D01*
X28885932Y-12769803D01*
X29069968Y-12772411D01*
X29251271Y-12778674D01*
X29429989Y-12788618D01*
X29606270Y-12802269D01*
X29780262Y-12819656D01*
X29952111Y-12840803D01*
X30121966Y-12865738D01*
X30289975Y-12894487D01*
X30456285Y-12927077D01*
X30621044Y-12963534D01*
X30784400Y-13003885D01*
X30946500Y-13048157D01*
X31107492Y-13096375D01*
X31267524Y-13148567D01*
X31426743Y-13204759D01*
X31585298Y-13264978D01*
X31743335Y-13329250D01*
X31901003Y-13397602D01*
X32058450Y-13470060D01*
X32215823Y-13546652D01*
X32373269Y-13627402D01*
X32530937Y-13712339D01*
X32688974Y-13801488D01*
X35810750Y-14528000D02*
G75*
G02*
X35910750Y-14428000I100000J0D01*
G01*
X34002172Y-14828000D02*
G75*
G02*
X34202171Y-14628001I199999J0D01*
G01*
X30210750Y-5378000D02*
G75*
G02*
X30310750Y-5278000I100000J0D01*
G01*
X22800750Y-12878000D02*
X22800750Y-7453000D01*
D11*
X5425950Y-9725450D02*
X5425950Y-10035450D01*
X5425950Y-10035450D02*
X5785950Y-10035450D01*
X5785950Y-9725450D02*
X5425950Y-9725450D01*
X5785950Y-10035450D02*
X5785950Y-9725450D01*
X7289950Y-9025450D02*
X7289950Y-9335450D01*
X7289950Y-9335450D02*
X7649950Y-9335450D01*
X7649950Y-9025450D02*
X7289950Y-9025450D01*
X7649950Y-9335450D02*
X7649950Y-9025450D01*
X9153950Y-7775450D02*
X9153950Y-8085450D01*
X9153950Y-8085450D02*
X9513950Y-8085450D01*
X9513950Y-7775450D02*
X9153950Y-7775450D01*
X9513950Y-8085450D02*
X9513950Y-7775450D01*
X11017950Y-7275450D02*
X11017950Y-7585450D01*
X11017950Y-7585450D02*
X11377950Y-7585450D01*
X11377950Y-7275450D02*
X11017950Y-7275450D01*
X11377950Y-7585450D02*
X11377950Y-7275450D01*
X12881950Y-7765450D02*
X12881950Y-8075450D01*
X12881950Y-8075450D02*
X13241950Y-8075450D01*
X13241950Y-7765450D02*
X12881950Y-7765450D01*
X13241950Y-8075450D02*
X13241950Y-7765450D01*
X14745950Y-8025450D02*
X14745950Y-8335450D01*
X14745950Y-8335450D02*
X15105950Y-8335450D01*
X15105950Y-8025450D02*
X14745950Y-8025450D01*
X15105950Y-8335450D02*
X15105950Y-8025450D01*
X5425950Y-11585450D02*
X5425950Y-11895450D01*
X5425950Y-11895450D02*
X5785950Y-11895450D01*
X5785950Y-11585450D02*
X5425950Y-11585450D01*
X5785950Y-11895450D02*
X5785950Y-11585450D01*
X7289950Y-10885450D02*
X7289950Y-11195450D01*
X7289950Y-11195450D02*
X7649950Y-11195450D01*
X7649950Y-10885450D02*
X7289950Y-10885450D01*
X7649950Y-11195450D02*
X7649950Y-10885450D01*
X9153950Y-9635450D02*
X9153950Y-9945450D01*
X9153950Y-9945450D02*
X9513950Y-9945450D01*
X9513950Y-9635450D02*
X9153950Y-9635450D01*
X9513950Y-9945450D02*
X9513950Y-9635450D01*
X11017950Y-9135450D02*
X11017950Y-9445450D01*
X11017950Y-9445450D02*
X11377950Y-9445450D01*
X11377950Y-9135450D02*
X11017950Y-9135450D01*
X11377950Y-9445450D02*
X11377950Y-9135450D01*
X12881950Y-9625450D02*
X12881950Y-9935450D01*
X12881950Y-9935450D02*
X13241950Y-9935450D01*
X13241950Y-9625450D02*
X12881950Y-9625450D01*
X13241950Y-9935450D02*
X13241950Y-9625450D01*
X14745950Y-9885450D02*
X14745950Y-10195450D01*
X14745950Y-10195450D02*
X15105950Y-10195450D01*
X15105950Y-9885450D02*
X14745950Y-9885450D01*
X15105950Y-10195450D02*
X15105950Y-9885450D01*
X5425950Y-13445450D02*
X5425950Y-13755450D01*
X5425950Y-13755450D02*
X5785950Y-13755450D01*
X5785950Y-13445450D02*
X5425950Y-13445450D01*
X5785950Y-13755450D02*
X5785950Y-13445450D01*
X7289950Y-12745450D02*
X7289950Y-13055450D01*
X7289950Y-13055450D02*
X7649950Y-13055450D01*
X7649950Y-12745450D02*
X7289950Y-12745450D01*
X7649950Y-13055450D02*
X7649950Y-12745450D01*
X9153950Y-11495450D02*
X9153950Y-11805450D01*
X9153950Y-11805450D02*
X9513950Y-11805450D01*
X9513950Y-11495450D02*
X9153950Y-11495450D01*
X9513950Y-11805450D02*
X9513950Y-11495450D01*
X11017950Y-10995450D02*
X11017950Y-11305450D01*
X11017950Y-11305450D02*
X11377950Y-11305450D01*
X11377950Y-10995450D02*
X11017950Y-10995450D01*
X11377950Y-11305450D02*
X11377950Y-10995450D01*
X14745950Y-11745450D02*
X14745950Y-12055450D01*
X14745950Y-12055450D02*
X15105950Y-12055450D01*
X15105950Y-11745450D02*
X14745950Y-11745450D01*
X15105950Y-12055450D02*
X15105950Y-11745450D01*
X18375193Y-15542915D02*
X18690573Y-15716511D01*
X18524679Y-15271338D02*
X18375193Y-15542915D01*
X18690573Y-15716511D02*
X18840058Y-15444935D01*
X18840058Y-15444935D02*
X18524679Y-15271338D01*
X29470050Y-9136000D02*
X29470050Y-9446000D01*
X29470050Y-9446000D02*
X29830050Y-9446000D01*
X29830050Y-9136000D02*
X29470050Y-9136000D01*
X29830050Y-9446000D02*
X29830050Y-9136000D01*
X27606050Y-9626000D02*
X27606050Y-9936000D01*
X27606050Y-9936000D02*
X27966050Y-9936000D01*
X27966050Y-9626000D02*
X27606050Y-9626000D01*
X27966050Y-9936000D02*
X27966050Y-9626000D01*
X25742050Y-9886000D02*
X25742050Y-10196000D01*
X25742050Y-10196000D02*
X26102050Y-10196000D01*
X26102050Y-9886000D02*
X25742050Y-9886000D01*
X26102050Y-10196000D02*
X26102050Y-9886000D01*
X35062050Y-13446000D02*
X35062050Y-13756000D01*
X35062050Y-13756000D02*
X35422050Y-13756000D01*
X35422050Y-13446000D02*
X35062050Y-13446000D01*
X35422050Y-13756000D02*
X35422050Y-13446000D01*
X33198050Y-12746000D02*
X33198050Y-13056000D01*
X33198050Y-13056000D02*
X33558050Y-13056000D01*
X33558050Y-12746000D02*
X33198050Y-12746000D01*
X33558050Y-13056000D02*
X33558050Y-12746000D01*
X31334050Y-11496000D02*
X31334050Y-11806000D01*
X31334050Y-11806000D02*
X31694050Y-11806000D01*
X31694050Y-11496000D02*
X31334050Y-11496000D01*
X31694050Y-11806000D02*
X31694050Y-11496000D01*
X29470050Y-10996000D02*
X29470050Y-11306000D01*
X29470050Y-11306000D02*
X29830050Y-11306000D01*
X29830050Y-10996000D02*
X29470050Y-10996000D01*
X29830050Y-11306000D02*
X29830050Y-10996000D01*
X27606050Y-11486000D02*
X27606050Y-11796000D01*
X27606050Y-11796000D02*
X27966050Y-11796000D01*
X27966050Y-11486000D02*
X27606050Y-11486000D01*
X27966050Y-11796000D02*
X27966050Y-11486000D01*
X25742050Y-11746000D02*
X25742050Y-12056000D01*
X25742050Y-12056000D02*
X26102050Y-12056000D01*
X26102050Y-11746000D02*
X25742050Y-11746000D01*
X26102050Y-12056000D02*
X26102050Y-11746000D01*
X25602360Y-14138050D02*
X25655285Y-14443499D01*
X25655285Y-14443499D02*
X26010000Y-14382038D01*
X25957075Y-14076589D02*
X25602360Y-14138050D01*
X26010000Y-14382038D02*
X25957075Y-14076589D01*
X23748759Y-14634034D02*
X23851371Y-14926558D01*
X23851371Y-14926558D02*
X24191077Y-14807395D01*
X24088465Y-14514871D02*
X23748759Y-14634034D01*
X24191077Y-14807395D02*
X24088465Y-14514871D01*
X14838073Y-14381420D02*
X15192788Y-14442881D01*
X14890998Y-14075971D02*
X14838073Y-14381420D01*
X15192788Y-14442881D02*
X15245713Y-14137433D01*
X15245713Y-14137433D02*
X14890998Y-14075971D01*
X16657600Y-14807304D02*
X16997306Y-14926467D01*
X16760212Y-14514779D02*
X16657600Y-14807304D01*
X16997306Y-14926467D02*
X17099918Y-14633942D01*
X17099918Y-14633942D02*
X16760212Y-14514779D01*
X12881950Y-11485450D02*
X12881950Y-11795450D01*
X12881950Y-11795450D02*
X13241950Y-11795450D01*
X13241950Y-11485450D02*
X12881950Y-11485450D01*
X13241950Y-11795450D02*
X13241950Y-11485450D01*
X35062050Y-9726000D02*
X35062050Y-10036000D01*
X35062050Y-10036000D02*
X35422050Y-10036000D01*
X35422050Y-9726000D02*
X35062050Y-9726000D01*
X35422050Y-10036000D02*
X35422050Y-9726000D01*
X33198050Y-9026000D02*
X33198050Y-9336000D01*
X33198050Y-9336000D02*
X33558050Y-9336000D01*
X33558050Y-9026000D02*
X33198050Y-9026000D01*
X33558050Y-9336000D02*
X33558050Y-9026000D01*
X31334050Y-7776000D02*
X31334050Y-8086000D01*
X31334050Y-8086000D02*
X31694050Y-8086000D01*
X31694050Y-7776000D02*
X31334050Y-7776000D01*
X31694050Y-8086000D02*
X31694050Y-7776000D01*
X29470050Y-7276000D02*
X29470050Y-7586000D01*
X29470050Y-7586000D02*
X29830050Y-7586000D01*
X29830050Y-7276000D02*
X29470050Y-7276000D01*
X29830050Y-7586000D02*
X29830050Y-7276000D01*
X27606050Y-7766000D02*
X27606050Y-8076000D01*
X27606050Y-8076000D02*
X27966050Y-8076000D01*
X27966050Y-7766000D02*
X27606050Y-7766000D01*
X27966050Y-8076000D02*
X27966050Y-7766000D01*
X25742050Y-8026000D02*
X25742050Y-8336000D01*
X25742050Y-8336000D02*
X26102050Y-8336000D01*
X26102050Y-8026000D02*
X25742050Y-8026000D01*
X26102050Y-8336000D02*
X26102050Y-8026000D01*
X35062050Y-11586000D02*
X35062050Y-11896000D01*
X35062050Y-11896000D02*
X35422050Y-11896000D01*
X35422050Y-11586000D02*
X35062050Y-11586000D01*
X35422050Y-11896000D02*
X35422050Y-11586000D01*
X33198050Y-10886000D02*
X33198050Y-11196000D01*
X33198050Y-11196000D02*
X33558050Y-11196000D01*
X33558050Y-10886000D02*
X33198050Y-10886000D01*
X33558050Y-11196000D02*
X33558050Y-10886000D01*
X31334050Y-9636000D02*
X31334050Y-9946000D01*
X31334050Y-9946000D02*
X31694050Y-9946000D01*
X31694050Y-9636000D02*
X31334050Y-9636000D01*
X31694050Y-9946000D02*
X31694050Y-9636000D01*
X22008592Y-15445060D02*
X22158078Y-15716636D01*
X22158078Y-15716636D02*
X22473457Y-15543040D01*
X22323971Y-15271463D02*
X22008592Y-15445060D01*
X22473457Y-15543040D02*
X22323971Y-15271463D01*
D10*
D11*
X4588086Y-8563000D02*
X4618086Y-8593000D01*
X4618086Y-8563000D02*
X4588086Y-8593000D01*
X4588086Y-8817000D02*
X4618086Y-8847000D01*
X4618086Y-8817000D02*
X4588086Y-8847000D01*
X4588086Y-9071000D02*
X4618086Y-9101000D01*
X4618086Y-9071000D02*
X4588086Y-9101000D01*
X4588086Y-9325000D02*
X4618086Y-9355000D01*
X4618086Y-9325000D02*
X4588086Y-9355000D01*
X4588086Y-9579000D02*
X4618086Y-9609000D01*
X4618086Y-9579000D02*
X4588086Y-9609000D01*
X4588086Y-9833000D02*
X4618086Y-9863000D01*
X4618086Y-9833000D02*
X4588086Y-9863000D01*
X4588086Y-10087000D02*
X4618086Y-10117000D01*
X4618086Y-10087000D02*
X4588086Y-10117000D01*
X4588086Y-10341000D02*
X4618086Y-10371000D01*
X4618086Y-10341000D02*
X4588086Y-10371000D01*
X4588086Y-10595000D02*
X4618086Y-10625000D01*
X4618086Y-10595000D02*
X4588086Y-10625000D01*
X4588086Y-10849000D02*
X4618086Y-10879000D01*
X4618086Y-10849000D02*
X4588086Y-10879000D01*
X4588086Y-11103000D02*
X4618086Y-11133000D01*
X4618086Y-11103000D02*
X4588086Y-11133000D01*
X4588086Y-11357000D02*
X4618086Y-11387000D01*
X4618086Y-11357000D02*
X4588086Y-11387000D01*
X4588086Y-11611000D02*
X4618086Y-11641000D01*
X4618086Y-11611000D02*
X4588086Y-11641000D01*
X4588086Y-11865000D02*
X4618086Y-11895000D01*
X4618086Y-11865000D02*
X4588086Y-11895000D01*
X4588086Y-12119000D02*
X4618086Y-12149000D01*
X4618086Y-12119000D02*
X4588086Y-12149000D01*
X4588086Y-12373000D02*
X4618086Y-12403000D01*
X4618086Y-12373000D02*
X4588086Y-12403000D01*
X4588086Y-12627000D02*
X4618086Y-12657000D01*
X4618086Y-12627000D02*
X4588086Y-12657000D01*
X4588086Y-12881000D02*
X4618086Y-12911000D01*
X4618086Y-12881000D02*
X4588086Y-12911000D01*
X4588086Y-13135000D02*
X4618086Y-13165000D01*
X4618086Y-13135000D02*
X4588086Y-13165000D01*
X4588086Y-13389000D02*
X4618086Y-13419000D01*
X4618086Y-13389000D02*
X4588086Y-13419000D01*
X4588086Y-13643000D02*
X4618086Y-13673000D01*
X4618086Y-13643000D02*
X4588086Y-13673000D01*
X4588086Y-13897000D02*
X4618086Y-13927000D01*
X4618086Y-13897000D02*
X4588086Y-13927000D01*
X4842086Y-8563000D02*
X4872086Y-8593000D01*
X4872086Y-8563000D02*
X4842086Y-8593000D01*
X4842086Y-8817000D02*
X4872086Y-8847000D01*
X4872086Y-8817000D02*
X4842086Y-8847000D01*
X4842086Y-10341000D02*
X4872086Y-10371000D01*
X4872086Y-10341000D02*
X4842086Y-10371000D01*
X4842086Y-12119000D02*
X4872086Y-12149000D01*
X4872086Y-12119000D02*
X4842086Y-12149000D01*
X4842086Y-13135000D02*
X4872086Y-13165000D01*
X4872086Y-13135000D02*
X4842086Y-13165000D01*
X4842086Y-13389000D02*
X4872086Y-13419000D01*
X4872086Y-13389000D02*
X4842086Y-13419000D01*
X4842086Y-13643000D02*
X4872086Y-13673000D01*
X4872086Y-13643000D02*
X4842086Y-13673000D01*
X4842086Y-13897000D02*
X4872086Y-13927000D01*
X4872086Y-13897000D02*
X4842086Y-13927000D01*
X4995750Y-10513000D02*
X5025750Y-10543000D01*
X5025750Y-10513000D02*
X4995750Y-10543000D01*
X5096086Y-8563000D02*
X5126086Y-8593000D01*
X5126086Y-8563000D02*
X5096086Y-8593000D01*
X5096086Y-8817000D02*
X5126086Y-8847000D01*
X5126086Y-8817000D02*
X5096086Y-8847000D01*
X5096086Y-9579000D02*
X5126086Y-9609000D01*
X5126086Y-9579000D02*
X5096086Y-9609000D01*
X5096086Y-9833000D02*
X5126086Y-9863000D01*
X5126086Y-9833000D02*
X5096086Y-9863000D01*
X5096086Y-10087000D02*
X5126086Y-10117000D01*
X5126086Y-10087000D02*
X5096086Y-10117000D01*
X5096086Y-13389000D02*
X5126086Y-13419000D01*
X5126086Y-13389000D02*
X5096086Y-13419000D01*
X5096086Y-13643000D02*
X5126086Y-13673000D01*
X5126086Y-13643000D02*
X5096086Y-13673000D01*
X5096086Y-13897000D02*
X5126086Y-13927000D01*
X5126086Y-13897000D02*
X5096086Y-13927000D01*
X5350086Y-8563000D02*
X5380086Y-8593000D01*
X5380086Y-8563000D02*
X5350086Y-8593000D01*
X5350086Y-8817000D02*
X5380086Y-8847000D01*
X5380086Y-8817000D02*
X5350086Y-8847000D01*
X5350086Y-10595000D02*
X5380086Y-10625000D01*
X5380086Y-10595000D02*
X5350086Y-10625000D01*
X5350086Y-12119000D02*
X5380086Y-12149000D01*
X5380086Y-12119000D02*
X5350086Y-12149000D01*
X5395750Y-10163000D02*
X5425750Y-10193000D01*
X5425750Y-10163000D02*
X5395750Y-10193000D01*
X5604086Y-8563000D02*
X5634086Y-8593000D01*
X5634086Y-8563000D02*
X5604086Y-8593000D01*
X5604086Y-8817000D02*
X5634086Y-8847000D01*
X5634086Y-8817000D02*
X5604086Y-8847000D01*
X5604086Y-9071000D02*
X5634086Y-9101000D01*
X5634086Y-9071000D02*
X5604086Y-9101000D01*
X5858086Y-8563000D02*
X5888086Y-8593000D01*
X5888086Y-8563000D02*
X5858086Y-8593000D01*
X5858086Y-9579000D02*
X5888086Y-9609000D01*
X5888086Y-9579000D02*
X5858086Y-9609000D01*
X6112086Y-8055000D02*
X6142086Y-8085000D01*
X6142086Y-8055000D02*
X6112086Y-8085000D01*
X6112086Y-8309000D02*
X6142086Y-8339000D01*
X6142086Y-8309000D02*
X6112086Y-8339000D01*
X6112086Y-8563000D02*
X6142086Y-8593000D01*
X6142086Y-8563000D02*
X6112086Y-8593000D01*
X6112086Y-9579000D02*
X6142086Y-9609000D01*
X6142086Y-9579000D02*
X6112086Y-9609000D01*
X6112086Y-12119000D02*
X6142086Y-12149000D01*
X6142086Y-12119000D02*
X6112086Y-12149000D01*
X6112086Y-12373000D02*
X6142086Y-12403000D01*
X6142086Y-12373000D02*
X6112086Y-12403000D01*
X6112086Y-12881000D02*
X6142086Y-12911000D01*
X6142086Y-12881000D02*
X6112086Y-12911000D01*
X6112086Y-13897000D02*
X6142086Y-13927000D01*
X6142086Y-13897000D02*
X6112086Y-13927000D01*
X6345750Y-12063000D02*
X6375750Y-12093000D01*
X6375750Y-12063000D02*
X6345750Y-12093000D01*
X6345750Y-12213000D02*
X6375750Y-12243000D01*
X6375750Y-12213000D02*
X6345750Y-12243000D01*
X6366086Y-7547000D02*
X6396086Y-7577000D01*
X6396086Y-7547000D02*
X6366086Y-7577000D01*
X6366086Y-7801000D02*
X6396086Y-7831000D01*
X6396086Y-7801000D02*
X6366086Y-7831000D01*
X6366086Y-8055000D02*
X6396086Y-8085000D01*
X6396086Y-8055000D02*
X6366086Y-8085000D01*
X6366086Y-8309000D02*
X6396086Y-8339000D01*
X6396086Y-8309000D02*
X6366086Y-8339000D01*
X6366086Y-8563000D02*
X6396086Y-8593000D01*
X6396086Y-8563000D02*
X6366086Y-8593000D01*
X6366086Y-13643000D02*
X6396086Y-13673000D01*
X6396086Y-13643000D02*
X6366086Y-13673000D01*
X6366086Y-13897000D02*
X6396086Y-13927000D01*
X6396086Y-13897000D02*
X6366086Y-13927000D01*
X6395750Y-9919350D02*
X6425750Y-9949350D01*
X6425750Y-9919350D02*
X6395750Y-9949350D01*
X6620086Y-7547000D02*
X6650086Y-7577000D01*
X6650086Y-7547000D02*
X6620086Y-7577000D01*
X6620086Y-7801000D02*
X6650086Y-7831000D01*
X6650086Y-7801000D02*
X6620086Y-7831000D01*
X6620086Y-8055000D02*
X6650086Y-8085000D01*
X6650086Y-8055000D02*
X6620086Y-8085000D01*
X6620086Y-8817000D02*
X6650086Y-8847000D01*
X6650086Y-8817000D02*
X6620086Y-8847000D01*
X6620086Y-9071000D02*
X6650086Y-9101000D01*
X6650086Y-9071000D02*
X6620086Y-9101000D01*
X6620086Y-9325000D02*
X6650086Y-9355000D01*
X6650086Y-9325000D02*
X6620086Y-9355000D01*
X6620086Y-9579000D02*
X6650086Y-9609000D01*
X6650086Y-9579000D02*
X6620086Y-9609000D01*
X6620086Y-10595000D02*
X6650086Y-10625000D01*
X6650086Y-10595000D02*
X6620086Y-10625000D01*
X6620086Y-10849000D02*
X6650086Y-10879000D01*
X6650086Y-10849000D02*
X6620086Y-10879000D01*
X6620086Y-11103000D02*
X6650086Y-11133000D01*
X6650086Y-11103000D02*
X6620086Y-11133000D01*
X6620086Y-13643000D02*
X6650086Y-13673000D01*
X6650086Y-13643000D02*
X6620086Y-13673000D01*
X6620086Y-13897000D02*
X6650086Y-13927000D01*
X6650086Y-13897000D02*
X6620086Y-13927000D01*
X6746450Y-10113000D02*
X6776450Y-10143000D01*
X6776450Y-10113000D02*
X6746450Y-10143000D01*
X6874086Y-7547000D02*
X6904086Y-7577000D01*
X6904086Y-7547000D02*
X6874086Y-7577000D01*
X6874086Y-7801000D02*
X6904086Y-7831000D01*
X6904086Y-7801000D02*
X6874086Y-7831000D01*
X6874086Y-8055000D02*
X6904086Y-8085000D01*
X6904086Y-8055000D02*
X6874086Y-8085000D01*
X6874086Y-9071000D02*
X6904086Y-9101000D01*
X6904086Y-9071000D02*
X6874086Y-9101000D01*
X6874086Y-9325000D02*
X6904086Y-9355000D01*
X6904086Y-9325000D02*
X6874086Y-9355000D01*
X6874086Y-10849000D02*
X6904086Y-10879000D01*
X6904086Y-10849000D02*
X6874086Y-10879000D01*
X6874086Y-11103000D02*
X6904086Y-11133000D01*
X6904086Y-11103000D02*
X6874086Y-11133000D01*
X6874086Y-13643000D02*
X6904086Y-13673000D01*
X6904086Y-13643000D02*
X6874086Y-13673000D01*
X6895750Y-12913000D02*
X6925750Y-12943000D01*
X6925750Y-12913000D02*
X6895750Y-12943000D01*
X7128086Y-8055000D02*
X7158086Y-8085000D01*
X7158086Y-8055000D02*
X7128086Y-8085000D01*
X7128086Y-8817000D02*
X7158086Y-8847000D01*
X7158086Y-8817000D02*
X7128086Y-8847000D01*
X7128086Y-10595000D02*
X7158086Y-10625000D01*
X7158086Y-10595000D02*
X7128086Y-10625000D01*
X7128086Y-11865000D02*
X7158086Y-11895000D01*
X7158086Y-11865000D02*
X7128086Y-11895000D01*
X7382086Y-7547000D02*
X7412086Y-7577000D01*
X7412086Y-7547000D02*
X7382086Y-7577000D01*
X7382086Y-7801000D02*
X7412086Y-7831000D01*
X7412086Y-7801000D02*
X7382086Y-7831000D01*
X7382086Y-8309000D02*
X7412086Y-8339000D01*
X7412086Y-8309000D02*
X7382086Y-8339000D01*
X7382086Y-12119000D02*
X7412086Y-12149000D01*
X7412086Y-12119000D02*
X7382086Y-12149000D01*
X7382086Y-13643000D02*
X7412086Y-13673000D01*
X7412086Y-13643000D02*
X7382086Y-13673000D01*
X7890086Y-7801000D02*
X7920086Y-7831000D01*
X7920086Y-7801000D02*
X7890086Y-7831000D01*
X7890086Y-12119000D02*
X7920086Y-12149000D01*
X7920086Y-12119000D02*
X7890086Y-12149000D01*
X7890086Y-13643000D02*
X7920086Y-13673000D01*
X7920086Y-13643000D02*
X7890086Y-13673000D01*
X7945750Y-9113000D02*
X7975750Y-9143000D01*
X7975750Y-9113000D02*
X7945750Y-9143000D01*
X8144086Y-7547000D02*
X8174086Y-7577000D01*
X8174086Y-7547000D02*
X8144086Y-7577000D01*
X8144086Y-7801000D02*
X8174086Y-7831000D01*
X8174086Y-7801000D02*
X8144086Y-7831000D01*
X8144086Y-9579000D02*
X8174086Y-9609000D01*
X8174086Y-9579000D02*
X8144086Y-9609000D01*
X8144086Y-11103000D02*
X8174086Y-11133000D01*
X8174086Y-11103000D02*
X8144086Y-11133000D01*
X8144086Y-13135000D02*
X8174086Y-13165000D01*
X8174086Y-13135000D02*
X8144086Y-13165000D01*
X8144086Y-13389000D02*
X8174086Y-13419000D01*
X8174086Y-13389000D02*
X8144086Y-13419000D01*
X8144086Y-13643000D02*
X8174086Y-13673000D01*
X8174086Y-13643000D02*
X8144086Y-13673000D01*
X8245750Y-11563000D02*
X8275750Y-11593000D01*
X8275750Y-11563000D02*
X8245750Y-11593000D01*
X8320750Y-8988000D02*
X8350750Y-9018000D01*
X8350750Y-8988000D02*
X8320750Y-9018000D01*
X8398086Y-6277000D02*
X8428086Y-6307000D01*
X8428086Y-6277000D02*
X8398086Y-6307000D01*
X8398086Y-6531000D02*
X8428086Y-6561000D01*
X8428086Y-6531000D02*
X8398086Y-6561000D01*
X8398086Y-7547000D02*
X8428086Y-7577000D01*
X8428086Y-7547000D02*
X8398086Y-7577000D01*
X8398086Y-7801000D02*
X8428086Y-7831000D01*
X8428086Y-7801000D02*
X8398086Y-7831000D01*
X8398086Y-8055000D02*
X8428086Y-8085000D01*
X8428086Y-8055000D02*
X8398086Y-8085000D01*
X8398086Y-8309000D02*
X8428086Y-8339000D01*
X8428086Y-8309000D02*
X8398086Y-8339000D01*
X8398086Y-8563000D02*
X8428086Y-8593000D01*
X8428086Y-8563000D02*
X8398086Y-8593000D01*
X8398086Y-9325000D02*
X8428086Y-9355000D01*
X8428086Y-9325000D02*
X8398086Y-9355000D01*
X8398086Y-9579000D02*
X8428086Y-9609000D01*
X8428086Y-9579000D02*
X8398086Y-9609000D01*
X8398086Y-9833000D02*
X8428086Y-9863000D01*
X8428086Y-9833000D02*
X8398086Y-9863000D01*
X8398086Y-12881000D02*
X8428086Y-12911000D01*
X8428086Y-12881000D02*
X8398086Y-12911000D01*
X8398086Y-13135000D02*
X8428086Y-13165000D01*
X8428086Y-13135000D02*
X8398086Y-13165000D01*
X8398086Y-13389000D02*
X8428086Y-13419000D01*
X8428086Y-13389000D02*
X8398086Y-13419000D01*
X8545750Y-11913000D02*
X8575750Y-11943000D01*
X8575750Y-11913000D02*
X8545750Y-11943000D01*
X8545750Y-12113000D02*
X8575750Y-12143000D01*
X8575750Y-12113000D02*
X8545750Y-12143000D01*
X8610450Y-10413000D02*
X8640450Y-10443000D01*
X8640450Y-10413000D02*
X8610450Y-10443000D01*
X8652086Y-6277000D02*
X8682086Y-6307000D01*
X8682086Y-6277000D02*
X8652086Y-6307000D01*
X8652086Y-6531000D02*
X8682086Y-6561000D01*
X8682086Y-6531000D02*
X8652086Y-6561000D01*
X8652086Y-11357000D02*
X8682086Y-11387000D01*
X8682086Y-11357000D02*
X8652086Y-11387000D01*
X8652086Y-12627000D02*
X8682086Y-12657000D01*
X8682086Y-12627000D02*
X8652086Y-12657000D01*
X8652086Y-12881000D02*
X8682086Y-12911000D01*
X8682086Y-12881000D02*
X8652086Y-12911000D01*
X8652086Y-13135000D02*
X8682086Y-13165000D01*
X8682086Y-13135000D02*
X8652086Y-13165000D01*
X8652086Y-13389000D02*
X8682086Y-13419000D01*
X8682086Y-13389000D02*
X8652086Y-13419000D01*
X8795750Y-7963000D02*
X8825750Y-7993000D01*
X8825750Y-7963000D02*
X8795750Y-7993000D01*
X8906086Y-6277000D02*
X8936086Y-6307000D01*
X8936086Y-6277000D02*
X8906086Y-6307000D01*
X8906086Y-6531000D02*
X8936086Y-6561000D01*
X8936086Y-6531000D02*
X8906086Y-6561000D01*
X8906086Y-10595000D02*
X8936086Y-10625000D01*
X8936086Y-10595000D02*
X8906086Y-10625000D01*
X8906086Y-12373000D02*
X8936086Y-12403000D01*
X8936086Y-12373000D02*
X8906086Y-12403000D01*
X8906086Y-12627000D02*
X8936086Y-12657000D01*
X8936086Y-12627000D02*
X8906086Y-12657000D01*
X8906086Y-12881000D02*
X8936086Y-12911000D01*
X8936086Y-12881000D02*
X8906086Y-12911000D01*
X8906086Y-13135000D02*
X8936086Y-13165000D01*
X8936086Y-13135000D02*
X8906086Y-13165000D01*
X9160086Y-6277000D02*
X9190086Y-6307000D01*
X9190086Y-6277000D02*
X9160086Y-6307000D01*
X9160086Y-6531000D02*
X9190086Y-6561000D01*
X9190086Y-6531000D02*
X9160086Y-6561000D01*
X9160086Y-7039000D02*
X9190086Y-7069000D01*
X9190086Y-7039000D02*
X9160086Y-7069000D01*
X9160086Y-8563000D02*
X9190086Y-8593000D01*
X9190086Y-8563000D02*
X9160086Y-8593000D01*
X9160086Y-8817000D02*
X9190086Y-8847000D01*
X9190086Y-8817000D02*
X9160086Y-8847000D01*
X9160086Y-10595000D02*
X9190086Y-10625000D01*
X9190086Y-10595000D02*
X9160086Y-10625000D01*
X9160086Y-12373000D02*
X9190086Y-12403000D01*
X9190086Y-12373000D02*
X9160086Y-12403000D01*
X9160086Y-12627000D02*
X9190086Y-12657000D01*
X9190086Y-12627000D02*
X9160086Y-12657000D01*
X9160086Y-12881000D02*
X9190086Y-12911000D01*
X9190086Y-12881000D02*
X9160086Y-12911000D01*
X9160086Y-13135000D02*
X9190086Y-13165000D01*
X9190086Y-13135000D02*
X9160086Y-13165000D01*
X9414086Y-6277000D02*
X9444086Y-6307000D01*
X9444086Y-6277000D02*
X9414086Y-6307000D01*
X9414086Y-6531000D02*
X9444086Y-6561000D01*
X9444086Y-6531000D02*
X9414086Y-6561000D01*
X9414086Y-8309000D02*
X9444086Y-8339000D01*
X9444086Y-8309000D02*
X9414086Y-8339000D01*
X9414086Y-12373000D02*
X9444086Y-12403000D01*
X9444086Y-12373000D02*
X9414086Y-12403000D01*
X9414086Y-12627000D02*
X9444086Y-12657000D01*
X9444086Y-12627000D02*
X9414086Y-12657000D01*
X9414086Y-12881000D02*
X9444086Y-12911000D01*
X9444086Y-12881000D02*
X9414086Y-12911000D01*
X9668086Y-6277000D02*
X9698086Y-6307000D01*
X9698086Y-6277000D02*
X9668086Y-6307000D01*
X9668086Y-6531000D02*
X9698086Y-6561000D01*
X9698086Y-6531000D02*
X9668086Y-6561000D01*
X9668086Y-7293000D02*
X9698086Y-7323000D01*
X9698086Y-7293000D02*
X9668086Y-7323000D01*
X9668086Y-12373000D02*
X9698086Y-12403000D01*
X9698086Y-12373000D02*
X9668086Y-12403000D01*
X9668086Y-12627000D02*
X9698086Y-12657000D01*
X9698086Y-12627000D02*
X9668086Y-12657000D01*
X9668086Y-12881000D02*
X9698086Y-12911000D01*
X9698086Y-12881000D02*
X9668086Y-12911000D01*
X9922086Y-6277000D02*
X9952086Y-6307000D01*
X9952086Y-6277000D02*
X9922086Y-6307000D01*
X9922086Y-6531000D02*
X9952086Y-6561000D01*
X9952086Y-6531000D02*
X9922086Y-6561000D01*
X9922086Y-8563000D02*
X9952086Y-8593000D01*
X9952086Y-8563000D02*
X9922086Y-8593000D01*
X9922086Y-12373000D02*
X9952086Y-12403000D01*
X9952086Y-12373000D02*
X9922086Y-12403000D01*
X9922086Y-12627000D02*
X9952086Y-12657000D01*
X9952086Y-12627000D02*
X9922086Y-12657000D01*
X9922086Y-12881000D02*
X9952086Y-12911000D01*
X9952086Y-12881000D02*
X9922086Y-12911000D01*
X10176086Y-6023000D02*
X10206086Y-6053000D01*
X10206086Y-6023000D02*
X10176086Y-6053000D01*
X10176086Y-6277000D02*
X10206086Y-6307000D01*
X10206086Y-6277000D02*
X10176086Y-6307000D01*
X10176086Y-6785000D02*
X10206086Y-6815000D01*
X10206086Y-6785000D02*
X10176086Y-6815000D01*
X10176086Y-8309000D02*
X10206086Y-8339000D01*
X10206086Y-8309000D02*
X10176086Y-8339000D01*
X10176086Y-8563000D02*
X10206086Y-8593000D01*
X10206086Y-8563000D02*
X10176086Y-8593000D01*
X10176086Y-8817000D02*
X10206086Y-8847000D01*
X10206086Y-8817000D02*
X10176086Y-8847000D01*
X10176086Y-12373000D02*
X10206086Y-12403000D01*
X10206086Y-12373000D02*
X10176086Y-12403000D01*
X10176086Y-12627000D02*
X10206086Y-12657000D01*
X10206086Y-12627000D02*
X10176086Y-12657000D01*
X10195750Y-7713000D02*
X10225750Y-7743000D01*
X10225750Y-7713000D02*
X10195750Y-7743000D01*
X10430086Y-5769000D02*
X10460086Y-5799000D01*
X10460086Y-5769000D02*
X10430086Y-5799000D01*
X10430086Y-6023000D02*
X10460086Y-6053000D01*
X10460086Y-6023000D02*
X10430086Y-6053000D01*
X10430086Y-10849000D02*
X10460086Y-10879000D01*
X10460086Y-10849000D02*
X10430086Y-10879000D01*
X10430086Y-11103000D02*
X10460086Y-11133000D01*
X10460086Y-11103000D02*
X10430086Y-11133000D01*
X10430086Y-12373000D02*
X10460086Y-12403000D01*
X10460086Y-12373000D02*
X10430086Y-12403000D01*
X10430086Y-12627000D02*
X10460086Y-12657000D01*
X10460086Y-12627000D02*
X10430086Y-12657000D01*
X10445750Y-11563000D02*
X10475750Y-11593000D01*
X10475750Y-11563000D02*
X10445750Y-11593000D01*
X10479436Y-10125700D02*
X10509436Y-10155700D01*
X10509436Y-10125700D02*
X10479436Y-10155700D01*
X10495750Y-11663000D02*
X10525750Y-11693000D01*
X10525750Y-11663000D02*
X10495750Y-11693000D01*
X10545750Y-11763000D02*
X10575750Y-11793000D01*
X10575750Y-11763000D02*
X10545750Y-11793000D01*
X10684086Y-5515000D02*
X10714086Y-5545000D01*
X10714086Y-5515000D02*
X10684086Y-5545000D01*
X10684086Y-5769000D02*
X10714086Y-5799000D01*
X10714086Y-5769000D02*
X10684086Y-5799000D01*
X10684086Y-6277000D02*
X10714086Y-6307000D01*
X10714086Y-6277000D02*
X10684086Y-6307000D01*
X10684086Y-7547000D02*
X10714086Y-7577000D01*
X10714086Y-7547000D02*
X10684086Y-7577000D01*
X10684086Y-8309000D02*
X10714086Y-8339000D01*
X10714086Y-8309000D02*
X10684086Y-8339000D01*
X10684086Y-9071000D02*
X10714086Y-9101000D01*
X10714086Y-9071000D02*
X10684086Y-9101000D01*
X10684086Y-9325000D02*
X10714086Y-9355000D01*
X10714086Y-9325000D02*
X10684086Y-9355000D01*
X10684086Y-10849000D02*
X10714086Y-10879000D01*
X10714086Y-10849000D02*
X10684086Y-10879000D01*
X10684086Y-11103000D02*
X10714086Y-11133000D01*
X10714086Y-11103000D02*
X10684086Y-11133000D01*
X10684086Y-12119000D02*
X10714086Y-12149000D01*
X10714086Y-12119000D02*
X10684086Y-12149000D01*
X10684086Y-12373000D02*
X10714086Y-12403000D01*
X10714086Y-12373000D02*
X10684086Y-12403000D01*
X10684086Y-12627000D02*
X10714086Y-12657000D01*
X10714086Y-12627000D02*
X10684086Y-12657000D01*
X10938086Y-5515000D02*
X10968086Y-5545000D01*
X10968086Y-5515000D02*
X10938086Y-5545000D01*
X10938086Y-6277000D02*
X10968086Y-6307000D01*
X10968086Y-6277000D02*
X10938086Y-6307000D01*
X10938086Y-12119000D02*
X10968086Y-12149000D01*
X10968086Y-12119000D02*
X10938086Y-12149000D01*
X10938086Y-12373000D02*
X10968086Y-12403000D01*
X10968086Y-12373000D02*
X10938086Y-12403000D01*
X10938086Y-12627000D02*
X10968086Y-12657000D01*
X10968086Y-12627000D02*
X10938086Y-12657000D01*
X11192086Y-5515000D02*
X11222086Y-5545000D01*
X11222086Y-5515000D02*
X11192086Y-5545000D01*
X11192086Y-6531000D02*
X11222086Y-6561000D01*
X11222086Y-6531000D02*
X11192086Y-6561000D01*
X11192086Y-11865000D02*
X11222086Y-11895000D01*
X11222086Y-11865000D02*
X11192086Y-11895000D01*
X11192086Y-12119000D02*
X11222086Y-12149000D01*
X11222086Y-12119000D02*
X11192086Y-12149000D01*
X11192086Y-12373000D02*
X11222086Y-12403000D01*
X11222086Y-12373000D02*
X11192086Y-12403000D01*
X11192086Y-12627000D02*
X11222086Y-12657000D01*
X11222086Y-12627000D02*
X11192086Y-12657000D01*
X11446086Y-5515000D02*
X11476086Y-5545000D01*
X11476086Y-5515000D02*
X11446086Y-5545000D01*
X11446086Y-12119000D02*
X11476086Y-12149000D01*
X11476086Y-12119000D02*
X11446086Y-12149000D01*
X11446086Y-12373000D02*
X11476086Y-12403000D01*
X11476086Y-12373000D02*
X11446086Y-12403000D01*
X11446086Y-12627000D02*
X11476086Y-12657000D01*
X11476086Y-12627000D02*
X11446086Y-12657000D01*
X11645750Y-7313000D02*
X11675750Y-7343000D01*
X11675750Y-7313000D02*
X11645750Y-7343000D01*
X11700086Y-8563000D02*
X11730086Y-8593000D01*
X11730086Y-8563000D02*
X11700086Y-8593000D01*
X11700086Y-9071000D02*
X11730086Y-9101000D01*
X11730086Y-9071000D02*
X11700086Y-9101000D01*
X11700086Y-9325000D02*
X11730086Y-9355000D01*
X11730086Y-9325000D02*
X11700086Y-9355000D01*
X11700086Y-10849000D02*
X11730086Y-10879000D01*
X11730086Y-10849000D02*
X11700086Y-10879000D01*
X11700086Y-12119000D02*
X11730086Y-12149000D01*
X11730086Y-12119000D02*
X11700086Y-12149000D01*
X11700086Y-12373000D02*
X11730086Y-12403000D01*
X11730086Y-12373000D02*
X11700086Y-12403000D01*
X11700086Y-12627000D02*
X11730086Y-12657000D01*
X11730086Y-12627000D02*
X11700086Y-12657000D01*
X11942950Y-7713000D02*
X11972950Y-7743000D01*
X11972950Y-7713000D02*
X11942950Y-7743000D01*
X11945750Y-11663000D02*
X11975750Y-11693000D01*
X11975750Y-11663000D02*
X11945750Y-11693000D01*
X11954086Y-5769000D02*
X11984086Y-5799000D01*
X11984086Y-5769000D02*
X11954086Y-5799000D01*
X11954086Y-8817000D02*
X11984086Y-8847000D01*
X11984086Y-8817000D02*
X11954086Y-8847000D01*
X11954086Y-9325000D02*
X11984086Y-9355000D01*
X11984086Y-9325000D02*
X11954086Y-9355000D01*
X11954086Y-9579000D02*
X11984086Y-9609000D01*
X11984086Y-9579000D02*
X11954086Y-9609000D01*
X11954086Y-12119000D02*
X11984086Y-12149000D01*
X11984086Y-12119000D02*
X11954086Y-12149000D01*
X11954086Y-12373000D02*
X11984086Y-12403000D01*
X11984086Y-12373000D02*
X11954086Y-12403000D01*
X11954086Y-12627000D02*
X11984086Y-12657000D01*
X11984086Y-12627000D02*
X11954086Y-12657000D01*
X12045750Y-11663000D02*
X12075750Y-11693000D01*
X12075750Y-11663000D02*
X12045750Y-11693000D01*
X12208086Y-6023000D02*
X12238086Y-6053000D01*
X12238086Y-6023000D02*
X12208086Y-6053000D01*
X12208086Y-6785000D02*
X12238086Y-6815000D01*
X12238086Y-6785000D02*
X12208086Y-6815000D01*
X12208086Y-7547000D02*
X12238086Y-7577000D01*
X12238086Y-7547000D02*
X12208086Y-7577000D01*
X12208086Y-8563000D02*
X12238086Y-8593000D01*
X12238086Y-8563000D02*
X12208086Y-8593000D01*
X12208086Y-8817000D02*
X12238086Y-8847000D01*
X12238086Y-8817000D02*
X12208086Y-8847000D01*
X12208086Y-9325000D02*
X12238086Y-9355000D01*
X12238086Y-9325000D02*
X12208086Y-9355000D01*
X12208086Y-9579000D02*
X12238086Y-9609000D01*
X12238086Y-9579000D02*
X12208086Y-9609000D01*
X12208086Y-9833000D02*
X12238086Y-9863000D01*
X12238086Y-9833000D02*
X12208086Y-9863000D01*
X12208086Y-10595000D02*
X12238086Y-10625000D01*
X12238086Y-10595000D02*
X12208086Y-10625000D01*
X12208086Y-11357000D02*
X12238086Y-11387000D01*
X12238086Y-11357000D02*
X12208086Y-11387000D01*
X12208086Y-12373000D02*
X12238086Y-12403000D01*
X12238086Y-12373000D02*
X12208086Y-12403000D01*
X12208086Y-12627000D02*
X12238086Y-12657000D01*
X12238086Y-12627000D02*
X12208086Y-12657000D01*
X12338450Y-10413000D02*
X12368450Y-10443000D01*
X12368450Y-10413000D02*
X12338450Y-10443000D01*
X12462086Y-6277000D02*
X12492086Y-6307000D01*
X12492086Y-6277000D02*
X12462086Y-6307000D01*
X12462086Y-8817000D02*
X12492086Y-8847000D01*
X12492086Y-8817000D02*
X12462086Y-8847000D01*
X12462086Y-10595000D02*
X12492086Y-10625000D01*
X12492086Y-10595000D02*
X12462086Y-10625000D01*
X12462086Y-12373000D02*
X12492086Y-12403000D01*
X12492086Y-12373000D02*
X12462086Y-12403000D01*
X12462086Y-12627000D02*
X12492086Y-12657000D01*
X12492086Y-12627000D02*
X12462086Y-12657000D01*
X12716086Y-6277000D02*
X12746086Y-6307000D01*
X12746086Y-6277000D02*
X12716086Y-6307000D01*
X12716086Y-6531000D02*
X12746086Y-6561000D01*
X12746086Y-6531000D02*
X12716086Y-6561000D01*
X12716086Y-7547000D02*
X12746086Y-7577000D01*
X12746086Y-7547000D02*
X12716086Y-7577000D01*
X12716086Y-8309000D02*
X12746086Y-8339000D01*
X12746086Y-8309000D02*
X12716086Y-8339000D01*
X12716086Y-10595000D02*
X12746086Y-10625000D01*
X12746086Y-10595000D02*
X12716086Y-10625000D01*
X12716086Y-12373000D02*
X12746086Y-12403000D01*
X12746086Y-12373000D02*
X12716086Y-12403000D01*
X12716086Y-12627000D02*
X12746086Y-12657000D01*
X12746086Y-12627000D02*
X12716086Y-12657000D01*
X12970086Y-6277000D02*
X13000086Y-6307000D01*
X13000086Y-6277000D02*
X12970086Y-6307000D01*
X12970086Y-6531000D02*
X13000086Y-6561000D01*
X13000086Y-6531000D02*
X12970086Y-6561000D01*
X12970086Y-7039000D02*
X13000086Y-7069000D01*
X13000086Y-7039000D02*
X12970086Y-7069000D01*
X12970086Y-10849000D02*
X13000086Y-10879000D01*
X13000086Y-10849000D02*
X12970086Y-10879000D01*
X12970086Y-12373000D02*
X13000086Y-12403000D01*
X13000086Y-12373000D02*
X12970086Y-12403000D01*
X12970086Y-12627000D02*
X13000086Y-12657000D01*
X13000086Y-12627000D02*
X12970086Y-12657000D01*
X13224086Y-6277000D02*
X13254086Y-6307000D01*
X13254086Y-6277000D02*
X13224086Y-6307000D01*
X13224086Y-6531000D02*
X13254086Y-6561000D01*
X13254086Y-6531000D02*
X13224086Y-6561000D01*
X13224086Y-12373000D02*
X13254086Y-12403000D01*
X13254086Y-12373000D02*
X13224086Y-12403000D01*
X13224086Y-12627000D02*
X13254086Y-12657000D01*
X13254086Y-12627000D02*
X13224086Y-12657000D01*
X13478086Y-6277000D02*
X13508086Y-6307000D01*
X13508086Y-6277000D02*
X13478086Y-6307000D01*
X13478086Y-6531000D02*
X13508086Y-6561000D01*
X13508086Y-6531000D02*
X13478086Y-6561000D01*
X13478086Y-9071000D02*
X13508086Y-9101000D01*
X13508086Y-9071000D02*
X13478086Y-9101000D01*
X13478086Y-11357000D02*
X13508086Y-11387000D01*
X13508086Y-11357000D02*
X13478086Y-11387000D01*
X13478086Y-11865000D02*
X13508086Y-11895000D01*
X13508086Y-11865000D02*
X13478086Y-11895000D01*
X13478086Y-12373000D02*
X13508086Y-12403000D01*
X13508086Y-12373000D02*
X13478086Y-12403000D01*
X13478086Y-12627000D02*
X13508086Y-12657000D01*
X13508086Y-12627000D02*
X13478086Y-12657000D01*
X13732086Y-6277000D02*
X13762086Y-6307000D01*
X13762086Y-6277000D02*
X13732086Y-6307000D01*
X13732086Y-6531000D02*
X13762086Y-6561000D01*
X13762086Y-6531000D02*
X13732086Y-6561000D01*
X13732086Y-8055000D02*
X13762086Y-8085000D01*
X13762086Y-8055000D02*
X13732086Y-8085000D01*
X13732086Y-8309000D02*
X13762086Y-8339000D01*
X13762086Y-8309000D02*
X13732086Y-8339000D01*
X13732086Y-12373000D02*
X13762086Y-12403000D01*
X13762086Y-12373000D02*
X13732086Y-12403000D01*
X13732086Y-12627000D02*
X13762086Y-12657000D01*
X13762086Y-12627000D02*
X13732086Y-12657000D01*
X13795750Y-7713000D02*
X13825750Y-7743000D01*
X13825750Y-7713000D02*
X13795750Y-7743000D01*
X13895750Y-7963000D02*
X13925750Y-7993000D01*
X13925750Y-7963000D02*
X13895750Y-7993000D01*
X13986086Y-6277000D02*
X14016086Y-6307000D01*
X14016086Y-6277000D02*
X13986086Y-6307000D01*
X13986086Y-6531000D02*
X14016086Y-6561000D01*
X14016086Y-6531000D02*
X13986086Y-6561000D01*
X13986086Y-7039000D02*
X14016086Y-7069000D01*
X14016086Y-7039000D02*
X13986086Y-7069000D01*
X13986086Y-7293000D02*
X14016086Y-7323000D01*
X14016086Y-7293000D02*
X13986086Y-7323000D01*
X13986086Y-7547000D02*
X14016086Y-7577000D01*
X14016086Y-7547000D02*
X13986086Y-7577000D01*
X13986086Y-8309000D02*
X14016086Y-8339000D01*
X14016086Y-8309000D02*
X13986086Y-8339000D01*
X13986086Y-8563000D02*
X14016086Y-8593000D01*
X14016086Y-8563000D02*
X13986086Y-8593000D01*
X13986086Y-9071000D02*
X14016086Y-9101000D01*
X14016086Y-9071000D02*
X13986086Y-9101000D01*
X13986086Y-9325000D02*
X14016086Y-9355000D01*
X14016086Y-9325000D02*
X13986086Y-9355000D01*
X13986086Y-12627000D02*
X14016086Y-12657000D01*
X14016086Y-12627000D02*
X13986086Y-12657000D01*
X13986086Y-12881000D02*
X14016086Y-12911000D01*
X14016086Y-12881000D02*
X13986086Y-12911000D01*
X13986086Y-13643000D02*
X14016086Y-13673000D01*
X14016086Y-13643000D02*
X13986086Y-13673000D01*
X13986086Y-13897000D02*
X14016086Y-13927000D01*
X14016086Y-13897000D02*
X13986086Y-13927000D01*
X13986086Y-14151000D02*
X14016086Y-14181000D01*
X14016086Y-14151000D02*
X13986086Y-14181000D01*
X13986086Y-14405000D02*
X14016086Y-14435000D01*
X14016086Y-14405000D02*
X13986086Y-14435000D01*
X13986086Y-14659000D02*
X14016086Y-14689000D01*
X14016086Y-14659000D02*
X13986086Y-14689000D01*
X14095750Y-12263000D02*
X14125750Y-12293000D01*
X14125750Y-12263000D02*
X14095750Y-12293000D01*
X14145750Y-12181650D02*
X14175750Y-12211650D01*
X14175750Y-12181650D02*
X14145750Y-12211650D01*
X14195750Y-12263000D02*
X14225750Y-12293000D01*
X14225750Y-12263000D02*
X14195750Y-12293000D01*
X14202450Y-10663000D02*
X14232450Y-10693000D01*
X14232450Y-10663000D02*
X14202450Y-10693000D01*
X14240086Y-6531000D02*
X14270086Y-6561000D01*
X14270086Y-6531000D02*
X14240086Y-6561000D01*
X14240086Y-7039000D02*
X14270086Y-7069000D01*
X14270086Y-7039000D02*
X14240086Y-7069000D01*
X14240086Y-14659000D02*
X14270086Y-14689000D01*
X14270086Y-14659000D02*
X14240086Y-14689000D01*
X14305761Y-12113000D02*
X14335761Y-12143000D01*
X14335761Y-12113000D02*
X14305761Y-12143000D01*
X14395750Y-7963000D02*
X14425750Y-7993000D01*
X14425750Y-7963000D02*
X14395750Y-7993000D01*
X14494086Y-6531000D02*
X14524086Y-6561000D01*
X14524086Y-6531000D02*
X14494086Y-6561000D01*
X14494086Y-7039000D02*
X14524086Y-7069000D01*
X14524086Y-7039000D02*
X14494086Y-7069000D01*
X14494086Y-8563000D02*
X14524086Y-8593000D01*
X14524086Y-8563000D02*
X14494086Y-8593000D01*
X14494086Y-10849000D02*
X14524086Y-10879000D01*
X14524086Y-10849000D02*
X14494086Y-10879000D01*
X14494086Y-11611000D02*
X14524086Y-11641000D01*
X14524086Y-11611000D02*
X14494086Y-11641000D01*
X14494086Y-14151000D02*
X14524086Y-14181000D01*
X14524086Y-14151000D02*
X14494086Y-14181000D01*
X14545750Y-13963000D02*
X14575750Y-13993000D01*
X14575750Y-13963000D02*
X14545750Y-13993000D01*
X14748086Y-7039000D02*
X14778086Y-7069000D01*
X14778086Y-7039000D02*
X14748086Y-7069000D01*
X14748086Y-8563000D02*
X14778086Y-8593000D01*
X14778086Y-8563000D02*
X14748086Y-8593000D01*
X14748086Y-13897000D02*
X14778086Y-13927000D01*
X14778086Y-13897000D02*
X14748086Y-13927000D01*
X14895750Y-10763000D02*
X14925750Y-10793000D01*
X14925750Y-10763000D02*
X14895750Y-10793000D01*
X14895750Y-12813000D02*
X14925750Y-12843000D01*
X14925750Y-12813000D02*
X14895750Y-12843000D01*
X15002086Y-8563000D02*
X15032086Y-8593000D01*
X15032086Y-8563000D02*
X15002086Y-8593000D01*
X15095750Y-12813000D02*
X15125750Y-12843000D01*
X15125750Y-12813000D02*
X15095750Y-12843000D01*
X15245750Y-10663000D02*
X15275750Y-10693000D01*
X15275750Y-10663000D02*
X15245750Y-10693000D01*
X15256086Y-7547000D02*
X15286086Y-7577000D01*
X15286086Y-7547000D02*
X15256086Y-7577000D01*
X15256086Y-8563000D02*
X15286086Y-8593000D01*
X15286086Y-8563000D02*
X15256086Y-8593000D01*
X15295750Y-10563000D02*
X15325750Y-10593000D01*
X15325750Y-10563000D02*
X15295750Y-10593000D01*
X15345750Y-8113000D02*
X15375750Y-8143000D01*
X15375750Y-8113000D02*
X15345750Y-8143000D01*
X15345750Y-10463000D02*
X15375750Y-10493000D01*
X15375750Y-10463000D02*
X15345750Y-10493000D01*
X15395750Y-10363000D02*
X15425750Y-10393000D01*
X15425750Y-10363000D02*
X15395750Y-10393000D01*
X15395750Y-11913000D02*
X15425750Y-11943000D01*
X15425750Y-11913000D02*
X15395750Y-11943000D01*
X15395750Y-12013000D02*
X15425750Y-12043000D01*
X15425750Y-12013000D02*
X15395750Y-12043000D01*
X15395750Y-14063000D02*
X15425750Y-14093000D01*
X15425750Y-14063000D02*
X15395750Y-14093000D01*
X15440868Y-10258118D02*
X15470868Y-10288118D01*
X15470868Y-10258118D02*
X15440868Y-10288118D01*
X15484573Y-10150207D02*
X15514573Y-10180207D01*
X15514573Y-10150207D02*
X15484573Y-10180207D01*
X15510086Y-13643000D02*
X15540086Y-13673000D01*
X15540086Y-13643000D02*
X15510086Y-13673000D01*
X15510086Y-14913000D02*
X15540086Y-14943000D01*
X15540086Y-14913000D02*
X15510086Y-14943000D01*
X15523687Y-10040937D02*
X15553687Y-10070937D01*
X15553687Y-10040937D02*
X15523687Y-10070937D01*
X15645750Y-11913000D02*
X15675750Y-11943000D01*
X15675750Y-11913000D02*
X15645750Y-11943000D01*
X15764086Y-6531000D02*
X15794086Y-6561000D01*
X15794086Y-6531000D02*
X15764086Y-6561000D01*
X15764086Y-6785000D02*
X15794086Y-6815000D01*
X15794086Y-6785000D02*
X15764086Y-6815000D01*
X15764086Y-14913000D02*
X15794086Y-14943000D01*
X15794086Y-14913000D02*
X15764086Y-14943000D01*
X15770750Y-10338000D02*
X15800750Y-10368000D01*
X15800750Y-10338000D02*
X15770750Y-10368000D01*
X15845750Y-13663000D02*
X15875750Y-13693000D01*
X15875750Y-13663000D02*
X15845750Y-13693000D01*
X15895750Y-7213000D02*
X15925750Y-7243000D01*
X15925750Y-7213000D02*
X15895750Y-7243000D01*
X16018086Y-12373000D02*
X16048086Y-12403000D01*
X16048086Y-12373000D02*
X16018086Y-12403000D01*
X16018086Y-12881000D02*
X16048086Y-12911000D01*
X16048086Y-12881000D02*
X16018086Y-12911000D01*
X16018086Y-14913000D02*
X16048086Y-14943000D01*
X16048086Y-14913000D02*
X16018086Y-14943000D01*
X16095750Y-10763000D02*
X16125750Y-10793000D01*
X16125750Y-10763000D02*
X16095750Y-10793000D01*
X16095750Y-13863000D02*
X16125750Y-13893000D01*
X16125750Y-13863000D02*
X16095750Y-13893000D01*
X16145750Y-13263000D02*
X16175750Y-13293000D01*
X16175750Y-13263000D02*
X16145750Y-13293000D01*
X16272086Y-14151000D02*
X16302086Y-14181000D01*
X16302086Y-14151000D02*
X16272086Y-14181000D01*
X16395750Y-11963000D02*
X16425750Y-11993000D01*
X16425750Y-11963000D02*
X16395750Y-11993000D01*
X16526086Y-7801000D02*
X16556086Y-7831000D01*
X16556086Y-7801000D02*
X16526086Y-7831000D01*
X16526086Y-8055000D02*
X16556086Y-8085000D01*
X16556086Y-8055000D02*
X16526086Y-8085000D01*
X16526086Y-8309000D02*
X16556086Y-8339000D01*
X16556086Y-8309000D02*
X16526086Y-8339000D01*
X16526086Y-8563000D02*
X16556086Y-8593000D01*
X16556086Y-8563000D02*
X16526086Y-8593000D01*
X16526086Y-8817000D02*
X16556086Y-8847000D01*
X16556086Y-8817000D02*
X16526086Y-8847000D01*
X16526086Y-9071000D02*
X16556086Y-9101000D01*
X16556086Y-9071000D02*
X16526086Y-9101000D01*
X16526086Y-9325000D02*
X16556086Y-9355000D01*
X16556086Y-9325000D02*
X16526086Y-9355000D01*
X16526086Y-9579000D02*
X16556086Y-9609000D01*
X16556086Y-9579000D02*
X16526086Y-9609000D01*
X16526086Y-9833000D02*
X16556086Y-9863000D01*
X16556086Y-9833000D02*
X16526086Y-9863000D01*
X16526086Y-10087000D02*
X16556086Y-10117000D01*
X16556086Y-10087000D02*
X16526086Y-10117000D01*
X16526086Y-10341000D02*
X16556086Y-10371000D01*
X16556086Y-10341000D02*
X16526086Y-10371000D01*
X16526086Y-11357000D02*
X16556086Y-11387000D01*
X16556086Y-11357000D02*
X16526086Y-11387000D01*
X16526086Y-12881000D02*
X16556086Y-12911000D01*
X16556086Y-12881000D02*
X16526086Y-12911000D01*
X16526086Y-13135000D02*
X16556086Y-13165000D01*
X16556086Y-13135000D02*
X16526086Y-13165000D01*
X16526086Y-13389000D02*
X16556086Y-13419000D01*
X16556086Y-13389000D02*
X16526086Y-13419000D01*
X16558450Y-13545300D02*
X16588450Y-13575300D01*
X16588450Y-13545300D02*
X16558450Y-13575300D01*
X16780086Y-7801000D02*
X16810086Y-7831000D01*
X16810086Y-7801000D02*
X16780086Y-7831000D01*
X16780086Y-8055000D02*
X16810086Y-8085000D01*
X16810086Y-8055000D02*
X16780086Y-8085000D01*
X16780086Y-8309000D02*
X16810086Y-8339000D01*
X16810086Y-8309000D02*
X16780086Y-8339000D01*
X16780086Y-8563000D02*
X16810086Y-8593000D01*
X16810086Y-8563000D02*
X16780086Y-8593000D01*
X16780086Y-8817000D02*
X16810086Y-8847000D01*
X16810086Y-8817000D02*
X16780086Y-8847000D01*
X16780086Y-9071000D02*
X16810086Y-9101000D01*
X16810086Y-9071000D02*
X16780086Y-9101000D01*
X16780086Y-9325000D02*
X16810086Y-9355000D01*
X16810086Y-9325000D02*
X16780086Y-9355000D01*
X16780086Y-9579000D02*
X16810086Y-9609000D01*
X16810086Y-9579000D02*
X16780086Y-9609000D01*
X16780086Y-9833000D02*
X16810086Y-9863000D01*
X16810086Y-9833000D02*
X16780086Y-9863000D01*
X16780086Y-10087000D02*
X16810086Y-10117000D01*
X16810086Y-10087000D02*
X16780086Y-10117000D01*
X16780086Y-10341000D02*
X16810086Y-10371000D01*
X16810086Y-10341000D02*
X16780086Y-10371000D01*
X16780086Y-12627000D02*
X16810086Y-12657000D01*
X16810086Y-12627000D02*
X16780086Y-12657000D01*
X16780086Y-12881000D02*
X16810086Y-12911000D01*
X16810086Y-12881000D02*
X16780086Y-12911000D01*
X16780086Y-13135000D02*
X16810086Y-13165000D01*
X16810086Y-13135000D02*
X16780086Y-13165000D01*
X16780086Y-13389000D02*
X16810086Y-13419000D01*
X16810086Y-13389000D02*
X16780086Y-13419000D01*
X17034086Y-7801000D02*
X17064086Y-7831000D01*
X17064086Y-7801000D02*
X17034086Y-7831000D01*
X17034086Y-8055000D02*
X17064086Y-8085000D01*
X17064086Y-8055000D02*
X17034086Y-8085000D01*
X17034086Y-8309000D02*
X17064086Y-8339000D01*
X17064086Y-8309000D02*
X17034086Y-8339000D01*
X17034086Y-8563000D02*
X17064086Y-8593000D01*
X17064086Y-8563000D02*
X17034086Y-8593000D01*
X17034086Y-8817000D02*
X17064086Y-8847000D01*
X17064086Y-8817000D02*
X17034086Y-8847000D01*
X17034086Y-9071000D02*
X17064086Y-9101000D01*
X17064086Y-9071000D02*
X17034086Y-9101000D01*
X17034086Y-9325000D02*
X17064086Y-9355000D01*
X17064086Y-9325000D02*
X17034086Y-9355000D01*
X17034086Y-9579000D02*
X17064086Y-9609000D01*
X17064086Y-9579000D02*
X17034086Y-9609000D01*
X17034086Y-9833000D02*
X17064086Y-9863000D01*
X17064086Y-9833000D02*
X17034086Y-9863000D01*
X17034086Y-10087000D02*
X17064086Y-10117000D01*
X17064086Y-10087000D02*
X17034086Y-10117000D01*
X17034086Y-10341000D02*
X17064086Y-10371000D01*
X17064086Y-10341000D02*
X17034086Y-10371000D01*
X17034086Y-12627000D02*
X17064086Y-12657000D01*
X17064086Y-12627000D02*
X17034086Y-12657000D01*
X17034086Y-12881000D02*
X17064086Y-12911000D01*
X17064086Y-12881000D02*
X17034086Y-12911000D01*
X17034086Y-13135000D02*
X17064086Y-13165000D01*
X17064086Y-13135000D02*
X17034086Y-13165000D01*
X17034086Y-13389000D02*
X17064086Y-13419000D01*
X17064086Y-13389000D02*
X17034086Y-13419000D01*
X17034086Y-15421000D02*
X17064086Y-15451000D01*
X17064086Y-15421000D02*
X17034086Y-15451000D01*
X17288086Y-7801000D02*
X17318086Y-7831000D01*
X17318086Y-7801000D02*
X17288086Y-7831000D01*
X17288086Y-8055000D02*
X17318086Y-8085000D01*
X17318086Y-8055000D02*
X17288086Y-8085000D01*
X17288086Y-8309000D02*
X17318086Y-8339000D01*
X17318086Y-8309000D02*
X17288086Y-8339000D01*
X17288086Y-8563000D02*
X17318086Y-8593000D01*
X17318086Y-8563000D02*
X17288086Y-8593000D01*
X17288086Y-8817000D02*
X17318086Y-8847000D01*
X17318086Y-8817000D02*
X17288086Y-8847000D01*
X17288086Y-9071000D02*
X17318086Y-9101000D01*
X17318086Y-9071000D02*
X17288086Y-9101000D01*
X17288086Y-9325000D02*
X17318086Y-9355000D01*
X17318086Y-9325000D02*
X17288086Y-9355000D01*
X17288086Y-9579000D02*
X17318086Y-9609000D01*
X17318086Y-9579000D02*
X17288086Y-9609000D01*
X17288086Y-9833000D02*
X17318086Y-9863000D01*
X17318086Y-9833000D02*
X17288086Y-9863000D01*
X17288086Y-10087000D02*
X17318086Y-10117000D01*
X17318086Y-10087000D02*
X17288086Y-10117000D01*
X17288086Y-12627000D02*
X17318086Y-12657000D01*
X17318086Y-12627000D02*
X17288086Y-12657000D01*
X17288086Y-12881000D02*
X17318086Y-12911000D01*
X17318086Y-12881000D02*
X17288086Y-12911000D01*
X17288086Y-13135000D02*
X17318086Y-13165000D01*
X17318086Y-13135000D02*
X17288086Y-13165000D01*
X17288086Y-13389000D02*
X17318086Y-13419000D01*
X17318086Y-13389000D02*
X17288086Y-13419000D01*
X17288086Y-15421000D02*
X17318086Y-15451000D01*
X17318086Y-15421000D02*
X17288086Y-15451000D01*
X17542086Y-10849000D02*
X17572086Y-10879000D01*
X17572086Y-10849000D02*
X17542086Y-10879000D01*
X17542086Y-11103000D02*
X17572086Y-11133000D01*
X17572086Y-11103000D02*
X17542086Y-11133000D01*
X17542086Y-12881000D02*
X17572086Y-12911000D01*
X17572086Y-12881000D02*
X17542086Y-12911000D01*
X17542086Y-13135000D02*
X17572086Y-13165000D01*
X17572086Y-13135000D02*
X17542086Y-13165000D01*
X17542086Y-13389000D02*
X17572086Y-13419000D01*
X17572086Y-13389000D02*
X17542086Y-13419000D01*
X17542086Y-15421000D02*
X17572086Y-15451000D01*
X17572086Y-15421000D02*
X17542086Y-15451000D01*
X17796086Y-10849000D02*
X17826086Y-10879000D01*
X17826086Y-10849000D02*
X17796086Y-10879000D01*
X17796086Y-11103000D02*
X17826086Y-11133000D01*
X17826086Y-11103000D02*
X17796086Y-11133000D01*
X17796086Y-11611000D02*
X17826086Y-11641000D01*
X17826086Y-11611000D02*
X17796086Y-11641000D01*
X17796086Y-11865000D02*
X17826086Y-11895000D01*
X17826086Y-11865000D02*
X17796086Y-11895000D01*
X17796086Y-12119000D02*
X17826086Y-12149000D01*
X17826086Y-12119000D02*
X17796086Y-12149000D01*
X17796086Y-12373000D02*
X17826086Y-12403000D01*
X17826086Y-12373000D02*
X17796086Y-12403000D01*
X17796086Y-12881000D02*
X17826086Y-12911000D01*
X17826086Y-12881000D02*
X17796086Y-12911000D01*
X17796086Y-13135000D02*
X17826086Y-13165000D01*
X17826086Y-13135000D02*
X17796086Y-13165000D01*
X17796086Y-13643000D02*
X17826086Y-13673000D01*
X17826086Y-13643000D02*
X17796086Y-13673000D01*
X17796086Y-15421000D02*
X17826086Y-15451000D01*
X17826086Y-15421000D02*
X17796086Y-15451000D01*
X17796086Y-15675000D02*
X17826086Y-15705000D01*
X17826086Y-15675000D02*
X17796086Y-15705000D01*
X18050086Y-13897000D02*
X18080086Y-13927000D01*
X18080086Y-13897000D02*
X18050086Y-13927000D01*
X18050086Y-15675000D02*
X18080086Y-15705000D01*
X18080086Y-15675000D02*
X18050086Y-15705000D01*
X18095750Y-14163000D02*
X18125750Y-14193000D01*
X18125750Y-14163000D02*
X18095750Y-14193000D01*
X18304086Y-15929000D02*
X18334086Y-15959000D01*
X18334086Y-15929000D02*
X18304086Y-15959000D01*
X18595750Y-15963000D02*
X18625750Y-15993000D01*
X18625750Y-15963000D02*
X18595750Y-15993000D01*
X18812086Y-13897000D02*
X18842086Y-13927000D01*
X18842086Y-13897000D02*
X18812086Y-13927000D01*
X18812086Y-16183000D02*
X18842086Y-16213000D01*
X18842086Y-16183000D02*
X18812086Y-16213000D01*
X18995750Y-15813000D02*
X19025750Y-15843000D01*
X19025750Y-15813000D02*
X18995750Y-15843000D01*
X19066086Y-14405000D02*
X19096086Y-14435000D01*
X19096086Y-14405000D02*
X19066086Y-14435000D01*
X19066086Y-16183000D02*
X19096086Y-16213000D01*
X19096086Y-16183000D02*
X19066086Y-16213000D01*
X19066086Y-16437000D02*
X19096086Y-16467000D01*
X19096086Y-16437000D02*
X19066086Y-16467000D01*
X19320086Y-15929000D02*
X19350086Y-15959000D01*
X19350086Y-15929000D02*
X19320086Y-15959000D01*
X19320086Y-16183000D02*
X19350086Y-16213000D01*
X19350086Y-16183000D02*
X19320086Y-16213000D01*
X19574086Y-15167000D02*
X19604086Y-15197000D01*
X19604086Y-15167000D02*
X19574086Y-15197000D01*
X19574086Y-15675000D02*
X19604086Y-15705000D01*
X19604086Y-15675000D02*
X19574086Y-15705000D01*
X19574086Y-15929000D02*
X19604086Y-15959000D01*
X19604086Y-15929000D02*
X19574086Y-15959000D01*
X19828086Y-14405000D02*
X19858086Y-14435000D01*
X19858086Y-14405000D02*
X19828086Y-14435000D01*
X19828086Y-15421000D02*
X19858086Y-15451000D01*
X19858086Y-15421000D02*
X19828086Y-15451000D01*
X20082086Y-14659000D02*
X20112086Y-14689000D01*
X20112086Y-14659000D02*
X20082086Y-14689000D01*
X20082086Y-14913000D02*
X20112086Y-14943000D01*
X20112086Y-14913000D02*
X20082086Y-14943000D01*
X20844086Y-14659000D02*
X20874086Y-14689000D01*
X20874086Y-14659000D02*
X20844086Y-14689000D01*
X20844086Y-14913000D02*
X20874086Y-14943000D01*
X20874086Y-14913000D02*
X20844086Y-14943000D01*
X20844086Y-15167000D02*
X20874086Y-15197000D01*
X20874086Y-15167000D02*
X20844086Y-15197000D01*
X21098086Y-14405000D02*
X21128086Y-14435000D01*
X21128086Y-14405000D02*
X21098086Y-14435000D01*
X21098086Y-14659000D02*
X21128086Y-14689000D01*
X21128086Y-14659000D02*
X21098086Y-14689000D01*
X21098086Y-15421000D02*
X21128086Y-15451000D01*
X21128086Y-15421000D02*
X21098086Y-15451000D01*
X21098086Y-15675000D02*
X21128086Y-15705000D01*
X21128086Y-15675000D02*
X21098086Y-15705000D01*
X21195750Y-14963000D02*
X21225750Y-14993000D01*
X21225750Y-14963000D02*
X21195750Y-14993000D01*
X21352086Y-14151000D02*
X21382086Y-14181000D01*
X21382086Y-14151000D02*
X21352086Y-14181000D01*
X21352086Y-14405000D02*
X21382086Y-14435000D01*
X21382086Y-14405000D02*
X21352086Y-14435000D01*
X21352086Y-15421000D02*
X21382086Y-15451000D01*
X21382086Y-15421000D02*
X21352086Y-15451000D01*
X21352086Y-15675000D02*
X21382086Y-15705000D01*
X21382086Y-15675000D02*
X21352086Y-15705000D01*
X21352086Y-15929000D02*
X21382086Y-15959000D01*
X21382086Y-15929000D02*
X21352086Y-15959000D01*
X21352086Y-16183000D02*
X21382086Y-16213000D01*
X21382086Y-16183000D02*
X21352086Y-16213000D01*
X21606086Y-14151000D02*
X21636086Y-14181000D01*
X21636086Y-14151000D02*
X21606086Y-14181000D01*
X21606086Y-15675000D02*
X21636086Y-15705000D01*
X21636086Y-15675000D02*
X21606086Y-15705000D01*
X21606086Y-15929000D02*
X21636086Y-15959000D01*
X21636086Y-15929000D02*
X21606086Y-15959000D01*
X21606086Y-16183000D02*
X21636086Y-16213000D01*
X21636086Y-16183000D02*
X21606086Y-16213000D01*
X21606086Y-16437000D02*
X21636086Y-16467000D01*
X21636086Y-16437000D02*
X21606086Y-16467000D01*
X21860086Y-13897000D02*
X21890086Y-13927000D01*
X21890086Y-13897000D02*
X21860086Y-13927000D01*
X21860086Y-15929000D02*
X21890086Y-15959000D01*
X21890086Y-15929000D02*
X21860086Y-15959000D01*
X21860086Y-16183000D02*
X21890086Y-16213000D01*
X21890086Y-16183000D02*
X21860086Y-16213000D01*
X22114086Y-15929000D02*
X22144086Y-15959000D01*
X22144086Y-15929000D02*
X22114086Y-15959000D01*
X22114086Y-16183000D02*
X22144086Y-16213000D01*
X22144086Y-16183000D02*
X22114086Y-16213000D01*
X22368086Y-15929000D02*
X22398086Y-15959000D01*
X22398086Y-15929000D02*
X22368086Y-15959000D01*
X22622086Y-15675000D02*
X22652086Y-15705000D01*
X22652086Y-15675000D02*
X22622086Y-15705000D01*
X22622086Y-15929000D02*
X22652086Y-15959000D01*
X22652086Y-15929000D02*
X22622086Y-15959000D01*
X22876086Y-14913000D02*
X22906086Y-14943000D01*
X22906086Y-14913000D02*
X22876086Y-14943000D01*
X22995750Y-14013000D02*
X23025750Y-14043000D01*
X23025750Y-14013000D02*
X22995750Y-14043000D01*
X23045750Y-9913000D02*
X23075750Y-9943000D01*
X23075750Y-9913000D02*
X23045750Y-9943000D01*
X23045750Y-10163000D02*
X23075750Y-10193000D01*
X23075750Y-10163000D02*
X23045750Y-10193000D01*
X23095750Y-15063000D02*
X23125750Y-15093000D01*
X23125750Y-15063000D02*
X23095750Y-15093000D01*
X23130086Y-12119000D02*
X23160086Y-12149000D01*
X23160086Y-12119000D02*
X23130086Y-12149000D01*
X23130086Y-12373000D02*
X23160086Y-12403000D01*
X23160086Y-12373000D02*
X23130086Y-12403000D01*
X23130086Y-12881000D02*
X23160086Y-12911000D01*
X23160086Y-12881000D02*
X23130086Y-12911000D01*
X23384086Y-7547000D02*
X23414086Y-7577000D01*
X23414086Y-7547000D02*
X23384086Y-7577000D01*
X23384086Y-7801000D02*
X23414086Y-7831000D01*
X23414086Y-7801000D02*
X23384086Y-7831000D01*
X23384086Y-8055000D02*
X23414086Y-8085000D01*
X23414086Y-8055000D02*
X23384086Y-8085000D01*
X23384086Y-10341000D02*
X23414086Y-10371000D01*
X23414086Y-10341000D02*
X23384086Y-10371000D01*
X23384086Y-10595000D02*
X23414086Y-10625000D01*
X23414086Y-10595000D02*
X23384086Y-10625000D01*
X23384086Y-12119000D02*
X23414086Y-12149000D01*
X23414086Y-12119000D02*
X23384086Y-12149000D01*
X23384086Y-13643000D02*
X23414086Y-13673000D01*
X23414086Y-13643000D02*
X23384086Y-13673000D01*
X23384086Y-13897000D02*
X23414086Y-13927000D01*
X23414086Y-13897000D02*
X23384086Y-13927000D01*
X23384086Y-14659000D02*
X23414086Y-14689000D01*
X23414086Y-14659000D02*
X23384086Y-14689000D01*
X23638086Y-7547000D02*
X23668086Y-7577000D01*
X23668086Y-7547000D02*
X23638086Y-7577000D01*
X23638086Y-7801000D02*
X23668086Y-7831000D01*
X23668086Y-7801000D02*
X23638086Y-7831000D01*
X23638086Y-8055000D02*
X23668086Y-8085000D01*
X23668086Y-8055000D02*
X23638086Y-8085000D01*
X23638086Y-8309000D02*
X23668086Y-8339000D01*
X23668086Y-8309000D02*
X23638086Y-8339000D01*
X23638086Y-12627000D02*
X23668086Y-12657000D01*
X23668086Y-12627000D02*
X23638086Y-12657000D01*
X23638086Y-12881000D02*
X23668086Y-12911000D01*
X23668086Y-12881000D02*
X23638086Y-12911000D01*
X23638086Y-13389000D02*
X23668086Y-13419000D01*
X23668086Y-13389000D02*
X23638086Y-13419000D01*
X23638086Y-13897000D02*
X23668086Y-13927000D01*
X23668086Y-13897000D02*
X23638086Y-13927000D01*
X23638086Y-15421000D02*
X23668086Y-15451000D01*
X23668086Y-15421000D02*
X23638086Y-15451000D01*
X23695750Y-10563000D02*
X23725750Y-10593000D01*
X23725750Y-10563000D02*
X23695750Y-10593000D01*
X23892086Y-7547000D02*
X23922086Y-7577000D01*
X23922086Y-7547000D02*
X23892086Y-7577000D01*
X23892086Y-7801000D02*
X23922086Y-7831000D01*
X23922086Y-7801000D02*
X23892086Y-7831000D01*
X23892086Y-8055000D02*
X23922086Y-8085000D01*
X23922086Y-8055000D02*
X23892086Y-8085000D01*
X23892086Y-8309000D02*
X23922086Y-8339000D01*
X23922086Y-8309000D02*
X23892086Y-8339000D01*
X23892086Y-8817000D02*
X23922086Y-8847000D01*
X23922086Y-8817000D02*
X23892086Y-8847000D01*
X23892086Y-9071000D02*
X23922086Y-9101000D01*
X23922086Y-9071000D02*
X23892086Y-9101000D01*
X23892086Y-9325000D02*
X23922086Y-9355000D01*
X23922086Y-9325000D02*
X23892086Y-9355000D01*
X23892086Y-9579000D02*
X23922086Y-9609000D01*
X23922086Y-9579000D02*
X23892086Y-9609000D01*
X23892086Y-9833000D02*
X23922086Y-9863000D01*
X23922086Y-9833000D02*
X23892086Y-9863000D01*
X23892086Y-12373000D02*
X23922086Y-12403000D01*
X23922086Y-12373000D02*
X23892086Y-12403000D01*
X23892086Y-12627000D02*
X23922086Y-12657000D01*
X23922086Y-12627000D02*
X23892086Y-12657000D01*
X23892086Y-12881000D02*
X23922086Y-12911000D01*
X23922086Y-12881000D02*
X23892086Y-12911000D01*
X23892086Y-13389000D02*
X23922086Y-13419000D01*
X23922086Y-13389000D02*
X23892086Y-13419000D01*
X24146086Y-7547000D02*
X24176086Y-7577000D01*
X24176086Y-7547000D02*
X24146086Y-7577000D01*
X24146086Y-7801000D02*
X24176086Y-7831000D01*
X24176086Y-7801000D02*
X24146086Y-7831000D01*
X24146086Y-8055000D02*
X24176086Y-8085000D01*
X24176086Y-8055000D02*
X24146086Y-8085000D01*
X24146086Y-8563000D02*
X24176086Y-8593000D01*
X24176086Y-8563000D02*
X24146086Y-8593000D01*
X24146086Y-8817000D02*
X24176086Y-8847000D01*
X24176086Y-8817000D02*
X24146086Y-8847000D01*
X24146086Y-9071000D02*
X24176086Y-9101000D01*
X24176086Y-9071000D02*
X24146086Y-9101000D01*
X24146086Y-9325000D02*
X24176086Y-9355000D01*
X24176086Y-9325000D02*
X24146086Y-9355000D01*
X24146086Y-9579000D02*
X24176086Y-9609000D01*
X24176086Y-9579000D02*
X24146086Y-9609000D01*
X24146086Y-9833000D02*
X24176086Y-9863000D01*
X24176086Y-9833000D02*
X24146086Y-9863000D01*
X24146086Y-10087000D02*
X24176086Y-10117000D01*
X24176086Y-10087000D02*
X24146086Y-10117000D01*
X24146086Y-12119000D02*
X24176086Y-12149000D01*
X24176086Y-12119000D02*
X24146086Y-12149000D01*
X24146086Y-12373000D02*
X24176086Y-12403000D01*
X24176086Y-12373000D02*
X24146086Y-12403000D01*
X24146086Y-12627000D02*
X24176086Y-12657000D01*
X24176086Y-12627000D02*
X24146086Y-12657000D01*
X24146086Y-13897000D02*
X24176086Y-13927000D01*
X24176086Y-13897000D02*
X24146086Y-13927000D01*
X24400086Y-7547000D02*
X24430086Y-7577000D01*
X24430086Y-7547000D02*
X24400086Y-7577000D01*
X24400086Y-7801000D02*
X24430086Y-7831000D01*
X24430086Y-7801000D02*
X24400086Y-7831000D01*
X24400086Y-8309000D02*
X24430086Y-8339000D01*
X24430086Y-8309000D02*
X24400086Y-8339000D01*
X24400086Y-8563000D02*
X24430086Y-8593000D01*
X24430086Y-8563000D02*
X24400086Y-8593000D01*
X24400086Y-11357000D02*
X24430086Y-11387000D01*
X24430086Y-11357000D02*
X24400086Y-11387000D01*
X24400086Y-11611000D02*
X24430086Y-11641000D01*
X24430086Y-11611000D02*
X24400086Y-11641000D01*
X24400086Y-13389000D02*
X24430086Y-13419000D01*
X24430086Y-13389000D02*
X24400086Y-13419000D01*
X24400086Y-14405000D02*
X24430086Y-14435000D01*
X24430086Y-14405000D02*
X24400086Y-14435000D01*
X24654086Y-11103000D02*
X24684086Y-11133000D01*
X24684086Y-11103000D02*
X24654086Y-11133000D01*
X24654086Y-11357000D02*
X24684086Y-11387000D01*
X24684086Y-11357000D02*
X24654086Y-11387000D01*
X24745750Y-11963000D02*
X24775750Y-11993000D01*
X24775750Y-11963000D02*
X24745750Y-11993000D01*
X24845750Y-13463000D02*
X24875750Y-13493000D01*
X24875750Y-13463000D02*
X24845750Y-13493000D01*
X24908086Y-12881000D02*
X24938086Y-12911000D01*
X24938086Y-12881000D02*
X24908086Y-12911000D01*
X24908086Y-13135000D02*
X24938086Y-13165000D01*
X24938086Y-13135000D02*
X24908086Y-13165000D01*
X24995750Y-14463000D02*
X25025750Y-14493000D01*
X25025750Y-14463000D02*
X24995750Y-14493000D01*
X25162086Y-6531000D02*
X25192086Y-6561000D01*
X25192086Y-6531000D02*
X25162086Y-6561000D01*
X25162086Y-6785000D02*
X25192086Y-6815000D01*
X25192086Y-6785000D02*
X25162086Y-6815000D01*
X25162086Y-11611000D02*
X25192086Y-11641000D01*
X25192086Y-11611000D02*
X25162086Y-11641000D01*
X25162086Y-12373000D02*
X25192086Y-12403000D01*
X25192086Y-12373000D02*
X25162086Y-12403000D01*
X25162086Y-12881000D02*
X25192086Y-12911000D01*
X25192086Y-12881000D02*
X25162086Y-12911000D01*
X25162086Y-13135000D02*
X25192086Y-13165000D01*
X25192086Y-13135000D02*
X25162086Y-13165000D01*
X25162086Y-14151000D02*
X25192086Y-14181000D01*
X25192086Y-14151000D02*
X25162086Y-14181000D01*
X25162086Y-14913000D02*
X25192086Y-14943000D01*
X25192086Y-14913000D02*
X25162086Y-14943000D01*
X25245750Y-10813000D02*
X25275750Y-10843000D01*
X25275750Y-10813000D02*
X25245750Y-10843000D01*
X25345750Y-9813000D02*
X25375750Y-9843000D01*
X25375750Y-9813000D02*
X25345750Y-9843000D01*
X25345750Y-10713000D02*
X25375750Y-10743000D01*
X25375750Y-10713000D02*
X25345750Y-10743000D01*
X25395750Y-11963000D02*
X25425750Y-11993000D01*
X25425750Y-11963000D02*
X25395750Y-11993000D01*
X25416086Y-6531000D02*
X25446086Y-6561000D01*
X25446086Y-6531000D02*
X25416086Y-6561000D01*
X25416086Y-7039000D02*
X25446086Y-7069000D01*
X25446086Y-7039000D02*
X25416086Y-7069000D01*
X25416086Y-8055000D02*
X25446086Y-8085000D01*
X25446086Y-8055000D02*
X25416086Y-8085000D01*
X25416086Y-8309000D02*
X25446086Y-8339000D01*
X25446086Y-8309000D02*
X25416086Y-8339000D01*
X25416086Y-8563000D02*
X25446086Y-8593000D01*
X25446086Y-8563000D02*
X25416086Y-8593000D01*
X25416086Y-8817000D02*
X25446086Y-8847000D01*
X25446086Y-8817000D02*
X25416086Y-8847000D01*
X25416086Y-11611000D02*
X25446086Y-11641000D01*
X25446086Y-11611000D02*
X25416086Y-11641000D01*
X25416086Y-12373000D02*
X25446086Y-12403000D01*
X25446086Y-12373000D02*
X25416086Y-12403000D01*
X25416086Y-12881000D02*
X25446086Y-12911000D01*
X25446086Y-12881000D02*
X25416086Y-12911000D01*
X25416086Y-13135000D02*
X25446086Y-13165000D01*
X25446086Y-13135000D02*
X25416086Y-13165000D01*
X25416086Y-13897000D02*
X25446086Y-13927000D01*
X25446086Y-13897000D02*
X25416086Y-13927000D01*
X25416086Y-14913000D02*
X25446086Y-14943000D01*
X25446086Y-14913000D02*
X25416086Y-14943000D01*
X25670086Y-7039000D02*
X25700086Y-7069000D01*
X25700086Y-7039000D02*
X25670086Y-7069000D01*
X25670086Y-12373000D02*
X25700086Y-12403000D01*
X25700086Y-12373000D02*
X25670086Y-12403000D01*
X25670086Y-12881000D02*
X25700086Y-12911000D01*
X25700086Y-12881000D02*
X25670086Y-12911000D01*
X25924086Y-6531000D02*
X25954086Y-6561000D01*
X25954086Y-6531000D02*
X25924086Y-6561000D01*
X25924086Y-6785000D02*
X25954086Y-6815000D01*
X25954086Y-6785000D02*
X25924086Y-6815000D01*
X25924086Y-7039000D02*
X25954086Y-7069000D01*
X25954086Y-7039000D02*
X25924086Y-7069000D01*
X25924086Y-7293000D02*
X25954086Y-7323000D01*
X25954086Y-7293000D02*
X25924086Y-7323000D01*
X25924086Y-8563000D02*
X25954086Y-8593000D01*
X25954086Y-8563000D02*
X25924086Y-8593000D01*
X25924086Y-8817000D02*
X25954086Y-8847000D01*
X25954086Y-8817000D02*
X25924086Y-8847000D01*
X25924086Y-12881000D02*
X25954086Y-12911000D01*
X25954086Y-12881000D02*
X25924086Y-12911000D01*
X26178086Y-8563000D02*
X26208086Y-8593000D01*
X26208086Y-8563000D02*
X26178086Y-8593000D01*
X26178086Y-12881000D02*
X26208086Y-12911000D01*
X26208086Y-12881000D02*
X26178086Y-12911000D01*
X26245750Y-14063000D02*
X26275750Y-14093000D01*
X26275750Y-14063000D02*
X26245750Y-14093000D01*
X26345750Y-14313000D02*
X26375750Y-14343000D01*
X26375750Y-14313000D02*
X26345750Y-14343000D01*
X26432086Y-8817000D02*
X26462086Y-8847000D01*
X26462086Y-8817000D02*
X26432086Y-8847000D01*
X26432086Y-9325000D02*
X26462086Y-9355000D01*
X26462086Y-9325000D02*
X26432086Y-9355000D01*
X26432086Y-9833000D02*
X26462086Y-9863000D01*
X26462086Y-9833000D02*
X26432086Y-9863000D01*
X26432086Y-11611000D02*
X26462086Y-11641000D01*
X26462086Y-11611000D02*
X26432086Y-11641000D01*
X26432086Y-11865000D02*
X26462086Y-11895000D01*
X26462086Y-11865000D02*
X26432086Y-11895000D01*
X26432086Y-12881000D02*
X26462086Y-12911000D01*
X26462086Y-12881000D02*
X26432086Y-12911000D01*
X26432086Y-13135000D02*
X26462086Y-13165000D01*
X26462086Y-13135000D02*
X26432086Y-13165000D01*
X26495750Y-8163000D02*
X26525750Y-8193000D01*
X26525750Y-8163000D02*
X26495750Y-8193000D01*
X26545750Y-12263000D02*
X26575750Y-12293000D01*
X26575750Y-12263000D02*
X26545750Y-12293000D01*
X26545750Y-14313000D02*
X26575750Y-14343000D01*
X26575750Y-14313000D02*
X26545750Y-14343000D01*
X26645750Y-9913000D02*
X26675750Y-9943000D01*
X26675750Y-9913000D02*
X26645750Y-9943000D01*
X26686086Y-6785000D02*
X26716086Y-6815000D01*
X26716086Y-6785000D02*
X26686086Y-6815000D01*
X26686086Y-14659000D02*
X26716086Y-14689000D01*
X26716086Y-14659000D02*
X26686086Y-14689000D01*
X26695750Y-12213000D02*
X26725750Y-12243000D01*
X26725750Y-12213000D02*
X26695750Y-12243000D01*
X26745750Y-10563000D02*
X26775750Y-10593000D01*
X26775750Y-10563000D02*
X26745750Y-10593000D01*
X26845750Y-10363000D02*
X26875750Y-10393000D01*
X26875750Y-10363000D02*
X26845750Y-10393000D01*
X26895750Y-8013000D02*
X26925750Y-8043000D01*
X26925750Y-8013000D02*
X26895750Y-8043000D01*
X26940086Y-6785000D02*
X26970086Y-6815000D01*
X26970086Y-6785000D02*
X26940086Y-6815000D01*
X26940086Y-7547000D02*
X26970086Y-7577000D01*
X26970086Y-7547000D02*
X26940086Y-7577000D01*
X26940086Y-7801000D02*
X26970086Y-7831000D01*
X26970086Y-7801000D02*
X26940086Y-7831000D01*
X26940086Y-8563000D02*
X26970086Y-8593000D01*
X26970086Y-8563000D02*
X26940086Y-8593000D01*
X26940086Y-8817000D02*
X26970086Y-8847000D01*
X26970086Y-8817000D02*
X26940086Y-8847000D01*
X26940086Y-11611000D02*
X26970086Y-11641000D01*
X26970086Y-11611000D02*
X26940086Y-11641000D01*
X26940086Y-12627000D02*
X26970086Y-12657000D01*
X26970086Y-12627000D02*
X26940086Y-12657000D01*
X26940086Y-14405000D02*
X26970086Y-14435000D01*
X26970086Y-14405000D02*
X26940086Y-14435000D01*
X26940086Y-14659000D02*
X26970086Y-14689000D01*
X26970086Y-14659000D02*
X26940086Y-14689000D01*
X27194086Y-6531000D02*
X27224086Y-6561000D01*
X27224086Y-6531000D02*
X27194086Y-6561000D01*
X27194086Y-6785000D02*
X27224086Y-6815000D01*
X27224086Y-6785000D02*
X27194086Y-6815000D01*
X27194086Y-7801000D02*
X27224086Y-7831000D01*
X27224086Y-7801000D02*
X27194086Y-7831000D01*
X27194086Y-8563000D02*
X27224086Y-8593000D01*
X27224086Y-8563000D02*
X27194086Y-8593000D01*
X27194086Y-8817000D02*
X27224086Y-8847000D01*
X27224086Y-8817000D02*
X27194086Y-8847000D01*
X27194086Y-10595000D02*
X27224086Y-10625000D01*
X27224086Y-10595000D02*
X27194086Y-10625000D01*
X27194086Y-12627000D02*
X27224086Y-12657000D01*
X27224086Y-12627000D02*
X27194086Y-12657000D01*
X27245750Y-8013000D02*
X27275750Y-8043000D01*
X27275750Y-8013000D02*
X27245750Y-8043000D01*
X27448086Y-6531000D02*
X27478086Y-6561000D01*
X27478086Y-6531000D02*
X27448086Y-6561000D01*
X27448086Y-6785000D02*
X27478086Y-6815000D01*
X27478086Y-6785000D02*
X27448086Y-6815000D01*
X27448086Y-7547000D02*
X27478086Y-7577000D01*
X27478086Y-7547000D02*
X27448086Y-7577000D01*
X27448086Y-8563000D02*
X27478086Y-8593000D01*
X27478086Y-8563000D02*
X27448086Y-8593000D01*
X27448086Y-9325000D02*
X27478086Y-9355000D01*
X27478086Y-9325000D02*
X27448086Y-9355000D01*
X27448086Y-10595000D02*
X27478086Y-10625000D01*
X27478086Y-10595000D02*
X27448086Y-10625000D01*
X27448086Y-12627000D02*
X27478086Y-12657000D01*
X27478086Y-12627000D02*
X27448086Y-12657000D01*
X27702086Y-6531000D02*
X27732086Y-6561000D01*
X27732086Y-6531000D02*
X27702086Y-6561000D01*
X27702086Y-6785000D02*
X27732086Y-6815000D01*
X27732086Y-6785000D02*
X27702086Y-6815000D01*
X27702086Y-7039000D02*
X27732086Y-7069000D01*
X27732086Y-7039000D02*
X27702086Y-7069000D01*
X27702086Y-12627000D02*
X27732086Y-12657000D01*
X27732086Y-12627000D02*
X27702086Y-12657000D01*
X27956086Y-6531000D02*
X27986086Y-6561000D01*
X27986086Y-6531000D02*
X27956086Y-6561000D01*
X27956086Y-12627000D02*
X27986086Y-12657000D01*
X27986086Y-12627000D02*
X27956086Y-12657000D01*
X28210086Y-6531000D02*
X28240086Y-6561000D01*
X28240086Y-6531000D02*
X28210086Y-6561000D01*
X28210086Y-8563000D02*
X28240086Y-8593000D01*
X28240086Y-8563000D02*
X28210086Y-8593000D01*
X28210086Y-9071000D02*
X28240086Y-9101000D01*
X28240086Y-9071000D02*
X28210086Y-9101000D01*
X28210086Y-11357000D02*
X28240086Y-11387000D01*
X28240086Y-11357000D02*
X28210086Y-11387000D01*
X28210086Y-12627000D02*
X28240086Y-12657000D01*
X28240086Y-12627000D02*
X28210086Y-12657000D01*
X28445750Y-9913000D02*
X28475750Y-9943000D01*
X28475750Y-9913000D02*
X28445750Y-9943000D01*
X28464086Y-6023000D02*
X28494086Y-6053000D01*
X28494086Y-6023000D02*
X28464086Y-6053000D01*
X28464086Y-6531000D02*
X28494086Y-6561000D01*
X28494086Y-6531000D02*
X28464086Y-6561000D01*
X28464086Y-8563000D02*
X28494086Y-8593000D01*
X28494086Y-8563000D02*
X28464086Y-8593000D01*
X28464086Y-12627000D02*
X28494086Y-12657000D01*
X28494086Y-12627000D02*
X28464086Y-12657000D01*
X28645750Y-7863000D02*
X28675750Y-7893000D01*
X28675750Y-7863000D02*
X28645750Y-7893000D01*
X28695750Y-10313000D02*
X28725750Y-10343000D01*
X28725750Y-10313000D02*
X28695750Y-10343000D01*
X28695750Y-10413000D02*
X28725750Y-10443000D01*
X28725750Y-10413000D02*
X28695750Y-10443000D01*
X28718086Y-5769000D02*
X28748086Y-5799000D01*
X28748086Y-5769000D02*
X28718086Y-5799000D01*
X28718086Y-8309000D02*
X28748086Y-8339000D01*
X28748086Y-8309000D02*
X28718086Y-8339000D01*
X28718086Y-8817000D02*
X28748086Y-8847000D01*
X28748086Y-8817000D02*
X28718086Y-8847000D01*
X28718086Y-9071000D02*
X28748086Y-9101000D01*
X28748086Y-9071000D02*
X28718086Y-9101000D01*
X28718086Y-9325000D02*
X28748086Y-9355000D01*
X28748086Y-9325000D02*
X28718086Y-9355000D01*
X28718086Y-9579000D02*
X28748086Y-9609000D01*
X28748086Y-9579000D02*
X28718086Y-9609000D01*
X28718086Y-11357000D02*
X28748086Y-11387000D01*
X28748086Y-11357000D02*
X28718086Y-11387000D01*
X28718086Y-12627000D02*
X28748086Y-12657000D01*
X28748086Y-12627000D02*
X28718086Y-12657000D01*
X28972086Y-6277000D02*
X29002086Y-6307000D01*
X29002086Y-6277000D02*
X28972086Y-6307000D01*
X28972086Y-10849000D02*
X29002086Y-10879000D01*
X29002086Y-10849000D02*
X28972086Y-10879000D01*
X28972086Y-11103000D02*
X29002086Y-11133000D01*
X29002086Y-11103000D02*
X28972086Y-11133000D01*
X28972086Y-12119000D02*
X29002086Y-12149000D01*
X29002086Y-12119000D02*
X28972086Y-12149000D01*
X28972086Y-12627000D02*
X29002086Y-12657000D01*
X29002086Y-12627000D02*
X28972086Y-12657000D01*
X29226086Y-5515000D02*
X29256086Y-5545000D01*
X29256086Y-5515000D02*
X29226086Y-5545000D01*
X29226086Y-6277000D02*
X29256086Y-6307000D01*
X29256086Y-6277000D02*
X29226086Y-6307000D01*
X29226086Y-8055000D02*
X29256086Y-8085000D01*
X29256086Y-8055000D02*
X29226086Y-8085000D01*
X29226086Y-8309000D02*
X29256086Y-8339000D01*
X29256086Y-8309000D02*
X29226086Y-8339000D01*
X29226086Y-9071000D02*
X29256086Y-9101000D01*
X29256086Y-9071000D02*
X29226086Y-9101000D01*
X29226086Y-10849000D02*
X29256086Y-10879000D01*
X29256086Y-10849000D02*
X29226086Y-10879000D01*
X29226086Y-11865000D02*
X29256086Y-11895000D01*
X29256086Y-11865000D02*
X29226086Y-11895000D01*
X29226086Y-12119000D02*
X29256086Y-12149000D01*
X29256086Y-12119000D02*
X29226086Y-12149000D01*
X29226086Y-12627000D02*
X29256086Y-12657000D01*
X29256086Y-12627000D02*
X29226086Y-12657000D01*
X29480086Y-5515000D02*
X29510086Y-5545000D01*
X29510086Y-5515000D02*
X29480086Y-5545000D01*
X29480086Y-6277000D02*
X29510086Y-6307000D01*
X29510086Y-6277000D02*
X29480086Y-6307000D01*
X29480086Y-6531000D02*
X29510086Y-6561000D01*
X29510086Y-6531000D02*
X29480086Y-6561000D01*
X29480086Y-11611000D02*
X29510086Y-11641000D01*
X29510086Y-11611000D02*
X29480086Y-11641000D01*
X29480086Y-12627000D02*
X29510086Y-12657000D01*
X29510086Y-12627000D02*
X29480086Y-12657000D01*
X29734086Y-5515000D02*
X29764086Y-5545000D01*
X29764086Y-5515000D02*
X29734086Y-5545000D01*
X29734086Y-8055000D02*
X29764086Y-8085000D01*
X29764086Y-8055000D02*
X29734086Y-8085000D01*
X29734086Y-12373000D02*
X29764086Y-12403000D01*
X29764086Y-12373000D02*
X29734086Y-12403000D01*
X29734086Y-12627000D02*
X29764086Y-12657000D01*
X29764086Y-12627000D02*
X29734086Y-12657000D01*
X29988086Y-5515000D02*
X30018086Y-5545000D01*
X30018086Y-5515000D02*
X29988086Y-5545000D01*
X29988086Y-6785000D02*
X30018086Y-6815000D01*
X30018086Y-6785000D02*
X29988086Y-6815000D01*
X29988086Y-8055000D02*
X30018086Y-8085000D01*
X30018086Y-8055000D02*
X29988086Y-8085000D01*
X29988086Y-12119000D02*
X30018086Y-12149000D01*
X30018086Y-12119000D02*
X29988086Y-12149000D01*
X29988086Y-12373000D02*
X30018086Y-12403000D01*
X30018086Y-12373000D02*
X29988086Y-12403000D01*
X29988086Y-12627000D02*
X30018086Y-12657000D01*
X30018086Y-12627000D02*
X29988086Y-12657000D01*
X30195750Y-7363000D02*
X30225750Y-7393000D01*
X30225750Y-7363000D02*
X30195750Y-7393000D01*
X30242086Y-7547000D02*
X30272086Y-7577000D01*
X30272086Y-7547000D02*
X30242086Y-7577000D01*
X30242086Y-8055000D02*
X30272086Y-8085000D01*
X30272086Y-8055000D02*
X30242086Y-8085000D01*
X30242086Y-9325000D02*
X30272086Y-9355000D01*
X30272086Y-9325000D02*
X30242086Y-9355000D01*
X30242086Y-11103000D02*
X30272086Y-11133000D01*
X30272086Y-11103000D02*
X30242086Y-11133000D01*
X30242086Y-11865000D02*
X30272086Y-11895000D01*
X30272086Y-11865000D02*
X30242086Y-11895000D01*
X30242086Y-12119000D02*
X30272086Y-12149000D01*
X30272086Y-12119000D02*
X30242086Y-12149000D01*
X30242086Y-12373000D02*
X30272086Y-12403000D01*
X30272086Y-12373000D02*
X30242086Y-12403000D01*
X30242086Y-12627000D02*
X30272086Y-12657000D01*
X30272086Y-12627000D02*
X30242086Y-12657000D01*
X30395750Y-9563000D02*
X30425750Y-9593000D01*
X30425750Y-9563000D02*
X30395750Y-9593000D01*
X30496086Y-5769000D02*
X30526086Y-5799000D01*
X30526086Y-5769000D02*
X30496086Y-5799000D01*
X30496086Y-6531000D02*
X30526086Y-6561000D01*
X30526086Y-6531000D02*
X30496086Y-6561000D01*
X30496086Y-8055000D02*
X30526086Y-8085000D01*
X30526086Y-8055000D02*
X30496086Y-8085000D01*
X30496086Y-8309000D02*
X30526086Y-8339000D01*
X30526086Y-8309000D02*
X30496086Y-8339000D01*
X30496086Y-8817000D02*
X30526086Y-8847000D01*
X30526086Y-8817000D02*
X30496086Y-8847000D01*
X30496086Y-9325000D02*
X30526086Y-9355000D01*
X30526086Y-9325000D02*
X30496086Y-9355000D01*
X30496086Y-11103000D02*
X30526086Y-11133000D01*
X30526086Y-11103000D02*
X30496086Y-11133000D01*
X30496086Y-11865000D02*
X30526086Y-11895000D01*
X30526086Y-11865000D02*
X30496086Y-11895000D01*
X30496086Y-12119000D02*
X30526086Y-12149000D01*
X30526086Y-12119000D02*
X30496086Y-12149000D01*
X30496086Y-12373000D02*
X30526086Y-12403000D01*
X30526086Y-12373000D02*
X30496086Y-12403000D01*
X30496086Y-12627000D02*
X30526086Y-12657000D01*
X30526086Y-12627000D02*
X30496086Y-12657000D01*
X30595750Y-7663000D02*
X30625750Y-7693000D01*
X30625750Y-7663000D02*
X30595750Y-7693000D01*
X30645750Y-10113000D02*
X30675750Y-10143000D01*
X30675750Y-10113000D02*
X30645750Y-10143000D01*
X30750086Y-6785000D02*
X30780086Y-6815000D01*
X30780086Y-6785000D02*
X30750086Y-6815000D01*
X30750086Y-11357000D02*
X30780086Y-11387000D01*
X30780086Y-11357000D02*
X30750086Y-11387000D01*
X30750086Y-12119000D02*
X30780086Y-12149000D01*
X30780086Y-12119000D02*
X30750086Y-12149000D01*
X30750086Y-12373000D02*
X30780086Y-12403000D01*
X30780086Y-12373000D02*
X30750086Y-12403000D01*
X30750086Y-12627000D02*
X30780086Y-12657000D01*
X30780086Y-12627000D02*
X30750086Y-12657000D01*
X30791250Y-10113000D02*
X30821250Y-10143000D01*
X30821250Y-10113000D02*
X30791250Y-10143000D01*
X30945750Y-7763000D02*
X30975750Y-7793000D01*
X30975750Y-7763000D02*
X30945750Y-7793000D01*
X31004086Y-6277000D02*
X31034086Y-6307000D01*
X31034086Y-6277000D02*
X31004086Y-6307000D01*
X31004086Y-6785000D02*
X31034086Y-6815000D01*
X31034086Y-6785000D02*
X31004086Y-6815000D01*
X31004086Y-8563000D02*
X31034086Y-8593000D01*
X31034086Y-8563000D02*
X31004086Y-8593000D01*
X31004086Y-10595000D02*
X31034086Y-10625000D01*
X31034086Y-10595000D02*
X31004086Y-10625000D01*
X31004086Y-12119000D02*
X31034086Y-12149000D01*
X31034086Y-12119000D02*
X31004086Y-12149000D01*
X31004086Y-12373000D02*
X31034086Y-12403000D01*
X31034086Y-12373000D02*
X31004086Y-12403000D01*
X31004086Y-12627000D02*
X31034086Y-12657000D01*
X31034086Y-12627000D02*
X31004086Y-12657000D01*
X31004086Y-12881000D02*
X31034086Y-12911000D01*
X31034086Y-12881000D02*
X31004086Y-12911000D01*
X31258086Y-6277000D02*
X31288086Y-6307000D01*
X31288086Y-6277000D02*
X31258086Y-6307000D01*
X31258086Y-6785000D02*
X31288086Y-6815000D01*
X31288086Y-6785000D02*
X31258086Y-6815000D01*
X31258086Y-8563000D02*
X31288086Y-8593000D01*
X31288086Y-8563000D02*
X31258086Y-8593000D01*
X31258086Y-8817000D02*
X31288086Y-8847000D01*
X31288086Y-8817000D02*
X31258086Y-8847000D01*
X31258086Y-10595000D02*
X31288086Y-10625000D01*
X31288086Y-10595000D02*
X31258086Y-10625000D01*
X31258086Y-12373000D02*
X31288086Y-12403000D01*
X31288086Y-12373000D02*
X31258086Y-12403000D01*
X31258086Y-12627000D02*
X31288086Y-12657000D01*
X31288086Y-12627000D02*
X31258086Y-12657000D01*
X31258086Y-12881000D02*
X31288086Y-12911000D01*
X31288086Y-12881000D02*
X31258086Y-12911000D01*
X31512086Y-6277000D02*
X31542086Y-6307000D01*
X31542086Y-6277000D02*
X31512086Y-6307000D01*
X31512086Y-6785000D02*
X31542086Y-6815000D01*
X31542086Y-6785000D02*
X31512086Y-6815000D01*
X31512086Y-7039000D02*
X31542086Y-7069000D01*
X31542086Y-7039000D02*
X31512086Y-7069000D01*
X31512086Y-12373000D02*
X31542086Y-12403000D01*
X31542086Y-12373000D02*
X31512086Y-12403000D01*
X31512086Y-12627000D02*
X31542086Y-12657000D01*
X31542086Y-12627000D02*
X31512086Y-12657000D01*
X31512086Y-12881000D02*
X31542086Y-12911000D01*
X31542086Y-12881000D02*
X31512086Y-12911000D01*
X31766086Y-6277000D02*
X31796086Y-6307000D01*
X31796086Y-6277000D02*
X31766086Y-6307000D01*
X31766086Y-12373000D02*
X31796086Y-12403000D01*
X31796086Y-12373000D02*
X31766086Y-12403000D01*
X31766086Y-12627000D02*
X31796086Y-12657000D01*
X31796086Y-12627000D02*
X31766086Y-12657000D01*
X31766086Y-12881000D02*
X31796086Y-12911000D01*
X31796086Y-12881000D02*
X31766086Y-12911000D01*
X31766086Y-13135000D02*
X31796086Y-13165000D01*
X31796086Y-13135000D02*
X31766086Y-13165000D01*
X32020086Y-6277000D02*
X32050086Y-6307000D01*
X32050086Y-6277000D02*
X32020086Y-6307000D01*
X32020086Y-8563000D02*
X32050086Y-8593000D01*
X32050086Y-8563000D02*
X32020086Y-8593000D01*
X32020086Y-9071000D02*
X32050086Y-9101000D01*
X32050086Y-9071000D02*
X32020086Y-9101000D01*
X32020086Y-9579000D02*
X32050086Y-9609000D01*
X32050086Y-9579000D02*
X32020086Y-9609000D01*
X32020086Y-11357000D02*
X32050086Y-11387000D01*
X32050086Y-11357000D02*
X32020086Y-11387000D01*
X32020086Y-11865000D02*
X32050086Y-11895000D01*
X32050086Y-11865000D02*
X32020086Y-11895000D01*
X32020086Y-12627000D02*
X32050086Y-12657000D01*
X32050086Y-12627000D02*
X32020086Y-12657000D01*
X32020086Y-12881000D02*
X32050086Y-12911000D01*
X32050086Y-12881000D02*
X32020086Y-12911000D01*
X32020086Y-13135000D02*
X32050086Y-13165000D01*
X32050086Y-13135000D02*
X32020086Y-13165000D01*
X32245750Y-8463000D02*
X32275750Y-8493000D01*
X32275750Y-8463000D02*
X32245750Y-8493000D01*
X32274086Y-11611000D02*
X32304086Y-11641000D01*
X32304086Y-11611000D02*
X32274086Y-11641000D01*
X32274086Y-11865000D02*
X32304086Y-11895000D01*
X32304086Y-11865000D02*
X32274086Y-11895000D01*
X32274086Y-12881000D02*
X32304086Y-12911000D01*
X32304086Y-12881000D02*
X32274086Y-12911000D01*
X32274086Y-13135000D02*
X32304086Y-13165000D01*
X32304086Y-13135000D02*
X32274086Y-13165000D01*
X32274086Y-13389000D02*
X32304086Y-13419000D01*
X32304086Y-13389000D02*
X32274086Y-13419000D01*
X32445750Y-9863000D02*
X32475750Y-9893000D01*
X32475750Y-9863000D02*
X32445750Y-9893000D01*
X32445750Y-10313000D02*
X32475750Y-10343000D01*
X32475750Y-10313000D02*
X32445750Y-10343000D01*
X32445750Y-10463000D02*
X32475750Y-10493000D01*
X32475750Y-10463000D02*
X32445750Y-10493000D01*
X32445750Y-11663000D02*
X32475750Y-11693000D01*
X32475750Y-11663000D02*
X32445750Y-11693000D01*
X32528086Y-6277000D02*
X32558086Y-6307000D01*
X32558086Y-6277000D02*
X32528086Y-6307000D01*
X32528086Y-7547000D02*
X32558086Y-7577000D01*
X32558086Y-7547000D02*
X32528086Y-7577000D01*
X32528086Y-7801000D02*
X32558086Y-7831000D01*
X32558086Y-7801000D02*
X32528086Y-7831000D01*
X32528086Y-8055000D02*
X32558086Y-8085000D01*
X32558086Y-8055000D02*
X32528086Y-8085000D01*
X32528086Y-9071000D02*
X32558086Y-9101000D01*
X32558086Y-9071000D02*
X32528086Y-9101000D01*
X32528086Y-9325000D02*
X32558086Y-9355000D01*
X32558086Y-9325000D02*
X32528086Y-9355000D01*
X32528086Y-9579000D02*
X32558086Y-9609000D01*
X32558086Y-9579000D02*
X32528086Y-9609000D01*
X32528086Y-11865000D02*
X32558086Y-11895000D01*
X32558086Y-11865000D02*
X32528086Y-11895000D01*
X32528086Y-13135000D02*
X32558086Y-13165000D01*
X32558086Y-13135000D02*
X32528086Y-13165000D01*
X32528086Y-13389000D02*
X32558086Y-13419000D01*
X32558086Y-13389000D02*
X32528086Y-13419000D01*
X32782086Y-7801000D02*
X32812086Y-7831000D01*
X32812086Y-7801000D02*
X32782086Y-7831000D01*
X32782086Y-8055000D02*
X32812086Y-8085000D01*
X32812086Y-8055000D02*
X32782086Y-8085000D01*
X32782086Y-9325000D02*
X32812086Y-9355000D01*
X32812086Y-9325000D02*
X32782086Y-9355000D01*
X32782086Y-9579000D02*
X32812086Y-9609000D01*
X32812086Y-9579000D02*
X32782086Y-9609000D01*
X32782086Y-10849000D02*
X32812086Y-10879000D01*
X32812086Y-10849000D02*
X32782086Y-10879000D01*
X32782086Y-11103000D02*
X32812086Y-11133000D01*
X32812086Y-11103000D02*
X32782086Y-11133000D01*
X32782086Y-11357000D02*
X32812086Y-11387000D01*
X32812086Y-11357000D02*
X32782086Y-11387000D01*
X32782086Y-11865000D02*
X32812086Y-11895000D01*
X32812086Y-11865000D02*
X32782086Y-11895000D01*
X32782086Y-13389000D02*
X32812086Y-13419000D01*
X32812086Y-13389000D02*
X32782086Y-13419000D01*
X32782086Y-13643000D02*
X32812086Y-13673000D01*
X32812086Y-13643000D02*
X32782086Y-13673000D01*
X33036086Y-8055000D02*
X33066086Y-8085000D01*
X33066086Y-8055000D02*
X33036086Y-8085000D01*
X33036086Y-8817000D02*
X33066086Y-8847000D01*
X33066086Y-8817000D02*
X33036086Y-8847000D01*
X33290086Y-7801000D02*
X33320086Y-7831000D01*
X33320086Y-7801000D02*
X33290086Y-7831000D01*
X33290086Y-8055000D02*
X33320086Y-8085000D01*
X33320086Y-8055000D02*
X33290086Y-8085000D01*
X33290086Y-8309000D02*
X33320086Y-8339000D01*
X33320086Y-8309000D02*
X33290086Y-8339000D01*
X33290086Y-11357000D02*
X33320086Y-11387000D01*
X33320086Y-11357000D02*
X33290086Y-11387000D01*
X33290086Y-11611000D02*
X33320086Y-11641000D01*
X33320086Y-11611000D02*
X33290086Y-11641000D01*
X33290086Y-13643000D02*
X33320086Y-13673000D01*
X33320086Y-13643000D02*
X33290086Y-13673000D01*
X33544086Y-11357000D02*
X33574086Y-11387000D01*
X33574086Y-11357000D02*
X33544086Y-11387000D01*
X33544086Y-11611000D02*
X33574086Y-11641000D01*
X33574086Y-11611000D02*
X33544086Y-11641000D01*
X33798086Y-10341000D02*
X33828086Y-10371000D01*
X33828086Y-10341000D02*
X33798086Y-10371000D01*
X33798086Y-11357000D02*
X33828086Y-11387000D01*
X33828086Y-11357000D02*
X33798086Y-11387000D01*
X33798086Y-11611000D02*
X33828086Y-11641000D01*
X33828086Y-11611000D02*
X33798086Y-11641000D01*
X33798086Y-12627000D02*
X33828086Y-12657000D01*
X33828086Y-12627000D02*
X33798086Y-12657000D01*
X33798086Y-13643000D02*
X33828086Y-13673000D01*
X33828086Y-13643000D02*
X33798086Y-13673000D01*
X34052086Y-7547000D02*
X34082086Y-7577000D01*
X34082086Y-7547000D02*
X34052086Y-7577000D01*
X34052086Y-11103000D02*
X34082086Y-11133000D01*
X34082086Y-11103000D02*
X34052086Y-11133000D01*
X34052086Y-11357000D02*
X34082086Y-11387000D01*
X34082086Y-11357000D02*
X34052086Y-11387000D01*
X34052086Y-11611000D02*
X34082086Y-11641000D01*
X34082086Y-11611000D02*
X34052086Y-11641000D01*
X34052086Y-13643000D02*
X34082086Y-13673000D01*
X34082086Y-13643000D02*
X34052086Y-13673000D01*
X34095750Y-9413000D02*
X34125750Y-9443000D01*
X34125750Y-9413000D02*
X34095750Y-9443000D01*
X34195750Y-9513000D02*
X34225750Y-9543000D01*
X34225750Y-9513000D02*
X34195750Y-9543000D01*
X34295750Y-9613000D02*
X34325750Y-9643000D01*
X34325750Y-9613000D02*
X34295750Y-9643000D01*
X34295750Y-10556000D02*
X34325750Y-10586000D01*
X34325750Y-10556000D02*
X34295750Y-10586000D01*
X34295750Y-12163000D02*
X34325750Y-12193000D01*
X34325750Y-12163000D02*
X34295750Y-12193000D01*
X34306086Y-7547000D02*
X34336086Y-7577000D01*
X34336086Y-7547000D02*
X34306086Y-7577000D01*
X34306086Y-7801000D02*
X34336086Y-7831000D01*
X34336086Y-7801000D02*
X34306086Y-7831000D01*
X34306086Y-13643000D02*
X34336086Y-13673000D01*
X34336086Y-13643000D02*
X34306086Y-13673000D01*
X34306086Y-13897000D02*
X34336086Y-13927000D01*
X34336086Y-13897000D02*
X34306086Y-13927000D01*
X34519250Y-9813000D02*
X34549250Y-9843000D01*
X34549250Y-9813000D02*
X34519250Y-9843000D01*
X34560086Y-8055000D02*
X34590086Y-8085000D01*
X34590086Y-8055000D02*
X34560086Y-8085000D01*
X34560086Y-8309000D02*
X34590086Y-8339000D01*
X34590086Y-8309000D02*
X34560086Y-8339000D01*
X34560086Y-8563000D02*
X34590086Y-8593000D01*
X34590086Y-8563000D02*
X34560086Y-8593000D01*
X34560086Y-13897000D02*
X34590086Y-13927000D01*
X34590086Y-13897000D02*
X34560086Y-13927000D01*
X34620750Y-9588000D02*
X34650750Y-9618000D01*
X34650750Y-9588000D02*
X34620750Y-9618000D01*
X34814086Y-8055000D02*
X34844086Y-8085000D01*
X34844086Y-8055000D02*
X34814086Y-8085000D01*
X34814086Y-8309000D02*
X34844086Y-8339000D01*
X34844086Y-8309000D02*
X34814086Y-8339000D01*
X34814086Y-9579000D02*
X34844086Y-9609000D01*
X34844086Y-9579000D02*
X34814086Y-9609000D01*
X34814086Y-10341000D02*
X34844086Y-10371000D01*
X34844086Y-10341000D02*
X34814086Y-10371000D01*
X35068086Y-8817000D02*
X35098086Y-8847000D01*
X35098086Y-8817000D02*
X35068086Y-8847000D01*
X35068086Y-10341000D02*
X35098086Y-10371000D01*
X35098086Y-10341000D02*
X35068086Y-10371000D01*
X35068086Y-12119000D02*
X35098086Y-12149000D01*
X35098086Y-12119000D02*
X35068086Y-12149000D01*
X35322086Y-12119000D02*
X35352086Y-12149000D01*
X35352086Y-12119000D02*
X35322086Y-12149000D01*
X35576086Y-9579000D02*
X35606086Y-9609000D01*
X35606086Y-9579000D02*
X35576086Y-9609000D01*
X35830086Y-10341000D02*
X35860086Y-10371000D01*
X35860086Y-10341000D02*
X35830086Y-10371000D01*
X35830086Y-11611000D02*
X35860086Y-11641000D01*
X35860086Y-11611000D02*
X35830086Y-11641000D01*
X35830086Y-12373000D02*
X35860086Y-12403000D01*
X35860086Y-12373000D02*
X35830086Y-12403000D01*
X35830086Y-13897000D02*
X35860086Y-13927000D01*
X35860086Y-13897000D02*
X35830086Y-13927000D01*
X35995750Y-11613000D02*
X36025750Y-11643000D01*
X36025750Y-11613000D02*
X35995750Y-11643000D01*
X36084086Y-9833000D02*
X36114086Y-9863000D01*
X36114086Y-9833000D02*
X36084086Y-9863000D01*
X36084086Y-10087000D02*
X36114086Y-10117000D01*
X36114086Y-10087000D02*
X36084086Y-10117000D01*
X36084086Y-10341000D02*
X36114086Y-10371000D01*
X36114086Y-10341000D02*
X36084086Y-10371000D01*
X36084086Y-10595000D02*
X36114086Y-10625000D01*
X36114086Y-10595000D02*
X36084086Y-10625000D01*
X36084086Y-11865000D02*
X36114086Y-11895000D01*
X36114086Y-11865000D02*
X36084086Y-11895000D01*
X36084086Y-12627000D02*
X36114086Y-12657000D01*
X36114086Y-12627000D02*
X36084086Y-12657000D01*
X36084086Y-13897000D02*
X36114086Y-13927000D01*
X36114086Y-13897000D02*
X36084086Y-13927000D01*
X36145750Y-8613000D02*
X36175750Y-8643000D01*
X36175750Y-8613000D02*
X36145750Y-8643000D01*
X36145750Y-13263000D02*
X36175750Y-13293000D01*
X36175750Y-13263000D02*
X36145750Y-13293000D01*
X36338086Y-8563000D02*
X36368086Y-8593000D01*
X36368086Y-8563000D02*
X36338086Y-8593000D01*
X36338086Y-8817000D02*
X36368086Y-8847000D01*
X36368086Y-8817000D02*
X36338086Y-8847000D01*
X36338086Y-9071000D02*
X36368086Y-9101000D01*
X36368086Y-9071000D02*
X36338086Y-9101000D01*
X36338086Y-9325000D02*
X36368086Y-9355000D01*
X36368086Y-9325000D02*
X36338086Y-9355000D01*
X36338086Y-9579000D02*
X36368086Y-9609000D01*
X36368086Y-9579000D02*
X36338086Y-9609000D01*
X36338086Y-9833000D02*
X36368086Y-9863000D01*
X36368086Y-9833000D02*
X36338086Y-9863000D01*
X36338086Y-10087000D02*
X36368086Y-10117000D01*
X36368086Y-10087000D02*
X36338086Y-10117000D01*
X36338086Y-10341000D02*
X36368086Y-10371000D01*
X36368086Y-10341000D02*
X36338086Y-10371000D01*
X36338086Y-10595000D02*
X36368086Y-10625000D01*
X36368086Y-10595000D02*
X36338086Y-10625000D01*
X36338086Y-10849000D02*
X36368086Y-10879000D01*
X36368086Y-10849000D02*
X36338086Y-10879000D01*
X36338086Y-11103000D02*
X36368086Y-11133000D01*
X36368086Y-11103000D02*
X36338086Y-11133000D01*
X36338086Y-11357000D02*
X36368086Y-11387000D01*
X36368086Y-11357000D02*
X36338086Y-11387000D01*
X36338086Y-11611000D02*
X36368086Y-11641000D01*
X36368086Y-11611000D02*
X36338086Y-11641000D01*
X36338086Y-11865000D02*
X36368086Y-11895000D01*
X36368086Y-11865000D02*
X36338086Y-11895000D01*
X36338086Y-12119000D02*
X36368086Y-12149000D01*
X36368086Y-12119000D02*
X36338086Y-12149000D01*
X36338086Y-13643000D02*
X36368086Y-13673000D01*
X36368086Y-13643000D02*
X36338086Y-13673000D01*
X36338086Y-13897000D02*
X36368086Y-13927000D01*
X36368086Y-13897000D02*
X36338086Y-13927000D01*
X5230750Y-11528000D02*
G75*
G02*
X5190750Y-11528000I-20000J0D01*
G01*
X5190750Y-11528000D02*
G75*
G02*
X5230750Y-11528000I20000J0D01*
G01*
X5930750Y-10255300D02*
G75*
G02*
X5890750Y-10255300I-20000J0D01*
G01*
X5890750Y-10255300D02*
G75*
G02*
X5930750Y-10255300I20000J0D01*
G01*
X6130750Y-13428000D02*
G75*
G02*
X6090750Y-13428000I-20000J0D01*
G01*
X6090750Y-13428000D02*
G75*
G02*
X6130750Y-13428000I20000J0D01*
G01*
X6180750Y-11828000D02*
G75*
G02*
X6140750Y-11828000I-20000J0D01*
G01*
X6140750Y-11828000D02*
G75*
G02*
X6180750Y-11828000I20000J0D01*
G01*
X7880750Y-9828000D02*
G75*
G02*
X7840750Y-9828000I-20000J0D01*
G01*
X7840750Y-9828000D02*
G75*
G02*
X7880750Y-9828000I20000J0D01*
G01*
X7930750Y-7478000D02*
G75*
G02*
X7890750Y-7478000I-20000J0D01*
G01*
X7890750Y-7478000D02*
G75*
G02*
X7930750Y-7478000I20000J0D01*
G01*
X7930750Y-11428000D02*
G75*
G02*
X7890750Y-11428000I-20000J0D01*
G01*
X7890750Y-11428000D02*
G75*
G02*
X7930750Y-11428000I20000J0D01*
G01*
X7980750Y-12978000D02*
G75*
G02*
X7940750Y-12978000I-20000J0D01*
G01*
X7940750Y-12978000D02*
G75*
G02*
X7980750Y-12978000I20000J0D01*
G01*
X8430750Y-10178000D02*
G75*
G02*
X8390750Y-10178000I-20000J0D01*
G01*
X8390750Y-10178000D02*
G75*
G02*
X8430750Y-10178000I20000J0D01*
G01*
X8430750Y-11428000D02*
G75*
G02*
X8390750Y-11428000I-20000J0D01*
G01*
X8390750Y-11428000D02*
G75*
G02*
X8430750Y-11428000I20000J0D01*
G01*
X8880750Y-11578000D02*
G75*
G02*
X8840750Y-11578000I-20000J0D01*
G01*
X8840750Y-11578000D02*
G75*
G02*
X8880750Y-11578000I20000J0D01*
G01*
X8923200Y-9720450D02*
G75*
G02*
X8883200Y-9720450I-20000J0D01*
G01*
X8883200Y-9720450D02*
G75*
G02*
X8923200Y-9720450I20000J0D01*
G01*
X9630750Y-8328000D02*
G75*
G02*
X9590750Y-8328000I-20000J0D01*
G01*
X9590750Y-8328000D02*
G75*
G02*
X9630750Y-8328000I20000J0D01*
G01*
X9680750Y-11878000D02*
G75*
G02*
X9640750Y-11878000I-20000J0D01*
G01*
X9640750Y-11878000D02*
G75*
G02*
X9680750Y-11878000I20000J0D01*
G01*
X9730750Y-10178000D02*
G75*
G02*
X9690750Y-10178000I-20000J0D01*
G01*
X9690750Y-10178000D02*
G75*
G02*
X9730750Y-10178000I20000J0D01*
G01*
X11630750Y-5828000D02*
G75*
G02*
X11590750Y-5828000I-20000J0D01*
G01*
X11590750Y-5828000D02*
G75*
G02*
X11630750Y-5828000I20000J0D01*
G01*
X11630750Y-9678000D02*
G75*
G02*
X11590750Y-9678000I-20000J0D01*
G01*
X11590750Y-9678000D02*
G75*
G02*
X11630750Y-9678000I20000J0D01*
G01*
X11730750Y-11428000D02*
G75*
G02*
X11690750Y-11428000I-20000J0D01*
G01*
X11690750Y-11428000D02*
G75*
G02*
X11730750Y-11428000I20000J0D01*
G01*
X11930750Y-7978000D02*
G75*
G02*
X11890750Y-7978000I-20000J0D01*
G01*
X11890750Y-7978000D02*
G75*
G02*
X11930750Y-7978000I20000J0D01*
G01*
X12580750Y-7878000D02*
G75*
G02*
X12540750Y-7878000I-20000J0D01*
G01*
X12540750Y-7878000D02*
G75*
G02*
X12580750Y-7878000I20000J0D01*
G01*
X12580750Y-9728000D02*
G75*
G02*
X12540750Y-9728000I-20000J0D01*
G01*
X12540750Y-9728000D02*
G75*
G02*
X12580750Y-9728000I20000J0D01*
G01*
X12634991Y-11564000D02*
G75*
G02*
X12594991Y-11564000I-20000J0D01*
G01*
X12594991Y-11564000D02*
G75*
G02*
X12634991Y-11564000I20000J0D01*
G01*
X12980750Y-8478000D02*
G75*
G02*
X12940750Y-8478000I-20000J0D01*
G01*
X12940750Y-8478000D02*
G75*
G02*
X12980750Y-8478000I20000J0D01*
G01*
X13330750Y-11878000D02*
G75*
G02*
X13290750Y-11878000I-20000J0D01*
G01*
X13290750Y-11878000D02*
G75*
G02*
X13330750Y-11878000I20000J0D01*
G01*
X13480750Y-10078000D02*
G75*
G02*
X13440750Y-10078000I-20000J0D01*
G01*
X13440750Y-10078000D02*
G75*
G02*
X13480750Y-10078000I20000J0D01*
G01*
X14430750Y-8128000D02*
G75*
G02*
X14390750Y-8128000I-20000J0D01*
G01*
X14390750Y-8128000D02*
G75*
G02*
X14430750Y-8128000I20000J0D01*
G01*
X15155750Y-10303000D02*
G75*
G02*
X15115750Y-10303000I-20000J0D01*
G01*
X15115750Y-10303000D02*
G75*
G02*
X15155750Y-10303000I20000J0D01*
G01*
X15480750Y-6578000D02*
G75*
G02*
X15440750Y-6578000I-20000J0D01*
G01*
X15440750Y-6578000D02*
G75*
G02*
X15480750Y-6578000I20000J0D01*
G01*
X15880750Y-8278000D02*
G75*
G02*
X15840750Y-8278000I-20000J0D01*
G01*
X15840750Y-8278000D02*
G75*
G02*
X15880750Y-8278000I20000J0D01*
G01*
X15980750Y-7828000D02*
G75*
G02*
X15940750Y-7828000I-20000J0D01*
G01*
X15940750Y-7828000D02*
G75*
G02*
X15980750Y-7828000I20000J0D01*
G01*
X16080750Y-14478000D02*
G75*
G02*
X16040750Y-14478000I-20000J0D01*
G01*
X16040750Y-14478000D02*
G75*
G02*
X16080750Y-14478000I20000J0D01*
G01*
X16730750Y-14378000D02*
G75*
G02*
X16690750Y-14378000I-20000J0D01*
G01*
X16690750Y-14378000D02*
G75*
G02*
X16730750Y-14378000I20000J0D01*
G01*
X16780750Y-15028000D02*
G75*
G02*
X16740750Y-15028000I-20000J0D01*
G01*
X16740750Y-15028000D02*
G75*
G02*
X16780750Y-15028000I20000J0D01*
G01*
X17330750Y-11728000D02*
G75*
G02*
X17290750Y-11728000I-20000J0D01*
G01*
X17290750Y-11728000D02*
G75*
G02*
X17330750Y-11728000I20000J0D01*
G01*
X17330750Y-12228000D02*
G75*
G02*
X17290750Y-12228000I-20000J0D01*
G01*
X17290750Y-12228000D02*
G75*
G02*
X17330750Y-12228000I20000J0D01*
G01*
X18680750Y-15828000D02*
G75*
G02*
X18640750Y-15828000I-20000J0D01*
G01*
X18640750Y-15828000D02*
G75*
G02*
X18680750Y-15828000I20000J0D01*
G01*
X22730750Y-15478000D02*
G75*
G02*
X22690750Y-15478000I-20000J0D01*
G01*
X22690750Y-15478000D02*
G75*
G02*
X22730750Y-15478000I20000J0D01*
G01*
X22830750Y-13728000D02*
G75*
G02*
X22790750Y-13728000I-20000J0D01*
G01*
X22790750Y-13728000D02*
G75*
G02*
X22830750Y-13728000I20000J0D01*
G01*
X23513893Y-11344856D02*
G75*
G02*
X23473893Y-11344856I-20000J0D01*
G01*
X23473893Y-11344856D02*
G75*
G02*
X23513893Y-11344856I20000J0D01*
G01*
X23580750Y-11828000D02*
G75*
G02*
X23540750Y-11828000I-20000J0D01*
G01*
X23540750Y-11828000D02*
G75*
G02*
X23580750Y-11828000I20000J0D01*
G01*
X24480750Y-10528000D02*
G75*
G02*
X24440750Y-10528000I-20000J0D01*
G01*
X24440750Y-10528000D02*
G75*
G02*
X24480750Y-10528000I20000J0D01*
G01*
X24580750Y-14778000D02*
G75*
G02*
X24540750Y-14778000I-20000J0D01*
G01*
X24540750Y-14778000D02*
G75*
G02*
X24580750Y-14778000I20000J0D01*
G01*
X26130750Y-10328000D02*
G75*
G02*
X26090750Y-10328000I-20000J0D01*
G01*
X26090750Y-10328000D02*
G75*
G02*
X26130750Y-10328000I20000J0D01*
G01*
X26180750Y-14628000D02*
G75*
G02*
X26140750Y-14628000I-20000J0D01*
G01*
X26140750Y-14628000D02*
G75*
G02*
X26180750Y-14628000I20000J0D01*
G01*
X26410750Y-6538000D02*
G75*
G02*
X26370750Y-6538000I-20000J0D01*
G01*
X26370750Y-6538000D02*
G75*
G02*
X26410750Y-6538000I20000J0D01*
G01*
X26455750Y-8453000D02*
G75*
G02*
X26415750Y-8453000I-20000J0D01*
G01*
X26415750Y-8453000D02*
G75*
G02*
X26455750Y-8453000I20000J0D01*
G01*
X26480750Y-12228000D02*
G75*
G02*
X26440750Y-12228000I-20000J0D01*
G01*
X26440750Y-12228000D02*
G75*
G02*
X26480750Y-12228000I20000J0D01*
G01*
X26880750Y-10028000D02*
G75*
G02*
X26840750Y-10028000I-20000J0D01*
G01*
X26840750Y-10028000D02*
G75*
G02*
X26880750Y-10028000I20000J0D01*
G01*
X27280750Y-11578000D02*
G75*
G02*
X27240750Y-11578000I-20000J0D01*
G01*
X27240750Y-11578000D02*
G75*
G02*
X27280750Y-11578000I20000J0D01*
G01*
X27330750Y-9728000D02*
G75*
G02*
X27290750Y-9728000I-20000J0D01*
G01*
X27290750Y-9728000D02*
G75*
G02*
X27330750Y-9728000I20000J0D01*
G01*
X27980750Y-10128000D02*
G75*
G02*
X27940750Y-10128000I-20000J0D01*
G01*
X27940750Y-10128000D02*
G75*
G02*
X27980750Y-10128000I20000J0D01*
G01*
X28030750Y-8278000D02*
G75*
G02*
X27990750Y-8278000I-20000J0D01*
G01*
X27990750Y-8278000D02*
G75*
G02*
X28030750Y-8278000I20000J0D01*
G01*
X28480750Y-11928000D02*
G75*
G02*
X28440750Y-11928000I-20000J0D01*
G01*
X28440750Y-11928000D02*
G75*
G02*
X28480750Y-11928000I20000J0D01*
G01*
X28690750Y-6308000D02*
G75*
G02*
X28650750Y-6308000I-20000J0D01*
G01*
X28650750Y-6308000D02*
G75*
G02*
X28690750Y-6308000I20000J0D01*
G01*
X28830750Y-7928000D02*
G75*
G02*
X28790750Y-7928000I-20000J0D01*
G01*
X28790750Y-7928000D02*
G75*
G02*
X28830750Y-7928000I20000J0D01*
G01*
X29930750Y-7778000D02*
G75*
G02*
X29890750Y-7778000I-20000J0D01*
G01*
X29890750Y-7778000D02*
G75*
G02*
X29930750Y-7778000I20000J0D01*
G01*
X29930750Y-9678000D02*
G75*
G02*
X29890750Y-9678000I-20000J0D01*
G01*
X29890750Y-9678000D02*
G75*
G02*
X29930750Y-9678000I20000J0D01*
G01*
X30130750Y-11428000D02*
G75*
G02*
X30090750Y-11428000I-20000J0D01*
G01*
X30090750Y-11428000D02*
G75*
G02*
X30130750Y-11428000I20000J0D01*
G01*
X30340750Y-5958000D02*
G75*
G02*
X30300750Y-5958000I-20000J0D01*
G01*
X30300750Y-5958000D02*
G75*
G02*
X30340750Y-5958000I20000J0D01*
G01*
X31080750Y-9728000D02*
G75*
G02*
X31040750Y-9728000I-20000J0D01*
G01*
X31040750Y-9728000D02*
G75*
G02*
X31080750Y-9728000I20000J0D01*
G01*
X31080750Y-11578000D02*
G75*
G02*
X31040750Y-11578000I-20000J0D01*
G01*
X31040750Y-11578000D02*
G75*
G02*
X31080750Y-11578000I20000J0D01*
G01*
X31780750Y-8278000D02*
G75*
G02*
X31740750Y-8278000I-20000J0D01*
G01*
X31740750Y-8278000D02*
G75*
G02*
X31780750Y-8278000I20000J0D01*
G01*
X31780750Y-11928000D02*
G75*
G02*
X31740750Y-11928000I-20000J0D01*
G01*
X31740750Y-11928000D02*
G75*
G02*
X31780750Y-11928000I20000J0D01*
G01*
X31830750Y-10178000D02*
G75*
G02*
X31790750Y-10178000I-20000J0D01*
G01*
X31790750Y-10178000D02*
G75*
G02*
X31830750Y-10178000I20000J0D01*
G01*
X32980750Y-12678000D02*
G75*
G02*
X32940750Y-12678000I-20000J0D01*
G01*
X32940750Y-12678000D02*
G75*
G02*
X32980750Y-12678000I20000J0D01*
G01*
X33680750Y-9728000D02*
G75*
G02*
X33640750Y-9728000I-20000J0D01*
G01*
X33640750Y-9728000D02*
G75*
G02*
X33680750Y-9728000I20000J0D01*
G01*
X33820750Y-7528000D02*
G75*
G02*
X33780750Y-7528000I-20000J0D01*
G01*
X33780750Y-7528000D02*
G75*
G02*
X33820750Y-7528000I20000J0D01*
G01*
X33880750Y-11128000D02*
G75*
G02*
X33840750Y-11128000I-20000J0D01*
G01*
X33840750Y-11128000D02*
G75*
G02*
X33880750Y-11128000I20000J0D01*
G01*
X34180750Y-13178000D02*
G75*
G02*
X34140750Y-13178000I-20000J0D01*
G01*
X34140750Y-13178000D02*
G75*
G02*
X34180750Y-13178000I20000J0D01*
G01*
X34780750Y-11678000D02*
G75*
G02*
X34740750Y-11678000I-20000J0D01*
G01*
X34740750Y-11678000D02*
G75*
G02*
X34780750Y-11678000I20000J0D01*
G01*
X34780750Y-13528000D02*
G75*
G02*
X34740750Y-13528000I-20000J0D01*
G01*
X34740750Y-13528000D02*
G75*
G02*
X34780750Y-13528000I20000J0D01*
G01*
X35530750Y-11978000D02*
G75*
G02*
X35490750Y-11978000I-20000J0D01*
G01*
X35490750Y-11978000D02*
G75*
G02*
X35530750Y-11978000I20000J0D01*
G01*
X35730750Y-9978000D02*
G75*
G02*
X35690750Y-9978000I-20000J0D01*
G01*
X35690750Y-9978000D02*
G75*
G02*
X35730750Y-9978000I20000J0D01*
G01*
X35730750Y-13678000D02*
G75*
G02*
X35690750Y-13678000I-20000J0D01*
G01*
X35690750Y-13678000D02*
G75*
G02*
X35730750Y-13678000I20000J0D01*
G01*
X16135590Y-7478510D02*
X16135590Y-7559790D01*
X16094950Y-7519150D02*
X16176230Y-7519150D01*
X16135590Y-7732510D02*
X16135590Y-7813790D01*
X16094950Y-7773150D02*
X16176230Y-7773150D01*
X16135590Y-7986510D02*
X16135590Y-8067790D01*
X16094950Y-8027150D02*
X16176230Y-8027150D01*
X16135590Y-8240510D02*
X16135590Y-8321790D01*
X16094950Y-8281150D02*
X16176230Y-8281150D01*
X16135590Y-8494510D02*
X16135590Y-8575790D01*
X16094950Y-8535150D02*
X16176230Y-8535150D01*
X16135590Y-8748510D02*
X16135590Y-8829790D01*
X16094950Y-8789150D02*
X16176230Y-8789150D01*
X16135590Y-9002510D02*
X16135590Y-9083790D01*
X16094950Y-9043150D02*
X16176230Y-9043150D01*
X16135590Y-9256510D02*
X16135590Y-9337790D01*
X16094950Y-9297150D02*
X16176230Y-9297150D01*
X16135590Y-9510510D02*
X16135590Y-9591790D01*
X16094950Y-9551150D02*
X16176230Y-9551150D01*
X16135590Y-9764510D02*
X16135590Y-9845790D01*
X16094950Y-9805150D02*
X16176230Y-9805150D01*
X16135590Y-10018510D02*
X16135590Y-10099790D01*
X16094950Y-10059150D02*
X16176230Y-10059150D01*
X16135590Y-10272510D02*
X16135590Y-10353790D01*
X16094950Y-10313150D02*
X16176230Y-10313150D01*
X17657590Y-7478510D02*
X17657590Y-7559790D01*
X17616950Y-7519150D02*
X17698230Y-7519150D01*
X17657590Y-7732510D02*
X17657590Y-7813790D01*
X17616950Y-7773150D02*
X17698230Y-7773150D01*
X17657590Y-7986510D02*
X17657590Y-8067790D01*
X17616950Y-8027150D02*
X17698230Y-8027150D01*
X17657590Y-8240510D02*
X17657590Y-8321790D01*
X17616950Y-8281150D02*
X17698230Y-8281150D01*
X17657590Y-8494510D02*
X17657590Y-8575790D01*
X17616950Y-8535150D02*
X17698230Y-8535150D01*
X17657590Y-8748510D02*
X17657590Y-8829790D01*
X17616950Y-8789150D02*
X17698230Y-8789150D01*
X17657590Y-9002510D02*
X17657590Y-9083790D01*
X17616950Y-9043150D02*
X17698230Y-9043150D01*
X17657590Y-9256510D02*
X17657590Y-9337790D01*
X17616950Y-9297150D02*
X17698230Y-9297150D01*
X17657590Y-9510510D02*
X17657590Y-9591790D01*
X17616950Y-9551150D02*
X17698230Y-9551150D01*
X17657590Y-9764510D02*
X17657590Y-9845790D01*
X17616950Y-9805150D02*
X17698230Y-9805150D01*
X17657590Y-10018510D02*
X17657590Y-10099790D01*
X17616950Y-10059150D02*
X17698230Y-10059150D01*
X17657590Y-10272510D02*
X17657590Y-10353790D01*
X17616950Y-10313150D02*
X17698230Y-10313150D01*
X23199190Y-7476060D02*
X23199190Y-7557340D01*
X23158550Y-7516700D02*
X23239830Y-7516700D01*
X23199190Y-7730060D02*
X23199190Y-7811340D01*
X23158550Y-7770700D02*
X23239830Y-7770700D01*
X23199190Y-7984060D02*
X23199190Y-8065340D01*
X23158550Y-8024700D02*
X23239830Y-8024700D01*
X23199190Y-8238060D02*
X23199190Y-8319340D01*
X23158550Y-8278700D02*
X23239830Y-8278700D01*
X23199190Y-8492060D02*
X23199190Y-8573340D01*
X23158550Y-8532700D02*
X23239830Y-8532700D01*
X23199190Y-8746060D02*
X23199190Y-8827340D01*
X23158550Y-8786700D02*
X23239830Y-8786700D01*
X23199190Y-9000060D02*
X23199190Y-9081340D01*
X23158550Y-9040700D02*
X23239830Y-9040700D01*
X23199190Y-9254060D02*
X23199190Y-9335340D01*
X23158550Y-9294700D02*
X23239830Y-9294700D01*
X23199190Y-9508060D02*
X23199190Y-9589340D01*
X23158550Y-9548700D02*
X23239830Y-9548700D01*
X23199190Y-9762060D02*
X23199190Y-9843340D01*
X23158550Y-9802700D02*
X23239830Y-9802700D01*
X23199190Y-10016060D02*
X23199190Y-10097340D01*
X23158550Y-10056700D02*
X23239830Y-10056700D01*
X23199190Y-10270060D02*
X23199190Y-10351340D01*
X23158550Y-10310700D02*
X23239830Y-10310700D01*
X24721190Y-7476060D02*
X24721190Y-7557340D01*
X24680550Y-7516700D02*
X24761830Y-7516700D01*
X24721190Y-7730060D02*
X24721190Y-7811340D01*
X24680550Y-7770700D02*
X24761830Y-7770700D01*
X24721190Y-7984060D02*
X24721190Y-8065340D01*
X24680550Y-8024700D02*
X24761830Y-8024700D01*
X24721190Y-8238060D02*
X24721190Y-8319340D01*
X24680550Y-8278700D02*
X24761830Y-8278700D01*
X24721190Y-8492060D02*
X24721190Y-8573340D01*
X24680550Y-8532700D02*
X24761830Y-8532700D01*
X24721190Y-8746060D02*
X24721190Y-8827340D01*
X24680550Y-8786700D02*
X24761830Y-8786700D01*
X24721190Y-9000060D02*
X24721190Y-9081340D01*
X24680550Y-9040700D02*
X24761830Y-9040700D01*
X24721190Y-9254060D02*
X24721190Y-9335340D01*
X24680550Y-9294700D02*
X24761830Y-9294700D01*
X24721190Y-9508060D02*
X24721190Y-9589340D01*
X24680550Y-9548700D02*
X24761830Y-9548700D01*
X24721190Y-9762060D02*
X24721190Y-9843340D01*
X24680550Y-9802700D02*
X24761830Y-9802700D01*
X24721190Y-10016060D02*
X24721190Y-10097340D01*
X24680550Y-10056700D02*
X24761830Y-10056700D01*
X24721190Y-10270060D02*
X24721190Y-10351340D01*
X24680550Y-10310700D02*
X24761830Y-10310700D01*
X16538106Y-11063356D02*
X16538106Y-10992644D01*
X16467394Y-10992644D01*
X16467394Y-11063356D01*
X16538106Y-11063356D01*
X16684006Y-11579506D02*
X16684006Y-11508794D01*
X16613294Y-11508794D01*
X16613294Y-11579506D01*
X16684006Y-11579506D01*
X16673650Y-11494150D02*
X16623650Y-11494150D01*
X16623650Y-11594150D02*
G75*
G02*
X16623650Y-11494150I0J50000D01*
G01*
X16623650Y-11594150D02*
X16673650Y-11594150D01*
X16673650Y-11594150D02*
G75*
G03*
X16673650Y-11494150I0J50000D01*
G01*
X16792106Y-11063356D02*
X16792106Y-10992644D01*
X16721394Y-10992644D01*
X16721394Y-11063356D01*
X16792106Y-11063356D01*
X16834006Y-11999506D02*
X16834006Y-11928794D01*
X16763294Y-11928794D01*
X16763294Y-11999506D01*
X16834006Y-11999506D01*
X16823650Y-11914150D02*
X16773650Y-11914150D01*
X16773650Y-12014150D02*
G75*
G02*
X16773650Y-11914150I0J50000D01*
G01*
X16773650Y-12014150D02*
X16823650Y-12014150D01*
X16823650Y-12014150D02*
G75*
G03*
X16823650Y-11914150I0J50000D01*
G01*
X17046106Y-11063356D02*
X17046106Y-10992644D01*
X16975394Y-10992644D01*
X16975394Y-11063356D01*
X17046106Y-11063356D01*
X17234006Y-11999506D02*
X17234006Y-11928794D01*
X17163294Y-11928794D01*
X17163294Y-11999506D01*
X17234006Y-11999506D01*
X17223650Y-11914150D02*
X17173650Y-11914150D01*
X17173650Y-12014150D02*
G75*
G02*
X17173650Y-11914150I0J50000D01*
G01*
X17173650Y-12014150D02*
X17223650Y-12014150D01*
X17223650Y-12014150D02*
G75*
G03*
X17223650Y-11914150I0J50000D01*
G01*
X17300106Y-11063356D02*
X17300106Y-10992644D01*
X17229394Y-10992644D01*
X17229394Y-11063356D01*
X17300106Y-11063356D01*
X17534006Y-11999506D02*
X17534006Y-11928794D01*
X17463294Y-11928794D01*
X17463294Y-11999506D01*
X17534006Y-11999506D01*
X17523650Y-11914150D02*
X17473650Y-11914150D01*
X17473650Y-12014150D02*
G75*
G02*
X17473650Y-11914150I0J50000D01*
G01*
X17473650Y-12014150D02*
X17523650Y-12014150D01*
X17523650Y-12014150D02*
G75*
G03*
X17523650Y-11914150I0J50000D01*
G01*
X23380406Y-11577856D02*
X23380406Y-11507144D01*
X23309694Y-11507144D01*
X23309694Y-11577856D01*
X23380406Y-11577856D01*
X23320050Y-11592500D02*
X23370050Y-11592500D01*
X23370050Y-11492500D02*
G75*
G02*
X23370050Y-11592500I0J-50000D01*
G01*
X23370050Y-11492500D02*
X23320050Y-11492500D01*
X23320050Y-11492500D02*
G75*
G03*
X23320050Y-11592500I0J-50000D01*
G01*
X23615106Y-11063356D02*
X23615106Y-10992644D01*
X23544394Y-10992644D01*
X23544394Y-11063356D01*
X23615106Y-11063356D01*
X23680406Y-11577856D02*
X23680406Y-11507144D01*
X23609694Y-11507144D01*
X23609694Y-11577856D01*
X23680406Y-11577856D01*
X23620050Y-11592500D02*
X23670050Y-11592500D01*
X23670050Y-11492500D02*
G75*
G02*
X23670050Y-11592500I0J-50000D01*
G01*
X23670050Y-11492500D02*
X23620050Y-11492500D01*
X23620050Y-11492500D02*
G75*
G03*
X23620050Y-11592500I0J-50000D01*
G01*
X23869106Y-11063356D02*
X23869106Y-10992644D01*
X23798394Y-10992644D01*
X23798394Y-11063356D01*
X23869106Y-11063356D01*
X24080406Y-11577856D02*
X24080406Y-11507144D01*
X24009694Y-11507144D01*
X24009694Y-11577856D01*
X24080406Y-11577856D01*
X24020050Y-11592500D02*
X24070050Y-11592500D01*
X24070050Y-11492500D02*
G75*
G02*
X24070050Y-11592500I0J-50000D01*
G01*
X24070050Y-11492500D02*
X24020050Y-11492500D01*
X24020050Y-11492500D02*
G75*
G03*
X24020050Y-11592500I0J-50000D01*
G01*
X24123106Y-11063356D02*
X24123106Y-10992644D01*
X24052394Y-10992644D01*
X24052394Y-11063356D01*
X24123106Y-11063356D01*
X24230406Y-11997856D02*
X24230406Y-11927144D01*
X24159694Y-11927144D01*
X24159694Y-11997856D01*
X24230406Y-11997856D01*
X24170050Y-12012500D02*
X24220050Y-12012500D01*
X24220050Y-11912500D02*
G75*
G02*
X24220050Y-12012500I0J-50000D01*
G01*
X24220050Y-11912500D02*
X24170050Y-11912500D01*
X24170050Y-11912500D02*
G75*
G03*
X24170050Y-12012500I0J-50000D01*
G01*
X24377106Y-11063356D02*
X24377106Y-10992644D01*
X24306394Y-10992644D01*
X24306394Y-11063356D01*
X24377106Y-11063356D01*
D12*
X17657650Y-10718050D02*
X17722650Y-10653050D01*
X17657650Y-10588050D01*
X17592650Y-10653050D01*
X17657650Y-10718050D01*
X17657650Y-11368050D02*
X17722650Y-11303050D01*
X17657650Y-11238050D01*
X17592650Y-11303050D01*
X17657650Y-11368050D01*
X23191750Y-10717700D02*
X23256750Y-10652700D01*
X23191750Y-10587700D01*
X23126750Y-10652700D01*
X23191750Y-10717700D01*
X23191750Y-11367700D02*
X23256750Y-11302700D01*
X23191750Y-11237700D01*
X23126750Y-11302700D01*
X23191750Y-11367700D01*
D10*
X4611527Y-17629484D02*
X4611527Y-17429484D01*
X4611527Y-17429484D02*
X4659146Y-17429484D01*
X4659146Y-17429484D02*
X4687717Y-17439008D01*
X4687717Y-17439008D02*
X4706765Y-17458055D01*
X4706765Y-17458055D02*
X4716288Y-17477103D01*
X4716288Y-17477103D02*
X4725812Y-17515198D01*
X4725812Y-17515198D02*
X4725812Y-17543770D01*
X4725812Y-17543770D02*
X4716288Y-17581865D01*
X4716288Y-17581865D02*
X4706765Y-17600913D01*
X4706765Y-17600913D02*
X4687717Y-17619960D01*
X4687717Y-17619960D02*
X4659146Y-17629484D01*
X4659146Y-17629484D02*
X4611527Y-17629484D01*
X4811527Y-17629484D02*
X4811527Y-17496151D01*
X4811527Y-17534246D02*
X4821050Y-17515198D01*
X4821050Y-17515198D02*
X4830574Y-17505674D01*
X4830574Y-17505674D02*
X4849622Y-17496151D01*
X4849622Y-17496151D02*
X4868669Y-17496151D01*
X4935336Y-17629484D02*
X4935336Y-17496151D01*
X4935336Y-17429484D02*
X4925812Y-17439008D01*
X4925812Y-17439008D02*
X4935336Y-17448532D01*
X4935336Y-17448532D02*
X4944860Y-17439008D01*
X4944860Y-17439008D02*
X4935336Y-17429484D01*
X4935336Y-17429484D02*
X4935336Y-17448532D01*
X5059146Y-17629484D02*
X5040098Y-17619960D01*
X5040098Y-17619960D02*
X5030574Y-17600913D01*
X5030574Y-17600913D02*
X5030574Y-17429484D01*
X5163907Y-17629484D02*
X5144860Y-17619960D01*
X5144860Y-17619960D02*
X5135336Y-17600913D01*
X5135336Y-17600913D02*
X5135336Y-17429484D01*
X5392479Y-17629484D02*
X5392479Y-17429484D01*
X5392479Y-17429484D02*
X5459146Y-17572341D01*
X5459146Y-17572341D02*
X5525812Y-17429484D01*
X5525812Y-17429484D02*
X5525812Y-17629484D01*
X5706765Y-17629484D02*
X5706765Y-17524722D01*
X5706765Y-17524722D02*
X5697241Y-17505674D01*
X5697241Y-17505674D02*
X5678193Y-17496151D01*
X5678193Y-17496151D02*
X5640098Y-17496151D01*
X5640098Y-17496151D02*
X5621050Y-17505674D01*
X5706765Y-17619960D02*
X5687717Y-17629484D01*
X5687717Y-17629484D02*
X5640098Y-17629484D01*
X5640098Y-17629484D02*
X5621050Y-17619960D01*
X5621050Y-17619960D02*
X5611526Y-17600913D01*
X5611526Y-17600913D02*
X5611526Y-17581865D01*
X5611526Y-17581865D02*
X5621050Y-17562817D01*
X5621050Y-17562817D02*
X5640098Y-17553294D01*
X5640098Y-17553294D02*
X5687717Y-17553294D01*
X5687717Y-17553294D02*
X5706765Y-17543770D01*
X5802003Y-17496151D02*
X5802003Y-17696151D01*
X5802003Y-17505674D02*
X5821050Y-17496151D01*
X5821050Y-17496151D02*
X5859146Y-17496151D01*
X5859146Y-17496151D02*
X5878193Y-17505674D01*
X5878193Y-17505674D02*
X5887717Y-17515198D01*
X5887717Y-17515198D02*
X5897241Y-17534246D01*
X5897241Y-17534246D02*
X5897241Y-17591389D01*
X5897241Y-17591389D02*
X5887717Y-17610436D01*
X5887717Y-17610436D02*
X5878193Y-17619960D01*
X5878193Y-17619960D02*
X5859146Y-17629484D01*
X5859146Y-17629484D02*
X5821050Y-17629484D01*
X5821050Y-17629484D02*
X5802003Y-17619960D01*
X5982955Y-17610436D02*
X5992479Y-17619960D01*
X5992479Y-17619960D02*
X5982955Y-17629484D01*
X5982955Y-17629484D02*
X5973431Y-17619960D01*
X5973431Y-17619960D02*
X5982955Y-17610436D01*
X5982955Y-17610436D02*
X5982955Y-17629484D01*
X5982955Y-17505674D02*
X5992479Y-17515198D01*
X5992479Y-17515198D02*
X5982955Y-17524722D01*
X5982955Y-17524722D02*
X5973431Y-17515198D01*
X5973431Y-17515198D02*
X5982955Y-17505674D01*
X5982955Y-17505674D02*
X5982955Y-17524722D01*
D11*
X4320750Y-17943000D02*
X4350750Y-17973000D01*
X4350750Y-17943000D02*
X4320750Y-17973000D01*
D10*
X4649622Y-17849484D02*
X4668669Y-17849484D01*
X4668669Y-17849484D02*
X4687717Y-17859008D01*
X4687717Y-17859008D02*
X4697241Y-17868532D01*
X4697241Y-17868532D02*
X4706765Y-17887579D01*
X4706765Y-17887579D02*
X4716288Y-17925674D01*
X4716288Y-17925674D02*
X4716288Y-17973294D01*
X4716288Y-17973294D02*
X4706765Y-18011389D01*
X4706765Y-18011389D02*
X4697241Y-18030436D01*
X4697241Y-18030436D02*
X4687717Y-18039960D01*
X4687717Y-18039960D02*
X4668669Y-18049484D01*
X4668669Y-18049484D02*
X4649622Y-18049484D01*
X4649622Y-18049484D02*
X4630574Y-18039960D01*
X4630574Y-18039960D02*
X4621050Y-18030436D01*
X4621050Y-18030436D02*
X4611527Y-18011389D01*
X4611527Y-18011389D02*
X4602003Y-17973294D01*
X4602003Y-17973294D02*
X4602003Y-17925674D01*
X4602003Y-17925674D02*
X4611527Y-17887579D01*
X4611527Y-17887579D02*
X4621050Y-17868532D01*
X4621050Y-17868532D02*
X4630574Y-17859008D01*
X4630574Y-17859008D02*
X4649622Y-17849484D01*
X4802003Y-18030436D02*
X4811527Y-18039960D01*
X4811527Y-18039960D02*
X4802003Y-18049484D01*
X4802003Y-18049484D02*
X4792479Y-18039960D01*
X4792479Y-18039960D02*
X4802003Y-18030436D01*
X4802003Y-18030436D02*
X4802003Y-18049484D01*
X4878193Y-17849484D02*
X5002003Y-17849484D01*
X5002003Y-17849484D02*
X4935336Y-17925674D01*
X4935336Y-17925674D02*
X4963908Y-17925674D01*
X4963908Y-17925674D02*
X4982955Y-17935198D01*
X4982955Y-17935198D02*
X4992479Y-17944722D01*
X4992479Y-17944722D02*
X5002003Y-17963770D01*
X5002003Y-17963770D02*
X5002003Y-18011389D01*
X5002003Y-18011389D02*
X4992479Y-18030436D01*
X4992479Y-18030436D02*
X4982955Y-18039960D01*
X4982955Y-18039960D02*
X4963908Y-18049484D01*
X4963908Y-18049484D02*
X4906765Y-18049484D01*
X4906765Y-18049484D02*
X4887717Y-18039960D01*
X4887717Y-18039960D02*
X4878193Y-18030436D01*
X5125812Y-17849484D02*
X5144860Y-17849484D01*
X5144860Y-17849484D02*
X5163908Y-17859008D01*
X5163908Y-17859008D02*
X5173431Y-17868532D01*
X5173431Y-17868532D02*
X5182955Y-17887579D01*
X5182955Y-17887579D02*
X5192479Y-17925674D01*
X5192479Y-17925674D02*
X5192479Y-17973294D01*
X5192479Y-17973294D02*
X5182955Y-18011389D01*
X5182955Y-18011389D02*
X5173431Y-18030436D01*
X5173431Y-18030436D02*
X5163908Y-18039960D01*
X5163908Y-18039960D02*
X5144860Y-18049484D01*
X5144860Y-18049484D02*
X5125812Y-18049484D01*
X5125812Y-18049484D02*
X5106765Y-18039960D01*
X5106765Y-18039960D02*
X5097241Y-18030436D01*
X5097241Y-18030436D02*
X5087717Y-18011389D01*
X5087717Y-18011389D02*
X5078193Y-17973294D01*
X5078193Y-17973294D02*
X5078193Y-17925674D01*
X5078193Y-17925674D02*
X5087717Y-17887579D01*
X5087717Y-17887579D02*
X5097241Y-17868532D01*
X5097241Y-17868532D02*
X5106765Y-17859008D01*
X5106765Y-17859008D02*
X5125812Y-17849484D01*
X5316288Y-17849484D02*
X5335336Y-17849484D01*
X5335336Y-17849484D02*
X5354384Y-17859008D01*
X5354384Y-17859008D02*
X5363908Y-17868532D01*
X5363908Y-17868532D02*
X5373431Y-17887579D01*
X5373431Y-17887579D02*
X5382955Y-17925674D01*
X5382955Y-17925674D02*
X5382955Y-17973294D01*
X5382955Y-17973294D02*
X5373431Y-18011389D01*
X5373431Y-18011389D02*
X5363908Y-18030436D01*
X5363908Y-18030436D02*
X5354384Y-18039960D01*
X5354384Y-18039960D02*
X5335336Y-18049484D01*
X5335336Y-18049484D02*
X5316288Y-18049484D01*
X5316288Y-18049484D02*
X5297241Y-18039960D01*
X5297241Y-18039960D02*
X5287717Y-18030436D01*
X5287717Y-18030436D02*
X5278193Y-18011389D01*
X5278193Y-18011389D02*
X5268669Y-17973294D01*
X5268669Y-17973294D02*
X5268669Y-17925674D01*
X5268669Y-17925674D02*
X5278193Y-17887579D01*
X5278193Y-17887579D02*
X5287717Y-17868532D01*
X5287717Y-17868532D02*
X5297241Y-17859008D01*
X5297241Y-17859008D02*
X5316288Y-17849484D01*
X5468669Y-18049484D02*
X5468669Y-17916151D01*
X5468669Y-17935198D02*
X5478193Y-17925674D01*
X5478193Y-17925674D02*
X5497241Y-17916151D01*
X5497241Y-17916151D02*
X5525812Y-17916151D01*
X5525812Y-17916151D02*
X5544860Y-17925674D01*
X5544860Y-17925674D02*
X5554384Y-17944722D01*
X5554384Y-17944722D02*
X5554384Y-18049484D01*
X5554384Y-17944722D02*
X5563908Y-17925674D01*
X5563908Y-17925674D02*
X5582955Y-17916151D01*
X5582955Y-17916151D02*
X5611526Y-17916151D01*
X5611526Y-17916151D02*
X5630574Y-17925674D01*
X5630574Y-17925674D02*
X5640098Y-17944722D01*
X5640098Y-17944722D02*
X5640098Y-18049484D01*
X5735336Y-18049484D02*
X5735336Y-17916151D01*
X5735336Y-17935198D02*
X5744860Y-17925674D01*
X5744860Y-17925674D02*
X5763907Y-17916151D01*
X5763907Y-17916151D02*
X5792479Y-17916151D01*
X5792479Y-17916151D02*
X5811527Y-17925674D01*
X5811527Y-17925674D02*
X5821050Y-17944722D01*
X5821050Y-17944722D02*
X5821050Y-18049484D01*
X5821050Y-17944722D02*
X5830574Y-17925674D01*
X5830574Y-17925674D02*
X5849622Y-17916151D01*
X5849622Y-17916151D02*
X5878193Y-17916151D01*
X5878193Y-17916151D02*
X5897241Y-17925674D01*
X5897241Y-17925674D02*
X5906765Y-17944722D01*
X5906765Y-17944722D02*
X5906765Y-18049484D01*
X6297241Y-17839960D02*
X6125812Y-18097103D01*
X6554384Y-17849484D02*
X6573431Y-17849484D01*
X6573431Y-17849484D02*
X6592479Y-17859008D01*
X6592479Y-17859008D02*
X6602003Y-17868532D01*
X6602003Y-17868532D02*
X6611527Y-17887579D01*
X6611527Y-17887579D02*
X6621050Y-17925674D01*
X6621050Y-17925674D02*
X6621050Y-17973294D01*
X6621050Y-17973294D02*
X6611527Y-18011389D01*
X6611527Y-18011389D02*
X6602003Y-18030436D01*
X6602003Y-18030436D02*
X6592479Y-18039960D01*
X6592479Y-18039960D02*
X6573431Y-18049484D01*
X6573431Y-18049484D02*
X6554384Y-18049484D01*
X6554384Y-18049484D02*
X6535336Y-18039960D01*
X6535336Y-18039960D02*
X6525812Y-18030436D01*
X6525812Y-18030436D02*
X6516289Y-18011389D01*
X6516289Y-18011389D02*
X6506765Y-17973294D01*
X6506765Y-17973294D02*
X6506765Y-17925674D01*
X6506765Y-17925674D02*
X6516289Y-17887579D01*
X6516289Y-17887579D02*
X6525812Y-17868532D01*
X6525812Y-17868532D02*
X6535336Y-17859008D01*
X6535336Y-17859008D02*
X6554384Y-17849484D01*
X6706765Y-18030436D02*
X6716289Y-18039960D01*
X6716289Y-18039960D02*
X6706765Y-18049484D01*
X6706765Y-18049484D02*
X6697241Y-18039960D01*
X6697241Y-18039960D02*
X6706765Y-18030436D01*
X6706765Y-18030436D02*
X6706765Y-18049484D01*
X6840098Y-17849484D02*
X6859146Y-17849484D01*
X6859146Y-17849484D02*
X6878193Y-17859008D01*
X6878193Y-17859008D02*
X6887717Y-17868532D01*
X6887717Y-17868532D02*
X6897241Y-17887579D01*
X6897241Y-17887579D02*
X6906765Y-17925674D01*
X6906765Y-17925674D02*
X6906765Y-17973294D01*
X6906765Y-17973294D02*
X6897241Y-18011389D01*
X6897241Y-18011389D02*
X6887717Y-18030436D01*
X6887717Y-18030436D02*
X6878193Y-18039960D01*
X6878193Y-18039960D02*
X6859146Y-18049484D01*
X6859146Y-18049484D02*
X6840098Y-18049484D01*
X6840098Y-18049484D02*
X6821050Y-18039960D01*
X6821050Y-18039960D02*
X6811527Y-18030436D01*
X6811527Y-18030436D02*
X6802003Y-18011389D01*
X6802003Y-18011389D02*
X6792479Y-17973294D01*
X6792479Y-17973294D02*
X6792479Y-17925674D01*
X6792479Y-17925674D02*
X6802003Y-17887579D01*
X6802003Y-17887579D02*
X6811527Y-17868532D01*
X6811527Y-17868532D02*
X6821050Y-17859008D01*
X6821050Y-17859008D02*
X6840098Y-17849484D01*
X7097241Y-18049484D02*
X6982955Y-18049484D01*
X7040098Y-18049484D02*
X7040098Y-17849484D01*
X7040098Y-17849484D02*
X7021050Y-17878055D01*
X7021050Y-17878055D02*
X7002003Y-17897103D01*
X7002003Y-17897103D02*
X6982955Y-17906627D01*
X7287717Y-18049484D02*
X7173431Y-18049484D01*
X7230574Y-18049484D02*
X7230574Y-17849484D01*
X7230574Y-17849484D02*
X7211527Y-17878055D01*
X7211527Y-17878055D02*
X7192479Y-17897103D01*
X7192479Y-17897103D02*
X7173431Y-17906627D01*
X7402003Y-17935198D02*
X7382955Y-17925674D01*
X7382955Y-17925674D02*
X7373431Y-17916151D01*
X7373431Y-17916151D02*
X7363908Y-17897103D01*
X7363908Y-17897103D02*
X7363908Y-17887579D01*
X7363908Y-17887579D02*
X7373431Y-17868532D01*
X7373431Y-17868532D02*
X7382955Y-17859008D01*
X7382955Y-17859008D02*
X7402003Y-17849484D01*
X7402003Y-17849484D02*
X7440098Y-17849484D01*
X7440098Y-17849484D02*
X7459146Y-17859008D01*
X7459146Y-17859008D02*
X7468670Y-17868532D01*
X7468670Y-17868532D02*
X7478193Y-17887579D01*
X7478193Y-17887579D02*
X7478193Y-17897103D01*
X7478193Y-17897103D02*
X7468670Y-17916151D01*
X7468670Y-17916151D02*
X7459146Y-17925674D01*
X7459146Y-17925674D02*
X7440098Y-17935198D01*
X7440098Y-17935198D02*
X7402003Y-17935198D01*
X7402003Y-17935198D02*
X7382955Y-17944722D01*
X7382955Y-17944722D02*
X7373431Y-17954246D01*
X7373431Y-17954246D02*
X7363908Y-17973294D01*
X7363908Y-17973294D02*
X7363908Y-18011389D01*
X7363908Y-18011389D02*
X7373431Y-18030436D01*
X7373431Y-18030436D02*
X7382955Y-18039960D01*
X7382955Y-18039960D02*
X7402003Y-18049484D01*
X7402003Y-18049484D02*
X7440098Y-18049484D01*
X7440098Y-18049484D02*
X7459146Y-18039960D01*
X7459146Y-18039960D02*
X7468670Y-18030436D01*
X7468670Y-18030436D02*
X7478193Y-18011389D01*
X7478193Y-18011389D02*
X7478193Y-17973294D01*
X7478193Y-17973294D02*
X7468670Y-17954246D01*
X7468670Y-17954246D02*
X7459146Y-17944722D01*
X7459146Y-17944722D02*
X7440098Y-17935198D01*
X7554384Y-17849484D02*
X7554384Y-17887579D01*
X7630574Y-17849484D02*
X7630574Y-17887579D01*
X7925813Y-18125674D02*
X7916289Y-18116151D01*
X7916289Y-18116151D02*
X7897241Y-18087579D01*
X7897241Y-18087579D02*
X7887717Y-18068532D01*
X7887717Y-18068532D02*
X7878193Y-18039960D01*
X7878193Y-18039960D02*
X7868670Y-17992341D01*
X7868670Y-17992341D02*
X7868670Y-17954246D01*
X7868670Y-17954246D02*
X7878193Y-17906627D01*
X7878193Y-17906627D02*
X7887717Y-17878055D01*
X7887717Y-17878055D02*
X7897241Y-17859008D01*
X7897241Y-17859008D02*
X7916289Y-17830436D01*
X7916289Y-17830436D02*
X7925813Y-17820913D01*
X8030574Y-17935198D02*
X8011527Y-17925674D01*
X8011527Y-17925674D02*
X8002003Y-17916151D01*
X8002003Y-17916151D02*
X7992479Y-17897103D01*
X7992479Y-17897103D02*
X7992479Y-17887579D01*
X7992479Y-17887579D02*
X8002003Y-17868532D01*
X8002003Y-17868532D02*
X8011527Y-17859008D01*
X8011527Y-17859008D02*
X8030574Y-17849484D01*
X8030574Y-17849484D02*
X8068670Y-17849484D01*
X8068670Y-17849484D02*
X8087717Y-17859008D01*
X8087717Y-17859008D02*
X8097241Y-17868532D01*
X8097241Y-17868532D02*
X8106765Y-17887579D01*
X8106765Y-17887579D02*
X8106765Y-17897103D01*
X8106765Y-17897103D02*
X8097241Y-17916151D01*
X8097241Y-17916151D02*
X8087717Y-17925674D01*
X8087717Y-17925674D02*
X8068670Y-17935198D01*
X8068670Y-17935198D02*
X8030574Y-17935198D01*
X8030574Y-17935198D02*
X8011527Y-17944722D01*
X8011527Y-17944722D02*
X8002003Y-17954246D01*
X8002003Y-17954246D02*
X7992479Y-17973294D01*
X7992479Y-17973294D02*
X7992479Y-18011389D01*
X7992479Y-18011389D02*
X8002003Y-18030436D01*
X8002003Y-18030436D02*
X8011527Y-18039960D01*
X8011527Y-18039960D02*
X8030574Y-18049484D01*
X8030574Y-18049484D02*
X8068670Y-18049484D01*
X8068670Y-18049484D02*
X8087717Y-18039960D01*
X8087717Y-18039960D02*
X8097241Y-18030436D01*
X8097241Y-18030436D02*
X8106765Y-18011389D01*
X8106765Y-18011389D02*
X8106765Y-17973294D01*
X8106765Y-17973294D02*
X8097241Y-17954246D01*
X8097241Y-17954246D02*
X8087717Y-17944722D01*
X8087717Y-17944722D02*
X8068670Y-17935198D01*
X8287717Y-17849484D02*
X8192479Y-17849484D01*
X8192479Y-17849484D02*
X8182955Y-17944722D01*
X8182955Y-17944722D02*
X8192479Y-17935198D01*
X8192479Y-17935198D02*
X8211527Y-17925674D01*
X8211527Y-17925674D02*
X8259146Y-17925674D01*
X8259146Y-17925674D02*
X8278193Y-17935198D01*
X8278193Y-17935198D02*
X8287717Y-17944722D01*
X8287717Y-17944722D02*
X8297241Y-17963770D01*
X8297241Y-17963770D02*
X8297241Y-18011389D01*
X8297241Y-18011389D02*
X8287717Y-18030436D01*
X8287717Y-18030436D02*
X8278193Y-18039960D01*
X8278193Y-18039960D02*
X8259146Y-18049484D01*
X8259146Y-18049484D02*
X8211527Y-18049484D01*
X8211527Y-18049484D02*
X8192479Y-18039960D01*
X8192479Y-18039960D02*
X8182955Y-18030436D01*
X8468670Y-17916151D02*
X8468670Y-18049484D01*
X8421051Y-17839960D02*
X8373432Y-17982817D01*
X8373432Y-17982817D02*
X8497241Y-17982817D01*
X8725813Y-18049484D02*
X8725813Y-17849484D01*
X8811527Y-18049484D02*
X8811527Y-17944722D01*
X8811527Y-17944722D02*
X8802003Y-17925674D01*
X8802003Y-17925674D02*
X8782956Y-17916151D01*
X8782956Y-17916151D02*
X8754384Y-17916151D01*
X8754384Y-17916151D02*
X8735336Y-17925674D01*
X8735336Y-17925674D02*
X8725813Y-17935198D01*
X8935336Y-18049484D02*
X8916289Y-18039960D01*
X8916289Y-18039960D02*
X8906765Y-18030436D01*
X8906765Y-18030436D02*
X8897241Y-18011389D01*
X8897241Y-18011389D02*
X8897241Y-17954246D01*
X8897241Y-17954246D02*
X8906765Y-17935198D01*
X8906765Y-17935198D02*
X8916289Y-17925674D01*
X8916289Y-17925674D02*
X8935336Y-17916151D01*
X8935336Y-17916151D02*
X8963908Y-17916151D01*
X8963908Y-17916151D02*
X8982956Y-17925674D01*
X8982956Y-17925674D02*
X8992479Y-17935198D01*
X8992479Y-17935198D02*
X9002003Y-17954246D01*
X9002003Y-17954246D02*
X9002003Y-18011389D01*
X9002003Y-18011389D02*
X8992479Y-18030436D01*
X8992479Y-18030436D02*
X8982956Y-18039960D01*
X8982956Y-18039960D02*
X8963908Y-18049484D01*
X8963908Y-18049484D02*
X8935336Y-18049484D01*
X9116289Y-18049484D02*
X9097241Y-18039960D01*
X9097241Y-18039960D02*
X9087717Y-18020913D01*
X9087717Y-18020913D02*
X9087717Y-17849484D01*
X9268670Y-18039960D02*
X9249622Y-18049484D01*
X9249622Y-18049484D02*
X9211527Y-18049484D01*
X9211527Y-18049484D02*
X9192479Y-18039960D01*
X9192479Y-18039960D02*
X9182956Y-18020913D01*
X9182956Y-18020913D02*
X9182956Y-17944722D01*
X9182956Y-17944722D02*
X9192479Y-17925674D01*
X9192479Y-17925674D02*
X9211527Y-17916151D01*
X9211527Y-17916151D02*
X9249622Y-17916151D01*
X9249622Y-17916151D02*
X9268670Y-17925674D01*
X9268670Y-17925674D02*
X9278194Y-17944722D01*
X9278194Y-17944722D02*
X9278194Y-17963770D01*
X9278194Y-17963770D02*
X9182956Y-17982817D01*
X9354384Y-18039960D02*
X9373432Y-18049484D01*
X9373432Y-18049484D02*
X9411527Y-18049484D01*
X9411527Y-18049484D02*
X9430575Y-18039960D01*
X9430575Y-18039960D02*
X9440098Y-18020913D01*
X9440098Y-18020913D02*
X9440098Y-18011389D01*
X9440098Y-18011389D02*
X9430575Y-17992341D01*
X9430575Y-17992341D02*
X9411527Y-17982817D01*
X9411527Y-17982817D02*
X9382956Y-17982817D01*
X9382956Y-17982817D02*
X9363908Y-17973294D01*
X9363908Y-17973294D02*
X9354384Y-17954246D01*
X9354384Y-17954246D02*
X9354384Y-17944722D01*
X9354384Y-17944722D02*
X9363908Y-17925674D01*
X9363908Y-17925674D02*
X9382956Y-17916151D01*
X9382956Y-17916151D02*
X9411527Y-17916151D01*
X9411527Y-17916151D02*
X9430575Y-17925674D01*
X9506765Y-18125674D02*
X9516289Y-18116151D01*
X9516289Y-18116151D02*
X9535337Y-18087579D01*
X9535337Y-18087579D02*
X9544860Y-18068532D01*
X9544860Y-18068532D02*
X9554384Y-18039960D01*
X9554384Y-18039960D02*
X9563908Y-17992341D01*
X9563908Y-17992341D02*
X9563908Y-17954246D01*
X9563908Y-17954246D02*
X9554384Y-17906627D01*
X9554384Y-17906627D02*
X9544860Y-17878055D01*
X9544860Y-17878055D02*
X9535337Y-17859008D01*
X9535337Y-17859008D02*
X9516289Y-17830436D01*
X9516289Y-17830436D02*
X9506765Y-17820913D01*
D11*
X4350750Y-18222000D02*
G75*
G02*
X4310750Y-18222000I-20000J0D01*
G01*
X4310750Y-18222000D02*
G75*
G02*
X4350750Y-18222000I20000J0D01*
G01*
D10*
X4649622Y-18113484D02*
X4668669Y-18113484D01*
X4668669Y-18113484D02*
X4687717Y-18123008D01*
X4687717Y-18123008D02*
X4697241Y-18132532D01*
X4697241Y-18132532D02*
X4706765Y-18151579D01*
X4706765Y-18151579D02*
X4716288Y-18189674D01*
X4716288Y-18189674D02*
X4716288Y-18237294D01*
X4716288Y-18237294D02*
X4706765Y-18275389D01*
X4706765Y-18275389D02*
X4697241Y-18294436D01*
X4697241Y-18294436D02*
X4687717Y-18303960D01*
X4687717Y-18303960D02*
X4668669Y-18313484D01*
X4668669Y-18313484D02*
X4649622Y-18313484D01*
X4649622Y-18313484D02*
X4630574Y-18303960D01*
X4630574Y-18303960D02*
X4621050Y-18294436D01*
X4621050Y-18294436D02*
X4611527Y-18275389D01*
X4611527Y-18275389D02*
X4602003Y-18237294D01*
X4602003Y-18237294D02*
X4602003Y-18189674D01*
X4602003Y-18189674D02*
X4611527Y-18151579D01*
X4611527Y-18151579D02*
X4621050Y-18132532D01*
X4621050Y-18132532D02*
X4630574Y-18123008D01*
X4630574Y-18123008D02*
X4649622Y-18113484D01*
X4802003Y-18294436D02*
X4811527Y-18303960D01*
X4811527Y-18303960D02*
X4802003Y-18313484D01*
X4802003Y-18313484D02*
X4792479Y-18303960D01*
X4792479Y-18303960D02*
X4802003Y-18294436D01*
X4802003Y-18294436D02*
X4802003Y-18313484D01*
X4982955Y-18180151D02*
X4982955Y-18313484D01*
X4935336Y-18103960D02*
X4887717Y-18246817D01*
X4887717Y-18246817D02*
X5011527Y-18246817D01*
X5125812Y-18113484D02*
X5144860Y-18113484D01*
X5144860Y-18113484D02*
X5163908Y-18123008D01*
X5163908Y-18123008D02*
X5173431Y-18132532D01*
X5173431Y-18132532D02*
X5182955Y-18151579D01*
X5182955Y-18151579D02*
X5192479Y-18189674D01*
X5192479Y-18189674D02*
X5192479Y-18237294D01*
X5192479Y-18237294D02*
X5182955Y-18275389D01*
X5182955Y-18275389D02*
X5173431Y-18294436D01*
X5173431Y-18294436D02*
X5163908Y-18303960D01*
X5163908Y-18303960D02*
X5144860Y-18313484D01*
X5144860Y-18313484D02*
X5125812Y-18313484D01*
X5125812Y-18313484D02*
X5106765Y-18303960D01*
X5106765Y-18303960D02*
X5097241Y-18294436D01*
X5097241Y-18294436D02*
X5087717Y-18275389D01*
X5087717Y-18275389D02*
X5078193Y-18237294D01*
X5078193Y-18237294D02*
X5078193Y-18189674D01*
X5078193Y-18189674D02*
X5087717Y-18151579D01*
X5087717Y-18151579D02*
X5097241Y-18132532D01*
X5097241Y-18132532D02*
X5106765Y-18123008D01*
X5106765Y-18123008D02*
X5125812Y-18113484D01*
X5316288Y-18113484D02*
X5335336Y-18113484D01*
X5335336Y-18113484D02*
X5354384Y-18123008D01*
X5354384Y-18123008D02*
X5363908Y-18132532D01*
X5363908Y-18132532D02*
X5373431Y-18151579D01*
X5373431Y-18151579D02*
X5382955Y-18189674D01*
X5382955Y-18189674D02*
X5382955Y-18237294D01*
X5382955Y-18237294D02*
X5373431Y-18275389D01*
X5373431Y-18275389D02*
X5363908Y-18294436D01*
X5363908Y-18294436D02*
X5354384Y-18303960D01*
X5354384Y-18303960D02*
X5335336Y-18313484D01*
X5335336Y-18313484D02*
X5316288Y-18313484D01*
X5316288Y-18313484D02*
X5297241Y-18303960D01*
X5297241Y-18303960D02*
X5287717Y-18294436D01*
X5287717Y-18294436D02*
X5278193Y-18275389D01*
X5278193Y-18275389D02*
X5268669Y-18237294D01*
X5268669Y-18237294D02*
X5268669Y-18189674D01*
X5268669Y-18189674D02*
X5278193Y-18151579D01*
X5278193Y-18151579D02*
X5287717Y-18132532D01*
X5287717Y-18132532D02*
X5297241Y-18123008D01*
X5297241Y-18123008D02*
X5316288Y-18113484D01*
X5468669Y-18313484D02*
X5468669Y-18180151D01*
X5468669Y-18199198D02*
X5478193Y-18189674D01*
X5478193Y-18189674D02*
X5497241Y-18180151D01*
X5497241Y-18180151D02*
X5525812Y-18180151D01*
X5525812Y-18180151D02*
X5544860Y-18189674D01*
X5544860Y-18189674D02*
X5554384Y-18208722D01*
X5554384Y-18208722D02*
X5554384Y-18313484D01*
X5554384Y-18208722D02*
X5563908Y-18189674D01*
X5563908Y-18189674D02*
X5582955Y-18180151D01*
X5582955Y-18180151D02*
X5611526Y-18180151D01*
X5611526Y-18180151D02*
X5630574Y-18189674D01*
X5630574Y-18189674D02*
X5640098Y-18208722D01*
X5640098Y-18208722D02*
X5640098Y-18313484D01*
X5735336Y-18313484D02*
X5735336Y-18180151D01*
X5735336Y-18199198D02*
X5744860Y-18189674D01*
X5744860Y-18189674D02*
X5763907Y-18180151D01*
X5763907Y-18180151D02*
X5792479Y-18180151D01*
X5792479Y-18180151D02*
X5811527Y-18189674D01*
X5811527Y-18189674D02*
X5821050Y-18208722D01*
X5821050Y-18208722D02*
X5821050Y-18313484D01*
X5821050Y-18208722D02*
X5830574Y-18189674D01*
X5830574Y-18189674D02*
X5849622Y-18180151D01*
X5849622Y-18180151D02*
X5878193Y-18180151D01*
X5878193Y-18180151D02*
X5897241Y-18189674D01*
X5897241Y-18189674D02*
X5906765Y-18208722D01*
X5906765Y-18208722D02*
X5906765Y-18313484D01*
X6297241Y-18103960D02*
X6125812Y-18361103D01*
X6554384Y-18113484D02*
X6573431Y-18113484D01*
X6573431Y-18113484D02*
X6592479Y-18123008D01*
X6592479Y-18123008D02*
X6602003Y-18132532D01*
X6602003Y-18132532D02*
X6611527Y-18151579D01*
X6611527Y-18151579D02*
X6621050Y-18189674D01*
X6621050Y-18189674D02*
X6621050Y-18237294D01*
X6621050Y-18237294D02*
X6611527Y-18275389D01*
X6611527Y-18275389D02*
X6602003Y-18294436D01*
X6602003Y-18294436D02*
X6592479Y-18303960D01*
X6592479Y-18303960D02*
X6573431Y-18313484D01*
X6573431Y-18313484D02*
X6554384Y-18313484D01*
X6554384Y-18313484D02*
X6535336Y-18303960D01*
X6535336Y-18303960D02*
X6525812Y-18294436D01*
X6525812Y-18294436D02*
X6516289Y-18275389D01*
X6516289Y-18275389D02*
X6506765Y-18237294D01*
X6506765Y-18237294D02*
X6506765Y-18189674D01*
X6506765Y-18189674D02*
X6516289Y-18151579D01*
X6516289Y-18151579D02*
X6525812Y-18132532D01*
X6525812Y-18132532D02*
X6535336Y-18123008D01*
X6535336Y-18123008D02*
X6554384Y-18113484D01*
X6706765Y-18294436D02*
X6716289Y-18303960D01*
X6716289Y-18303960D02*
X6706765Y-18313484D01*
X6706765Y-18313484D02*
X6697241Y-18303960D01*
X6697241Y-18303960D02*
X6706765Y-18294436D01*
X6706765Y-18294436D02*
X6706765Y-18313484D01*
X6840098Y-18113484D02*
X6859146Y-18113484D01*
X6859146Y-18113484D02*
X6878193Y-18123008D01*
X6878193Y-18123008D02*
X6887717Y-18132532D01*
X6887717Y-18132532D02*
X6897241Y-18151579D01*
X6897241Y-18151579D02*
X6906765Y-18189674D01*
X6906765Y-18189674D02*
X6906765Y-18237294D01*
X6906765Y-18237294D02*
X6897241Y-18275389D01*
X6897241Y-18275389D02*
X6887717Y-18294436D01*
X6887717Y-18294436D02*
X6878193Y-18303960D01*
X6878193Y-18303960D02*
X6859146Y-18313484D01*
X6859146Y-18313484D02*
X6840098Y-18313484D01*
X6840098Y-18313484D02*
X6821050Y-18303960D01*
X6821050Y-18303960D02*
X6811527Y-18294436D01*
X6811527Y-18294436D02*
X6802003Y-18275389D01*
X6802003Y-18275389D02*
X6792479Y-18237294D01*
X6792479Y-18237294D02*
X6792479Y-18189674D01*
X6792479Y-18189674D02*
X6802003Y-18151579D01*
X6802003Y-18151579D02*
X6811527Y-18132532D01*
X6811527Y-18132532D02*
X6821050Y-18123008D01*
X6821050Y-18123008D02*
X6840098Y-18113484D01*
X7097241Y-18313484D02*
X6982955Y-18313484D01*
X7040098Y-18313484D02*
X7040098Y-18113484D01*
X7040098Y-18113484D02*
X7021050Y-18142055D01*
X7021050Y-18142055D02*
X7002003Y-18161103D01*
X7002003Y-18161103D02*
X6982955Y-18170627D01*
X7278193Y-18113484D02*
X7182955Y-18113484D01*
X7182955Y-18113484D02*
X7173431Y-18208722D01*
X7173431Y-18208722D02*
X7182955Y-18199198D01*
X7182955Y-18199198D02*
X7202003Y-18189674D01*
X7202003Y-18189674D02*
X7249622Y-18189674D01*
X7249622Y-18189674D02*
X7268670Y-18199198D01*
X7268670Y-18199198D02*
X7278193Y-18208722D01*
X7278193Y-18208722D02*
X7287717Y-18227770D01*
X7287717Y-18227770D02*
X7287717Y-18275389D01*
X7287717Y-18275389D02*
X7278193Y-18294436D01*
X7278193Y-18294436D02*
X7268670Y-18303960D01*
X7268670Y-18303960D02*
X7249622Y-18313484D01*
X7249622Y-18313484D02*
X7202003Y-18313484D01*
X7202003Y-18313484D02*
X7182955Y-18303960D01*
X7182955Y-18303960D02*
X7173431Y-18294436D01*
X7354384Y-18113484D02*
X7487717Y-18113484D01*
X7487717Y-18113484D02*
X7402003Y-18313484D01*
X7554384Y-18113484D02*
X7554384Y-18151579D01*
X7630574Y-18113484D02*
X7630574Y-18151579D01*
X7925813Y-18389674D02*
X7916289Y-18380151D01*
X7916289Y-18380151D02*
X7897241Y-18351579D01*
X7897241Y-18351579D02*
X7887717Y-18332532D01*
X7887717Y-18332532D02*
X7878193Y-18303960D01*
X7878193Y-18303960D02*
X7868670Y-18256341D01*
X7868670Y-18256341D02*
X7868670Y-18218246D01*
X7868670Y-18218246D02*
X7878193Y-18170627D01*
X7878193Y-18170627D02*
X7887717Y-18142055D01*
X7887717Y-18142055D02*
X7897241Y-18123008D01*
X7897241Y-18123008D02*
X7916289Y-18094436D01*
X7916289Y-18094436D02*
X7925813Y-18084913D01*
X7982955Y-18113484D02*
X8116289Y-18113484D01*
X8116289Y-18113484D02*
X8030574Y-18313484D01*
X8278193Y-18180151D02*
X8278193Y-18313484D01*
X8230574Y-18103960D02*
X8182955Y-18246817D01*
X8182955Y-18246817D02*
X8306765Y-18246817D01*
X8535336Y-18313484D02*
X8535336Y-18113484D01*
X8621051Y-18313484D02*
X8621051Y-18208722D01*
X8621051Y-18208722D02*
X8611527Y-18189674D01*
X8611527Y-18189674D02*
X8592479Y-18180151D01*
X8592479Y-18180151D02*
X8563908Y-18180151D01*
X8563908Y-18180151D02*
X8544860Y-18189674D01*
X8544860Y-18189674D02*
X8535336Y-18199198D01*
X8744860Y-18313484D02*
X8725813Y-18303960D01*
X8725813Y-18303960D02*
X8716289Y-18294436D01*
X8716289Y-18294436D02*
X8706765Y-18275389D01*
X8706765Y-18275389D02*
X8706765Y-18218246D01*
X8706765Y-18218246D02*
X8716289Y-18199198D01*
X8716289Y-18199198D02*
X8725813Y-18189674D01*
X8725813Y-18189674D02*
X8744860Y-18180151D01*
X8744860Y-18180151D02*
X8773432Y-18180151D01*
X8773432Y-18180151D02*
X8792479Y-18189674D01*
X8792479Y-18189674D02*
X8802003Y-18199198D01*
X8802003Y-18199198D02*
X8811527Y-18218246D01*
X8811527Y-18218246D02*
X8811527Y-18275389D01*
X8811527Y-18275389D02*
X8802003Y-18294436D01*
X8802003Y-18294436D02*
X8792479Y-18303960D01*
X8792479Y-18303960D02*
X8773432Y-18313484D01*
X8773432Y-18313484D02*
X8744860Y-18313484D01*
X8925813Y-18313484D02*
X8906765Y-18303960D01*
X8906765Y-18303960D02*
X8897241Y-18284913D01*
X8897241Y-18284913D02*
X8897241Y-18113484D01*
X9078194Y-18303960D02*
X9059146Y-18313484D01*
X9059146Y-18313484D02*
X9021051Y-18313484D01*
X9021051Y-18313484D02*
X9002003Y-18303960D01*
X9002003Y-18303960D02*
X8992479Y-18284913D01*
X8992479Y-18284913D02*
X8992479Y-18208722D01*
X8992479Y-18208722D02*
X9002003Y-18189674D01*
X9002003Y-18189674D02*
X9021051Y-18180151D01*
X9021051Y-18180151D02*
X9059146Y-18180151D01*
X9059146Y-18180151D02*
X9078194Y-18189674D01*
X9078194Y-18189674D02*
X9087717Y-18208722D01*
X9087717Y-18208722D02*
X9087717Y-18227770D01*
X9087717Y-18227770D02*
X8992479Y-18246817D01*
X9163908Y-18303960D02*
X9182956Y-18313484D01*
X9182956Y-18313484D02*
X9221051Y-18313484D01*
X9221051Y-18313484D02*
X9240098Y-18303960D01*
X9240098Y-18303960D02*
X9249622Y-18284913D01*
X9249622Y-18284913D02*
X9249622Y-18275389D01*
X9249622Y-18275389D02*
X9240098Y-18256341D01*
X9240098Y-18256341D02*
X9221051Y-18246817D01*
X9221051Y-18246817D02*
X9192479Y-18246817D01*
X9192479Y-18246817D02*
X9173432Y-18237294D01*
X9173432Y-18237294D02*
X9163908Y-18218246D01*
X9163908Y-18218246D02*
X9163908Y-18208722D01*
X9163908Y-18208722D02*
X9173432Y-18189674D01*
X9173432Y-18189674D02*
X9192479Y-18180151D01*
X9192479Y-18180151D02*
X9221051Y-18180151D01*
X9221051Y-18180151D02*
X9240098Y-18189674D01*
X9316289Y-18389674D02*
X9325813Y-18380151D01*
X9325813Y-18380151D02*
X9344860Y-18351579D01*
X9344860Y-18351579D02*
X9354384Y-18332532D01*
X9354384Y-18332532D02*
X9363908Y-18303960D01*
X9363908Y-18303960D02*
X9373432Y-18256341D01*
X9373432Y-18256341D02*
X9373432Y-18218246D01*
X9373432Y-18218246D02*
X9363908Y-18170627D01*
X9363908Y-18170627D02*
X9354384Y-18142055D01*
X9354384Y-18142055D02*
X9344860Y-18123008D01*
X9344860Y-18123008D02*
X9325813Y-18094436D01*
X9325813Y-18094436D02*
X9316289Y-18084913D01*
D11*
X4310110Y-18445360D02*
X4310110Y-18526640D01*
X4269470Y-18486000D02*
X4350750Y-18486000D01*
D10*
X4649622Y-18377484D02*
X4668669Y-18377484D01*
X4668669Y-18377484D02*
X4687717Y-18387008D01*
X4687717Y-18387008D02*
X4697241Y-18396532D01*
X4697241Y-18396532D02*
X4706765Y-18415579D01*
X4706765Y-18415579D02*
X4716288Y-18453674D01*
X4716288Y-18453674D02*
X4716288Y-18501294D01*
X4716288Y-18501294D02*
X4706765Y-18539389D01*
X4706765Y-18539389D02*
X4697241Y-18558436D01*
X4697241Y-18558436D02*
X4687717Y-18567960D01*
X4687717Y-18567960D02*
X4668669Y-18577484D01*
X4668669Y-18577484D02*
X4649622Y-18577484D01*
X4649622Y-18577484D02*
X4630574Y-18567960D01*
X4630574Y-18567960D02*
X4621050Y-18558436D01*
X4621050Y-18558436D02*
X4611527Y-18539389D01*
X4611527Y-18539389D02*
X4602003Y-18501294D01*
X4602003Y-18501294D02*
X4602003Y-18453674D01*
X4602003Y-18453674D02*
X4611527Y-18415579D01*
X4611527Y-18415579D02*
X4621050Y-18396532D01*
X4621050Y-18396532D02*
X4630574Y-18387008D01*
X4630574Y-18387008D02*
X4649622Y-18377484D01*
X4802003Y-18558436D02*
X4811527Y-18567960D01*
X4811527Y-18567960D02*
X4802003Y-18577484D01*
X4802003Y-18577484D02*
X4792479Y-18567960D01*
X4792479Y-18567960D02*
X4802003Y-18558436D01*
X4802003Y-18558436D02*
X4802003Y-18577484D01*
X4925812Y-18463198D02*
X4906765Y-18453674D01*
X4906765Y-18453674D02*
X4897241Y-18444151D01*
X4897241Y-18444151D02*
X4887717Y-18425103D01*
X4887717Y-18425103D02*
X4887717Y-18415579D01*
X4887717Y-18415579D02*
X4897241Y-18396532D01*
X4897241Y-18396532D02*
X4906765Y-18387008D01*
X4906765Y-18387008D02*
X4925812Y-18377484D01*
X4925812Y-18377484D02*
X4963908Y-18377484D01*
X4963908Y-18377484D02*
X4982955Y-18387008D01*
X4982955Y-18387008D02*
X4992479Y-18396532D01*
X4992479Y-18396532D02*
X5002003Y-18415579D01*
X5002003Y-18415579D02*
X5002003Y-18425103D01*
X5002003Y-18425103D02*
X4992479Y-18444151D01*
X4992479Y-18444151D02*
X4982955Y-18453674D01*
X4982955Y-18453674D02*
X4963908Y-18463198D01*
X4963908Y-18463198D02*
X4925812Y-18463198D01*
X4925812Y-18463198D02*
X4906765Y-18472722D01*
X4906765Y-18472722D02*
X4897241Y-18482246D01*
X4897241Y-18482246D02*
X4887717Y-18501294D01*
X4887717Y-18501294D02*
X4887717Y-18539389D01*
X4887717Y-18539389D02*
X4897241Y-18558436D01*
X4897241Y-18558436D02*
X4906765Y-18567960D01*
X4906765Y-18567960D02*
X4925812Y-18577484D01*
X4925812Y-18577484D02*
X4963908Y-18577484D01*
X4963908Y-18577484D02*
X4982955Y-18567960D01*
X4982955Y-18567960D02*
X4992479Y-18558436D01*
X4992479Y-18558436D02*
X5002003Y-18539389D01*
X5002003Y-18539389D02*
X5002003Y-18501294D01*
X5002003Y-18501294D02*
X4992479Y-18482246D01*
X4992479Y-18482246D02*
X4982955Y-18472722D01*
X4982955Y-18472722D02*
X4963908Y-18463198D01*
X5192479Y-18577484D02*
X5078193Y-18577484D01*
X5135336Y-18577484D02*
X5135336Y-18377484D01*
X5135336Y-18377484D02*
X5116288Y-18406055D01*
X5116288Y-18406055D02*
X5097241Y-18425103D01*
X5097241Y-18425103D02*
X5078193Y-18434627D01*
X5259146Y-18377484D02*
X5382955Y-18377484D01*
X5382955Y-18377484D02*
X5316288Y-18453674D01*
X5316288Y-18453674D02*
X5344860Y-18453674D01*
X5344860Y-18453674D02*
X5363908Y-18463198D01*
X5363908Y-18463198D02*
X5373431Y-18472722D01*
X5373431Y-18472722D02*
X5382955Y-18491770D01*
X5382955Y-18491770D02*
X5382955Y-18539389D01*
X5382955Y-18539389D02*
X5373431Y-18558436D01*
X5373431Y-18558436D02*
X5363908Y-18567960D01*
X5363908Y-18567960D02*
X5344860Y-18577484D01*
X5344860Y-18577484D02*
X5287717Y-18577484D01*
X5287717Y-18577484D02*
X5268669Y-18567960D01*
X5268669Y-18567960D02*
X5259146Y-18558436D01*
X5468669Y-18577484D02*
X5468669Y-18444151D01*
X5468669Y-18463198D02*
X5478193Y-18453674D01*
X5478193Y-18453674D02*
X5497241Y-18444151D01*
X5497241Y-18444151D02*
X5525812Y-18444151D01*
X5525812Y-18444151D02*
X5544860Y-18453674D01*
X5544860Y-18453674D02*
X5554384Y-18472722D01*
X5554384Y-18472722D02*
X5554384Y-18577484D01*
X5554384Y-18472722D02*
X5563908Y-18453674D01*
X5563908Y-18453674D02*
X5582955Y-18444151D01*
X5582955Y-18444151D02*
X5611526Y-18444151D01*
X5611526Y-18444151D02*
X5630574Y-18453674D01*
X5630574Y-18453674D02*
X5640098Y-18472722D01*
X5640098Y-18472722D02*
X5640098Y-18577484D01*
X5735336Y-18577484D02*
X5735336Y-18444151D01*
X5735336Y-18463198D02*
X5744860Y-18453674D01*
X5744860Y-18453674D02*
X5763907Y-18444151D01*
X5763907Y-18444151D02*
X5792479Y-18444151D01*
X5792479Y-18444151D02*
X5811527Y-18453674D01*
X5811527Y-18453674D02*
X5821050Y-18472722D01*
X5821050Y-18472722D02*
X5821050Y-18577484D01*
X5821050Y-18472722D02*
X5830574Y-18453674D01*
X5830574Y-18453674D02*
X5849622Y-18444151D01*
X5849622Y-18444151D02*
X5878193Y-18444151D01*
X5878193Y-18444151D02*
X5897241Y-18453674D01*
X5897241Y-18453674D02*
X5906765Y-18472722D01*
X5906765Y-18472722D02*
X5906765Y-18577484D01*
X6297241Y-18367960D02*
X6125812Y-18625103D01*
X6554384Y-18377484D02*
X6573431Y-18377484D01*
X6573431Y-18377484D02*
X6592479Y-18387008D01*
X6592479Y-18387008D02*
X6602003Y-18396532D01*
X6602003Y-18396532D02*
X6611527Y-18415579D01*
X6611527Y-18415579D02*
X6621050Y-18453674D01*
X6621050Y-18453674D02*
X6621050Y-18501294D01*
X6621050Y-18501294D02*
X6611527Y-18539389D01*
X6611527Y-18539389D02*
X6602003Y-18558436D01*
X6602003Y-18558436D02*
X6592479Y-18567960D01*
X6592479Y-18567960D02*
X6573431Y-18577484D01*
X6573431Y-18577484D02*
X6554384Y-18577484D01*
X6554384Y-18577484D02*
X6535336Y-18567960D01*
X6535336Y-18567960D02*
X6525812Y-18558436D01*
X6525812Y-18558436D02*
X6516289Y-18539389D01*
X6516289Y-18539389D02*
X6506765Y-18501294D01*
X6506765Y-18501294D02*
X6506765Y-18453674D01*
X6506765Y-18453674D02*
X6516289Y-18415579D01*
X6516289Y-18415579D02*
X6525812Y-18396532D01*
X6525812Y-18396532D02*
X6535336Y-18387008D01*
X6535336Y-18387008D02*
X6554384Y-18377484D01*
X6706765Y-18558436D02*
X6716289Y-18567960D01*
X6716289Y-18567960D02*
X6706765Y-18577484D01*
X6706765Y-18577484D02*
X6697241Y-18567960D01*
X6697241Y-18567960D02*
X6706765Y-18558436D01*
X6706765Y-18558436D02*
X6706765Y-18577484D01*
X6840098Y-18377484D02*
X6859146Y-18377484D01*
X6859146Y-18377484D02*
X6878193Y-18387008D01*
X6878193Y-18387008D02*
X6887717Y-18396532D01*
X6887717Y-18396532D02*
X6897241Y-18415579D01*
X6897241Y-18415579D02*
X6906765Y-18453674D01*
X6906765Y-18453674D02*
X6906765Y-18501294D01*
X6906765Y-18501294D02*
X6897241Y-18539389D01*
X6897241Y-18539389D02*
X6887717Y-18558436D01*
X6887717Y-18558436D02*
X6878193Y-18567960D01*
X6878193Y-18567960D02*
X6859146Y-18577484D01*
X6859146Y-18577484D02*
X6840098Y-18577484D01*
X6840098Y-18577484D02*
X6821050Y-18567960D01*
X6821050Y-18567960D02*
X6811527Y-18558436D01*
X6811527Y-18558436D02*
X6802003Y-18539389D01*
X6802003Y-18539389D02*
X6792479Y-18501294D01*
X6792479Y-18501294D02*
X6792479Y-18453674D01*
X6792479Y-18453674D02*
X6802003Y-18415579D01*
X6802003Y-18415579D02*
X6811527Y-18396532D01*
X6811527Y-18396532D02*
X6821050Y-18387008D01*
X6821050Y-18387008D02*
X6840098Y-18377484D01*
X6973431Y-18377484D02*
X7097241Y-18377484D01*
X7097241Y-18377484D02*
X7030574Y-18453674D01*
X7030574Y-18453674D02*
X7059146Y-18453674D01*
X7059146Y-18453674D02*
X7078193Y-18463198D01*
X7078193Y-18463198D02*
X7087717Y-18472722D01*
X7087717Y-18472722D02*
X7097241Y-18491770D01*
X7097241Y-18491770D02*
X7097241Y-18539389D01*
X7097241Y-18539389D02*
X7087717Y-18558436D01*
X7087717Y-18558436D02*
X7078193Y-18567960D01*
X7078193Y-18567960D02*
X7059146Y-18577484D01*
X7059146Y-18577484D02*
X7002003Y-18577484D01*
X7002003Y-18577484D02*
X6982955Y-18567960D01*
X6982955Y-18567960D02*
X6973431Y-18558436D01*
X7173431Y-18396532D02*
X7182955Y-18387008D01*
X7182955Y-18387008D02*
X7202003Y-18377484D01*
X7202003Y-18377484D02*
X7249622Y-18377484D01*
X7249622Y-18377484D02*
X7268670Y-18387008D01*
X7268670Y-18387008D02*
X7278193Y-18396532D01*
X7278193Y-18396532D02*
X7287717Y-18415579D01*
X7287717Y-18415579D02*
X7287717Y-18434627D01*
X7287717Y-18434627D02*
X7278193Y-18463198D01*
X7278193Y-18463198D02*
X7163908Y-18577484D01*
X7163908Y-18577484D02*
X7287717Y-18577484D01*
X7411527Y-18377484D02*
X7430574Y-18377484D01*
X7430574Y-18377484D02*
X7449622Y-18387008D01*
X7449622Y-18387008D02*
X7459146Y-18396532D01*
X7459146Y-18396532D02*
X7468670Y-18415579D01*
X7468670Y-18415579D02*
X7478193Y-18453674D01*
X7478193Y-18453674D02*
X7478193Y-18501294D01*
X7478193Y-18501294D02*
X7468670Y-18539389D01*
X7468670Y-18539389D02*
X7459146Y-18558436D01*
X7459146Y-18558436D02*
X7449622Y-18567960D01*
X7449622Y-18567960D02*
X7430574Y-18577484D01*
X7430574Y-18577484D02*
X7411527Y-18577484D01*
X7411527Y-18577484D02*
X7392479Y-18567960D01*
X7392479Y-18567960D02*
X7382955Y-18558436D01*
X7382955Y-18558436D02*
X7373431Y-18539389D01*
X7373431Y-18539389D02*
X7363908Y-18501294D01*
X7363908Y-18501294D02*
X7363908Y-18453674D01*
X7363908Y-18453674D02*
X7373431Y-18415579D01*
X7373431Y-18415579D02*
X7382955Y-18396532D01*
X7382955Y-18396532D02*
X7392479Y-18387008D01*
X7392479Y-18387008D02*
X7411527Y-18377484D01*
X7554384Y-18377484D02*
X7554384Y-18415579D01*
X7630574Y-18377484D02*
X7630574Y-18415579D01*
X7925813Y-18653674D02*
X7916289Y-18644151D01*
X7916289Y-18644151D02*
X7897241Y-18615579D01*
X7897241Y-18615579D02*
X7887717Y-18596532D01*
X7887717Y-18596532D02*
X7878193Y-18567960D01*
X7878193Y-18567960D02*
X7868670Y-18520341D01*
X7868670Y-18520341D02*
X7868670Y-18482246D01*
X7868670Y-18482246D02*
X7878193Y-18434627D01*
X7878193Y-18434627D02*
X7887717Y-18406055D01*
X7887717Y-18406055D02*
X7897241Y-18387008D01*
X7897241Y-18387008D02*
X7916289Y-18358436D01*
X7916289Y-18358436D02*
X7925813Y-18348913D01*
X8087717Y-18444151D02*
X8087717Y-18577484D01*
X8040098Y-18367960D02*
X7992479Y-18510817D01*
X7992479Y-18510817D02*
X8116289Y-18510817D01*
X8221051Y-18463198D02*
X8202003Y-18453674D01*
X8202003Y-18453674D02*
X8192479Y-18444151D01*
X8192479Y-18444151D02*
X8182955Y-18425103D01*
X8182955Y-18425103D02*
X8182955Y-18415579D01*
X8182955Y-18415579D02*
X8192479Y-18396532D01*
X8192479Y-18396532D02*
X8202003Y-18387008D01*
X8202003Y-18387008D02*
X8221051Y-18377484D01*
X8221051Y-18377484D02*
X8259146Y-18377484D01*
X8259146Y-18377484D02*
X8278193Y-18387008D01*
X8278193Y-18387008D02*
X8287717Y-18396532D01*
X8287717Y-18396532D02*
X8297241Y-18415579D01*
X8297241Y-18415579D02*
X8297241Y-18425103D01*
X8297241Y-18425103D02*
X8287717Y-18444151D01*
X8287717Y-18444151D02*
X8278193Y-18453674D01*
X8278193Y-18453674D02*
X8259146Y-18463198D01*
X8259146Y-18463198D02*
X8221051Y-18463198D01*
X8221051Y-18463198D02*
X8202003Y-18472722D01*
X8202003Y-18472722D02*
X8192479Y-18482246D01*
X8192479Y-18482246D02*
X8182955Y-18501294D01*
X8182955Y-18501294D02*
X8182955Y-18539389D01*
X8182955Y-18539389D02*
X8192479Y-18558436D01*
X8192479Y-18558436D02*
X8202003Y-18567960D01*
X8202003Y-18567960D02*
X8221051Y-18577484D01*
X8221051Y-18577484D02*
X8259146Y-18577484D01*
X8259146Y-18577484D02*
X8278193Y-18567960D01*
X8278193Y-18567960D02*
X8287717Y-18558436D01*
X8287717Y-18558436D02*
X8297241Y-18539389D01*
X8297241Y-18539389D02*
X8297241Y-18501294D01*
X8297241Y-18501294D02*
X8287717Y-18482246D01*
X8287717Y-18482246D02*
X8278193Y-18472722D01*
X8278193Y-18472722D02*
X8259146Y-18463198D01*
X8535336Y-18577484D02*
X8535336Y-18377484D01*
X8621051Y-18577484D02*
X8621051Y-18472722D01*
X8621051Y-18472722D02*
X8611527Y-18453674D01*
X8611527Y-18453674D02*
X8592479Y-18444151D01*
X8592479Y-18444151D02*
X8563908Y-18444151D01*
X8563908Y-18444151D02*
X8544860Y-18453674D01*
X8544860Y-18453674D02*
X8535336Y-18463198D01*
X8744860Y-18577484D02*
X8725813Y-18567960D01*
X8725813Y-18567960D02*
X8716289Y-18558436D01*
X8716289Y-18558436D02*
X8706765Y-18539389D01*
X8706765Y-18539389D02*
X8706765Y-18482246D01*
X8706765Y-18482246D02*
X8716289Y-18463198D01*
X8716289Y-18463198D02*
X8725813Y-18453674D01*
X8725813Y-18453674D02*
X8744860Y-18444151D01*
X8744860Y-18444151D02*
X8773432Y-18444151D01*
X8773432Y-18444151D02*
X8792479Y-18453674D01*
X8792479Y-18453674D02*
X8802003Y-18463198D01*
X8802003Y-18463198D02*
X8811527Y-18482246D01*
X8811527Y-18482246D02*
X8811527Y-18539389D01*
X8811527Y-18539389D02*
X8802003Y-18558436D01*
X8802003Y-18558436D02*
X8792479Y-18567960D01*
X8792479Y-18567960D02*
X8773432Y-18577484D01*
X8773432Y-18577484D02*
X8744860Y-18577484D01*
X8925813Y-18577484D02*
X8906765Y-18567960D01*
X8906765Y-18567960D02*
X8897241Y-18548913D01*
X8897241Y-18548913D02*
X8897241Y-18377484D01*
X9078194Y-18567960D02*
X9059146Y-18577484D01*
X9059146Y-18577484D02*
X9021051Y-18577484D01*
X9021051Y-18577484D02*
X9002003Y-18567960D01*
X9002003Y-18567960D02*
X8992479Y-18548913D01*
X8992479Y-18548913D02*
X8992479Y-18472722D01*
X8992479Y-18472722D02*
X9002003Y-18453674D01*
X9002003Y-18453674D02*
X9021051Y-18444151D01*
X9021051Y-18444151D02*
X9059146Y-18444151D01*
X9059146Y-18444151D02*
X9078194Y-18453674D01*
X9078194Y-18453674D02*
X9087717Y-18472722D01*
X9087717Y-18472722D02*
X9087717Y-18491770D01*
X9087717Y-18491770D02*
X8992479Y-18510817D01*
X9163908Y-18567960D02*
X9182956Y-18577484D01*
X9182956Y-18577484D02*
X9221051Y-18577484D01*
X9221051Y-18577484D02*
X9240098Y-18567960D01*
X9240098Y-18567960D02*
X9249622Y-18548913D01*
X9249622Y-18548913D02*
X9249622Y-18539389D01*
X9249622Y-18539389D02*
X9240098Y-18520341D01*
X9240098Y-18520341D02*
X9221051Y-18510817D01*
X9221051Y-18510817D02*
X9192479Y-18510817D01*
X9192479Y-18510817D02*
X9173432Y-18501294D01*
X9173432Y-18501294D02*
X9163908Y-18482246D01*
X9163908Y-18482246D02*
X9163908Y-18472722D01*
X9163908Y-18472722D02*
X9173432Y-18453674D01*
X9173432Y-18453674D02*
X9192479Y-18444151D01*
X9192479Y-18444151D02*
X9221051Y-18444151D01*
X9221051Y-18444151D02*
X9240098Y-18453674D01*
X9316289Y-18653674D02*
X9325813Y-18644151D01*
X9325813Y-18644151D02*
X9344860Y-18615579D01*
X9344860Y-18615579D02*
X9354384Y-18596532D01*
X9354384Y-18596532D02*
X9363908Y-18567960D01*
X9363908Y-18567960D02*
X9373432Y-18520341D01*
X9373432Y-18520341D02*
X9373432Y-18482246D01*
X9373432Y-18482246D02*
X9363908Y-18434627D01*
X9363908Y-18434627D02*
X9354384Y-18406055D01*
X9354384Y-18406055D02*
X9344860Y-18387008D01*
X9344860Y-18387008D02*
X9325813Y-18358436D01*
X9325813Y-18358436D02*
X9316289Y-18348913D01*
D11*
X4336105Y-18785356D02*
X4336105Y-18714645D01*
X4265394Y-18714645D01*
X4265394Y-18785356D01*
X4336105Y-18785356D01*
D10*
X4716288Y-18841484D02*
X4602003Y-18841484D01*
X4659146Y-18841484D02*
X4659146Y-18641484D01*
X4659146Y-18641484D02*
X4640098Y-18670055D01*
X4640098Y-18670055D02*
X4621050Y-18689103D01*
X4621050Y-18689103D02*
X4602003Y-18698627D01*
X4802003Y-18822436D02*
X4811527Y-18831960D01*
X4811527Y-18831960D02*
X4802003Y-18841484D01*
X4802003Y-18841484D02*
X4792479Y-18831960D01*
X4792479Y-18831960D02*
X4802003Y-18822436D01*
X4802003Y-18822436D02*
X4802003Y-18841484D01*
X4935336Y-18641484D02*
X4954384Y-18641484D01*
X4954384Y-18641484D02*
X4973431Y-18651008D01*
X4973431Y-18651008D02*
X4982955Y-18660532D01*
X4982955Y-18660532D02*
X4992479Y-18679579D01*
X4992479Y-18679579D02*
X5002003Y-18717674D01*
X5002003Y-18717674D02*
X5002003Y-18765294D01*
X5002003Y-18765294D02*
X4992479Y-18803389D01*
X4992479Y-18803389D02*
X4982955Y-18822436D01*
X4982955Y-18822436D02*
X4973431Y-18831960D01*
X4973431Y-18831960D02*
X4954384Y-18841484D01*
X4954384Y-18841484D02*
X4935336Y-18841484D01*
X4935336Y-18841484D02*
X4916288Y-18831960D01*
X4916288Y-18831960D02*
X4906765Y-18822436D01*
X4906765Y-18822436D02*
X4897241Y-18803389D01*
X4897241Y-18803389D02*
X4887717Y-18765294D01*
X4887717Y-18765294D02*
X4887717Y-18717674D01*
X4887717Y-18717674D02*
X4897241Y-18679579D01*
X4897241Y-18679579D02*
X4906765Y-18660532D01*
X4906765Y-18660532D02*
X4916288Y-18651008D01*
X4916288Y-18651008D02*
X4935336Y-18641484D01*
X5125812Y-18641484D02*
X5144860Y-18641484D01*
X5144860Y-18641484D02*
X5163908Y-18651008D01*
X5163908Y-18651008D02*
X5173431Y-18660532D01*
X5173431Y-18660532D02*
X5182955Y-18679579D01*
X5182955Y-18679579D02*
X5192479Y-18717674D01*
X5192479Y-18717674D02*
X5192479Y-18765294D01*
X5192479Y-18765294D02*
X5182955Y-18803389D01*
X5182955Y-18803389D02*
X5173431Y-18822436D01*
X5173431Y-18822436D02*
X5163908Y-18831960D01*
X5163908Y-18831960D02*
X5144860Y-18841484D01*
X5144860Y-18841484D02*
X5125812Y-18841484D01*
X5125812Y-18841484D02*
X5106765Y-18831960D01*
X5106765Y-18831960D02*
X5097241Y-18822436D01*
X5097241Y-18822436D02*
X5087717Y-18803389D01*
X5087717Y-18803389D02*
X5078193Y-18765294D01*
X5078193Y-18765294D02*
X5078193Y-18717674D01*
X5078193Y-18717674D02*
X5087717Y-18679579D01*
X5087717Y-18679579D02*
X5097241Y-18660532D01*
X5097241Y-18660532D02*
X5106765Y-18651008D01*
X5106765Y-18651008D02*
X5125812Y-18641484D01*
X5316288Y-18641484D02*
X5335336Y-18641484D01*
X5335336Y-18641484D02*
X5354384Y-18651008D01*
X5354384Y-18651008D02*
X5363908Y-18660532D01*
X5363908Y-18660532D02*
X5373431Y-18679579D01*
X5373431Y-18679579D02*
X5382955Y-18717674D01*
X5382955Y-18717674D02*
X5382955Y-18765294D01*
X5382955Y-18765294D02*
X5373431Y-18803389D01*
X5373431Y-18803389D02*
X5363908Y-18822436D01*
X5363908Y-18822436D02*
X5354384Y-18831960D01*
X5354384Y-18831960D02*
X5335336Y-18841484D01*
X5335336Y-18841484D02*
X5316288Y-18841484D01*
X5316288Y-18841484D02*
X5297241Y-18831960D01*
X5297241Y-18831960D02*
X5287717Y-18822436D01*
X5287717Y-18822436D02*
X5278193Y-18803389D01*
X5278193Y-18803389D02*
X5268669Y-18765294D01*
X5268669Y-18765294D02*
X5268669Y-18717674D01*
X5268669Y-18717674D02*
X5278193Y-18679579D01*
X5278193Y-18679579D02*
X5287717Y-18660532D01*
X5287717Y-18660532D02*
X5297241Y-18651008D01*
X5297241Y-18651008D02*
X5316288Y-18641484D01*
X5468669Y-18841484D02*
X5468669Y-18708151D01*
X5468669Y-18727198D02*
X5478193Y-18717674D01*
X5478193Y-18717674D02*
X5497241Y-18708151D01*
X5497241Y-18708151D02*
X5525812Y-18708151D01*
X5525812Y-18708151D02*
X5544860Y-18717674D01*
X5544860Y-18717674D02*
X5554384Y-18736722D01*
X5554384Y-18736722D02*
X5554384Y-18841484D01*
X5554384Y-18736722D02*
X5563908Y-18717674D01*
X5563908Y-18717674D02*
X5582955Y-18708151D01*
X5582955Y-18708151D02*
X5611526Y-18708151D01*
X5611526Y-18708151D02*
X5630574Y-18717674D01*
X5630574Y-18717674D02*
X5640098Y-18736722D01*
X5640098Y-18736722D02*
X5640098Y-18841484D01*
X5735336Y-18841484D02*
X5735336Y-18708151D01*
X5735336Y-18727198D02*
X5744860Y-18717674D01*
X5744860Y-18717674D02*
X5763907Y-18708151D01*
X5763907Y-18708151D02*
X5792479Y-18708151D01*
X5792479Y-18708151D02*
X5811527Y-18717674D01*
X5811527Y-18717674D02*
X5821050Y-18736722D01*
X5821050Y-18736722D02*
X5821050Y-18841484D01*
X5821050Y-18736722D02*
X5830574Y-18717674D01*
X5830574Y-18717674D02*
X5849622Y-18708151D01*
X5849622Y-18708151D02*
X5878193Y-18708151D01*
X5878193Y-18708151D02*
X5897241Y-18717674D01*
X5897241Y-18717674D02*
X5906765Y-18736722D01*
X5906765Y-18736722D02*
X5906765Y-18841484D01*
X6297241Y-18631960D02*
X6125812Y-18889103D01*
X6554384Y-18641484D02*
X6573431Y-18641484D01*
X6573431Y-18641484D02*
X6592479Y-18651008D01*
X6592479Y-18651008D02*
X6602003Y-18660532D01*
X6602003Y-18660532D02*
X6611527Y-18679579D01*
X6611527Y-18679579D02*
X6621050Y-18717674D01*
X6621050Y-18717674D02*
X6621050Y-18765294D01*
X6621050Y-18765294D02*
X6611527Y-18803389D01*
X6611527Y-18803389D02*
X6602003Y-18822436D01*
X6602003Y-18822436D02*
X6592479Y-18831960D01*
X6592479Y-18831960D02*
X6573431Y-18841484D01*
X6573431Y-18841484D02*
X6554384Y-18841484D01*
X6554384Y-18841484D02*
X6535336Y-18831960D01*
X6535336Y-18831960D02*
X6525812Y-18822436D01*
X6525812Y-18822436D02*
X6516289Y-18803389D01*
X6516289Y-18803389D02*
X6506765Y-18765294D01*
X6506765Y-18765294D02*
X6506765Y-18717674D01*
X6506765Y-18717674D02*
X6516289Y-18679579D01*
X6516289Y-18679579D02*
X6525812Y-18660532D01*
X6525812Y-18660532D02*
X6535336Y-18651008D01*
X6535336Y-18651008D02*
X6554384Y-18641484D01*
X6706765Y-18822436D02*
X6716289Y-18831960D01*
X6716289Y-18831960D02*
X6706765Y-18841484D01*
X6706765Y-18841484D02*
X6697241Y-18831960D01*
X6697241Y-18831960D02*
X6706765Y-18822436D01*
X6706765Y-18822436D02*
X6706765Y-18841484D01*
X6840098Y-18641484D02*
X6859146Y-18641484D01*
X6859146Y-18641484D02*
X6878193Y-18651008D01*
X6878193Y-18651008D02*
X6887717Y-18660532D01*
X6887717Y-18660532D02*
X6897241Y-18679579D01*
X6897241Y-18679579D02*
X6906765Y-18717674D01*
X6906765Y-18717674D02*
X6906765Y-18765294D01*
X6906765Y-18765294D02*
X6897241Y-18803389D01*
X6897241Y-18803389D02*
X6887717Y-18822436D01*
X6887717Y-18822436D02*
X6878193Y-18831960D01*
X6878193Y-18831960D02*
X6859146Y-18841484D01*
X6859146Y-18841484D02*
X6840098Y-18841484D01*
X6840098Y-18841484D02*
X6821050Y-18831960D01*
X6821050Y-18831960D02*
X6811527Y-18822436D01*
X6811527Y-18822436D02*
X6802003Y-18803389D01*
X6802003Y-18803389D02*
X6792479Y-18765294D01*
X6792479Y-18765294D02*
X6792479Y-18717674D01*
X6792479Y-18717674D02*
X6802003Y-18679579D01*
X6802003Y-18679579D02*
X6811527Y-18660532D01*
X6811527Y-18660532D02*
X6821050Y-18651008D01*
X6821050Y-18651008D02*
X6840098Y-18641484D01*
X6973431Y-18641484D02*
X7097241Y-18641484D01*
X7097241Y-18641484D02*
X7030574Y-18717674D01*
X7030574Y-18717674D02*
X7059146Y-18717674D01*
X7059146Y-18717674D02*
X7078193Y-18727198D01*
X7078193Y-18727198D02*
X7087717Y-18736722D01*
X7087717Y-18736722D02*
X7097241Y-18755770D01*
X7097241Y-18755770D02*
X7097241Y-18803389D01*
X7097241Y-18803389D02*
X7087717Y-18822436D01*
X7087717Y-18822436D02*
X7078193Y-18831960D01*
X7078193Y-18831960D02*
X7059146Y-18841484D01*
X7059146Y-18841484D02*
X7002003Y-18841484D01*
X7002003Y-18841484D02*
X6982955Y-18831960D01*
X6982955Y-18831960D02*
X6973431Y-18822436D01*
X7192479Y-18841484D02*
X7230574Y-18841484D01*
X7230574Y-18841484D02*
X7249622Y-18831960D01*
X7249622Y-18831960D02*
X7259146Y-18822436D01*
X7259146Y-18822436D02*
X7278193Y-18793865D01*
X7278193Y-18793865D02*
X7287717Y-18755770D01*
X7287717Y-18755770D02*
X7287717Y-18679579D01*
X7287717Y-18679579D02*
X7278193Y-18660532D01*
X7278193Y-18660532D02*
X7268670Y-18651008D01*
X7268670Y-18651008D02*
X7249622Y-18641484D01*
X7249622Y-18641484D02*
X7211527Y-18641484D01*
X7211527Y-18641484D02*
X7192479Y-18651008D01*
X7192479Y-18651008D02*
X7182955Y-18660532D01*
X7182955Y-18660532D02*
X7173431Y-18679579D01*
X7173431Y-18679579D02*
X7173431Y-18727198D01*
X7173431Y-18727198D02*
X7182955Y-18746246D01*
X7182955Y-18746246D02*
X7192479Y-18755770D01*
X7192479Y-18755770D02*
X7211527Y-18765294D01*
X7211527Y-18765294D02*
X7249622Y-18765294D01*
X7249622Y-18765294D02*
X7268670Y-18755770D01*
X7268670Y-18755770D02*
X7278193Y-18746246D01*
X7278193Y-18746246D02*
X7287717Y-18727198D01*
X7459146Y-18708151D02*
X7459146Y-18841484D01*
X7411527Y-18631960D02*
X7363908Y-18774817D01*
X7363908Y-18774817D02*
X7487717Y-18774817D01*
X7554384Y-18641484D02*
X7554384Y-18679579D01*
X7630574Y-18641484D02*
X7630574Y-18679579D01*
X7925813Y-18917674D02*
X7916289Y-18908151D01*
X7916289Y-18908151D02*
X7897241Y-18879579D01*
X7897241Y-18879579D02*
X7887717Y-18860532D01*
X7887717Y-18860532D02*
X7878193Y-18831960D01*
X7878193Y-18831960D02*
X7868670Y-18784341D01*
X7868670Y-18784341D02*
X7868670Y-18746246D01*
X7868670Y-18746246D02*
X7878193Y-18698627D01*
X7878193Y-18698627D02*
X7887717Y-18670055D01*
X7887717Y-18670055D02*
X7897241Y-18651008D01*
X7897241Y-18651008D02*
X7916289Y-18622436D01*
X7916289Y-18622436D02*
X7925813Y-18612913D01*
X8030574Y-18727198D02*
X8011527Y-18717674D01*
X8011527Y-18717674D02*
X8002003Y-18708151D01*
X8002003Y-18708151D02*
X7992479Y-18689103D01*
X7992479Y-18689103D02*
X7992479Y-18679579D01*
X7992479Y-18679579D02*
X8002003Y-18660532D01*
X8002003Y-18660532D02*
X8011527Y-18651008D01*
X8011527Y-18651008D02*
X8030574Y-18641484D01*
X8030574Y-18641484D02*
X8068670Y-18641484D01*
X8068670Y-18641484D02*
X8087717Y-18651008D01*
X8087717Y-18651008D02*
X8097241Y-18660532D01*
X8097241Y-18660532D02*
X8106765Y-18679579D01*
X8106765Y-18679579D02*
X8106765Y-18689103D01*
X8106765Y-18689103D02*
X8097241Y-18708151D01*
X8097241Y-18708151D02*
X8087717Y-18717674D01*
X8087717Y-18717674D02*
X8068670Y-18727198D01*
X8068670Y-18727198D02*
X8030574Y-18727198D01*
X8030574Y-18727198D02*
X8011527Y-18736722D01*
X8011527Y-18736722D02*
X8002003Y-18746246D01*
X8002003Y-18746246D02*
X7992479Y-18765294D01*
X7992479Y-18765294D02*
X7992479Y-18803389D01*
X7992479Y-18803389D02*
X8002003Y-18822436D01*
X8002003Y-18822436D02*
X8011527Y-18831960D01*
X8011527Y-18831960D02*
X8030574Y-18841484D01*
X8030574Y-18841484D02*
X8068670Y-18841484D01*
X8068670Y-18841484D02*
X8087717Y-18831960D01*
X8087717Y-18831960D02*
X8097241Y-18822436D01*
X8097241Y-18822436D02*
X8106765Y-18803389D01*
X8106765Y-18803389D02*
X8106765Y-18765294D01*
X8106765Y-18765294D02*
X8097241Y-18746246D01*
X8097241Y-18746246D02*
X8087717Y-18736722D01*
X8087717Y-18736722D02*
X8068670Y-18727198D01*
X8344860Y-18841484D02*
X8344860Y-18641484D01*
X8430575Y-18841484D02*
X8430575Y-18736722D01*
X8430575Y-18736722D02*
X8421051Y-18717674D01*
X8421051Y-18717674D02*
X8402003Y-18708151D01*
X8402003Y-18708151D02*
X8373432Y-18708151D01*
X8373432Y-18708151D02*
X8354384Y-18717674D01*
X8354384Y-18717674D02*
X8344860Y-18727198D01*
X8554384Y-18841484D02*
X8535336Y-18831960D01*
X8535336Y-18831960D02*
X8525813Y-18822436D01*
X8525813Y-18822436D02*
X8516289Y-18803389D01*
X8516289Y-18803389D02*
X8516289Y-18746246D01*
X8516289Y-18746246D02*
X8525813Y-18727198D01*
X8525813Y-18727198D02*
X8535336Y-18717674D01*
X8535336Y-18717674D02*
X8554384Y-18708151D01*
X8554384Y-18708151D02*
X8582956Y-18708151D01*
X8582956Y-18708151D02*
X8602003Y-18717674D01*
X8602003Y-18717674D02*
X8611527Y-18727198D01*
X8611527Y-18727198D02*
X8621051Y-18746246D01*
X8621051Y-18746246D02*
X8621051Y-18803389D01*
X8621051Y-18803389D02*
X8611527Y-18822436D01*
X8611527Y-18822436D02*
X8602003Y-18831960D01*
X8602003Y-18831960D02*
X8582956Y-18841484D01*
X8582956Y-18841484D02*
X8554384Y-18841484D01*
X8735336Y-18841484D02*
X8716289Y-18831960D01*
X8716289Y-18831960D02*
X8706765Y-18812913D01*
X8706765Y-18812913D02*
X8706765Y-18641484D01*
X8887717Y-18831960D02*
X8868670Y-18841484D01*
X8868670Y-18841484D02*
X8830575Y-18841484D01*
X8830575Y-18841484D02*
X8811527Y-18831960D01*
X8811527Y-18831960D02*
X8802003Y-18812913D01*
X8802003Y-18812913D02*
X8802003Y-18736722D01*
X8802003Y-18736722D02*
X8811527Y-18717674D01*
X8811527Y-18717674D02*
X8830575Y-18708151D01*
X8830575Y-18708151D02*
X8868670Y-18708151D01*
X8868670Y-18708151D02*
X8887717Y-18717674D01*
X8887717Y-18717674D02*
X8897241Y-18736722D01*
X8897241Y-18736722D02*
X8897241Y-18755770D01*
X8897241Y-18755770D02*
X8802003Y-18774817D01*
X8973432Y-18831960D02*
X8992479Y-18841484D01*
X8992479Y-18841484D02*
X9030575Y-18841484D01*
X9030575Y-18841484D02*
X9049622Y-18831960D01*
X9049622Y-18831960D02*
X9059146Y-18812913D01*
X9059146Y-18812913D02*
X9059146Y-18803389D01*
X9059146Y-18803389D02*
X9049622Y-18784341D01*
X9049622Y-18784341D02*
X9030575Y-18774817D01*
X9030575Y-18774817D02*
X9002003Y-18774817D01*
X9002003Y-18774817D02*
X8982956Y-18765294D01*
X8982956Y-18765294D02*
X8973432Y-18746246D01*
X8973432Y-18746246D02*
X8973432Y-18736722D01*
X8973432Y-18736722D02*
X8982956Y-18717674D01*
X8982956Y-18717674D02*
X9002003Y-18708151D01*
X9002003Y-18708151D02*
X9030575Y-18708151D01*
X9030575Y-18708151D02*
X9049622Y-18717674D01*
X9297241Y-18765294D02*
X9449622Y-18765294D01*
X9373432Y-18841484D02*
X9373432Y-18689103D01*
X9725813Y-18727198D02*
X9706765Y-18717674D01*
X9706765Y-18717674D02*
X9697241Y-18708151D01*
X9697241Y-18708151D02*
X9687718Y-18689103D01*
X9687718Y-18689103D02*
X9687718Y-18679579D01*
X9687718Y-18679579D02*
X9697241Y-18660532D01*
X9697241Y-18660532D02*
X9706765Y-18651008D01*
X9706765Y-18651008D02*
X9725813Y-18641484D01*
X9725813Y-18641484D02*
X9763908Y-18641484D01*
X9763908Y-18641484D02*
X9782956Y-18651008D01*
X9782956Y-18651008D02*
X9792479Y-18660532D01*
X9792479Y-18660532D02*
X9802003Y-18679579D01*
X9802003Y-18679579D02*
X9802003Y-18689103D01*
X9802003Y-18689103D02*
X9792479Y-18708151D01*
X9792479Y-18708151D02*
X9782956Y-18717674D01*
X9782956Y-18717674D02*
X9763908Y-18727198D01*
X9763908Y-18727198D02*
X9725813Y-18727198D01*
X9725813Y-18727198D02*
X9706765Y-18736722D01*
X9706765Y-18736722D02*
X9697241Y-18746246D01*
X9697241Y-18746246D02*
X9687718Y-18765294D01*
X9687718Y-18765294D02*
X9687718Y-18803389D01*
X9687718Y-18803389D02*
X9697241Y-18822436D01*
X9697241Y-18822436D02*
X9706765Y-18831960D01*
X9706765Y-18831960D02*
X9725813Y-18841484D01*
X9725813Y-18841484D02*
X9763908Y-18841484D01*
X9763908Y-18841484D02*
X9782956Y-18831960D01*
X9782956Y-18831960D02*
X9792479Y-18822436D01*
X9792479Y-18822436D02*
X9802003Y-18803389D01*
X9802003Y-18803389D02*
X9802003Y-18765294D01*
X9802003Y-18765294D02*
X9792479Y-18746246D01*
X9792479Y-18746246D02*
X9782956Y-18736722D01*
X9782956Y-18736722D02*
X9763908Y-18727198D01*
X10030575Y-18831960D02*
X10049622Y-18841484D01*
X10049622Y-18841484D02*
X10087718Y-18841484D01*
X10087718Y-18841484D02*
X10106765Y-18831960D01*
X10106765Y-18831960D02*
X10116289Y-18812913D01*
X10116289Y-18812913D02*
X10116289Y-18803389D01*
X10116289Y-18803389D02*
X10106765Y-18784341D01*
X10106765Y-18784341D02*
X10087718Y-18774817D01*
X10087718Y-18774817D02*
X10059146Y-18774817D01*
X10059146Y-18774817D02*
X10040099Y-18765294D01*
X10040099Y-18765294D02*
X10030575Y-18746246D01*
X10030575Y-18746246D02*
X10030575Y-18736722D01*
X10030575Y-18736722D02*
X10040099Y-18717674D01*
X10040099Y-18717674D02*
X10059146Y-18708151D01*
X10059146Y-18708151D02*
X10087718Y-18708151D01*
X10087718Y-18708151D02*
X10106765Y-18717674D01*
X10230575Y-18841484D02*
X10211527Y-18831960D01*
X10211527Y-18831960D02*
X10202003Y-18812913D01*
X10202003Y-18812913D02*
X10202003Y-18641484D01*
X10335337Y-18841484D02*
X10316289Y-18831960D01*
X10316289Y-18831960D02*
X10306765Y-18822436D01*
X10306765Y-18822436D02*
X10297241Y-18803389D01*
X10297241Y-18803389D02*
X10297241Y-18746246D01*
X10297241Y-18746246D02*
X10306765Y-18727198D01*
X10306765Y-18727198D02*
X10316289Y-18717674D01*
X10316289Y-18717674D02*
X10335337Y-18708151D01*
X10335337Y-18708151D02*
X10363908Y-18708151D01*
X10363908Y-18708151D02*
X10382956Y-18717674D01*
X10382956Y-18717674D02*
X10392480Y-18727198D01*
X10392480Y-18727198D02*
X10402003Y-18746246D01*
X10402003Y-18746246D02*
X10402003Y-18803389D01*
X10402003Y-18803389D02*
X10392480Y-18822436D01*
X10392480Y-18822436D02*
X10382956Y-18831960D01*
X10382956Y-18831960D02*
X10363908Y-18841484D01*
X10363908Y-18841484D02*
X10335337Y-18841484D01*
X10459146Y-18708151D02*
X10535337Y-18708151D01*
X10487718Y-18641484D02*
X10487718Y-18812913D01*
X10487718Y-18812913D02*
X10497241Y-18831960D01*
X10497241Y-18831960D02*
X10516289Y-18841484D01*
X10516289Y-18841484D02*
X10535337Y-18841484D01*
X10592480Y-18831960D02*
X10611527Y-18841484D01*
X10611527Y-18841484D02*
X10649622Y-18841484D01*
X10649622Y-18841484D02*
X10668670Y-18831960D01*
X10668670Y-18831960D02*
X10678194Y-18812913D01*
X10678194Y-18812913D02*
X10678194Y-18803389D01*
X10678194Y-18803389D02*
X10668670Y-18784341D01*
X10668670Y-18784341D02*
X10649622Y-18774817D01*
X10649622Y-18774817D02*
X10621051Y-18774817D01*
X10621051Y-18774817D02*
X10602003Y-18765294D01*
X10602003Y-18765294D02*
X10592480Y-18746246D01*
X10592480Y-18746246D02*
X10592480Y-18736722D01*
X10592480Y-18736722D02*
X10602003Y-18717674D01*
X10602003Y-18717674D02*
X10621051Y-18708151D01*
X10621051Y-18708151D02*
X10649622Y-18708151D01*
X10649622Y-18708151D02*
X10668670Y-18717674D01*
X10744861Y-18917674D02*
X10754384Y-18908151D01*
X10754384Y-18908151D02*
X10773432Y-18879579D01*
X10773432Y-18879579D02*
X10782956Y-18860532D01*
X10782956Y-18860532D02*
X10792480Y-18831960D01*
X10792480Y-18831960D02*
X10802003Y-18784341D01*
X10802003Y-18784341D02*
X10802003Y-18746246D01*
X10802003Y-18746246D02*
X10792480Y-18698627D01*
X10792480Y-18698627D02*
X10782956Y-18670055D01*
X10782956Y-18670055D02*
X10773432Y-18651008D01*
X10773432Y-18651008D02*
X10754384Y-18622436D01*
X10754384Y-18622436D02*
X10744861Y-18612913D01*
D12*
X4285750Y-19079000D02*
X4350750Y-19014000D01*
X4285750Y-18949000D01*
X4220750Y-19014000D01*
X4285750Y-19079000D01*
D10*
X4716288Y-19105484D02*
X4602003Y-19105484D01*
X4659146Y-19105484D02*
X4659146Y-18905484D01*
X4659146Y-18905484D02*
X4640098Y-18934055D01*
X4640098Y-18934055D02*
X4621050Y-18953103D01*
X4621050Y-18953103D02*
X4602003Y-18962627D01*
X4802003Y-19086436D02*
X4811527Y-19095960D01*
X4811527Y-19095960D02*
X4802003Y-19105484D01*
X4802003Y-19105484D02*
X4792479Y-19095960D01*
X4792479Y-19095960D02*
X4802003Y-19086436D01*
X4802003Y-19086436D02*
X4802003Y-19105484D01*
X4878193Y-18905484D02*
X5002003Y-18905484D01*
X5002003Y-18905484D02*
X4935336Y-18981674D01*
X4935336Y-18981674D02*
X4963908Y-18981674D01*
X4963908Y-18981674D02*
X4982955Y-18991198D01*
X4982955Y-18991198D02*
X4992479Y-19000722D01*
X4992479Y-19000722D02*
X5002003Y-19019770D01*
X5002003Y-19019770D02*
X5002003Y-19067389D01*
X5002003Y-19067389D02*
X4992479Y-19086436D01*
X4992479Y-19086436D02*
X4982955Y-19095960D01*
X4982955Y-19095960D02*
X4963908Y-19105484D01*
X4963908Y-19105484D02*
X4906765Y-19105484D01*
X4906765Y-19105484D02*
X4887717Y-19095960D01*
X4887717Y-19095960D02*
X4878193Y-19086436D01*
X5125812Y-18905484D02*
X5144860Y-18905484D01*
X5144860Y-18905484D02*
X5163908Y-18915008D01*
X5163908Y-18915008D02*
X5173431Y-18924532D01*
X5173431Y-18924532D02*
X5182955Y-18943579D01*
X5182955Y-18943579D02*
X5192479Y-18981674D01*
X5192479Y-18981674D02*
X5192479Y-19029294D01*
X5192479Y-19029294D02*
X5182955Y-19067389D01*
X5182955Y-19067389D02*
X5173431Y-19086436D01*
X5173431Y-19086436D02*
X5163908Y-19095960D01*
X5163908Y-19095960D02*
X5144860Y-19105484D01*
X5144860Y-19105484D02*
X5125812Y-19105484D01*
X5125812Y-19105484D02*
X5106765Y-19095960D01*
X5106765Y-19095960D02*
X5097241Y-19086436D01*
X5097241Y-19086436D02*
X5087717Y-19067389D01*
X5087717Y-19067389D02*
X5078193Y-19029294D01*
X5078193Y-19029294D02*
X5078193Y-18981674D01*
X5078193Y-18981674D02*
X5087717Y-18943579D01*
X5087717Y-18943579D02*
X5097241Y-18924532D01*
X5097241Y-18924532D02*
X5106765Y-18915008D01*
X5106765Y-18915008D02*
X5125812Y-18905484D01*
X5316288Y-18905484D02*
X5335336Y-18905484D01*
X5335336Y-18905484D02*
X5354384Y-18915008D01*
X5354384Y-18915008D02*
X5363908Y-18924532D01*
X5363908Y-18924532D02*
X5373431Y-18943579D01*
X5373431Y-18943579D02*
X5382955Y-18981674D01*
X5382955Y-18981674D02*
X5382955Y-19029294D01*
X5382955Y-19029294D02*
X5373431Y-19067389D01*
X5373431Y-19067389D02*
X5363908Y-19086436D01*
X5363908Y-19086436D02*
X5354384Y-19095960D01*
X5354384Y-19095960D02*
X5335336Y-19105484D01*
X5335336Y-19105484D02*
X5316288Y-19105484D01*
X5316288Y-19105484D02*
X5297241Y-19095960D01*
X5297241Y-19095960D02*
X5287717Y-19086436D01*
X5287717Y-19086436D02*
X5278193Y-19067389D01*
X5278193Y-19067389D02*
X5268669Y-19029294D01*
X5268669Y-19029294D02*
X5268669Y-18981674D01*
X5268669Y-18981674D02*
X5278193Y-18943579D01*
X5278193Y-18943579D02*
X5287717Y-18924532D01*
X5287717Y-18924532D02*
X5297241Y-18915008D01*
X5297241Y-18915008D02*
X5316288Y-18905484D01*
X5468669Y-19105484D02*
X5468669Y-18972151D01*
X5468669Y-18991198D02*
X5478193Y-18981674D01*
X5478193Y-18981674D02*
X5497241Y-18972151D01*
X5497241Y-18972151D02*
X5525812Y-18972151D01*
X5525812Y-18972151D02*
X5544860Y-18981674D01*
X5544860Y-18981674D02*
X5554384Y-19000722D01*
X5554384Y-19000722D02*
X5554384Y-19105484D01*
X5554384Y-19000722D02*
X5563908Y-18981674D01*
X5563908Y-18981674D02*
X5582955Y-18972151D01*
X5582955Y-18972151D02*
X5611526Y-18972151D01*
X5611526Y-18972151D02*
X5630574Y-18981674D01*
X5630574Y-18981674D02*
X5640098Y-19000722D01*
X5640098Y-19000722D02*
X5640098Y-19105484D01*
X5735336Y-19105484D02*
X5735336Y-18972151D01*
X5735336Y-18991198D02*
X5744860Y-18981674D01*
X5744860Y-18981674D02*
X5763907Y-18972151D01*
X5763907Y-18972151D02*
X5792479Y-18972151D01*
X5792479Y-18972151D02*
X5811527Y-18981674D01*
X5811527Y-18981674D02*
X5821050Y-19000722D01*
X5821050Y-19000722D02*
X5821050Y-19105484D01*
X5821050Y-19000722D02*
X5830574Y-18981674D01*
X5830574Y-18981674D02*
X5849622Y-18972151D01*
X5849622Y-18972151D02*
X5878193Y-18972151D01*
X5878193Y-18972151D02*
X5897241Y-18981674D01*
X5897241Y-18981674D02*
X5906765Y-19000722D01*
X5906765Y-19000722D02*
X5906765Y-19105484D01*
X6297241Y-18895960D02*
X6125812Y-19153103D01*
X6554384Y-18905484D02*
X6573431Y-18905484D01*
X6573431Y-18905484D02*
X6592479Y-18915008D01*
X6592479Y-18915008D02*
X6602003Y-18924532D01*
X6602003Y-18924532D02*
X6611527Y-18943579D01*
X6611527Y-18943579D02*
X6621050Y-18981674D01*
X6621050Y-18981674D02*
X6621050Y-19029294D01*
X6621050Y-19029294D02*
X6611527Y-19067389D01*
X6611527Y-19067389D02*
X6602003Y-19086436D01*
X6602003Y-19086436D02*
X6592479Y-19095960D01*
X6592479Y-19095960D02*
X6573431Y-19105484D01*
X6573431Y-19105484D02*
X6554384Y-19105484D01*
X6554384Y-19105484D02*
X6535336Y-19095960D01*
X6535336Y-19095960D02*
X6525812Y-19086436D01*
X6525812Y-19086436D02*
X6516289Y-19067389D01*
X6516289Y-19067389D02*
X6506765Y-19029294D01*
X6506765Y-19029294D02*
X6506765Y-18981674D01*
X6506765Y-18981674D02*
X6516289Y-18943579D01*
X6516289Y-18943579D02*
X6525812Y-18924532D01*
X6525812Y-18924532D02*
X6535336Y-18915008D01*
X6535336Y-18915008D02*
X6554384Y-18905484D01*
X6706765Y-19086436D02*
X6716289Y-19095960D01*
X6716289Y-19095960D02*
X6706765Y-19105484D01*
X6706765Y-19105484D02*
X6697241Y-19095960D01*
X6697241Y-19095960D02*
X6706765Y-19086436D01*
X6706765Y-19086436D02*
X6706765Y-19105484D01*
X6840098Y-18905484D02*
X6859146Y-18905484D01*
X6859146Y-18905484D02*
X6878193Y-18915008D01*
X6878193Y-18915008D02*
X6887717Y-18924532D01*
X6887717Y-18924532D02*
X6897241Y-18943579D01*
X6897241Y-18943579D02*
X6906765Y-18981674D01*
X6906765Y-18981674D02*
X6906765Y-19029294D01*
X6906765Y-19029294D02*
X6897241Y-19067389D01*
X6897241Y-19067389D02*
X6887717Y-19086436D01*
X6887717Y-19086436D02*
X6878193Y-19095960D01*
X6878193Y-19095960D02*
X6859146Y-19105484D01*
X6859146Y-19105484D02*
X6840098Y-19105484D01*
X6840098Y-19105484D02*
X6821050Y-19095960D01*
X6821050Y-19095960D02*
X6811527Y-19086436D01*
X6811527Y-19086436D02*
X6802003Y-19067389D01*
X6802003Y-19067389D02*
X6792479Y-19029294D01*
X6792479Y-19029294D02*
X6792479Y-18981674D01*
X6792479Y-18981674D02*
X6802003Y-18943579D01*
X6802003Y-18943579D02*
X6811527Y-18924532D01*
X6811527Y-18924532D02*
X6821050Y-18915008D01*
X6821050Y-18915008D02*
X6840098Y-18905484D01*
X7087717Y-18905484D02*
X6992479Y-18905484D01*
X6992479Y-18905484D02*
X6982955Y-19000722D01*
X6982955Y-19000722D02*
X6992479Y-18991198D01*
X6992479Y-18991198D02*
X7011527Y-18981674D01*
X7011527Y-18981674D02*
X7059146Y-18981674D01*
X7059146Y-18981674D02*
X7078193Y-18991198D01*
X7078193Y-18991198D02*
X7087717Y-19000722D01*
X7087717Y-19000722D02*
X7097241Y-19019770D01*
X7097241Y-19019770D02*
X7097241Y-19067389D01*
X7097241Y-19067389D02*
X7087717Y-19086436D01*
X7087717Y-19086436D02*
X7078193Y-19095960D01*
X7078193Y-19095960D02*
X7059146Y-19105484D01*
X7059146Y-19105484D02*
X7011527Y-19105484D01*
X7011527Y-19105484D02*
X6992479Y-19095960D01*
X6992479Y-19095960D02*
X6982955Y-19086436D01*
X7287717Y-19105484D02*
X7173431Y-19105484D01*
X7230574Y-19105484D02*
X7230574Y-18905484D01*
X7230574Y-18905484D02*
X7211527Y-18934055D01*
X7211527Y-18934055D02*
X7192479Y-18953103D01*
X7192479Y-18953103D02*
X7173431Y-18962627D01*
X7363908Y-18924532D02*
X7373431Y-18915008D01*
X7373431Y-18915008D02*
X7392479Y-18905484D01*
X7392479Y-18905484D02*
X7440098Y-18905484D01*
X7440098Y-18905484D02*
X7459146Y-18915008D01*
X7459146Y-18915008D02*
X7468670Y-18924532D01*
X7468670Y-18924532D02*
X7478193Y-18943579D01*
X7478193Y-18943579D02*
X7478193Y-18962627D01*
X7478193Y-18962627D02*
X7468670Y-18991198D01*
X7468670Y-18991198D02*
X7354384Y-19105484D01*
X7354384Y-19105484D02*
X7478193Y-19105484D01*
X7554384Y-18905484D02*
X7554384Y-18943579D01*
X7630574Y-18905484D02*
X7630574Y-18943579D01*
X7925813Y-19181674D02*
X7916289Y-19172151D01*
X7916289Y-19172151D02*
X7897241Y-19143579D01*
X7897241Y-19143579D02*
X7887717Y-19124532D01*
X7887717Y-19124532D02*
X7878193Y-19095960D01*
X7878193Y-19095960D02*
X7868670Y-19048341D01*
X7868670Y-19048341D02*
X7868670Y-19010246D01*
X7868670Y-19010246D02*
X7878193Y-18962627D01*
X7878193Y-18962627D02*
X7887717Y-18934055D01*
X7887717Y-18934055D02*
X7897241Y-18915008D01*
X7897241Y-18915008D02*
X7916289Y-18886436D01*
X7916289Y-18886436D02*
X7925813Y-18876913D01*
X8087717Y-18972151D02*
X8087717Y-19105484D01*
X8040098Y-18895960D02*
X7992479Y-19038817D01*
X7992479Y-19038817D02*
X8116289Y-19038817D01*
X8344860Y-19105484D02*
X8344860Y-18905484D01*
X8430575Y-19105484D02*
X8430575Y-19000722D01*
X8430575Y-19000722D02*
X8421051Y-18981674D01*
X8421051Y-18981674D02*
X8402003Y-18972151D01*
X8402003Y-18972151D02*
X8373432Y-18972151D01*
X8373432Y-18972151D02*
X8354384Y-18981674D01*
X8354384Y-18981674D02*
X8344860Y-18991198D01*
X8554384Y-19105484D02*
X8535336Y-19095960D01*
X8535336Y-19095960D02*
X8525813Y-19086436D01*
X8525813Y-19086436D02*
X8516289Y-19067389D01*
X8516289Y-19067389D02*
X8516289Y-19010246D01*
X8516289Y-19010246D02*
X8525813Y-18991198D01*
X8525813Y-18991198D02*
X8535336Y-18981674D01*
X8535336Y-18981674D02*
X8554384Y-18972151D01*
X8554384Y-18972151D02*
X8582956Y-18972151D01*
X8582956Y-18972151D02*
X8602003Y-18981674D01*
X8602003Y-18981674D02*
X8611527Y-18991198D01*
X8611527Y-18991198D02*
X8621051Y-19010246D01*
X8621051Y-19010246D02*
X8621051Y-19067389D01*
X8621051Y-19067389D02*
X8611527Y-19086436D01*
X8611527Y-19086436D02*
X8602003Y-19095960D01*
X8602003Y-19095960D02*
X8582956Y-19105484D01*
X8582956Y-19105484D02*
X8554384Y-19105484D01*
X8735336Y-19105484D02*
X8716289Y-19095960D01*
X8716289Y-19095960D02*
X8706765Y-19076913D01*
X8706765Y-19076913D02*
X8706765Y-18905484D01*
X8887717Y-19095960D02*
X8868670Y-19105484D01*
X8868670Y-19105484D02*
X8830575Y-19105484D01*
X8830575Y-19105484D02*
X8811527Y-19095960D01*
X8811527Y-19095960D02*
X8802003Y-19076913D01*
X8802003Y-19076913D02*
X8802003Y-19000722D01*
X8802003Y-19000722D02*
X8811527Y-18981674D01*
X8811527Y-18981674D02*
X8830575Y-18972151D01*
X8830575Y-18972151D02*
X8868670Y-18972151D01*
X8868670Y-18972151D02*
X8887717Y-18981674D01*
X8887717Y-18981674D02*
X8897241Y-19000722D01*
X8897241Y-19000722D02*
X8897241Y-19019770D01*
X8897241Y-19019770D02*
X8802003Y-19038817D01*
X8973432Y-19095960D02*
X8992479Y-19105484D01*
X8992479Y-19105484D02*
X9030575Y-19105484D01*
X9030575Y-19105484D02*
X9049622Y-19095960D01*
X9049622Y-19095960D02*
X9059146Y-19076913D01*
X9059146Y-19076913D02*
X9059146Y-19067389D01*
X9059146Y-19067389D02*
X9049622Y-19048341D01*
X9049622Y-19048341D02*
X9030575Y-19038817D01*
X9030575Y-19038817D02*
X9002003Y-19038817D01*
X9002003Y-19038817D02*
X8982956Y-19029294D01*
X8982956Y-19029294D02*
X8973432Y-19010246D01*
X8973432Y-19010246D02*
X8973432Y-19000722D01*
X8973432Y-19000722D02*
X8982956Y-18981674D01*
X8982956Y-18981674D02*
X9002003Y-18972151D01*
X9002003Y-18972151D02*
X9030575Y-18972151D01*
X9030575Y-18972151D02*
X9049622Y-18981674D01*
X9125813Y-19181674D02*
X9135337Y-19172151D01*
X9135337Y-19172151D02*
X9154384Y-19143579D01*
X9154384Y-19143579D02*
X9163908Y-19124532D01*
X9163908Y-19124532D02*
X9173432Y-19095960D01*
X9173432Y-19095960D02*
X9182956Y-19048341D01*
X9182956Y-19048341D02*
X9182956Y-19010246D01*
X9182956Y-19010246D02*
X9173432Y-18962627D01*
X9173432Y-18962627D02*
X9163908Y-18934055D01*
X9163908Y-18934055D02*
X9154384Y-18915008D01*
X9154384Y-18915008D02*
X9135337Y-18886436D01*
X9135337Y-18886436D02*
X9125813Y-18876913D01*
M02*
