G04 #@! TF.GenerationSoftware,KiCad,Pcbnew,8.0.1*
G04 #@! TF.CreationDate,2024-04-22T22:15:04+02:00*
G04 #@! TF.ProjectId,cornia,636f726e-6961-42e6-9b69-6361645f7063,3.0.1*
G04 #@! TF.SameCoordinates,Original*
G04 #@! TF.FileFunction,Profile,NP*
%FSLAX46Y46*%
G04 Gerber Fmt 4.6, Leading zero omitted, Abs format (unit mm)*
G04 Created by KiCad (PCBNEW 8.0.1) date 2024-04-22 22:15:04*
%MOMM*%
%LPD*%
G01*
G04 APERTURE LIST*
G04 #@! TA.AperFunction,Profile*
%ADD10C,0.200000*%
G04 #@! TD*
%ADD11C,0.200000*%
G04 #@! TA.AperFunction,Profile*
%ADD12C,0.100000*%
G04 #@! TD*
G04 APERTURE END LIST*
D10*
X271245754Y-145071550D02*
G75*
G02*
X268533026Y-148573935I-2955954J-512250D01*
G01*
X338007499Y-138279999D02*
X328010140Y-138279999D01*
X363007499Y-52780002D02*
X303107500Y-52780002D01*
X290025395Y-52772895D02*
X118489605Y-52787107D01*
X140081976Y-148573914D02*
G75*
G02*
X137369266Y-145071555I243224J2990114D01*
G01*
X363007502Y-146280000D02*
G75*
G02*
X365007500Y-148279999I-2J-2000000D01*
G01*
X342021713Y-146280000D02*
X346025395Y-146272891D01*
X68607498Y-166065785D02*
X68593286Y-148279999D01*
X137792411Y-129064168D02*
G75*
G02*
X139667836Y-131807527I-444411J-2316532D01*
G01*
X43607500Y-81279999D02*
X43607500Y-142280003D01*
X105407500Y-54779996D02*
X104684859Y-54780000D01*
X43607500Y-49779999D02*
X43607497Y-50779998D01*
X49325395Y-144272895D02*
G75*
G02*
X50325405Y-145272893I5J-1000005D01*
G01*
X363007501Y-79279999D02*
G75*
G02*
X365007501Y-81279998I99J-1999901D01*
G01*
X62247500Y-77279998D02*
G75*
G02*
X60247497Y-79280000I-2000000J-2D01*
G01*
X346367499Y-74279998D02*
X346367499Y-77279997D01*
X305344352Y-55365784D02*
X309172783Y-59194214D01*
X359107501Y-146279998D02*
X363007502Y-146280000D01*
X68607501Y-142279998D02*
X68607500Y-140280000D01*
X329727502Y-72279999D02*
G75*
G02*
X327727501Y-70279997I-2J1999999D01*
G01*
X60247497Y-79280000D02*
X45607498Y-79280000D01*
X303107501Y-54779998D02*
G75*
G02*
X302107502Y-53780000I-1J999998D01*
G01*
X80887500Y-61779999D02*
X80887500Y-70279998D01*
X290025395Y-54772891D02*
X289244860Y-54779999D01*
X124512781Y-59094213D02*
X120784356Y-55365788D01*
X62247500Y-74279999D02*
X62247500Y-77279998D01*
X137859070Y-59680000D02*
G75*
G02*
X139273301Y-60265773I30J-2000000D01*
G01*
X340021715Y-148279999D02*
X340007503Y-166065785D01*
X346025395Y-144280000D02*
G75*
G02*
X347018300Y-145272893I5J-992900D01*
G01*
D11*
X137792411Y-129064168D02*
X135639628Y-128773267D01*
X133527468Y-128516523D01*
X131454453Y-128294203D01*
X129419105Y-128106571D01*
X127419948Y-127953893D01*
X125455505Y-127836435D01*
X123524297Y-127754462D01*
X121624849Y-127708240D01*
X119755682Y-127698036D01*
X117915321Y-127724113D01*
X116102287Y-127786738D01*
X114315104Y-127886177D01*
X112552294Y-128022695D01*
X110812380Y-128196558D01*
X109093885Y-128408032D01*
X107395333Y-128657381D01*
X105715245Y-128944873D01*
X104052145Y-129270771D01*
X102404556Y-129635343D01*
X100770999Y-130038854D01*
X99150000Y-130481568D01*
X97540079Y-130963753D01*
X95939760Y-131485673D01*
X94347567Y-132047595D01*
X92762021Y-132649783D01*
X91181645Y-133292504D01*
X89604963Y-133976023D01*
X88030497Y-134700605D01*
X86456771Y-135466517D01*
X84882306Y-136274024D01*
X83305626Y-137123392D01*
X81725255Y-138014886D01*
D10*
X78887497Y-72280000D02*
X64247498Y-72280000D01*
X310586992Y-59779999D02*
G75*
G02*
X309172765Y-59194232I8J2000099D01*
G01*
X340007501Y-166065785D02*
G75*
G02*
X337908327Y-168077592I-2000001J-14215D01*
G01*
X346025395Y-144280000D02*
X342007501Y-144280000D01*
X365007499Y-81279998D02*
X365007499Y-142280002D01*
X140081976Y-148573915D02*
G75*
G02*
X189597784Y-165394822I-8693576J-106881785D01*
G01*
X363007502Y-47780000D02*
X45607498Y-47780000D01*
X68607501Y-140279999D02*
G75*
G02*
X70607500Y-138280001I1999999J-1D01*
G01*
X45607499Y-144280001D02*
G75*
G02*
X43607499Y-142280003I1J2000001D01*
G01*
X81725255Y-138014886D02*
G75*
G02*
X80604859Y-138279982I-1120355J2234886D01*
G01*
X50325394Y-145272893D02*
G75*
G02*
X49325395Y-146272894I-999994J-7D01*
G01*
X119370139Y-54780000D02*
G75*
G02*
X120784336Y-55365808I-39J-2000000D01*
G01*
X105407500Y-52780000D02*
G75*
G02*
X106407500Y-53779998I0J-1000000D01*
G01*
X363007499Y-173080002D02*
X45607501Y-173080002D01*
X43607500Y-81279999D02*
G75*
G02*
X45607498Y-79280000I2000000J-1D01*
G01*
X43607500Y-148280000D02*
X43607498Y-171080000D01*
X178607500Y-62280000D02*
X142115927Y-62280000D01*
X213338472Y-163958386D02*
X205790858Y-150191511D01*
X66593288Y-146280000D02*
G75*
G02*
X68593300Y-148279999I12J-2000000D01*
G01*
X267913286Y-61694212D02*
G75*
G02*
X266499072Y-62279979I-1414186J1414212D01*
G01*
X303930140Y-54780000D02*
G75*
G02*
X305344323Y-55365813I-140J-2000200D01*
G01*
X365007499Y-142280002D02*
G75*
G02*
X363007500Y-144279999I-1999999J2D01*
G01*
X142115927Y-62280000D02*
G75*
G02*
X140701699Y-61694227I-27J2000000D01*
G01*
X195276527Y-163958387D02*
X202824141Y-150191512D01*
X62247500Y-74279999D02*
G75*
G02*
X64247498Y-72280000I2000000J-1D01*
G01*
X269341699Y-60265773D02*
G75*
G02*
X270755929Y-59680000I1414201J-1414227D01*
G01*
X45607501Y-173080002D02*
G75*
G02*
X43607498Y-171080000I-1J2000002D01*
G01*
X70607500Y-138280000D02*
X80604859Y-138280000D01*
X140701713Y-61694213D02*
X139273287Y-60265787D01*
X219017227Y-165394841D02*
G75*
G02*
X268533026Y-148573937I58209373J-90060859D01*
G01*
X178607500Y-62280000D02*
G75*
G02*
X180607500Y-64279999I0J-2000000D01*
G01*
X125926995Y-59680000D02*
G75*
G02*
X124512783Y-59094211I5J2000000D01*
G01*
X45607499Y-144280001D02*
X49325395Y-144272895D01*
X223035696Y-135358715D02*
X207532024Y-143543572D01*
X98028007Y-59780000D02*
X82887498Y-59780000D01*
X365007502Y-50780002D02*
X365007499Y-49780001D01*
X228007500Y-64279998D02*
G75*
G02*
X230007499Y-62280000I2000000J-2D01*
G01*
X342007501Y-144280000D02*
G75*
G02*
X340007500Y-142279997I-1J2000000D01*
G01*
X119370139Y-54780000D02*
X118489606Y-54787103D01*
X290025395Y-52772895D02*
G75*
G02*
X291025405Y-53772893I5J-1000005D01*
G01*
X338007499Y-138279999D02*
G75*
G02*
X340007501Y-140279998I1J-2000001D01*
G01*
X340007498Y-142279997D02*
X340007499Y-140279999D01*
X205790860Y-150191510D02*
G75*
G02*
X207532002Y-143543537I4384340J2403710D01*
G01*
X310586992Y-59779999D02*
X325727501Y-59779999D01*
X348367502Y-79279999D02*
X363007501Y-79279999D01*
X303930140Y-54780000D02*
X303107501Y-54779998D01*
X230007499Y-62279999D02*
X266499072Y-62279999D01*
X68607500Y-142279998D02*
G75*
G02*
X66607498Y-144280000I-2000000J-2D01*
G01*
X291025394Y-53772893D02*
G75*
G02*
X290025395Y-54772894I-999994J-7D01*
G01*
X43607500Y-148279999D02*
G75*
G02*
X45607498Y-146280000I2000000J-1D01*
G01*
X80887500Y-70279998D02*
G75*
G02*
X78887497Y-72280000I-2000000J-2D01*
G01*
X201082975Y-143543574D02*
G75*
G02*
X202824102Y-150191490I-2643175J-4244226D01*
G01*
X45607500Y-52780000D02*
G75*
G02*
X43607500Y-50779998I0J2000000D01*
G01*
X106407499Y-53779998D02*
G75*
G02*
X105407500Y-54779999I-999999J-2D01*
G01*
X268947221Y-131807515D02*
G75*
G02*
X270822577Y-129064111I2319779J426915D01*
G01*
X327727499Y-61779998D02*
X327727499Y-70279997D01*
X70706674Y-168077592D02*
G75*
G02*
X68607499Y-166065785I-99174J1997592D01*
G01*
X185579303Y-135358716D02*
G75*
G02*
X180607500Y-128780000I2528197J7078716D01*
G01*
X284102218Y-59094212D02*
X287830643Y-55365787D01*
X287830644Y-55365788D02*
G75*
G02*
X289244860Y-54780024I1414056J-1413912D01*
G01*
X365007502Y-171080000D02*
G75*
G02*
X363007499Y-173080002I-2000002J0D01*
G01*
X62407501Y-146279998D02*
G75*
G02*
X61407502Y-145280000I-1J999998D01*
G01*
X329727502Y-72279999D02*
X344367501Y-72279999D01*
X185579303Y-135358716D02*
X201082975Y-143543573D01*
X270755929Y-59679999D02*
X282688004Y-59679999D01*
X365007502Y-171080000D02*
X365007500Y-148280000D01*
X365007502Y-50780002D02*
G75*
G02*
X363007499Y-52780002I-2000002J2D01*
G01*
X195276527Y-163958387D02*
G75*
G02*
X189597812Y-165394779I-3507427J1922987D01*
G01*
X117489607Y-53787105D02*
G75*
G02*
X118489605Y-52787107I999993J5D01*
G01*
X344367501Y-72279999D02*
G75*
G02*
X346367501Y-74279998I-1J-2000001D01*
G01*
X219017221Y-165394829D02*
G75*
G02*
X213338420Y-163958414I-2171321J3359429D01*
G01*
X284102218Y-59094212D02*
G75*
G02*
X282688004Y-59679960I-1414118J1414112D01*
G01*
X180607500Y-128780000D02*
X180607499Y-64279999D01*
X228007499Y-128779999D02*
G75*
G02*
X223035696Y-135358715I-7499999J499999D01*
G01*
X103270647Y-55365785D02*
X99442216Y-59194215D01*
X359107501Y-146279998D02*
G75*
G02*
X358107502Y-145280000I-1J999998D01*
G01*
X99442213Y-59194212D02*
G75*
G02*
X98028007Y-59779999I-1414213J1414212D01*
G01*
X103270648Y-55365786D02*
G75*
G02*
X104684859Y-54779972I1414252J-1414214D01*
G01*
X325727501Y-59779999D02*
G75*
G02*
X327727501Y-61779998I-1J-2000001D01*
G01*
X62407500Y-144280002D02*
X66607498Y-144280001D01*
X118489606Y-54787103D02*
G75*
G02*
X117489597Y-53787105I-6J1000003D01*
G01*
X80887500Y-61779999D02*
G75*
G02*
X82887498Y-59780000I2000000J-1D01*
G01*
X348367502Y-79279999D02*
G75*
G02*
X346367501Y-77279997I-2J1999999D01*
G01*
X43607500Y-49779999D02*
G75*
G02*
X45607498Y-47780000I2000000J-1D01*
G01*
X363007502Y-47780001D02*
G75*
G02*
X365007499Y-49780000I-2J-1999999D01*
G01*
X45607501Y-146280000D02*
X49325395Y-146272891D01*
X347025394Y-145272893D02*
G75*
G02*
X346025395Y-146272894I-999994J-7D01*
G01*
X139667779Y-131807516D02*
X137369243Y-145071551D01*
X359107500Y-144280002D02*
X363007500Y-144280000D01*
X267913286Y-61694212D02*
X269341699Y-60265773D01*
X268947220Y-131807515D02*
X271245756Y-145071550D01*
X61407502Y-145280000D02*
G75*
G02*
X62407500Y-144280002I999998J0D01*
G01*
X105407500Y-52780000D02*
X45607500Y-52780000D01*
X62407501Y-146279998D02*
X66593288Y-146280000D01*
X328010140Y-138280000D02*
G75*
G02*
X326889735Y-138014903I-140J2499600D01*
G01*
X137859070Y-59680000D02*
X125926995Y-59680000D01*
X337908327Y-168077592D02*
X70707500Y-168080000D01*
D11*
X270822588Y-129064167D02*
X272975370Y-128773266D01*
X275087530Y-128516522D01*
X277160545Y-128294202D01*
X279195893Y-128106570D01*
X281195050Y-127953892D01*
X283159493Y-127836434D01*
X285090701Y-127754461D01*
X286990149Y-127708239D01*
X288859316Y-127698035D01*
X290699677Y-127724112D01*
X292512711Y-127786737D01*
X294299894Y-127886176D01*
X296062704Y-128022694D01*
X297802618Y-128196557D01*
X299521113Y-128408031D01*
X301219665Y-128657380D01*
X302899753Y-128944872D01*
X304562853Y-129270770D01*
X306210442Y-129635342D01*
X307843999Y-130038853D01*
X309464998Y-130481567D01*
X311074919Y-130963752D01*
X312675238Y-131485672D01*
X314267431Y-132047594D01*
X315852977Y-132649782D01*
X317433353Y-133292503D01*
X319010035Y-133976022D01*
X320584501Y-134700604D01*
X322158227Y-135466516D01*
X323732692Y-136274023D01*
X325309372Y-137123391D01*
X326889744Y-138014885D01*
D10*
X358107502Y-145280000D02*
G75*
G02*
X359107500Y-144280002I999998J0D01*
G01*
X340021715Y-148279999D02*
G75*
G02*
X342021713Y-146280015I1999985J-1D01*
G01*
X302107502Y-53780000D02*
G75*
G02*
X303107500Y-52780002I999998J0D01*
G01*
X228007499Y-128779999D02*
X228007500Y-64279998D01*
D12*
X54259500Y-97254500D02*
X54259500Y-100354500D01*
X54259500Y-100354500D02*
X57859500Y-100354500D01*
X57859500Y-97254500D02*
X54259500Y-97254500D01*
X57859500Y-100354500D02*
X57859500Y-97254500D01*
X72899500Y-90254500D02*
X72899500Y-93354500D01*
X72899500Y-93354500D02*
X76499500Y-93354500D01*
X76499500Y-90254500D02*
X72899500Y-90254500D01*
X76499500Y-93354500D02*
X76499500Y-90254500D01*
X91539500Y-77754500D02*
X91539500Y-80854500D01*
X91539500Y-80854500D02*
X95139500Y-80854500D01*
X95139500Y-77754500D02*
X91539500Y-77754500D01*
X95139500Y-80854500D02*
X95139500Y-77754500D01*
X110179500Y-72754500D02*
X110179500Y-75854500D01*
X110179500Y-75854500D02*
X113779500Y-75854500D01*
X113779500Y-72754500D02*
X110179500Y-72754500D01*
X113779500Y-75854500D02*
X113779500Y-72754500D01*
X128819500Y-77654500D02*
X128819500Y-80754500D01*
X128819500Y-80754500D02*
X132419500Y-80754500D01*
X132419500Y-77654500D02*
X128819500Y-77654500D01*
X132419500Y-80754500D02*
X132419500Y-77654500D01*
X147459500Y-80254500D02*
X147459500Y-83354500D01*
X147459500Y-83354500D02*
X151059500Y-83354500D01*
X151059500Y-80254500D02*
X147459500Y-80254500D01*
X151059500Y-83354500D02*
X151059500Y-80254500D01*
X54259500Y-115854500D02*
X54259500Y-118954500D01*
X54259500Y-118954500D02*
X57859500Y-118954500D01*
X57859500Y-115854500D02*
X54259500Y-115854500D01*
X57859500Y-118954500D02*
X57859500Y-115854500D01*
X72899500Y-108854500D02*
X72899500Y-111954500D01*
X72899500Y-111954500D02*
X76499500Y-111954500D01*
X76499500Y-108854500D02*
X72899500Y-108854500D01*
X76499500Y-111954500D02*
X76499500Y-108854500D01*
X91539500Y-96354500D02*
X91539500Y-99454500D01*
X91539500Y-99454500D02*
X95139500Y-99454500D01*
X95139500Y-96354500D02*
X91539500Y-96354500D01*
X95139500Y-99454500D02*
X95139500Y-96354500D01*
X110179500Y-91354500D02*
X110179500Y-94454500D01*
X110179500Y-94454500D02*
X113779500Y-94454500D01*
X113779500Y-91354500D02*
X110179500Y-91354500D01*
X113779500Y-94454500D02*
X113779500Y-91354500D01*
X128819500Y-96254500D02*
X128819500Y-99354500D01*
X128819500Y-99354500D02*
X132419500Y-99354500D01*
X132419500Y-96254500D02*
X128819500Y-96254500D01*
X132419500Y-99354500D02*
X132419500Y-96254500D01*
X147459500Y-98854500D02*
X147459500Y-101954500D01*
X147459500Y-101954500D02*
X151059500Y-101954500D01*
X151059500Y-98854500D02*
X147459500Y-98854500D01*
X151059500Y-101954500D02*
X151059500Y-98854500D01*
X54259500Y-134454500D02*
X54259500Y-137554500D01*
X54259500Y-137554500D02*
X57859500Y-137554500D01*
X57859500Y-134454500D02*
X54259500Y-134454500D01*
X57859500Y-137554500D02*
X57859500Y-134454500D01*
X72899500Y-127454500D02*
X72899500Y-130554500D01*
X72899500Y-130554500D02*
X76499500Y-130554500D01*
X76499500Y-127454500D02*
X72899500Y-127454500D01*
X76499500Y-130554500D02*
X76499500Y-127454500D01*
X91539500Y-114954500D02*
X91539500Y-118054500D01*
X91539500Y-118054500D02*
X95139500Y-118054500D01*
X95139500Y-114954500D02*
X91539500Y-114954500D01*
X95139500Y-118054500D02*
X95139500Y-114954500D01*
X110179500Y-109954500D02*
X110179500Y-113054500D01*
X110179500Y-113054500D02*
X113779500Y-113054500D01*
X113779500Y-109954500D02*
X110179500Y-109954500D01*
X113779500Y-113054500D02*
X113779500Y-109954500D01*
X147459500Y-117454500D02*
X147459500Y-120554500D01*
X147459500Y-120554500D02*
X151059500Y-120554500D01*
X151059500Y-117454500D02*
X147459500Y-117454500D01*
X151059500Y-120554500D02*
X151059500Y-117454500D01*
X183751930Y-155429151D02*
X186905725Y-157165115D01*
X185246789Y-152713383D02*
X183751930Y-155429151D01*
X186905725Y-157165115D02*
X188400584Y-154449347D01*
X188400584Y-154449347D02*
X185246789Y-152713383D01*
X294700500Y-91360000D02*
X294700500Y-94460000D01*
X294700500Y-94460000D02*
X298300500Y-94460000D01*
X298300500Y-91360000D02*
X294700500Y-91360000D01*
X298300500Y-94460000D02*
X298300500Y-91360000D01*
X276060500Y-96260000D02*
X276060500Y-99360000D01*
X276060500Y-99360000D02*
X279660500Y-99360000D01*
X279660500Y-96260000D02*
X276060500Y-96260000D01*
X279660500Y-99360000D02*
X279660500Y-96260000D01*
X257420500Y-98860000D02*
X257420500Y-101960000D01*
X257420500Y-101960000D02*
X261020500Y-101960000D01*
X261020500Y-98860000D02*
X257420500Y-98860000D01*
X261020500Y-101960000D02*
X261020500Y-98860000D01*
X350620500Y-134460000D02*
X350620500Y-137560000D01*
X350620500Y-137560000D02*
X354220500Y-137560000D01*
X354220500Y-134460000D02*
X350620500Y-134460000D01*
X354220500Y-137560000D02*
X354220500Y-134460000D01*
X331980500Y-127460000D02*
X331980500Y-130560000D01*
X331980500Y-130560000D02*
X335580500Y-130560000D01*
X335580500Y-127460000D02*
X331980500Y-127460000D01*
X335580500Y-130560000D02*
X335580500Y-127460000D01*
X313340500Y-114960000D02*
X313340500Y-118060000D01*
X313340500Y-118060000D02*
X316940500Y-118060000D01*
X316940500Y-114960000D02*
X313340500Y-114960000D01*
X316940500Y-118060000D02*
X316940500Y-114960000D01*
X294700500Y-109960000D02*
X294700500Y-113060000D01*
X294700500Y-113060000D02*
X298300500Y-113060000D01*
X298300500Y-109960000D02*
X294700500Y-109960000D01*
X298300500Y-113060000D02*
X298300500Y-109960000D01*
X276060500Y-114860000D02*
X276060500Y-117960000D01*
X276060500Y-117960000D02*
X279660500Y-117960000D01*
X279660500Y-114860000D02*
X276060500Y-114860000D01*
X279660500Y-117960000D02*
X279660500Y-114860000D01*
X257420500Y-117460000D02*
X257420500Y-120560000D01*
X257420500Y-120560000D02*
X261020500Y-120560000D01*
X261020500Y-117460000D02*
X257420500Y-117460000D01*
X261020500Y-120560000D02*
X261020500Y-117460000D01*
X256023601Y-141380502D02*
X256552850Y-144434990D01*
X256552850Y-144434990D02*
X260099997Y-143820378D01*
X259570748Y-140765890D02*
X256023601Y-141380502D01*
X260099997Y-143820378D02*
X259570748Y-140765890D01*
X237487588Y-146340337D02*
X238513714Y-149265583D01*
X238513714Y-149265583D02*
X241910774Y-148073953D01*
X240884648Y-145148707D02*
X237487588Y-146340337D01*
X241910774Y-148073953D02*
X240884648Y-145148707D01*
X148380735Y-143814202D02*
X151927882Y-144428814D01*
X148909984Y-140759714D02*
X148380735Y-143814202D01*
X151927882Y-144428814D02*
X152457131Y-141374326D01*
X152457131Y-141374326D02*
X148909984Y-140759714D01*
X166575996Y-148073040D02*
X169973056Y-149264670D01*
X167602122Y-145147794D02*
X166575996Y-148073040D01*
X169973056Y-149264670D02*
X170999182Y-146339424D01*
X170999182Y-146339424D02*
X167602122Y-145147794D01*
X128819500Y-114854500D02*
X128819500Y-117954500D01*
X128819500Y-117954500D02*
X132419500Y-117954500D01*
X132419500Y-114854500D02*
X128819500Y-114854500D01*
X132419500Y-117954500D02*
X132419500Y-114854500D01*
X350620500Y-97260000D02*
X350620500Y-100360000D01*
X350620500Y-100360000D02*
X354220500Y-100360000D01*
X354220500Y-97260000D02*
X350620500Y-97260000D01*
X354220500Y-100360000D02*
X354220500Y-97260000D01*
X331980500Y-90260000D02*
X331980500Y-93360000D01*
X331980500Y-93360000D02*
X335580500Y-93360000D01*
X335580500Y-90260000D02*
X331980500Y-90260000D01*
X335580500Y-93360000D02*
X335580500Y-90260000D01*
X313340500Y-77760000D02*
X313340500Y-80860000D01*
X313340500Y-80860000D02*
X316940500Y-80860000D01*
X316940500Y-77760000D02*
X313340500Y-77760000D01*
X316940500Y-80860000D02*
X316940500Y-77760000D01*
X294700500Y-72760000D02*
X294700500Y-75860000D01*
X294700500Y-75860000D02*
X298300500Y-75860000D01*
X298300500Y-72760000D02*
X294700500Y-72760000D01*
X298300500Y-75860000D02*
X298300500Y-72760000D01*
X276060500Y-77660000D02*
X276060500Y-80760000D01*
X276060500Y-80760000D02*
X279660500Y-80760000D01*
X279660500Y-77660000D02*
X276060500Y-77660000D01*
X279660500Y-80760000D02*
X279660500Y-77660000D01*
X257420500Y-80260000D02*
X257420500Y-83360000D01*
X257420500Y-83360000D02*
X261020500Y-83360000D01*
X261020500Y-80260000D02*
X257420500Y-80260000D01*
X261020500Y-83360000D02*
X261020500Y-80260000D01*
X350620500Y-115860000D02*
X350620500Y-118960000D01*
X350620500Y-118960000D02*
X354220500Y-118960000D01*
X354220500Y-115860000D02*
X350620500Y-115860000D01*
X354220500Y-118960000D02*
X354220500Y-115860000D01*
X331980500Y-108860000D02*
X331980500Y-111960000D01*
X331980500Y-111960000D02*
X335580500Y-111960000D01*
X335580500Y-108860000D02*
X331980500Y-108860000D01*
X335580500Y-111960000D02*
X335580500Y-108860000D01*
X313340500Y-96360000D02*
X313340500Y-99460000D01*
X313340500Y-99460000D02*
X316940500Y-99460000D01*
X316940500Y-96360000D02*
X313340500Y-96360000D01*
X316940500Y-99460000D02*
X316940500Y-96360000D01*
X220085916Y-154450597D02*
X221580775Y-157166365D01*
X221580775Y-157166365D02*
X224734570Y-155430401D01*
X223239711Y-152714633D02*
X220085916Y-154450597D01*
X224734570Y-155430401D02*
X223239711Y-152714633D01*
M02*
