M48
; DRILL file {KiCad 8.0.1} date 2024-05-18T22:20:28+0200
; FORMAT={-:-/ absolute / metric / decimal}
; #@! TF.CreationDate,2024-05-18T22:20:28+02:00
; #@! TF.GenerationSoftware,Kicad,Pcbnew,8.0.1
; #@! TF.FileFunction,Plated,1,2,PTH
FMAT,2
METRIC
; #@! TA.AperFunction,Plated,PTH,ViaDrill
T1C0.300
; #@! TA.AperFunction,Plated,PTH,ViaDrill
T2C0.400
; #@! TA.AperFunction,Plated,PTH,ComponentDrill
T3C0.813
; #@! TA.AperFunction,Plated,PTH,ComponentDrill
T4C1.000
; #@! TA.AperFunction,Plated,PTH,ComponentDrill
T5C1.300
%
G90
G05
T1
X46.031Y-85.78
X46.031Y-88.32
X46.031Y-90.86
X46.031Y-93.4
X46.031Y-95.94
X46.031Y-98.48
X46.031Y-101.02
X46.031Y-103.56
X46.031Y-106.1
X46.031Y-108.64
X46.031Y-111.18
X46.031Y-113.72
X46.031Y-116.26
X46.031Y-118.8
X46.031Y-121.34
X46.031Y-123.88
X46.031Y-126.42
X46.031Y-128.96
X46.031Y-131.5
X46.031Y-134.04
X46.031Y-136.58
X46.031Y-139.12
X48.571Y-85.78
X48.571Y-88.32
X48.571Y-103.56
X48.571Y-121.34
X48.571Y-131.5
X48.571Y-134.04
X48.571Y-136.58
X48.571Y-139.12
X50.107Y-105.28
X51.111Y-85.78
X51.111Y-88.32
X51.111Y-95.94
X51.111Y-98.48
X51.111Y-101.02
X51.111Y-134.04
X51.111Y-136.58
X51.111Y-139.12
X53.651Y-85.78
X53.651Y-88.32
X53.651Y-106.1
X53.651Y-121.34
X54.107Y-101.78
X56.191Y-85.78
X56.191Y-88.32
X56.191Y-90.86
X58.731Y-85.78
X58.731Y-95.94
X61.271Y-80.7
X61.271Y-83.24
X61.271Y-85.78
X61.271Y-95.94
X61.271Y-121.34
X61.271Y-123.88
X61.271Y-128.96
X61.271Y-139.12
X63.607Y-120.78
X63.607Y-122.28
X63.811Y-75.62
X63.811Y-78.16
X63.811Y-80.7
X63.811Y-83.24
X63.811Y-85.78
X63.811Y-136.58
X63.811Y-139.12
X64.108Y-99.343
X66.351Y-75.62
X66.351Y-78.16
X66.351Y-80.7
X66.351Y-88.32
X66.351Y-90.86
X66.351Y-93.4
X66.351Y-95.94
X66.351Y-106.1
X66.351Y-108.64
X66.351Y-111.18
X66.351Y-136.58
X66.351Y-139.12
X67.614Y-101.28
X68.891Y-75.62
X68.891Y-78.16
X68.891Y-80.7
X68.891Y-90.86
X68.891Y-93.4
X68.891Y-108.64
X68.891Y-111.18
X68.891Y-136.58
X69.108Y-129.28
X71.431Y-80.7
X71.431Y-88.32
X71.431Y-106.1
X71.431Y-118.8
X73.971Y-75.62
X73.971Y-78.16
X73.971Y-83.24
X73.971Y-121.34
X73.971Y-136.58
X79.051Y-78.16
X79.051Y-121.34
X79.051Y-136.58
X79.608Y-91.28
X81.591Y-75.62
X81.591Y-78.16
X81.591Y-95.94
X81.591Y-111.18
X81.591Y-131.5
X81.591Y-134.04
X81.591Y-136.58
X82.608Y-115.78
X83.358Y-90.03
X84.131Y-62.92
X84.131Y-65.46
X84.131Y-75.62
X84.131Y-78.16
X84.131Y-80.7
X84.131Y-83.24
X84.131Y-85.78
X84.131Y-93.4
X84.131Y-95.94
X84.131Y-98.48
X84.131Y-128.96
X84.131Y-131.5
X84.131Y-134.04
X85.608Y-119.28
X85.608Y-121.28
X86.254Y-104.28
X86.671Y-62.92
X86.671Y-65.46
X86.671Y-113.72
X86.671Y-126.42
X86.671Y-128.96
X86.671Y-131.5
X86.671Y-134.04
X88.108Y-79.78
X89.211Y-62.92
X89.211Y-65.46
X89.211Y-106.1
X89.211Y-123.88
X89.211Y-126.42
X89.211Y-128.96
X89.211Y-131.5
X91.751Y-62.92
X91.751Y-65.46
X91.751Y-70.54
X91.751Y-85.78
X91.751Y-88.32
X91.751Y-106.1
X91.751Y-123.88
X91.751Y-126.42
X91.751Y-128.96
X91.751Y-131.5
X94.291Y-62.92
X94.291Y-65.46
X94.291Y-83.24
X94.291Y-123.88
X94.291Y-126.42
X94.291Y-128.96
X96.831Y-62.92
X96.831Y-65.46
X96.831Y-73.08
X96.831Y-123.88
X96.831Y-126.42
X96.831Y-128.96
X99.371Y-62.92
X99.371Y-65.46
X99.371Y-85.78
X99.371Y-123.88
X99.371Y-126.42
X99.371Y-128.96
X101.911Y-60.38
X101.911Y-62.92
X101.911Y-68.0
X101.911Y-83.24
X101.911Y-85.78
X101.911Y-88.32
X101.911Y-123.88
X101.911Y-126.42
X102.108Y-77.28
X104.451Y-57.84
X104.451Y-60.38
X104.451Y-108.64
X104.451Y-111.18
X104.451Y-123.88
X104.451Y-126.42
X104.608Y-115.78
X104.944Y-101.407
X105.108Y-116.78
X105.608Y-117.78
X106.991Y-55.3
X106.991Y-57.84
X106.991Y-62.92
X106.991Y-75.62
X106.991Y-83.24
X106.991Y-90.86
X106.991Y-93.4
X106.991Y-108.64
X106.991Y-111.18
X106.991Y-121.34
X106.991Y-123.88
X106.991Y-126.42
X109.531Y-55.3
X109.531Y-62.92
X109.531Y-121.34
X109.531Y-123.88
X109.531Y-126.42
X112.071Y-55.3
X112.071Y-65.46
X112.071Y-118.8
X112.071Y-121.34
X112.071Y-123.88
X112.071Y-126.42
X114.611Y-55.3
X114.611Y-121.34
X114.611Y-123.88
X114.611Y-126.42
X116.608Y-73.28
X117.151Y-85.78
X117.151Y-90.86
X117.151Y-93.4
X117.151Y-108.64
X117.151Y-121.34
X117.151Y-123.88
X117.151Y-126.42
X119.579Y-77.28
X119.607Y-116.78
X119.691Y-57.84
X119.691Y-88.32
X119.691Y-93.4
X119.691Y-95.94
X119.691Y-121.34
X119.691Y-123.88
X119.691Y-126.42
X120.607Y-116.78
X122.231Y-60.38
X122.231Y-68.0
X122.231Y-75.62
X122.231Y-85.78
X122.231Y-88.32
X122.231Y-93.4
X122.231Y-95.94
X122.231Y-98.48
X122.231Y-106.1
X122.231Y-113.72
X122.231Y-123.88
X122.231Y-126.42
X123.534Y-104.28
X124.771Y-62.92
X124.771Y-88.32
X124.771Y-106.1
X124.771Y-123.88
X124.771Y-126.42
X127.311Y-62.92
X127.311Y-65.46
X127.311Y-75.62
X127.311Y-83.24
X127.311Y-106.1
X127.311Y-123.88
X127.311Y-126.42
X129.851Y-62.92
X129.851Y-65.46
X129.851Y-70.54
X129.851Y-108.64
X129.851Y-123.88
X129.851Y-126.42
X132.391Y-62.92
X132.391Y-65.46
X132.391Y-123.88
X132.391Y-126.42
X134.931Y-62.92
X134.931Y-65.46
X134.931Y-90.86
X134.931Y-113.72
X134.931Y-118.8
X134.931Y-123.88
X134.931Y-126.42
X137.471Y-62.92
X137.471Y-65.46
X137.471Y-80.7
X137.471Y-83.24
X137.471Y-123.88
X137.471Y-126.42
X138.107Y-77.28
X139.107Y-79.78
X140.011Y-62.92
X140.011Y-65.46
X140.011Y-70.54
X140.011Y-73.08
X140.011Y-75.62
X140.011Y-83.24
X140.011Y-85.78
X140.011Y-90.86
X140.011Y-93.4
X140.011Y-126.42
X140.011Y-128.96
X140.011Y-136.58
X140.011Y-139.12
X140.011Y-141.66
X140.011Y-144.2
X140.011Y-146.74
X141.107Y-122.78
X141.607Y-121.966
X142.107Y-122.78
X142.174Y-106.78
X142.551Y-65.46
X142.551Y-70.54
X142.551Y-146.74
X143.208Y-121.28
X144.107Y-79.78
X145.091Y-65.46
X145.091Y-70.54
X145.091Y-85.78
X145.091Y-108.64
X145.091Y-116.26
X145.091Y-141.66
X145.607Y-139.78
X147.631Y-70.54
X147.631Y-85.78
X147.631Y-139.12
X149.107Y-107.78
X149.107Y-128.28
X150.171Y-85.78
X151.107Y-128.28
X152.607Y-106.78
X152.711Y-75.62
X152.711Y-85.78
X153.107Y-105.78
X153.607Y-81.28
X153.607Y-104.78
X154.107Y-103.78
X154.107Y-119.28
X154.107Y-120.28
X154.107Y-140.78
X154.559Y-102.731
X154.996Y-101.652
X155.251Y-136.58
X155.251Y-149.28
X155.387Y-100.559
X156.607Y-119.28
X157.791Y-65.46
X157.791Y-68.0
X157.791Y-149.28
X157.857Y-103.53
X158.607Y-136.78
X159.107Y-72.28
X160.331Y-123.88
X160.331Y-128.96
X160.331Y-149.28
X161.107Y-107.78
X161.107Y-138.78
X161.607Y-132.78
X162.871Y-141.66
X164.107Y-119.78
X165.411Y-78.16
X165.411Y-80.7
X165.411Y-83.24
X165.411Y-85.78
X165.411Y-88.32
X165.411Y-90.86
X165.411Y-93.4
X165.411Y-95.94
X165.411Y-98.48
X165.411Y-101.02
X165.411Y-103.56
X165.411Y-113.72
X165.411Y-128.96
X165.411Y-131.5
X165.411Y-134.04
X165.734Y-135.603
X167.951Y-78.16
X167.951Y-80.7
X167.951Y-83.24
X167.951Y-85.78
X167.951Y-88.32
X167.951Y-90.86
X167.951Y-93.4
X167.951Y-95.94
X167.951Y-98.48
X167.951Y-101.02
X167.951Y-103.56
X167.951Y-126.42
X167.951Y-128.96
X167.951Y-131.5
X167.951Y-134.04
X170.491Y-78.16
X170.491Y-80.7
X170.491Y-83.24
X170.491Y-85.78
X170.491Y-88.32
X170.491Y-90.86
X170.491Y-93.4
X170.491Y-95.94
X170.491Y-98.48
X170.491Y-101.02
X170.491Y-103.56
X170.491Y-126.42
X170.491Y-128.96
X170.491Y-131.5
X170.491Y-134.04
X170.491Y-154.36
X173.031Y-78.16
X173.031Y-80.7
X173.031Y-83.24
X173.031Y-85.78
X173.031Y-88.32
X173.031Y-90.86
X173.031Y-93.4
X173.031Y-95.94
X173.031Y-98.48
X173.031Y-101.02
X173.031Y-126.42
X173.031Y-128.96
X173.031Y-131.5
X173.031Y-134.04
X173.031Y-154.36
X175.571Y-108.64
X175.571Y-111.18
X175.571Y-128.96
X175.571Y-131.5
X175.571Y-134.04
X175.571Y-154.36
X178.111Y-108.64
X178.111Y-111.18
X178.111Y-116.26
X178.111Y-118.8
X178.111Y-121.34
X178.111Y-123.88
X178.111Y-128.96
X178.111Y-131.5
X178.111Y-136.58
X178.111Y-154.36
X178.111Y-156.9
X180.651Y-139.12
X180.651Y-156.9
X181.107Y-141.78
X183.191Y-159.44
X186.107Y-159.78
X188.271Y-139.12
X188.271Y-161.98
X190.107Y-158.28
X190.811Y-144.2
X190.811Y-161.98
X190.811Y-164.52
X193.351Y-159.44
X193.351Y-161.98
X195.891Y-151.82
X195.891Y-156.9
X195.891Y-159.44
X198.431Y-144.2
X198.431Y-154.36
X200.971Y-146.74
X200.971Y-149.28
X208.591Y-146.74
X208.591Y-149.28
X208.591Y-151.82
X211.131Y-144.2
X211.131Y-146.74
X211.131Y-154.36
X211.131Y-156.9
X212.107Y-149.78
X213.671Y-141.66
X213.671Y-144.2
X213.671Y-154.36
X213.671Y-156.9
X213.671Y-159.44
X213.671Y-161.98
X216.211Y-141.66
X216.211Y-156.9
X216.211Y-159.44
X216.211Y-161.98
X216.211Y-164.52
X218.751Y-139.12
X218.751Y-159.44
X218.751Y-161.98
X221.291Y-159.44
X221.291Y-161.98
X223.831Y-159.44
X226.371Y-156.9
X226.371Y-159.44
X228.911Y-149.28
X230.107Y-140.28
X230.607Y-99.28
X230.607Y-101.78
X231.107Y-150.78
X231.451Y-121.34
X231.451Y-123.88
X231.451Y-128.96
X233.991Y-75.62
X233.991Y-78.16
X233.991Y-80.7
X233.991Y-103.56
X233.991Y-106.1
X233.991Y-121.34
X233.991Y-136.58
X233.991Y-139.12
X233.991Y-146.74
X236.531Y-75.62
X236.531Y-78.16
X236.531Y-80.7
X236.531Y-83.24
X236.531Y-126.42
X236.531Y-128.96
X236.531Y-134.04
X236.531Y-139.12
X236.531Y-154.36
X237.107Y-105.78
X239.071Y-75.62
X239.071Y-78.16
X239.071Y-80.7
X239.071Y-83.24
X239.071Y-88.32
X239.071Y-90.86
X239.071Y-93.4
X239.071Y-95.94
X239.071Y-98.48
X239.071Y-123.88
X239.071Y-126.42
X239.071Y-128.96
X239.071Y-134.04
X241.611Y-75.62
X241.611Y-78.16
X241.611Y-80.7
X241.611Y-85.78
X241.611Y-88.32
X241.611Y-90.86
X241.611Y-93.4
X241.611Y-95.94
X241.611Y-98.48
X241.611Y-101.02
X241.611Y-121.34
X241.611Y-123.88
X241.611Y-126.42
X241.611Y-139.12
X244.151Y-75.62
X244.151Y-78.16
X244.151Y-83.24
X244.151Y-85.78
X244.151Y-113.72
X244.151Y-116.26
X244.151Y-134.04
X244.151Y-144.2
X246.691Y-111.18
X246.691Y-113.72
X247.607Y-119.78
X248.607Y-134.78
X249.231Y-128.96
X249.231Y-131.5
X250.107Y-144.78
X251.771Y-65.46
X251.771Y-68.0
X251.771Y-116.26
X251.771Y-123.88
X251.771Y-128.96
X251.771Y-131.5
X251.771Y-141.66
X251.771Y-149.28
X252.607Y-108.28
X253.607Y-98.28
X253.607Y-107.28
X254.107Y-119.78
X254.311Y-65.46
X254.311Y-70.54
X254.311Y-80.7
X254.311Y-83.24
X254.311Y-85.78
X254.311Y-88.32
X254.311Y-116.26
X254.311Y-123.88
X254.311Y-128.96
X254.311Y-131.5
X254.311Y-139.12
X254.311Y-149.28
X256.851Y-70.54
X256.851Y-123.88
X256.851Y-128.96
X259.391Y-65.46
X259.391Y-68.0
X259.391Y-70.54
X259.391Y-73.08
X259.391Y-85.78
X259.391Y-88.32
X259.391Y-128.96
X261.931Y-85.78
X261.931Y-128.96
X262.608Y-140.78
X263.608Y-143.28
X264.471Y-88.32
X264.471Y-93.4
X264.471Y-98.48
X264.471Y-116.26
X264.471Y-118.8
X264.471Y-128.96
X264.471Y-131.5
X265.108Y-81.78
X265.608Y-122.78
X265.608Y-143.28
X266.608Y-99.28
X267.011Y-68.0
X267.011Y-146.74
X267.108Y-122.28
X267.608Y-105.78
X268.608Y-103.78
X269.108Y-80.28
X269.551Y-68.0
X269.551Y-75.62
X269.551Y-78.16
X269.551Y-85.78
X269.551Y-88.32
X269.551Y-116.26
X269.551Y-126.42
X269.551Y-144.2
X269.551Y-146.74
X272.091Y-65.46
X272.091Y-68.0
X272.091Y-78.16
X272.091Y-85.78
X272.091Y-88.32
X272.091Y-106.1
X272.091Y-126.42
X272.608Y-80.28
X274.631Y-65.46
X274.631Y-68.0
X274.631Y-75.62
X274.631Y-85.78
X274.631Y-93.4
X274.631Y-106.1
X274.631Y-126.42
X277.171Y-65.46
X277.171Y-68.0
X277.171Y-70.54
X277.171Y-126.42
X279.711Y-65.46
X279.711Y-126.42
X282.251Y-65.46
X282.251Y-85.78
X282.251Y-90.86
X282.251Y-113.72
X282.251Y-126.42
X284.607Y-99.28
X284.791Y-60.38
X284.791Y-65.46
X284.791Y-85.78
X284.791Y-126.42
X286.607Y-78.78
X287.107Y-103.28
X287.107Y-104.28
X287.331Y-57.84
X287.331Y-83.24
X287.331Y-88.32
X287.331Y-90.86
X287.331Y-93.4
X287.331Y-95.94
X287.331Y-113.72
X287.331Y-126.42
X289.871Y-62.92
X289.871Y-108.64
X289.871Y-111.18
X289.871Y-121.34
X289.871Y-126.42
X292.411Y-55.3
X292.411Y-62.92
X292.411Y-80.7
X292.411Y-83.24
X292.411Y-90.86
X292.411Y-108.64
X292.411Y-118.8
X292.411Y-121.34
X292.411Y-126.42
X294.951Y-55.3
X294.951Y-62.92
X294.951Y-65.46
X294.951Y-116.26
X294.951Y-126.42
X297.491Y-55.3
X297.491Y-80.7
X297.491Y-123.88
X297.491Y-126.42
X300.031Y-55.3
X300.031Y-68.0
X300.031Y-80.7
X300.031Y-121.34
X300.031Y-123.88
X300.031Y-126.42
X302.107Y-73.78
X302.571Y-75.62
X302.571Y-80.7
X302.571Y-93.4
X302.571Y-111.18
X302.571Y-118.8
X302.571Y-121.34
X302.571Y-123.88
X302.571Y-126.42
X304.107Y-95.78
X305.111Y-57.84
X305.111Y-65.46
X305.111Y-80.7
X305.111Y-83.24
X305.111Y-88.32
X305.111Y-93.4
X305.111Y-111.18
X305.111Y-118.8
X305.111Y-121.34
X305.111Y-123.88
X305.111Y-126.42
X306.107Y-76.78
X306.607Y-101.28
X307.651Y-68.0
X307.651Y-113.72
X307.651Y-121.34
X307.651Y-123.88
X307.651Y-126.42
X308.062Y-101.28
X309.607Y-77.78
X310.191Y-62.92
X310.191Y-68.0
X310.191Y-85.78
X310.191Y-106.1
X310.191Y-121.34
X310.191Y-123.88
X310.191Y-126.42
X310.191Y-128.96
X312.731Y-62.92
X312.731Y-68.0
X312.731Y-85.78
X312.731Y-88.32
X312.731Y-106.1
X312.731Y-123.88
X312.731Y-126.42
X312.731Y-128.96
X315.271Y-62.92
X315.271Y-68.0
X315.271Y-70.54
X315.271Y-123.88
X315.271Y-126.42
X315.271Y-128.96
X317.811Y-62.92
X317.811Y-123.88
X317.811Y-126.42
X317.811Y-128.96
X317.811Y-131.5
X320.351Y-62.92
X320.351Y-85.78
X320.351Y-90.86
X320.351Y-95.94
X320.351Y-113.72
X320.351Y-118.8
X320.351Y-126.42
X320.351Y-128.96
X320.351Y-131.5
X322.607Y-84.78
X322.891Y-116.26
X322.891Y-118.8
X322.891Y-128.96
X322.891Y-131.5
X322.891Y-134.04
X324.607Y-98.78
X324.607Y-103.28
X324.607Y-104.78
X324.607Y-116.78
X325.431Y-62.92
X325.431Y-75.62
X325.431Y-78.16
X325.431Y-80.7
X325.431Y-90.86
X325.431Y-93.4
X325.431Y-95.94
X325.431Y-118.8
X325.431Y-131.5
X325.431Y-134.04
X327.971Y-78.16
X327.971Y-80.7
X327.971Y-93.4
X327.971Y-95.94
X327.971Y-108.64
X327.971Y-111.18
X327.971Y-113.72
X327.971Y-118.8
X327.971Y-134.04
X327.971Y-136.58
X330.511Y-80.7
X330.511Y-88.32
X333.051Y-78.16
X333.051Y-80.7
X333.051Y-83.24
X333.051Y-113.72
X333.051Y-116.26
X333.051Y-136.58
X335.591Y-113.72
X335.591Y-116.26
X338.131Y-103.56
X338.131Y-113.72
X338.131Y-116.26
X338.131Y-126.42
X338.131Y-136.58
X340.671Y-75.62
X340.671Y-111.18
X340.671Y-113.72
X340.671Y-116.26
X340.671Y-136.58
X341.107Y-94.28
X342.107Y-95.28
X343.107Y-96.28
X343.107Y-105.71
X343.107Y-121.78
X343.211Y-75.62
X343.211Y-78.16
X343.211Y-136.58
X343.211Y-139.12
X345.342Y-98.28
X345.751Y-80.7
X345.751Y-83.24
X345.751Y-85.78
X345.751Y-139.12
X346.357Y-96.03
X348.291Y-80.7
X348.291Y-83.24
X348.291Y-95.94
X348.291Y-103.56
X350.831Y-88.32
X350.831Y-103.56
X350.831Y-121.34
X353.371Y-121.34
X355.911Y-95.94
X358.451Y-103.56
X358.451Y-116.26
X358.451Y-123.88
X358.451Y-139.12
X360.107Y-116.28
X360.991Y-98.48
X360.991Y-101.02
X360.991Y-103.56
X360.991Y-106.1
X360.991Y-118.8
X360.991Y-126.42
X360.991Y-139.12
X361.607Y-86.28
X361.607Y-132.78
X363.531Y-85.78
X363.531Y-88.32
X363.531Y-90.86
X363.531Y-93.4
X363.531Y-95.94
X363.531Y-98.48
X363.531Y-101.02
X363.531Y-103.56
X363.531Y-106.1
X363.531Y-108.64
X363.531Y-111.18
X363.531Y-113.72
X363.531Y-116.26
X363.531Y-118.8
X363.531Y-121.34
X363.531Y-136.58
X363.531Y-139.12
T2
X52.107Y-115.28
X59.107Y-102.553
X61.107Y-134.28
X61.607Y-118.28
X78.608Y-98.28
X79.108Y-74.78
X79.108Y-114.28
X79.608Y-129.78
X84.108Y-101.78
X84.108Y-114.28
X88.608Y-115.78
X89.032Y-97.204
X96.108Y-83.28
X96.608Y-118.78
X97.108Y-101.78
X116.108Y-58.28
X116.108Y-96.78
X117.108Y-114.28
X119.108Y-79.78
X125.607Y-78.78
X125.607Y-97.28
X126.15Y-115.64
X129.607Y-84.78
X133.107Y-118.78
X134.607Y-100.78
X144.107Y-81.28
X151.357Y-103.03
X154.607Y-65.78
X158.607Y-82.78
X159.607Y-78.28
X160.607Y-144.78
X167.107Y-143.78
X167.607Y-150.28
X173.107Y-117.28
X173.107Y-122.28
X186.607Y-158.28
X227.107Y-154.78
X228.107Y-137.28
X234.939Y-113.449
X235.607Y-118.28
X244.607Y-105.28
X245.607Y-147.78
X261.108Y-103.28
X261.608Y-146.28
X263.907Y-65.38
X264.358Y-84.53
X264.608Y-122.28
X268.608Y-100.28
X272.608Y-115.78
X273.108Y-97.28
X279.607Y-101.28
X280.107Y-82.78
X284.607Y-119.28
X286.707Y-63.08
X288.107Y-79.28
X299.107Y-77.78
X299.107Y-96.78
X301.107Y-114.28
X303.207Y-59.58
X310.607Y-97.28
X310.607Y-115.78
X317.607Y-82.78
X317.607Y-119.28
X318.107Y-101.78
X329.607Y-126.78
X336.607Y-97.28
X338.007Y-75.28
X338.607Y-111.28
X341.607Y-131.78
X347.607Y-116.78
X347.607Y-135.28
X355.107Y-119.78
X357.107Y-99.78
X357.107Y-136.78
T3
X161.356Y-75.191
X161.356Y-77.731
X161.356Y-80.272
X161.356Y-82.811
X161.356Y-85.352
X161.356Y-87.891
X161.356Y-90.431
X161.356Y-92.971
X161.356Y-95.511
X161.356Y-98.051
X161.356Y-100.591
X161.356Y-103.131
X176.576Y-75.191
X176.576Y-77.731
X176.576Y-80.272
X176.576Y-82.811
X176.576Y-85.352
X176.576Y-87.891
X176.576Y-90.431
X176.576Y-92.971
X176.576Y-95.511
X176.576Y-98.051
X176.576Y-100.591
X176.576Y-103.131
X231.992Y-75.167
X231.992Y-77.707
X231.992Y-80.247
X231.992Y-82.787
X231.992Y-85.327
X231.992Y-87.867
X231.992Y-90.407
X231.992Y-92.947
X231.992Y-95.487
X231.992Y-98.027
X231.992Y-100.567
X231.992Y-103.107
X247.212Y-75.167
X247.212Y-77.707
X247.212Y-80.247
X247.212Y-82.787
X247.212Y-85.327
X247.212Y-87.867
X247.212Y-90.407
X247.212Y-92.947
X247.212Y-95.487
X247.212Y-98.027
X247.212Y-100.567
X247.212Y-103.107
T4
X165.028Y-110.28
X167.567Y-110.28
X170.107Y-110.28
X172.647Y-110.28
X235.797Y-110.28
X238.337Y-110.28
X240.877Y-110.28
X243.417Y-110.28
T5
X176.576Y-106.53
X176.576Y-113.03
X231.917Y-106.527
X231.917Y-113.027
T4
X166.737Y-115.441G85X166.237Y-115.441
G05
X168.237Y-119.641G85X167.737Y-119.641
G05
X172.236Y-119.641G85X171.736Y-119.641
G05
X175.236Y-119.641G85X174.736Y-119.641
G05
X233.2Y-115.425G85X233.7Y-115.425
G05
X236.2Y-115.425G85X236.7Y-115.425
G05
X240.2Y-115.425G85X240.7Y-115.425
G05
X241.7Y-119.625G85X242.2Y-119.625
G05
M30
