G04 #@! TF.GenerationSoftware,KiCad,Pcbnew,8.0.1*
G04 #@! TF.CreationDate,2024-05-18T22:20:22+02:00*
G04 #@! TF.ProjectId,cornia,636f726e-6961-42e6-9b69-6361645f7063,3.0.1*
G04 #@! TF.SameCoordinates,Original*
G04 #@! TF.FileFunction,Soldermask,Bot*
G04 #@! TF.FilePolarity,Negative*
%FSLAX46Y46*%
G04 Gerber Fmt 4.6, Leading zero omitted, Abs format (unit mm)*
G04 Created by KiCad (PCBNEW 8.0.1) date 2024-05-18 22:20:22*
%MOMM*%
%LPD*%
G01*
G04 APERTURE LIST*
G04 Aperture macros list*
%AMRoundRect*
0 Rectangle with rounded corners*
0 $1 Rounding radius*
0 $2 $3 $4 $5 $6 $7 $8 $9 X,Y pos of 4 corners*
0 Add a 4 corners polygon primitive as box body*
4,1,4,$2,$3,$4,$5,$6,$7,$8,$9,$2,$3,0*
0 Add four circle primitives for the rounded corners*
1,1,$1+$1,$2,$3*
1,1,$1+$1,$4,$5*
1,1,$1+$1,$6,$7*
1,1,$1+$1,$8,$9*
0 Add four rect primitives between the rounded corners*
20,1,$1+$1,$2,$3,$4,$5,0*
20,1,$1+$1,$4,$5,$6,$7,0*
20,1,$1+$1,$6,$7,$8,$9,0*
20,1,$1+$1,$8,$9,$2,$3,0*%
G04 Aperture macros list end*
%ADD10C,1.600000*%
%ADD11O,2.900000X2.100000*%
%ADD12C,1.800000*%
%ADD13C,2.400000*%
%ADD14C,2.600000*%
%ADD15C,1.924000*%
%ADD16C,0.900000*%
%ADD17RoundRect,0.326923X0.723077X-0.523077X0.723077X0.523077X-0.723077X0.523077X-0.723077X-0.523077X0*%
%ADD18RoundRect,0.200000X-0.850000X-0.412500X0.850000X-0.412500X0.850000X0.412500X-0.850000X0.412500X0*%
%ADD19RoundRect,0.200000X-0.943559X0.048508X0.545734X-0.771253X0.943559X-0.048508X-0.545734X0.771253X0*%
%ADD20C,2.300000*%
%ADD21C,3.400000*%
%ADD22C,4.500000*%
%ADD23RoundRect,0.200000X-1.275000X-1.250000X1.275000X-1.250000X1.275000X1.250000X-1.275000X1.250000X0*%
%ADD24RoundRect,0.200000X-1.469688X-1.013973X1.042874X-1.449323X1.469688X1.013973X-1.042874X1.449323X0*%
%ADD25RoundRect,0.200000X-1.616886X-0.757499X0.789365X-1.601571X1.616886X0.757499X-0.789365X1.601571X0*%
%ADD26RoundRect,0.200000X-1.719735X-0.480247X0.514204X-1.709889X1.719735X0.480247X-0.514204X1.709889X0*%
%ADD27RoundRect,0.200000X0.750000X0.450000X-0.750000X0.450000X-0.750000X-0.450000X0.750000X-0.450000X0*%
%ADD28RoundRect,0.200000X-0.767097X-0.551561X0.907945X-0.261327X0.767097X0.551561X-0.907945X0.261327X0*%
%ADD29RoundRect,0.200000X-0.665543X-0.670604X0.938625X-0.107889X0.665543X0.670604X-0.938625X0.107889X0*%
%ADD30RoundRect,0.200000X-0.514204X-1.709889X1.719735X-0.480247X0.514204X1.709889X-1.719735X0.480247X0*%
%ADD31RoundRect,0.200000X-1.042874X-1.449323X1.469688X-1.013973X1.042874X1.449323X-1.469688X1.013973X0*%
%ADD32RoundRect,0.200000X-0.789365X-1.601571X1.616886X-0.757499X0.789365X1.601571X-1.616886X0.757499X0*%
%ADD33RoundRect,0.200000X-0.907945X-0.261327X0.767097X-0.551561X0.907945X0.261327X-0.767097X0.551561X0*%
%ADD34RoundRect,0.200000X-0.938625X-0.107889X0.665543X-0.670604X0.938625X0.107889X-0.665543X0.670604X0*%
%ADD35RoundRect,0.200000X-0.545734X-0.771253X0.943559X0.048508X0.545734X0.771253X-0.943559X-0.048508X0*%
%ADD36RoundRect,0.337500X0.350000X0.337500X-0.350000X0.337500X-0.350000X-0.337500X0.350000X-0.337500X0*%
%ADD37RoundRect,0.337500X-0.350000X-0.337500X0.350000X-0.337500X0.350000X0.337500X-0.350000X0.337500X0*%
%ADD38C,1.100000*%
%ADD39C,1.200000*%
G04 APERTURE END LIST*
D10*
X176786500Y-117541500D03*
X169786500Y-117541500D03*
D11*
X166486500Y-115441500D03*
X174986500Y-119641500D03*
X171986500Y-119641500D03*
X167986500Y-119641500D03*
D12*
X165027500Y-110280000D03*
X167567500Y-110280000D03*
X170107500Y-110280000D03*
X172647500Y-110280000D03*
D13*
X176576500Y-113030500D03*
X176576500Y-106530500D03*
D10*
X231650500Y-117525000D03*
X238650500Y-117525000D03*
D11*
X241950500Y-119625000D03*
X233450500Y-115425000D03*
X236450500Y-115425000D03*
X240450500Y-115425000D03*
D12*
X235797500Y-110280000D03*
X238337500Y-110280000D03*
X240877500Y-110280000D03*
X243417500Y-110280000D03*
D13*
X231917500Y-113027000D03*
X231917500Y-106527000D03*
D14*
X162021500Y-117503500D03*
X176453500Y-126024500D03*
D15*
X176575900Y-75191500D03*
X176575900Y-77731500D03*
X176575900Y-80271500D03*
X176575900Y-82811500D03*
X176575900Y-85351500D03*
X176575900Y-87891500D03*
X176575900Y-90431500D03*
X176575900Y-92971500D03*
X176575900Y-95511500D03*
X176575900Y-98051500D03*
X176575900Y-100591500D03*
X176575900Y-103131500D03*
X161355900Y-103131500D03*
X161355900Y-100591500D03*
X161355900Y-98051500D03*
X161355900Y-95511500D03*
X161355900Y-92971500D03*
X161355900Y-90431500D03*
X161355900Y-87891500D03*
X161355900Y-85351500D03*
X161355900Y-82811500D03*
X161355900Y-80271500D03*
X161355900Y-77731500D03*
X161355900Y-75191500D03*
X247211900Y-75167000D03*
X247211900Y-77707000D03*
X247211900Y-80247000D03*
X247211900Y-82787000D03*
X247211900Y-85327000D03*
X247211900Y-87867000D03*
X247211900Y-90407000D03*
X247211900Y-92947000D03*
X247211900Y-95487000D03*
X247211900Y-98027000D03*
X247211900Y-100567000D03*
X247211900Y-103107000D03*
X231991900Y-103107000D03*
X231991900Y-100567000D03*
X231991900Y-98027000D03*
X231991900Y-95487000D03*
X231991900Y-92947000D03*
X231991900Y-90407000D03*
X231991900Y-87867000D03*
X231991900Y-85327000D03*
X231991900Y-82787000D03*
X231991900Y-80247000D03*
X231991900Y-77707000D03*
X231991900Y-75167000D03*
D16*
X56225395Y-145272895D03*
X57017062Y-145272895D03*
X57808728Y-145272895D03*
X58600395Y-145272895D03*
X59392062Y-145272895D03*
X60183728Y-145272895D03*
X60975395Y-145272895D03*
X112307500Y-53780000D03*
X113099167Y-53780000D03*
X113890833Y-53780000D03*
X114682500Y-53780000D03*
X115474167Y-53780000D03*
X116265833Y-53780000D03*
X117057500Y-53780000D03*
X291417062Y-53772895D03*
X292208729Y-53772895D03*
X293000395Y-53772895D03*
X293792062Y-53772895D03*
X294583729Y-53772895D03*
X295375395Y-53772895D03*
X296167062Y-53772895D03*
X347417062Y-145272895D03*
X348208729Y-145272895D03*
X349000395Y-145272895D03*
X349792062Y-145272895D03*
X350583729Y-145272895D03*
X351375395Y-145272895D03*
X352167062Y-145272895D03*
X352925395Y-145272895D03*
X353717062Y-145272895D03*
X354508728Y-145272895D03*
X355300395Y-145272895D03*
X356092062Y-145272895D03*
X356883728Y-145272895D03*
X357675395Y-145272895D03*
X296925395Y-53772895D03*
X297717062Y-53772895D03*
X298508728Y-53772895D03*
X299300395Y-53772895D03*
X300092062Y-53772895D03*
X300883728Y-53772895D03*
X301675395Y-53772895D03*
X106799167Y-53780000D03*
X107590834Y-53780000D03*
X108382500Y-53780000D03*
X109174167Y-53780000D03*
X109965834Y-53780000D03*
X110757500Y-53780000D03*
X111549167Y-53780000D03*
X50717062Y-145272895D03*
X51508729Y-145272895D03*
X52300395Y-145272895D03*
X53092062Y-145272895D03*
X53883729Y-145272895D03*
X54675395Y-145272895D03*
X55467062Y-145272895D03*
D17*
X63686500Y-95801375D03*
X63686500Y-92301375D03*
X82326500Y-88804500D03*
X82326500Y-85304500D03*
X100939500Y-76054500D03*
X100939500Y-72554500D03*
X119579500Y-71304500D03*
X119579500Y-67804500D03*
X138219500Y-76204500D03*
X138219500Y-72704500D03*
X156859500Y-78804500D03*
X156859500Y-75304500D03*
X63686500Y-114401375D03*
X63686500Y-110901375D03*
X82326500Y-107404500D03*
X82326500Y-103904500D03*
X100939500Y-94904500D03*
X100939500Y-91404500D03*
X119579500Y-89904500D03*
X119579500Y-86404500D03*
X138219500Y-94804500D03*
X138219500Y-91304500D03*
X156859500Y-97404500D03*
X156859500Y-93904500D03*
X63686500Y-133001375D03*
X63686500Y-129501375D03*
X82326500Y-126004500D03*
X82326500Y-122504500D03*
X100939500Y-113504500D03*
X100939500Y-110004500D03*
X119579500Y-108504500D03*
X119579500Y-105004500D03*
X138219500Y-113404500D03*
X138219500Y-109904500D03*
X156859500Y-116004500D03*
X156859500Y-112504500D03*
X143607500Y-143530000D03*
X143607500Y-140030000D03*
X176607500Y-151530000D03*
X176607500Y-148030000D03*
X179607500Y-151530000D03*
X179607500Y-148030000D03*
D18*
X58859500Y-99504500D03*
X58859500Y-98104500D03*
X53259500Y-98104500D03*
X53259500Y-99504500D03*
X77499500Y-92504500D03*
X77499500Y-91104500D03*
X71899500Y-91104500D03*
X71899500Y-92504500D03*
X96139500Y-80004500D03*
X96139500Y-78604500D03*
X90539500Y-78604500D03*
X90539500Y-80004500D03*
X114779500Y-75004500D03*
X114779500Y-73604500D03*
X109179500Y-73604500D03*
X109179500Y-75004500D03*
X133419500Y-79904500D03*
X133419500Y-78504500D03*
X127819500Y-78504500D03*
X127819500Y-79904500D03*
X152059500Y-82504500D03*
X152059500Y-81104500D03*
X146459500Y-81104500D03*
X146459500Y-82504500D03*
X58859500Y-118104500D03*
X58859500Y-116704500D03*
X53259500Y-116704500D03*
X53259500Y-118104500D03*
X77499500Y-111104500D03*
X77499500Y-109704500D03*
X71899500Y-109704500D03*
X71899500Y-111104500D03*
X96139500Y-98604500D03*
X96139500Y-97204500D03*
X90539500Y-97204500D03*
X90539500Y-98604500D03*
X114779500Y-93604500D03*
X114779500Y-92204500D03*
X109179500Y-92204500D03*
X109179500Y-93604500D03*
X133419500Y-98504500D03*
X133419500Y-97104500D03*
X127819500Y-97104500D03*
X127819500Y-98504500D03*
X152059500Y-101104500D03*
X152059500Y-99704500D03*
X146459500Y-99704500D03*
X146459500Y-101104500D03*
X58859500Y-136704500D03*
X58859500Y-135304500D03*
X53259500Y-135304500D03*
X53259500Y-136704500D03*
X77499500Y-129704500D03*
X77499500Y-128304500D03*
X71899500Y-128304500D03*
X71899500Y-129704500D03*
X96139500Y-117204500D03*
X96139500Y-115804500D03*
X90539500Y-115804500D03*
X90539500Y-117204500D03*
X114779500Y-112204500D03*
X114779500Y-110804500D03*
X109179500Y-110804500D03*
X109179500Y-112204500D03*
X152059500Y-119704500D03*
X152059500Y-118304500D03*
X146459500Y-118304500D03*
X146459500Y-119704500D03*
D19*
X188191660Y-156902682D03*
X188866758Y-155676205D03*
X183960854Y-152975816D03*
X183285756Y-154202293D03*
D20*
X79779500Y-87054500D03*
D21*
X77239500Y-81974500D03*
D22*
X74699500Y-87054500D03*
D21*
X70889500Y-84514500D03*
D20*
X69619500Y-87054500D03*
D23*
X67614500Y-84514500D03*
X80541500Y-81974500D03*
D20*
X98419500Y-74554500D03*
D21*
X95879500Y-69474500D03*
D22*
X93339500Y-74554500D03*
D21*
X89529500Y-72014500D03*
D20*
X88259500Y-74554500D03*
D23*
X86254500Y-72014500D03*
X99181500Y-69474500D03*
D20*
X117059500Y-69554500D03*
D21*
X114519500Y-64474500D03*
D22*
X111979500Y-69554500D03*
D21*
X108169500Y-67014500D03*
D20*
X106899500Y-69554500D03*
D23*
X104894500Y-67014500D03*
X117821500Y-64474500D03*
D20*
X135699500Y-74454500D03*
D21*
X133159500Y-69374500D03*
D22*
X130619500Y-74454500D03*
D21*
X126809500Y-71914500D03*
D20*
X125539500Y-74454500D03*
D23*
X123534500Y-71914500D03*
X136461500Y-69374500D03*
D20*
X61139500Y-112654500D03*
D21*
X58599500Y-107574500D03*
D22*
X56059500Y-112654500D03*
D21*
X52249500Y-110114500D03*
D20*
X50979500Y-112654500D03*
D23*
X48974500Y-110114500D03*
X61901500Y-107574500D03*
D20*
X79779500Y-105654500D03*
D21*
X77239500Y-100574500D03*
D22*
X74699500Y-105654500D03*
D21*
X70889500Y-103114500D03*
D20*
X69619500Y-105654500D03*
D23*
X67614500Y-103114500D03*
X80541500Y-100574500D03*
D20*
X98419500Y-93154500D03*
D21*
X95879500Y-88074500D03*
D22*
X93339500Y-93154500D03*
D21*
X89529500Y-90614500D03*
D20*
X88259500Y-93154500D03*
D23*
X86254500Y-90614500D03*
X99181500Y-88074500D03*
D20*
X117059500Y-88154500D03*
D21*
X114519500Y-83074500D03*
D22*
X111979500Y-88154500D03*
D21*
X108169500Y-85614500D03*
D20*
X106899500Y-88154500D03*
D23*
X104894500Y-85614500D03*
X117821500Y-83074500D03*
D20*
X135699500Y-93054500D03*
D21*
X133159500Y-87974500D03*
D22*
X130619500Y-93054500D03*
D21*
X126809500Y-90514500D03*
D20*
X125539500Y-93054500D03*
D23*
X123534500Y-90514500D03*
X136461500Y-87974500D03*
D20*
X154339500Y-95654500D03*
D21*
X151799500Y-90574500D03*
D22*
X149259500Y-95654500D03*
D21*
X145449500Y-93114500D03*
D20*
X144179500Y-95654500D03*
D23*
X142174500Y-93114500D03*
X155101500Y-90574500D03*
D20*
X61139500Y-131254500D03*
D21*
X58599500Y-126174500D03*
D22*
X56059500Y-131254500D03*
D21*
X52249500Y-128714500D03*
D20*
X50979500Y-131254500D03*
D23*
X48974500Y-128714500D03*
X61901500Y-126174500D03*
D20*
X79779500Y-124254500D03*
D21*
X77239500Y-119174500D03*
D22*
X74699500Y-124254500D03*
D21*
X70889500Y-121714500D03*
D20*
X69619500Y-124254500D03*
D23*
X67614500Y-121714500D03*
X80541500Y-119174500D03*
D20*
X98419500Y-111754500D03*
D21*
X95879500Y-106674500D03*
D22*
X93339500Y-111754500D03*
D21*
X89529500Y-109214500D03*
D20*
X88259500Y-111754500D03*
D23*
X86254500Y-109214500D03*
X99181500Y-106674500D03*
D20*
X117059500Y-106754500D03*
D21*
X114519500Y-101674500D03*
D22*
X111979500Y-106754500D03*
D21*
X108169500Y-104214500D03*
D20*
X106899500Y-106754500D03*
D23*
X104894500Y-104214500D03*
X117821500Y-101674500D03*
D20*
X135699500Y-111654500D03*
D21*
X133159500Y-106574500D03*
D22*
X130619500Y-111654500D03*
D21*
X126809500Y-109114500D03*
D20*
X125539500Y-111654500D03*
D23*
X123534500Y-109114500D03*
X136461500Y-106574500D03*
D20*
X154339500Y-114254500D03*
D21*
X151799500Y-109174500D03*
D22*
X149259500Y-114254500D03*
D21*
X145449500Y-111714500D03*
D20*
X144179500Y-114254500D03*
D23*
X142174500Y-111714500D03*
X155101500Y-109174500D03*
D20*
X156235298Y-138781285D03*
D21*
X154599874Y-133342224D03*
D22*
X151229879Y-137914000D03*
D21*
X147909458Y-134760827D03*
D20*
X146224460Y-137046715D03*
D24*
X144682539Y-134201701D03*
X157853396Y-133905959D03*
D20*
X175143508Y-144405523D03*
D21*
X174428217Y-138771133D03*
D22*
X170349879Y-142724000D03*
D21*
X167595419Y-139066043D03*
D20*
X165556250Y-141042477D03*
D25*
X164505038Y-137981990D03*
X177544076Y-139864123D03*
D20*
X192809856Y-153223639D03*
D21*
X193034317Y-147548464D03*
D22*
X188359500Y-150774000D03*
D21*
X186246553Y-146711593D03*
D20*
X183909144Y-148324361D03*
D26*
X183377475Y-145132347D03*
X195927049Y-149140729D03*
D27*
X77149500Y-75130000D03*
X77149500Y-78430000D03*
X72249500Y-78430000D03*
X72249500Y-75130000D03*
X114429500Y-57630000D03*
X114429500Y-60930000D03*
X109529500Y-60930000D03*
X109529500Y-57630000D03*
X151709500Y-65130000D03*
X151709500Y-68430000D03*
X146809500Y-68430000D03*
X146809500Y-65130000D03*
X114429500Y-114604500D03*
X114429500Y-117904500D03*
X109529500Y-117904500D03*
X109529500Y-114604500D03*
X151709500Y-122104500D03*
X151709500Y-125404500D03*
X146809500Y-125404500D03*
X146809500Y-122104500D03*
X336230500Y-75280000D03*
X336230500Y-78580000D03*
X331330500Y-78580000D03*
X331330500Y-75280000D03*
X298950500Y-57880000D03*
X298950500Y-61180000D03*
X294050500Y-61180000D03*
X294050500Y-57880000D03*
X261670500Y-65380000D03*
X261670500Y-68680000D03*
X256770500Y-68680000D03*
X256770500Y-65380000D03*
X336230500Y-132130000D03*
X336230500Y-135430000D03*
X331330500Y-135430000D03*
X331330500Y-132130000D03*
X298950500Y-114630000D03*
X298950500Y-117930000D03*
X294050500Y-117930000D03*
X294050500Y-114630000D03*
X261670500Y-122110000D03*
X261670500Y-125410000D03*
X256770500Y-125410000D03*
X256770500Y-122110000D03*
D18*
X299300500Y-93610000D03*
X299300500Y-92210000D03*
X293700500Y-92210000D03*
X293700500Y-93610000D03*
X280660500Y-98510000D03*
X280660500Y-97110000D03*
X275060500Y-97110000D03*
X275060500Y-98510000D03*
X262020500Y-101110000D03*
X262020500Y-99710000D03*
X256420500Y-99710000D03*
X256420500Y-101110000D03*
X355220500Y-136710000D03*
X355220500Y-135310000D03*
X349620500Y-135310000D03*
X349620500Y-136710000D03*
X336580500Y-129710000D03*
X336580500Y-128310000D03*
X330980500Y-128310000D03*
X330980500Y-129710000D03*
X317940500Y-117210000D03*
X317940500Y-115810000D03*
X312340500Y-115810000D03*
X312340500Y-117210000D03*
X299300500Y-112210000D03*
X299300500Y-110810000D03*
X293700500Y-110810000D03*
X293700500Y-112210000D03*
X280660500Y-117110000D03*
X280660500Y-115710000D03*
X275060500Y-115710000D03*
X275060500Y-117110000D03*
X262020500Y-119710000D03*
X262020500Y-118310000D03*
X256420500Y-118310000D03*
X256420500Y-119710000D03*
D28*
X260940199Y-142812132D03*
X260701183Y-141432686D03*
X255183399Y-142388748D03*
X255422415Y-143768194D03*
D29*
X242573045Y-146940861D03*
X242109633Y-145619782D03*
X236825317Y-147473429D03*
X237288729Y-148794508D03*
D20*
X224577356Y-148325611D03*
D21*
X219902539Y-145100074D03*
D22*
X220127000Y-150775250D03*
D21*
X215564413Y-150387301D03*
D20*
X215676644Y-153224889D03*
D30*
X212695336Y-151966547D03*
X222795270Y-143507809D03*
D17*
X341387500Y-88805000D03*
X341387500Y-85305000D03*
X322747500Y-76305000D03*
X322747500Y-72805000D03*
X304107500Y-71305000D03*
X304107500Y-67805000D03*
X266820500Y-78810000D03*
X266820500Y-75310000D03*
X360027500Y-114250000D03*
X360027500Y-110750000D03*
X341387500Y-107405000D03*
X341387500Y-103905000D03*
X322747500Y-94905000D03*
X322747500Y-91405000D03*
X304107500Y-89905000D03*
X304107500Y-86405000D03*
X285467500Y-94805000D03*
X285467500Y-91305000D03*
X266820500Y-97410000D03*
X266820500Y-93910000D03*
X360027500Y-133000000D03*
X360027500Y-129500000D03*
X341387500Y-126005000D03*
X341387500Y-122505000D03*
X322747500Y-113505000D03*
X322747500Y-110005000D03*
X304107500Y-108505000D03*
X304107500Y-105005000D03*
X285467500Y-113405000D03*
X285467500Y-109905000D03*
X266820500Y-116010000D03*
X266820500Y-112510000D03*
X265607500Y-141530000D03*
X265607500Y-138030000D03*
X247107500Y-144530000D03*
X247107500Y-141030000D03*
X229107500Y-151030000D03*
X229107500Y-147530000D03*
X360027500Y-95800000D03*
X360027500Y-92300000D03*
D20*
X301587500Y-106755000D03*
D21*
X299047500Y-101675000D03*
D22*
X296507500Y-106755000D03*
D21*
X292697500Y-104215000D03*
D20*
X291427500Y-106755000D03*
D23*
X289422500Y-104215000D03*
X302349500Y-101675000D03*
D20*
X282947500Y-111655000D03*
D21*
X280407500Y-106575000D03*
D22*
X277867500Y-111655000D03*
D21*
X274057500Y-109115000D03*
D20*
X272787500Y-111655000D03*
D23*
X270782500Y-109115000D03*
X283709500Y-106575000D03*
D20*
X264307500Y-114255000D03*
D21*
X261767500Y-109175000D03*
D22*
X259227500Y-114255000D03*
D21*
X255417500Y-111715000D03*
D20*
X254147500Y-114255000D03*
D23*
X252142500Y-111715000D03*
X265069500Y-109175000D03*
D20*
X262262316Y-137046770D03*
D21*
X258892321Y-132474994D03*
D22*
X257256897Y-137914055D03*
D21*
X253069190Y-136061810D03*
D20*
X252251478Y-138781340D03*
D31*
X249842272Y-136620935D03*
X262145843Y-131911258D03*
D20*
X242930519Y-141043389D03*
D21*
X238852181Y-137090521D03*
D22*
X238136890Y-142724912D03*
D21*
X233700907Y-141589240D03*
D20*
X233343261Y-144406435D03*
D32*
X230610526Y-142673293D03*
X241968040Y-135997531D03*
D20*
X301587500Y-69555000D03*
D21*
X299047500Y-64475000D03*
D22*
X296507500Y-69555000D03*
D21*
X292697500Y-67015000D03*
D20*
X291427500Y-69555000D03*
D23*
X289422500Y-67015000D03*
X302349500Y-64475000D03*
D20*
X282947500Y-74455000D03*
D21*
X280407500Y-69375000D03*
D22*
X277867500Y-74455000D03*
D21*
X274057500Y-71915000D03*
D20*
X272787500Y-74455000D03*
D23*
X270782500Y-71915000D03*
X283709500Y-69375000D03*
D20*
X357507500Y-112655000D03*
D21*
X354967500Y-107575000D03*
D22*
X352427500Y-112655000D03*
D21*
X348617500Y-110115000D03*
D20*
X347347500Y-112655000D03*
D23*
X345342500Y-110115000D03*
X358269500Y-107575000D03*
D20*
X320227500Y-74555000D03*
D21*
X317687500Y-69475000D03*
D22*
X315147500Y-74555000D03*
D21*
X311337500Y-72015000D03*
D20*
X310067500Y-74555000D03*
D23*
X308062500Y-72015000D03*
X320989500Y-69475000D03*
D20*
X338867500Y-105655000D03*
D21*
X336327500Y-100575000D03*
D22*
X333787500Y-105655000D03*
D21*
X329977500Y-103115000D03*
D20*
X328707500Y-105655000D03*
D23*
X326702500Y-103115000D03*
X339629500Y-100575000D03*
D20*
X338867500Y-124255000D03*
D21*
X336327500Y-119175000D03*
D22*
X333787500Y-124255000D03*
D21*
X329977500Y-121715000D03*
D20*
X328707500Y-124255000D03*
D23*
X326702500Y-121715000D03*
X339629500Y-119175000D03*
D20*
X320227500Y-111755000D03*
D21*
X317687500Y-106675000D03*
D22*
X315147500Y-111755000D03*
D21*
X311337500Y-109215000D03*
D20*
X310067500Y-111755000D03*
D23*
X308062500Y-109215000D03*
X320989500Y-106675000D03*
D20*
X357507500Y-94055000D03*
D21*
X354967500Y-88975000D03*
D22*
X352427500Y-94055000D03*
D21*
X348617500Y-91515000D03*
D20*
X347347500Y-94055000D03*
D23*
X345342500Y-91515000D03*
X358269500Y-88975000D03*
D20*
X338867500Y-87055000D03*
D21*
X336327500Y-81975000D03*
D22*
X333787500Y-87055000D03*
D21*
X329977500Y-84515000D03*
D20*
X328707500Y-87055000D03*
D23*
X326702500Y-84515000D03*
X339629500Y-81975000D03*
D20*
X320227500Y-93155000D03*
D21*
X317687500Y-88075000D03*
D22*
X315147500Y-93155000D03*
D21*
X311337500Y-90615000D03*
D20*
X310067500Y-93155000D03*
D23*
X308062500Y-90615000D03*
X320989500Y-88075000D03*
D20*
X301587500Y-88155000D03*
D21*
X299047500Y-83075000D03*
D22*
X296507500Y-88155000D03*
D21*
X292697500Y-85615000D03*
D20*
X291427500Y-88155000D03*
D23*
X289422500Y-85615000D03*
X302349500Y-83075000D03*
D20*
X282947500Y-93055000D03*
D21*
X280407500Y-87975000D03*
D22*
X277867500Y-93055000D03*
D21*
X274057500Y-90515000D03*
D20*
X272787500Y-93055000D03*
D23*
X270782500Y-90515000D03*
X283709500Y-87975000D03*
D20*
X264307500Y-95655000D03*
D21*
X261767500Y-90575000D03*
D22*
X259227500Y-95655000D03*
D21*
X255417500Y-93115000D03*
D20*
X254147500Y-95655000D03*
D23*
X252142500Y-93115000D03*
X265069500Y-90575000D03*
D20*
X357507500Y-131255000D03*
D21*
X354967500Y-126175000D03*
D22*
X352427500Y-131255000D03*
D21*
X348617500Y-128715000D03*
D20*
X347347500Y-131255000D03*
D23*
X345342500Y-128715000D03*
X358269500Y-126175000D03*
D17*
X285467500Y-76205000D03*
X285467500Y-72705000D03*
D20*
X61139500Y-94054500D03*
D21*
X58599500Y-88974500D03*
D22*
X56059500Y-94054500D03*
D21*
X52249500Y-91514500D03*
D20*
X50979500Y-94054500D03*
D23*
X48974500Y-91514500D03*
X61901500Y-88974500D03*
D33*
X153058317Y-143762018D03*
X153297333Y-142382572D03*
X147779549Y-141426510D03*
X147540533Y-142805956D03*
D34*
X171198041Y-148793595D03*
X171661453Y-147472516D03*
X166377137Y-145618869D03*
X165913725Y-146939948D03*
D27*
X77149500Y-132130000D03*
X77149500Y-135430000D03*
X72249500Y-135430000D03*
X72249500Y-132130000D03*
D18*
X133419500Y-117104500D03*
X133419500Y-115704500D03*
X127819500Y-115704500D03*
X127819500Y-117104500D03*
X355220500Y-99510000D03*
X355220500Y-98110000D03*
X349620500Y-98110000D03*
X349620500Y-99510000D03*
X336580500Y-92510000D03*
X336580500Y-91110000D03*
X330980500Y-91110000D03*
X330980500Y-92510000D03*
X317940500Y-80010000D03*
X317940500Y-78610000D03*
X312340500Y-78610000D03*
X312340500Y-80010000D03*
X299300500Y-75010000D03*
X299300500Y-73610000D03*
X293700500Y-73610000D03*
X293700500Y-75010000D03*
X280660500Y-79910000D03*
X280660500Y-78510000D03*
X275060500Y-78510000D03*
X275060500Y-79910000D03*
X262020500Y-82510000D03*
X262020500Y-81110000D03*
X256420500Y-81110000D03*
X256420500Y-82510000D03*
X355220500Y-118110000D03*
X355220500Y-116710000D03*
X349620500Y-116710000D03*
X349620500Y-118110000D03*
X336580500Y-111110000D03*
X336580500Y-109710000D03*
X330980500Y-109710000D03*
X330980500Y-111110000D03*
X317940500Y-98610000D03*
X317940500Y-97210000D03*
X312340500Y-97210000D03*
X312340500Y-98610000D03*
D14*
X232031500Y-126040000D03*
X246463500Y-117519000D03*
D20*
X154339500Y-77054500D03*
D21*
X151799500Y-71974500D03*
D22*
X149259500Y-77054500D03*
D21*
X145449500Y-74514500D03*
D20*
X144179500Y-77054500D03*
D23*
X142174500Y-74514500D03*
X155101500Y-71974500D03*
D20*
X264300500Y-77060000D03*
D21*
X261760500Y-71980000D03*
D22*
X259220500Y-77060000D03*
D21*
X255410500Y-74520000D03*
D20*
X254140500Y-77060000D03*
D23*
X252135500Y-74520000D03*
X265062500Y-71980000D03*
D35*
X225200744Y-154203543D03*
X224525646Y-152977066D03*
X219619742Y-155677455D03*
X220294840Y-156903932D03*
D36*
X160607500Y-126780000D03*
X158782500Y-126780000D03*
D37*
X250695000Y-125780000D03*
X252520000Y-125780000D03*
D38*
X363530860Y-139120000D03*
X363530860Y-136580000D03*
X363530860Y-121340000D03*
X363530860Y-118800000D03*
X363530860Y-116260000D03*
X363530860Y-113720000D03*
X363530860Y-111180000D03*
X363530860Y-108640000D03*
X363530860Y-106100000D03*
X363530860Y-103560000D03*
X363530860Y-101020000D03*
X363530860Y-98480000D03*
X363530860Y-95940000D03*
X363530860Y-93400000D03*
X363530860Y-90860000D03*
X363530860Y-88320000D03*
X363530860Y-85780000D03*
X360990860Y-139120000D03*
X360990860Y-126420000D03*
X360990860Y-118800000D03*
X360990860Y-106100000D03*
X360990860Y-103560000D03*
X360990860Y-101020000D03*
X360990860Y-98480000D03*
X358450860Y-139120000D03*
X358450860Y-123880000D03*
X358450860Y-116260000D03*
X358450860Y-103560000D03*
X355910860Y-95940000D03*
X353370860Y-121340000D03*
X350830860Y-121340000D03*
X350830860Y-103560000D03*
X350830860Y-88320000D03*
X348290860Y-103560000D03*
X348290860Y-95940000D03*
X348290860Y-83240000D03*
X348290860Y-80700000D03*
X345750860Y-139120000D03*
X345750860Y-85780000D03*
X345750860Y-83240000D03*
X345750860Y-80700000D03*
X343210860Y-139120000D03*
X343210860Y-136580000D03*
X343210860Y-78160000D03*
X343210860Y-75620000D03*
X340670860Y-136580000D03*
X340670860Y-116260000D03*
X340670860Y-113720000D03*
X340670860Y-111180000D03*
X340670860Y-75620000D03*
X338130860Y-136580000D03*
X338130860Y-126420000D03*
X338130860Y-116260000D03*
X338130860Y-113720000D03*
X338130860Y-103560000D03*
X335590860Y-116260000D03*
X335590860Y-113720000D03*
X333050860Y-136580000D03*
X333050860Y-116260000D03*
X333050860Y-113720000D03*
X333050860Y-83240000D03*
X333050860Y-80700000D03*
X333050860Y-78160000D03*
X330510860Y-88320000D03*
X330510860Y-80700000D03*
X327970860Y-136580000D03*
X327970860Y-134040000D03*
X327970860Y-118800000D03*
X327970860Y-113720000D03*
X327970860Y-111180000D03*
X327970860Y-108640000D03*
X327970860Y-95940000D03*
X327970860Y-93400000D03*
X327970860Y-80700000D03*
X327970860Y-78160000D03*
X325430860Y-134040000D03*
X325430860Y-131500000D03*
X325430860Y-118800000D03*
X325430860Y-95940000D03*
X325430860Y-93400000D03*
X325430860Y-90860000D03*
X325430860Y-80700000D03*
X325430860Y-78160000D03*
X325430860Y-75620000D03*
X325430860Y-62920000D03*
X322890860Y-134040000D03*
X322890860Y-131500000D03*
X322890860Y-128960000D03*
X322890860Y-118800000D03*
X322890860Y-116260000D03*
X320350860Y-131500000D03*
X320350860Y-128960000D03*
X320350860Y-126420000D03*
X320350860Y-118800000D03*
X320350860Y-113720000D03*
X320350860Y-95940000D03*
X320350860Y-90860000D03*
X320350860Y-85780000D03*
X320350860Y-62920000D03*
X317810860Y-131500000D03*
X317810860Y-128960000D03*
X317810860Y-126420000D03*
X317810860Y-123880000D03*
X317810860Y-62920000D03*
X315270860Y-128960000D03*
X315270860Y-126420000D03*
X315270860Y-123880000D03*
X315270860Y-70540000D03*
X315270860Y-68000000D03*
X315270860Y-62920000D03*
X312730860Y-128960000D03*
X312730860Y-126420000D03*
X312730860Y-123880000D03*
X312730860Y-106100000D03*
X312730860Y-88320000D03*
X312730860Y-85780000D03*
X312730860Y-68000000D03*
X312730860Y-62920000D03*
X310190860Y-128960000D03*
X310190860Y-126420000D03*
X310190860Y-123880000D03*
X310190860Y-121340000D03*
X310190860Y-106100000D03*
X310190860Y-85780000D03*
X310190860Y-68000000D03*
X310190860Y-62920000D03*
X307650860Y-126420000D03*
X307650860Y-123880000D03*
X307650860Y-121340000D03*
X307650860Y-113720000D03*
X307650860Y-68000000D03*
X305110860Y-126420000D03*
X305110860Y-123880000D03*
X305110860Y-121340000D03*
X305110860Y-118800000D03*
X305110860Y-111180000D03*
X305110860Y-93400000D03*
X305110860Y-88320000D03*
X305110860Y-83240000D03*
X305110860Y-80700000D03*
X305110860Y-65460000D03*
X305110860Y-57840000D03*
X302570860Y-126420000D03*
X302570860Y-123880000D03*
X302570860Y-121340000D03*
X302570860Y-118800000D03*
X302570860Y-111180000D03*
X302570860Y-93400000D03*
X302570860Y-80700000D03*
X302570860Y-75620000D03*
X300030860Y-126420000D03*
X300030860Y-123880000D03*
X300030860Y-121340000D03*
X300030860Y-80700000D03*
X300030860Y-68000000D03*
X300030860Y-55300000D03*
X297490860Y-126420000D03*
X297490860Y-123880000D03*
X297490860Y-80700000D03*
X297490860Y-55300000D03*
X294950860Y-126420000D03*
X294950860Y-116260000D03*
X294950860Y-65460000D03*
X294950860Y-62920000D03*
X294950860Y-55300000D03*
X292410860Y-126420000D03*
X292410860Y-121340000D03*
X292410860Y-118800000D03*
X292410860Y-108640000D03*
X292410860Y-90860000D03*
X292410860Y-83240000D03*
X292410860Y-80700000D03*
X292410860Y-62920000D03*
X292410860Y-55300000D03*
X289870860Y-126420000D03*
X289870860Y-121340000D03*
X289870860Y-111180000D03*
X289870860Y-108640000D03*
X289870860Y-62920000D03*
X287330860Y-126420000D03*
X287330860Y-113720000D03*
X287330860Y-95940000D03*
X287330860Y-93400000D03*
X287330860Y-90860000D03*
X287330860Y-88320000D03*
X287330860Y-83240000D03*
X287330860Y-57840000D03*
X284790860Y-126420000D03*
X284790860Y-85780000D03*
X284790860Y-65460000D03*
X284790860Y-60380000D03*
X282250860Y-126420000D03*
X282250860Y-113720000D03*
X282250860Y-90860000D03*
X282250860Y-85780000D03*
X282250860Y-65460000D03*
X279710860Y-126420000D03*
X279710860Y-65460000D03*
X277170860Y-126420000D03*
X277170860Y-70540000D03*
X277170860Y-68000000D03*
X277170860Y-65460000D03*
X274630860Y-126420000D03*
X274630860Y-106100000D03*
X274630860Y-93400000D03*
X274630860Y-85780000D03*
X274630860Y-75620000D03*
X274630860Y-68000000D03*
X274630860Y-65460000D03*
X272090860Y-126420000D03*
X272090860Y-106100000D03*
X272090860Y-88320000D03*
X272090860Y-85780000D03*
X272090860Y-78160000D03*
X272090860Y-68000000D03*
X272090860Y-65460000D03*
X269550860Y-146740000D03*
X269550860Y-144200000D03*
X269550860Y-126420000D03*
X269550860Y-116260000D03*
X269550860Y-88320000D03*
X269550860Y-85780000D03*
X269550860Y-78160000D03*
X269550860Y-75620000D03*
X269550860Y-68000000D03*
X267010860Y-146740000D03*
X267010860Y-68000000D03*
X264470860Y-131500000D03*
X264470860Y-128960000D03*
X264470860Y-118800000D03*
X264470860Y-116260000D03*
X264470860Y-98480000D03*
X264470860Y-93400000D03*
X264470860Y-88320000D03*
X261930860Y-128960000D03*
X261930860Y-85780000D03*
X259390860Y-128960000D03*
X259390860Y-88320000D03*
X259390860Y-85780000D03*
X259390860Y-73080000D03*
X259390860Y-70540000D03*
X259390860Y-68000000D03*
X259390860Y-65460000D03*
X256850860Y-128960000D03*
X256850860Y-123880000D03*
X256850860Y-70540000D03*
X254310860Y-149280000D03*
X254310860Y-139120000D03*
X254310860Y-131500000D03*
X254310860Y-128960000D03*
X254310860Y-123880000D03*
X254310860Y-116260000D03*
X254310860Y-88320000D03*
X254310860Y-85780000D03*
X254310860Y-83240000D03*
X254310860Y-80700000D03*
X254310860Y-70540000D03*
X254310860Y-65460000D03*
X251770860Y-149280000D03*
X251770860Y-141660000D03*
X251770860Y-131500000D03*
X251770860Y-128960000D03*
X251770860Y-123880000D03*
X251770860Y-116260000D03*
X251770860Y-68000000D03*
X251770860Y-65460000D03*
X249230860Y-131500000D03*
X249230860Y-128960000D03*
X246690860Y-113720000D03*
X246690860Y-111180000D03*
X244150860Y-144200000D03*
X244150860Y-134040000D03*
X244150860Y-116260000D03*
X244150860Y-113720000D03*
X244150860Y-85780000D03*
X244150860Y-83240000D03*
X244150860Y-78160000D03*
X244150860Y-75620000D03*
X241610860Y-139120000D03*
X241610860Y-126420000D03*
X241610860Y-123880000D03*
X241610860Y-121340000D03*
X241610860Y-101020000D03*
X241610860Y-98480000D03*
X241610860Y-95940000D03*
X241610860Y-93400000D03*
X241610860Y-90860000D03*
X241610860Y-88320000D03*
X241610860Y-85780000D03*
X241610860Y-80700000D03*
X241610860Y-78160000D03*
X241610860Y-75620000D03*
X239070860Y-134040000D03*
X239070860Y-128960000D03*
X239070860Y-126420000D03*
X239070860Y-123880000D03*
X239070860Y-98480000D03*
X239070860Y-95940000D03*
X239070860Y-93400000D03*
X239070860Y-90860000D03*
X239070860Y-88320000D03*
X239070860Y-83240000D03*
X239070860Y-80700000D03*
X239070860Y-78160000D03*
X239070860Y-75620000D03*
X236530860Y-154360000D03*
X236530860Y-139120000D03*
X236530860Y-134040000D03*
X236530860Y-128960000D03*
X236530860Y-126420000D03*
X236530860Y-83240000D03*
X236530860Y-80700000D03*
X236530860Y-78160000D03*
X236530860Y-75620000D03*
X233990860Y-146740000D03*
X233990860Y-139120000D03*
X233990860Y-136580000D03*
X233990860Y-121340000D03*
X233990860Y-106100000D03*
X233990860Y-103560000D03*
X233990860Y-80700000D03*
X233990860Y-78160000D03*
X233990860Y-75620000D03*
X231450860Y-128960000D03*
X231450860Y-123880000D03*
X231450860Y-121340000D03*
X228910860Y-149280000D03*
X226370860Y-159440000D03*
X226370860Y-156900000D03*
X223830860Y-159440000D03*
X221290860Y-161980000D03*
X221290860Y-159440000D03*
X218750860Y-161980000D03*
X218750860Y-159440000D03*
X218750860Y-139120000D03*
X216210860Y-164520000D03*
X216210860Y-161980000D03*
X216210860Y-159440000D03*
X216210860Y-156900000D03*
X216210860Y-141660000D03*
X213670860Y-161980000D03*
X213670860Y-159440000D03*
X213670860Y-156900000D03*
X213670860Y-154360000D03*
X213670860Y-144200000D03*
X213670860Y-141660000D03*
X211130860Y-156900000D03*
X211130860Y-154360000D03*
X211130860Y-146740000D03*
X211130860Y-144200000D03*
X208590860Y-151820000D03*
X208590860Y-149280000D03*
X208590860Y-146740000D03*
X200970860Y-149280000D03*
X200970860Y-146740000D03*
X198430860Y-154360000D03*
X198430860Y-144200000D03*
X195890860Y-159440000D03*
X195890860Y-156900000D03*
X195890860Y-151820000D03*
X193350860Y-161980000D03*
X193350860Y-159440000D03*
X190810860Y-164520000D03*
X190810860Y-161980000D03*
X190810860Y-144200000D03*
X188270860Y-161980000D03*
X188270860Y-139120000D03*
X183190860Y-159440000D03*
X180650860Y-156900000D03*
X180650860Y-139120000D03*
X178110860Y-156900000D03*
X178110860Y-154360000D03*
X178110860Y-136580000D03*
X178110860Y-131500000D03*
X178110860Y-128960000D03*
X178110860Y-123880000D03*
X178110860Y-121340000D03*
X178110860Y-118800000D03*
X178110860Y-116260000D03*
X178110860Y-111180000D03*
X178110860Y-108640000D03*
X175570860Y-154360000D03*
X175570860Y-134040000D03*
X175570860Y-131500000D03*
X175570860Y-128960000D03*
X175570860Y-111180000D03*
X175570860Y-108640000D03*
X173030860Y-154360000D03*
X173030860Y-134040000D03*
X173030860Y-131500000D03*
X173030860Y-128960000D03*
X173030860Y-126420000D03*
X173030860Y-101020000D03*
X173030860Y-98480000D03*
X173030860Y-95940000D03*
X173030860Y-93400000D03*
X173030860Y-90860000D03*
X173030860Y-88320000D03*
X173030860Y-85780000D03*
X173030860Y-83240000D03*
X173030860Y-80700000D03*
X173030860Y-78160000D03*
X170490860Y-154360000D03*
X170490860Y-134040000D03*
X170490860Y-131500000D03*
X170490860Y-128960000D03*
X170490860Y-126420000D03*
X170490860Y-103560000D03*
X170490860Y-101020000D03*
X170490860Y-98480000D03*
X170490860Y-95940000D03*
X170490860Y-93400000D03*
X170490860Y-90860000D03*
X170490860Y-88320000D03*
X170490860Y-85780000D03*
X170490860Y-83240000D03*
X170490860Y-80700000D03*
X170490860Y-78160000D03*
X167950860Y-134040000D03*
X167950860Y-131500000D03*
X167950860Y-128960000D03*
X167950860Y-126420000D03*
X167950860Y-103560000D03*
X167950860Y-101020000D03*
X167950860Y-98480000D03*
X167950860Y-95940000D03*
X167950860Y-93400000D03*
X167950860Y-90860000D03*
X167950860Y-88320000D03*
X167950860Y-85780000D03*
X167950860Y-83240000D03*
X167950860Y-80700000D03*
X167950860Y-78160000D03*
X165410860Y-134040000D03*
X165410860Y-131500000D03*
X165410860Y-128960000D03*
X165410860Y-113720000D03*
X165410860Y-103560000D03*
X165410860Y-101020000D03*
X165410860Y-98480000D03*
X165410860Y-95940000D03*
X165410860Y-93400000D03*
X165410860Y-90860000D03*
X165410860Y-88320000D03*
X165410860Y-85780000D03*
X165410860Y-83240000D03*
X165410860Y-80700000D03*
X165410860Y-78160000D03*
X162870860Y-141660000D03*
X160330860Y-149280000D03*
X160330860Y-128960000D03*
X160330860Y-123880000D03*
X157790860Y-149280000D03*
X157790860Y-68000000D03*
X157790860Y-65460000D03*
X155250860Y-149280000D03*
X155250860Y-136580000D03*
X152710860Y-85780000D03*
X152710860Y-75620000D03*
X150170860Y-85780000D03*
X147630860Y-139120000D03*
X147630860Y-85780000D03*
X147630860Y-70540000D03*
X145090860Y-141660000D03*
X145090860Y-116260000D03*
X145090860Y-108640000D03*
X145090860Y-85780000D03*
X145090860Y-70540000D03*
X145090860Y-65460000D03*
X142550860Y-146740000D03*
X142550860Y-70540000D03*
X142550860Y-65460000D03*
X140010860Y-146740000D03*
X140010860Y-144200000D03*
X140010860Y-141660000D03*
X140010860Y-139120000D03*
X140010860Y-136580000D03*
X140010860Y-128960000D03*
X140010860Y-126420000D03*
X140010860Y-93400000D03*
X140010860Y-90860000D03*
X140010860Y-85780000D03*
X140010860Y-83240000D03*
X140010860Y-75620000D03*
X140010860Y-73080000D03*
X140010860Y-70540000D03*
X140010860Y-65460000D03*
X140010860Y-62920000D03*
X137470860Y-126420000D03*
X137470860Y-123880000D03*
X137470860Y-83240000D03*
X137470860Y-80700000D03*
X137470860Y-65460000D03*
X137470860Y-62920000D03*
X134930860Y-126420000D03*
X134930860Y-123880000D03*
X134930860Y-118800000D03*
X134930860Y-113720000D03*
X134930860Y-90860000D03*
X134930860Y-65460000D03*
X134930860Y-62920000D03*
X132390860Y-126420000D03*
X132390860Y-123880000D03*
X132390860Y-65460000D03*
X132390860Y-62920000D03*
X129850860Y-126420000D03*
X129850860Y-123880000D03*
X129850860Y-108640000D03*
X129850860Y-70540000D03*
X129850860Y-65460000D03*
X129850860Y-62920000D03*
X127310860Y-126420000D03*
X127310860Y-123880000D03*
X127310860Y-106100000D03*
X127310860Y-83240000D03*
X127310860Y-75620000D03*
X127310860Y-65460000D03*
X127310860Y-62920000D03*
X124770860Y-126420000D03*
X124770860Y-123880000D03*
X124770860Y-106100000D03*
X124770860Y-88320000D03*
X124770860Y-62920000D03*
X122230860Y-126420000D03*
X122230860Y-123880000D03*
X122230860Y-113720000D03*
X122230860Y-106100000D03*
X122230860Y-98480000D03*
X122230860Y-95940000D03*
X122230860Y-93400000D03*
X122230860Y-88320000D03*
X122230860Y-85780000D03*
X122230860Y-75620000D03*
X122230860Y-68000000D03*
X122230860Y-60380000D03*
X119690860Y-126420000D03*
X119690860Y-123880000D03*
X119690860Y-121340000D03*
X119690860Y-95940000D03*
X119690860Y-93400000D03*
X119690860Y-88320000D03*
X119690860Y-57840000D03*
X117150860Y-126420000D03*
X117150860Y-123880000D03*
X117150860Y-121340000D03*
X117150860Y-108640000D03*
X117150860Y-93400000D03*
X117150860Y-90860000D03*
X117150860Y-85780000D03*
X114610860Y-126420000D03*
X114610860Y-123880000D03*
X114610860Y-121340000D03*
X114610860Y-55300000D03*
X112070860Y-126420000D03*
X112070860Y-123880000D03*
X112070860Y-121340000D03*
X112070860Y-118800000D03*
X112070860Y-65460000D03*
X112070860Y-55300000D03*
X109530860Y-126420000D03*
X109530860Y-123880000D03*
X109530860Y-121340000D03*
X109530860Y-62920000D03*
X109530860Y-55300000D03*
X106990860Y-126420000D03*
X106990860Y-123880000D03*
X106990860Y-121340000D03*
X106990860Y-111180000D03*
X106990860Y-108640000D03*
X106990860Y-93400000D03*
X106990860Y-90860000D03*
X106990860Y-83240000D03*
X106990860Y-75620000D03*
X106990860Y-62920000D03*
X106990860Y-57840000D03*
X106990860Y-55300000D03*
X104450860Y-126420000D03*
X104450860Y-123880000D03*
X104450860Y-111180000D03*
X104450860Y-108640000D03*
X104450860Y-60380000D03*
X104450860Y-57840000D03*
X101910860Y-126420000D03*
X101910860Y-123880000D03*
X101910860Y-88320000D03*
X101910860Y-85780000D03*
X101910860Y-83240000D03*
X101910860Y-68000000D03*
X101910860Y-62920000D03*
X101910860Y-60380000D03*
X99370860Y-128960000D03*
X99370860Y-126420000D03*
X99370860Y-123880000D03*
X99370860Y-85780000D03*
X99370860Y-65460000D03*
X99370860Y-62920000D03*
X96830860Y-128960000D03*
X96830860Y-126420000D03*
X96830860Y-123880000D03*
X96830860Y-73080000D03*
X96830860Y-65460000D03*
X96830860Y-62920000D03*
X94290860Y-128960000D03*
X94290860Y-126420000D03*
X94290860Y-123880000D03*
X94290860Y-83240000D03*
X94290860Y-65460000D03*
X94290860Y-62920000D03*
X91750860Y-131500000D03*
X91750860Y-128960000D03*
X91750860Y-126420000D03*
X91750860Y-123880000D03*
X91750860Y-106100000D03*
X91750860Y-88320000D03*
X91750860Y-85780000D03*
X91750860Y-70540000D03*
X91750860Y-65460000D03*
X91750860Y-62920000D03*
X89210860Y-131500000D03*
X89210860Y-128960000D03*
X89210860Y-126420000D03*
X89210860Y-123880000D03*
X89210860Y-106100000D03*
X89210860Y-65460000D03*
X89210860Y-62920000D03*
X86670860Y-134040000D03*
X86670860Y-131500000D03*
X86670860Y-128960000D03*
X86670860Y-126420000D03*
X86670860Y-113720000D03*
X86670860Y-65460000D03*
X86670860Y-62920000D03*
X84130860Y-134040000D03*
X84130860Y-131500000D03*
X84130860Y-128960000D03*
X84130860Y-98480000D03*
X84130860Y-95940000D03*
X84130860Y-93400000D03*
X84130860Y-85780000D03*
X84130860Y-83240000D03*
X84130860Y-80700000D03*
X84130860Y-78160000D03*
X84130860Y-75620000D03*
X84130860Y-65460000D03*
X84130860Y-62920000D03*
X81590860Y-136580000D03*
X81590860Y-134040000D03*
X81590860Y-131500000D03*
X81590860Y-111180000D03*
X81590860Y-95940000D03*
X81590860Y-78160000D03*
X81590860Y-75620000D03*
X79050860Y-136580000D03*
X79050860Y-121340000D03*
X79050860Y-78160000D03*
X73970860Y-136580000D03*
X73970860Y-121340000D03*
X73970860Y-83240000D03*
X73970860Y-78160000D03*
X73970860Y-75620000D03*
X71430860Y-118800000D03*
X71430860Y-106100000D03*
X71430860Y-88320000D03*
X71430860Y-80700000D03*
X68890860Y-136580000D03*
X68890860Y-111180000D03*
X68890860Y-108640000D03*
X68890860Y-93400000D03*
X68890860Y-90860000D03*
X68890860Y-80700000D03*
X68890860Y-78160000D03*
X68890860Y-75620000D03*
X66350860Y-139120000D03*
X66350860Y-136580000D03*
X66350860Y-111180000D03*
X66350860Y-108640000D03*
X66350860Y-106100000D03*
X66350860Y-95940000D03*
X66350860Y-93400000D03*
X66350860Y-90860000D03*
X66350860Y-88320000D03*
X66350860Y-80700000D03*
X66350860Y-78160000D03*
X66350860Y-75620000D03*
X63810860Y-139120000D03*
X63810860Y-136580000D03*
X63810860Y-85780000D03*
X63810860Y-83240000D03*
X63810860Y-80700000D03*
X63810860Y-78160000D03*
X63810860Y-75620000D03*
X61270860Y-139120000D03*
X61270860Y-128960000D03*
X61270860Y-123880000D03*
X61270860Y-121340000D03*
X61270860Y-95940000D03*
X61270860Y-85780000D03*
X61270860Y-83240000D03*
X61270860Y-80700000D03*
X58730860Y-95940000D03*
X58730860Y-85780000D03*
X56190860Y-90860000D03*
X56190860Y-88320000D03*
X56190860Y-85780000D03*
X53650860Y-121340000D03*
X53650860Y-106100000D03*
X53650860Y-88320000D03*
X53650860Y-85780000D03*
X51110860Y-139120000D03*
X51110860Y-136580000D03*
X51110860Y-134040000D03*
X51110860Y-101020000D03*
X51110860Y-98480000D03*
X51110860Y-95940000D03*
X51110860Y-88320000D03*
X51110860Y-85780000D03*
X48570860Y-139120000D03*
X48570860Y-136580000D03*
X48570860Y-134040000D03*
X48570860Y-131500000D03*
X48570860Y-121340000D03*
X48570860Y-103560000D03*
X48570860Y-88320000D03*
X48570860Y-85780000D03*
X46030860Y-139120000D03*
X46030860Y-136580000D03*
X46030860Y-134040000D03*
X46030860Y-131500000D03*
X46030860Y-128960000D03*
X46030860Y-126420000D03*
X46030860Y-123880000D03*
X46030860Y-121340000D03*
X46030860Y-118800000D03*
X46030860Y-116260000D03*
X46030860Y-113720000D03*
X46030860Y-111180000D03*
X46030860Y-108640000D03*
X46030860Y-106100000D03*
X46030860Y-103560000D03*
X46030860Y-101020000D03*
X46030860Y-98480000D03*
X46030860Y-95940000D03*
X46030860Y-93400000D03*
X46030860Y-90860000D03*
X46030860Y-88320000D03*
X46030860Y-85780000D03*
X64107500Y-99343500D03*
X144107500Y-79780000D03*
X138107500Y-77280000D03*
X102107500Y-77280000D03*
X83357500Y-90030000D03*
X119579500Y-77280000D03*
X120607500Y-116780000D03*
X82607500Y-115780000D03*
X157857500Y-103530000D03*
X143207606Y-121280000D03*
X155386868Y-100559368D03*
X154107500Y-119280000D03*
X104607500Y-115780000D03*
X63607500Y-120780000D03*
X154107500Y-120280000D03*
X85607500Y-119280000D03*
X119607500Y-116780000D03*
X63607500Y-122280000D03*
X105107500Y-116780000D03*
X141607500Y-121966500D03*
X151107500Y-128280000D03*
X156607500Y-119280000D03*
X158607500Y-136780000D03*
X145607500Y-139780000D03*
D39*
X88607500Y-115780000D03*
X89032000Y-97204500D03*
X125607500Y-97280000D03*
X159607500Y-78280000D03*
X125607500Y-78780000D03*
X126149914Y-115640000D03*
X173107500Y-117280000D03*
X52107500Y-115280000D03*
X167107500Y-143780000D03*
X144107500Y-81280000D03*
X173107500Y-122280000D03*
X116107500Y-58280000D03*
X158607500Y-82780000D03*
X151357500Y-103030000D03*
X96107500Y-83280000D03*
X61107500Y-134280000D03*
X133107500Y-118780000D03*
X129607500Y-84780000D03*
X117107500Y-114280000D03*
X154607500Y-65780000D03*
X79107500Y-74780000D03*
X186607500Y-158280000D03*
X119107500Y-79780000D03*
X160607500Y-144780000D03*
X79607500Y-129780000D03*
X84107500Y-101780000D03*
X116107500Y-96780000D03*
X134607500Y-100780000D03*
X84107500Y-114280000D03*
X61607500Y-118280000D03*
X167607500Y-150280000D03*
X78607500Y-98280000D03*
X79107500Y-114280000D03*
X59107500Y-102553000D03*
X97107500Y-101780000D03*
X96607500Y-118780000D03*
D38*
X50107500Y-105280000D03*
X154995732Y-101652072D03*
X67614500Y-101280000D03*
X154558678Y-102731178D03*
X86254500Y-104280000D03*
X154107500Y-103780000D03*
X104944356Y-101407000D03*
X149107500Y-107780000D03*
X149107500Y-128280000D03*
X153607500Y-104780000D03*
X123534500Y-104280000D03*
X165734500Y-135603000D03*
X153107500Y-105780000D03*
X152607500Y-106780000D03*
X142174500Y-106780000D03*
X181107500Y-141780000D03*
X161107500Y-107780000D03*
X159107500Y-72280000D03*
X164107500Y-119780000D03*
X341107500Y-94280000D03*
X306107500Y-76780000D03*
X265107500Y-81780000D03*
X361607500Y-86280000D03*
X286607500Y-78780000D03*
X322607500Y-84780000D03*
X304107500Y-95780000D03*
X266607500Y-99280000D03*
X343107500Y-96280000D03*
X324607500Y-98780000D03*
X360107500Y-116280000D03*
X343107500Y-105710000D03*
X284607500Y-99280000D03*
X324607500Y-116780000D03*
X306607500Y-101280000D03*
X324607500Y-104780000D03*
X287107500Y-104280000D03*
X343107500Y-121780000D03*
X253607500Y-98280000D03*
X253607500Y-107280000D03*
X267607500Y-105780000D03*
X361607500Y-132780000D03*
X265607500Y-143280000D03*
X231107500Y-150780000D03*
X250107500Y-144780000D03*
X237107500Y-105780000D03*
X345342500Y-98280000D03*
X324607500Y-103280000D03*
X308062500Y-101280000D03*
X230607500Y-101780000D03*
X287107500Y-103280000D03*
X248607500Y-134780000D03*
X230607500Y-99280000D03*
X268607500Y-103780000D03*
X230107500Y-140280000D03*
X212107500Y-149780000D03*
X252607500Y-108280000D03*
D39*
X299107500Y-96780000D03*
X317607500Y-82780000D03*
X303207500Y-59580000D03*
X318107500Y-101780000D03*
X227107500Y-154780000D03*
X261107500Y-103280000D03*
X284607500Y-119280000D03*
X261607500Y-146280000D03*
X288107500Y-79280000D03*
X264607500Y-122280000D03*
X286707500Y-63080000D03*
X338607500Y-111280000D03*
X280107500Y-82780000D03*
X338007500Y-75280000D03*
X299107500Y-77780000D03*
X263907500Y-65380000D03*
X228107500Y-137280000D03*
X317607500Y-119280000D03*
X336607500Y-97280000D03*
X279607500Y-101280000D03*
X301107500Y-114280000D03*
X264357500Y-84530000D03*
X244607500Y-105280000D03*
X268607500Y-100280000D03*
X357107500Y-99780000D03*
X341607500Y-131780000D03*
X355107500Y-119780000D03*
X357107500Y-136780000D03*
X245607500Y-147780000D03*
X310607500Y-97280000D03*
X347607500Y-116780000D03*
X273107500Y-97280000D03*
X272607500Y-115780000D03*
X347607500Y-135280000D03*
X329607500Y-126780000D03*
X235607500Y-118280000D03*
X234938935Y-113448565D03*
X310607500Y-115780000D03*
D38*
X54107500Y-101780000D03*
X79607500Y-91280000D03*
X88107500Y-79780000D03*
X116607500Y-73280000D03*
X139107500Y-79780000D03*
X153607500Y-81280000D03*
X69107500Y-129280000D03*
X85607500Y-121280000D03*
X105607500Y-117780000D03*
X154107500Y-140780000D03*
X141107500Y-122780000D03*
X161107500Y-138780000D03*
X142107500Y-122780000D03*
X190107500Y-158280000D03*
X342107500Y-95280000D03*
X346357500Y-96030000D03*
X309607500Y-77780000D03*
X302107500Y-73780000D03*
X272607500Y-80280000D03*
X269107500Y-80280000D03*
X262607500Y-140780000D03*
X267107500Y-122280000D03*
X265607500Y-122780000D03*
X263607500Y-143280000D03*
X254107500Y-119780000D03*
X247607500Y-119780000D03*
X186107500Y-159780000D03*
X161607500Y-132780000D03*
M02*
