M48
; DRILL file {KiCad 8.0.1} date 2024-04-22T22:15:32+0200
; FORMAT={-:-/ absolute / metric / decimal}
; #@! TF.CreationDate,2024-04-22T22:15:32+02:00
; #@! TF.GenerationSoftware,Kicad,Pcbnew,8.0.1
; #@! TF.FileFunction,Plated,1,2,PTH
FMAT,2
METRIC
; #@! TA.AperFunction,Plated,PTH,ViaDrill
T1C0.300
; #@! TA.AperFunction,Plated,PTH,ViaDrill
T2C0.400
; #@! TA.AperFunction,Plated,PTH,ComponentDrill
T3C0.813
; #@! TA.AperFunction,Plated,PTH,ComponentDrill
T4C1.000
; #@! TA.AperFunction,Plated,PTH,ComponentDrill
T5C1.300
%
G90
G05
T1
X46.047Y-85.16
X46.047Y-87.7
X46.047Y-90.24
X46.047Y-92.78
X46.047Y-95.32
X46.047Y-97.86
X46.047Y-100.4
X46.047Y-102.94
X46.047Y-105.48
X46.047Y-108.02
X46.047Y-110.56
X46.047Y-113.1
X46.047Y-115.64
X46.047Y-118.18
X46.047Y-120.72
X46.047Y-123.26
X46.047Y-125.8
X46.047Y-128.34
X46.047Y-130.88
X46.047Y-133.42
X46.047Y-135.96
X46.047Y-138.5
X48.587Y-85.16
X48.587Y-87.7
X48.587Y-102.94
X48.587Y-120.72
X48.587Y-123.26
X48.587Y-130.88
X48.587Y-133.42
X48.587Y-135.96
X48.587Y-138.5
X50.107Y-105.28
X51.127Y-85.16
X51.127Y-87.7
X51.127Y-97.86
X51.127Y-100.4
X51.127Y-125.8
X51.127Y-133.42
X51.127Y-135.96
X51.127Y-138.5
X53.667Y-85.16
X53.667Y-87.7
X53.667Y-105.48
X54.107Y-101.78
X56.207Y-85.16
X56.207Y-87.7
X56.207Y-90.24
X58.747Y-85.16
X61.287Y-85.16
X61.287Y-110.56
X61.287Y-123.26
X61.287Y-128.34
X63.607Y-120.78
X63.607Y-122.28
X63.828Y-75.0
X63.828Y-77.54
X63.828Y-85.16
X63.828Y-135.96
X63.828Y-138.5
X64.108Y-99.343
X66.367Y-75.0
X66.367Y-77.54
X66.367Y-80.08
X66.367Y-87.7
X66.367Y-90.24
X66.367Y-92.78
X66.367Y-105.48
X66.367Y-108.02
X66.367Y-110.56
X66.367Y-113.1
X66.367Y-135.96
X66.367Y-138.5
X67.614Y-101.28
X68.907Y-75.0
X68.907Y-77.54
X68.907Y-80.08
X68.907Y-90.24
X68.907Y-92.78
X68.907Y-108.02
X68.907Y-110.56
X68.907Y-130.88
X68.907Y-135.96
X69.108Y-129.28
X71.447Y-80.08
X71.447Y-87.7
X71.447Y-105.48
X71.447Y-108.02
X73.987Y-77.54
X73.987Y-135.96
X79.067Y-77.54
X79.067Y-85.16
X79.067Y-108.02
X79.608Y-91.28
X81.608Y-75.0
X81.608Y-77.54
X81.608Y-95.32
X81.608Y-97.86
X81.608Y-105.48
X81.608Y-110.56
X81.608Y-133.42
X81.608Y-135.96
X82.608Y-115.78
X83.358Y-90.03
X84.147Y-62.3
X84.147Y-64.84
X84.147Y-75.0
X84.147Y-77.54
X84.147Y-80.08
X84.147Y-82.62
X84.147Y-85.16
X84.147Y-92.78
X84.147Y-95.32
X84.147Y-97.86
X84.147Y-130.88
X84.147Y-133.42
X85.608Y-119.28
X85.608Y-121.28
X86.254Y-104.28
X86.688Y-62.3
X86.688Y-64.84
X86.688Y-133.42
X88.108Y-79.78
X89.227Y-62.3
X89.227Y-64.84
X89.227Y-87.7
X89.227Y-100.4
X89.227Y-105.48
X89.227Y-125.8
X91.767Y-62.3
X91.767Y-64.84
X91.767Y-85.16
X91.767Y-87.7
X91.767Y-105.48
X91.767Y-123.26
X91.767Y-125.8
X91.767Y-128.34
X91.767Y-130.88
X94.307Y-62.3
X94.307Y-64.84
X94.307Y-123.26
X94.307Y-125.8
X94.307Y-128.34
X94.307Y-130.88
X96.847Y-62.3
X96.847Y-64.84
X96.847Y-72.46
X96.847Y-123.26
X96.847Y-125.8
X96.847Y-128.34
X99.387Y-62.3
X99.387Y-64.84
X99.387Y-115.64
X99.387Y-123.26
X99.387Y-125.8
X99.387Y-128.34
X101.927Y-59.76
X101.927Y-62.3
X101.927Y-69.92
X101.927Y-82.62
X101.927Y-85.16
X101.927Y-87.7
X101.927Y-97.86
X101.927Y-123.26
X101.927Y-125.8
X101.927Y-128.34
X102.108Y-77.28
X104.468Y-57.22
X104.468Y-59.76
X104.468Y-108.02
X104.468Y-110.56
X104.468Y-123.26
X104.468Y-125.8
X104.608Y-115.78
X104.944Y-101.407
X105.108Y-116.78
X105.608Y-117.78
X107.007Y-57.22
X107.007Y-59.76
X107.007Y-75.0
X107.007Y-82.62
X107.007Y-90.24
X107.007Y-92.78
X107.007Y-95.32
X107.007Y-110.56
X107.007Y-120.72
X107.007Y-123.26
X107.007Y-125.8
X109.547Y-120.72
X109.547Y-123.26
X109.547Y-125.8
X112.087Y-100.4
X112.087Y-120.72
X112.087Y-123.26
X112.087Y-125.8
X114.627Y-67.38
X114.627Y-120.72
X114.627Y-123.26
X114.627Y-125.8
X116.608Y-73.28
X117.167Y-67.38
X117.167Y-75.0
X117.167Y-90.24
X117.167Y-92.78
X117.167Y-110.56
X117.167Y-120.72
X117.167Y-123.26
X117.167Y-125.8
X119.579Y-77.28
X119.607Y-116.78
X119.707Y-57.22
X119.707Y-92.78
X119.707Y-95.32
X119.707Y-97.86
X119.707Y-120.72
X119.707Y-123.26
X119.707Y-125.8
X120.607Y-116.78
X122.247Y-59.76
X122.247Y-67.38
X122.247Y-75.0
X122.247Y-77.54
X122.247Y-87.7
X122.247Y-92.78
X122.247Y-95.32
X122.247Y-97.86
X122.247Y-113.1
X122.247Y-123.26
X122.247Y-125.8
X123.534Y-104.28
X124.787Y-62.3
X124.787Y-87.7
X124.787Y-123.26
X124.787Y-125.8
X127.328Y-62.3
X127.328Y-64.84
X127.328Y-87.7
X127.328Y-105.48
X127.328Y-113.1
X127.328Y-123.26
X127.328Y-125.8
X129.868Y-62.3
X129.868Y-64.84
X129.868Y-69.92
X129.868Y-123.26
X129.868Y-125.8
X132.407Y-62.3
X132.407Y-64.84
X132.407Y-123.26
X132.407Y-125.8
X134.947Y-62.3
X134.947Y-64.84
X134.947Y-72.46
X134.947Y-90.24
X134.947Y-95.32
X134.947Y-123.26
X134.947Y-125.8
X137.487Y-62.3
X137.487Y-64.84
X137.487Y-82.62
X137.487Y-85.16
X137.487Y-123.26
X137.487Y-125.8
X138.107Y-77.28
X139.107Y-79.78
X140.028Y-64.84
X140.028Y-69.92
X140.028Y-72.46
X140.028Y-75.0
X140.028Y-82.62
X140.028Y-85.16
X140.028Y-90.24
X140.028Y-92.78
X140.028Y-118.18
X140.028Y-125.8
X140.028Y-128.34
X140.028Y-138.5
X140.028Y-141.04
X140.028Y-143.58
X140.028Y-146.12
X141.107Y-122.78
X141.607Y-121.966
X142.107Y-122.78
X142.174Y-106.78
X142.567Y-64.84
X142.567Y-69.92
X142.567Y-128.34
X143.208Y-121.28
X144.107Y-79.78
X145.107Y-64.84
X145.107Y-69.92
X145.107Y-90.24
X145.107Y-97.86
X145.107Y-108.02
X145.607Y-139.78
X147.647Y-69.92
X147.647Y-72.46
X149.107Y-107.78
X149.107Y-128.28
X151.107Y-128.28
X152.607Y-106.78
X152.727Y-75.0
X153.107Y-105.78
X153.607Y-81.28
X153.607Y-104.78
X154.107Y-103.78
X154.107Y-119.28
X154.107Y-120.28
X154.107Y-140.78
X154.559Y-102.731
X154.996Y-101.652
X155.267Y-135.96
X155.387Y-100.559
X156.607Y-119.28
X157.808Y-64.84
X157.808Y-67.38
X157.857Y-103.53
X158.607Y-136.78
X159.107Y-72.28
X160.347Y-64.84
X160.347Y-67.38
X160.347Y-69.92
X160.347Y-123.26
X160.347Y-128.34
X161.107Y-107.78
X161.107Y-138.78
X161.607Y-132.78
X162.887Y-64.84
X162.887Y-67.38
X162.887Y-69.92
X162.887Y-141.04
X162.887Y-151.2
X164.107Y-119.78
X165.427Y-64.84
X165.427Y-67.38
X165.427Y-69.92
X165.427Y-72.46
X165.427Y-77.54
X165.427Y-80.08
X165.427Y-82.62
X165.427Y-85.16
X165.427Y-87.7
X165.427Y-90.24
X165.427Y-92.78
X165.427Y-95.32
X165.427Y-97.86
X165.427Y-100.4
X165.427Y-102.94
X165.427Y-105.48
X165.427Y-118.18
X165.427Y-130.88
X165.734Y-135.603
X167.968Y-64.84
X167.968Y-67.38
X167.968Y-69.92
X167.968Y-72.46
X167.968Y-77.54
X167.968Y-80.08
X167.968Y-82.62
X167.968Y-85.16
X167.968Y-87.7
X167.968Y-90.24
X167.968Y-92.78
X167.968Y-95.32
X167.968Y-97.86
X167.968Y-100.4
X167.968Y-102.94
X167.968Y-105.48
X167.968Y-123.26
X167.968Y-130.88
X170.507Y-64.84
X170.507Y-67.38
X170.507Y-69.92
X170.507Y-72.46
X170.507Y-77.54
X170.507Y-80.08
X170.507Y-82.62
X170.507Y-85.16
X170.507Y-87.7
X170.507Y-90.24
X170.507Y-92.78
X170.507Y-95.32
X170.507Y-97.86
X170.507Y-100.4
X170.507Y-102.94
X170.507Y-105.48
X170.507Y-113.1
X170.507Y-123.26
X170.507Y-130.88
X173.047Y-64.84
X173.047Y-72.46
X173.047Y-77.54
X173.047Y-80.08
X173.047Y-82.62
X173.047Y-85.16
X173.047Y-87.7
X173.047Y-90.24
X173.047Y-92.78
X173.047Y-95.32
X173.047Y-97.86
X173.047Y-100.4
X173.047Y-102.94
X173.047Y-125.8
X173.047Y-128.34
X173.047Y-130.88
X173.047Y-146.12
X175.588Y-72.46
X175.588Y-110.56
X175.588Y-115.64
X175.588Y-128.34
X175.588Y-130.88
X175.588Y-153.74
X175.588Y-156.28
X178.127Y-64.84
X178.127Y-72.46
X178.127Y-110.56
X178.127Y-115.64
X178.127Y-120.72
X178.127Y-123.26
X178.127Y-128.34
X178.127Y-130.88
X178.127Y-135.96
X178.127Y-146.12
X178.127Y-156.28
X180.667Y-138.5
X180.667Y-146.12
X180.667Y-158.82
X181.107Y-141.78
X183.207Y-151.2
X185.748Y-161.36
X186.107Y-159.78
X188.287Y-138.5
X188.287Y-161.36
X190.107Y-158.28
X190.827Y-143.58
X190.827Y-161.36
X190.827Y-163.9
X193.367Y-151.2
X193.367Y-158.82
X193.367Y-161.36
X193.367Y-163.9
X195.907Y-156.28
X195.907Y-158.82
X198.447Y-143.58
X198.447Y-153.74
X200.987Y-146.12
X200.987Y-148.66
X200.987Y-151.2
X208.607Y-146.12
X208.607Y-148.66
X208.607Y-151.2
X211.147Y-143.58
X211.147Y-146.12
X211.147Y-156.28
X212.107Y-149.78
X213.688Y-143.58
X213.688Y-146.12
X213.688Y-156.28
X213.688Y-158.82
X213.688Y-161.36
X216.227Y-141.04
X216.227Y-143.58
X216.227Y-156.28
X216.227Y-158.82
X216.227Y-161.36
X216.227Y-163.9
X218.767Y-141.04
X218.767Y-153.74
X218.767Y-158.82
X218.767Y-161.36
X218.767Y-163.9
X221.307Y-138.5
X221.307Y-161.36
X223.847Y-146.12
X223.847Y-151.2
X228.927Y-156.28
X230.107Y-140.28
X230.607Y-99.28
X230.607Y-101.78
X231.107Y-150.78
X231.468Y-64.84
X231.468Y-72.46
X231.468Y-120.72
X231.468Y-123.26
X231.468Y-128.34
X231.468Y-138.5
X234.007Y-72.46
X234.007Y-75.0
X234.007Y-77.54
X234.007Y-80.08
X234.007Y-102.94
X234.007Y-105.48
X234.007Y-120.72
X234.007Y-135.96
X234.007Y-138.5
X234.007Y-148.66
X236.547Y-64.84
X236.547Y-67.38
X236.547Y-69.92
X236.547Y-72.46
X236.547Y-75.0
X236.547Y-77.54
X236.547Y-80.08
X236.547Y-82.62
X236.547Y-138.5
X237.107Y-105.78
X239.087Y-64.84
X239.087Y-67.38
X239.087Y-69.92
X239.087Y-72.46
X239.087Y-75.0
X239.087Y-77.54
X239.087Y-80.08
X239.087Y-82.62
X239.087Y-90.24
X239.087Y-92.78
X239.087Y-95.32
X239.087Y-97.86
X239.087Y-123.26
X241.627Y-64.84
X241.627Y-67.38
X241.627Y-69.92
X241.627Y-72.46
X241.627Y-75.0
X241.627Y-77.54
X241.627Y-80.08
X241.627Y-87.7
X241.627Y-90.24
X241.627Y-92.78
X241.627Y-95.32
X241.627Y-97.86
X241.627Y-100.4
X241.627Y-123.26
X241.627Y-133.42
X241.627Y-138.5
X241.627Y-143.58
X244.167Y-64.84
X244.167Y-67.38
X244.167Y-69.92
X244.167Y-72.46
X244.167Y-75.0
X244.167Y-77.54
X244.167Y-85.16
X244.167Y-113.1
X244.167Y-115.64
X244.167Y-133.42
X244.167Y-143.58
X246.707Y-64.84
X246.707Y-67.38
X246.707Y-69.92
X246.707Y-72.46
X246.707Y-110.56
X246.707Y-113.1
X247.607Y-119.78
X248.607Y-134.78
X249.248Y-64.84
X249.248Y-67.38
X249.248Y-69.92
X249.248Y-128.34
X249.248Y-130.88
X250.107Y-144.78
X251.787Y-64.84
X251.787Y-67.38
X251.787Y-115.64
X251.787Y-118.18
X251.787Y-128.34
X251.787Y-130.88
X251.787Y-133.42
X251.787Y-141.04
X251.787Y-143.58
X252.607Y-108.28
X253.607Y-98.28
X253.607Y-107.28
X254.107Y-119.78
X254.327Y-64.84
X254.327Y-80.08
X254.327Y-82.62
X254.327Y-87.7
X254.327Y-90.24
X254.327Y-118.18
X254.327Y-128.34
X254.327Y-130.88
X254.327Y-133.42
X254.327Y-138.5
X254.327Y-141.04
X256.868Y-128.34
X259.407Y-64.84
X259.407Y-67.38
X259.407Y-69.92
X259.407Y-87.7
X259.407Y-108.02
X259.407Y-125.8
X259.407Y-128.34
X261.947Y-75.0
X261.947Y-87.7
X261.947Y-128.34
X262.608Y-140.78
X263.608Y-143.28
X264.488Y-75.0
X264.488Y-80.08
X264.488Y-87.7
X264.488Y-92.78
X264.488Y-97.86
X264.488Y-118.18
X264.488Y-128.34
X264.488Y-130.88
X265.108Y-81.78
X265.608Y-122.78
X265.608Y-143.28
X266.608Y-99.28
X267.108Y-122.28
X267.608Y-105.78
X268.608Y-103.78
X269.108Y-80.28
X269.567Y-67.38
X269.567Y-75.0
X269.567Y-77.54
X269.567Y-85.16
X269.567Y-87.7
X269.567Y-115.64
X269.567Y-125.8
X269.567Y-128.34
X269.567Y-143.58
X269.567Y-146.12
X272.108Y-67.38
X272.108Y-77.54
X272.108Y-85.16
X272.108Y-87.7
X272.108Y-105.48
X272.108Y-125.8
X272.608Y-80.28
X274.647Y-64.84
X274.647Y-67.38
X274.647Y-75.0
X274.647Y-85.16
X274.647Y-87.7
X274.647Y-105.48
X274.647Y-113.1
X274.647Y-125.8
X277.188Y-64.84
X277.188Y-67.38
X277.188Y-69.92
X277.188Y-85.16
X277.188Y-125.8
X279.727Y-64.84
X279.727Y-125.8
X282.267Y-64.84
X282.267Y-72.46
X282.267Y-85.16
X282.267Y-90.24
X282.267Y-95.32
X282.267Y-125.8
X284.607Y-99.28
X284.808Y-64.84
X284.808Y-85.16
X284.808Y-125.8
X286.607Y-78.78
X287.107Y-103.28
X287.107Y-104.28
X287.347Y-82.62
X287.347Y-90.24
X287.347Y-92.78
X287.347Y-95.32
X287.347Y-125.8
X289.887Y-64.84
X289.887Y-110.56
X289.887Y-120.72
X289.887Y-125.8
X292.428Y-62.3
X292.428Y-80.08
X292.428Y-82.62
X292.428Y-90.24
X292.428Y-118.18
X292.428Y-120.72
X292.428Y-125.8
X294.967Y-64.84
X294.967Y-80.08
X294.967Y-125.8
X297.507Y-80.08
X297.507Y-123.26
X297.507Y-125.8
X300.048Y-67.38
X300.048Y-80.08
X300.048Y-120.72
X300.048Y-123.26
X300.048Y-125.8
X302.107Y-73.78
X302.587Y-62.3
X302.587Y-80.08
X302.587Y-92.78
X302.587Y-110.56
X302.587Y-118.18
X302.587Y-120.72
X302.587Y-123.26
X302.587Y-125.8
X304.107Y-95.78
X305.127Y-57.22
X305.127Y-64.84
X305.127Y-80.08
X305.127Y-82.62
X305.127Y-92.78
X305.127Y-102.94
X305.127Y-110.56
X305.127Y-118.18
X305.127Y-120.72
X305.127Y-123.26
X305.127Y-125.8
X306.107Y-76.78
X306.607Y-101.28
X307.667Y-59.76
X307.667Y-67.38
X307.667Y-113.1
X307.667Y-120.72
X307.667Y-123.26
X307.667Y-125.8
X307.667Y-128.34
X308.062Y-101.28
X309.607Y-77.78
X310.207Y-62.3
X310.207Y-85.16
X310.207Y-87.7
X310.207Y-105.48
X310.207Y-123.26
X310.207Y-125.8
X310.207Y-128.34
X312.748Y-62.3
X312.748Y-64.84
X312.748Y-85.16
X312.748Y-87.7
X312.748Y-105.48
X312.748Y-123.26
X312.748Y-125.8
X312.748Y-128.34
X315.287Y-62.3
X315.287Y-64.84
X315.287Y-69.92
X315.287Y-123.26
X315.287Y-125.8
X315.287Y-128.34
X315.287Y-130.88
X317.827Y-62.3
X317.827Y-64.84
X317.827Y-72.46
X317.827Y-123.26
X317.827Y-125.8
X320.368Y-64.84
X320.368Y-72.46
X320.368Y-77.54
X320.368Y-85.16
X320.368Y-90.24
X320.368Y-95.32
X320.368Y-118.18
X320.368Y-125.8
X322.607Y-84.78
X322.907Y-115.64
X322.907Y-118.18
X322.907Y-128.34
X322.907Y-133.42
X324.607Y-98.78
X324.607Y-103.28
X324.607Y-104.78
X324.607Y-116.78
X325.447Y-62.3
X325.447Y-75.0
X325.447Y-77.54
X325.447Y-80.08
X325.447Y-90.24
X325.447Y-92.78
X325.447Y-95.32
X325.447Y-130.88
X325.447Y-133.42
X325.447Y-135.96
X327.988Y-77.54
X327.988Y-80.08
X327.988Y-92.78
X327.988Y-95.32
X327.988Y-108.02
X327.988Y-110.56
X327.988Y-113.1
X327.988Y-115.64
X327.988Y-118.18
X327.988Y-135.96
X330.527Y-80.08
X330.527Y-87.7
X330.527Y-105.48
X330.527Y-108.02
X333.067Y-77.54
X333.067Y-80.08
X333.067Y-82.62
X333.067Y-95.32
X333.067Y-113.1
X333.067Y-115.64
X335.607Y-113.1
X335.607Y-115.64
X338.147Y-77.54
X338.147Y-85.16
X338.147Y-102.94
X338.147Y-113.1
X338.147Y-115.64
X338.147Y-135.96
X340.688Y-75.0
X340.688Y-77.54
X340.688Y-110.56
X340.688Y-113.1
X340.688Y-115.64
X340.688Y-128.34
X340.688Y-135.96
X340.688Y-138.5
X341.107Y-94.28
X342.107Y-95.28
X343.107Y-96.28
X343.107Y-105.71
X343.107Y-121.78
X343.227Y-75.0
X343.227Y-77.54
X343.227Y-135.96
X343.227Y-138.5
X345.342Y-98.28
X345.767Y-85.16
X345.767Y-138.5
X346.357Y-96.03
X348.308Y-85.16
X348.308Y-102.94
X348.308Y-120.72
X348.308Y-125.8
X350.847Y-85.16
X350.847Y-87.7
X350.847Y-102.94
X350.847Y-120.72
X350.847Y-123.26
X353.387Y-85.16
X353.387Y-102.94
X353.387Y-120.72
X355.928Y-85.16
X358.467Y-85.16
X358.467Y-102.94
X358.467Y-118.18
X358.467Y-123.26
X358.467Y-138.5
X360.107Y-116.28
X361.007Y-97.86
X361.007Y-100.4
X361.007Y-102.94
X361.007Y-105.48
X361.007Y-108.02
X361.007Y-118.18
X361.007Y-125.8
X361.007Y-138.5
X361.607Y-86.28
X361.607Y-132.78
X363.547Y-85.16
X363.547Y-87.7
X363.547Y-90.24
X363.547Y-92.78
X363.547Y-95.32
X363.547Y-97.86
X363.547Y-100.4
X363.547Y-102.94
X363.547Y-105.48
X363.547Y-108.02
X363.547Y-110.56
X363.547Y-113.1
X363.547Y-115.64
X363.547Y-118.18
X363.547Y-120.72
X363.547Y-135.96
X363.547Y-138.5
T2
X52.107Y-115.28
X59.107Y-102.553
X61.107Y-134.28
X61.607Y-118.28
X78.608Y-98.28
X79.108Y-74.78
X79.108Y-114.28
X79.608Y-129.78
X84.108Y-101.78
X84.108Y-114.28
X88.608Y-115.78
X89.032Y-97.204
X96.108Y-83.28
X96.608Y-118.78
X97.108Y-101.78
X116.108Y-58.28
X116.108Y-96.78
X117.108Y-114.28
X119.108Y-79.78
X125.607Y-78.78
X125.607Y-97.28
X126.15Y-115.64
X129.607Y-84.78
X133.107Y-118.78
X134.607Y-100.78
X144.107Y-81.28
X151.357Y-103.03
X154.607Y-65.78
X158.607Y-82.78
X159.607Y-78.28
X160.607Y-144.78
X167.107Y-143.78
X167.607Y-150.28
X173.107Y-117.28
X173.107Y-122.28
X186.607Y-158.28
X227.107Y-154.78
X228.107Y-137.28
X234.939Y-113.449
X235.607Y-118.28
X244.607Y-105.28
X245.607Y-147.78
X261.108Y-103.28
X261.608Y-146.28
X263.907Y-65.38
X264.358Y-84.53
X264.608Y-122.28
X268.608Y-100.28
X272.608Y-115.78
X273.108Y-97.28
X279.607Y-101.28
X280.107Y-82.78
X284.607Y-119.28
X286.707Y-63.08
X288.107Y-79.28
X299.107Y-77.78
X299.107Y-96.78
X301.107Y-114.28
X303.207Y-59.58
X310.607Y-97.28
X310.607Y-115.78
X317.607Y-82.78
X317.607Y-119.28
X318.107Y-101.78
X329.607Y-126.78
X336.607Y-97.28
X338.007Y-75.28
X338.607Y-111.28
X341.607Y-131.78
X347.607Y-116.78
X347.607Y-135.28
X355.107Y-119.78
X357.107Y-99.78
X357.107Y-136.78
T3
X161.356Y-75.191
X161.356Y-77.731
X161.356Y-80.272
X161.356Y-82.811
X161.356Y-85.352
X161.356Y-87.891
X161.356Y-90.431
X161.356Y-92.971
X161.356Y-95.511
X161.356Y-98.051
X161.356Y-100.591
X161.356Y-103.131
X176.576Y-75.191
X176.576Y-77.731
X176.576Y-80.272
X176.576Y-82.811
X176.576Y-85.352
X176.576Y-87.891
X176.576Y-90.431
X176.576Y-92.971
X176.576Y-95.511
X176.576Y-98.051
X176.576Y-100.591
X176.576Y-103.131
X231.992Y-75.167
X231.992Y-77.707
X231.992Y-80.247
X231.992Y-82.787
X231.992Y-85.327
X231.992Y-87.867
X231.992Y-90.407
X231.992Y-92.947
X231.992Y-95.487
X231.992Y-98.027
X231.992Y-100.567
X231.992Y-103.107
X247.212Y-75.167
X247.212Y-77.707
X247.212Y-80.247
X247.212Y-82.787
X247.212Y-85.327
X247.212Y-87.867
X247.212Y-90.407
X247.212Y-92.947
X247.212Y-95.487
X247.212Y-98.027
X247.212Y-100.567
X247.212Y-103.107
T4
X165.028Y-110.28
X167.567Y-110.28
X170.107Y-110.28
X172.647Y-110.28
X235.797Y-110.28
X238.337Y-110.28
X240.877Y-110.28
X243.417Y-110.28
T5
X176.576Y-106.53
X176.576Y-113.03
X231.917Y-106.527
X231.917Y-113.027
T4
X166.737Y-115.441G85X166.237Y-115.441
G05
X168.237Y-119.641G85X167.737Y-119.641
G05
X172.236Y-119.641G85X171.736Y-119.641
G05
X175.236Y-119.641G85X174.736Y-119.641
G05
X233.2Y-115.425G85X233.7Y-115.425
G05
X236.2Y-115.425G85X236.7Y-115.425
G05
X240.2Y-115.425G85X240.7Y-115.425
G05
X241.7Y-119.625G85X242.2Y-119.625
G05
M30
