<?xml version="1.0" encoding="UTF-8" standalone="no"?>
<!DOCTYPE svg PUBLIC "-//W3C//DTD SVG 20010904//EN"
              "http://www.w3.org/TR/2001/REC-SVG-20010904/DTD/svg10.dtd">

<svg xmlns="http://www.w3.org/2000/svg"
     width="43.3494mm" height="43.3494mm"
     viewBox="0 0 512 512">
  <path id="Sélection"
        fill="none" stroke="black" stroke-width="1"
        d="M 144.00,63.00
           C 144.00,63.00 480.00,63.00 480.00,63.00
             480.00,63.00 480.00,79.00 480.00,79.00
             480.00,79.00 496.00,79.00 496.00,79.00
             496.00,79.00 496.00,127.00 496.00,127.00
             496.00,127.00 480.00,127.00 480.00,127.00
             480.00,127.00 480.00,143.00 480.00,143.00
             480.00,143.00 224.00,143.00 224.00,143.00
             224.00,143.00 224.00,159.00 224.00,159.00
             224.00,159.00 240.00,159.00 240.00,159.00
             240.00,159.00 240.00,207.00 240.00,207.00
             240.00,207.00 256.00,207.00 256.00,207.00
             256.00,207.00 256.00,255.00 256.00,255.00
             256.00,255.00 272.00,255.00 272.00,255.00
             272.00,255.00 272.00,303.00 272.00,303.00
             272.00,303.00 288.00,303.00 288.00,303.00
             288.00,303.00 288.00,351.00 288.00,351.00
             288.00,351.00 304.00,351.00 304.00,351.00
             304.00,351.00 304.00,383.00 304.00,383.00
             304.00,383.00 480.00,383.00 480.00,383.00
             480.00,383.00 480.00,399.00 480.00,399.00
             480.00,399.00 496.00,399.00 496.00,399.00
             496.00,399.00 496.00,447.00 496.00,447.00
             496.00,447.00 480.00,447.00 480.00,447.00
             480.00,447.00 480.00,463.00 480.00,463.00
             480.00,463.00 256.00,463.00 256.00,463.00
             256.00,463.00 256.00,431.00 256.00,431.00
             256.00,431.00 240.00,431.00 240.00,431.00
             240.00,431.00 240.00,399.00 240.00,399.00
             240.00,399.00 224.00,399.00 224.00,399.00
             224.00,399.00 224.00,351.00 224.00,351.00
             224.00,351.00 208.00,351.00 208.00,351.00
             208.00,351.00 208.00,303.00 208.00,303.00
             208.00,303.00 192.00,303.00 192.00,303.00
             192.00,303.00 192.00,255.00 192.00,255.00
             192.00,255.00 176.00,255.00 176.00,255.00
             176.00,255.00 176.00,223.00 176.00,223.00
             176.00,223.00 160.00,223.00 160.00,223.00
             160.00,223.00 160.00,255.00 160.00,255.00
             160.00,255.00 144.00,255.00 144.00,255.00
             144.00,255.00 144.00,303.00 144.00,303.00
             144.00,303.00 128.00,303.00 128.00,303.00
             128.00,303.00 128.00,351.00 128.00,351.00
             128.00,351.00 112.00,351.00 112.00,351.00
             112.00,351.00 112.00,399.00 112.00,399.00
             112.00,399.00 96.00,399.00 96.00,399.00
             96.00,399.00 96.00,431.00 96.00,431.00
             96.00,431.00 80.00,431.00 80.00,431.00
             80.00,431.00 80.00,463.00 80.00,463.00
             80.00,463.00 16.00,463.00 16.00,463.00
             16.00,463.00 16.00,399.00 16.00,399.00
             16.00,399.00 32.00,399.00 32.00,399.00
             32.00,399.00 32.00,351.00 32.00,351.00
             32.00,351.00 48.00,351.00 48.00,351.00
             48.00,351.00 48.00,303.00 48.00,303.00
             48.00,303.00 64.00,303.00 64.00,303.00
             64.00,303.00 64.00,255.00 64.00,255.00
             64.00,255.00 80.00,255.00 80.00,255.00
             80.00,255.00 80.00,207.00 80.00,207.00
             80.00,207.00 96.00,207.00 96.00,207.00
             96.00,207.00 96.00,175.00 96.00,175.00
             96.00,175.00 112.00,175.00 112.00,175.00
             112.00,175.00 112.00,127.00 112.00,127.00
             112.00,127.00 128.00,127.00 128.00,127.00
             128.00,127.00 128.00,79.00 128.00,79.00
             128.00,79.00 144.00,79.00 144.00,79.00
             144.00,79.00 144.00,63.00 144.00,63.00 Z" />
</svg>
