M48
; DRILL file {KiCad 8.0.1} date 2024-07-08T20:48:30+0200
; FORMAT={-:-/ absolute / metric / decimal}
; #@! TF.CreationDate,2024-07-08T20:48:30+02:00
; #@! TF.GenerationSoftware,Kicad,Pcbnew,8.0.1
; #@! TF.FileFunction,Plated,1,2,PTH
FMAT,2
METRIC
; #@! TA.AperFunction,Plated,PTH,ViaDrill
T1C0.300
; #@! TA.AperFunction,Plated,PTH,ViaDrill
T2C0.400
; #@! TA.AperFunction,Plated,PTH,ComponentDrill
T3C0.813
; #@! TA.AperFunction,Plated,PTH,ComponentDrill
T4C1.000
; #@! TA.AperFunction,Plated,PTH,ComponentDrill
T5C1.100
; #@! TA.AperFunction,Plated,PTH,ComponentDrill
T6C1.300
%
G90
G05
T1
X46.047Y-85.78
X46.047Y-88.32
X46.047Y-90.86
X46.047Y-93.4
X46.047Y-95.94
X46.047Y-98.48
X46.047Y-101.02
X46.047Y-103.56
X46.047Y-106.1
X46.047Y-108.64
X46.047Y-111.18
X46.047Y-113.72
X46.047Y-116.26
X46.047Y-118.8
X46.047Y-121.34
X46.047Y-123.88
X46.047Y-126.42
X46.047Y-128.96
X46.047Y-131.5
X46.047Y-134.04
X46.047Y-136.58
X46.047Y-139.12
X48.587Y-85.78
X48.587Y-88.32
X48.587Y-103.56
X48.587Y-121.34
X48.587Y-131.5
X48.587Y-134.04
X48.587Y-136.58
X48.587Y-139.12
X50.107Y-105.28
X51.127Y-85.78
X51.127Y-88.32
X51.127Y-95.94
X51.127Y-98.48
X51.127Y-101.02
X51.127Y-134.04
X51.127Y-136.58
X51.127Y-139.12
X53.667Y-85.78
X53.667Y-88.32
X53.667Y-106.1
X53.667Y-121.34
X54.107Y-101.78
X56.207Y-85.78
X56.207Y-88.32
X56.207Y-90.86
X58.747Y-85.78
X58.747Y-95.94
X61.287Y-80.7
X61.287Y-83.24
X61.287Y-85.78
X61.287Y-95.94
X61.287Y-121.34
X61.287Y-123.88
X61.287Y-128.96
X61.287Y-139.12
X63.607Y-120.78
X63.607Y-122.28
X63.827Y-75.62
X63.827Y-78.16
X63.827Y-80.7
X63.827Y-83.24
X63.827Y-85.78
X63.827Y-136.58
X63.827Y-139.12
X64.108Y-99.343
X66.367Y-75.62
X66.367Y-78.16
X66.367Y-80.7
X66.367Y-88.32
X66.367Y-90.86
X66.367Y-93.4
X66.367Y-95.94
X66.367Y-106.1
X66.367Y-108.64
X66.367Y-111.18
X66.367Y-136.58
X66.367Y-139.12
X67.614Y-101.28
X68.907Y-75.62
X68.907Y-78.16
X68.907Y-80.7
X68.907Y-90.86
X68.907Y-93.4
X68.907Y-108.64
X68.907Y-111.18
X68.907Y-136.58
X69.108Y-129.28
X71.447Y-80.7
X71.447Y-88.32
X71.447Y-106.1
X71.447Y-118.8
X73.987Y-75.62
X73.987Y-78.16
X73.987Y-83.24
X73.987Y-121.34
X73.987Y-131.5
X73.987Y-136.58
X79.067Y-78.16
X79.067Y-121.34
X79.067Y-136.58
X79.608Y-91.28
X81.607Y-75.62
X81.607Y-78.16
X81.607Y-95.94
X81.607Y-111.18
X81.607Y-131.5
X81.607Y-134.04
X81.607Y-136.58
X82.608Y-115.78
X83.358Y-90.03
X84.147Y-62.92
X84.147Y-65.46
X84.147Y-75.62
X84.147Y-78.16
X84.147Y-80.7
X84.147Y-83.24
X84.147Y-85.78
X84.147Y-93.4
X84.147Y-95.94
X84.147Y-98.48
X84.147Y-128.96
X84.147Y-131.5
X84.147Y-134.04
X85.608Y-119.28
X85.608Y-121.28
X86.254Y-104.28
X86.687Y-62.92
X86.687Y-65.46
X86.687Y-113.72
X86.687Y-126.42
X86.687Y-128.96
X86.687Y-131.5
X86.687Y-134.04
X88.108Y-79.78
X89.227Y-62.92
X89.227Y-65.46
X89.227Y-106.1
X89.227Y-123.88
X89.227Y-126.42
X89.227Y-128.96
X89.227Y-131.5
X91.767Y-62.92
X91.767Y-65.46
X91.767Y-70.54
X91.767Y-85.78
X91.767Y-88.32
X91.767Y-106.1
X91.767Y-123.88
X91.767Y-126.42
X91.767Y-128.96
X91.767Y-131.5
X94.307Y-62.92
X94.307Y-65.46
X94.307Y-83.24
X94.307Y-123.88
X94.307Y-126.42
X94.307Y-128.96
X96.847Y-62.92
X96.847Y-65.46
X96.847Y-123.88
X96.847Y-126.42
X96.847Y-128.96
X99.387Y-60.38
X99.387Y-62.92
X99.387Y-65.46
X99.387Y-85.78
X99.387Y-123.88
X99.387Y-126.42
X99.387Y-128.96
X101.927Y-60.38
X101.927Y-62.92
X101.927Y-68.0
X101.927Y-70.54
X101.927Y-83.24
X101.927Y-85.78
X101.927Y-88.32
X101.927Y-123.88
X101.927Y-126.42
X102.108Y-77.28
X104.467Y-57.84
X104.467Y-60.38
X104.467Y-108.64
X104.467Y-111.18
X104.467Y-123.88
X104.467Y-126.42
X104.608Y-115.78
X104.944Y-101.407
X105.108Y-116.78
X105.608Y-117.78
X107.007Y-55.3
X107.007Y-57.84
X107.007Y-62.92
X107.007Y-75.62
X107.007Y-83.24
X107.007Y-90.86
X107.007Y-93.4
X107.007Y-108.64
X107.007Y-111.18
X107.007Y-121.34
X107.007Y-123.88
X107.007Y-126.42
X109.547Y-55.3
X109.547Y-62.92
X109.547Y-121.34
X109.547Y-123.88
X109.547Y-126.42
X112.087Y-55.3
X112.087Y-65.46
X112.087Y-118.8
X112.087Y-121.34
X112.087Y-123.88
X112.087Y-126.42
X114.627Y-55.3
X114.627Y-121.34
X114.627Y-123.88
X114.627Y-126.42
X116.608Y-73.28
X117.167Y-55.3
X117.167Y-85.78
X117.167Y-90.86
X117.167Y-93.4
X117.167Y-108.64
X117.167Y-121.34
X117.167Y-123.88
X117.167Y-126.42
X119.579Y-77.28
X119.607Y-116.78
X119.707Y-57.84
X119.707Y-88.32
X119.707Y-93.4
X119.707Y-95.94
X119.707Y-121.34
X119.707Y-123.88
X119.707Y-126.42
X120.607Y-116.78
X122.247Y-60.38
X122.247Y-68.0
X122.247Y-75.62
X122.247Y-85.78
X122.247Y-88.32
X122.247Y-93.4
X122.247Y-95.94
X122.247Y-98.48
X122.247Y-106.1
X122.247Y-113.72
X122.247Y-123.88
X122.247Y-126.42
X123.534Y-104.28
X124.787Y-60.38
X124.787Y-62.92
X124.787Y-88.32
X124.787Y-106.1
X124.787Y-123.88
X124.787Y-126.42
X127.327Y-62.92
X127.327Y-65.46
X127.327Y-75.62
X127.327Y-83.24
X127.327Y-106.1
X127.327Y-123.88
X127.327Y-126.42
X129.867Y-62.92
X129.867Y-65.46
X129.867Y-70.54
X129.867Y-108.64
X129.867Y-123.88
X129.867Y-126.42
X132.407Y-62.92
X132.407Y-65.46
X132.407Y-123.88
X132.407Y-126.42
X134.947Y-62.92
X134.947Y-65.46
X134.947Y-90.86
X134.947Y-113.72
X134.947Y-118.8
X134.947Y-123.88
X134.947Y-126.42
X137.487Y-62.92
X137.487Y-65.46
X137.487Y-80.7
X137.487Y-83.24
X137.487Y-123.88
X137.487Y-126.42
X138.107Y-77.28
X139.107Y-79.78
X140.027Y-62.92
X140.027Y-65.46
X140.027Y-70.54
X140.027Y-73.08
X140.027Y-75.62
X140.027Y-83.24
X140.027Y-85.78
X140.027Y-90.86
X140.027Y-93.4
X140.027Y-126.42
X140.027Y-128.96
X140.027Y-136.58
X140.027Y-139.12
X140.027Y-141.66
X140.027Y-144.2
X140.027Y-146.74
X141.107Y-122.78
X141.607Y-121.966
X142.107Y-122.78
X142.174Y-106.78
X142.567Y-65.46
X142.567Y-70.54
X142.567Y-146.74
X143.208Y-121.28
X144.107Y-79.78
X145.107Y-65.46
X145.107Y-70.54
X145.107Y-85.78
X145.107Y-108.64
X145.107Y-116.26
X145.107Y-141.66
X145.607Y-139.78
X147.647Y-70.54
X147.647Y-85.78
X147.647Y-139.12
X149.107Y-107.78
X149.107Y-128.28
X150.187Y-85.78
X151.107Y-128.28
X152.607Y-106.78
X152.727Y-75.62
X152.727Y-85.78
X152.727Y-149.28
X153.107Y-105.78
X153.607Y-81.28
X153.607Y-104.78
X154.107Y-103.78
X154.107Y-119.28
X154.107Y-120.28
X154.107Y-140.78
X154.559Y-102.731
X154.996Y-101.652
X155.267Y-136.58
X155.267Y-149.28
X155.387Y-100.559
X156.607Y-119.28
X157.807Y-149.28
X157.857Y-103.53
X158.607Y-136.78
X159.107Y-72.28
X160.347Y-123.88
X160.347Y-128.96
X160.347Y-149.28
X161.107Y-107.78
X161.107Y-138.78
X161.607Y-132.78
X162.887Y-141.66
X162.887Y-151.82
X164.107Y-119.78
X165.427Y-78.16
X165.427Y-80.7
X165.427Y-83.24
X165.427Y-85.78
X165.427Y-88.32
X165.427Y-90.86
X165.427Y-93.4
X165.427Y-95.94
X165.427Y-98.48
X165.427Y-101.02
X165.427Y-103.56
X165.427Y-113.72
X165.427Y-128.96
X165.427Y-131.5
X165.427Y-134.04
X165.734Y-135.603
X167.967Y-78.16
X167.967Y-80.7
X167.967Y-83.24
X167.967Y-85.78
X167.967Y-88.32
X167.967Y-90.86
X167.967Y-93.4
X167.967Y-95.94
X167.967Y-98.48
X167.967Y-101.02
X167.967Y-103.56
X167.967Y-126.42
X167.967Y-128.96
X167.967Y-131.5
X167.967Y-134.04
X170.507Y-78.16
X170.507Y-80.7
X170.507Y-83.24
X170.507Y-85.78
X170.507Y-88.32
X170.507Y-90.86
X170.507Y-93.4
X170.507Y-95.94
X170.507Y-98.48
X170.507Y-101.02
X170.507Y-103.56
X170.507Y-126.42
X170.507Y-128.96
X170.507Y-131.5
X170.507Y-134.04
X170.507Y-154.36
X173.047Y-78.16
X173.047Y-80.7
X173.047Y-83.24
X173.047Y-85.78
X173.047Y-88.32
X173.047Y-90.86
X173.047Y-93.4
X173.047Y-95.94
X173.047Y-98.48
X173.047Y-101.02
X173.047Y-126.42
X173.047Y-128.96
X173.047Y-131.5
X173.047Y-134.04
X173.047Y-154.36
X175.587Y-108.64
X175.587Y-111.18
X175.587Y-128.96
X175.587Y-131.5
X175.587Y-134.04
X175.587Y-154.36
X178.127Y-108.64
X178.127Y-111.18
X178.127Y-116.26
X178.127Y-118.8
X178.127Y-121.34
X178.127Y-123.88
X178.127Y-128.96
X178.127Y-131.5
X178.127Y-136.58
X178.127Y-154.36
X178.127Y-156.9
X180.667Y-139.12
X180.667Y-156.9
X181.107Y-141.78
X183.207Y-159.44
X185.747Y-136.58
X185.747Y-161.98
X186.107Y-159.78
X188.287Y-139.12
X188.287Y-161.98
X190.107Y-158.28
X190.827Y-144.2
X190.827Y-161.98
X190.827Y-164.52
X193.367Y-159.44
X193.367Y-161.98
X193.367Y-164.52
X195.907Y-151.82
X195.907Y-156.9
X195.907Y-159.44
X198.447Y-144.2
X198.447Y-154.36
X200.987Y-146.74
X200.987Y-149.28
X208.607Y-144.2
X208.607Y-146.74
X208.607Y-149.28
X208.607Y-151.82
X211.147Y-144.2
X211.147Y-146.74
X211.147Y-154.36
X211.147Y-156.9
X212.107Y-149.78
X213.687Y-141.66
X213.687Y-144.2
X213.687Y-154.36
X213.687Y-156.9
X213.687Y-159.44
X213.687Y-161.98
X216.227Y-141.66
X216.227Y-156.9
X216.227Y-159.44
X216.227Y-161.98
X216.227Y-164.52
X218.767Y-139.12
X218.767Y-159.44
X218.767Y-161.98
X221.307Y-159.44
X221.307Y-161.98
X223.847Y-159.44
X226.387Y-156.9
X226.387Y-159.44
X228.927Y-75.62
X228.927Y-78.16
X228.927Y-80.7
X228.927Y-149.28
X230.107Y-140.28
X230.607Y-99.28
X230.607Y-101.78
X231.107Y-150.78
X231.467Y-121.34
X231.467Y-123.88
X231.467Y-128.96
X233.707Y-104.58
X234.007Y-75.62
X234.007Y-78.16
X234.007Y-80.7
X234.007Y-121.34
X234.007Y-136.58
X234.007Y-139.12
X234.007Y-146.74
X236.547Y-75.62
X236.547Y-78.16
X236.547Y-80.7
X236.547Y-83.24
X236.547Y-126.42
X236.547Y-128.96
X236.547Y-134.04
X236.547Y-139.12
X236.547Y-154.36
X237.107Y-105.78
X239.087Y-75.62
X239.087Y-78.16
X239.087Y-80.7
X239.087Y-83.24
X239.087Y-88.32
X239.087Y-90.86
X239.087Y-93.4
X239.087Y-95.94
X239.087Y-98.48
X239.087Y-123.88
X239.087Y-126.42
X239.087Y-128.96
X239.087Y-134.04
X241.627Y-75.62
X241.627Y-78.16
X241.627Y-80.7
X241.627Y-85.78
X241.627Y-88.32
X241.627Y-90.86
X241.627Y-93.4
X241.627Y-95.94
X241.627Y-98.48
X241.627Y-101.02
X241.627Y-121.34
X241.627Y-123.88
X241.627Y-126.42
X241.627Y-139.12
X244.167Y-75.62
X244.167Y-78.16
X244.167Y-83.24
X244.167Y-85.78
X244.167Y-113.72
X244.167Y-116.26
X244.167Y-134.04
X244.167Y-144.2
X246.707Y-111.18
X246.707Y-113.72
X247.607Y-119.78
X248.607Y-134.78
X249.247Y-128.96
X249.247Y-131.5
X250.107Y-144.78
X250.507Y-109.78
X250.707Y-77.98
X250.707Y-83.58
X250.907Y-90.18
X251.107Y-95.38
X251.107Y-99.58
X251.107Y-101.78
X251.787Y-116.26
X251.787Y-123.88
X251.787Y-128.96
X251.787Y-131.5
X251.787Y-141.66
X251.787Y-149.28
X252.607Y-108.28
X253.607Y-98.28
X253.607Y-107.28
X254.107Y-119.78
X254.327Y-70.54
X254.327Y-80.7
X254.327Y-83.24
X254.327Y-85.78
X254.327Y-88.32
X254.327Y-116.26
X254.327Y-123.88
X254.327Y-128.96
X254.327Y-131.5
X254.327Y-139.12
X254.327Y-149.28
X256.867Y-70.54
X256.867Y-123.88
X256.867Y-128.96
X259.407Y-65.46
X259.407Y-68.0
X259.407Y-70.54
X259.407Y-73.08
X259.407Y-85.78
X259.407Y-88.32
X259.407Y-128.96
X261.947Y-85.78
X261.947Y-128.96
X262.608Y-140.78
X263.608Y-143.28
X264.487Y-88.32
X264.487Y-93.4
X264.487Y-98.48
X264.487Y-116.26
X264.487Y-118.8
X264.487Y-128.96
X264.487Y-131.5
X265.108Y-81.78
X265.608Y-122.78
X265.608Y-143.28
X266.608Y-99.28
X267.027Y-68.0
X267.027Y-146.74
X267.108Y-122.28
X267.608Y-105.78
X268.608Y-103.78
X269.108Y-80.28
X269.567Y-68.0
X269.567Y-75.62
X269.567Y-78.16
X269.567Y-85.78
X269.567Y-88.32
X269.567Y-116.26
X269.567Y-126.42
X269.567Y-141.66
X269.567Y-144.2
X269.567Y-146.74
X272.107Y-65.46
X272.107Y-68.0
X272.107Y-78.16
X272.107Y-85.78
X272.107Y-88.32
X272.107Y-106.1
X272.107Y-126.42
X272.608Y-80.28
X274.647Y-65.46
X274.647Y-68.0
X274.647Y-75.62
X274.647Y-85.78
X274.647Y-93.4
X274.647Y-106.1
X274.647Y-126.42
X277.187Y-65.46
X277.187Y-68.0
X277.187Y-70.54
X277.187Y-126.42
X279.727Y-65.46
X279.727Y-126.42
X282.267Y-65.46
X282.267Y-85.78
X282.267Y-90.86
X282.267Y-113.72
X282.267Y-126.42
X284.607Y-99.28
X284.807Y-60.38
X284.807Y-65.46
X284.807Y-85.78
X284.807Y-126.42
X286.607Y-78.78
X287.107Y-103.28
X287.107Y-104.28
X287.347Y-57.84
X287.347Y-83.24
X287.347Y-88.32
X287.347Y-90.86
X287.347Y-93.4
X287.347Y-95.94
X287.347Y-113.72
X287.347Y-126.42
X289.887Y-62.92
X289.887Y-108.64
X289.887Y-111.18
X289.887Y-121.34
X289.887Y-126.42
X292.427Y-55.3
X292.427Y-62.92
X292.427Y-80.7
X292.427Y-83.24
X292.427Y-90.86
X292.427Y-108.64
X292.427Y-118.8
X292.427Y-121.34
X292.427Y-126.42
X294.967Y-55.3
X294.967Y-62.92
X294.967Y-65.46
X294.967Y-116.26
X294.967Y-126.42
X297.507Y-55.3
X297.507Y-80.7
X297.507Y-123.88
X297.507Y-126.42
X300.047Y-55.3
X300.047Y-68.0
X300.047Y-80.7
X300.047Y-121.34
X300.047Y-123.88
X300.047Y-126.42
X302.107Y-73.78
X302.587Y-75.62
X302.587Y-80.7
X302.587Y-93.4
X302.587Y-111.18
X302.587Y-118.8
X302.587Y-121.34
X302.587Y-123.88
X302.587Y-126.42
X304.107Y-95.78
X305.127Y-57.84
X305.127Y-65.46
X305.127Y-80.7
X305.127Y-83.24
X305.127Y-88.32
X305.127Y-93.4
X305.127Y-111.18
X305.127Y-118.8
X305.127Y-121.34
X305.127Y-123.88
X305.127Y-126.42
X306.107Y-76.78
X306.607Y-101.28
X307.667Y-68.0
X307.667Y-113.72
X307.667Y-121.34
X307.667Y-123.88
X307.667Y-126.42
X307.667Y-128.96
X308.062Y-101.28
X309.607Y-77.78
X310.207Y-62.92
X310.207Y-68.0
X310.207Y-85.78
X310.207Y-106.1
X310.207Y-121.34
X310.207Y-123.88
X310.207Y-126.42
X310.207Y-128.96
X312.747Y-62.92
X312.747Y-68.0
X312.747Y-85.78
X312.747Y-88.32
X312.747Y-106.1
X312.747Y-123.88
X312.747Y-126.42
X312.747Y-128.96
X315.287Y-62.92
X315.287Y-68.0
X315.287Y-70.54
X315.287Y-123.88
X315.287Y-126.42
X315.287Y-128.96
X317.827Y-62.92
X317.827Y-123.88
X317.827Y-126.42
X317.827Y-128.96
X317.827Y-131.5
X320.367Y-62.92
X320.367Y-85.78
X320.367Y-90.86
X320.367Y-95.94
X320.367Y-113.72
X320.367Y-118.8
X320.367Y-126.42
X320.367Y-128.96
X320.367Y-131.5
X322.607Y-84.78
X322.907Y-116.26
X322.907Y-118.8
X322.907Y-128.96
X322.907Y-131.5
X322.907Y-134.04
X324.607Y-98.78
X324.607Y-103.28
X324.607Y-104.78
X324.607Y-116.78
X325.447Y-62.92
X325.447Y-75.62
X325.447Y-78.16
X325.447Y-80.7
X325.447Y-90.86
X325.447Y-93.4
X325.447Y-95.94
X325.447Y-118.8
X325.447Y-131.5
X325.447Y-134.04
X327.987Y-78.16
X327.987Y-80.7
X327.987Y-93.4
X327.987Y-95.94
X327.987Y-108.64
X327.987Y-111.18
X327.987Y-113.72
X327.987Y-118.8
X327.987Y-134.04
X327.987Y-136.58
X330.527Y-80.7
X330.527Y-88.32
X330.527Y-106.1
X333.067Y-78.16
X333.067Y-80.7
X333.067Y-83.24
X333.067Y-113.72
X333.067Y-116.26
X333.067Y-136.58
X335.607Y-113.72
X335.607Y-116.26
X338.147Y-103.56
X338.147Y-113.72
X338.147Y-116.26
X338.147Y-126.42
X338.147Y-136.58
X340.687Y-75.62
X340.687Y-111.18
X340.687Y-113.72
X340.687Y-116.26
X340.687Y-136.58
X340.687Y-139.12
X341.107Y-94.28
X342.107Y-95.28
X343.107Y-96.28
X343.107Y-105.71
X343.107Y-121.78
X343.227Y-75.62
X343.227Y-78.16
X343.227Y-136.58
X343.227Y-139.12
X345.342Y-98.28
X345.767Y-80.7
X345.767Y-83.24
X345.767Y-85.78
X345.767Y-139.12
X346.357Y-96.03
X348.307Y-80.7
X348.307Y-83.24
X348.307Y-95.94
X348.307Y-103.56
X350.847Y-88.32
X350.847Y-103.56
X350.847Y-121.34
X353.387Y-121.34
X355.927Y-95.94
X358.467Y-103.56
X358.467Y-116.26
X358.467Y-123.88
X358.467Y-139.12
X360.107Y-116.28
X361.007Y-98.48
X361.007Y-101.02
X361.007Y-103.56
X361.007Y-106.1
X361.007Y-118.8
X361.007Y-126.42
X361.007Y-139.12
X361.607Y-86.28
X361.607Y-132.78
X363.547Y-85.78
X363.547Y-88.32
X363.547Y-90.86
X363.547Y-93.4
X363.547Y-95.94
X363.547Y-98.48
X363.547Y-101.02
X363.547Y-103.56
X363.547Y-106.1
X363.547Y-108.64
X363.547Y-111.18
X363.547Y-113.72
X363.547Y-116.26
X363.547Y-118.8
X363.547Y-121.34
X363.547Y-136.58
X363.547Y-139.12
X363.547Y-141.66
T2
X52.107Y-115.28
X59.107Y-102.553
X61.107Y-134.28
X61.607Y-118.28
X78.608Y-98.28
X79.108Y-74.78
X79.108Y-114.28
X79.608Y-129.78
X84.108Y-101.78
X84.108Y-114.28
X88.608Y-115.78
X89.032Y-97.204
X96.108Y-83.28
X96.608Y-118.78
X97.108Y-101.78
X116.108Y-58.28
X116.108Y-96.78
X117.108Y-114.28
X119.108Y-79.78
X125.607Y-78.78
X125.607Y-97.28
X126.15Y-115.64
X129.607Y-84.78
X133.107Y-118.78
X134.607Y-100.78
X144.107Y-81.28
X151.357Y-103.03
X151.709Y-65.13
X158.607Y-82.78
X159.607Y-78.28
X160.607Y-144.78
X167.107Y-143.78
X167.607Y-150.28
X173.107Y-117.28
X173.107Y-122.28
X186.607Y-158.28
X227.107Y-154.78
X228.107Y-137.28
X234.939Y-113.449
X235.607Y-118.28
X244.607Y-105.28
X245.607Y-147.78
X261.108Y-103.28
X261.608Y-146.28
X263.907Y-65.38
X264.358Y-84.53
X264.608Y-122.28
X268.608Y-100.28
X272.608Y-115.78
X273.108Y-97.28
X279.607Y-101.28
X280.107Y-82.78
X284.607Y-119.28
X286.707Y-63.08
X288.107Y-79.28
X299.107Y-77.78
X299.107Y-96.78
X301.107Y-114.28
X303.207Y-59.58
X310.607Y-97.28
X310.607Y-115.78
X317.607Y-82.78
X317.607Y-119.28
X318.107Y-101.78
X329.607Y-126.78
X336.607Y-97.28
X338.007Y-75.28
X338.607Y-111.28
X341.607Y-131.78
X347.607Y-116.78
X347.607Y-135.28
X355.107Y-119.78
X357.107Y-99.78
X357.107Y-136.78
T3
X161.356Y-75.191
X161.356Y-77.731
X161.356Y-80.272
X161.356Y-82.811
X161.356Y-85.352
X161.356Y-87.891
X161.356Y-90.431
X161.356Y-92.971
X161.356Y-95.511
X161.356Y-98.051
X161.356Y-100.591
X161.356Y-103.131
X176.576Y-75.191
X176.576Y-77.731
X176.576Y-80.272
X176.576Y-82.811
X176.576Y-85.352
X176.576Y-87.891
X176.576Y-90.431
X176.576Y-92.971
X176.576Y-95.511
X176.576Y-98.051
X176.576Y-100.591
X176.576Y-103.131
X231.992Y-75.167
X231.992Y-77.707
X231.992Y-80.247
X231.992Y-82.787
X231.992Y-85.327
X231.992Y-87.867
X231.992Y-90.407
X231.992Y-92.947
X231.992Y-95.487
X231.992Y-98.027
X231.992Y-100.567
X231.992Y-103.107
X247.212Y-75.167
X247.212Y-77.707
X247.212Y-80.247
X247.212Y-82.787
X247.212Y-85.327
X247.212Y-87.867
X247.212Y-90.407
X247.212Y-92.947
X247.212Y-95.487
X247.212Y-98.027
X247.212Y-100.567
X247.212Y-103.107
T5
X165.028Y-110.28
X167.567Y-110.28
X170.107Y-110.28
X172.647Y-110.28
X235.797Y-110.28
X238.337Y-110.28
X240.877Y-110.28
X243.417Y-110.28
T6
X176.576Y-106.53
X176.576Y-113.03
X231.917Y-106.527
X231.917Y-113.027
T4
X166.737Y-115.441G85X166.237Y-115.441
G05
X168.237Y-119.641G85X167.737Y-119.641
G05
X172.236Y-119.641G85X171.736Y-119.641
G05
X175.236Y-119.641G85X174.736Y-119.641
G05
X233.2Y-115.425G85X233.7Y-115.425
G05
X236.2Y-115.425G85X236.7Y-115.425
G05
X240.2Y-115.425G85X240.7Y-115.425
G05
X241.7Y-119.625G85X242.2Y-119.625
G05
M30
