M48
; DRILL file {KiCad 8.0.1} date 2024-05-31T23:59:56+0200
; FORMAT={-:-/ absolute / metric / decimal}
; #@! TF.CreationDate,2024-05-31T23:59:56+02:00
; #@! TF.GenerationSoftware,Kicad,Pcbnew,8.0.1
; #@! TF.FileFunction,Plated,1,2,PTH
FMAT,2
METRIC
; #@! TA.AperFunction,Plated,PTH,ViaDrill
T1C0.300
; #@! TA.AperFunction,Plated,PTH,ComponentDrill
T2C0.300
; #@! TA.AperFunction,Plated,PTH,ViaDrill
T3C0.600
; #@! TA.AperFunction,Plated,PTH,ComponentDrill
T4C1.000
; #@! TA.AperFunction,Plated,PTH,ComponentDrill
T5C1.092
%
G90
G05
T1
X21.184Y-40.774
X21.184Y-43.314
X21.184Y-45.854
X21.184Y-48.394
X21.184Y-50.934
X21.184Y-53.474
X21.184Y-56.014
X21.184Y-58.554
X21.184Y-61.094
X21.184Y-63.634
X21.184Y-76.334
X21.184Y-78.874
X21.184Y-81.414
X21.184Y-96.654
X21.184Y-99.194
X21.184Y-101.734
X23.724Y-38.234
X23.724Y-40.774
X23.724Y-43.314
X23.724Y-45.854
X23.724Y-56.014
X23.724Y-58.554
X23.724Y-61.094
X23.724Y-63.634
X23.724Y-78.874
X23.724Y-81.414
X23.724Y-94.114
X23.724Y-99.194
X26.264Y-38.234
X26.264Y-40.774
X26.264Y-43.314
X26.264Y-45.854
X26.264Y-56.014
X26.264Y-63.634
X26.264Y-81.414
X26.264Y-94.114
X26.264Y-99.194
X28.804Y-38.234
X28.804Y-40.774
X28.804Y-43.314
X28.804Y-45.854
X28.804Y-63.634
X28.804Y-71.254
X28.804Y-81.414
X31.344Y-38.234
X31.344Y-40.774
X31.344Y-43.314
X31.344Y-45.854
X31.344Y-63.634
X31.344Y-66.174
X31.344Y-81.414
X33.884Y-38.234
X33.884Y-45.854
X33.884Y-56.014
X33.884Y-66.174
X33.884Y-76.334
X33.884Y-81.414
X33.884Y-94.114
X33.884Y-99.194
X35.369Y-63.489
X36.424Y-38.234
X36.424Y-45.854
X36.424Y-56.014
X36.424Y-76.334
X36.769Y-54.289
X38.769Y-95.489
X38.964Y-38.234
X38.964Y-45.854
X38.964Y-48.394
X38.964Y-58.554
X38.964Y-66.174
X38.964Y-68.714
X38.964Y-73.794
X38.964Y-86.494
X38.964Y-101.734
X39.969Y-94.289
X40.969Y-57.689
X41.504Y-38.234
X41.504Y-40.774
X41.504Y-48.394
X41.504Y-50.934
X41.504Y-56.014
X41.504Y-66.174
X41.504Y-68.714
X41.504Y-71.254
X41.504Y-76.334
X41.504Y-86.494
X41.504Y-101.734
X44.044Y-38.234
X44.044Y-40.774
X44.044Y-50.934
X44.044Y-56.014
X44.044Y-68.714
X44.044Y-73.794
X44.044Y-76.334
X44.044Y-89.034
X44.044Y-101.734
X46.584Y-38.234
X46.584Y-56.014
X46.584Y-68.714
X46.584Y-73.794
X46.584Y-76.334
X46.584Y-86.494
X46.584Y-96.654
X46.584Y-99.194
X46.584Y-101.734
X49.124Y-38.234
X49.124Y-40.774
X49.124Y-43.314
X49.124Y-56.014
X49.124Y-61.094
X49.124Y-63.634
X49.124Y-76.334
X49.124Y-78.874
X49.124Y-81.414
X49.124Y-96.654
X49.124Y-99.194
X49.124Y-101.734
X51.664Y-38.234
X51.664Y-56.014
X51.664Y-68.714
X51.664Y-73.794
X51.664Y-96.654
X51.664Y-99.194
X51.664Y-101.734
X51.969Y-94.289
X54.204Y-38.234
X54.204Y-40.774
X54.204Y-50.934
X54.204Y-56.014
X54.204Y-68.714
X54.204Y-89.034
X54.204Y-96.654
X54.204Y-99.194
X54.204Y-101.734
X56.744Y-38.234
X56.744Y-40.774
X56.744Y-96.654
X56.744Y-99.194
X58.769Y-45.689
X59.284Y-22.994
X59.284Y-25.534
X59.284Y-28.074
X59.284Y-30.614
X59.284Y-35.694
X59.284Y-38.234
X59.284Y-96.654
X61.142Y-44.569
X61.824Y-28.074
X61.824Y-38.234
X61.824Y-43.314
X61.824Y-56.014
X61.824Y-61.094
X61.824Y-63.634
X61.824Y-76.334
X63.569Y-83.785
X64.364Y-28.074
X64.364Y-38.234
X64.364Y-43.314
X64.364Y-56.014
X64.364Y-61.094
X64.364Y-63.634
X64.364Y-81.414
X66.904Y-28.074
X66.904Y-43.314
X66.904Y-63.634
X66.904Y-81.414
X69.444Y-28.074
X69.444Y-43.314
X69.444Y-63.634
X69.444Y-81.414
X70.969Y-83.689
X71.984Y-25.534
X71.984Y-28.074
X71.984Y-38.234
X71.984Y-56.014
X71.984Y-61.094
X74.524Y-25.534
X74.524Y-28.074
X74.524Y-38.234
X74.524Y-56.014
X74.524Y-76.334
X74.769Y-34.689
X77.064Y-20.454
X77.064Y-22.994
X77.064Y-25.534
X77.064Y-28.074
X77.064Y-30.614
X77.064Y-48.394
X77.064Y-53.474
X77.064Y-58.554
X77.064Y-66.174
X77.064Y-68.714
X77.064Y-73.794
X78.017Y-82.337
X78.769Y-38.489
X79.569Y-37.889
X79.604Y-20.454
X79.604Y-22.994
X79.604Y-30.614
X79.604Y-33.154
X79.604Y-50.934
X79.604Y-56.014
X79.604Y-68.714
X79.604Y-71.254
X79.604Y-76.334
X82.144Y-20.454
X82.144Y-22.994
X82.144Y-33.154
X82.144Y-50.934
X82.144Y-56.014
X82.144Y-71.254
X84.684Y-20.454
X84.684Y-22.994
X84.684Y-50.934
X84.684Y-83.954
X87.224Y-20.454
X87.224Y-22.994
X87.224Y-25.534
X87.224Y-43.314
X87.224Y-45.854
X87.224Y-63.634
X89.764Y-20.454
X89.764Y-22.994
X89.764Y-50.934
X89.764Y-56.014
X89.764Y-83.954
X89.969Y-77.474
X92.304Y-20.454
X92.304Y-22.994
X92.304Y-33.154
X92.304Y-50.934
X92.304Y-71.254
X93.769Y-29.889
X94.844Y-20.454
X94.844Y-22.994
X94.844Y-50.934
X94.844Y-53.474
X94.844Y-68.714
X94.844Y-71.254
X94.844Y-76.334
X96.369Y-38.089
X97.03Y-82.227
X97.384Y-22.994
X97.384Y-25.534
X97.384Y-28.074
X98.169Y-81.289
X98.969Y-40.489
X99.924Y-22.994
X99.924Y-25.534
X99.924Y-28.074
X99.924Y-61.094
X102.464Y-22.994
X102.464Y-25.534
X102.464Y-28.074
X102.464Y-38.234
X102.464Y-56.014
X102.464Y-61.094
X105.004Y-22.994
X105.004Y-25.534
X105.004Y-28.074
X105.004Y-50.934
X107.544Y-22.994
X107.544Y-25.534
X107.544Y-28.074
X107.544Y-81.414
X108.969Y-83.689
X110.084Y-22.994
X110.084Y-25.534
X110.084Y-28.074
X110.084Y-38.234
X110.084Y-56.014
X110.084Y-81.414
X110.169Y-41.689
X112.569Y-36.089
X112.624Y-22.994
X112.624Y-25.534
X112.624Y-28.074
X112.624Y-56.014
X112.624Y-58.554
X112.624Y-76.334
X112.624Y-81.414
X115.164Y-22.994
X115.164Y-25.534
X115.164Y-28.074
X115.164Y-30.614
X115.164Y-33.154
X115.164Y-35.694
X115.164Y-38.234
X115.164Y-86.494
X115.164Y-89.034
X115.164Y-91.574
X115.164Y-94.114
X115.164Y-96.654
X115.164Y-99.194
X115.164Y-101.734
X115.164Y-104.274
X115.164Y-106.814
X115.569Y-83.689
X116.072Y-41.764
X116.569Y-64.089
X116.773Y-46.28
X117.704Y-20.454
X117.704Y-28.074
X117.704Y-30.614
X117.704Y-38.234
X117.704Y-56.014
X117.704Y-58.554
X117.704Y-76.334
X117.704Y-78.874
X117.704Y-81.414
X117.704Y-101.734
X117.704Y-104.274
X117.704Y-106.814
X119.769Y-64.889
X120.244Y-20.454
X120.244Y-28.074
X120.244Y-30.614
X120.244Y-58.554
X120.244Y-78.874
X120.244Y-104.274
X120.244Y-106.814
X120.569Y-89.089
X122.569Y-82.489
X122.784Y-22.994
X122.784Y-25.534
X122.784Y-28.074
X122.784Y-58.554
X122.784Y-99.194
X122.784Y-106.814
X124.369Y-89.089
X125.169Y-64.889
X125.324Y-28.074
X125.324Y-30.614
X125.324Y-33.154
X125.324Y-50.934
X125.324Y-53.474
X125.324Y-71.254
X125.324Y-106.814
X127.864Y-28.074
X127.864Y-38.234
X127.864Y-40.774
X127.864Y-58.554
X127.864Y-76.334
X127.864Y-89.034
X127.864Y-91.574
X127.864Y-101.734
X127.864Y-109.354
X127.969Y-83.689
X129.345Y-43.909
X129.369Y-49.889
X129.769Y-106.489
X130.404Y-28.074
X130.404Y-30.614
X130.404Y-40.774
X130.404Y-58.554
X130.404Y-78.874
X130.404Y-89.034
X130.404Y-91.574
X130.404Y-101.734
X130.404Y-109.354
X130.969Y-85.089
X131.769Y-37.089
X132.169Y-65.289
X132.169Y-81.489
X132.944Y-28.074
X132.944Y-30.614
X132.944Y-56.014
X132.944Y-99.194
X132.944Y-101.734
X132.944Y-104.274
X132.944Y-109.354
X133.369Y-106.689
X133.769Y-92.689
X135.484Y-28.074
X135.484Y-30.614
X135.484Y-33.154
X135.484Y-35.694
X135.484Y-38.234
X135.484Y-96.654
X135.484Y-99.194
X135.484Y-101.734
X135.484Y-104.274
X135.484Y-109.354
X135.769Y-41.689
X135.769Y-85.489
X135.769Y-89.489
X135.77Y-91.888
X136.369Y-55.489
X136.769Y-61.289
X137.169Y-68.689
X137.769Y-73.889
X138.024Y-81.414
X138.024Y-83.954
X138.024Y-91.574
X138.024Y-96.654
X138.024Y-101.734
X138.024Y-104.274
X138.8Y-66.6
X138.969Y-76.689
X139.369Y-55.689
X140.245Y-64.553
X140.564Y-38.234
X140.564Y-40.774
X140.564Y-43.314
X140.564Y-45.854
X140.564Y-48.394
X140.564Y-50.934
X140.564Y-68.714
X140.564Y-71.254
X140.564Y-81.414
X140.564Y-83.954
X140.564Y-91.574
X140.564Y-104.274
X140.569Y-35.689
X140.569Y-53.489
X140.769Y-93.689
X141.0Y-63.798
X141.169Y-33.289
X141.396Y-66.959
X141.569Y-79.089
X141.635Y-31.202
X141.969Y-55.889
X142.563Y-31.689
X142.969Y-30.489
X143.104Y-28.074
X143.104Y-68.714
X143.104Y-81.414
X143.104Y-83.954
X143.104Y-86.494
X143.104Y-89.034
X144.0Y-34.2
X144.569Y-111.289
X145.169Y-33.289
X145.169Y-35.289
X145.369Y-77.089
X145.644Y-30.614
X145.644Y-38.234
X145.644Y-40.774
X145.644Y-43.314
X145.644Y-45.854
X145.644Y-48.394
X145.644Y-50.934
X145.644Y-53.474
X145.644Y-68.714
X145.644Y-81.414
X145.644Y-86.494
X146.569Y-85.089
X146.569Y-89.089
X146.769Y-59.689
X146.769Y-93.689
X146.969Y-111.289
X147.169Y-33.289
X147.169Y-35.289
X147.369Y-75.889
X148.184Y-30.614
X148.184Y-38.234
X148.184Y-40.774
X148.184Y-43.314
X148.184Y-45.854
X148.184Y-48.394
X148.184Y-50.934
X148.184Y-53.474
X148.184Y-56.014
X148.184Y-68.714
X148.184Y-71.254
X148.184Y-81.414
X148.184Y-83.954
X148.184Y-86.494
X148.184Y-106.814
X148.769Y-96.289
X149.569Y-77.089
X149.569Y-109.689
X150.724Y-30.614
X150.724Y-33.154
X150.724Y-35.694
X150.724Y-38.234
X150.724Y-56.014
X150.724Y-68.714
X150.724Y-71.254
X150.724Y-73.794
X150.724Y-81.414
X150.724Y-83.954
X150.724Y-86.494
X150.8Y-64.4
X151.071Y-66.552
X152.169Y-60.689
X152.169Y-95.489
X152.319Y-85.089
X152.369Y-65.089
X152.369Y-89.089
X152.769Y-97.489
X153.264Y-68.714
X153.264Y-71.254
X153.264Y-78.874
X153.264Y-81.414
X153.264Y-83.954
X153.264Y-86.494
X153.264Y-106.814
X153.264Y-109.354
X153.264Y-116.974
X153.369Y-99.089
X154.2Y-93.6
X154.569Y-62.289
X154.569Y-75.289
X154.569Y-101.689
X154.769Y-65.089
X154.769Y-115.089
X155.369Y-61.889
X155.769Y-31.889
X155.769Y-60.889
X158.344Y-101.734
X158.344Y-111.894
X160.884Y-99.194
X160.884Y-111.894
X161.969Y-119.089
X163.424Y-104.274
X163.424Y-109.354
X163.424Y-122.054
X165.964Y-106.814
X165.964Y-109.354
X165.964Y-114.434
X165.964Y-122.054
X165.964Y-124.594
X168.504Y-116.974
X168.504Y-119.514
X168.504Y-122.054
X171.044Y-116.974
X173.584Y-106.814
X173.584Y-109.354
X173.584Y-111.894
X173.584Y-114.434
X176.124Y-109.354
T2
X23.719Y-50.889
X23.719Y-69.889
X23.719Y-88.889
X25.019Y-59.439
X25.019Y-78.439
X25.019Y-97.439
X25.894Y-59.439
X25.894Y-78.439
X25.894Y-97.439
X34.444Y-59.439
X34.444Y-78.439
X34.444Y-97.439
X35.319Y-59.439
X35.319Y-78.439
X35.319Y-97.439
X36.644Y-50.889
X36.644Y-69.889
X36.644Y-88.889
X42.719Y-43.889
X42.719Y-62.889
X42.719Y-81.889
X44.019Y-52.439
X44.019Y-71.439
X44.019Y-90.439
X44.894Y-52.439
X44.894Y-71.439
X44.894Y-90.439
X53.444Y-52.439
X53.444Y-71.439
X53.444Y-90.439
X54.319Y-52.439
X54.319Y-71.439
X54.319Y-90.439
X55.644Y-43.889
X55.644Y-62.889
X55.644Y-81.889
X61.719Y-31.389
X61.719Y-50.389
X61.719Y-69.389
X63.019Y-39.939
X63.019Y-58.939
X63.019Y-77.939
X63.894Y-39.939
X63.894Y-58.939
X63.894Y-77.939
X72.444Y-39.939
X72.444Y-58.939
X72.444Y-77.939
X73.319Y-39.939
X73.319Y-58.939
X73.319Y-77.939
X74.644Y-31.389
X74.644Y-50.389
X74.644Y-69.389
X80.719Y-26.389
X80.719Y-45.389
X80.719Y-64.389
X82.019Y-34.939
X82.019Y-53.939
X82.019Y-72.939
X82.894Y-34.939
X82.894Y-53.939
X82.894Y-72.939
X91.444Y-34.939
X91.444Y-53.939
X91.444Y-72.939
X92.319Y-34.939
X92.319Y-53.939
X92.319Y-72.939
X93.644Y-26.389
X93.644Y-45.389
X93.644Y-64.389
X99.719Y-31.389
X99.719Y-50.389
X99.719Y-69.389
X101.019Y-39.939
X101.019Y-58.939
X101.019Y-77.939
X101.894Y-39.939
X101.894Y-58.939
X101.894Y-77.939
X110.444Y-39.939
X110.444Y-58.939
X110.444Y-77.939
X111.319Y-39.939
X111.319Y-58.939
X111.319Y-77.939
X112.644Y-31.389
X112.644Y-50.389
X112.644Y-69.389
X118.719Y-33.889
X118.719Y-52.889
X118.719Y-71.889
X119.693Y-102.38
X119.872Y-93.733
X120.019Y-42.439
X120.019Y-61.439
X120.019Y-80.439
X120.555Y-102.529
X120.894Y-42.439
X120.894Y-61.439
X120.894Y-80.439
X128.98Y-103.989
X129.444Y-42.439
X129.444Y-61.439
X129.444Y-80.439
X129.842Y-104.138
X130.319Y-42.439
X130.319Y-61.439
X130.319Y-80.439
X131.644Y-33.889
X131.644Y-52.889
X131.644Y-71.889
X132.607Y-95.94
X138.732Y-106.455
X139.557Y-106.746
X140.35Y-97.96
X147.62Y-109.59
X148.445Y-109.881
X152.539Y-102.259
X156.831Y-113.653
X157.596Y-114.077
X159.843Y-105.546
X165.071Y-118.227
X165.837Y-118.651
X171.144Y-111.818
T3
X130.969Y-83.689
X134.944Y-83.689
T4
X141.589Y-65.709
X144.129Y-65.709
X146.669Y-65.709
X149.209Y-65.709
T5
X137.798Y-58.679
X137.799Y-28.199
X137.799Y-30.739
X137.799Y-33.279
X137.799Y-35.819
X137.799Y-38.359
X137.799Y-40.899
X137.799Y-43.439
X137.799Y-45.979
X137.799Y-48.519
X137.799Y-51.059
X137.799Y-53.599
X137.799Y-56.139
X140.339Y-58.679
X142.879Y-58.679
X145.419Y-58.679
X147.959Y-58.679
X150.499Y-58.679
X153.039Y-28.199
X153.039Y-30.739
X153.039Y-33.279
X153.039Y-35.819
X153.039Y-38.359
X153.039Y-40.899
X153.039Y-43.439
X153.039Y-45.979
X153.039Y-48.519
X153.039Y-51.059
X153.039Y-53.599
X153.039Y-56.139
X153.039Y-58.679
T4
X144.119Y-71.189G85X143.619Y-71.189
G05
X144.119Y-79.589G85X143.619Y-79.589
G05
X145.619Y-75.389G85X145.119Y-75.389
G05
X149.619Y-75.389G85X149.119Y-75.389
G05
X152.619Y-75.389G85X152.119Y-75.389
G05
M30
