G04 #@! TF.GenerationSoftware,KiCad,Pcbnew,8.0.1*
G04 #@! TF.CreationDate,2024-07-08T20:48:30+02:00*
G04 #@! TF.ProjectId,cornia,636f726e-6961-42e6-9b69-6361645f7063,3.0.1*
G04 #@! TF.SameCoordinates,Original*
G04 #@! TF.FileFunction,Paste,Bot*
G04 #@! TF.FilePolarity,Positive*
%FSLAX46Y46*%
G04 Gerber Fmt 4.6, Leading zero omitted, Abs format (unit mm)*
G04 Created by KiCad (PCBNEW 8.0.1) date 2024-07-08 20:48:30*
%MOMM*%
%LPD*%
G01*
G04 APERTURE LIST*
G04 Aperture macros list*
%AMRoundRect*
0 Rectangle with rounded corners*
0 $1 Rounding radius*
0 $2 $3 $4 $5 $6 $7 $8 $9 X,Y pos of 4 corners*
0 Add a 4 corners polygon primitive as box body*
4,1,4,$2,$3,$4,$5,$6,$7,$8,$9,$2,$3,0*
0 Add four circle primitives for the rounded corners*
1,1,$1+$1,$2,$3*
1,1,$1+$1,$4,$5*
1,1,$1+$1,$6,$7*
1,1,$1+$1,$8,$9*
0 Add four rect primitives between the rounded corners*
20,1,$1+$1,$2,$3,$4,$5,0*
20,1,$1+$1,$4,$5,$6,$7,0*
20,1,$1+$1,$6,$7,$8,$9,0*
20,1,$1+$1,$8,$9,$2,$3,0*%
%AMRotRect*
0 Rectangle, with rotation*
0 The origin of the aperture is its center*
0 $1 length*
0 $2 width*
0 $3 Rotation angle, in degrees counterclockwise*
0 Add horizontal line*
21,1,$1,$2,0,0,$3*%
G04 Aperture macros list end*
%ADD10RoundRect,0.250000X0.600000X-0.400000X0.600000X0.400000X-0.600000X0.400000X-0.600000X-0.400000X0*%
%ADD11R,1.700000X0.825000*%
%ADD12RotRect,1.700000X0.825000X331.170000*%
%ADD13R,2.550000X2.500000*%
%ADD14RotRect,2.550000X2.500000X350.170000*%
%ADD15RotRect,2.550000X2.500000X340.670000*%
%ADD16RotRect,2.550000X2.500000X331.170000*%
%ADD17R,1.500000X0.900000*%
%ADD18RotRect,1.700000X0.825000X9.830000*%
%ADD19RotRect,1.700000X0.825000X19.330000*%
%ADD20RotRect,2.550000X2.500000X28.830000*%
%ADD21RotRect,2.550000X2.500000X9.830000*%
%ADD22RotRect,2.550000X2.500000X19.330000*%
%ADD23RotRect,1.700000X0.825000X350.170000*%
%ADD24RotRect,1.700000X0.825000X340.670000*%
%ADD25RotRect,1.700000X0.825000X28.830000*%
%ADD26RoundRect,0.237500X0.250000X0.237500X-0.250000X0.237500X-0.250000X-0.237500X0.250000X-0.237500X0*%
%ADD27RoundRect,0.237500X-0.250000X-0.237500X0.250000X-0.237500X0.250000X0.237500X-0.250000X0.237500X0*%
G04 APERTURE END LIST*
D10*
X63686500Y-95801375D03*
X63686500Y-92301375D03*
X82326500Y-88804500D03*
X82326500Y-85304500D03*
X100939500Y-76054500D03*
X100939500Y-72554500D03*
X119579500Y-71304500D03*
X119579500Y-67804500D03*
X138219500Y-76204500D03*
X138219500Y-72704500D03*
X156859500Y-78804500D03*
X156859500Y-75304500D03*
X63686500Y-114401375D03*
X63686500Y-110901375D03*
X82326500Y-107404500D03*
X82326500Y-103904500D03*
X100939500Y-94904500D03*
X100939500Y-91404500D03*
X119579500Y-89904500D03*
X119579500Y-86404500D03*
X138219500Y-94804500D03*
X138219500Y-91304500D03*
X156859500Y-97404500D03*
X156859500Y-93904500D03*
X63686500Y-133001375D03*
X63686500Y-129501375D03*
X82326500Y-126004500D03*
X82326500Y-122504500D03*
X100939500Y-113504500D03*
X100939500Y-110004500D03*
X119579500Y-108504500D03*
X119579500Y-105004500D03*
X138219500Y-113404500D03*
X138219500Y-109904500D03*
X156859500Y-116004500D03*
X156859500Y-112504500D03*
X143607500Y-143530000D03*
X143607500Y-140030000D03*
X176607500Y-151530000D03*
X176607500Y-148030000D03*
X179607500Y-151530000D03*
X179607500Y-148030000D03*
D11*
X58859500Y-99504500D03*
X58859500Y-98104500D03*
X53259500Y-98104500D03*
X53259500Y-99504500D03*
X77499500Y-92504500D03*
X77499500Y-91104500D03*
X71899500Y-91104500D03*
X71899500Y-92504500D03*
X96139500Y-80004500D03*
X96139500Y-78604500D03*
X90539500Y-78604500D03*
X90539500Y-80004500D03*
X114779500Y-75004500D03*
X114779500Y-73604500D03*
X109179500Y-73604500D03*
X109179500Y-75004500D03*
X133419500Y-79904500D03*
X133419500Y-78504500D03*
X127819500Y-78504500D03*
X127819500Y-79904500D03*
X152059500Y-82504500D03*
X152059500Y-81104500D03*
X146459500Y-81104500D03*
X146459500Y-82504500D03*
X58859500Y-118104500D03*
X58859500Y-116704500D03*
X53259500Y-116704500D03*
X53259500Y-118104500D03*
X77499500Y-111104500D03*
X77499500Y-109704500D03*
X71899500Y-109704500D03*
X71899500Y-111104500D03*
X96139500Y-98604500D03*
X96139500Y-97204500D03*
X90539500Y-97204500D03*
X90539500Y-98604500D03*
X114779500Y-93604500D03*
X114779500Y-92204500D03*
X109179500Y-92204500D03*
X109179500Y-93604500D03*
X133419500Y-98504500D03*
X133419500Y-97104500D03*
X127819500Y-97104500D03*
X127819500Y-98504500D03*
X152059500Y-101104500D03*
X152059500Y-99704500D03*
X146459500Y-99704500D03*
X146459500Y-101104500D03*
X58859500Y-136704500D03*
X58859500Y-135304500D03*
X53259500Y-135304500D03*
X53259500Y-136704500D03*
X77499500Y-129704500D03*
X77499500Y-128304500D03*
X71899500Y-128304500D03*
X71899500Y-129704500D03*
X96139500Y-117204500D03*
X96139500Y-115804500D03*
X90539500Y-115804500D03*
X90539500Y-117204500D03*
X114779500Y-112204500D03*
X114779500Y-110804500D03*
X109179500Y-110804500D03*
X109179500Y-112204500D03*
X152059500Y-119704500D03*
X152059500Y-118304500D03*
X146459500Y-118304500D03*
X146459500Y-119704500D03*
D12*
X188191660Y-156902682D03*
X188866758Y-155676205D03*
X183960854Y-152975816D03*
X183285756Y-154202293D03*
D13*
X67614500Y-84514500D03*
X80541500Y-81974500D03*
X86254500Y-72014500D03*
X99181500Y-69474500D03*
X104894500Y-67014500D03*
X117821500Y-64474500D03*
X123534500Y-71914500D03*
X136461500Y-69374500D03*
X48974500Y-110114500D03*
X61901500Y-107574500D03*
X67614500Y-103114500D03*
X80541500Y-100574500D03*
X86254500Y-90614500D03*
X99181500Y-88074500D03*
X104894500Y-85614500D03*
X117821500Y-83074500D03*
X123534500Y-90514500D03*
X136461500Y-87974500D03*
X142174500Y-93114500D03*
X155101500Y-90574500D03*
X48974500Y-128714500D03*
X61901500Y-126174500D03*
X67614500Y-121714500D03*
X80541500Y-119174500D03*
X86254500Y-109214500D03*
X99181500Y-106674500D03*
X104894500Y-104214500D03*
X117821500Y-101674500D03*
X123534500Y-109114500D03*
X136461500Y-106574500D03*
X142174500Y-111714500D03*
X155101500Y-109174500D03*
D14*
X144682539Y-134201701D03*
X157853396Y-133905959D03*
D15*
X164505038Y-137981990D03*
X177544076Y-139864123D03*
D16*
X183377475Y-145132347D03*
X195927049Y-149140729D03*
D17*
X77149500Y-75130000D03*
X77149500Y-78430000D03*
X72249500Y-78430000D03*
X72249500Y-75130000D03*
X114429500Y-57630000D03*
X114429500Y-60930000D03*
X109529500Y-60930000D03*
X109529500Y-57630000D03*
X151709500Y-65130000D03*
X151709500Y-68430000D03*
X146809500Y-68430000D03*
X146809500Y-65130000D03*
X114429500Y-114604500D03*
X114429500Y-117904500D03*
X109529500Y-117904500D03*
X109529500Y-114604500D03*
X151709500Y-122104500D03*
X151709500Y-125404500D03*
X146809500Y-125404500D03*
X146809500Y-122104500D03*
X336230500Y-75280000D03*
X336230500Y-78580000D03*
X331330500Y-78580000D03*
X331330500Y-75280000D03*
X298950500Y-57880000D03*
X298950500Y-61180000D03*
X294050500Y-61180000D03*
X294050500Y-57880000D03*
X261670500Y-65380000D03*
X261670500Y-68680000D03*
X256770500Y-68680000D03*
X256770500Y-65380000D03*
X336230500Y-132130000D03*
X336230500Y-135430000D03*
X331330500Y-135430000D03*
X331330500Y-132130000D03*
X298950500Y-114630000D03*
X298950500Y-117930000D03*
X294050500Y-117930000D03*
X294050500Y-114630000D03*
X261670500Y-122110000D03*
X261670500Y-125410000D03*
X256770500Y-125410000D03*
X256770500Y-122110000D03*
D11*
X299300500Y-93610000D03*
X299300500Y-92210000D03*
X293700500Y-92210000D03*
X293700500Y-93610000D03*
X280660500Y-98510000D03*
X280660500Y-97110000D03*
X275060500Y-97110000D03*
X275060500Y-98510000D03*
X262020500Y-101110000D03*
X262020500Y-99710000D03*
X256420500Y-99710000D03*
X256420500Y-101110000D03*
X355220500Y-136710000D03*
X355220500Y-135310000D03*
X349620500Y-135310000D03*
X349620500Y-136710000D03*
X336580500Y-129710000D03*
X336580500Y-128310000D03*
X330980500Y-128310000D03*
X330980500Y-129710000D03*
X317940500Y-117210000D03*
X317940500Y-115810000D03*
X312340500Y-115810000D03*
X312340500Y-117210000D03*
X299300500Y-112210000D03*
X299300500Y-110810000D03*
X293700500Y-110810000D03*
X293700500Y-112210000D03*
X280660500Y-117110000D03*
X280660500Y-115710000D03*
X275060500Y-115710000D03*
X275060500Y-117110000D03*
X262020500Y-119710000D03*
X262020500Y-118310000D03*
X256420500Y-118310000D03*
X256420500Y-119710000D03*
D18*
X260940199Y-142812132D03*
X260701183Y-141432686D03*
X255183399Y-142388748D03*
X255422415Y-143768194D03*
D19*
X242573045Y-146940861D03*
X242109633Y-145619782D03*
X236825317Y-147473429D03*
X237288729Y-148794508D03*
D20*
X212695336Y-151966547D03*
X222795270Y-143507809D03*
D10*
X341387500Y-88805000D03*
X341387500Y-85305000D03*
X322747500Y-76305000D03*
X322747500Y-72805000D03*
X304107500Y-71305000D03*
X304107500Y-67805000D03*
X266820500Y-78810000D03*
X266820500Y-75310000D03*
X360027500Y-114250000D03*
X360027500Y-110750000D03*
X341387500Y-107405000D03*
X341387500Y-103905000D03*
X322747500Y-94905000D03*
X322747500Y-91405000D03*
X304107500Y-89905000D03*
X304107500Y-86405000D03*
X285467500Y-94805000D03*
X285467500Y-91305000D03*
X266820500Y-97410000D03*
X266820500Y-93910000D03*
X360027500Y-133000000D03*
X360027500Y-129500000D03*
X341387500Y-126005000D03*
X341387500Y-122505000D03*
X322747500Y-113505000D03*
X322747500Y-110005000D03*
X304107500Y-108505000D03*
X304107500Y-105005000D03*
X285467500Y-113405000D03*
X285467500Y-109905000D03*
X266820500Y-116010000D03*
X266820500Y-112510000D03*
X265607500Y-141530000D03*
X265607500Y-138030000D03*
X247107500Y-144530000D03*
X247107500Y-141030000D03*
X229107500Y-151030000D03*
X229107500Y-147530000D03*
X360027500Y-95800000D03*
X360027500Y-92300000D03*
D13*
X289422500Y-104215000D03*
X302349500Y-101675000D03*
X270782500Y-109115000D03*
X283709500Y-106575000D03*
X252142500Y-111715000D03*
X265069500Y-109175000D03*
D21*
X249842272Y-136620935D03*
X262145843Y-131911258D03*
D22*
X230610526Y-142673293D03*
X241968040Y-135997531D03*
D13*
X289422500Y-67015000D03*
X302349500Y-64475000D03*
X270782500Y-71915000D03*
X283709500Y-69375000D03*
X345342500Y-110115000D03*
X358269500Y-107575000D03*
X308062500Y-72015000D03*
X320989500Y-69475000D03*
X326702500Y-103115000D03*
X339629500Y-100575000D03*
X326702500Y-121715000D03*
X339629500Y-119175000D03*
X308062500Y-109215000D03*
X320989500Y-106675000D03*
X345342500Y-91515000D03*
X358269500Y-88975000D03*
X326702500Y-84515000D03*
X339629500Y-81975000D03*
X308062500Y-90615000D03*
X320989500Y-88075000D03*
X289422500Y-85615000D03*
X302349500Y-83075000D03*
X270782500Y-90515000D03*
X283709500Y-87975000D03*
X252142500Y-93115000D03*
X265069500Y-90575000D03*
X345342500Y-128715000D03*
X358269500Y-126175000D03*
D10*
X285467500Y-76205000D03*
X285467500Y-72705000D03*
D13*
X48974500Y-91514500D03*
X61901500Y-88974500D03*
D23*
X153058317Y-143762018D03*
X153297333Y-142382572D03*
X147779549Y-141426510D03*
X147540533Y-142805956D03*
D24*
X171198041Y-148793595D03*
X171661453Y-147472516D03*
X166377137Y-145618869D03*
X165913725Y-146939948D03*
D17*
X77149500Y-132130000D03*
X77149500Y-135430000D03*
X72249500Y-135430000D03*
X72249500Y-132130000D03*
D11*
X133419500Y-117104500D03*
X133419500Y-115704500D03*
X127819500Y-115704500D03*
X127819500Y-117104500D03*
X355220500Y-99510000D03*
X355220500Y-98110000D03*
X349620500Y-98110000D03*
X349620500Y-99510000D03*
X336580500Y-92510000D03*
X336580500Y-91110000D03*
X330980500Y-91110000D03*
X330980500Y-92510000D03*
X317940500Y-80010000D03*
X317940500Y-78610000D03*
X312340500Y-78610000D03*
X312340500Y-80010000D03*
X299300500Y-75010000D03*
X299300500Y-73610000D03*
X293700500Y-73610000D03*
X293700500Y-75010000D03*
X280660500Y-79910000D03*
X280660500Y-78510000D03*
X275060500Y-78510000D03*
X275060500Y-79910000D03*
X262020500Y-82510000D03*
X262020500Y-81110000D03*
X256420500Y-81110000D03*
X256420500Y-82510000D03*
X355220500Y-118110000D03*
X355220500Y-116710000D03*
X349620500Y-116710000D03*
X349620500Y-118110000D03*
X336580500Y-111110000D03*
X336580500Y-109710000D03*
X330980500Y-109710000D03*
X330980500Y-111110000D03*
X317940500Y-98610000D03*
X317940500Y-97210000D03*
X312340500Y-97210000D03*
X312340500Y-98610000D03*
D13*
X142174500Y-74514500D03*
X155101500Y-71974500D03*
X252135500Y-74520000D03*
X265062500Y-71980000D03*
D25*
X225200744Y-154203543D03*
X224525646Y-152977066D03*
X219619742Y-155677455D03*
X220294840Y-156903932D03*
D26*
X160607500Y-126780000D03*
X158782500Y-126780000D03*
D27*
X250695000Y-125780000D03*
X252520000Y-125780000D03*
M02*
