G04 #@! TF.GenerationSoftware,KiCad,Pcbnew,8.0.1*
G04 #@! TF.CreationDate,2024-05-31T00:09:47+02:00*
G04 #@! TF.ProjectId,cornia,636f726e-6961-42e6-9b69-6361645f7063,rev?*
G04 #@! TF.SameCoordinates,Original*
G04 #@! TF.FileFunction,Paste,Top*
G04 #@! TF.FilePolarity,Positive*
%FSLAX46Y46*%
G04 Gerber Fmt 4.6, Leading zero omitted, Abs format (unit mm)*
G04 Created by KiCad (PCBNEW 8.0.1) date 2024-05-31 00:09:47*
%MOMM*%
%LPD*%
G01*
G04 APERTURE LIST*
G04 Aperture macros list*
%AMRoundRect*
0 Rectangle with rounded corners*
0 $1 Rounding radius*
0 $2 $3 $4 $5 $6 $7 $8 $9 X,Y pos of 4 corners*
0 Add a 4 corners polygon primitive as box body*
4,1,4,$2,$3,$4,$5,$6,$7,$8,$9,$2,$3,0*
0 Add four circle primitives for the rounded corners*
1,1,$1+$1,$2,$3*
1,1,$1+$1,$4,$5*
1,1,$1+$1,$6,$7*
1,1,$1+$1,$8,$9*
0 Add four rect primitives between the rounded corners*
20,1,$1+$1,$2,$3,$4,$5,0*
20,1,$1+$1,$4,$5,$6,$7,0*
20,1,$1+$1,$6,$7,$8,$9,0*
20,1,$1+$1,$8,$9,$2,$3,0*%
%AMRotRect*
0 Rectangle, with rotation*
0 The origin of the aperture is its center*
0 $1 length*
0 $2 width*
0 $3 Rotation angle, in degrees counterclockwise*
0 Add horizontal line*
21,1,$1,$2,0,0,$3*%
%AMOutline5P*
0 Free polygon, 5 corners , with rotation*
0 The origin of the aperture is its center*
0 number of corners: always 5*
0 $1 to $10 corner X, Y*
0 $11 Rotation angle, in degrees counterclockwise*
0 create outline with 5 corners*
4,1,5,$1,$2,$3,$4,$5,$6,$7,$8,$9,$10,$1,$2,$11*%
%AMOutline6P*
0 Free polygon, 6 corners , with rotation*
0 The origin of the aperture is its center*
0 number of corners: always 6*
0 $1 to $12 corner X, Y*
0 $13 Rotation angle, in degrees counterclockwise*
0 create outline with 6 corners*
4,1,6,$1,$2,$3,$4,$5,$6,$7,$8,$9,$10,$11,$12,$1,$2,$13*%
%AMOutline7P*
0 Free polygon, 7 corners , with rotation*
0 The origin of the aperture is its center*
0 number of corners: always 7*
0 $1 to $14 corner X, Y*
0 $15 Rotation angle, in degrees counterclockwise*
0 create outline with 7 corners*
4,1,7,$1,$2,$3,$4,$5,$6,$7,$8,$9,$10,$11,$12,$13,$14,$1,$2,$15*%
%AMOutline8P*
0 Free polygon, 8 corners , with rotation*
0 The origin of the aperture is its center*
0 number of corners: always 8*
0 $1 to $16 corner X, Y*
0 $17 Rotation angle, in degrees counterclockwise*
0 create outline with 8 corners*
4,1,8,$1,$2,$3,$4,$5,$6,$7,$8,$9,$10,$11,$12,$13,$14,$15,$16,$1,$2,$17*%
G04 Aperture macros list end*
%ADD10R,2.550000X2.500000*%
%ADD11Outline5P,-1.275000X0.800000X-0.825000X1.250000X1.275000X1.250000X1.275000X-1.250000X-1.275000X-1.250000X180.000000*%
%ADD12R,1.540000X0.825000*%
%ADD13R,1.540000X0.822500*%
%ADD14R,2.800000X1.000000*%
%ADD15RotRect,1.540000X0.825000X150.970000*%
%ADD16RotRect,1.540000X0.822500X150.970000*%
%ADD17RotRect,2.550000X2.500000X150.970000*%
%ADD18Outline5P,-1.275000X0.800000X-0.825000X1.250000X1.275000X1.250000X1.275000X-1.250000X-1.275000X-1.250000X150.970000*%
%ADD19RotRect,1.540000X0.825000X170.170000*%
%ADD20RotRect,1.540000X0.822500X170.170000*%
%ADD21RotRect,2.550000X2.500000X160.570000*%
%ADD22Outline5P,-1.275000X0.800000X-0.825000X1.250000X1.275000X1.250000X1.275000X-1.250000X-1.275000X-1.250000X160.570000*%
%ADD23RotRect,1.540000X0.825000X160.570000*%
%ADD24RotRect,1.540000X0.822500X160.570000*%
%ADD25RoundRect,0.250000X0.350000X0.450000X-0.350000X0.450000X-0.350000X-0.450000X0.350000X-0.450000X0*%
%ADD26RoundRect,0.250000X-0.475000X0.337500X-0.475000X-0.337500X0.475000X-0.337500X0.475000X0.337500X0*%
%ADD27RotRect,2.550000X2.500000X170.171000*%
%ADD28Outline5P,-1.275000X0.800000X-0.825000X1.250000X1.275000X1.250000X1.275000X-1.250000X-1.275000X-1.250000X170.171000*%
G04 APERTURE END LIST*
D10*
X37253600Y-90148750D03*
D11*
X24326600Y-87608750D03*
D10*
X132253600Y-73148750D03*
D11*
X119326600Y-70608750D03*
D12*
X27288600Y-79138750D03*
X27288600Y-77738750D03*
X33048600Y-77738750D03*
D13*
X33048600Y-79140000D03*
D10*
X37253600Y-71148750D03*
D11*
X24326600Y-68608750D03*
D14*
X152468600Y-89088750D03*
X146668600Y-89088750D03*
X152468600Y-85088750D03*
X146668600Y-85088750D03*
D15*
X158475718Y-115366473D03*
X159155093Y-114142361D03*
X164191440Y-116937501D03*
D16*
X163511458Y-118162706D03*
D12*
X46288600Y-53138750D03*
X46288600Y-51738750D03*
X52048600Y-51738750D03*
D13*
X52048600Y-53140000D03*
D17*
X171066061Y-113215981D03*
D18*
X160995714Y-104722039D03*
D12*
X103288600Y-78638750D03*
X103288600Y-77238750D03*
X109048600Y-77238750D03*
D13*
X109048600Y-78640000D03*
D12*
X84288600Y-73638750D03*
X84288600Y-72238750D03*
X90048600Y-72238750D03*
D13*
X90048600Y-73640000D03*
D12*
X122288600Y-43138750D03*
X122288600Y-41738750D03*
X128048600Y-41738750D03*
D13*
X128048600Y-43140000D03*
D19*
X121810429Y-103457048D03*
X122049444Y-102077602D03*
X127724879Y-103060980D03*
D20*
X127485650Y-104441658D03*
D10*
X94253600Y-27648750D03*
D11*
X81326600Y-25108750D03*
D12*
X65288600Y-59638750D03*
X65288600Y-58238750D03*
X71048600Y-58238750D03*
D13*
X71048600Y-59640000D03*
D21*
X152695043Y-103650267D03*
D22*
X141349197Y-96954693D03*
D10*
X75253600Y-32648750D03*
D11*
X62326600Y-30108750D03*
D10*
X94253600Y-65648750D03*
D11*
X81326600Y-63108750D03*
D10*
X56253600Y-83148750D03*
D11*
X43326600Y-80608750D03*
D12*
X84288600Y-54638750D03*
X84288600Y-53238750D03*
X90048600Y-53238750D03*
D13*
X90048600Y-54640000D03*
D10*
X132253600Y-35148750D03*
D11*
X119326600Y-32608750D03*
D12*
X122288600Y-81138750D03*
X122288600Y-79738750D03*
X128048600Y-79738750D03*
D13*
X128048600Y-81140000D03*
D23*
X140639651Y-107870319D03*
X141105367Y-106550051D03*
X146537327Y-108466143D03*
D24*
X146071195Y-109787590D03*
D12*
X65288600Y-78638750D03*
X65288600Y-77238750D03*
X71048600Y-77238750D03*
D13*
X71048600Y-78640000D03*
D25*
X147168600Y-33288750D03*
X145168600Y-33288750D03*
D26*
X132968600Y-85251250D03*
X132968600Y-87326250D03*
D10*
X75253600Y-51648750D03*
D11*
X62326600Y-49108750D03*
D10*
X113253600Y-70648750D03*
D11*
X100326600Y-68108750D03*
D12*
X65288600Y-40638750D03*
X65288600Y-39238750D03*
X71048600Y-39238750D03*
D13*
X71048600Y-40640000D03*
D10*
X113253600Y-32648750D03*
D11*
X100326600Y-30108750D03*
D27*
X132993203Y-97285501D03*
D28*
X120689549Y-92576039D03*
D10*
X132253600Y-54148750D03*
D11*
X119326600Y-51608750D03*
D10*
X37253600Y-52148750D03*
D11*
X24326600Y-49608750D03*
D12*
X103288600Y-59638750D03*
X103288600Y-58238750D03*
X109048600Y-58238750D03*
D13*
X109048600Y-59640000D03*
D10*
X56253600Y-64148750D03*
D11*
X43326600Y-61608750D03*
D12*
X103288600Y-40638750D03*
X103288600Y-39238750D03*
X109048600Y-39238750D03*
D13*
X109048600Y-40640000D03*
D12*
X122288600Y-62138750D03*
X122288600Y-60738750D03*
X128048600Y-60738750D03*
D13*
X128048600Y-62140000D03*
D10*
X56253600Y-45148750D03*
D11*
X43326600Y-42608750D03*
D12*
X27288600Y-98138750D03*
X27288600Y-96738750D03*
X33048600Y-96738750D03*
D13*
X33048600Y-98140000D03*
D12*
X46288600Y-91138750D03*
X46288600Y-89738750D03*
X52048600Y-89738750D03*
D13*
X52048600Y-91140000D03*
D12*
X46288600Y-72138750D03*
X46288600Y-70738750D03*
X52048600Y-70738750D03*
D13*
X52048600Y-72140000D03*
D10*
X75253600Y-70648750D03*
D11*
X62326600Y-68108750D03*
D25*
X147168600Y-35288750D03*
X145168600Y-35288750D03*
D12*
X27288600Y-60138750D03*
X27288600Y-58738750D03*
X33048600Y-58738750D03*
D13*
X33048600Y-60140000D03*
D10*
X113253600Y-51648750D03*
D11*
X100326600Y-49108750D03*
D12*
X84288600Y-35638750D03*
X84288600Y-34238750D03*
X90048600Y-34238750D03*
D13*
X90048600Y-35640000D03*
D10*
X94253600Y-46648750D03*
D11*
X81326600Y-44108750D03*
M02*
